<svg width="100" height="100" viewBox="0 0 100 100" fill="none" xmlns="http://www.w3.org/2000/svg">
<path fill-rule="evenodd" clip-rule="evenodd" d="M35.7042 65.6765C33.8309 64.1976 31.4647 63.2117 28.8027 63.2117C22.6901 63.2117 17.7605 68.1413 17.7605 74.254C17.7605 76.8173 18.6478 79.2821 20.1267 81.1554C17.5633 79.1835 15.9858 76.0286 15.9858 72.5779C15.9858 66.4652 20.9154 61.5356 27.0281 61.5356C30.5774 61.5356 33.6337 63.1131 35.7042 65.6765Z" fill="#D9EBFF"/>
<path d="M63.6056 59.7605C77.9014 59.7605 83.4225 52.3661 83.4225 38.0703L82.2394 37.7746C82.2394 48.4225 75.7324 54.6337 64.2957 54.6337C52.8591 54.6337 43.5915 45.9577 43.5915 35.3098C43.5915 24.6619 51.1831 18.2534 62.3239 17.3661L61.6338 15.9858C48.0281 18.2534 38.2676 23.4788 38.2676 37.7746C38.2676 43.6901 37.4788 43.0985 40.6338 47.4365L43.8873 49.014C44.7746 49.1126 45.9577 49.4084 47.4366 50.6901C50.6901 56.9013 58.7746 59.7605 63.6056 59.7605Z" fill="#D9EBFF"/>
<path d="M38.5631 53.056C33.042 54.3377 31.4645 59.5631 31.3659 62.0279C30.0843 61.3377 28.1124 60.9434 27.2251 60.8448C27.2251 56.3096 29.4927 52.7603 30.6758 51.5772L36.3941 48.1265H41.0279L46.549 49.7039L49.6054 53.1546L50.4927 56.8025C48.9152 54.4363 45.4645 51.4786 38.5631 53.056Z" fill="#D9EBFF"/>
<path d="M28.9014 59.9578C28.9014 58.1832 29.3944 56.4085 30.2817 54.9297C30.4789 54.6339 30.4789 54.2395 30.3803 53.8452C30.2817 53.4508 30.0845 53.155 29.6901 53.0564C29.3944 52.8592 29 52.8592 28.6056 52.9578C28.2113 53.0564 27.9155 53.2536 27.8169 53.648C26.7324 55.6198 26.1408 57.7888 26.1408 60.0564C19.831 60.7466 15 66.1691 15 72.479C15 79.3804 20.6197 85.0001 27.5211 85.0001H29.6901C30.4789 85.0001 31.0704 84.4085 31.0704 83.6198C31.0704 82.8311 30.4789 82.2395 29.6901 82.2395H27.5211C22.0986 82.2395 17.7606 77.9015 17.7606 72.479C17.7606 67.0564 22.0986 62.7184 27.6197 62.7184C32.9437 62.7184 37.3803 67.155 37.3803 72.479C37.3803 73.2677 37.9718 73.8592 38.7606 73.8592C39.5493 73.8592 40.1408 73.2677 40.1408 72.479C40.0423 66.0705 35.1127 60.648 28.9014 59.9578Z" fill="#61A1F4"/>
<path d="M59.9577 62.9158C54.0422 57.4933 49.4084 61.8313 47.9295 64.5919L47.4365 62.3243L49.5069 58.8736L53.1548 56.606L57.9858 57.5919L60.0562 60.6482L66.4647 58.775L68.7323 59.6623L72.8731 62.7186L73.3661 66.1693C70.5069 59.9581 63.2112 61.4369 59.9577 62.9158Z" fill="#D9EBFF"/>
<path d="M75.0422 64.3944C74.352 62.6197 73.2675 61.1408 71.8872 59.9577C75.2394 58.1831 78.1971 55.6197 80.3661 52.4648C83.1267 48.5211 84.6056 43.7887 84.6056 38.8592C84.6056 37.8732 83.9154 36.9859 82.9295 36.7887C81.9436 36.5916 80.9577 37.0845 80.5633 37.9718C78.2957 43.0986 73.1689 46.3521 67.5492 46.3521H67.4506C59.6619 46.3521 53.352 39.9437 53.2534 32.1549C53.2534 26.5352 56.507 21.4084 61.6337 19.0423C62.521 18.6479 63.014 17.662 62.8168 16.6761C62.6196 15.6901 61.7323 15 60.7464 15C47.7323 15 37.0844 25.6479 37.0844 38.662C37.0844 41.2254 37.4788 43.7887 38.3661 46.2535C35.4084 46.5493 32.6478 47.7324 30.4788 49.7042C30.183 49.9014 30.0844 50.2958 29.9858 50.6901C29.9858 51.0845 30.0844 51.3803 30.3802 51.6761C30.676 51.9718 30.9718 52.0704 31.3661 52.169C31.7605 52.169 32.0563 52.0704 32.352 51.7746C34.3239 50 36.9858 49.0141 39.6478 49.0141C44.3802 49.0141 48.4225 51.9718 49.9013 56.3099C47.5351 57.7887 46.0563 60.3521 46.0563 63.2113C46.0563 64 46.6478 64.5915 47.4365 64.5915C48.2253 64.5915 48.8168 64 48.8168 63.2113C48.8168 61.0423 50.0985 59.169 52.0703 58.2817C52.7605 57.9859 53.352 57.8873 54.1408 57.8873C56.2112 57.8873 58.0844 59.0704 58.9718 60.9437C59.1689 61.338 59.4647 61.5352 59.8591 61.7324C60.2534 61.9296 60.6478 61.7324 61.0422 61.5352C62.3239 60.6479 63.8027 60.1549 65.3802 60.1549C68.8309 60.1549 71.7887 62.5211 72.676 65.7746C72.8732 66.3662 73.3661 66.8592 74.0563 66.8592H74.2534C78.3943 66.8592 81.7464 70.2113 81.7464 74.3521C81.7464 78.493 78.3943 81.8451 74.2534 81.8451C70.1126 81.8451 66.7605 78.493 66.7605 74.3521C66.7605 73.5634 66.1689 72.9718 65.3802 72.9718C64.5915 72.9718 63.9999 73.5634 63.9999 74.3521C63.9999 77.2113 65.183 79.9718 67.2534 81.8451H33.7323C32.9436 81.8451 32.352 82.4366 32.352 83.2253C32.352 84.0141 32.9436 84.6056 33.7323 84.6056H74.352C80.0703 84.6056 84.6056 79.9718 84.6056 74.3521C84.6056 69.2253 80.4647 64.7887 75.0422 64.3944ZM50.5915 32.3521C50.5915 41.6197 58.183 49.2113 67.5492 49.2113C73.1689 49.2113 78.3943 46.4507 81.5492 41.8169C80.5633 49.1127 75.6337 55.4225 68.8309 58.2817C66.1689 57.2958 63.1126 57.493 60.6478 58.7746C59.1689 56.7042 56.7041 55.4225 54.1408 55.4225C53.5492 55.4225 53.0563 55.5211 52.4647 55.6197C51.5774 53.2535 50.0985 51.0845 48.1267 49.507C46.1549 47.9296 43.7887 46.9437 41.3239 46.6479C40.338 44.1831 39.845 41.6197 39.845 38.9577C39.845 28.507 47.6337 19.6338 57.8872 18.2535C53.4506 21.4085 50.5915 26.7324 50.5915 32.3521Z" fill="#61A1F4"/>
<path class="st2" d="M40.8313 20.1265H39.6482V18.9434C39.6482 18.3519 39.1552 17.9575 38.6623 17.9575C38.0707 17.9575 37.6763 18.4505 37.6763 18.9434V20.1265H36.4932C35.9017 20.1265 35.5073 20.6195 35.5073 21.1124C35.5073 21.704 36.0003 22.0984 36.4932 22.0984H37.6763V23.2815C37.6763 23.873 38.1693 24.2674 38.6623 24.2674C39.2538 24.2674 39.6482 23.7744 39.6482 23.2815V22.0984H40.8313C41.4228 22.0984 41.8172 21.6054 41.8172 21.1124C41.9158 20.6195 41.4228 20.1265 40.8313 20.1265Z" fill="#F29021"/>
<path class="st2" d="M27.5209 29.8872C26.8308 29.8872 26.2393 30.4788 26.2393 31.1689V33.4365C26.2393 34.1266 26.8308 34.7182 27.5209 34.7182C28.2111 34.7182 28.8026 34.1266 28.8026 33.4365V31.1689C28.704 30.4788 28.2111 29.8872 27.5209 29.8872Z" fill="#F29021"/>
<path class="st2" d="M27.5209 38.8594C26.8308 38.8594 26.2393 39.4509 26.2393 40.1411V42.3101C26.2393 43.0002 26.8308 43.5918 27.5209 43.5918C28.2111 43.5918 28.8026 43.0002 28.8026 42.3101V40.0425C28.704 39.4509 28.2111 38.8594 27.5209 38.8594Z" fill="#F29021"/>
<path class="st2" d="M33.0422 35.5068H30.7746C30.0845 35.5068 29.4929 36.0984 29.4929 36.7885C29.4929 37.4787 30.0845 38.0702 30.7746 38.0702H33.0422C33.7324 38.0702 34.3239 37.4787 34.3239 36.7885C34.3239 36.0984 33.7324 35.5068 33.0422 35.5068Z" fill="#F29021"/>
<path class="st2" d="M24.1692 35.5068H21.9016C21.2114 35.5068 20.6199 36.0984 20.6199 36.7885C20.6199 37.4787 21.2114 38.0702 21.9016 38.0702H24.1692C24.8593 38.0702 25.4509 37.4787 25.4509 36.7885C25.4509 36.0984 24.8593 35.5068 24.1692 35.5068Z" fill="#F29021"/>
<path class="st2" d="M72.0847 23.2812C71.3945 23.2812 70.803 23.8728 70.803 24.5629V26.8305C70.803 27.5207 71.3945 28.1122 72.0847 28.1122C72.7748 28.1122 73.3664 27.5207 73.3664 26.8305V24.5629C73.3664 23.7742 72.7748 23.2812 72.0847 23.2812Z" fill="#F29021"/>
<path class="st2" d="M72.0847 32.1553C71.3945 32.1553 70.803 32.7468 70.803 33.437V35.7046C70.803 36.3947 71.3945 36.9863 72.0847 36.9863C72.7748 36.9863 73.3664 36.3947 73.3664 35.7046V33.437C73.3664 32.7468 72.7748 32.1553 72.0847 32.1553Z" fill="#F29021"/>
<path class="st2" d="M77.7043 28.8027H75.4367C74.7466 28.8027 74.155 29.3943 74.155 30.0844C74.155 30.7746 74.7466 31.3661 75.4367 31.3661H77.7043C78.3945 31.3661 78.986 30.7746 78.986 30.0844C78.986 29.3943 78.3945 28.8027 77.7043 28.8027Z" fill="#F29021"/>
<path class="st2" d="M68.7324 28.8027H66.4648C65.7747 28.8027 65.1831 29.3943 65.1831 30.0844C65.1831 30.7746 65.7747 31.3661 66.4648 31.3661H68.7324C69.4225 31.3661 70.0141 30.7746 70.0141 30.0844C70.0141 29.3943 69.4225 28.8027 68.7324 28.8027Z" fill="#F29021"/>
</svg>
