<?xml version="1.0" encoding="utf-8"?>
<!-- Generator: Adobe Illustrator 25.4.1, SVG Export Plug-In . SVG Version: 6.00 Build 0)  -->
<svg version="1.1" xmlns="http://www.w3.org/2000/svg" xmlns:xlink="http://www.w3.org/1999/xlink" x="0px" y="0px"
	 viewBox="0 0 100 100" style="enable-background:new 0 0 100 100;" xml:space="preserve">
<style type="text/css">
	.st0{fill:#D9EBFF;}
	.st1{fill-rule:evenodd;clip-rule:evenodd;fill:#61A1F4;}
	.st2{fill:#F29021;}
</style>
<g id="unactive_00000176747219202395070510000007931578184420946597_">
	<path class="st0" d="M21.5,82.5c3.2,0,11-20.3,14.5-30.5l3.5,1.5l-9.5,27l-3,3L21.5,82.5z"/>
	<path class="st0" d="M59,36c-4-6.4-12-9-15.5-9.5l-1-1L49,24h6l6,5.5l3,5h-2L59,36z"/>
	<path class="st0" d="M64.5,83.5c0-7.2-5.3-13-8-15L58,66l7,1l4,12l4,4.5H64.5z"/>
	<path class="st0" d="M54,61c3.2-2.8,2-15.2,1-21l5,1.5L61,52v3.5l-2,3L54,61z"/>
	<path class="st1" d="M47.7,22.3c-5.1,0.8-9.3,3.7-11.9,8.1c-0.7,1.1-1.5,3.2-1.7,4c-0.1,0.3-0.4,0.8-0.9,1.4
		c-1.4,1.5-2.1,2.9-2.4,4.6c-0.1,0.8-0.1,1.5,0.1,3.5c0.1,1.4,0.2,2.8,0.3,3.1c0.1,0.6,0.1,0.6-0.3,0.6c-0.2,0-0.5,0.2-0.7,0.4
		C29.7,48.3,16.6,71,15.8,72.6c-2,4.2-0.1,9.4,4.2,11.5c2,0.9,0.1,0.9,30,0.9c29.9,0,28.1,0.1,30-0.9c3.6-1.8,5.6-5.8,4.8-9.7
		c-0.3-1.2-0.6-1.9-2.1-4.6c-1.1-1.9-1.3-2.2-1.7-2.4c-0.6-0.2-1.3-0.1-1.6,0.4c-0.4,0.6-0.3,1.2,1,3.5c1.5,2.6,1.8,3.2,1.9,4.4
		c0.2,2.9-1.7,5.6-4.5,6.4c-2.7,0.7-5.6-0.6-6.8-3.1c-0.5-1.1-9.3-25-9.2-25c0.1-0.1,6.8-3.2,6.9-3.2c0,0,1.1,1.8,2.3,3.9
		c1.2,2.2,2.4,4.1,2.6,4.3c0.7,0.7,1.9,0.4,2.2-0.6c0.2-0.6,0.4-0.1-2.8-5.8c-1.4-2.5-2.7-4.6-2.9-4.8c-0.2-0.2-0.5-0.3-0.7-0.3
		c-0.3,0-0.3,0-0.3-0.5c0-0.3,0.2-1.7,0.3-3.1c0.2-2.4,0.2-2.7,0-3.7c-0.3-1.6-1-2.9-2.2-4.2c-0.8-0.8-1-1.2-1.1-1.7
		c-0.2-0.9-1-2.8-1.7-3.9c-2.4-4.1-6.7-7-11.3-7.8C51.8,22.3,48.6,22.2,47.7,22.3z M53.5,25.4c1.2,0.3,3.3,1.3,4.3,1.9
		c0.9,0.6,1.9,1.5,2.7,2.4c0.7,0.8,2,2.8,2,3.1c0,0.1-0.2,0.2-0.7,0.2c-2.8,0-5,3.1-4.2,5.8c0.2,0.6,0.2,0.6-0.1,0.6
		c-0.5,0-3.3-1-4.6-1.6c-1.6-0.7-3.4-1.9-4.9-3.1c-1-0.8-1.3-1-1.7-1c-0.6,0-2.6,0.7-3.6,1.2c-0.7,0.3-0.7,0.3-0.8,0.1
		c-0.3-0.5-1.3-1.4-2-1.7c-0.4-0.2-1-0.3-1.5-0.4c-0.5,0-0.9-0.1-0.9-0.2c0-0.2,1-1.9,1.5-2.5c0.6-0.8,2.3-2.4,3.1-3
		c1.7-1.1,3.2-1.8,5.1-2.2C48.6,24.9,52.1,25,53.5,25.4z M38.9,36c0.5,0.3,0.9,1.1,0.9,1.6c0,0.2-0.4,1.5-1,3l-1,2.6l0.2,2
		c0.1,1.1,0.2,2.3,0.2,2.7c0,0.8-0.2,2.3-0.4,2.5c-0.1,0.1-0.6-0.1-1.9-0.7c-1-0.5-1.9-0.9-1.9-0.9c0,0-0.2-1.7-0.4-3.7
		c-0.4-4.1-0.3-4.6,0.3-5.9c0.4-0.7,2.5-3,3.1-3.3C37.5,35.7,38.5,35.8,38.9,36z M63.1,36c0.8,0.5,2.6,2.4,3,3.2
		c0.6,1.3,0.7,2,0.3,6c-0.2,2-0.3,3.6-0.4,3.6c0,0-0.9,0.4-1.9,0.9c-1.4,0.6-1.9,0.8-1.9,0.7c-0.2-0.3-0.4-1.8-0.4-2.5
		c0-0.4,0.1-1.6,0.2-2.7l0.2-2l-1-2.6c-0.5-1.4-1-2.8-1-3c0-0.5,0.4-1.2,0.9-1.5C61.5,35.7,62.5,35.7,63.1,36z M47.3,37.7
		c3,2.3,6.7,3.9,10.5,4.7l1.2,0.2l0.2,0.5c0.2,0.5,0.2,0.9,0,2.4c-0.2,2.2-0.1,3.8,0.3,5.3c0.2,0.9,0.2,1,0,1.1
		c-0.4,0.1-0.9,0.9-0.9,1.2c0,0.2,0.2,0.8,0.4,1.5c0.5,1.4,0.5,1.3-1,2.8c-1.3,1.3-2.6,2-4.3,2.6c-1.1,0.4-1.5,0.4-3.1,0.5
		c-2.7,0.1-4.7-0.5-6.8-1.8c-0.9-0.6-3-2.7-3-2.9c0-0.1,0.2-0.6,0.4-1.3c0.5-1.3,0.5-1.8-0.2-2.4c-0.2-0.2-0.5-0.3-0.5-0.3
		c-0.1,0,0-0.4,0.2-1c0.4-1.4,0.4-3.1,0.3-5.3l-0.2-1.9l0.9-2.4c0.5-1.3,0.9-2.5,0.9-2.6c0-0.3,0.3-0.5,1.1-0.9
		c0.8-0.4,2.1-0.9,2.3-0.9C45.9,36.7,46.6,37.2,47.3,37.7z M35.1,52.3c2.5,1.2,3.3,1.6,3.2,1.7c-0.2,0.9-8.8,24.1-9.2,24.8
		c-1,2.1-3.4,3.5-5.8,3.3C21,82,19,80.5,18.1,78.3c-0.4-1.1-0.4-3.1-0.1-4.1c0.1-0.4,3.2-5.8,6.8-12.1c4.9-8.6,6.6-11.4,6.8-11.4
		C31.8,50.8,33.3,51.5,35.1,52.3z M42.1,60.9c0.6,0.4,0.7,0.6,0.3,1.6c-0.3,0.9-1.3,1.9-2.2,2.1c-0.8,0.2-2.7,0.5-2.8,0.4
		c0,0,0.4-1.4,1.1-3.1l1.1-3.1l1,0.9C41.1,60.1,41.7,60.7,42.1,60.9z M62.7,65c-0.1,0.1-2.4-0.3-3-0.5c-1.1-0.4-2-1.5-2.2-2.7
		c-0.1-0.5-0.1-0.6,0.6-1.1c0.4-0.3,1.1-0.8,1.5-1.2l0.8-0.7l1.1,3.1C62.2,63.6,62.7,65,62.7,65z M76.7,62.2
		c-0.6,0.4-0.8,0.9-0.6,1.5c0.3,1,1.5,1.3,2.2,0.5c0.7-0.7,0.4-1.9-0.4-2.2C77.3,61.8,77.2,61.8,76.7,62.2z M46.5,62.9
		c1,0.3,1.5,0.3,3.5,0.3c2,0,2.6,0,3.5-0.3c0.6-0.2,1.1-0.3,1.2-0.3c0,0,0.2,0.3,0.3,0.7c0.1,0.4,0.4,1,0.7,1.5l0.5,0.8l-0.3,0.2
		c-0.6,0.5-2,1.2-2.9,1.5c-3,1-6.4,0.4-8.9-1.5l-0.3-0.2l0.5-0.8c0.3-0.4,0.6-1.1,0.7-1.5c0.1-0.4,0.2-0.7,0.3-0.7
		C45.3,62.6,45.9,62.7,46.5,62.9z M42.4,67.8c3.7,2.8,8.8,3.4,13,1.4c0.6-0.3,1.5-0.9,2.1-1.3c1-0.8,1.1-0.8,1.5-0.7
		c0.2,0.1,1.4,0.3,2.6,0.5c1.2,0.2,2.2,0.4,2.2,0.4c0,0,1,2.6,2.1,5.8c2.3,6.3,2.5,6.7,3.3,7.7l0.6,0.7H50H30.2l0.5-0.6
		c0.8-1,1.3-2,3.4-7.8c1.2-3.2,2.1-5.8,2.1-5.8c0,0,1-0.2,2.3-0.4c1.2-0.2,2.4-0.4,2.5-0.5C41.3,67,41.4,67,42.4,67.8z"/>
</g>
<g id="active_00000170966153855624717490000018275619963249243538_">
	<path class="st2" d="M24.6,16.4c0-0.6,0.2-1,0.7-1.2c0.5-0.3,1-0.3,1.4,0c0.3,0.2,4.3,4.5,5.3,5.7c0.5,0.6,0.6,1.2,0.2,1.8
	c-0.3,0.4-0.8,0.6-2,0.7c-1.6,0.2-1.6,0,0.2,2.2c2.4,3,2.5,3.2,2,4c-0.4,0.8-1.5,0.9-2.2,0.1c-0.9-1-5.2-6.6-5.3-6.9
	c-0.1-0.4,0.2-1.1,0.6-1.4c0.2-0.1,0.8-0.3,1.4-0.3c0.6-0.1,1.2-0.2,1.3-0.2c0.2-0.1,0-0.3-2-2.5C24.7,17.1,24.6,16.9,24.6,16.4z"
	/>
	<path class="st2" d="M68,21c0.7-0.9,5.1-5.6,5.4-5.8c0.4-0.3,0.8-0.3,1.3,0c0.5,0.3,0.7,0.6,0.7,1.2c0,0.4-0.2,0.7-1.4,2
		c-2,2.2-2.2,2.4-2,2.5c0.1,0,0.7,0.1,1.3,0.2c0.6,0.1,1.2,0.2,1.4,0.3c0.4,0.2,0.7,0.9,0.6,1.4c-0.1,0.3-4.4,5.9-5.3,6.9
		c-0.7,0.8-1.8,0.7-2.2-0.1c-0.4-0.8-0.4-1,2-4c1.8-2.2,1.8-2,0.2-2.2c-1.2-0.1-1.7-0.3-2-0.7C67.5,22.2,67.6,21.5,68,21z"/>
	<path class="st2" d="M15.2,30.1c-0.3-0.7-0.1-1.5,0.5-1.8c0.2-0.1,0.5-0.2,0.7-0.2c0.4,0,7.3,3.3,7.7,3.7c0.5,0.4,0.5,0.9,0.2,1.5
		c-0.2,0.4-0.5,0.6-1.4,1.2c-0.7,0.4-1.2,0.7-1.1,0.8c0.1,0.1,1.2,0.7,2.4,1.4c2.7,1.6,3,1.8,3,2.5c0,0.5-0.1,0.6-0.5,1
		c-0.4,0.3-0.5,0.4-1,0.3c-0.6-0.1-7.6-4-8-4.5c-0.7-0.9-0.4-1.6,1.2-2.5l1.2-0.7l-2.4-1.2C15.8,30.7,15.3,30.4,15.2,30.1z"/>
	<path class="st2" d="M75.9,31.8c0.2-0.2,1.9-1,3.8-2c2-0.9,3.7-1.7,3.9-1.7c0.7,0,1.4,0.6,1.4,1.4c0,0.8-0.3,1-2.8,2.2l-2.4,1.2
		l1.2,0.7c1.4,0.8,1.7,1.3,1.4,2.1c-0.2,0.6-0.2,0.6-4.4,3c-1.9,1.1-3.5,1.9-3.8,1.9c-0.4,0.1-0.6,0-1-0.3c-0.4-0.3-0.5-0.5-0.5-1
		c0-0.8,0.2-1,3-2.5c1.3-0.7,2.4-1.4,2.4-1.4c0.1-0.1-0.4-0.4-1.1-0.8c-0.9-0.5-1.3-0.8-1.4-1.2C75.4,32.7,75.5,32.2,75.9,31.8z"/>
</g>
</svg>
