<?xml version="1.0" encoding="utf-8"?>
<!-- Generator: Adobe Illustrator 25.4.1, SVG Export Plug-In . SVG Version: 6.00 Build 0)  -->
<svg version="1.1" xmlns="http://www.w3.org/2000/svg" xmlns:xlink="http://www.w3.org/1999/xlink" x="0px" y="0px"
	 viewBox="0 0 100 100" style="enable-background:new 0 0 100 100;" xml:space="preserve">
<style type="text/css">
	.st0{fill:#D9EBFF;}
	.st1{fill:#61A1F4;}
	.st2{fill:#F29021;}
</style>
<g id="unactive_00000176747219202395070510000007931578184420946597_">
	<path class="st0" d="M41.7,64.7l6.7-8.2l-1.2-1.6l-7.1,7l-12.3,0.5l-1.9,2.3H41.7z"/>
	<path class="st0" d="M63.8,37.3c1.3-2.2,0.2-4.1-0.3-4.4l1.6,0.5l1.1,1.9v2.3l-2,3.6l-8,10.9l-1.2-1.6C57.5,47,62.5,39.5,63.8,37.3
		z"/>
	<path class="st0" d="M69.2,46.2L64.8,42l-1.3,2l5.8,5.9l7.4,0.5l5.9-0.5l0.8-1.8h-9.4C72.2,48.1,70.5,47.4,69.2,46.2z"/>
	<circle class="st1" cx="65.4" cy="72.5" r="1.5"/>
	<g>
		<path class="st1" d="M69.4,52.1c0.5,0.2,1.1,0.3,1.6,0.3l9.6,0c1.2,0,2.3-0.5,3.1-1.3c0.8-0.8,1.3-1.9,1.3-3.1
			c0-1.2-0.5-2.3-1.3-3.1c-0.8-0.8-1.9-1.3-3.1-1.3h-7.3l-5.1-5.1l0.1-0.2c0.1-0.2,0.1-0.4,0.2-0.6c0.1-0.7,0.1-1.4,0-2.2
			c-0.2-0.7-0.5-1.4-0.9-2c-0.4-0.6-1-1.1-1.6-1.4l-4.7-2.8c-0.9-0.5-1.9-0.8-2.9-0.8H44.2c-0.5,0-0.9,0.1-1.4,0.3
			c-0.4,0.2-0.8,0.4-1.2,0.8l-8.8,8.6c-0.6,0.6-1,1.3-1.1,2.1c-0.2,0.8-0.1,1.6,0.2,2.3c0.3,0.7,0.8,1.4,1.5,1.8
			c0.7,0.4,1.4,0.7,2.2,0.7c0,0,0,0,0,0c0.5,0,1-0.1,1.5-0.3c0.5-0.2,0.9-0.5,1.3-0.9l6.6-6.7l7,0.6l-5.6,8
			c-1.2,1.6-1.7,3.7-1.5,5.7c0.1,0.5,0.2,1,0.3,1.5l0,0.1l-5.7,7l-11,0c-0.6,0-1.2,0.1-1.8,0.3c-0.6,0.2-1.1,0.5-1.5,1
			c-0.4,0.4-0.8,0.9-1,1.5c-0.2,0.6-0.4,1.2-0.4,1.8c0,0.6,0.1,1.2,0.4,1.8c0.2,0.6,0.6,1.1,1,1.5c0.4,0.4,1,0.7,1.5,1
			c0.6,0.2,1.2,0.3,1.8,0.3h15.5c0.2,0,0.4,0,0.6-0.1c0.2-0.1,0.3-0.2,0.5-0.4l6.6-8.3l5.1,4.5c0.1,0.1,0.2,0.2,0.2,0.3
			c0,0.1,0.1,0.2,0.1,0.3V80c0,1.2,0.5,2.4,1.4,3.3s2,1.4,3.3,1.4h0.2c1.2,0,2.4-0.5,3.3-1.4c0.9-0.9,1.3-2.1,1.3-3.3l0-2.4
			c0-0.7-0.6-1.3-1.3-1.3c-0.3,0-0.7,0.1-0.9,0.4c-0.2,0.2-0.4,0.6-0.4,0.9l0,2.4c0,0.6-0.2,1.1-0.6,1.5c-0.4,0.4-0.9,0.6-1.5,0.6
			c-0.3,0-0.6,0-0.8-0.1c-0.3-0.1-0.5-0.2-0.7-0.4c-0.2-0.2-0.4-0.4-0.5-0.7c-0.1-0.3-0.2-0.5-0.2-0.8V65.6c0-0.5-0.1-0.9-0.3-1.4
			s-0.5-0.8-0.8-1.1l-9.3-8.2c-1.1-0.9-1.7-2.2-1.9-3.6c-0.1-1.3,0.2-2.6,0.9-3.7l0.1-0.2l7.9,6.5l7.4,6.9c0.1,0.1,0.1,0.2,0.2,0.2
			c0,0.1,0.1,0.2,0.1,0.3l0,5.6c0,0.7,0.6,1.3,1.3,1.3c0.3,0,0.7-0.1,0.9-0.4c0.2-0.2,0.4-0.6,0.4-0.9l0-5.7c0-0.4-0.1-0.9-0.3-1.3
			c-0.2-0.4-0.4-0.8-0.8-1.1L59,52.8l4.3-6.4l4.8,4.8C68.5,51.6,68.9,51.9,69.4,52.1z M47.8,56.8l2.3,2l-0.1,0.1l-6.2,7.7l-14.9,0
			c0,0-0.1,0-0.1,0c-0.2,0-0.4,0-0.6-0.1c-0.3-0.1-0.5-0.2-0.7-0.4c-0.2-0.2-0.4-0.4-0.5-0.7c-0.1-0.2-0.2-0.5-0.2-0.8
			c0-0.3,0.1-0.5,0.2-0.8c0.1-0.2,0.3-0.5,0.5-0.7c0.2-0.2,0.4-0.3,0.7-0.4c0.3-0.1,0.5-0.1,0.8-0.1l11.5,0c0.2,0,0.4,0,0.5-0.1
			c0.2-0.1,0.3-0.2,0.4-0.3l5.4-6.6l0.2,0.2C47.2,56.2,47.5,56.5,47.8,56.8z M57.2,50.9l-7-5.7l5.4-7.6c0.1-0.2,0.2-0.4,0.2-0.6
			c0-0.2,0-0.5-0.1-0.7c-0.1-0.2-0.2-0.4-0.4-0.5c-0.2-0.1-0.4-0.2-0.6-0.2l-9.2-0.8l-0.2,0c-0.4,0-0.7,0.1-1.1,0.2
			c-0.3,0.1-0.6,0.3-0.9,0.6l-6.6,6.6c-0.1,0.1-0.3,0.3-0.5,0.3c-0.2,0.1-0.4,0.1-0.6,0.1c-0.2,0-0.4,0-0.6-0.1
			c-0.2-0.1-0.3-0.2-0.5-0.3c-0.3-0.3-0.4-0.6-0.4-1c0-0.4,0.1-0.8,0.4-1l8.8-8.6c0.1-0.1,0.2-0.2,0.3-0.2c0.1-0.1,0.3-0.1,0.4-0.1
			l14.2,0c0.6,0,1.1,0.2,1.6,0.5l4.7,2.8c0.3,0.2,0.6,0.4,0.8,0.8c0.2,0.3,0.4,0.6,0.5,1c0.1,0.4,0.1,0.7,0,1.1
			c-0.1,0.4-0.2,0.7-0.4,1L57.2,50.9z M67,40.9l4.7,4.7c0.2,0.2,0.5,0.4,0.7,0.5c0.3,0.1,0.6,0.2,0.9,0.2h7.4c0.4,0,0.7,0.1,1,0.3
			c0.3,0.2,0.5,0.5,0.7,0.8c0.1,0.3,0.2,0.7,0.1,1.1c-0.1,0.4-0.3,0.7-0.5,1c-0.2,0.2-0.4,0.3-0.6,0.4c-0.2,0.1-0.5,0.1-0.7,0.1
			h-9.6c-0.2,0-0.4,0-0.6-0.1c-0.2-0.1-0.4-0.2-0.5-0.4l-5.2-5.2L67,40.9z"/>
		<path class="st1" d="M77.3,22.9c0-1.5-0.4-3-1.3-4.2s-2-2.2-3.4-2.8c-0.9-0.4-1.9-0.6-2.9-0.6c-0.5,0-1,0-1.5,0.1
			c-1.5,0.3-2.8,1-3.9,2.1c-1.1,1.1-1.8,2.4-2.1,3.9c-0.3,1.5-0.1,3,0.4,4.4c0.6,1.4,1.6,2.6,2.8,3.4c1.3,0.8,2.7,1.3,4.2,1.3
			c2,0,4-0.8,5.4-2.2S77.3,25,77.3,22.9z M73.9,25.8c-0.6,0.8-1.3,1.5-2.3,1.9C71,27.9,70.4,28,69.7,28c-0.3,0-0.7,0-1-0.1
			c-1-0.2-1.9-0.7-2.6-1.4c-0.7-0.7-1.2-1.6-1.4-2.6c-0.2-1-0.1-2,0.3-2.9c0.4-0.9,1-1.7,1.9-2.3c0.8-0.6,1.8-0.9,2.8-0.9
			c1.4,0,2.6,0.5,3.6,1.5c1,1,1.5,2.2,1.5,3.6C74.8,24,74.5,24.9,73.9,25.8z"/>
	</g>
</g>
<g id="active_00000170966153855624717490000018275619963249243538_">
	<g>
		<path class="st2" d="M39.3,24c-0.3-0.3-0.6-0.4-1-0.4H28.1c-0.4,0-0.8,0.2-1,0.4s-0.4,0.6-0.4,1c0,0.4,0.2,0.8,0.4,1
			c0.3,0.3,0.6,0.4,1,0.4h10.1c0.4,0,0.8-0.2,1-0.4c0.3-0.3,0.4-0.6,0.4-1C39.8,24.6,39.6,24.3,39.3,24z"/>
		<path class="st2" d="M22.9,23.6h-1c-0.4,0-0.8,0.2-1,0.4s-0.4,0.6-0.4,1c0,0.4,0.2,0.8,0.4,1c0.3,0.3,0.6,0.4,1,0.4h1
			c0.4,0,0.8-0.2,1-0.4c0.3-0.3,0.4-0.6,0.4-1c0-0.4-0.2-0.8-0.4-1S23.3,23.6,22.9,23.6z"/>
	</g>
	<g>
		<path class="st2" d="M27.5,29.7H17.3c-0.4,0-0.8,0.2-1,0.4c-0.3,0.3-0.4,0.6-0.4,1c0,0.4,0.2,0.8,0.4,1c0.3,0.3,0.6,0.4,1,0.4
			h10.1c0.4,0,0.8-0.2,1-0.4c0.3-0.3,0.4-0.6,0.4-1c0-0.4-0.2-0.8-0.4-1C28.3,29.8,27.9,29.7,27.5,29.7z"/>
		<path class="st2" d="M34.3,30.1c-0.3-0.3-0.6-0.4-1-0.4h-1c-0.4,0-0.8,0.2-1,0.4c-0.3,0.3-0.4,0.6-0.4,1c0,0.4,0.2,0.8,0.4,1
			c0.3,0.3,0.6,0.4,1,0.4h1c0.4,0,0.8-0.2,1-0.4c0.3-0.3,0.4-0.6,0.4-1C34.8,30.7,34.6,30.4,34.3,30.1z"/>
	</g>
	<g>
		<path class="st2" d="M32.3,46.8H22.1c-0.4,0-0.8,0.2-1,0.4c-0.3,0.3-0.4,0.6-0.4,1s0.2,0.8,0.4,1c0.3,0.3,0.6,0.4,1,0.4h10.2
			c0.4,0,0.8-0.2,1-0.4c0.3-0.3,0.4-0.6,0.4-1s-0.2-0.8-0.4-1C33,46.9,32.7,46.8,32.3,46.8z"/>
		<path class="st2" d="M40.4,47.2c-0.3-0.3-0.6-0.4-1-0.4h-1c-0.4,0-0.8,0.2-1,0.4c-0.3,0.3-0.4,0.6-0.4,1s0.2,0.8,0.4,1
			c0.3,0.3,0.6,0.4,1,0.4h1c0.4,0,0.8-0.2,1-0.4c0.3-0.3,0.4-0.6,0.4-1S40.6,47.5,40.4,47.2z"/>
	</g>
	<g>
		<path class="st2" d="M33.1,53.9c-0.3-0.3-0.6-0.4-1-0.4H21.9c-0.4,0-0.8,0.2-1,0.4c-0.3,0.3-0.4,0.6-0.4,1c0,0.4,0.2,0.8,0.4,1
			c0.3,0.3,0.6,0.4,1,0.4h10.2c0.4,0,0.8-0.2,1-0.4c0.3-0.3,0.4-0.6,0.4-1C33.5,54.5,33.4,54.2,33.1,53.9z"/>
		<path class="st2" d="M17.2,53.4h-1c-0.4,0-0.8,0.2-1,0.4c-0.3,0.3-0.4,0.6-0.4,1c0,0.4,0.2,0.8,0.4,1c0.3,0.3,0.6,0.4,1,0.4h1
			c0.4,0,0.8-0.2,1-0.4c0.3-0.3,0.4-0.6,0.4-1c0-0.4-0.2-0.8-0.4-1C18,53.6,17.6,53.4,17.2,53.4z"/>
	</g>
</g>
</svg>
