<svg width="100" height="100" viewBox="0 0 100 100" fill="none" xmlns="http://www.w3.org/2000/svg">
<path d="M41.8236 64.8266L48.5045 56.5557L47.3079 54.9419L40.2281 62.0024L27.9632 62.5067L26.0686 64.8266H41.8236Z" fill="#D9EBFF"/>
<path d="M63.8606 37.1905C65.1569 34.9714 64.0601 33.055 63.5615 32.7524L65.1569 33.2568L66.2538 35.1732V37.4931L64.2595 41.1242L56.2823 52.1184L55.0857 50.5045C57.5786 46.9743 62.5643 39.4095 63.8606 37.1905Z" fill="#D9EBFF"/>
<path d="M69.245 46.167L64.8576 41.9307L63.5613 43.9479L69.3448 49.8989L76.7237 50.4033L82.6069 49.8989L83.4046 48.0834H74.0314C72.2365 48.0834 70.5413 47.3773 69.245 46.167Z" fill="#D9EBFF"/>
<path d="M65.4559 74.2076C66.282 74.2076 66.9517 73.5302 66.9517 72.6946C66.9517 71.859 66.282 71.1816 65.4559 71.1816C64.6299 71.1816 63.9602 71.859 63.9602 72.6946C63.9602 73.5302 64.6299 74.2076 65.4559 74.2076Z" fill="#61A1F4"/>
<path d="M69.4445 52.1184C69.943 52.3201 70.5413 52.421 71.0399 52.421H80.6125C81.8091 52.421 82.906 51.9167 83.7037 51.1097C84.5014 50.3028 85 49.1933 85 47.983C85 46.7726 84.5014 45.6631 83.7037 44.8562C82.906 44.0493 81.8091 43.5449 80.6125 43.5449H73.3333L68.2479 38.4009L68.3476 38.1991C68.4473 37.9974 68.4473 37.7957 68.547 37.594C68.6467 36.8879 68.6467 36.1819 68.547 35.3749C68.3476 34.6689 68.0484 33.9628 67.6496 33.3577C67.2507 32.7525 66.6524 32.2482 66.0541 31.9456L61.3675 29.1214C60.4701 28.617 59.4729 28.3145 58.4758 28.3145H44.3162C43.8177 28.3145 43.4188 28.4153 42.9202 28.617C42.5214 28.8188 42.1225 29.0205 41.7237 29.424L32.9487 38.0983C32.3504 38.7035 31.9516 39.4095 31.8519 40.2164C31.6524 41.0233 31.7521 41.8302 32.0513 42.5363C32.3504 43.2423 32.849 43.9484 33.547 44.3519C34.245 44.7553 34.943 45.0579 35.7407 45.0579C36.2393 45.0579 36.7379 44.957 37.2365 44.7553C37.735 44.5536 38.1339 44.251 38.5328 43.8475L45.114 37.0896L52.094 37.6948L46.51 45.7639C45.3134 47.3778 44.8148 49.4959 45.0143 51.5132C45.114 52.0175 45.2137 52.5218 45.3134 53.0262V53.127L39.6296 60.1875H28.661C28.0627 60.1875 27.4644 60.2884 26.8661 60.4901C26.2678 60.6918 25.7692 60.9944 25.3704 61.4988C24.9715 61.9022 24.5727 62.4065 24.3732 63.0117C24.1738 63.6169 23.9744 64.2221 23.9744 64.8273C23.9744 65.4324 24.0741 66.0376 24.3732 66.6428C24.5727 67.248 24.9715 67.7523 25.3704 68.1558C25.7692 68.5592 26.3675 68.8618 26.8661 69.1644C27.4644 69.3661 28.0627 69.467 28.661 69.467H44.1168C44.3162 69.467 44.5157 69.467 44.7151 69.3661C44.9145 69.2653 45.0143 69.1644 45.2137 68.9627L51.7949 60.591L56.8804 65.1299C56.9801 65.2307 57.0798 65.3316 57.0798 65.4325C57.0798 65.5333 57.1795 65.6342 57.1795 65.735V80.2595C57.1795 81.4698 57.6781 82.6802 58.5755 83.588C59.4729 84.4958 60.5698 85.0001 61.8661 85.0001H62.0655C63.2621 85.0001 64.4587 84.4958 65.3561 83.588C66.2536 82.6802 66.6524 81.4698 66.6524 80.2595V77.8387C66.6524 77.1327 66.0541 76.5275 65.3561 76.5275C65.057 76.5275 64.6581 76.6284 64.4587 76.931C64.2593 77.1327 64.0598 77.5361 64.0598 77.8387V80.2595C64.0598 80.8647 63.8604 81.369 63.4616 81.7724C63.0627 82.1759 62.5641 82.3776 61.9658 82.3776C61.6667 82.3776 61.3675 82.3776 61.1681 82.2768C60.869 82.1759 60.6695 82.075 60.4701 81.8733C60.2707 81.6716 60.0712 81.4698 59.9715 81.1673C59.8718 80.8647 59.7721 80.6629 59.7721 80.3603V65.735C59.7721 65.2307 59.6724 64.8273 59.4729 64.3229C59.2735 63.8186 58.9744 63.516 58.6752 63.2134L49.4017 54.9426C48.3049 54.0348 47.7066 52.7236 47.5071 51.3115C47.4074 50.0002 47.7066 48.689 48.4046 47.5795L48.5043 47.3778L56.3818 53.9339L63.7607 60.8936C63.8604 60.9944 63.8604 61.0953 63.9601 61.0953C63.9601 61.1962 64.0598 61.297 64.0598 61.3979V67.0463C64.0598 67.7523 64.6581 68.3575 65.3561 68.3575C65.6553 68.3575 66.0541 68.2566 66.2536 67.9541C66.453 67.7523 66.6524 67.3489 66.6524 67.0463V61.297C66.6524 60.8936 66.5527 60.3892 66.3533 59.9858C66.1539 59.5823 65.9544 59.1789 65.5556 58.8763L59.0741 52.8244L63.3618 46.3691L68.1482 51.2106C68.547 51.6141 68.9459 51.9167 69.4445 52.1184ZM47.906 56.859L50.1994 58.8763L50.0997 58.9771L43.9174 66.7437H29.0598H28.9601C28.7607 66.7437 28.5613 66.7437 28.3618 66.6428C28.0627 66.542 27.8633 66.4411 27.6638 66.2394C27.4644 66.0376 27.265 65.8359 27.1652 65.5333C27.0655 65.3316 26.9658 65.029 26.9658 64.7264C26.9658 64.4238 27.0655 64.2221 27.1652 63.9195C27.265 63.7178 27.4644 63.4152 27.6638 63.2134C27.8633 63.0117 28.0627 62.9108 28.3618 62.81C28.661 62.7091 28.8604 62.7091 29.1596 62.7091H40.6268C40.8262 62.7091 41.0257 62.7091 41.1254 62.6083C41.3248 62.5074 41.4245 62.4065 41.5242 62.3057L46.9088 55.6486L47.1083 55.8504C47.3077 56.2538 47.6068 56.5564 47.906 56.859ZM57.2792 50.908L50.2992 45.1588L55.6838 37.4931C55.7835 37.2914 55.8832 37.0896 55.8832 36.8879C55.8832 36.6862 55.8832 36.3836 55.7835 36.1819C55.6838 35.9801 55.5841 35.7784 55.3846 35.6775C55.1852 35.5767 54.9858 35.4758 54.7863 35.4758L45.6125 34.6689H45.4131C45.0143 34.6689 44.7151 34.7698 44.3162 34.8706C44.0171 34.9715 43.718 35.1732 43.4188 35.4758L36.8376 42.1328C36.7379 42.2337 36.5385 42.4354 36.339 42.4354C36.1396 42.5363 35.9402 42.5363 35.7407 42.5363C35.5413 42.5363 35.3419 42.5363 35.1425 42.4354C34.943 42.3346 34.8433 42.2337 34.6439 42.1328C34.3447 41.8302 34.245 41.5277 34.245 41.1242C34.245 40.7207 34.3447 40.3173 34.6439 40.1156L43.4188 31.4412C43.5185 31.3404 43.6182 31.2395 43.718 31.2395C43.8177 31.1386 44.0171 31.1386 44.1168 31.1386H58.2764C58.8747 31.1386 59.3732 31.3404 59.8718 31.643L64.5584 34.4672C64.8576 34.6689 65.1567 34.8706 65.3561 35.2741C65.5556 35.5767 65.755 35.8793 65.8547 36.2827C65.9544 36.6862 65.9544 36.9888 65.8547 37.3922C65.755 37.7957 65.6553 38.0983 65.4559 38.4009L57.2792 50.908ZM67.0513 40.8216L71.7379 45.5622C71.9373 45.7639 72.2365 45.9657 72.4359 46.0665C72.7351 46.1674 73.0342 46.2683 73.3333 46.2683H80.7123C81.1111 46.2683 81.4103 46.3691 81.7094 46.5709C82.0086 46.7726 82.208 47.0752 82.4074 47.3778C82.5071 47.6804 82.6068 48.0838 82.5071 48.4873C82.4074 48.8907 82.208 49.1933 82.0086 49.4959C81.8091 49.6976 81.6097 49.7985 81.4103 49.8994C81.2108 50.0002 80.9117 50.0002 80.7123 50.0002H71.1396C70.9402 50.0002 70.7408 50.0002 70.5413 49.8994C70.3419 49.7985 70.1425 49.6976 70.0427 49.4959L64.8576 44.251L67.0513 40.8216Z" fill="#61A1F4"/>
<path d="M77.3225 22.6657C77.3225 21.1527 76.9237 19.6398 76.0262 18.4294C75.1288 17.219 74.0319 16.2104 72.6359 15.6052C71.7385 15.2017 70.7413 15 69.7442 15C69.2456 15 68.747 15 68.2485 15.1009C66.7527 15.4035 65.4564 16.1095 64.3596 17.219C63.2627 18.3285 62.5647 19.6397 62.2656 21.1527C61.9664 22.6657 62.1658 24.1786 62.6644 25.5907C63.2627 27.0028 64.2599 28.2132 65.4564 29.0201C66.7527 29.827 68.1487 30.3313 69.6445 30.3313C71.6388 30.3313 73.6331 29.5244 75.0291 28.1123C76.4251 26.7002 77.3225 24.7838 77.3225 22.6657ZM73.9322 25.5907C73.3339 26.3976 72.6359 27.1037 71.6388 27.5072C71.0405 27.7089 70.4422 27.8097 69.7442 27.8097C69.445 27.8097 69.0462 27.8097 68.747 27.7089C67.7499 27.5072 66.8524 27.0028 66.1544 26.2968C65.4564 25.5907 64.9579 24.683 64.7584 23.6743C64.559 22.6657 64.6587 21.657 65.0576 20.7493C65.4564 19.8415 66.0547 19.0346 66.9522 18.4294C67.7499 17.8242 68.747 17.5216 69.7442 17.5216C71.1402 17.5216 72.3368 18.0259 73.3339 19.0346C74.3311 20.0432 74.8297 21.2536 74.8297 22.6657C74.8297 23.7752 74.5305 24.683 73.9322 25.5907Z" fill="#61A1F4"/>
<path d="M39.4315 23.775C39.1324 23.4724 38.8332 23.3716 38.4344 23.3716H28.2634C27.8646 23.3716 27.4657 23.5733 27.2663 23.775C27.0669 23.9768 26.8674 24.3802 26.8674 24.7837C26.8674 25.1871 27.0669 25.5906 27.2663 25.7923C27.5654 26.0949 27.8646 26.1958 28.2634 26.1958H38.3347C38.7335 26.1958 39.1324 25.994 39.3318 25.7923C39.631 25.4897 39.7307 25.1871 39.7307 24.7837C39.9301 24.3802 39.7307 24.0776 39.4315 23.775Z" fill="#F29021"/>
<path d="M23.0775 23.3716H22.0803C21.6815 23.3716 21.2826 23.5733 21.0832 23.775C20.8838 23.9768 20.6843 24.3802 20.6843 24.7837C20.6843 25.1871 20.8838 25.5906 21.0832 25.7923C21.3823 26.0949 21.6815 26.1958 22.0803 26.1958H23.0775C23.4763 26.1958 23.8752 25.994 24.0746 25.7923C24.3738 25.4897 24.4735 25.1871 24.4735 24.7837C24.4735 24.3802 24.2741 23.9768 24.0746 23.775C23.8752 23.5733 23.4763 23.3716 23.0775 23.3716Z" fill="#F29021"/>
<path d="M27.6641 29.5244H17.4932C17.0943 29.5244 16.6955 29.7261 16.496 29.9279C16.1969 30.2305 16.0972 30.5331 16.0972 30.9365C16.0972 31.34 16.2966 31.7434 16.496 31.9452C16.7952 32.2477 17.0943 32.3486 17.4932 32.3486H27.5644C27.9633 32.3486 28.3621 32.1469 28.5616 31.9452C28.8607 31.6426 28.9604 31.34 28.9604 30.9365C28.9604 30.5331 28.761 30.1296 28.5616 29.9279C28.4618 29.6253 28.063 29.5244 27.6641 29.5244Z" fill="#F29021"/>
<path d="M34.4448 29.9279C34.1456 29.6253 33.8465 29.5244 33.4476 29.5244H32.4505C32.0516 29.5244 31.6527 29.7261 31.4533 29.9279C31.1542 30.2305 31.0544 30.5331 31.0544 30.9365C31.0544 31.34 31.2539 31.7434 31.4533 31.9452C31.7524 32.2477 32.0516 32.3486 32.4505 32.3486H33.4476C33.8465 32.3486 34.2453 32.1469 34.4448 31.9452C34.7439 31.6426 34.8436 31.34 34.8436 30.9365C34.9433 30.5331 34.7439 30.2305 34.4448 29.9279Z" fill="#F29021"/>
<path d="M32.4503 46.7729H22.2793C21.8805 46.7729 21.4816 46.9747 21.2822 47.1764C20.983 47.479 20.8833 47.7816 20.8833 48.185C20.8833 48.5885 21.0827 48.992 21.2822 49.1937C21.5813 49.4963 21.8805 49.5971 22.2793 49.5971H32.4503C32.8491 49.5971 33.248 49.3954 33.4474 49.1937C33.7465 48.8911 33.8463 48.5885 33.8463 48.185C33.8463 47.7816 33.6468 47.3781 33.4474 47.1764C33.1483 46.8738 32.8491 46.7729 32.4503 46.7729Z" fill="#F29021"/>
<path d="M40.527 47.1764C40.2279 46.8738 39.9287 46.7729 39.5299 46.7729H38.5327C38.1339 46.7729 37.735 46.9747 37.5356 47.1764C37.2364 47.479 37.1367 47.7816 37.1367 48.185C37.1367 48.5885 37.3362 48.992 37.5356 49.1937C37.8347 49.4963 38.1339 49.5971 38.5327 49.5971H39.5299C39.9287 49.5971 40.3276 49.3954 40.527 49.1937C40.8262 48.8911 40.9259 48.5885 40.9259 48.185C40.9259 47.7816 40.7265 47.479 40.527 47.1764Z" fill="#F29021"/>
<path d="M33.2482 53.9337C32.949 53.6311 32.6499 53.5303 32.251 53.5303H22.0801C21.6812 53.5303 21.2824 53.732 21.0829 53.9337C20.7838 54.2363 20.6841 54.5389 20.6841 54.9424C20.6841 55.3458 20.8835 55.7493 21.0829 55.951C21.3821 56.2536 21.6812 56.3545 22.0801 56.3545H32.251C32.6499 56.3545 33.0488 56.1527 33.2482 55.951C33.5473 55.6484 33.647 55.3458 33.647 54.9424C33.647 54.5389 33.5473 54.2363 33.2482 53.9337Z" fill="#F29021"/>
<path d="M17.3932 53.4292H16.396C15.9972 53.4292 15.5983 53.6309 15.3989 53.8327C15.0997 54.1352 15 54.4378 15 54.8413C15 55.2448 15.1994 55.6482 15.3989 55.8499C15.698 56.1525 15.9972 56.2534 16.396 56.2534H17.3932C17.792 56.2534 18.1909 56.0517 18.3903 55.8499C18.6895 55.5473 18.7892 55.2448 18.7892 54.8413C18.7892 54.4378 18.5897 54.0344 18.3903 53.8327C18.1909 53.6309 17.792 53.4292 17.3932 53.4292Z" fill="#F29021"/>
</svg>
