<svg width="100" height="100" viewBox="0 0 100 100" fill="none" xmlns="http://www.w3.org/2000/svg">
<path d="M45.9969 68.4747L42.4045 59.853H44.3547L50.3078 66.2167L45.9969 68.4747Z" fill="#D9EBFF"/>
<path d="M69.0907 70.8356C68.988 66.4221 62.6244 63.2402 59.7505 62.4191L61.1874 59.7505L69.7065 64.164L72.4778 70.3224V83.4602H69.296C69.3986 84.4866 69.3986 78.7388 69.0907 70.8356Z" fill="#D9EBFF"/>
<path d="M61.0845 37.5802C61.0845 28.3427 50.3074 23.416 45.5859 22.6975L53.1813 21.979L62.0083 27.2136L65.2927 35.2195V46.4072L62.932 53.3867L57.6974 57.8002L49.4862 59.2372C57.2869 56.158 61.0845 52.8735 61.0845 37.5802Z" fill="#D9EBFF"/>
<path d="M78.1229 82.1259H73.9147V72.7856C73.9147 68.8853 72.3751 65.293 69.7065 62.6243C66.9352 59.8531 63.3428 58.4161 59.5452 58.4161H59.2372C62.5217 56.2607 64.8824 53.0788 66.1141 49.3838C67.551 49.3838 68.8854 48.8706 69.8091 47.8442C70.8355 46.9205 71.4513 45.5862 71.554 44.1492C71.6566 42.7122 71.1434 41.3779 70.2197 40.2489C69.3985 39.2225 68.1669 38.504 66.8326 38.2987V37.2723C66.8326 34.809 66.3194 32.3456 65.293 30.1902C68.6801 29.3691 70.4249 28.1374 70.4249 26.5978C70.4249 24.1345 65.8062 22.4922 56.7739 21.8764C54.6184 20.9527 52.3604 20.4395 50.1023 20.4395C47.8442 20.4395 45.4835 20.9527 43.4307 21.8764C34.3985 22.4922 29.7797 24.1345 29.7797 26.5978C29.7797 28.1374 31.5245 29.3691 34.9116 30.1902C33.8853 32.4483 33.3721 34.809 33.3721 37.2723V38.2987C31.9351 38.4014 30.7034 39.0172 29.7797 40.1463C28.7533 41.2753 28.3427 42.7122 28.3427 44.1492C28.4454 45.5862 29.0612 47.0231 30.1902 47.9469C31.3193 48.9733 32.6536 49.3838 34.0905 49.3838C35.2196 53.0788 37.6829 56.2607 40.8647 58.4161H40.5568C36.7592 58.4161 33.0641 59.9557 30.3955 62.6243C27.6242 65.293 26.1873 68.988 26.1873 72.7856V82.1259H23.0055C22.287 82.1259 21.6711 82.7417 21.6711 83.4602C21.6711 84.1786 22.287 84.7945 23.0055 84.7945H27.3163C27.419 84.7945 27.5216 84.7945 27.5216 84.7945H37.4776C38.1961 84.7945 38.9146 84.1786 38.9146 83.3575C38.9146 82.639 38.2988 81.9206 37.4776 81.9206H36.0407V76.1728C36.0407 75.4543 35.4248 74.7358 34.6037 74.7358C33.8853 74.7358 33.1668 75.3516 33.1668 76.1728V81.9206H28.8559V72.683C28.8559 69.9117 29.8823 67.2431 31.6272 65.1903C33.3721 63.1375 35.7328 61.7006 38.4014 61.29L41.5832 70.8355C41.6859 71.1434 41.8911 71.3487 42.0964 71.554C42.3017 71.7592 42.6096 71.8619 42.9175 71.8619C43.1228 71.8619 43.3281 71.7593 43.5334 71.7593L48.6654 69.1933V82.1259H45.8941C45.1756 82.1259 44.4571 82.7417 44.4571 83.5628C44.4571 84.2813 45.073 84.9998 45.8941 84.9998H78.1229C78.8414 84.9998 79.4572 84.3839 79.4572 83.6654C79.4572 82.7417 78.8414 82.1259 78.1229 82.1259ZM33.3721 46.4073C32.8589 46.3046 32.3457 45.9967 31.9351 45.4835C31.5245 44.9703 31.2166 44.3545 31.2166 43.636C31.2166 43.0202 31.4219 42.4043 31.8325 41.8911C32.1404 41.4806 32.6536 41.1727 33.1668 40.9674V44.1492C33.1668 45.073 33.2694 45.7914 33.3721 46.4073ZM68.0642 45.5862C67.6537 45.9967 67.1405 46.3046 66.6273 46.5099C66.7299 45.7914 66.7299 45.073 66.7299 44.3545V41.1727C67.2431 41.3779 67.7563 41.6859 68.0642 42.0964C68.4748 42.6096 68.6801 43.2254 68.6801 43.8413C68.7827 44.4571 68.4748 45.073 68.0642 45.5862ZM43.4307 61.0847L47.8442 66.3194L43.7387 68.3721L41.2753 61.0847H43.4307ZM65.3956 74.9411C64.6771 74.9411 63.9587 75.5569 63.9587 76.378V82.1259H51.4366V69.0906L56.5686 71.6566C56.9792 71.8619 57.3897 71.8619 57.6976 71.6566C57.9029 71.554 58.0056 71.4513 58.2108 71.3487C58.3135 71.2461 58.4161 71.0408 58.5188 70.8355L61.7006 61.29C64.3692 61.8032 66.7299 63.1375 68.4748 65.1903C70.2197 67.2431 71.2461 70.0144 71.2461 72.683V81.9206H66.9352V76.1728C66.8326 75.5569 66.1141 74.9411 65.3956 74.9411ZM56.2607 68.4748L52.1551 66.422L56.5686 61.1874H58.724L56.2607 68.4748ZM49.9997 23.2107C52.0525 23.2107 54.1053 23.7239 56.0554 24.545C57.8003 25.3662 59.4425 26.5978 60.6742 28.0348C57.1844 28.4453 53.5921 28.6506 50.1023 28.6506C46.5099 28.6506 43.0202 28.4453 39.5304 28.0348C40.7621 26.5978 42.4043 25.3662 44.1492 24.545C45.8941 23.7239 47.9469 23.2107 49.9997 23.2107ZM55.9528 33.0641C55.8501 32.8588 55.6448 32.6536 55.4396 32.5509C55.029 32.3456 54.5158 32.3456 54.1053 32.5509C53.9 32.6536 53.6947 32.8588 53.5921 33.0641C52.6683 34.7064 51.2313 36.0407 49.5891 36.8618C47.9469 37.7855 46.0994 38.2987 44.2519 38.2987H36.0407V37.2723C36.0407 35.0143 36.5539 32.7562 37.6829 30.7034C41.7885 31.3192 45.8941 31.5245 50.1023 31.5245C54.2079 31.5245 58.4161 31.2166 62.5217 30.7034C63.5481 32.7562 64.1639 35.0143 64.1639 37.2723V38.1961C62.5217 37.9908 60.9821 37.4776 59.6478 36.6565C58.0056 35.7328 56.7739 34.5011 55.9528 33.0641ZM36.0407 40.9674H44.3545C46.4073 40.9674 48.4601 40.4542 50.205 39.6331C51.9498 38.8119 53.4894 37.5803 54.8237 36.0407C55.9528 37.375 57.3897 38.504 58.9293 39.4278C60.5716 40.2489 62.3164 40.7621 64.0613 40.9674V44.3545C64.0613 48.0495 62.6243 51.6419 59.9557 54.2079C57.2871 56.8765 53.7973 58.3135 50.1023 58.3135C46.4073 58.3135 42.8149 56.8765 40.2489 54.2079C37.5803 51.5393 36.1433 48.0495 36.1433 44.3545V40.9674H36.0407ZM61.5979 25.1609C64.3692 25.5714 66.2167 26.0846 67.0378 26.5978C66.0114 27.111 64.7798 27.4189 63.6507 27.6242C63.1375 26.7005 62.4191 25.8794 61.5979 25.1609ZM38.4014 25.1609C37.5803 25.8794 36.9644 26.7005 36.3486 27.6242C35.2196 27.4189 33.9879 27.111 32.9615 26.5978C33.68 26.1873 35.5275 25.5714 38.4014 25.1609ZM52.9762 61.0847L49.9997 64.6771L47.0231 61.0847H52.9762V61.0847Z" fill="#61A1F4"/>
<path class="st2" d="M78.4314 27.214C78.4314 27.0087 78.534 26.906 78.6367 26.8034C78.7393 26.7008 78.9446 26.5981 79.0472 26.5981H79.6631C80.2789 26.5981 80.8947 26.0849 80.8947 25.3664C80.8947 24.7506 80.3815 24.1348 79.6631 24.1348H79.0472C78.2261 24.1348 77.5076 24.4427 76.9944 24.9559C76.4812 25.4691 76.1733 26.2902 76.1733 27.0087C76.1733 27.214 76.0707 27.3166 75.968 27.4192C75.8654 27.5219 75.6601 27.6245 75.5575 27.6245H74.9416C74.3258 27.6245 73.71 28.1377 73.71 28.8562C73.71 29.472 74.2232 30.0879 74.9416 30.0879H75.5575C76.3786 30.0879 77.0971 29.7799 77.6103 29.2667C78.1235 28.7535 78.4314 27.9324 78.4314 27.214Z" fill="#F29021"/>
<path class="st2" d="M21.5686 27.214C21.5686 28.0351 21.8765 28.7535 22.3897 29.2667C22.9029 29.7799 23.724 30.0879 24.4425 30.0879H25.0583C25.6742 30.0879 26.29 29.5747 26.29 28.8562C26.29 28.2403 25.7768 27.6245 25.0583 27.6245H24.4425C24.2372 27.6245 24.1346 27.5219 24.0319 27.4192C23.9293 27.3166 23.8266 27.1113 23.8266 27.0087C23.8266 26.1876 23.5187 25.4691 23.0055 24.9559C22.4923 24.4427 21.6712 24.1348 20.9527 24.1348H20.3369C19.7211 24.1348 19.1052 24.648 19.1052 25.3664C19.1052 25.9823 19.6184 26.5981 20.3369 26.5981H20.9527C21.158 26.5981 21.2607 26.7008 21.3633 26.8034C21.4659 26.906 21.5686 27.0087 21.5686 27.214Z" fill="#F29021"/>
<path class="st2" d="M26.2903 36.0415C25.7771 35.5283 25.0586 35.5283 24.648 36.0415L24.3401 36.3494C24.3401 36.4521 24.2375 36.4521 24.2375 36.4521C24.1348 36.4521 24.1348 36.4521 24.0322 36.4521C23.9296 36.4521 23.9296 36.4521 23.8269 36.4521C23.7243 36.4521 23.7243 36.3494 23.7243 36.3494C23.2111 35.8362 22.4926 35.5283 21.6715 35.5283C20.953 35.5283 20.2345 35.8362 19.6187 36.3494L19.2081 36.76C18.6949 37.2732 18.6949 37.9917 19.2081 38.4022C19.7213 38.9154 20.4398 38.9154 20.8504 38.4022L21.1583 38.0943C21.1583 37.9917 21.2609 37.9917 21.2609 37.9917C21.3636 37.9917 21.3636 37.9917 21.4662 37.9917C21.5689 37.9917 21.5689 37.9917 21.6715 37.9917C21.7741 37.9917 21.7741 38.0943 21.7741 38.0943C22.2873 38.6075 23.0058 38.9154 23.8269 38.9154C24.5454 38.9154 25.2639 38.6075 25.8797 38.0943L26.1876 37.7864C26.8035 37.2732 26.8035 36.5547 26.2903 36.0415Z" fill="#F29021"/>
<path class="st2" d="M80.484 36.3494C79.9708 35.8362 79.2523 35.5283 78.4312 35.5283C77.7127 35.5283 76.9942 35.8362 76.3784 36.3494C76.3784 36.4521 76.2757 36.4521 76.2757 36.4521C76.1731 36.4521 76.1731 36.4521 76.0705 36.4521C75.9678 36.4521 75.9678 36.4521 75.8652 36.4521C75.7625 36.4521 75.7625 36.3494 75.7625 36.3494L75.4546 36.0415C74.9414 35.5283 74.2229 35.5283 73.8124 36.0415C73.2992 36.5547 73.2992 37.2732 73.8124 37.6838L74.1203 37.9917C74.6335 38.5049 75.352 38.8128 76.1731 38.8128C76.8916 38.8128 77.6101 38.5049 78.2259 37.9917C78.2259 37.889 78.3285 37.889 78.3285 37.889C78.4312 37.889 78.4312 37.889 78.5338 37.889C78.6365 37.889 78.6365 37.889 78.7391 37.889C78.8417 37.889 78.8417 37.9917 78.8417 37.9917L79.1497 38.2996C79.6629 38.8128 80.3813 38.8128 80.7919 38.2996C81.3051 37.7864 81.3051 37.0679 80.7919 36.6574L80.484 36.3494Z" fill="#F29021"/>
<path class="st2" d="M63.0351 17.2583L63.5483 17.7715L63.0351 18.2847C62.8298 18.49 62.8298 18.9005 63.0351 19.2084C63.2403 19.4137 63.6509 19.4137 63.9588 19.2084L64.472 18.6952L64.9852 19.2084C65.1905 19.4137 65.6011 19.4137 65.909 19.2084C66.1142 19.0032 66.1142 18.5926 65.909 18.2847L65.3958 17.8741L65.909 17.3609C66.1142 17.1556 66.1142 16.7451 65.909 16.4372C65.7037 16.2319 65.2931 16.2319 64.9852 16.4372L64.472 16.9504L63.9588 16.4372C63.7535 16.2319 63.343 16.2319 63.0351 16.4372C62.8298 16.6424 62.8298 17.053 63.0351 17.2583Z" fill="#F29021"/>
<path class="st2" d="M31.422 16.8475L32.3458 17.7713L31.422 18.695C31.0114 19.1056 31.0114 19.8241 31.422 20.2346C31.8326 20.6452 32.551 20.6452 32.9616 20.2346L33.8854 19.3109L34.8091 20.2346C35.2197 20.6452 35.9382 20.6452 36.3487 20.2346C36.7593 19.8241 36.7593 19.1056 36.3487 18.695L35.425 17.7713L36.3487 16.8475C36.7593 16.437 36.7593 15.7185 36.3487 15.3079C35.9382 14.8974 35.2197 14.8974 34.8091 15.3079L33.8854 16.2317L32.9616 15.3079C32.551 14.8974 31.8326 14.8974 31.422 15.3079C30.9088 15.7185 30.9088 16.437 31.422 16.8475Z" fill="#F29021"/>
</svg>
