<svg width="100" height="100" viewBox="0 0 100 100" fill="none" xmlns="http://www.w3.org/2000/svg">
<path d="M50.4961 23.5029C48.6069 24.3928 45.1267 27.7543 46.121 33.4888C47.0159 39.0255 50.3967 40.5086 52.1865 40.6074H52.3854C52.286 40.6074 52.286 40.6074 52.1865 40.6074H47.9108L43.7346 38.8278L40.9504 34.6752V30.325C40.9504 29.3363 42.3425 26.5679 43.0386 25.2826L45.6239 24.2939V21.7233L47.0159 17.7685L50.9933 16.3843C49.3029 17.0764 46.7176 19.4492 50.4961 23.5029Z" fill="#D9EBFF"/>
<path d="M29.4161 76.9915C28.6206 79.661 32.0014 82.1328 33.7912 83.0226L27.0297 83.5169L24.9415 80.7486L23.3506 78.3757L24.2455 75.113L26.1347 71.9491L30.7087 70.7627L36.9731 71.9491L44.3312 74.322L48.7063 76.8926C37.0725 73.5311 30.5099 73.6299 29.4161 76.9915Z" fill="#D9EBFF"/>
<path d="M63.2241 65.2257C63.5224 55.141 59.1473 50.593 56.9597 49.6043L57.8546 46.4404L62.4286 50.7907L64.7156 56.8218L65.2128 62.3585L64.7156 65.1269H63.2241V65.2257Z" fill="#D9EBFF"/>
<path d="M84.0057 82.3305H76.1503C77.3436 81.0452 78.0396 79.1667 78.0396 77.1893C78.0396 75.113 77.1447 73.1356 75.852 71.8503C76.1503 71.7514 76.3492 71.6525 76.6475 71.4548C76.8464 71.2571 77.0452 70.9605 77.0452 70.565C77.0452 68.8842 76.4486 67.5989 75.3549 66.5113C74.8577 66.0169 74.1617 65.6215 73.4656 65.3249C73.6645 64.9294 73.7639 64.435 73.7639 63.9407C73.7639 62.161 72.3718 60.7768 70.582 60.7768C68.7922 60.7768 67.4001 62.161 67.4001 63.9407C67.4001 64.1384 67.4001 64.435 67.4996 64.6328H66.4058C66.4058 64.0395 66.4058 63.4463 66.4058 62.8531C66.5052 60.2825 66.5052 57.613 65.9086 55.0424C64.4171 49.5056 59.8431 44.9576 54.2748 43.5734V41.4972C58.1527 39.9153 60.738 36.0593 60.738 31.9068C60.738 28.3475 58.8488 24.887 55.7663 23.1073C56.0646 22.4153 56.164 21.6243 56.164 20.8333C56.164 17.6695 53.5787 15 50.2974 15C47.0161 15 44.4308 17.5706 44.4308 20.8333C44.4308 21.6243 44.6297 22.3164 44.928 23.1073C41.8455 24.9859 39.8568 28.3475 39.8568 31.9068C39.8568 36.0593 42.3427 39.8164 46.1212 41.3983V43.5734C43.0387 44.3644 41.05 45.8475 40.8511 45.9463C40.0557 46.5395 39.3596 47.1328 38.6636 47.726C38.3653 48.0226 38.2659 48.4181 38.3653 48.9124C38.4647 49.4068 38.8625 49.8023 39.3596 49.9011C39.7574 50 40.1551 49.9011 40.5528 49.6045C40.7517 49.4068 41.05 49.1102 41.2489 48.9124C43.1381 51.8785 46.5189 53.6582 50.0985 53.6582C53.7776 53.6582 57.0589 51.7797 58.9482 48.7147C62.1301 51.2853 63.8205 55.1412 63.8205 59.1949V64.6328H62.8261C62.0307 64.6328 61.6329 65.226 61.6329 65.9181C61.6329 66.2147 61.7324 66.5113 61.9312 66.8079C62.1301 67.1045 62.5278 67.2034 62.8261 67.2034H67.9967V69.774C66.8035 69.8729 65.6103 70.0706 64.3177 70.3672C62.8261 70.6638 62.1301 70.8616 61.9312 70.8616C61.6329 70.6638 59.7437 69.5763 59.8431 66.3136V57.1186C59.8431 55.9322 58.3516 55.6356 57.755 56.2288C57.4567 56.4265 57.3573 56.822 57.3573 57.1186V66.2147C57.2578 68.9831 58.2522 70.6638 59.1471 71.7514C56.2635 72.7401 53.3799 74.0254 50.4963 75.6073C47.4138 73.9266 44.3313 72.5424 41.3483 71.5537C42.2432 70.565 43.1381 68.7853 43.1381 66.1158V57.0198C43.1381 55.4379 40.5528 55.4379 40.5528 57.0198V66.2147C40.6523 69.2797 38.9619 70.4661 38.4647 70.7627C35.9789 70.0706 33.9902 69.8729 32.6975 69.774V67.3023H37.8681C38.6636 67.3023 39.0613 66.709 39.0613 66.0169C39.0613 65.7203 38.9619 65.4237 38.763 65.1271C38.5642 64.8305 38.1664 64.7316 37.8681 64.7316H36.6749C36.6749 64.3362 36.6749 64.0395 36.6749 63.6441C36.2772 60.1836 36.2772 56.9209 37.5698 53.8559C37.7687 53.4605 37.6693 52.9661 37.4704 52.6695C37.1721 52.274 36.6749 52.0763 36.1777 52.1751C35.78 52.274 35.3823 52.4718 35.1834 52.8672C33.6919 56.4266 33.6919 60.0847 33.7913 63.6441V64.7316H32.8964C32.8964 64.5339 32.9958 64.2373 32.9958 64.0395C32.9958 62.2599 31.6038 60.8757 29.8139 60.8757C28.0241 60.8757 26.632 62.2599 26.632 64.0395C26.632 64.5339 26.7315 65.0282 26.9303 65.4237C26.2343 65.7203 25.5383 66.1158 25.0411 66.6102C23.9473 67.5989 23.3507 68.9831 23.3507 70.6638C23.3507 71.0593 23.4501 71.2571 23.649 71.5537C23.8479 71.7514 24.2456 71.8503 24.5439 71.9491C23.0524 73.5311 22.2569 75.5085 22.2569 77.5847C22.2569 79.3644 22.953 81.0452 24.1462 82.4294H16.3903C15.6943 82.4294 15.0977 83.0226 15.0977 83.7147C15.0977 84.4068 15.6943 85 16.3903 85C16.3903 85 61.0363 85 61.6329 85C61.9312 85 62.2295 84.9011 62.4284 84.6045C62.6273 84.4068 62.7267 84.1102 62.7267 83.8136C62.7267 83.1215 62.2295 82.4294 61.5335 82.4294C61.4341 82.4294 49.0048 82.4294 44.6297 82.3305C52.0872 76.8927 58.451 74.5198 62.4284 73.4322C66.8035 72.2458 69.5877 72.2458 70.0848 72.3446C73.2667 72.4435 75.3549 74.4209 75.4543 77.2881C75.5537 79.8588 73.4656 82.2316 70.7809 82.5282H67.4996C66.7041 82.5282 66.3063 83.1215 66.2069 83.7147C66.2069 84.3079 66.5052 84.9011 67.3007 85C67.4001 85 70.1843 85 73.4656 85C77.5424 85 82.3153 85 83.8068 85C84.6023 85 85 84.4068 85 83.7147C85 83.0226 84.8011 82.3305 84.0057 82.3305ZM74.1617 69.3785H70.3832V67.2034C71.3775 67.3023 72.6701 67.5989 73.4656 68.3898C73.7639 68.6864 74.0622 68.983 74.1617 69.3785ZM70.4826 64.7316C70.0848 64.7316 69.7865 64.435 69.7865 64.0395C69.7865 63.6441 70.0848 63.3475 70.4826 63.3475C70.8803 63.3475 71.1786 63.6441 71.1786 64.0395C71.1786 64.435 70.8803 64.7316 70.4826 64.7316ZM47.6127 45.9463C48.2093 45.8475 48.7065 45.3531 48.7065 44.661V42.1893C49.7008 42.387 50.6951 42.387 51.6895 42.1893V44.5621C51.6895 45.1554 52.0872 45.6497 52.6838 45.8475C53.6782 46.0452 55.2691 46.4407 56.8601 47.3305C55.468 49.7034 52.8827 51.1864 50.0985 51.1864C47.3144 51.1864 44.6297 49.7034 43.337 47.5282C44.1325 47.0339 45.624 46.3418 47.6127 45.9463ZM47.7121 32.5C44.8285 32.7966 42.4421 31.9068 42.3427 31.9068C42.4421 27.6554 45.9223 24.1949 50.198 24.1949C52.3855 24.1949 54.4737 25.0847 55.9652 26.7655C54.0759 30.226 51.2918 32.2034 47.7121 32.5ZM46.5189 35.0706C47.0161 35.0706 47.4138 35.0706 47.8116 34.9717C50.5957 34.6751 54.5731 33.4887 57.4567 29.0395C57.8544 29.9294 58.0533 30.9181 58.0533 32.0056C58.0533 36.3559 54.5731 39.8164 50.198 39.8164C46.9166 39.8164 43.9336 37.7401 42.8398 34.6751C43.7347 34.8729 45.0274 35.0706 46.5189 35.0706ZM50.198 17.6695C51.9878 17.6695 53.4793 19.1525 53.4793 20.9322C53.4793 21.3277 53.3799 21.7232 53.2804 22.1186C51.2918 21.5254 49.1042 21.5254 47.1155 22.1186C47.0161 21.7232 46.9166 21.3277 46.9166 20.9322C46.9166 19.1525 48.4082 17.6695 50.198 17.6695ZM29.2173 64.0395C29.2173 63.6441 29.5156 63.3475 29.9134 63.3475C30.3111 63.3475 30.6094 63.6441 30.6094 64.0395C30.6094 64.435 30.3111 64.7316 29.9134 64.7316C29.5156 64.7316 29.2173 64.435 29.2173 64.0395ZM25.936 74.1243C26.632 73.2345 28.1236 72.2458 30.3111 72.1469C30.4105 72.1469 30.51 72.1469 30.7088 72.1469C32.5981 72.1469 38.9619 72.5424 47.7121 77.0904C47.5133 77.1893 47.4138 77.2881 47.2149 77.387C45.7234 77.2881 36.1777 76.8927 33.2941 82.2316C31.9021 82.2316 30.51 82.2316 29.2173 82.2316C27.5269 82.0339 26.0354 80.9463 25.3394 79.3644C24.6434 77.5847 24.8422 75.6073 25.936 74.1243ZM26.2343 69.3785C26.3337 68.983 26.632 68.6864 26.8309 68.4887C27.7258 67.6977 29.1179 67.4011 30.0128 67.3023V69.4774H26.2343V69.3785ZM43.337 80.0565C42.4421 80.6497 41.5472 81.3418 40.7517 82.0339C40.6523 82.1328 40.5528 82.2316 40.4534 82.3305C39.1608 82.3305 37.8681 82.3305 36.5755 82.3305C37.9676 81.1441 40.1551 80.5508 41.7461 80.2542C42.2432 80.1554 42.8398 80.0565 43.337 80.0565Z" fill="#61A1F4"/>
<path class="st2" d="M34.6869 43.7708C35.5656 43.7708 36.2778 43.0625 36.2778 42.1889C36.2778 41.3152 35.5656 40.6069 34.6869 40.6069C33.8082 40.6069 33.0959 41.3152 33.0959 42.1889C33.0959 43.0625 33.8082 43.7708 34.6869 43.7708Z" fill="#F29021"/>
<path class="st2" d="M74.0629 54.5475C75.3259 54.5475 76.3499 53.5294 76.3499 52.2735C76.3499 51.0176 75.3259 49.9995 74.0629 49.9995C72.7998 49.9995 71.7759 51.0176 71.7759 52.2735C71.7759 53.5294 72.7998 54.5475 74.0629 54.5475Z" fill="#F29021"/>
<path class="st2" d="M76.8475 31.3129C77.1221 31.3129 77.3447 31.0916 77.3447 30.8186C77.3447 30.5455 77.1221 30.3242 76.8475 30.3242C76.5729 30.3242 76.3503 30.5455 76.3503 30.8186C76.3503 31.0916 76.5729 31.3129 76.8475 31.3129Z" fill="#F29021"/>
<path class="st2" d="M62.9264 23.9964C63.5854 23.9964 64.1196 23.4652 64.1196 22.81C64.1196 22.1547 63.5854 21.6235 62.9264 21.6235C62.2674 21.6235 61.7332 22.1547 61.7332 22.81C61.7332 23.4652 62.2674 23.9964 62.9264 23.9964Z" fill="#F29021"/>
<path class="st2" d="M68.0971 43.0788C69.3601 43.0788 70.384 42.0607 70.384 40.8048C70.384 39.5489 69.3601 38.5308 68.0971 38.5308C66.834 38.5308 65.8101 39.5489 65.8101 40.8048C65.8101 42.0607 66.834 43.0788 68.0971 43.0788Z" fill="#F29021"/>
<path class="st2" d="M23.9481 54.5475C25.2112 54.5475 26.2351 53.5294 26.2351 52.2735C26.2351 51.0176 25.2112 49.9995 23.9481 49.9995C22.6851 49.9995 21.6611 51.0176 21.6611 52.2735C21.6611 53.5294 22.6851 54.5475 23.9481 54.5475Z" fill="#F29021"/>
<path class="st2" d="M24.8435 32.3016C25.3926 32.3016 25.8378 31.859 25.8378 31.3129C25.8378 30.7669 25.3926 30.3242 24.8435 30.3242C24.2943 30.3242 23.8491 30.7669 23.8491 31.3129C23.8491 31.859 24.2943 32.3016 24.8435 32.3016Z" fill="#F29021"/>
<path class="st2" d="M36.2785 23.7001C36.8277 23.7001 37.2729 23.2574 37.2729 22.7114C37.2729 22.1653 36.8277 21.7227 36.2785 21.7227C35.7294 21.7227 35.2842 22.1653 35.2842 22.7114C35.2842 23.2574 35.7294 23.7001 36.2785 23.7001Z" fill="#F29021"/>
</svg>
