<svg width="100" height="100" viewBox="0 0 100 100" fill="none" xmlns="http://www.w3.org/2000/svg">
<path d="M80.5 81.7161C81.3 78.1335 71.5 61.315 66.5 53.3536C66.9 52.856 67.6 51.8608 68 51.8608H70L78.5 66.2909L84 75.745L82.5 79.2282L80.5 81.7161Z" fill="#D9EBFF"/>
<path d="M55.5001 55.8415C58.7001 52.6569 56.2001 41.6105 54.5001 36.4355H59.5001L61.5001 36.9331L60.5001 39.4211L61.5001 41.4114V48.8752L59.5001 54.8463C56.9001 56.5381 52.3001 59.026 55.5001 55.8415Z" fill="#D9EBFF"/>
<path d="M31.5 43.4021C33.5 39.8194 32.7 33.9479 32 31.46L30 35.9383L28 40.4165L26 43.8997L24.5 46.3876L25.5 50.3683L28 51.8611V55.8418L31.5 59.3249L34.5 61.3152L38.5 59.3249C35.5 57.8321 32 56.8369 32.5 53.8514C33 50.8659 29 47.8804 31.5 43.4021Z" fill="#D9EBFF"/>
<path fill-rule="evenodd" clip-rule="evenodd" d="M44.2001 16.9301C43.4001 17.4277 43.3001 18.3233 44.0001 19.02C44.4001 19.418 44.6001 19.5175 45.1001 19.5175C46.4001 19.5175 48.5001 20.0151 49.8001 20.7118C50.1001 20.9108 50.8001 21.3089 51.4001 21.6074C52.4001 22.304 52.6001 22.304 53.8001 22.0055C56.0001 21.4084 58.7001 22.105 60.3001 23.7968C61.4001 24.792 61.7001 25.3891 62.8001 28.5736C64.2001 32.5543 65.4001 34.9428 67.3001 37.5302L68.0001 38.5254L67.0001 37.6297C65.7001 36.4355 64.8001 35.9379 63.5001 35.9379C62.6001 35.9379 62.5001 35.8384 61.9001 35.5399C61.6001 35.3408 61.0001 34.9428 60.5001 34.8432L59.7001 34.5447H50.6001C45.3001 34.5447 41.1001 34.5447 40.6001 34.6442C38.1001 34.9428 36.2001 36.8336 35.8001 39.222C35.6001 40.3167 35.6001 44.3969 35.8001 46.2878C36.2001 50.567 38.5001 54.4482 42.1001 56.8366C42.9001 57.3342 43.0001 57.4337 42.9001 57.8318C42.8001 58.4289 42.2001 59.225 41.5001 59.6231C40.9001 60.0212 40.9001 60.0212 40.5001 59.8222C40.3001 59.7226 39.9001 59.4241 39.6001 59.225C38.8001 58.5284 38.5001 58.5284 37.5001 58.827C36.3001 59.225 35.3001 59.4241 34.3001 59.225C32.1001 58.827 30.3001 57.1352 29.7001 54.9458C29.6001 54.5477 29.6001 53.8511 29.6001 53.254C29.6001 51.9603 29.5001 51.7612 28.6001 51.2636C26.8001 50.2685 25.9001 48.4771 26.2001 46.4868C26.4001 45.3921 26.8001 44.795 28.3001 43.1032C30.5001 40.9138 31.3001 39.7196 32.1001 37.8288C32.8001 36.137 33.0001 35.0423 33.1001 32.3553C33.3001 28.7727 33.7001 27.0809 34.9001 25.19C35.8001 23.7968 35.7001 23.0007 34.6001 22.6026C33.7001 22.2045 32.9001 22.8016 31.8001 25.0905C30.8001 27.0809 30.3001 29.5688 30.3001 32.7534C30.3001 35.1418 29.4001 37.6297 28.0001 39.4211C27.7001 39.7196 26.9001 40.7148 26.1001 41.5109C25.3001 42.3071 24.5001 43.3022 24.3001 43.7003C22.5001 46.7854 23.4001 51.1641 26.3001 53.1545C26.8001 53.453 26.8001 53.5525 26.8001 54.0501C26.8001 56.4386 28.4001 59.3246 30.4001 60.6183C31.1001 61.0164 31.1001 61.2154 30.4001 61.2154C29.0001 61.2154 26.4001 62.1111 24.8001 63.1062C21.5001 65.1961 19.6001 68.4802 19.3001 72.5604C19.1001 74.5508 19.2001 77.6358 19.5001 78.83C20.0001 81.0194 21.8001 83.2088 23.8001 84.1044C25.8001 85.0001 24.0001 85.0001 52.1001 85.0001C76.9001 85.0001 77.5001 85.0001 78.5001 84.7015C80.0001 84.3035 81.3001 83.6068 82.4001 82.5122C84.8001 80.1237 85.5001 76.3421 84.1001 73.3565C83.9001 72.9585 81.3001 68.3807 78.4001 63.3053C75.4001 58.1304 72.9001 53.8511 72.9001 53.6521C72.8001 53.3535 72.8001 53.3535 73.3001 53.055C76.4001 51.0646 77.4001 46.1882 75.5001 43.1032C75.3001 42.7051 74.1001 41.5109 72.9001 40.3167C70.6001 38.0278 69.3001 36.336 68.0001 34.1466C66.9001 32.2558 66.4001 30.9621 65.2001 27.7775C64.0001 24.4934 63.6001 23.7968 62.3001 22.4035C60.1001 20.2142 56.8001 19.1195 53.9001 19.6171L53.0001 19.418L52.2001 18.9204C50.4001 17.8257 47.9001 17.0296 45.8001 16.8306C44.9001 16.8306 44.5001 16.8306 44.2001 16.9301ZM38.5001 18.2238C37.7001 18.5224 37.4001 19.418 37.8001 20.1146C38.3001 20.9108 39.3001 21.0103 39.9001 20.4132C40.9001 19.5175 39.8001 17.8257 38.5001 18.2238ZM59.6001 37.2317C59.9001 37.3312 59.9001 37.5302 59.6001 38.0278C59.2001 38.6249 58.9001 39.9186 58.9001 40.7148C58.9001 41.1128 59.3001 42.4066 59.8001 43.6008L60.6001 45.7902L60.4001 47.681C60.3001 49.4723 60.2001 49.6714 59.8001 50.368C58.3001 53.055 55.7001 54.9458 52.7001 55.7419C51.2001 56.14 48.6001 56.14 47.1001 55.7419C43.0001 54.6472 39.9001 51.4627 38.8001 47.482C38.6001 46.5863 38.5001 45.8897 38.4001 43.1032C38.4001 40.9138 38.4001 39.6201 38.5001 39.222C38.8001 38.1273 39.6001 37.3312 40.6001 37.1321C41.3001 37.0326 59.3001 37.1321 59.6001 37.2317ZM64.0001 38.7244C64.7001 39.023 66.7001 41.1129 67.1001 41.8095C67.6001 43.0037 67.7001 43.6008 67.3001 47.2829L67.0001 50.6665L65.3001 51.4627C64.4001 51.8607 63.6001 52.2588 63.5001 52.1593C63.5001 52.1593 63.3001 51.5622 63.2001 50.9651C63.1001 50.0694 63.1001 49.3728 63.2001 48.1786C63.5001 45.5911 63.4001 45.4916 62.5001 42.9042C62.0001 41.6104 61.6001 40.4162 61.6001 40.2172C61.6001 39.7196 62.1001 39.023 62.6001 38.7244C63.1001 38.5254 63.4001 38.5254 64.0001 38.7244ZM73.3001 44.3969C73.9001 45.5911 73.9001 47.1834 73.2001 48.6762C72.9001 49.4723 71.8001 50.567 71.5001 50.567C71.4001 50.567 71.1001 50.368 70.8001 50.0694C70.5001 49.7709 70.2001 49.5718 70.0001 49.5718C69.8001 49.5718 69.7001 49.4723 69.8001 49.1738C69.8001 48.9747 70.0001 47.681 70.1001 46.3873C70.4001 43.4018 70.2001 42.3071 69.4001 40.7148C69.2001 40.3167 69.5001 40.6153 71.1001 42.108C72.2001 43.0037 73.2001 44.0984 73.3001 44.3969ZM75.7001 63.5043C82.0001 74.5507 82.3001 74.9488 82.3001 76.4416C82.3001 79.8252 79.1001 82.5121 75.8001 81.915C74.1001 81.6165 72.4001 80.4223 71.7001 78.9295C71.4001 78.3324 63.2001 56.2395 63.1001 55.7419C63.1001 55.5429 69.3001 52.5574 69.4001 52.7564C69.5001 52.7564 72.3001 57.6328 75.7001 63.5043ZM60.5001 56.5381C60.9001 57.7323 61.0001 58.1304 60.9001 58.2299C60.7001 58.5284 58.9001 59.3246 58.5001 59.3246C58.0001 59.3246 56.9001 57.9313 56.9001 57.2347C56.9001 57.1352 57.3001 56.8366 57.7001 56.5381C58.1001 56.2395 58.8001 55.8414 59.1001 55.5429C59.4001 55.2443 59.7001 55.0453 59.8001 54.9458C59.9001 55.0453 60.1001 55.7419 60.5001 56.5381ZM47.2001 58.6279C49.0001 59.026 52.1001 58.9265 54.1001 58.3294C54.3001 58.2299 54.4001 58.3294 54.6001 58.827C54.7001 59.1255 55.0001 59.6231 55.2001 60.0212C55.4001 60.3197 55.6001 60.7178 55.5001 60.7178C55.3001 61.1159 53.7001 61.912 52.6001 62.3101C51.7001 62.6086 51.2001 62.7082 50.0001 62.7082C48.7001 62.7082 48.3001 62.7082 47.3001 62.3101C46.2001 61.912 44.6001 61.1159 44.4001 60.7178C44.3001 60.6183 44.5001 60.3197 44.7001 60.0212C44.9001 59.7226 45.2001 59.1255 45.3001 58.827C45.5001 58.3294 45.6001 58.2299 45.8001 58.3294C46.1001 58.4289 46.6001 58.5284 47.2001 58.6279ZM42.3001 62.5091C42.8001 63.0067 44.7001 64.2009 45.8001 64.6985C48.6001 65.7932 51.7001 65.7932 54.5001 64.599C55.4001 64.2009 57.4001 63.0067 57.8001 62.5091C58.0001 62.3101 58.1001 62.2106 58.6001 62.4096C58.9001 62.5091 60.0001 62.7082 61.1001 62.8077L63.0001 63.0067L65.5001 69.7739C66.9001 73.5556 68.0001 76.6406 68.0001 76.6406C68.0001 76.6406 67.7001 76.4416 67.4001 76.143C66.7001 75.4464 65.8001 75.0483 64.1001 74.5508C62.0001 74.0532 60.6001 73.8541 57.9001 73.9536L55.6001 74.0532L55.4001 73.7546C55.3001 73.1575 54.9001 72.6599 54.4001 72.5604C54.2001 72.5604 51.2001 72.2618 47.6001 71.9633C44.1001 71.6647 39.1001 71.2667 36.5001 70.9681C33.1001 70.6696 31.7001 70.57 31.4001 70.6696C30.5001 70.9681 30.3001 72.1623 31.0001 72.8589C31.5001 73.3565 30.5001 73.1575 42.7001 74.2522C48.1001 74.7498 52.6001 75.0483 52.6001 75.1479C52.6001 75.1479 52.5001 76.5411 52.4001 78.2329C52.3001 79.9247 52.1001 81.4175 52.1001 81.6165V82.0146H39.6001C26.2001 82.0146 26.4001 82.0146 25.1001 81.3179C24.2001 80.9199 23.2001 79.7257 22.7001 78.83C22.4001 78.1334 22.3001 77.7353 22.2001 76.3421C22.1001 74.4512 22.2001 71.7643 22.4001 70.6696C22.9001 68.8782 24.2001 66.7884 25.6001 65.6937C26.7001 64.8975 28.3001 64.1014 29.5001 63.8029C30.0001 63.7033 32.9001 63.3053 35.9001 63.0067C38.9001 62.7082 41.5001 62.4096 41.6001 62.3101C42.0001 62.2106 42.0001 62.2106 42.3001 62.5091ZM62.9001 77.2377C63.6001 77.4368 64.4001 77.6358 64.7001 77.7353C66.5001 78.5315 66.7001 80.8204 64.9001 81.716C64.4001 82.0146 64.1001 82.0146 59.6001 82.0146H54.8001V81.6165C54.8001 80.7208 55.2001 77.2377 55.3001 77.1382C55.6001 76.7401 61.1001 76.8397 62.9001 77.2377ZM70.1001 81.517C70.3001 81.716 70.4001 81.8155 70.4001 81.915C70.4001 82.0146 69.9001 82.0146 69.4001 82.0146H68.4001L68.6001 81.3179C68.7001 80.9199 68.9001 80.3228 68.9001 80.0242V79.5266L69.4001 80.4223C69.6001 80.8204 69.9001 81.3179 70.1001 81.517Z" fill="#61A1F4"/>
<path class="st2" d="M15.4 17.8257C16 16.532 17.3 15.4373 18.6 15.1387C19.5 14.9397 20.3 14.9397 21.3 15.2382C22.1 15.4373 22.4 15.6363 23.1 16.4324C24.2 17.5271 24.5 18.3233 24.5 19.816C24.5 21.2093 24 22.304 23 23.1996L22.3 23.9958L22.5 24.6924C22.6 25.0905 22.7 25.5881 22.7 25.6876C22.7 26.1852 22.3 26.6828 22 26.8818C21 27.3794 20.3 26.7823 19.9 25.2895C19.4 23.4982 19.6 22.9011 20.9 21.6074C21.9 20.6122 22.1 20.0151 21.8 19.1194C21.3 17.7262 19.6 17.2286 18.5 18.2238C17.9 18.7213 17.7 19.3185 17.8 20.3136C17.9 21.0103 17.9 21.1098 17.4 21.5078C16.9 22.0054 16.4 22.1049 15.8 21.8064C15.3 21.6074 15 21.0103 15 19.7165C15 18.8209 15.1 18.5223 15.4 17.8257Z" fill="#F29021"/>
<path class="st2" d="M75.3999 18.8212C75.5999 17.2289 77.1999 15.5371 78.9999 15.139C80.8999 14.741 82.9999 15.5371 84.0999 17.1294C86.0999 20.0154 84.5999 23.7971 81.1999 24.4937L80.1999 24.6927L79.9999 25.4889C79.7999 26.3845 79.1999 27.0811 78.5999 27.0811C77.7999 27.0811 77.0999 26.484 77.0999 25.6879C77.0999 25.2898 77.4999 23.9961 77.7999 23.2995C78.0999 22.7024 78.9999 22.0057 79.6999 21.9062C81.1999 21.7072 81.8999 21.1101 82.0999 20.1149C82.3999 18.7217 81.0999 17.4279 79.5999 17.627C78.9999 17.7265 78.1999 18.4231 77.9999 19.0202C77.5999 20.2144 76.3999 20.513 75.5999 19.6173C75.4999 19.4183 75.3999 19.2193 75.3999 18.8212Z" fill="#F29021"/>
<!--<path class="st2" d="M21.3999 30.8626C21.1999 30.166 21.5999 29.4694 22.1999 29.1708C22.7999 28.9718 23.0999 29.0713 23.5999 29.4694C24.0999 29.9669 24.0999 30.6636 23.5999 31.2607C23.2999 31.5592 23.0999 31.6587 22.6999 31.6587C21.9999 31.7583 21.5999 31.4597 21.3999 30.8626Z" fill="#F29021"/>-->
<path class="st2" d="M76 30.4646C76 30.1661 76.1 29.8675 76.4 29.569C76.7 29.2704 76.9 29.1709 77.3 29.1709C78 29.1709 78.4 29.4695 78.6 30.0666C78.7 30.4646 78.7 30.6637 78.6 30.9622C78.4 31.5593 78 31.7584 77.3 31.7584C76.9 31.7584 76.7 31.6588 76.4 31.3603C76.1 31.0617 76 30.7632 76 30.4646Z" fill="#F29021"/>
</svg>
