<svg width="100" height="100" viewBox="0 0 100 100" fill="none" xmlns="http://www.w3.org/2000/svg">
<path d="M44.8443 26.6006C44.8443 40.4816 45.8358 45.6374 51.289 46.2323L49.2069 47.2238L44.5468 44.9434L39.6885 39.391V30.5666L41.5723 28.7819L44.8443 26.6006Z" fill="#D9EBFF"/>
<path d="M72.9036 62.4932C71.813 58.3289 69.4334 57.1391 68.3427 57.1391L67.6487 53.8672L70.6232 54.7595L74.2917 57.8332L78.2577 69.6321V73.9947L76.1756 78.6547H72.0113V76.87L72.9036 75.0853C76.1756 73.3006 74.2917 67.7482 72.9036 62.4932Z" fill="#D9EBFF"/>
<path d="M64.9718 56.048C64.9718 53.6684 60.2126 53.0735 57.833 53.0735L62.2948 52.082L66.2608 52.5778L67.6489 54.3625V58.2293V75.0849H64.8727V56.048H64.9718Z" fill="#D9EBFF"/>
<path d="M49.3061 61.1046L49.7027 60.6089H47.6206L46.0342 63.3851L47.224 65.963L49.7027 67.7477L51.4874 67.0536L52.8755 65.4672C50.0002 66.7562 47.4223 63.4842 49.3061 61.1046Z" fill="#D9EBFF"/>
<path d="M81.2323 77.6629H77.8612C79.745 75.3824 80.3399 72.4079 79.4475 69.5326L75.8781 58.6261C74.9858 55.8499 72.7053 53.6686 69.83 52.9745L68.1444 52.5779C67.4504 51.5864 66.3597 50.9915 65.2691 50.7932V46.6289C65.2691 46.3314 65.1699 45.9348 64.8725 45.7365C64.6742 45.5382 64.2776 45.3399 63.9801 45.3399C63.2861 45.3399 62.6912 45.9348 62.6912 46.6289V50.694H61.0056L58.5269 50.0991C58.0311 50 57.6345 49.5042 57.5354 49.0085L56.9405 45.2408C59.3201 43.2578 60.9065 40.8782 61.5014 38.102H62.0963C62.2946 38.102 62.592 38.102 62.7903 38.0028V41.8697C62.7903 42.5637 63.3852 43.1586 64.0793 43.1586C64.7733 43.1586 65.3682 42.5637 65.3682 41.8697V28.4844C65.3682 24.915 63.9801 21.4448 61.4022 18.966C58.8243 16.4873 55.4532 15 51.8838 15H48.2153H48.1161C40.6799 15 34.7308 21.0482 34.7308 28.4844V29.8725C34.7308 31.4589 34.7308 32.4504 34.7308 50.7932C33.541 50.9915 32.5495 51.5864 31.8555 52.5779L30.1699 52.9745C27.2946 53.6686 25.0141 55.8499 24.1218 58.6261L20.5524 69.5326C19.66 72.3088 20.2549 75.3824 22.1388 77.6629H18.7677C16.7847 77.6629 15.0991 79.2493 15.0991 81.3314C15.0991 83.4136 16.6855 85 18.7677 85H81.2323C83.2153 85 84.9008 83.4136 84.9008 81.3314C84.9008 79.2493 83.2153 77.6629 81.2323 77.6629ZM62.7903 32.6487V35.0283C62.7903 35.4249 62.4929 35.6232 62.0963 35.6232H61.6997V31.9547H62.0963C62.4929 32.0538 62.7903 32.3513 62.7903 32.6487ZM45.5382 20.255C45.5382 18.7677 46.6289 17.5779 48.1161 17.5779H51.7847C54.7592 17.5779 57.4362 18.7677 59.5184 20.7507C61.6005 22.8329 62.6912 25.6091 62.6912 28.4844V29.4759H54.7592C49.7025 29.4759 45.5382 25.3116 45.5382 20.255ZM37.2096 32.7479C37.2096 32.3513 37.507 32.0538 37.9037 32.0538H38.3003V35.7224H37.9037C37.507 35.7224 37.2096 35.4249 37.2096 35.1275V32.7479ZM37.8045 38.2011H38.3994C38.8952 40.8782 40.4816 43.3569 42.9603 45.3399L42.4646 49.0085C42.3654 49.6034 41.9688 50 41.4731 50.0991L38.9943 50.694H37.2096V38.0028C37.4079 38.2011 37.6062 38.2011 37.8045 38.2011ZM44.9433 49.4051L45.3399 46.8272C46.9263 47.7195 48.711 48.2153 50 48.3144C51.2889 48.3144 52.9745 47.7195 54.66 46.8272L55.0566 49.4051C55.1558 49.9008 55.2549 50.3966 55.5524 50.7932H44.4476C44.745 50.3966 44.8442 49.9008 44.9433 49.4051ZM50 45.7365C48.711 45.7365 47.0255 44.9433 45.0425 43.6544L44.9433 43.5552C43.3569 42.3654 40.779 39.8867 40.779 36.0198V30.5666C40.779 30.3683 40.8782 30.17 40.9773 30.0708C41.0765 29.9717 41.2748 29.8725 41.4731 29.8725C43.1586 29.8725 44.745 28.9802 45.6374 27.4929C47.9178 30.2691 51.1898 31.8555 54.8583 31.8555H59.2209V35.9207C59.2209 39.7875 56.5439 42.2663 55.0566 43.4561C54.5609 44.051 52.1813 45.7365 50 45.7365ZM43.2578 18.7677C43.1586 19.2635 43.0595 19.7592 43.0595 20.255V20.3541C43.0595 21.8414 43.3569 23.3286 43.8527 24.7167V25.2125C43.8527 26.5014 42.762 27.5921 41.4731 27.5921C40.085 27.5921 38.8952 28.3853 38.4986 29.6742H37.9037C37.7054 29.6742 37.4079 29.6742 37.2096 29.7734V28.6827C37.2096 24.4193 39.4901 20.5524 43.2578 18.7677ZM32.1529 62.5921C32.847 62.5921 33.4419 61.9972 33.4419 61.3031V55.255C33.4419 54.1643 34.3342 53.2719 35.4249 53.2719H64.6742C65.7648 53.2719 66.6572 54.1643 66.6572 55.255V73.796H33.3427V66.0623C33.3427 65.3683 32.7478 64.7734 32.0538 64.7734C31.3597 64.7734 30.7648 65.3683 30.7648 66.0623V73.796H28.881C27.592 73.796 26.5014 74.8867 26.5014 76.1756C26.5014 76.6714 26.6005 77.1671 26.6997 77.6629H25.3116L23.9235 75.9773C22.6345 74.3909 22.1388 72.3088 22.8328 70.3258L26.4022 59.4193C27.0963 57.3371 28.5835 55.949 30.7648 55.3541V61.204C30.864 61.9972 31.4589 62.5921 32.1529 62.5921ZM29.1784 76.3739H70.8215C70.8215 76.8697 70.6232 77.2663 70.3257 77.6629H29.575C29.3767 77.2663 29.1784 76.8697 29.1784 76.3739ZM71.0198 73.796H69.1359V55.4533C71.3172 56.0482 72.9036 57.4363 73.4985 59.5184L77.068 70.4249C77.6629 72.4079 77.2662 74.4901 75.9773 76.0765L74.5892 77.762H73.2011C73.3002 77.2663 73.3994 76.7705 73.3994 76.2748C73.3994 74.8867 72.3087 73.796 71.0198 73.796ZM82.3229 81.3314C82.3229 81.9263 81.8272 82.4221 81.2323 82.4221H18.7677C18.1728 82.4221 17.677 81.9263 17.677 81.3314C17.677 80.7365 18.1728 80.2408 18.7677 80.2408H81.2323C81.8272 80.2408 82.3229 80.7365 82.3229 81.3314Z" fill="#61A1F4"/>
<path d="M50.0001 68.3426C52.578 68.3426 54.6602 66.2604 54.6602 63.6825C54.6602 61.1046 52.578 59.0225 50.0001 59.0225C47.4222 59.0225 45.3401 61.1046 45.3401 63.6825C45.3401 66.2604 47.4222 68.3426 50.0001 68.3426ZM50.0001 61.1046C51.4874 61.1046 52.578 62.2944 52.578 63.6825C52.578 65.1698 51.3882 66.2604 50.0001 66.2604C48.5129 66.2604 47.4222 65.0706 47.4222 63.6825C47.4222 62.2944 48.5129 61.1046 50.0001 61.1046Z" fill="#61A1F4"/>
<path class="st2" d="M27.3938 43.1584H28.5836V44.3482C28.5836 44.9431 29.0794 45.3397 29.5751 45.3397C30.0709 45.3397 30.5666 44.844 30.5666 44.3482V43.1584H31.7565C32.3514 43.1584 32.748 42.6627 32.748 42.1669C32.748 41.572 32.2522 41.1754 31.7565 41.1754H30.5666V39.9856C30.5666 39.3907 30.0709 38.9941 29.5751 38.9941C29.0794 38.9941 28.5836 39.4899 28.5836 39.9856V41.1754H27.3938C26.7989 41.1754 26.4023 41.6712 26.4023 42.1669C26.4023 42.7618 26.8981 43.1584 27.3938 43.1584Z" fill="#F29021"/>
<path class="st2" d="M19.3627 33.3424H20.8499V34.8296C20.8499 35.5237 21.4448 36.1186 22.1389 36.1186C22.8329 36.1186 23.4278 35.5237 23.4278 34.8296V33.3424H24.9151C25.6091 33.3424 26.204 32.7475 26.204 32.0534C26.204 31.3594 25.6091 30.7645 24.9151 30.7645H23.4278V29.2772C23.4278 28.5832 22.8329 27.9883 22.1389 27.9883C21.4448 27.9883 20.8499 28.5832 20.8499 29.2772V30.7645H19.3627C18.6686 30.7645 18.0737 31.3594 18.0737 32.0534C18.0737 32.8466 18.6686 33.3424 19.3627 33.3424Z" fill="#F29021"/>
<path class="st2" d="M29.7734 21.6423H30.4674V22.3364C30.4674 22.6338 30.7649 22.9313 31.0623 22.9313C31.3598 22.9313 31.6572 22.6338 31.6572 22.3364V21.6423H32.3513C32.6487 21.6423 32.9462 21.3449 32.9462 21.0474C32.9462 20.75 32.6487 20.4525 32.3513 20.4525H31.6572V19.7585C31.6572 19.461 31.3598 19.1636 31.0623 19.1636C30.7649 19.1636 30.4674 19.461 30.4674 19.7585V20.4525H29.7734C29.4759 20.4525 29.1785 20.75 29.1785 21.0474C29.1785 21.3449 29.4759 21.6423 29.7734 21.6423Z" fill="#F29021"/>
<path class="st2" d="M69.7309 28.8806H70.4249V29.5747C70.4249 29.8721 70.7224 30.1696 71.0198 30.1696C71.3173 30.1696 71.6147 29.8721 71.6147 29.5747V28.8806H72.3088C72.6062 28.8806 72.9037 28.5832 72.9037 28.2857C72.9037 27.9883 72.6062 27.6908 72.3088 27.6908H71.6147V26.9968C71.6147 26.6993 71.3173 26.4019 71.0198 26.4019C70.7224 26.4019 70.4249 26.6993 70.4249 26.9968V27.6908H69.7309C69.4334 27.6908 69.136 27.9883 69.136 28.2857C69.136 28.6823 69.3343 28.8806 69.7309 28.8806Z" fill="#F29021"/>
<path class="st2" d="M72.0113 43.1582H73.4986V44.6455C73.4986 45.3395 73.9943 45.8353 74.6884 45.8353C75.3824 45.8353 75.8782 45.3395 75.8782 44.6455V43.1582H77.3654C78.0595 43.1582 78.5552 42.6625 78.5552 41.9684C78.5552 41.2744 78.0595 40.7786 77.3654 40.7786H75.8782V39.2914C75.8782 38.5973 75.3824 38.1016 74.6884 38.1016C73.9943 38.1016 73.4986 38.5973 73.4986 39.2914V40.7786H72.0113C71.3173 40.7786 70.8215 41.2744 70.8215 41.9684C70.8215 42.6625 71.3173 43.1582 72.0113 43.1582Z" fill="#F29021"/>
</svg>
