<svg width="100" height="100" viewBox="0 0 100 100" fill="none" xmlns="http://www.w3.org/2000/svg">
<path d="M46.2013 25.0289L45.1883 24.3198L50.456 25.3328L53.5964 28.2706L50.7599 38.8061L43.8713 38.5022C50.0508 36.78 51.469 28.7771 46.2013 25.0289Z" fill="#D9EBFF"/>
<path d="M54.7106 75.5792C49.139 72.6415 50.3546 63.8281 50.3546 59.2695H53.9002L54.8119 68.5894L57.0406 73.4519L61.9031 72.9454L64.537 70.1089L68.893 61.9034L71.8307 60.4852L73.4516 60.7891C66.4617 78.6183 60.181 78.517 54.7106 75.5792Z" fill="#D9EBFF"/>
<path d="M26.6498 32.2214V19.7612L24.4211 21.4834V27.7641V36.4761L30.398 43.466L35.6657 45.6947L38.097 44.7829C28.5745 42.7569 26.5485 35.5644 26.6498 32.2214Z" fill="#D9EBFF"/>
<path d="M74.4645 58.8644C73.1475 58.2566 71.7293 58.1553 70.3111 58.6618C69.5006 58.9657 68.6902 59.4722 68.0824 60.08C67.5759 59.5735 67.0694 59.1683 66.3603 58.8644C65.0433 58.2566 63.6251 58.1553 62.2069 58.6618C60.8899 59.1683 59.7756 60.08 59.1678 61.397L55.5209 68.5894C55.4196 68.1842 55.3183 67.779 55.3183 67.2725V58.9657C55.3183 58.8644 55.3183 58.7631 55.3183 58.7631V47.3159C63.2199 46.6068 69.5006 39.9208 69.5006 31.8167V22.4968C69.5006 19.863 67.3733 17.8369 64.8407 17.8369C62.2069 17.8369 60.1808 19.9643 60.1808 22.4968V31.8167C60.1808 35.1596 57.4457 37.8948 54.1027 37.8948H52.2792C53.6975 36.3753 54.6092 34.2479 54.6092 32.0193V31.1075C54.6092 26.3463 50.7597 22.3955 45.8972 22.3955C41.136 22.3955 37.1852 26.245 37.1852 31.1075V32.0193C37.1852 34.3492 38.0969 36.3753 39.5151 37.8948H37.6917C34.3487 37.8948 31.6135 35.1596 31.6135 31.8167V22.4968C31.6135 19.863 29.4862 17.8369 26.9536 17.8369C24.4211 17.8369 22.2937 19.9643 22.2937 22.4968V31.8167C22.2937 39.9208 28.5745 46.6068 36.476 47.3159V58.7631V67.2725C36.476 67.6777 36.476 68.0829 36.476 68.3868C36.5773 69.096 37.0839 69.6025 37.793 69.6025H37.8943C38.6034 69.5012 39.2112 68.8934 39.1099 68.1842C39.1099 67.8803 39.1099 67.5764 39.1099 67.2725V60.08H52.4818V67.2725C52.4818 71.122 55.6222 74.1611 59.3704 74.1611C62.0043 74.1611 64.4355 72.6415 65.6512 70.2103L69.5006 62.6126C69.8046 62.0048 70.3111 61.4983 71.0202 61.1944C71.7293 60.9918 72.4384 60.9918 73.0462 61.2957C74.3632 61.9035 74.971 63.5243 74.3632 64.8413L70.5137 72.4389C68.4876 76.6936 64.1316 79.4288 59.3704 79.4288C52.5831 79.4288 47.1128 73.9585 47.1128 67.1712V66.4621C47.1128 65.753 46.505 65.1452 45.7959 65.1452C45.0868 65.1452 44.4789 65.753 44.4789 66.4621V67.2725C44.4789 72.3376 47.0115 76.7949 50.861 79.5301C48.3284 79.4288 45.8972 78.5171 43.8711 76.8962C43.2633 76.3897 42.4529 76.491 41.9464 77.0988C41.4399 77.7067 41.5412 78.5171 42.149 79.0236C44.7828 81.1509 48.0245 82.2653 51.4688 82.2653C52.7857 82.2653 54.204 82.0627 55.4196 81.7588C56.7365 82.164 58.0535 82.2653 59.4717 82.2653C65.2459 82.2653 70.5137 78.9223 73.0462 73.6546L76.8957 66.0569C78.314 63.3217 77.1996 60.08 74.4645 58.8644ZM40.0216 32.0193V31.1075C40.0216 27.8659 42.6555 25.1307 45.9985 25.1307C49.2402 25.1307 51.9753 27.7646 51.9753 31.1075V32.0193C51.9753 35.0583 49.6454 37.6922 46.6063 37.8948H45.492C42.4529 37.6922 40.0216 35.0583 40.0216 32.0193ZM25.1302 31.8167V22.4968C25.1302 21.3825 26.0419 20.5721 27.0549 20.5721C28.0679 20.5721 28.9797 21.4838 28.9797 22.4968V31.8167C28.9797 36.6792 32.9305 40.63 37.793 40.63H45.2894C45.492 40.63 45.6946 40.63 45.8972 40.63C46.0998 40.63 46.3024 40.63 46.505 40.63H54.0014C58.8639 40.63 62.8147 36.6792 62.8147 31.8167V22.4968C62.8147 21.3825 63.7264 20.5721 64.7394 20.5721C65.8538 20.5721 66.6642 21.4838 66.6642 22.4968V31.8167C66.6642 38.9078 60.8899 44.5808 53.9001 44.5808C53.191 44.5808 52.5831 45.1886 52.5831 45.8977V57.2436H39.3125V45.999C39.3125 45.2899 38.7047 44.6821 37.9956 44.6821H37.8943C30.8031 44.5808 25.1302 38.9078 25.1302 31.8167ZM63.4225 68.9947C62.7134 70.5142 61.1938 71.4259 59.573 71.4259C58.7626 71.4259 58.0535 71.2233 57.4457 70.8181C57.547 70.6155 57.6483 70.4129 57.7496 70.2103L61.5991 62.6126C61.903 62.0048 62.4095 61.4983 63.1186 61.1944C63.8277 60.9918 64.5368 60.9918 65.1446 61.2957C65.7525 61.5996 66.259 62.1061 66.4616 62.7139L63.4225 68.9947Z" fill="#61A1F4"/>
<path d="M40.7308 73.0465C40.3256 72.3374 39.5152 72.1348 38.9074 72.54C38.1983 72.9452 37.9956 73.7557 38.4009 74.3635C38.6035 74.87 39.11 75.0726 39.6165 75.0726C39.8191 75.0726 40.0217 74.9713 40.2243 74.87C40.9334 74.5661 41.136 73.7556 40.7308 73.0465Z" fill="#61A1F4"/>
<path class="st2" d="M21.7871 71.4258C21.078 71.4258 20.4702 72.0336 20.4702 72.7427V74.6675C20.4702 75.3766 21.078 75.9844 21.7871 75.9844C22.4963 75.9844 23.1041 75.3766 23.1041 74.6675V72.7427C23.2054 72.0336 22.5976 71.4258 21.7871 71.4258Z" fill="#F29021"/>
<path class="st2" d="M21.7871 80.4414C21.078 80.4414 20.4702 81.0492 20.4702 81.7583V83.6831C20.4702 84.3922 21.078 85 21.7871 85C22.4963 85 23.1041 84.3922 23.1041 83.6831V81.7583C23.2054 81.0492 22.5976 80.4414 21.7871 80.4414Z" fill="#F29021"/>
<path class="st2" d="M27.2575 76.896H25.3328C24.6237 76.896 24.0159 77.5038 24.0159 78.2129C24.0159 78.922 24.6237 79.5299 25.3328 79.5299H27.2575C27.9667 79.5299 28.5745 78.922 28.5745 78.2129C28.5745 77.5038 28.068 76.896 27.2575 76.896Z" fill="#F29021"/>
<path class="st2" d="M18.2417 76.896H16.3169C15.6078 76.896 15 77.5038 15 78.2129C15 78.922 15.6078 79.5299 16.3169 79.5299H18.2417C18.9508 79.5299 19.5586 78.922 19.5586 78.2129C19.5586 77.5038 18.9508 76.896 18.2417 76.896Z" fill="#F29021"/>
<path class="st2" d="M78.1114 15C77.4023 15 76.7944 15.6078 76.7944 16.3169V18.2417C76.7944 18.9508 77.4023 19.5586 78.1114 19.5586C78.8205 19.5586 79.4283 18.9508 79.4283 18.2417V16.3169C79.5296 15.6078 78.9218 15 78.1114 15Z" fill="#F29021"/>
<path class="st2" d="M78.1114 24.1172C77.4023 24.1172 76.7944 24.725 76.7944 25.4341V27.3589C76.7944 28.068 77.4023 28.6758 78.1114 28.6758C78.8205 28.6758 79.4283 28.068 79.4283 27.3589V25.4341C79.5296 24.725 78.9218 24.1172 78.1114 24.1172Z" fill="#F29021"/>
<path class="st2" d="M83.5818 20.4702H81.657C80.9479 20.4702 80.3401 21.078 80.3401 21.7871C80.3401 22.4963 80.9479 23.1041 81.657 23.1041H83.5818C84.2909 23.1041 84.8987 22.4963 84.8987 21.7871C85 21.078 84.3922 20.4702 83.5818 20.4702Z" fill="#F29021"/>
<path class="st2" d="M72.6412 23.2056H74.5659C75.275 23.2056 75.8828 22.5978 75.8828 21.8887C75.8828 21.1796 75.275 20.5718 74.5659 20.5718H72.6412C71.932 20.5718 71.3242 21.1796 71.3242 21.8887C71.3242 22.5978 71.932 23.2056 72.6412 23.2056Z" fill="#F29021"/>
</svg>
