<svg width="100" height="100" viewBox="0 0 100 100" fill="none" xmlns="http://www.w3.org/2000/svg">
<path d="M52.8474 29.2476C52.8474 29.2476 61.5436 33.9446 60.5906 40.6379L64.0452 42.2819L66.666 51.0889L68.8102 54.4943L69.8824 53.2026V44.6304V39.6985L65.9512 33.9446L59.5184 30.0695L52.8474 29.2476Z" fill="#D9EBFF"/>
<path d="M60.1139 43.6908C60.1139 43.6908 66.6658 73.752 53.6812 83.2636L59.0418 81.1499L61.7817 76.218L63.926 74.3392L66.3085 65.6496H68.9292L70.4779 62.1268C70.4779 62.1268 71.3117 57.0775 71.3117 56.4903C71.3117 55.9032 68.9292 54.4941 68.9292 54.4941H66.785L63.4495 41.3423L60.1139 43.6908Z" fill="#D9EBFF"/>
<path fill-rule="evenodd" clip-rule="evenodd" d="M47.844 27.2508C39.9817 28.1902 34.1446 31.8304 31.2855 37.5843C29.856 40.4026 29.7369 40.9897 29.856 46.2739C29.9752 48.8573 30.0943 51.3233 30.2134 52.1452L30.4517 53.4369L29.856 54.0241C29.1413 54.7286 28.7839 55.5506 28.6648 57.6643C28.4265 62.5962 30.4517 66.8236 33.3107 67.4107C33.7872 67.5281 33.9063 67.6456 34.0254 68.585C34.5019 71.9903 35.9314 75.0434 38.5522 77.7442L39.3861 78.5662L39.1478 79.6231C38.9096 80.5625 38.4331 81.5019 37.4801 82.7936C36.8844 83.6156 36.8844 83.9679 37.5992 84.6724C38.7905 85.8467 40.1008 84.9073 41.7686 81.3845C41.7686 81.3845 42.3642 81.8542 43.079 82.5587C45.1041 84.555 47.0101 85.1421 50.9413 85.1421C54.8724 85.1421 56.7784 84.4376 58.8035 82.5587C59.3992 81.8542 59.9948 81.3845 59.9948 81.3845C59.9948 81.3845 60.2331 81.9716 60.5904 82.5587C61.1861 83.8504 62.3773 85.0247 63.0921 85.0247C63.6877 85.0247 64.6407 84.2027 64.6407 83.6156C64.6407 83.2633 64.1642 82.3239 63.8068 82.089C63.3303 81.7367 62.6156 80.3276 62.3773 79.2708L62.1391 78.4488L62.9729 77.6268C65.5937 74.926 67.0232 71.8729 67.4997 68.4675C67.6188 67.5281 67.6188 67.4107 68.2145 67.2933C71.0735 66.7061 73.0986 62.4788 72.8604 57.5469C72.7412 55.4332 72.503 54.6112 71.6691 53.9066L71.1926 53.3195L71.4309 52.0278C71.55 51.3233 71.6691 48.7399 71.7882 46.1565C71.9074 41.1071 71.7882 40.4026 70.7161 37.9366C68.2145 32.6524 63.0921 28.8948 56.421 27.6031C54.6342 27.3682 49.5118 27.0159 47.844 27.2508ZM54.515 30.3039C60.2331 31.1259 64.9981 34.0615 67.4997 38.1715C68.8101 40.2851 68.9292 41.1071 68.9292 44.8648C68.9292 48.0353 68.691 51.4407 68.4527 52.3801C68.3336 52.9672 68.3336 52.9672 67.9762 52.0278C67.8571 51.5581 67.3806 49.5618 66.9041 47.5656C65.7128 42.2814 65.2363 41.1071 63.9259 40.52C63.4494 40.2851 62.9729 40.2851 60.5904 40.6374C56.6593 41.2246 51.1795 41.4594 48.6779 41.2246C46.891 40.9897 46.0571 40.8723 41.8877 39.8154C39.8626 39.3457 38.5522 39.3457 37.8374 39.9329C36.6462 40.9897 36.0506 42.3988 34.6211 48.2702C34.0254 50.5013 33.5489 52.3801 33.4298 52.6149C33.0724 53.2021 32.8342 50.6187 32.715 46.1565C32.5959 41.9291 32.5959 41.6943 33.0724 40.52C34.5019 36.1752 38.7904 32.535 44.032 30.891C47.1292 30.069 51.0604 29.8342 54.515 30.3039ZM42.9598 43.1034C47.0101 44.2777 49.5118 44.5125 54.3959 44.1602C57.8505 43.9254 59.1609 43.8079 62.2582 43.3382C62.7347 43.2208 62.7347 43.3382 63.0921 44.6299C63.3303 45.4519 63.6877 47.2133 64.0451 48.7399C64.9981 53.3195 65.832 55.3158 67.0232 56.0203C67.738 56.49 68.8101 56.6074 69.4057 56.2552C69.7631 56.1377 69.7631 56.1377 69.8822 56.7249C70.0014 57.0772 70.0014 58.134 69.8822 59.0734C69.644 62.4788 68.0953 65.297 67.1423 64.1228C67.1423 64.0053 66.6658 63.8879 66.3085 63.8879C65.3555 63.8879 64.879 64.475 64.879 65.8841C64.879 68.2327 64.0451 71.2858 62.9729 73.0472C62.2582 74.2214 58.8035 78.214 56.7784 80.2102C54.9915 81.9716 54.515 82.089 50.8221 82.089C47.1292 82.089 46.6527 81.9716 44.8659 80.2102C42.8407 78.214 39.3861 74.2214 38.6713 73.0472C37.5992 71.2858 36.7653 68.3501 36.7653 65.7667C36.7653 64.475 36.2888 63.8879 35.3358 63.8879C34.9784 63.8879 34.5019 64.0053 34.3828 64.1228C33.4298 65.297 31.8812 62.4788 31.6429 59.0734C31.5238 58.134 31.6429 57.0772 31.6429 56.7249C31.762 56.1377 31.762 56.1377 32.1194 56.2552C32.715 56.6074 33.7872 56.49 34.5019 56.1377C35.6932 55.4332 36.4079 53.6718 38.0757 46.9785C38.9096 43.3382 39.3861 42.3988 39.8626 42.3988C40.1008 42.2814 41.5303 42.6337 42.9598 43.1034Z" fill="#61A1F4"/>
<path class="st3" d="M15.395 26.3866C15.3232 26.245 15.3591 25.9619 15.4309 25.7495C15.5027 25.5371 15.7182 25.2539 15.8618 25.1831C16.5081 24.8645 16.6877 25.0415 18.8782 27.4129C20.0274 28.6163 20.9969 29.6428 20.9969 29.6428C21.1047 29.6782 21.6074 29.0764 22.1459 28.3684C22.6845 27.6605 23.259 27.0233 23.4027 26.9525C23.9772 26.6693 24.2645 26.8817 26.6705 29.3239C27.9633 30.6335 29.0765 31.7661 29.1483 31.9077C29.3279 32.2617 29.0406 32.9342 28.6816 33.1112C28.0352 33.4298 27.8557 33.2528 25.8088 31.3415C24.7674 30.3505 23.8696 29.4656 23.7978 29.501C23.726 29.5364 23.2233 30.1382 22.6847 30.8462C22.1461 31.5541 21.5716 32.1913 21.428 32.2621C20.8535 32.5453 20.6021 32.4037 17.9447 29.466C16.616 27.9086 15.4669 26.5282 15.395 26.3866Z" fill="#F29021"/>
<path class="st3" d="M23.3559 17.204C23.3336 17.0472 23.4591 16.7901 23.5958 16.6113C23.7326 16.4326 24.0283 16.2318 24.1873 16.2098C24.903 16.1108 25.016 16.335 26.3257 19.2709C27.026 20.7725 27.6132 22.05 27.6132 22.05C27.7039 22.1174 28.3749 21.7049 29.1143 21.203C29.8536 20.7011 30.6041 20.2776 30.7632 20.2556C31.3993 20.1676 31.603 20.4591 33.0941 23.5298C33.8961 25.1772 34.5852 26.6004 34.6075 26.7572C34.6633 27.1491 34.1737 27.6964 33.7761 27.7514C33.0604 27.8503 32.9475 27.6262 31.6251 25.1716C30.9583 23.9051 30.3934 22.7844 30.3139 22.7954C30.2344 22.8064 29.5634 23.2189 28.824 23.7208C28.0846 24.2227 27.3341 24.6462 27.1751 24.6682C26.539 24.7561 26.3465 24.543 24.7772 20.9237C24.0212 19.0301 23.3782 17.3607 23.3559 17.204Z" fill="#F29021"/>
<path class="st3" d="M77.8316 17.204C77.8539 17.0472 77.7284 16.7901 77.5917 16.6113C77.4549 16.4326 77.1592 16.2318 77.0002 16.2098C76.2845 16.1108 76.1715 16.335 74.8618 19.2709C74.1615 20.7725 73.5743 22.05 73.5743 22.05C73.4836 22.1174 72.8126 21.7049 72.0732 21.203C71.3339 20.7011 70.5834 20.2776 70.4243 20.2556C69.7882 20.1676 69.5845 20.4591 68.0934 23.5298C67.2914 25.1772 66.6023 26.6004 66.58 26.7572C66.5242 27.1491 67.0138 27.6964 67.4114 27.7514C68.1271 27.8503 68.24 27.6262 69.5624 25.1716C70.2292 23.9051 70.7941 22.7844 70.8736 22.7954C70.9531 22.8064 71.6241 23.2189 72.3635 23.7208C73.1029 24.2227 73.8534 24.6462 74.0124 24.6682C74.6485 24.7561 74.841 24.543 76.4103 20.9237C77.1663 19.0301 77.8093 17.3607 77.8316 17.204Z" fill="#F29021"/>
<path class="st3" d="M84.7219 26.3866C84.7937 26.245 84.7578 25.9619 84.686 25.7495C84.6142 25.5371 84.3988 25.2539 84.2552 25.1831C83.6088 24.8645 83.4293 25.0415 81.2387 27.4129C80.0896 28.6163 79.12 29.6428 79.12 29.6428C79.0123 29.6782 78.5096 29.0764 77.971 28.3684C77.4324 27.6605 76.8579 27.0233 76.7143 26.9525C76.1398 26.6693 75.8525 26.8817 73.4465 29.3239C72.1537 30.6335 71.0405 31.7661 70.9686 31.9077C70.7891 32.2617 71.0763 32.9342 71.4354 33.1112C72.0817 33.4298 72.2613 33.2528 74.3082 31.3415C75.3496 30.3505 76.2473 29.4656 76.3191 29.501C76.391 29.5364 76.8936 30.1382 77.4322 30.8462C77.9708 31.5541 78.5453 32.1913 78.689 32.2621C79.2635 32.5453 79.5148 32.4037 82.1722 29.466C83.5009 27.9086 84.6501 26.5282 84.7219 26.3866Z" fill="#F29021"/>
</svg>
