<svg width="100" height="100" viewBox="0 0 100 100" fill="none" xmlns="http://www.w3.org/2000/svg">
<path fill-rule="evenodd" clip-rule="evenodd" d="M59.9112 63.9165C59.9112 63.9165 57.9945 77.6982 60.6413 83.3569H66.2088L64.5659 80.8927L62.7405 74.23V68.7538L64.1096 63.9165H59.9112Z" fill="#D9EBFF"/>
<path fill-rule="evenodd" clip-rule="evenodd" d="M65.0226 48.9492C65.0226 48.9492 67.1218 62.0921 63.471 63.0048C59.8202 63.9174 65.2964 63.9174 65.2964 63.9174L67.3044 63.5524L67.6694 62.1833L68.0345 48.9492H65.0226Z" fill="#D9EBFF"/>
<path fill-rule="evenodd" clip-rule="evenodd" d="M49.6894 33.6162C49.6894 33.6162 51.3323 45.1162 49.2331 45.5725C47.1339 46.1202 49.7807 48.9495 49.7807 48.9495H53.614L53.9791 43.7471L56.2608 43.8384L57.3561 42.7432L56.7172 40.0051L55.8957 38.636L54.1616 38.8186L53.3402 33.6162H49.6894V33.6162Z" fill="#D9EBFF"/>
<path fill-rule="evenodd" clip-rule="evenodd" d="M47.0425 25.036C46.8599 25.036 45.856 25.1273 44.9433 25.3098C41.5663 25.6749 37.0941 26.5876 34.8123 27.3178C33.2608 27.8654 31.4354 28.6868 30.3401 29.417C27.0544 31.6074 24.5901 35.532 23.4036 40.3693C23.0386 41.8296 22.856 42.4685 22.1259 44.1114C21.1219 46.3931 21.2132 47.2145 22.7648 48.7661C23.3124 49.3137 23.6774 49.7701 23.6774 49.9526C23.6774 50.0439 23.4036 50.5915 23.1298 51.2304C22.1259 53.2383 20.6655 55.5201 19.114 57.528C18.11 58.8058 17.9275 59.1709 17.8362 59.8098C17.6536 60.8137 18.4751 61.909 20.0267 62.7304C21.2132 63.3693 21.487 63.6431 21.487 64.0082C21.487 64.1907 21.2132 64.8296 20.9394 65.4685C20.5743 66.1986 20.3917 66.655 20.3917 67.0201C20.3917 67.4764 20.3917 67.5677 21.0306 68.2066C21.6695 68.7542 21.6695 68.8455 21.5782 69.1193C21.487 69.3018 21.487 69.6669 21.487 69.9407C21.487 70.6709 21.7608 70.9447 22.7648 71.6748L23.5862 72.2224L23.4949 73.0439C23.3124 75.5994 23.3124 75.782 23.4949 76.5121C24.0425 78.5201 25.229 79.6153 26.9632 79.7978C27.6933 79.7978 28.0584 79.7978 29.7925 79.3415C30.8878 79.0677 32.8957 78.4288 34.0822 78.0637L36.3639 77.3335L36.729 77.6073C38.0068 78.52 39.4671 81.0756 40.1973 83.5399C40.3798 84.0875 40.5623 84.5439 40.7449 84.7264L41.0187 85.0002L54.0703 84.7264L66.9393 84.6351L67.2131 84.3613C67.7607 83.8137 67.5782 83.2661 66.3917 81.2581C64.9313 78.9764 63.8361 75.0518 63.5623 71.1272C63.3798 69.2105 63.6536 66.655 64.1099 65.1947L64.2012 64.8296H65.9353C67.852 64.8296 68.0345 64.7383 68.7647 64.0082C68.9472 63.8256 69.221 63.4606 69.4036 63.1867L69.6774 62.7304V48.4923L69.4036 48.2185C69.1298 47.9447 69.0385 47.9447 66.9393 47.9447H64.7488V47.3971C64.7488 46.2106 63.9274 44.9328 62.8321 44.3852C61.9194 43.9288 60.7329 43.9288 59.9115 44.2939C58.725 44.8415 57.9036 46.1193 57.9036 47.3058V47.9447H55.8956C55.348 47.9447 54.9829 47.4884 54.9829 47.032V45.0241H55.6218C56.8083 45.0241 58.0861 44.2026 58.6337 43.0161C58.9988 42.1947 58.9988 40.9169 58.5425 40.0955C57.9948 39.0003 56.7171 38.1788 55.4393 38.1788H54.8917V35.9884C54.8917 33.8892 54.8004 33.7979 54.6179 33.5241L54.3441 33.2503H40.106L39.4671 33.159C38.8282 33.5241 38.2806 34.0717 38.0068 34.6193C37.8243 35.0757 37.8242 35.8058 37.8242 48.7661V62.1828C37.8242 62.3653 37.8242 62.4566 37.9155 62.5479C38.4631 63.7344 39.6496 64.5558 41.0187 64.5558C42.3877 64.5558 45.0346 64.5558 51.1496 64.5558C61.5544 64.5558 62.1933 64.5558 62.102 64.7383C61.9194 65.3772 61.6456 66.8375 61.5544 68.1153C61.1893 72.0399 62.5583 78.4288 64.3837 81.532C64.6575 81.9883 64.8401 82.3534 64.7488 82.4446C64.7488 82.4446 59.6377 82.5359 53.5226 82.5359L42.2965 82.6272L42.1139 81.897C41.6576 80.3454 40.3798 78.0637 39.2846 76.7859C39.0108 76.5121 38.8282 76.2383 38.8282 76.147C38.8282 76.147 39.7409 75.782 40.7449 75.4169C41.7488 75.0518 43.0266 74.5954 43.483 74.4129C45.9473 73.2264 47.3163 71.5836 47.4076 69.8494C47.4076 69.3931 47.4076 69.2105 47.1338 68.9367C46.4949 68.2978 45.5822 68.6629 45.3996 69.6669C45.3996 69.9407 45.2171 70.397 45.1258 70.5796C44.852 71.1272 43.848 71.9486 42.8441 72.4963C40.9274 73.4089 30.4314 76.8772 27.9671 77.4248C25.9592 77.7899 25.0465 76.3296 25.5028 73.5915C25.6854 72.6788 25.6854 72.405 25.5941 71.8574C25.4116 71.0359 24.9552 70.397 24.1338 69.8494C23.86 69.6669 23.5862 69.4843 23.5862 69.3931C23.5862 69.3018 23.6774 69.1193 23.7687 69.028C24.0425 68.6629 24.0425 68.024 23.86 67.7502C23.7687 67.659 23.0386 67.0201 22.4909 66.655C22.4909 66.655 22.6735 66.1986 22.856 65.7423C23.9513 63.6431 23.4036 62.0915 21.3044 60.9963C20.483 60.6312 19.6616 59.9923 19.6616 59.8098C19.6616 59.7185 20.2092 58.9883 20.8481 58.1669C22.3997 56.0677 23.6774 53.9685 24.6814 51.9606C25.3203 50.6828 25.5028 50.2264 25.5028 49.7701C25.5028 48.9487 25.0465 48.1272 24.1338 47.2145C23.4949 46.5757 23.3124 46.3931 23.3124 46.1193C23.3124 45.9368 23.4949 45.2979 23.86 44.659C24.4076 43.2899 24.864 41.9209 25.229 40.5519C26.0505 37.2661 27.237 35.0757 29.2449 32.7027C30.6139 31.1511 32.7131 29.8733 35.36 29.0519C38.4631 28.0479 45.6734 26.8614 48.9592 26.8614C52.0623 26.8614 55.6218 27.7741 58.5425 29.2344C59.1814 29.5082 59.9115 29.1431 59.9115 28.413V27.7741L59.5464 27.5003C57.4472 26.4051 54.9829 25.6749 52.6099 25.2185C51.606 25.036 47.8639 24.9447 47.0425 25.036ZM53.0663 40.0955C52.7925 39.913 52.7925 39.8217 52.7012 37.3574V35.8058C52.7012 35.2582 52.2449 34.8931 51.7885 34.8931H46.6774C43.3917 34.8931 40.5623 34.8931 40.4711 34.8931C40.3798 34.8931 40.1973 35.0757 40.0147 35.1669L39.7409 35.4408V46.8495C39.7409 47.3971 40.1973 47.7622 40.6536 47.7622H42.6615V47.1233C42.6615 45.9368 43.483 44.659 44.6695 44.1114C45.4909 43.7463 46.7687 43.7463 47.5901 44.2026C48.6853 44.7503 49.4155 45.7542 49.5068 47.032L49.598 47.7622H51.606C52.1536 47.7622 52.5187 47.3058 52.5187 46.8495V45.3892C52.5187 43.0161 52.5187 42.9249 52.7925 42.7423C53.1576 42.3772 53.5226 42.286 53.979 42.5598C54.8917 43.0161 55.6218 43.0161 56.0782 42.3772C56.7171 41.6471 56.5345 40.6431 55.7131 40.1868C55.1655 39.913 54.8004 39.913 54.2528 40.1868C53.8877 40.4606 53.4314 40.4606 53.0663 40.0955ZM47.7726 47.3971C47.7726 46.9407 47.4988 46.3931 47.1338 46.1193C46.6774 45.8455 46.1298 45.7542 45.6734 46.028C44.852 46.4844 44.5782 47.3058 45.0346 48.2185C45.3084 48.7661 45.3084 49.0399 44.852 49.4963C44.5782 49.7701 44.5782 49.7701 42.2052 49.7701H40.7449C40.1973 49.7701 39.8322 50.2264 39.8322 50.6828V62.1828L40.3798 62.7304H51.7885C52.3361 62.7304 52.7925 62.274 52.7012 61.7264V59.8098H52.0623C50.6933 59.7185 49.4155 58.8058 49.0504 57.528C48.3203 55.2463 49.7806 53.0558 52.0623 52.8733L52.7925 52.782V50.7741C52.7925 50.2264 52.3361 49.8614 51.8798 49.8614H50.3282C47.8639 49.7701 47.8639 49.7701 47.5901 49.4963C47.3163 49.1312 47.3163 48.6749 47.5901 48.1272C47.5901 47.8534 47.7726 47.5796 47.7726 47.3971ZM62.7409 47.3971C62.7409 46.9407 62.4671 46.3931 62.102 46.1193C61.4631 45.663 60.5504 45.8455 60.094 46.4844C59.729 47.032 59.6377 47.3971 60.0028 48.1272C60.3679 48.8574 60.2766 49.1312 59.9115 49.4963C59.6377 49.7701 59.6377 49.7701 57.2647 49.7701H55.8044C55.2568 49.7701 54.8917 50.2264 54.8917 50.6828V52.1431C54.8917 54.5161 54.8917 54.6074 54.6179 54.8812C54.2528 55.2463 53.7964 55.2463 53.1576 54.9725C52.4274 54.6074 51.8798 54.6987 51.3322 55.2463C50.9671 55.6114 50.9671 55.7939 50.9671 56.2502C50.9671 56.9804 51.3322 57.528 52.0623 57.7106C52.4274 57.8018 52.6099 57.8018 53.1576 57.528C53.8877 57.1629 54.3441 57.2542 54.7091 57.6193C54.8917 57.8018 54.8917 58.0756 54.9829 60.2661V61.7264C54.9829 62.274 55.4393 62.6391 55.8956 62.6391H67.3044L67.852 62.0915V50.7741C67.852 50.2264 67.3956 49.8614 66.9393 49.8614H65.3877C62.9234 49.7701 62.9234 49.7701 62.6496 49.4963C62.3758 49.1312 62.3758 48.6749 62.6496 48.1272C62.5583 47.8534 62.7409 47.5796 62.7409 47.3971Z" fill="#61A1F4"/>
<path fill-rule="evenodd" clip-rule="evenodd" d="M34.8123 27.3178C37.0941 26.5876 41.5663 25.6749 44.9433 25.3098C45.856 25.1273 46.8599 25.036 47.0425 25.036C47.8639 24.9447 51.606 25.036 52.6099 25.2185C54.9829 25.6749 57.4472 26.4051 59.5464 27.5003L59.9115 27.7741V28.413C59.9115 29.1431 59.1814 29.5082 58.5425 29.2344C55.6218 27.7741 52.0623 26.8614 48.9592 26.8614C45.6734 26.8614 38.4631 28.0479 35.36 29.0519C32.7131 29.8733 30.6139 31.1511 29.2449 32.7027C27.237 35.0757 26.0505 37.2661 25.229 40.5519C24.864 41.9209 24.4076 43.2899 23.86 44.659C23.4949 45.2979 23.3124 45.9368 23.3124 46.1193C23.3124 46.3931 23.4949 46.5757 24.1338 47.2145C25.0465 48.1272 25.5028 48.9487 25.5028 49.7701C25.5028 50.2264 25.3203 50.6828 24.6814 51.9606C23.6774 53.9685 22.3997 56.0677 20.8481 58.1669C20.2092 58.9883 19.6616 59.7185 19.6616 59.8098C19.6616 59.9923 20.483 60.6312 21.3044 60.9963C23.4036 62.0915 23.9513 63.6431 22.856 65.7423L22.4909 66.655C23.0386 67.0201 23.7687 67.659 23.86 67.7502C24.0425 68.024 24.0425 68.6629 23.7687 69.028C23.6774 69.1193 23.5862 69.3018 23.5862 69.3931C23.5862 69.4843 23.86 69.6669 24.1338 69.8494C24.9552 70.397 25.4116 71.0359 25.5941 71.8574C25.6854 72.405 25.6854 72.6788 25.5028 73.5915C25.0465 76.3296 25.9592 77.7899 27.9671 77.4248C30.4314 76.8772 40.9274 73.4089 42.8441 72.4963C43.848 71.9486 44.852 71.1272 45.1258 70.5796C45.2171 70.397 45.3996 69.9407 45.3996 69.6669C45.5822 68.6629 46.4949 68.2978 47.1338 68.9367C47.4076 69.2105 47.4076 69.3931 47.4076 69.8494C47.3163 71.5836 45.9473 73.2264 43.483 74.4129C43.1407 74.5498 42.3364 74.8407 41.5321 75.1316C41.264 75.2286 40.9959 75.3256 40.7449 75.4169C39.7409 75.782 38.8282 76.147 38.8282 76.147C38.8282 76.178 38.8493 76.2301 38.8878 76.2961C38.9088 76.3321 38.935 76.3721 38.9658 76.4151C39.0449 76.5257 39.1544 76.6558 39.2846 76.7859C40.3798 78.0637 41.6576 80.3454 42.1139 81.897L42.2965 82.6272L53.5226 82.5359C59.6377 82.5359 64.7488 82.4446 64.7488 82.4446C64.7832 82.4102 64.7787 82.3368 64.745 82.2343C64.7359 82.2067 64.7247 82.1769 64.7116 82.1453C64.6443 81.9828 64.5264 81.7698 64.3837 81.532C62.5583 78.4288 61.1893 72.0399 61.5544 68.1153C61.6456 66.8375 61.9194 65.3772 62.102 64.7383C62.1249 64.6926 62.1018 64.6583 61.8905 64.6326C61.8702 64.6301 61.8483 64.6277 61.8245 64.6254C61.824 64.6254 61.8236 64.6253 61.8231 64.6253C61.102 64.5558 58.6904 64.5558 51.1496 64.5558H41.0187C39.6496 64.5558 38.4631 63.7344 37.9155 62.5479C37.8242 62.4566 37.8242 62.3653 37.8242 62.1828V48.7661C37.8242 35.8058 37.8243 35.0757 38.0068 34.6193C38.2806 34.0717 38.8282 33.5241 39.4671 33.159L40.106 33.2503H54.3441L54.6179 33.5241C54.6217 33.5299 54.6255 33.5355 54.6293 33.5412C54.8042 33.8026 54.8917 33.9334 54.8917 35.9884V38.1788H55.4393C56.7171 38.1788 57.9948 39.0003 58.5425 40.0955C58.9988 40.9169 58.9988 42.1947 58.6337 43.0161C58.0861 44.2026 56.8083 45.0241 55.6218 45.0241H54.9829V47.032C54.9829 47.4884 55.348 47.9447 55.8956 47.9447H57.9036V47.3058C57.9036 46.1193 58.725 44.8415 59.9115 44.2939C60.7329 43.9288 61.9194 43.9288 62.8321 44.3852C63.9274 44.9328 64.7488 46.2106 64.7488 47.3971V47.9447H66.9393C69.0385 47.9447 69.1298 47.9447 69.4036 48.2185L69.6774 48.4923V62.7304L69.4036 63.1867C69.221 63.4606 68.9472 63.8256 68.7647 64.0082C68.0345 64.7383 67.852 64.8296 65.9353 64.8296H64.2012L64.1099 65.1947C63.6536 66.655 63.3798 69.2105 63.5623 71.1272C63.8361 75.0518 64.9313 78.9764 66.3917 81.2581C67.5782 83.2661 67.7607 83.8137 67.2131 84.3613L66.9393 84.6351L54.0703 84.7264L41.0187 85.0002L40.7449 84.7264C40.5623 84.5439 40.3798 84.0875 40.1973 83.5399C39.4671 81.0756 38.0068 78.52 36.729 77.6073L36.3639 77.3335L34.0822 78.0637C33.8614 78.1316 33.6121 78.2091 33.3455 78.2919C32.1799 78.6539 30.6839 79.1186 29.7925 79.3415C28.0584 79.7978 27.6933 79.7978 26.9632 79.7978C25.229 79.6153 24.0425 78.5201 23.4949 76.5121C23.3124 75.782 23.3124 75.5994 23.4949 73.0439L23.5862 72.2224L22.7648 71.6748C21.7608 70.9447 21.487 70.6709 21.487 69.9407C21.487 69.6669 21.487 69.3018 21.5782 69.1193C21.6695 68.8455 21.6695 68.7542 21.0306 68.2066C20.3917 67.5677 20.3917 67.4764 20.3917 67.0201C20.3917 66.655 20.5743 66.1986 20.9394 65.4685C21.2132 64.8296 21.487 64.1907 21.487 64.0082C21.487 63.6431 21.2132 63.3693 20.0267 62.7304C18.4751 61.909 17.6536 60.8137 17.8362 59.8098C17.9275 59.1709 18.11 58.8058 19.114 57.528C20.6655 55.5201 22.1259 53.2383 23.1298 51.2304C23.2344 50.9864 23.339 50.7557 23.4283 50.5586C23.5729 50.2398 23.6774 50.009 23.6774 49.9526C23.6774 49.7701 23.3124 49.3137 22.7648 48.7661C21.2132 47.2145 21.1219 46.3931 22.1259 44.1114C22.856 42.4685 23.0386 41.8296 23.4036 40.3693C24.5901 35.532 27.0544 31.6074 30.3401 29.417C31.4354 28.6868 33.2608 27.8654 34.8123 27.3178ZM22.8576 51.1041C22.9624 50.8598 23.0675 50.6281 23.156 50.4328C23.1833 50.3725 23.2091 50.3157 23.2327 50.2631C23.2841 50.1489 23.3247 50.0567 23.3522 49.9886C23.3585 49.9731 23.3637 49.9598 23.3679 49.9485C23.3636 49.9393 23.3577 49.9275 23.3496 49.9129C23.3172 49.8546 23.2646 49.7768 23.1897 49.6805C23.0405 49.4887 22.8219 49.2475 22.5526 48.9783C21.7679 48.1936 21.2947 47.5402 21.1896 46.7522C21.0862 45.9767 21.3492 45.1317 21.8513 43.9906L21.8517 43.9895C22.5732 42.3662 22.7507 41.7443 23.1124 40.2972C24.3117 35.4086 26.8096 31.4101 30.1737 29.1673C31.2984 28.4176 33.1499 27.5864 34.7125 27.0349L34.7209 27.0319C37.0229 26.2952 41.507 25.3807 44.8977 25.013C45.7944 24.8347 46.7816 24.741 47.0246 24.7362C47.4716 24.6895 48.6213 24.691 49.7666 24.7247C50.9252 24.7588 52.1353 24.8273 52.6636 24.9234L52.6666 24.9239C55.0573 25.3837 57.5519 26.1213 59.6852 27.2343L59.7069 27.2456L60.2115 27.6241V28.413C60.2115 28.8889 59.9684 29.2612 59.6142 29.4614C59.2666 29.6578 58.8257 29.6822 58.4243 29.5102L58.4162 29.5067L58.4083 29.5027C55.5244 28.0608 52.0105 27.1614 48.9592 27.1614C47.3412 27.1614 44.7365 27.4548 42.1392 27.8763C39.5424 28.2977 36.9819 28.8424 35.4523 29.3373L35.4489 29.3384C32.8417 30.1475 30.7958 31.3995 29.4719 32.8988C27.4937 35.2373 26.3296 37.3863 25.5201 40.6246L25.5189 40.6292C25.1506 42.0103 24.6904 43.3907 24.1385 44.7704L24.1308 44.7897L24.1205 44.8078C23.9481 45.1095 23.8185 45.4118 23.7326 45.6588C23.6897 45.7823 23.6585 45.8895 23.6384 45.9736C23.6283 46.0157 23.6215 46.0503 23.6173 46.0771C23.6152 46.0904 23.6139 46.1008 23.6131 46.1085C23.6124 46.116 23.6124 46.1194 23.6124 46.1194C23.6124 46.1663 23.6188 46.2166 23.7194 46.3447C23.8309 46.4866 24.0198 46.6762 24.3459 47.0024C25.2795 47.936 25.8028 48.8302 25.8028 49.7701C25.8028 50.3117 25.5789 50.8365 24.9497 52.0947C23.9378 54.1187 22.6508 56.2326 21.0893 58.3452L21.085 58.3511C20.766 58.7612 20.4715 59.1462 20.2575 59.4392C20.1501 59.5861 20.0654 59.7065 20.0085 59.7938C20.0074 59.7955 20.0063 59.7971 20.0053 59.7988C20.0089 59.8025 20.0126 59.8064 20.0166 59.8104C20.0917 59.8867 20.2068 59.9848 20.3535 60.0935C20.6463 60.3104 21.0381 60.5496 21.4263 60.7221L21.4349 60.7259L21.4432 60.7303C22.5303 61.2975 23.2665 62.009 23.5627 62.8979C23.8587 63.7857 23.693 64.7811 23.129 65.8676L22.8581 66.5449C23.3854 66.9248 23.9799 67.4459 24.0721 67.5381L24.0931 67.5591L24.1096 67.5838C24.2506 67.7953 24.2981 68.0969 24.2851 68.3692C24.2719 68.648 24.1924 68.9631 24.0087 69.208L23.9959 69.2251L23.9808 69.2401C23.9663 69.2547 23.9414 69.2882 23.9182 69.3318C23.9254 69.3376 23.9331 69.3437 23.9415 69.3502C24.0336 69.4219 24.1602 69.5065 24.3002 69.5998C25.1764 70.1839 25.6853 70.8848 25.887 71.7923L25.8887 71.8001L25.89 71.808C25.9373 72.0914 25.9636 72.3202 25.9508 72.6011C25.9384 72.8752 25.8892 73.1892 25.798 73.6455C25.5752 74.9864 25.7019 75.9432 26.0638 76.5105C26.2406 76.7876 26.4761 76.9773 26.7714 77.0823C27.0694 77.1883 27.4457 77.2139 27.9078 77.1307C29.1266 76.859 32.3461 75.8619 35.5167 74.8126C38.6873 73.7634 41.7615 72.6775 42.7077 72.2289C43.1904 71.965 43.6732 71.6353 44.0667 71.3075C44.4711 70.9704 44.7497 70.661 44.8575 70.4454C44.8964 70.3676 44.9595 70.2211 45.0124 70.0626C45.0676 69.8968 45.0996 69.7528 45.0996 69.6669V69.6398L45.1045 69.6132C45.21 69.0328 45.5369 68.5922 45.9809 68.4085C46.4342 68.2209 46.9489 68.3276 47.3459 68.7246C47.5103 68.889 47.6137 69.0489 47.6644 69.2519C47.7077 69.4252 47.7076 69.6182 47.7076 69.8234L47.7076 69.8573L47.7071 69.8652C47.6075 71.7583 46.1215 73.4755 43.6131 74.6832L43.6039 74.6877L43.5944 74.6915C43.247 74.8304 42.4339 75.1245 41.6277 75.4161C41.3612 75.5125 41.0954 75.6087 40.8474 75.6988C40.348 75.8804 39.8708 76.0622 39.5184 76.1986C39.4201 76.2367 39.3315 76.2712 39.255 76.3012C39.319 76.3839 39.4011 76.4782 39.4967 76.5738L39.5048 76.5819L39.5123 76.5907C40.6325 77.8976 41.9323 80.2164 42.4017 81.8124L42.4052 81.8242L42.5302 82.3253L53.5202 82.2359L53.5226 82.2359C56.5788 82.2359 59.3841 82.2131 61.4255 82.1903C62.4462 82.1789 63.2758 82.1675 63.8502 82.1589C64.0653 82.1557 64.2446 82.1529 64.3848 82.1507C64.3229 82.0235 64.2344 81.8662 64.1265 81.6863L64.1251 81.6841C63.1893 80.0931 62.3822 77.6847 61.8541 75.1939C61.3261 72.7028 61.0696 70.0935 61.2554 68.0907C61.3373 66.9471 61.5626 65.6598 61.7442 64.9194C61.5289 64.9016 61.1638 64.8881 60.5571 64.8786C59.1112 64.8558 56.3537 64.8558 51.1496 64.8558H41.0187C39.5422 64.8558 38.2649 63.9795 37.6626 62.7152C37.5224 62.5449 37.5234 62.3557 37.5241 62.2124C37.5242 62.2023 37.5243 62.1924 37.5243 62.1828V48.7613C37.5243 42.2856 37.5243 38.8616 37.5471 37.0001C37.5585 36.0706 37.5756 35.5227 37.6021 35.1768C37.6289 34.8268 37.6667 34.6618 37.7282 34.5079L37.7329 34.4963L37.7385 34.4852C38.0437 33.8747 38.6385 33.287 39.3183 32.8985L39.4076 32.8475L40.1273 32.9503H54.4683L54.851 33.333L54.8675 33.3577C54.8713 33.3635 54.8753 33.3694 54.8794 33.3755C54.9195 33.4352 54.9706 33.5113 55.0134 33.6113C55.0613 33.7229 55.0951 33.8532 55.1202 34.0293C55.1693 34.373 55.1917 34.9414 55.1917 35.9884V37.8788H55.4393C56.8308 37.8788 58.209 38.7637 58.8079 39.9556C59.0637 40.419 59.184 40.9925 59.1961 41.5493C59.2082 42.1088 59.1118 42.6791 58.9079 43.138L58.9061 43.1419C58.3123 44.4286 56.9319 45.3241 55.6218 45.3241H55.2829V47.032C55.2829 47.3425 55.5329 47.6447 55.8956 47.6447H57.6036V47.3058C57.6036 45.9958 58.4991 44.6154 59.7858 44.0215L59.7897 44.0197C60.6928 43.6183 61.9732 43.6203 62.9663 44.1169C64.157 44.7122 65.0488 46.0902 65.0488 47.3971V47.6447H66.9803C67.9929 47.6447 68.5524 47.6447 68.8879 47.6806C69.0627 47.6994 69.2042 47.7301 69.3285 47.79C69.456 47.8514 69.5424 47.9331 69.6157 48.0064L69.9774 48.3681V62.8135L69.6571 63.3472L69.6532 63.3532C69.4677 63.6314 69.1807 64.0164 68.9768 64.2203C68.6114 64.5857 68.337 64.8419 67.8819 64.9798C67.4546 65.1093 66.8819 65.1296 65.9353 65.1296H64.4354L64.3988 65.2759L64.3963 65.2842C63.9527 66.7035 63.6819 69.2187 63.8609 71.0988L63.8617 71.1063C64.1335 75.002 65.2206 78.8719 66.6443 81.0964L66.6501 81.1054C67.2379 82.1002 67.6037 82.7753 67.7419 83.2778C67.8134 83.5377 67.8317 83.7764 67.773 84.003C67.714 84.2309 67.5858 84.4128 67.4252 84.5734L67.0644 84.9342L54.0765 85.0263L54.0724 85.0264L40.897 85.3028L40.5327 84.9385C40.3997 84.8055 40.2901 84.6016 40.1969 84.3919C40.0998 84.1734 40.005 83.9117 39.9127 83.6348L39.9095 83.6252C39.5513 82.4162 39.0134 81.1832 38.4091 80.1424C37.8005 79.0944 37.1418 78.2709 36.5546 77.8515L36.549 77.8474L36.3078 77.6665L34.1704 78.3505C33.9519 78.4177 33.7045 78.4945 33.4394 78.5769C32.2749 78.9386 30.768 79.4067 29.8672 79.632C28.9983 79.8607 28.4604 79.9782 28.0438 80.0378C27.6234 80.0978 27.3317 80.0978 26.9677 80.0978H26.9474L26.9317 80.0962C26.0064 79.9988 25.2129 79.6551 24.5785 79.058C23.9467 78.4633 23.4899 77.6338 23.2055 76.5911L23.2038 76.5849C23.1086 76.2042 23.058 75.9506 23.058 75.4625C23.058 74.9928 23.1048 74.2952 23.1957 73.0225L23.1965 73.0107L23.2678 72.3708L22.5882 71.9176C22.0934 71.5578 21.7368 71.2822 21.512 70.9912C21.2674 70.6747 21.187 70.3537 21.187 69.9407V69.9359C21.187 69.8018 21.187 69.6326 21.1993 69.4728C21.2104 69.3284 21.2336 69.1515 21.2992 69.0077C21.3176 68.951 21.3209 68.9322 21.3214 68.9232C21.3207 68.9212 21.3189 68.9167 21.3149 68.9093C21.2777 68.8411 21.1649 68.7168 20.8354 68.4344L20.8266 68.4269L20.8185 68.4187C20.5051 68.1053 20.3085 67.8896 20.2033 67.679C20.0914 67.4553 20.0915 67.2541 20.0917 67.045L20.0917 67.0201C20.0917 66.574 20.3103 66.0564 20.6671 65.3422C20.8034 65.0242 20.9368 64.7127 21.0365 64.4579C21.0868 64.3293 21.1267 64.2197 21.1536 64.1338C21.1772 64.0587 21.1842 64.0214 21.1862 64.0108C21.1868 64.0076 21.187 64.0068 21.187 64.0082C21.187 63.9581 21.1784 63.9201 21.1582 63.8803C21.136 63.8365 21.0923 63.7766 21.0017 63.6955C20.8145 63.528 20.4787 63.3146 19.8854 62.9951C19.0835 62.5704 18.4514 62.0655 18.0411 61.5185C17.631 60.9717 17.4321 60.3661 17.54 59.7619C17.5898 59.4157 17.6681 59.1298 17.8701 58.7636C18.0657 58.4092 18.3762 57.9815 18.8772 57.3437C20.4165 55.3516 21.8638 53.0899 22.8576 51.1041ZM52.4012 37.3574V35.8058C52.4012 35.4431 52.099 35.1931 51.7885 35.1931H40.5198C40.5035 35.2034 40.4817 35.2184 40.4515 35.2399C40.4431 35.246 40.4339 35.2525 40.4242 35.2595C40.3646 35.3025 40.2822 35.362 40.1953 35.4107L40.0409 35.565V46.8495C40.0409 47.2122 40.3431 47.4622 40.6536 47.4622H42.3615V47.1233C42.3615 45.8132 43.2571 44.4328 44.5438 43.839L44.5476 43.8372C45.0065 43.6332 45.5768 43.5369 46.1363 43.549C46.6931 43.5611 47.2666 43.6814 47.73 43.9372C48.9083 44.5286 49.7038 45.6183 49.8054 47.0025L49.8629 47.4622H51.606C51.9687 47.4622 52.2187 47.16 52.2187 46.8495V45.3477C52.2187 44.1983 52.2187 43.5717 52.2544 43.2145C52.2725 43.0334 52.3026 42.8819 52.3702 42.7567C52.4373 42.6325 52.5271 42.5605 52.6015 42.5094C52.8028 42.3131 53.0317 42.1633 53.2994 42.116C53.579 42.0667 53.8539 42.1373 54.1229 42.2963C54.552 42.5096 54.9039 42.5977 55.1804 42.5799C55.4418 42.563 55.6569 42.451 55.8341 42.2029L55.8427 42.1908L55.8524 42.1797C56.3651 41.5937 56.2212 40.8162 55.573 40.4521C55.3252 40.3289 55.146 40.2814 54.9829 40.2814C54.8235 40.2814 54.6486 40.3268 54.4092 40.4441C54.1834 40.6063 53.9187 40.6956 53.6429 40.6803C53.3645 40.6648 53.0997 40.5441 52.8757 40.3288C52.8008 40.2772 52.7118 40.2058 52.6436 40.0816C52.5756 39.9578 52.5417 39.8061 52.5178 39.6205C52.4715 39.2617 52.4483 38.6346 52.4059 37.4902L52.4012 37.3574ZM53.0663 40.0955C52.7959 39.9152 52.7925 39.824 52.7046 37.4486L52.7012 37.3574V35.8058C52.7012 35.2582 52.2449 34.8931 51.7885 34.8931H40.4711C40.4198 34.8931 40.3398 34.9507 40.2471 35.0173C40.1748 35.0694 40.0948 35.1269 40.0147 35.1669L39.7409 35.4408V46.8495C39.7409 47.3971 40.1973 47.7622 40.6536 47.7622H42.6615V47.1233C42.6615 45.9368 43.483 44.659 44.6695 44.1114C45.4909 43.7463 46.7687 43.7463 47.5901 44.2026C48.6853 44.7503 49.4155 45.7542 49.5068 47.032L49.598 47.7622H51.606C52.1536 47.7622 52.5187 47.3058 52.5187 46.8495V45.3892C52.5187 43.0161 52.5187 42.9249 52.7925 42.7423C53.1576 42.3772 53.5226 42.286 53.979 42.5598C54.8917 43.0161 55.6218 43.0161 56.0782 42.3772C56.7171 41.6471 56.5345 40.6431 55.7131 40.1868C55.1655 39.913 54.8004 39.913 54.2528 40.1868C53.8877 40.4606 53.4314 40.4606 53.0663 40.0955ZM45.8191 46.2903C45.4637 46.4877 45.2495 46.7502 45.1619 47.0391C45.0743 47.3282 45.1019 47.6823 45.3029 48.0843C45.4429 48.3644 45.5489 48.6388 45.515 48.9267C45.4803 49.2222 45.3075 49.465 45.0641 49.7084L45.0551 49.7175C44.9925 49.7802 44.9115 49.8615 44.7928 49.9219C44.6689 49.985 44.5264 50.0157 44.3467 50.0343C44.0003 50.0701 43.3961 50.0701 42.2495 50.0701H40.7449C40.3821 50.0701 40.1322 50.3723 40.1322 50.6828V62.0585L40.5041 62.4304H51.7885C52.1825 62.4304 52.4611 62.1105 52.4053 61.7757L52.4012 61.7513V60.1098H52.0523L52.0424 60.1091C50.5684 60.0108 49.17 59.0301 48.7633 57.615C47.9806 55.1603 49.555 52.777 52.0316 52.5748L52.4925 52.5172V50.7741C52.4925 50.4113 52.1903 50.1614 51.8798 50.1614H50.3171L50.2757 50.1596C49.0809 50.1154 48.4546 50.0922 48.0981 50.0446C47.9141 50.0201 47.7713 49.9858 47.6488 49.9223C47.53 49.8607 47.4497 49.7803 47.3866 49.7171L47.3629 49.6933L47.3501 49.6763C46.9964 49.2047 47.0157 48.6396 47.2932 48.0519C47.3065 47.885 47.3604 47.7328 47.3994 47.6254C47.405 47.6102 47.4102 47.5961 47.4151 47.5827C47.4326 47.5349 47.4463 47.4975 47.4574 47.4614C47.464 47.44 47.468 47.424 47.4704 47.412C47.4725 47.4014 47.4726 47.3968 47.4726 47.3968C47.4726 47.2247 47.4197 47.0198 47.3218 46.8239C47.2266 46.6336 47.099 46.4721 46.9656 46.3683C46.5694 46.1353 46.1519 46.0908 45.8278 46.2853L45.8191 46.2903ZM47.1338 46.1193C47.4988 46.3931 47.7726 46.9407 47.7726 47.3971C47.7726 47.4791 47.7358 47.5796 47.6952 47.6903C47.6454 47.8258 47.5901 47.9765 47.5901 48.1272C47.3163 48.6749 47.3163 49.1312 47.5901 49.4963C47.8639 49.7701 47.8639 49.7701 50.3282 49.8614H51.8798C52.3361 49.8614 52.7925 50.2264 52.7925 50.7741V52.782L52.0623 52.8733C49.7806 53.0558 48.3203 55.2463 49.0504 57.528C49.4155 58.8058 50.6933 59.7185 52.0623 59.8098H52.7012V61.7264C52.7925 62.274 52.3361 62.7304 51.7885 62.7304H40.3798L39.8322 62.1828V50.6828C39.8322 50.2264 40.1973 49.7701 40.7449 49.7701H42.2052C44.5782 49.7701 44.5782 49.7701 44.852 49.4963C45.3084 49.0399 45.3084 48.7661 45.0346 48.2185C44.5782 47.3058 44.852 46.4844 45.6734 46.028C46.1298 45.7542 46.6774 45.8455 47.1338 46.1193ZM53.0313 55.2447L53.0234 55.2408C52.6928 55.0755 52.4374 55.0305 52.222 55.0636C52.0077 55.0966 51.789 55.2137 51.5443 55.4584C51.3787 55.624 51.3248 55.7199 51.2994 55.8023C51.2698 55.8987 51.2671 56.0087 51.2671 56.2502C51.2671 56.5657 51.3456 56.8197 51.4835 57.0093C51.6198 57.1966 51.8298 57.3432 52.1351 57.4195C52.3069 57.4625 52.398 57.4736 52.4991 57.4592C52.6091 57.4435 52.7561 57.3933 53.0234 57.2597C53.4164 57.0632 53.7706 56.9714 54.0974 57.0011C54.4329 57.0316 54.7006 57.1865 54.9213 57.4072C55.0944 57.5803 55.1444 57.7934 55.179 58.1617C55.2098 58.4909 55.2315 59.0147 55.2669 59.8733C55.2719 59.9934 55.2771 60.1201 55.2827 60.2536L55.2832 60.2661L55.2829 61.7264C55.2829 62.0892 55.5851 62.3391 55.8956 62.3391H67.1801L67.552 61.9672V50.7741C67.552 50.4113 67.2498 50.1614 66.9393 50.1614H65.3766L65.3352 50.1596C64.1404 50.1154 63.5141 50.0922 63.1576 50.0446C62.9736 50.0201 62.8308 49.9858 62.7083 49.9223C62.5895 49.8607 62.5092 49.7803 62.4461 49.7171L62.4224 49.6933L62.4096 49.6763C62.0641 49.2156 62.0745 48.6658 62.3338 48.0928C62.307 47.9191 62.3408 47.7618 62.3716 47.649C62.3814 47.6129 62.3919 47.5784 62.401 47.5485L62.404 47.5388C62.4122 47.5119 62.419 47.4896 62.425 47.4682C62.4317 47.4447 62.4359 47.4273 62.4384 47.414C62.441 47.4005 62.4409 47.3957 62.4409 47.3971C62.4409 47.225 62.388 47.0198 62.29 46.8239C62.1927 46.6293 62.0615 46.4648 61.9248 46.3614C61.4312 46.0113 60.7078 46.1456 60.3409 46.655C60.1678 46.9152 60.0891 47.091 60.0734 47.2645C60.0577 47.4367 60.1005 47.6518 60.2711 47.9931C60.4594 48.3696 60.5619 48.6864 60.5291 48.9818C60.4947 49.2915 60.3195 49.5126 60.1236 49.7084L60.1146 49.7175C60.052 49.7802 59.971 49.8614 59.8523 49.9219C59.7284 49.985 59.5859 50.0157 59.4062 50.0343C59.0598 50.0701 58.4556 50.0701 57.309 50.0701H55.8044C55.4416 50.0701 55.1917 50.3723 55.1917 50.6828V52.1819C55.1917 53.3336 55.1917 53.9601 55.1561 54.3283C55.1377 54.5176 55.1079 54.6675 55.049 54.7964C54.9873 54.9312 54.904 55.0193 54.83 55.0933C54.5972 55.3262 54.3222 55.451 54.0047 55.4661C53.7001 55.4806 53.3778 55.3932 53.0394 55.2482L53.0313 55.2447ZM60.094 46.4844C60.5504 45.8455 61.4631 45.663 62.102 46.1193C62.4671 46.3931 62.7409 46.9407 62.7409 47.3971C62.7409 47.463 62.7171 47.5407 62.691 47.6261C62.6448 47.7773 62.5913 47.9523 62.6496 48.1272C62.3758 48.6749 62.3758 49.1312 62.6496 49.4963C62.9234 49.7701 62.9234 49.7701 65.3877 49.8614H66.9393C67.3956 49.8614 67.852 50.2264 67.852 50.7741V62.0915L67.3044 62.6391H55.8956C55.4393 62.6391 54.9829 62.274 54.9829 61.7264V60.2661C54.9774 60.1331 54.9722 60.0071 54.9673 59.8878C54.891 58.0427 54.8806 57.7907 54.7091 57.6193C54.3441 57.2542 53.8877 57.1629 53.1576 57.528C52.6099 57.8018 52.4274 57.8018 52.0623 57.7106C51.3322 57.528 50.9671 56.9804 50.9671 56.2502C50.9671 55.7939 50.9671 55.6114 51.3322 55.2463C51.8798 54.6987 52.4274 54.6074 53.1576 54.9725C53.7964 55.2463 54.2528 55.2463 54.6179 54.8812C54.8917 54.6074 54.8917 54.5161 54.8917 52.1431V50.6828C54.8917 50.2264 55.2568 49.7701 55.8044 49.7701H57.2647C59.6377 49.7701 59.6377 49.7701 59.9115 49.4963C60.2766 49.1312 60.3679 48.8574 60.0028 48.1272C59.6377 47.3971 59.729 47.032 60.094 46.4844Z" fill="#61A1F4"/>
<path fill-rule="evenodd" clip-rule="evenodd" d="M85.1067 25.7932C85.1067 17.6113 85.0196 17.4372 84.7585 16.9149C84.4103 16.3056 83.714 15.6093 83.1047 15.2611C82.6695 15 82.0602 15 74.3135 15C72.0504 15 66.0445 15 65.6093 15.087C65.2611 15.2611 65.087 15.5223 65.087 17.089C65.087 17.8724 65.087 18.3076 65 18.4817L65.087 22.1374C65.087 23.0949 65.3482 23.356 65.6093 23.4431C66.0445 23.6171 66.1315 23.6171 66.7408 23.356C67.5242 23.0078 68.2205 23.0078 68.9169 23.356C69.4391 23.7042 69.7873 24.2264 69.8743 24.8357C69.9614 25.445 69.7003 26.0543 69.178 26.4895C68.4817 27.0988 67.6983 27.1859 66.7408 26.6636C66.0445 26.3154 65.7834 26.3154 65.4352 26.7506L65.087 27.0988V30.1453C65.087 33.1917 65.087 33.2788 65.3482 33.801C65.5223 34.1492 65.7834 34.4103 66.2186 34.6714C66.7408 34.9326 66.9149 34.9326 69.8743 34.9326H72.9208L73.269 34.5844C73.6171 34.1492 73.7042 33.9751 73.356 33.2788C72.8338 32.3213 72.9208 31.5379 73.6171 30.8416C74.2264 30.3194 74.3135 30.3194 75.0969 30.3194C75.8802 30.3194 76.0543 30.4064 76.4895 30.8416C77.1859 31.5379 77.2729 32.4954 76.8377 33.3658C76.4895 33.9751 76.4895 34.1492 76.6636 34.4974C76.8377 34.9326 77.1859 35.0196 80.8416 35.0196C84.5844 35.0196 84.8455 34.9326 85.0196 34.4974C85.1937 34.0622 85.1067 27.7951 85.1067 25.7932ZM83.1917 33.1047H79.1008V32.1472C79.1008 30.5805 77.8822 28.9267 76.4025 28.4044C75.0098 27.9692 73.356 28.3174 72.3115 29.3619C71.6152 30.0582 71.267 30.7546 71.18 31.8861L71.0929 33.0176H67.002V28.9267L68.1335 28.8396C68.6558 28.8396 69.265 28.6656 69.6132 28.4915C70.7448 27.8822 71.4411 26.9247 71.7022 25.7061C71.9633 24.4876 71.6152 23.269 70.7448 22.3115C69.9614 21.4411 69.265 21.0929 68.1335 21.0059L67.002 20.9188V16.8279H82.1472L83.1047 17.7853V33.1047H83.1917Z" fill="#F29021"/>
</svg>
