<svg width="100" height="100" viewBox="0 0 100 100" fill="none" xmlns="http://www.w3.org/2000/svg">
<path d="M39.5 43.6C39.5 43.6 65 56.1 44.6 81.2L50.4 77L53.3 73.7C53.3 73.7 56.3 64.4 56.4 64.2C56.5 64 56.7 56.4 56.7 56.4L53 49.7L48 45.4L43.8 43.5H39.5V43.6Z" fill="#D9EBFF"/>
<path d="M62.2 17C62.2 17 91.2999 26.2 73.0999 53.6L77.8 50.6L82.9 43.2L83.3 33.5L80.0999 26L75.4 19.8L69.4 17H62.2Z" fill="#D9EBFF"/>
<path d="M57.1 43.7001C58.1 44.7001 59.1 45.2001 60.5 45.7001C63.8 46.8001 67.7 46.1001 70.2 43.8001C71 43.1001 71.1 42.8001 71.1 42.3001C71.1 41.9001 70.9 41.4001 70.5 41.1001C70.2 40.9001 69.8 40.8001 69.4 40.9001C69.3 40.9001 68.9 41.2001 68.6 41.4001C67 42.7001 65.6 43.3001 63.8 43.3001C62.2 43.3001 60.8 42.9001 59.6 41.9001C59.1 41.5001 58.6 41.2001 58.5 41.1001C58.3 41.0001 57.8 40.8001 57.5 40.9001C56.5 41.1001 56.4 42.0001 56.5 42.4001C56.4 43.0001 56.4 43.0001 57.1 43.7001Z" fill="#61A1F4"/>
<path d="M70.1 28.8C69.8 28.6 68.9 28.6 68.6 28.7C68.1 29 68 29.1 68 30.8C68 31.9 68 32.4 68.1 32.6C68.3 33 68.6 33.3 69.1 33.4C69.6 33.5 70.2 33.3 70.5 32.8C70.7 32.5 70.7 32.5 70.7 31C70.7 29.2 70.6 29.2 70.1 28.8Z" fill="#61A1F4"/>
<path d="M58.8 28.9003C58.5 28.6003 57.6999 28.6003 57.1999 28.9003C56.6999 29.2003 56.5 29.4003 56.6 31.2003C56.6 32.9003 56.6999 33.0003 57.4999 33.3003C57.9999 33.6003 58.4 33.5003 58.8 33.2003C59.2 32.8003 59.4 32.7003 59.4 31.1003C59.4 29.4003 59.2 29.3003 58.8 28.9003Z" fill="#61A1F4"/>
<path d="M32.1 55.2004C31.6 55.0004 31.5 55.0004 31 55.1004C30.6 55.2004 30.2 55.7004 30.1 56.3004C30 57.2004 30.1 58.9004 30.3 59.2004C30.4 59.3004 30.6 59.6004 30.8 59.7004C31.2 60.0004 32.1 59.9004 32.4 59.6004C32.8 59.2004 32.9 59.1004 32.9 57.4004C32.9 55.6004 32.7 55.5004 32.1 55.2004Z" fill="#61A1F4"/>
<path d="M59.7999 57.2002C64.0999 58.0002 69.4999 57.2002 73.6999 55.1002C76.3999 53.8002 79.3999 51.1002 80.9999 48.7002C84.7999 43.0002 85.7999 35.9002 83.4999 29.2002C80.6999 20.8002 73.1999 15.4002 63.7999 15.2002C62.5999 15.2002 61.3999 15.2002 60.5999 15.3002C51.4999 16.6002 44.0999 24.0002 42.5999 33.2002C42.2999 35.0002 42.2999 38.0002 42.6999 39.8002C42.9999 41.6002 42.9999 41.6002 42.7999 41.9002C42.4999 42.2002 42.4999 42.2002 40.6999 41.9002C39.6999 41.7002 38.4999 41.6002 37.2999 41.6002C36.0999 41.6002 34.8999 41.7002 33.8999 41.9002C28.1999 42.9002 22.8999 46.3002 19.6999 51.2002C15.3999 57.5002 14.9999 65.4002 18.3999 72.4002C19.3999 74.5002 20.6999 76.2002 22.3999 77.9002C26.1999 81.7002 31.0999 83.9002 36.5999 84.1002C41.3999 84.3002 45.9999 82.9002 49.8999 80.0002C54.4999 76.6002 57.4999 71.6002 58.3999 66.0002C58.6999 64.3002 58.5999 60.4002 58.2999 58.9002C58.0999 57.8002 57.9999 57.6002 58.2999 57.3002C58.3999 57.0002 58.5999 57.0002 59.7999 57.2002ZM52.6999 72.7002C49.9999 76.9002 45.6999 79.8002 40.5999 80.9002C39.7999 81.1002 38.3999 81.2002 37.0999 81.2002C35.7999 81.2002 34.4999 81.1002 33.5999 80.9002C29.9999 80.1002 26.8999 78.5002 24.2999 76.0002C18.3999 70.2002 16.9999 61.6002 20.8999 54.1002C22.5999 50.8002 24.9999 48.3002 28.3999 46.6002C30.0999 45.8002 32.0999 45.1002 33.7999 44.8002C35.2999 44.5002 38.5999 44.5002 40.0999 44.8002C48.2999 46.1002 53.9999 51.9002 55.1999 60.3002C55.9999 64.6002 55.0999 69.0002 52.6999 72.7002ZM57.3999 53.7002C56.2999 53.3002 56.1999 53.2002 55.4999 52.0002C53.6999 48.9002 50.5999 45.9002 47.4999 44.2002C46.7999 43.8002 46.5999 43.5002 46.2999 42.6002C45.5999 40.7002 45.3999 39.4002 45.2999 37.1002C45.1999 35.4002 45.2999 34.6002 45.4999 33.5002C46.8999 25.5002 53.0999 19.3002 60.8999 18.1002C62.3999 17.9002 64.3999 17.8002 65.9999 18.0002C72.2999 18.8002 77.7999 22.8002 80.4999 28.6002C82.3999 32.8002 82.6999 37.8002 81.2999 42.2002C80.4999 44.6002 79.0999 46.9002 77.2999 48.8002C74.3999 51.8002 70.5999 53.9002 66.5999 54.5002C65.5999 54.7002 64.9999 54.7002 64.0999 54.7002C63.6999 54.7002 63.2999 54.7002 62.8999 54.7002C60.5999 54.6002 59.2999 54.4002 57.3999 53.7002Z" fill="#61A1F4"/>
<path d="M44.1 55.8C43.7 55.2 43.1 55 42.5 55.2C42.1 55.3 42 55.4 41.7 55.9C41.5 56.1 41.5 56.3 41.5 57.5C41.5 59.2 41.7 59.4 42.2 59.7C42.5 59.9 42.9 60 43.3 59.9C43.7 59.8 44 59.5 44.2 59.2C44.3 59 44.4 58.7 44.3 57.4C44.2 56.1 44.2 55.9 44.1 55.8Z" fill="#61A1F4"/>
<path d="M30.9999 70.5002C32.6999 71.9002 34.8999 72.6002 37.0999 72.6002C39.1999 72.6002 40.8999 72.1002 42.5999 71.0002C44.5999 69.7002 44.6999 68.9002 44.4999 68.3002C44.2999 67.8002 44.1999 67.6002 43.5999 67.4002C43.0999 67.2002 42.7999 67.2002 41.9999 67.9002C41.4999 68.3002 40.6999 68.8002 40.0999 69.1002C38.9999 69.7002 38.7999 69.7002 37.1999 69.7002C35.1999 69.7002 34.1999 69.4002 32.7999 68.3002C31.2999 67.1002 31.1999 67.2002 30.4999 67.5002C29.8999 67.8002 29.6999 68.2002 29.7999 68.8002C29.8999 69.4002 29.9999 69.7002 30.9999 70.5002Z" fill="#61A1F4"/>
<path d="M64.8 83.4C65 83.1 65 83 65 79.4C65 76 65 75.6 64.8 75.4C64.6 75.1 64.3 74.8 63.9 74.8C63.6 74.7 63.2 74.8 63 75C62.8 75.1 62.5 75.4 62.4 75.5C62.3 75.7 62.2 76.1 62.2 79.4C62.2 82.7 62.2 83.1 62.4 83.4C62.7 83.9 63.1 84.2 63.6 84.2C64.1 84 64.5 83.8 64.8 83.4Z" fill="#F29021"/>
<path d="M36 15.7C35.8 16 35.8 16.1 35.8 19.7C35.8 23.1 35.8 23.5 36 23.7C36.3 24.2 36.7 24.4 37.3 24.3C37.9 24.3 38.2 24.1 38.5 23.6C38.6 23.4 38.7 22.6 38.7 19.6C38.7 16.3 38.7 15.9 38.5 15.7C38.1 15.2 37.7 15 37.2 15C37 15 36.8 15 36.6 15.1C36.4 15.3 36.1 15.6 36 15.7Z" fill="#F29021"/>
<path d="M74.5 75.6998C76.1 77.2998 77 78.0998 77.3 78.1998C78 78.3998 78.7 77.9998 79 77.2998C79.1 76.8998 79.1 76.8998 79 76.4998C78.9 76.0998 78.5 75.5998 76.7 73.7998C73.8 70.8998 73.7 70.7998 73.1 70.7998C72.8 70.7998 72.5 70.7998 72.4 70.8998C72.3 70.8998 72.1 71.0998 71.9 71.2998C71.6 71.6998 71.5 72.4998 71.7 72.8998C71.9 72.9998 73 74.1998 74.5 75.6998Z" fill="#F29021"/>
<path d="M84.0999 61.5999C83.8999 61.4999 83.4999 61.3999 80.3999 61.3999C78.2999 61.3999 76.6999 61.3999 76.4999 61.4999C76.1999 61.5999 75.7999 61.8999 75.5999 62.2999C75.2999 62.7999 75.5999 63.5999 76.0999 63.9999C76.3999 64.1999 76.4999 64.1999 80.0999 64.1999C83.7999 64.1999 83.8999 64.1999 84.0999 63.9999C84.4999 63.6999 84.6999 63.3999 84.6999 62.8999C84.8999 62.3999 84.5999 61.8999 84.0999 61.5999Z" fill="#F29021"/>
<path d="M16.6 35.1999C16.2 35.4999 16 35.8999 16 36.2999C16 36.7999 16.3 37.2999 16.7 37.5999C16.9 37.6999 17.3 37.7999 20.6 37.7999C24.3 37.7999 24.4 37.7999 24.7 37.5999C25.1 37.3999 25.3 36.9999 25.3 36.5999C25.3 36.0999 25.1 35.6999 24.8 35.2999L24.6 35.0999H20.8C19.7 35.0999 18.9 35.0999 18.4 35.0999C16.9 34.9999 16.8 34.9999 16.6 35.1999Z" fill="#F29021"/>
<path d="M21.7 22.2998C21.7 22.2998 21.8 22.5998 21.8 22.7998C21.8 22.8998 22.2 23.3998 24.1 25.2998C27 28.2998 27.1 28.2998 27.8 28.2998C28.3 28.2998 28.3 28.2998 28.6 27.9998C28.9 27.7998 29 27.4998 29.1 27.2998C29.2 26.5998 29.3 26.4998 26.6 23.7998C25.1 22.2998 24 21.2998 23.8 21.0998C23.4 20.8998 23 20.8998 22.6 20.9998C22.4 21.0998 22.1 21.2998 22 21.3998C21.9 21.5998 21.7 22.0998 21.7 22.2998Z" fill="#F29021"/>
</svg>
