<svg width="100" height="100" viewBox="0 0 100 100" fill="none" xmlns="http://www.w3.org/2000/svg">
<path fill-rule="evenodd" clip-rule="evenodd" d="M35.7493 15.0249C35.7493 15.0249 42.6992 21.8741 41.5912 27.9175C40.4833 33.9609 42.1956 39.0978 42.1956 39.0978C42.1956 39.0978 40.7854 37.2848 40.9869 45.7455C41.0876 49.2708 42.5985 45.8462 42.5985 45.8462L43.7064 39.0978L46.8288 33.558L49.4476 33.2558L46.8288 27.5146L47.7353 20.8669L43.9079 17.6437L40.6847 16.0321L35.7493 15.0249Z" fill="#D9EBFF"/>
<path fill-rule="evenodd" clip-rule="evenodd" d="M51.3613 51.2854V78.5814H57.304L58.9156 71.9336V53.0984L57.304 50.7817L51.3613 51.2854Z" fill="#D9EBFF"/>
<path d="M84.2976 81.2004C84.2976 78.4809 84.2976 78.3802 83.8947 78.078L83.4919 77.6751H74.9304L75.434 76.7686C75.6354 76.4664 75.8369 75.8621 75.9376 75.6606V75.4592H76.0383C76.1391 75.4592 76.4412 75.4592 76.7434 75.4592C78.0528 75.4592 78.7579 75.2577 79.5637 74.3512C80.4702 73.4447 80.6716 72.9411 80.6716 70.8259C80.6716 69.3151 80.6716 69.2143 80.2687 68.8114C79.9665 68.5093 79.8658 68.4085 77.9521 68.4085H75.9376V67.6028C75.9376 66.8977 75.8369 66.6962 75.5347 66.3941L75.1318 65.9912H62.9443L62.2392 66.6962V70.7252C62.2392 75.0563 62.34 75.7613 63.045 76.97L63.4479 77.5744H61.4335C60.7284 77.5744 60.0233 77.5744 59.7212 77.5744H59.419L59.5197 77.2722C59.9226 76.1642 60.0233 75.8621 60.0233 64.3796C60.0233 54.7102 59.9226 52.595 59.8219 52.2928C59.6204 51.487 58.4118 50.2783 57.606 50.0769C57.1023 49.9762 56.2966 49.8755 55.4908 49.8755H54.0806L53.4763 48.8682C51.8647 46.2494 48.9438 44.4364 45.8213 44.1342L44.8141 44.0335V39.4002L45.4184 38.6952C46.1235 37.7887 46.6271 36.58 46.9293 35.5727C47.03 35.0691 47.1307 34.8677 47.4329 34.8677C49.0445 34.8677 50.6561 33.0547 50.6561 31.3424C50.6561 30.6373 50.2532 29.6301 49.8503 29.2272C49.4474 28.7236 49.4474 28.7236 49.4474 25.6011C49.3467 22.6802 49.3467 22.378 49.0445 21.3708C48.5409 19.8599 47.8358 18.8527 46.6271 17.644C45.4184 16.4353 43.8069 15.5288 42.1953 15.2266C40.8859 14.9245 37.1591 14.9245 35.9505 15.2266C33.3316 15.831 30.9143 17.644 29.7056 20.0613C28.8998 21.7736 28.6984 22.7809 28.6984 26.004V28.6228L28.2955 29.1264C27.6911 29.8315 27.4897 30.6373 27.5904 31.5438C27.6911 32.4503 27.9933 33.0547 28.6984 33.659C29.202 34.1626 30.2092 34.6662 30.9143 34.6662C31.015 34.6662 31.015 34.6662 31.1157 34.6662L31.2165 34.767C31.3172 34.8677 31.3172 34.9684 31.4179 35.2706C31.5186 36.0764 32.4251 37.7887 33.0295 38.5944L33.5331 39.1988V43.9328L32.5259 44.0335C29.4034 44.3357 26.4825 46.1487 24.8709 48.7675L24.2665 49.7747H22.8564C21.0434 49.7747 20.4391 49.9762 19.5325 50.8827C18.5253 51.8899 18.4246 52.1921 18.4246 55.6167V71.9339C18.4246 75.6606 18.5253 76.265 18.9282 77.2722L19.0289 77.5744H18.7268C18.4246 77.5744 17.921 77.5744 17.4174 77.5744C15.8058 77.5744 15.7051 77.5744 15.4029 77.9773C15.1007 78.2794 15 78.3802 15 81.0997C15 83.8192 15 83.9199 15.4029 84.2221L15.8058 84.625H83.9955L84.3984 84.2221C84.2976 84.0207 84.2976 84.0207 84.2976 81.2004ZM76.1391 70.7252H78.4557V71.531C78.4557 72.236 78.355 72.4375 78.0528 72.7396C77.8514 73.0418 77.6499 73.0418 76.9448 73.0418H76.1391V70.7252ZM73.8224 68.4085V71.531C73.8224 75.157 73.7217 75.6606 72.8152 76.5671C72.0094 77.3729 71.2036 77.5744 69.1891 77.5744C67.1747 77.5744 66.4696 77.3729 65.6638 76.5671C64.6566 75.5599 64.6566 75.4592 64.5559 71.7324V68.3078H73.8224V68.4085ZM47.3322 30.033L47.6344 30.2344C47.7351 30.3351 47.8358 30.4358 48.0373 30.5366C48.2387 30.738 48.4401 31.0402 48.4401 31.3424C48.4401 31.7453 48.0373 32.3496 47.6344 32.4503L47.3322 32.551L47.2315 32.2489C47.2315 32.0474 47.2315 31.6445 47.2315 31.3424C47.2315 30.8387 47.2315 30.5366 47.3322 30.3351V30.033ZM30.8136 32.2489L30.7128 32.551L30.4107 32.4503C30.1085 32.3496 29.6049 31.7453 29.6049 31.3424C29.6049 30.9395 30.0078 30.3351 30.4107 30.2344L30.7128 30.1337L30.8136 30.4359C30.8136 30.6373 30.8136 31.0402 30.8136 31.3424C30.8136 31.6445 30.9143 32.0474 30.8136 32.2489ZM30.9143 27.817V25.7019C30.9143 24.2917 31.015 23.2845 31.1157 22.6802C31.7201 20.1621 33.7345 18.2483 36.1519 17.5433C37.2599 17.2411 40.6844 17.2411 41.8931 17.5433C43.9076 18.0469 45.5192 19.3563 46.4257 21.1693C47.03 22.4787 47.2315 23.2845 47.2315 25.8026C47.2315 26.9105 47.2315 27.4141 47.1307 27.6156L47.03 27.817L46.8286 27.7163C46.7279 27.7163 46.4257 27.6156 44.8141 26.004C43.6054 24.7953 43.0011 24.2917 42.5982 24.2917C42.296 24.2917 41.8931 24.4932 41.2888 24.9968C39.5765 26.3062 37.6627 27.3134 35.9505 27.6156C35.4468 27.7163 34.1374 27.817 33.0295 27.817H30.9143ZM33.1302 30.1337L34.7418 30.033C37.2599 29.9322 39.375 29.1264 41.4902 27.7163L42.3967 27.0113L44.8141 29.4286L44.7134 32.1481C44.6127 35.2706 44.5119 35.6735 43.6054 36.9829C42.3967 38.4937 40.8859 39.2995 38.9722 39.2995C37.0584 39.2995 35.4468 38.5944 34.3389 36.9829C33.4324 35.7742 33.3316 35.1698 33.2309 32.551L33.1302 30.1337ZM42.4975 42.7241C42.4975 44.94 42.1953 45.3429 41.0873 45.9472C40.483 46.2494 40.1808 46.3501 38.9722 46.3501C37.7635 46.3501 37.4613 46.3501 36.857 45.9472C35.749 45.3429 35.4468 44.94 35.4468 42.7241C35.4468 42.1198 35.4468 41.6161 35.4468 41.314V41.0118L35.749 41.1125C35.9505 41.2132 36.1519 41.2132 36.3533 41.314C37.0584 41.6161 37.562 41.6161 38.8714 41.6161C40.1808 41.6161 40.6844 41.5154 41.3895 41.314C41.591 41.2132 41.8931 41.1125 41.9939 41.1125L42.296 41.0118V41.314C42.4975 41.6161 42.4975 42.1198 42.4975 42.7241ZM26.9861 49.2711C28.2955 47.5588 30.8136 46.4509 33.0295 46.3501C33.8353 46.3501 33.936 46.3501 34.4396 46.9545C35.5476 48.0624 37.0584 48.6668 39.0729 48.6668C40.9866 48.6668 42.5982 48.0624 43.7061 46.9545C44.2098 46.4509 44.3105 46.3501 45.0156 46.3501C46.9293 46.3501 49.1452 47.2566 50.5553 48.6668C50.7568 48.8682 50.9582 49.1704 51.1597 49.2711L51.4618 49.674H50.9582C49.8503 49.674 46.1235 49.7747 38.9722 49.7747H26.4825L26.9861 49.2711ZM20.4391 55.7174C20.4391 52.9979 20.4391 52.8972 20.842 52.595L21.2448 52.1921H57.0016L57.7067 52.8972V73.0418H20.4391V55.7174ZM57.606 75.3585L57.5052 75.8621C57.4045 76.3657 57.0016 76.97 56.498 77.3729C56.0951 77.6751 56.0951 77.6751 38.9722 77.6751C21.8492 77.6751 21.8492 77.6751 21.4463 77.3729C20.842 76.97 20.5398 76.4664 20.4391 75.8621L20.3383 75.3585H57.606ZM81.981 82.4091H16.9137V80.0924H81.8803V82.4091H81.981Z" fill="#61A1F4"/>
<path fill-rule="evenodd" clip-rule="evenodd" d="M66.0667 57.0269C65.6638 57.4298 65.6638 57.4298 65.6638 60.1493C65.6638 62.8689 65.6638 62.9696 66.0667 63.2718C66.2682 63.4732 66.5703 63.6747 66.8725 63.6747C67.1747 63.6747 67.4768 63.5739 67.6783 63.2718C68.0812 62.8689 68.0812 62.8689 68.0812 60.1493C68.0812 57.4298 68.0812 57.3291 67.6783 57.0269C67.4768 56.8255 67.1747 56.624 66.8725 56.624C66.5703 56.624 66.2682 56.8255 66.0667 57.0269Z" fill="#F29021"/>
<path fill-rule="evenodd" clip-rule="evenodd" d="M70.7 57.0269C70.2971 57.4298 70.2971 57.4298 70.2971 60.1493C70.2971 62.8689 70.2971 62.9696 70.7 63.2718C70.9015 63.4732 71.2036 63.6747 71.5058 63.6747C71.808 63.6747 72.1101 63.5739 72.3116 63.2718C72.6138 62.9696 72.6138 62.9696 72.6138 60.1493C72.6138 57.4298 72.6138 57.3291 72.2109 57.0269C72.0094 56.8255 71.7073 56.624 71.4051 56.624C71.2036 56.7247 70.9015 56.8255 70.7 57.0269Z" fill="#F29021"/>
</svg>
