<svg width="120" height="120" viewBox="0 0 120 120" fill="none" xmlns="http://www.w3.org/2000/svg">
    <circle cx="60" cy="60" r="60" fill="#F7FAFF"/>
    <path fill-rule="evenodd" clip-rule="evenodd"
          d="M44.8273 76.6549C42.8007 75.0312 40.2287 74.0601 37.4298 74.0601C30.8908 74.0601 25.5898 79.361 25.5898 85.9001C25.5898 88.6978 26.5602 91.2689 28.1827 93.2951C25.4745 91.1253 23.7402 87.7902 23.7402 84.05C23.7402 77.5109 29.0412 72.21 35.5802 72.21C39.3216 72.21 42.6576 73.9453 44.8273 76.6549Z"
          fill="#C4C4C4"/>
    <path d="M74.7996 70.3596C90.1255 70.3596 96.0746 62.3755 96.0746 47.0496L94.7796 46.6796C94.7796 58.123 87.8003 64.8096 75.5396 64.8096C63.2789 64.8096 53.3396 55.533 53.3396 44.0896C53.3396 32.6463 61.4796 25.7746 73.5046 24.8496L72.7646 23.3696C58.1496 25.7746 47.6046 31.3537 47.6046 46.6796C47.6046 53.0101 46.7374 52.3704 50.1946 57.0396L53.6438 58.72C54.643 58.8593 55.8214 59.1625 57.4096 60.5546C60.9246 67.2146 69.6472 70.3596 74.7996 70.3596Z"
          fill="#D9EBFF"/>
    <path d="M47.9746 63.1453C42.0546 64.4773 40.328 70.1136 40.2046 72.7653C38.8726 72.0253 36.6896 71.5936 35.7646 71.4703C35.7646 66.5863 38.2313 62.7753 39.4646 61.4803L45.5696 57.7803H50.5646L56.4846 59.4453L59.8146 63.1453L60.7396 67.0303C59.0746 64.6253 55.3746 61.4803 47.9746 63.1453Z"
          fill="#D9EBFF"/>
    <path d="M38.8403 65.0922L38.8403 65.0923C37.9028 66.8022 37.4017 68.7414 37.3901 70.7049C44.1032 71.3765 49.362 77.0568 49.362 83.9437C49.362 84.6804 48.7649 85.2777 48.028 85.2777C47.2912 85.2777 46.6941 84.6804 46.6941 83.9437C46.6941 78.0953 41.949 73.3346 36.1068 73.307L38.8403 65.0922ZM38.8403 65.0922C39.1944 64.4463 38.958 63.6356 38.312 63.2813L38.312 63.2812M38.8403 65.0922L38.312 63.2812M38.312 63.2812C37.6658 62.9269 36.8553 63.1636 36.5009 63.8094L36.5009 63.8095M38.312 63.2812L36.5009 63.8095M36.5009 63.8095C35.3481 65.9117 34.7337 68.294 34.722 70.704C28.0089 71.3754 22.75 77.0565 22.75 83.9437C22.75 91.2808 28.7188 97.2496 36.0559 97.2496H38.383C39.1199 97.2496 39.717 96.6523 39.717 95.9156C39.717 95.1789 39.1198 94.5816 38.383 94.5816H36.0559M36.5009 63.8095L36.0559 94.5816M36.0559 94.5816C30.1903 94.5816 25.418 89.8093 25.418 83.9437M36.0559 94.5816L25.418 83.9437M25.418 83.9437C25.418 78.0828 30.1828 73.3134 36.042 73.3057M25.418 83.9437L36.042 73.3057M36.042 73.3057C36.0617 73.3064 36.0835 73.307 36.1062 73.307L36.042 73.3057Z"
          fill="#61A1F4" stroke="#61A1F4" stroke-width="0.5"/>
    <path d="M70.9152 73.6903C64.5512 67.9183 59.6302 72.5186 57.9652 75.5403L57.4102 73.1353L59.6302 69.4353L63.5152 67.0303L68.6952 68.1403L70.9152 71.4703L77.7602 69.4353L80.1652 70.3603L84.6052 73.6903L85.1602 77.3903C82.2002 70.5823 74.4302 72.0869 70.9152 73.6903Z"
          fill="#D9EBFF"/>
    <path d="M97.2503 47.9858V47.9863V48.028C97.2503 53.2335 95.6799 58.2338 92.7093 62.487L92.5043 62.3439L92.7093 62.487C90.3126 65.9181 87.149 68.666 83.4675 70.5441C85.0639 71.7862 86.3154 73.4711 87.027 75.4482C92.7248 75.8045 97.2503 80.5523 97.2503 86.3384C97.2503 92.3554 92.3555 97.25 86.3388 97.25H42.7193C41.9824 97.25 41.3853 96.6527 41.3853 95.916C41.3853 95.1793 41.9824 94.582 42.7193 94.582H79.1994C76.891 92.5804 75.427 89.6278 75.427 86.3384C75.427 85.6017 76.0241 85.0044 76.761 85.0044C77.4979 85.0044 78.095 85.6017 78.095 86.3384C78.095 90.8837 81.7932 94.582 86.3386 94.582C90.8841 94.582 94.5825 90.8837 94.5825 86.3384C94.5825 81.793 90.8841 78.0947 86.3388 78.0947C86.3109 78.0947 86.2485 78.0963 86.1889 78.0981L86.1134 78.1005L86.0899 78.1013L86.0835 78.1015L86.0819 78.1016L86.0815 78.1016L86.0813 78.1016L86.0796 78.1017C85.4493 78.1194 84.9016 77.7045 84.7467 77.0997C83.8119 73.4563 80.5284 70.9115 76.7611 70.9115C75.0659 70.9115 73.4371 71.4236 72.0491 72.3928C71.7269 72.6181 71.3219 72.6891 70.9428 72.5885C70.5633 72.4878 70.2472 72.2247 70.0795 71.8696C69.1162 69.8333 67.0388 68.5172 64.7892 68.5172C64.0148 68.5172 63.2623 68.6667 62.5513 68.9613L97.2503 47.9858ZM97.2503 47.9858C97.2485 46.9937 96.5678 46.1543 95.5973 45.9478L95.5972 45.9478M97.2503 47.9858L95.5972 45.9478M95.5972 45.9478C94.6196 45.7401 93.6496 46.2324 93.2411 47.1444C90.7435 52.7198 85.1844 56.306 79.0758 56.2714H79.0756M95.5972 45.9478L79.0756 56.2714M79.0756 56.2714C70.6566 56.2289 63.7714 49.3438 63.729 40.9247C63.698 34.8169 67.2807 29.2566 72.8562 26.7593L72.8562 26.7593M79.0756 56.2714L72.8562 26.7593M72.8562 26.7593C73.768 26.3508 74.2607 25.3805 74.0527 24.4031L74.0527 24.403M72.8562 26.7593L74.0527 24.403M74.0527 24.403C73.8459 23.4324 73.0066 22.7516 72.0127 22.75H72.0123M74.0527 24.403L72.0123 22.75M72.0123 22.75H71.9722C58.0339 22.75 46.6945 34.0893 46.6943 48.0276C46.6942 50.8812 47.1641 53.6614 48.0898 56.3182M72.0123 22.75L39.4194 61.8843M41.1361 61.7961C40.6913 62.1969 40.0058 62.1616 39.605 61.7169C39.2043 61.2723 39.2397 60.5868 39.6842 60.186C42.0445 58.0581 45.0272 56.7934 48.1762 56.5624C48.147 56.4811 48.1182 56.3997 48.0898 56.3182M41.1361 61.7961L71.9722 23C58.172 23 46.9445 34.2273 46.9443 48.0276C46.9442 50.8764 47.417 53.6507 48.3484 56.3003C48.262 56.3055 48.1758 56.3115 48.0898 56.3182M41.1361 61.7961C43.3579 59.7927 46.2309 58.6895 49.2255 58.6895C54.5642 58.6895 59.1871 62.1269 60.7547 67.1475L41.1361 61.7961ZM48.0898 56.3182C44.9107 56.5665 41.9015 57.8504 39.5168 60.0003C38.9697 60.4936 38.9261 61.3372 39.4194 61.8843M39.4194 61.8843C39.9127 62.4317 40.7563 62.4749 41.3034 61.9818L41.3035 61.9818C43.4794 60.0199 46.2927 58.9395 49.2255 58.9395C54.3867 58.9395 58.8635 62.2188 60.4549 67.0315C57.912 68.5337 56.272 71.2953 56.272 74.3664C56.272 75.1031 56.8691 75.7004 57.606 75.7004C58.3429 75.7004 58.94 75.1031 58.94 74.3664C58.94 71.9789 60.3828 69.8641 62.5337 68.968L62.5357 68.9673C62.5395 68.966 62.5448 68.964 62.5509 68.9615L39.4194 61.8843ZM49.3624 48.0278C49.3626 36.405 58.1785 26.8019 69.4745 25.5551C64.2622 28.8583 61.0292 34.6509 61.061 40.9382C61.1109 50.8148 69.1855 58.8894 79.0621 58.9394H79.0622L79.154 58.9397C85.4026 58.9393 91.1528 55.7159 94.4406 50.5335C93.521 58.6373 88.2004 65.7921 80.5863 68.9354C79.3888 68.4876 78.0982 68.2437 76.7611 68.2437C75.0007 68.2437 73.2926 68.6614 71.7504 69.4617C70.1711 67.2304 67.5724 65.8494 64.7892 65.8494C64.1621 65.8494 63.5438 65.9169 62.9398 66.0511C62.0495 63.4751 60.4303 61.1676 58.2856 59.4496C56.1794 57.7624 53.6265 56.7026 50.9583 56.3795C49.8992 53.7246 49.3623 50.9193 49.3624 48.0278Z"
          fill="#61A1F4" stroke="#61A1F4" stroke-width="0.5"/>
    <path d="M45.6338 29.9568H46.9443V31.2673C46.9443 31.8659 47.4294 32.3513 48.0282 32.3513C48.627 32.3513 49.1122 31.8659 49.1122 31.2673V29.9568H50.4225C51.0213 29.9568 51.5065 29.4715 51.5065 28.8728C51.5065 28.2742 51.0213 27.7888 50.4225 27.7888H49.1122V26.4785C49.1122 25.8799 48.627 25.3945 48.0282 25.3945C47.4294 25.3945 46.9443 25.8799 46.9443 26.4785V27.7888H45.6338C45.035 27.7888 44.5498 28.2742 44.5498 28.8728C44.5498 29.4715 45.035 29.9568 45.6338 29.9568Z"
          fill="#F29021"/>
    <path d="M36.0557 43.1259C36.6545 43.1259 37.1396 42.6406 37.1396 42.0419V39.6475C37.1396 39.0488 36.6545 38.5635 36.0557 38.5635C35.4569 38.5635 34.9717 39.0488 34.9717 39.6475V42.0419C34.9717 42.6406 35.4569 43.1259 36.0557 43.1259Z"
          fill="#F29021"/>
    <path d="M36.0557 52.704C36.6545 52.704 37.1396 52.2187 37.1396 51.62V49.2256C37.1396 48.6269 36.6545 48.1416 36.0557 48.1416C35.4569 48.1416 34.9717 48.6269 34.9717 49.2256V51.62C34.9717 52.2187 35.4569 52.704 36.0557 52.704Z"
          fill="#F29021"/>
    <path d="M39.6475 46.7178H42.0418C42.6406 46.7178 43.1257 46.2324 43.1257 45.6338C43.1257 45.0351 42.6406 44.5498 42.0418 44.5498H39.6475C39.0487 44.5498 38.5635 45.0351 38.5635 45.6338C38.5635 46.2324 39.0487 46.7178 39.6475 46.7178Z"
          fill="#F29021"/>
    <path d="M30.0703 46.7178H32.4646C33.0634 46.7178 33.5486 46.2324 33.5486 45.6338C33.5486 45.0351 33.0634 44.5498 32.4646 44.5498H30.0703C29.4715 44.5498 28.9863 45.0351 28.9863 45.6338C28.9863 46.2324 29.4715 46.7178 30.0703 46.7178Z"
          fill="#F29021"/>
    <path d="M83.9443 35.9428C84.5431 35.9428 85.0283 35.4575 85.0283 34.8588V32.4644C85.0283 31.8657 84.5431 31.3804 83.9443 31.3804C83.3455 31.3804 82.8604 31.8657 82.8604 32.4644V34.8588C82.8604 35.4575 83.3455 35.9428 83.9443 35.9428Z"
          fill="#F29021"/>
    <path d="M83.9443 45.5204C84.5431 45.5204 85.0283 45.0351 85.0283 44.4364V42.042C85.0283 41.4433 84.5431 40.958 83.9443 40.958C83.3455 40.958 82.8604 41.4433 82.8604 42.042V44.4364C82.8604 45.0351 83.3455 45.5204 83.9443 45.5204Z"
          fill="#F29021"/>
    <path d="M87.5352 39.5342H89.9295C90.5283 39.5342 91.0134 39.0488 91.0134 38.4502C91.0134 37.8515 90.5283 37.3662 89.9295 37.3662H87.5352C86.9364 37.3662 86.4512 37.8515 86.4512 38.4502C86.4512 39.049 86.9364 39.5342 87.5352 39.5342Z"
          fill="#F29021"/>
    <path d="M77.958 39.5342H80.3523C80.9511 39.5342 81.4363 39.0488 81.4363 38.4502C81.4363 37.8515 80.9511 37.3662 80.3523 37.3662H77.958C77.3592 37.3662 76.874 37.8515 76.874 38.4502C76.874 39.049 77.3592 39.5342 77.958 39.5342Z"
          fill="#F29021"/>
</svg>
