<svg width="120" height="120" viewBox="0 0 120 120" fill="none" xmlns="http://www.w3.org/2000/svg">
<circle cx="60" cy="60" r="60" fill="#F7FAFF"/>
<path d="M93.9707 92.9454H85.4801C88.6323 90.1345 88.3591 84.5771 85.1438 81.9099C85.8242 81.943 86.5995 81.7111 86.5995 80.8846C86.5995 79.2948 86.0673 77.9859 85.0179 76.9947C84.4064 76.4171 83.6785 76.0144 82.9422 75.7332C83.2147 75.2846 83.3718 74.7584 83.3718 74.1963C83.3718 72.5592 82.0401 71.2273 80.4031 71.2273C78.7661 71.2273 77.4344 72.5592 77.4344 74.1963C77.4344 74.5234 77.4884 74.8379 77.5864 75.1325H75.9041C75.9177 71.8916 76.2364 68.4558 75.4131 65.2916C73.9395 59.6274 69.3541 55.1781 63.6825 53.7825V51.34C67.4988 49.8583 70.2125 46.1488 70.2125 41.8149C70.2125 38.1912 68.2284 34.7813 65.0968 32.9689C65.4358 32.2365 65.6125 31.4384 65.6125 30.6151C65.6126 27.5189 63.094 25 59.998 25C56.9021 25 54.3834 27.5189 54.3834 30.615C54.3834 31.4328 54.5621 32.2337 54.901 32.9677C51.8454 34.7353 49.7835 38.0377 49.7835 41.8148C49.7835 46.0777 52.4089 49.7373 56.1268 51.266V53.819C52.8888 54.5869 50.7889 56.1716 50.694 56.2442C50.6937 56.2443 50.6936 56.2446 50.6933 56.2448C49.9275 56.7848 49.2021 57.3955 48.5377 58.0621C47.6259 58.9767 49.0476 60.4553 49.9901 59.5097C50.2975 59.2013 50.6203 58.9072 50.9547 58.6279C52.711 61.6093 56.112 63.5387 59.8044 63.5387C63.4803 63.5387 66.8776 61.534 68.6328 58.4399C71.9552 61.086 73.8958 65.0926 73.8776 69.385L73.8534 75.1323H72.5633C71.2437 75.1323 71.2415 77.183 72.5633 77.183H77.9918V80.2176C76.6896 80.3208 75.3959 80.5212 74.1171 80.7855C73.545 80.9037 71.6184 81.3245 71.6025 81.3405C71.5836 81.3594 69.1385 80.2721 69.2499 76.4869C69.2502 76.4769 69.2503 76.4668 69.2503 76.4567V67.1994C69.2503 65.8799 67.1997 65.8777 67.1997 67.1994V76.4419C67.1178 79.3563 68.2287 81.1229 69.2409 82.1213C66.6617 82.9934 63.5578 84.2955 60.0705 86.2385C56.4746 84.2311 53.2382 82.8795 50.4601 81.9718C51.4472 80.9587 52.4912 79.2127 52.4118 76.3839V67.1414C52.4118 65.8219 50.3611 65.8197 50.3611 67.1414V76.3987C50.3611 76.4088 50.3613 76.4188 50.3615 76.4289C50.4634 79.8866 48.4253 81.0735 48.0538 81.2605C45.4294 80.568 43.3483 80.2962 41.9263 80.1979V77.183H47.3548C48.6745 77.183 48.6835 75.1323 47.3548 75.1323H45.8632C45.8574 74.68 45.8488 74.2272 45.8402 73.7848C45.7716 70.2761 45.7067 66.9619 47.0545 63.8066C47.5729 62.5932 45.6877 61.7854 45.1687 63.001C43.6478 66.5614 43.72 70.2539 43.7898 73.8248C43.7983 74.2549 43.8066 74.6949 43.8123 75.1322H42.3314C42.4296 74.8377 42.4834 74.5232 42.4834 74.196C42.4834 72.5589 41.1517 71.227 39.5147 71.227C37.8778 71.227 36.5461 72.5589 36.5461 74.196C36.5461 74.7582 36.7031 75.2842 36.9756 75.7328C36.2394 76.014 35.5116 76.4167 34.9001 76.9943C33.8507 77.9855 33.3185 79.2944 33.3185 80.8842C33.3185 81.7724 34.17 81.941 34.8704 81.9095C31.7548 84.8477 31.2011 89.8655 34.495 92.945H26.0253C25.4591 92.945 25 93.404 25 93.9703C25 94.5365 25.4591 94.9956 26.0253 94.9956C26.0253 94.9956 70.9349 94.9824 71.5448 94.9824C72.7768 94.9824 72.5661 92.945 71.3781 92.945C71.3781 92.945 57.1626 92.8806 53.5729 92.8925C61.3487 87.1249 67.9449 84.5222 72.2196 83.3509C76.4464 82.1926 79.2393 82.1727 79.9864 82.2052C83.0195 82.3374 85.5207 84.1833 85.6599 87.4262C85.7813 90.2528 83.5369 92.6636 80.7591 92.945H77.4924C76.2095 92.945 76.1132 94.8749 77.3782 94.9912C77.5492 95.007 93.9707 94.9956 93.9707 94.9956C95.2902 94.996 95.2924 92.9454 93.9707 92.9454ZM56.4341 30.615C56.4341 28.6496 58.0328 27.0507 59.998 27.0507C61.9632 27.0507 63.5619 28.6496 63.5619 30.615C63.5619 31.1439 63.4453 31.6556 63.2252 32.1247C62.21 31.7857 61.1257 31.5992 59.998 31.5992C58.8701 31.5992 57.7856 31.7857 56.7704 32.1248C56.5504 31.655 56.4341 31.1408 56.4341 30.615ZM59.998 33.6498C62.4319 33.6498 64.619 34.7219 66.116 36.4171C64.1332 40.1345 61.238 42.2077 57.5002 42.5801C54.4942 42.88 52.0205 41.9311 51.9885 41.9187C51.9381 41.8988 51.8868 41.8845 51.8355 41.873C51.8354 41.8535 51.834 41.8343 51.834 41.8148C51.8342 37.3126 55.4964 33.6498 59.998 33.6498ZM52.1698 44.1275C53.0683 44.377 54.5434 44.6898 56.2956 44.6898C56.7209 44.6898 57.1629 44.6713 57.6165 44.6291C60.5562 44.355 64.5026 43.0062 67.3804 38.3327C67.8808 39.3897 68.162 40.5697 68.162 41.8148C68.162 46.3169 64.4996 49.9796 59.9981 49.9796C56.2996 49.9796 53.1696 47.5065 52.1698 44.1275ZM59.8046 61.4882C56.7688 61.4882 53.9868 59.8851 52.627 57.4257C53.5119 56.8978 55.1921 56.0452 57.3331 55.6617C57.8218 55.5742 58.1776 55.149 58.1776 54.6525V51.8645C58.7688 51.9714 59.3765 52.0302 59.9981 52.0302C60.5543 52.0302 61.0998 51.9839 61.6321 51.8979V54.6075C61.6321 55.0998 61.982 55.5226 62.4656 55.6148C63.5975 55.8304 65.2335 56.2906 66.9386 57.271C65.5717 59.824 62.8056 61.4882 59.8046 61.4882ZM84.4248 79.8593H80.0423V77.1831C81.0616 77.269 82.626 77.5562 83.6099 78.4856C84.0106 78.8641 84.2808 79.3181 84.4248 79.8593ZM80.4034 73.2781C80.9096 73.2781 81.3214 73.69 81.3214 74.1964C81.3214 74.7028 80.9096 75.1146 80.4034 75.1146C79.8971 75.1146 79.4853 74.7027 79.4853 74.1964C79.4853 73.6902 79.8971 73.2781 80.4034 73.2781ZM39.5149 73.2781C40.0211 73.2781 40.4329 73.69 40.4329 74.1964C40.4329 74.7028 40.0211 75.1146 39.5149 75.1146C39.0086 75.1146 38.5969 74.7027 38.5969 74.1964C38.5969 73.6902 39.0086 73.2781 39.5149 73.2781ZM36.3037 78.49C37.2939 77.5509 38.857 77.2645 39.8758 77.1807V79.8593H35.4934C35.6368 79.3202 35.9054 78.8676 36.3037 78.49ZM35.3941 84.2925C36.2103 83.2389 37.8508 82.2819 39.9942 82.2116C40.6963 82.1885 47.7192 81.9824 57.9978 87.4445C57.688 87.6322 57.3762 87.8236 57.0612 88.0214C56.0047 87.9521 45.9201 87.4408 43.183 92.9138C41.7403 92.9087 40.2973 92.8979 38.8633 92.8777C34.8027 92.4782 32.9949 87.3901 35.3941 84.2925ZM50.3414 92.9052C48.7891 92.9115 47.2194 92.9167 45.6424 92.9173C47.0076 91.3849 49.4464 90.6762 51.4441 90.3492C52.3292 90.2043 53.1946 90.1224 53.9685 90.0784C52.8755 90.8459 51.7586 91.6727 50.6202 92.5661C50.4995 92.6607 50.4069 92.7772 50.3414 92.9052Z" fill="#61A1F4"/>
<circle cx="44.4246" cy="52.1248" r="1.575" fill="#F29021"/>
<circle cx="83.9752" cy="62.275" r="2.275" fill="#F29021"/>
<circle cx="86.775" cy="40.5748" r="0.525" fill="#F29021"/>
<circle cx="72.7748" cy="32.5248" r="1.225" fill="#F29021"/>
<circle cx="78.025" cy="50.7252" r="2.275" fill="#F29021"/>
<circle cx="33.5748" cy="62.275" r="2.275" fill="#F29021"/>
<circle cx="34.4504" cy="41.0998" r="1.05" fill="#F29021"/>
<circle cx="46.0002" cy="32.3498" r="1.05" fill="#F29021"/>
</svg>
