<svg width="88" height="32" viewBox="0 0 88 32" fill="none" xmlns="http://www.w3.org/2000/svg">
<path d="M6.6664 17.3333L83 17.3333L78.16 23.1467C77.9337 23.419 77.8248 23.77 77.8573 24.1226C77.8898 24.4751 78.061 24.8004 78.3333 25.0267C78.6056 25.253 78.9567 25.3619 79.3092 25.3294C79.6618 25.2969 79.987 25.1256 80.2133 24.8533L86.88 16.8533C86.9249 16.7897 86.965 16.7229 87 16.6533C87 16.5867 87 16.5467 87.0933 16.48C87.1538 16.3271 87.1854 16.1644 87.1867 16C87.1854 15.8356 87.1538 15.6729 87.0933 15.52C87.0933 15.4533 87.0933 15.4133 87 15.3467C86.965 15.2772 86.9249 15.2103 86.88 15.1467L80.2133 7.14668C80.088 6.99617 79.931 6.87513 79.7535 6.79217C79.5761 6.7092 79.3825 6.66636 79.1867 6.66668C78.8751 6.66607 78.5732 6.77457 78.3333 6.97334C78.1983 7.08527 78.0867 7.22274 78.0049 7.37787C77.9231 7.533 77.8727 7.70274 77.8566 7.87738C77.8405 8.05201 77.859 8.22811 77.9111 8.39558C77.9631 8.56305 78.0477 8.71861 78.16 8.85334L83 14.6667L6.6664 14.6667C6.31278 14.6667 5.97364 14.8072 5.7236 15.0572C5.47355 15.3073 5.33307 15.6464 5.33307 16C5.33307 16.3536 5.47355 16.6928 5.7236 16.9428C5.97364 17.1929 6.31278 17.3333 6.6664 17.3333Z" fill="#F4FAFE"/>
</svg>
