<svg width="24" height="25" viewBox="0 0 24 25" fill="none" xmlns="http://www.w3.org/2000/svg">
<path d="M9.99981 19.5C9.76615 19.5005 9.53972 19.4191 9.35981 19.27C9.25855 19.1861 9.17485 19.083 9.11349 18.9666C9.05214 18.8503 9.01435 18.723 9.00227 18.592C8.99019 18.461 9.00408 18.3289 9.04312 18.2033C9.08217 18.0777 9.1456 17.9611 9.22981 17.86L13.7098 12.5L9.38981 7.13C9.30674 7.02771 9.24471 6.91002 9.20728 6.78368C9.16985 6.65734 9.15775 6.52485 9.17169 6.39382C9.18563 6.26279 9.22533 6.13581 9.2885 6.02017C9.35168 5.90454 9.43708 5.80252 9.53981 5.72C9.64327 5.62897 9.76444 5.5603 9.8957 5.51831C10.027 5.47632 10.1655 5.46192 10.3026 5.476C10.4397 5.49009 10.5724 5.53236 10.6924 5.60016C10.8123 5.66796 10.917 5.75983 10.9998 5.87L15.8298 11.87C15.9769 12.0489 16.0573 12.2734 16.0573 12.505C16.0573 12.7366 15.9769 12.9611 15.8298 13.14L10.8298 19.14C10.7295 19.261 10.6021 19.3567 10.4578 19.4192C10.3136 19.4818 10.1567 19.5095 9.99981 19.5Z" fill="#F4FAFE"/>
</svg>
