<svg width="29" height="20" viewBox="0 0 29 20" fill="none" xmlns="http://www.w3.org/2000/svg">
<path d="M2 11.3333L23.9999 11.3333L19.1599 17.1466C18.9335 17.4189 18.8247 17.77 18.8572 18.1225C18.8897 18.4751 19.0609 18.8003 19.3332 19.0266C19.6055 19.2529 19.9565 19.3618 20.3091 19.3293C20.6617 19.2968 20.9869 19.1256 21.2132 18.8533L27.8799 10.8533C27.9247 10.7897 27.9648 10.7228 27.9999 10.6533C27.9999 10.5866 27.9999 10.5466 28.0932 10.48C28.1536 10.3271 28.1853 10.1643 28.1865 9.99996C28.1853 9.83557 28.1536 9.67284 28.0932 9.51996C28.0932 9.45329 28.0932 9.41329 27.9999 9.34662C27.9648 9.2771 27.9247 9.21026 27.8799 9.14662L21.2132 1.14662C21.0878 0.996114 20.9308 0.875074 20.7534 0.792112C20.576 0.70915 20.3824 0.666305 20.1865 0.666623C19.875 0.666015 19.5731 0.774514 19.3332 0.973289C19.1982 1.08522 19.0866 1.22269 19.0048 1.37782C18.923 1.53295 18.8726 1.70269 18.8565 1.87733C18.8404 2.05196 18.8589 2.22806 18.9109 2.39553C18.963 2.563 19.0476 2.71856 19.1599 2.85329L23.9999 8.66662L2 8.66662C1.64638 8.66662 1.30725 8.8071 1.0572 9.05715C0.807151 9.3072 0.666673 9.64634 0.666673 9.99996C0.666673 10.3536 0.807151 10.6927 1.0572 10.9428C1.30725 11.1928 1.64638 11.3333 2 11.3333Z" fill="#F4FAFE"/>
</svg>
