<svg width="22" height="29" viewBox="0 0 22 29" fill="none" xmlns="http://www.w3.org/2000/svg">
<path d="M5.04102 27.944V9.74121H19.8833L20.4434 27.944H5.04102Z" fill="#E9F4FF"/>
<path fill-rule="evenodd" clip-rule="evenodd" d="M8.17706 0.534742C7.19772 0.67017 6.06054 1.30016 5.4533 2.0437C5.05342 2.53339 4.7445 3.12383 4.532 3.80474C4.48414 3.95811 4.45466 4.72676 4.43339 6.37546L4.40303 8.72739L2.64428 8.74183L0.885583 8.75621L0.850742 9.31614C0.797906 10.1651 0 27.8927 0 28.2171V28.5H10.7204H21.4408V28.2171C21.4408 27.8927 20.6429 10.1652 20.5901 9.31619L20.5553 8.75632L18.9333 8.74188L17.3113 8.72739L17.2809 6.37546C17.2597 4.72676 17.2302 3.95811 17.1823 3.80474C16.7592 2.44888 15.9922 1.51325 14.85 0.959785C14.1998 0.644736 13.8314 0.552628 13.0613 0.512864C12.3059 0.473811 11.7576 0.547815 11.1425 0.77185L10.7167 0.926913L10.3494 0.788313C9.68918 0.539282 8.85129 0.441486 8.17706 0.534742ZM13.535 2.16556C14.4834 2.41262 15.2717 3.18919 15.5558 4.15655C15.6292 4.40629 15.6431 4.79611 15.6431 6.60524V8.75681L14.4261 8.7421L13.2091 8.72739L13.1785 6.40281C13.15 4.23405 13.1401 4.05339 13.0317 3.70815C12.8777 3.21769 12.6911 2.81732 12.449 2.45829C12.2517 2.16561 12.2513 2.16364 12.3743 2.12831C12.6051 2.06196 13.212 2.08144 13.535 2.16556ZM9.13424 2.19504C9.13424 2.2272 9.0587 2.36334 8.96632 2.49756C8.75552 2.80403 8.559 3.23098 8.40913 3.70815C8.30072 4.05339 8.29088 4.23405 8.26233 6.40281L8.23175 8.72739L7.1515 8.74221L6.07126 8.75703V6.60534C6.07126 4.28924 6.0816 4.18712 6.37526 3.60729C6.64119 3.08205 7.2726 2.52344 7.82388 2.32565C8.31177 2.15063 9.13424 2.06864 9.13424 2.19504ZM10.9328 3.16764C11.1596 3.45403 11.3566 3.85867 11.4572 4.24477C11.5252 4.50617 11.5409 4.95686 11.5409 6.66042V8.75473H10.7204H9.89998V6.66042C9.89998 4.39907 9.91798 4.22082 10.2043 3.65088C10.3541 3.35257 10.6484 2.95696 10.7204 2.95696C10.7455 2.95696 10.841 3.0518 10.9328 3.16764ZM4.41687 18.6137L4.40303 26.8318L3.04274 26.8464L1.68245 26.861L1.71663 26.3542C1.7355 26.0753 1.89899 22.4998 2.08003 18.4086C2.26108 14.3173 2.42265 10.8407 2.43917 10.6828L2.4692 10.3956H3.44995H4.43071L4.41687 18.6137ZM8.2591 11.2161V12.0365H9.07954H9.89998V11.2161V10.3956H12.7715H15.6431V11.2161V12.0365H16.4635H17.2839V11.2161V10.3956H18.1278H18.9716L19.0017 10.6828C19.0182 10.8407 19.1798 14.3173 19.3608 18.4086C19.5419 22.4998 19.7053 26.0749 19.7241 26.3532L19.7583 26.8591H12.9148H6.07126V18.6274V10.3956H7.16518H8.2591V11.2161Z" fill="#61A1F4"/>
</svg>
