<svg width="27" height="29" viewBox="0 0 27 29" fill="none" xmlns="http://www.w3.org/2000/svg">
<path d="M1.2998 28.5629L1.3709 28.4308L1.57992 28.5433L10.7727 28.5592C14.9219 28.5663 17.237 28.5678 18.5527 28.5567C19.2109 28.5512 19.6168 28.5425 19.8762 28.5299C20.1385 28.5172 20.2401 28.5008 20.2974 28.4843C20.3703 28.4634 20.4221 28.4455 20.5012 28.394C20.5859 28.3388 20.7029 28.2443 20.8983 28.0647C21.2884 27.7061 21.9659 27.0322 23.2802 25.7212C24.3008 24.7032 24.9867 24.0098 25.4312 23.543C25.6536 23.3095 25.8142 23.1342 25.9256 23.004C26.0402 22.8702 26.0939 22.7943 26.1128 22.7565L26.247 22.8235L26.1128 22.7565L26.2465 22.4886V11.9079C26.2465 7.18515 26.2439 4.52572 26.2309 3.02202C26.2244 2.26976 26.2153 1.80881 26.2027 1.524C26.1964 1.38139 26.1894 1.28567 26.1817 1.22083C26.1738 1.15315 26.1663 1.1301 26.1644 1.12547L26.1643 1.12545C26.0592 0.873721 25.9064 0.708392 25.6291 0.559192L25.7002 0.427122L25.6291 0.559186L25.4201 0.446714L13.5907 0.436514C10.3273 0.433698 7.34368 0.436362 5.16549 0.442924C4.07636 0.446204 3.18881 0.450459 2.56842 0.455488C2.25816 0.458003 2.01509 0.460708 1.84715 0.463576C1.76308 0.465012 1.69847 0.466478 1.6539 0.467959C1.63149 0.468704 1.61512 0.469421 1.60426 0.470079L1.6028 0.470185C1.21173 0.592959 0.968193 0.808161 0.835651 1.12545M1.2998 28.5629L0.835645 1.12546L0.835651 1.12545M1.2998 28.5629L1.37089 28.4308C1.09364 28.2816 0.940802 28.1163 0.835652 27.8645L0.835681 27.8646C0.835694 27.8646 0.833219 27.8581 0.829754 27.8399C0.826196 27.8212 0.822332 27.7944 0.818445 27.756C0.810658 27.6791 0.80354 27.564 0.797222 27.391C0.784606 27.0456 0.77551 26.4798 0.76902 25.5501C0.756044 23.6914 0.753516 20.3853 0.753516 14.495C0.753516 8.60472 0.756044 5.29854 0.76902 3.43987M1.2998 28.5629L0.76902 3.43987M0.835651 1.12545C0.83567 1.1254 0.83568 1.12538 0.835681 1.12538M0.835651 1.12545L0.835681 1.12538M14.0041 16.0592L14.0041 16.0592C13.9499 16.03 13.9154 16.0132 13.8524 15.9991C13.7834 15.9837 13.6778 15.9715 13.4844 15.9626C13.0984 15.9449 12.3976 15.9416 11.017 15.9367C10.1517 15.9336 9.42728 15.937 8.9024 15.9458C8.63983 15.9502 8.42808 15.9559 8.27393 15.9628C8.19674 15.9663 8.13513 15.97 8.08932 15.9739C8.06639 15.9758 8.04843 15.9777 8.03502 15.9795C8.02101 15.9814 8.01599 15.9826 8.01653 15.9824M14.0041 16.0592L8.01663 15.9824C8.01658 15.9824 8.01655 15.9824 8.01653 15.9824M14.0041 16.0592C14.4146 16.2801 14.6215 16.6223 14.6215 17.0682C14.6215 17.5256 14.3648 17.9278 13.9516 18.1191L14.0146 18.2552M14.0041 16.0592L14.0146 18.2552M8.01653 15.9824C7.97521 15.9936 7.90259 16.0273 7.81598 16.0797M8.01653 15.9824L7.81598 16.0797M14.0146 18.2552L13.9516 18.1191C13.8683 18.1577 13.7824 18.1855 13.3707 18.2006C12.9599 18.2157 12.2468 18.2181 10.9234 18.2187L8.10985 18.22L7.81985 18.0755C7.10298 17.7182 6.97955 16.7789 7.57809 16.252M14.0146 18.2552L7.57809 16.252M0.76902 3.43987C0.77551 2.51018 0.784606 1.9444 0.797222 1.59898M0.76902 3.43987L0.797222 1.59898M0.797222 1.59898C0.80354 1.42601 0.810658 1.31086 0.818445 1.23399M0.797222 1.59898L0.818445 1.23399M0.818445 1.23399C0.822332 1.19561 0.826196 1.16874 0.829754 1.15009M0.818445 1.23399L0.829754 1.15009M0.829754 1.15009C0.833219 1.13192 0.835695 1.12538 0.835681 1.12538M0.829754 1.15009L0.835681 1.12538M7.57809 16.252C7.64562 16.1925 7.73191 16.1306 7.81598 16.0797M7.57809 16.252L7.81598 16.0797M1.59485 0.470763L1.59526 0.470733L1.59485 0.470763ZM23.8254 21.0932L23.973 21.0911L23.9732 20.9435L23.9886 11.9069L24.0039 2.87024L24.0042 2.71999H23.8539H13.5002H3.14648H2.99648V2.86999V14.495V26.12V26.27H3.14648H10.8936H18.6407H18.7894L18.7907 26.1213L18.8087 24.0173C18.8185 22.8718 18.8238 22.3151 18.8688 21.9934C18.8906 21.8373 18.9205 21.7486 18.9587 21.6794C18.9987 21.6069 19.0522 21.5468 19.1429 21.4471C19.2218 21.3604 19.2663 21.314 19.3251 21.279C19.3821 21.245 19.4634 21.216 19.6197 21.194C19.9399 21.1488 20.5103 21.1399 21.6759 21.1235L23.8254 21.0932ZM8.04027 13.0069L8.04024 13.0069C7.8734 12.9649 7.69208 12.8513 7.53917 12.6954C7.38637 12.5395 7.2747 12.3544 7.23365 12.1833C7.10705 11.6556 7.34069 11.1533 7.82276 10.9131L8.10988 10.77H13.5H18.8901L19.1772 10.9131C19.8562 11.2514 20.0119 12.0774 19.493 12.6669L19.6055 12.766L19.4929 12.6669C19.4727 12.6899 19.4549 12.7106 19.4386 12.7294C19.3614 12.819 19.3213 12.8655 19.2431 12.9058C19.1456 12.9561 18.9809 12.9972 18.6191 13.0244C17.9572 13.0741 16.7134 13.0739 14.2058 13.0736C13.9857 13.0735 13.7558 13.0735 13.5158 13.0735C11.6137 13.0735 10.2878 13.0687 9.41205 13.0574C8.97404 13.0517 8.64968 13.0445 8.42253 13.0354C8.30886 13.0309 8.22073 13.026 8.15544 13.0208C8.08691 13.0153 8.05241 13.01 8.04027 13.0069Z" fill="transparent" stroke="white" stroke-width="0.6"/>
</svg>
