<svg width="158" height="167" viewBox="0 0 158 167" fill="none" xmlns="http://www.w3.org/2000/svg">
<g clip-path="url(#clip0_199_415)">
<path fill-rule="evenodd" clip-rule="evenodd" d="M46.3318 1.1921C46.9224 1.07452 47.5346 1.13486 48.091 1.3655C48.6475 1.59615 49.1233 1.98679 49.458 2.48797C49.7926 2.98914 49.9712 3.57845 49.9712 4.18137C49.9712 4.98982 49.6503 5.76505 49.0791 6.33659C48.508 6.90813 47.7334 7.22915 46.9258 7.22915C46.3236 7.22915 45.7347 7.05043 45.2339 6.71558C44.7331 6.38073 44.3428 5.90476 44.1122 5.34781C43.8817 4.79087 43.8214 4.178 43.9389 3.5867C44.0565 2.99538 44.3465 2.4523 44.7724 2.02611C45.1983 1.5999 45.741 1.30968 46.3318 1.1921ZM48.4739 0.441709C47.7347 0.135299 46.9213 0.055126 46.1365 0.211338C45.3518 0.367544 44.6308 0.753098 44.0651 1.31923C43.4993 1.88538 43.1142 2.60664 42.9581 3.39173C42.802 4.17684 42.8821 4.99065 43.1882 5.73027C43.4944 6.46987 44.0128 7.10206 44.6781 7.54688C45.3434 7.9917 46.1257 8.22915 46.9258 8.22915C47.9989 8.22915 49.0278 7.80261 49.7865 7.04347C50.5451 6.28432 50.9712 5.25479 50.9712 4.18137C50.9712 3.38092 50.7341 2.59834 50.2896 1.93265C49.8451 1.26697 49.2132 0.748103 48.4739 0.441709ZM4.17825 46.4692C2.49662 46.4692 1.13281 47.8335 1.13281 49.517C1.13281 51.2006 2.49662 52.5648 4.17825 52.5648C5.85989 52.5648 7.22369 51.2006 7.22369 49.517C7.22369 47.8335 5.85989 46.4692 4.17825 46.4692ZM0.132812 49.517C0.132812 47.2818 1.9437 45.4692 4.17825 45.4692C6.4128 45.4692 8.22369 47.2818 8.22369 49.517C8.22369 51.7523 6.4128 53.5648 4.17825 53.5648C1.9437 53.5648 0.132812 51.7523 0.132812 49.517ZM25.5518 46.4692C23.8702 46.4692 22.5063 47.8335 22.5063 49.517C22.5063 51.2006 23.8702 52.5648 25.5518 52.5648C27.2334 52.5648 28.5972 51.2006 28.5972 49.517C28.5972 47.8335 27.2334 46.4692 25.5518 46.4692ZM21.5063 49.517C21.5063 47.2818 23.3172 45.4692 25.5518 45.4692C27.7863 45.4692 29.5972 47.2818 29.5972 49.517C29.5972 51.7523 27.7863 53.5648 25.5518 53.5648C23.3172 53.5648 21.5063 51.7523 21.5063 49.517ZM48.091 24.0208C47.5346 23.7901 46.9224 23.7298 46.3318 23.8474C45.741 23.965 45.1983 24.2552 44.7724 24.6814C44.3465 25.1076 44.0565 25.6507 43.9389 26.242C43.8214 26.8333 43.8817 27.4461 44.1122 28.0031C44.3428 28.56 44.7331 29.036 45.2339 29.3709C45.7347 29.7057 46.3236 29.8844 46.9258 29.8844C47.7334 29.8844 48.508 29.5634 49.0791 28.9919C49.6503 28.4203 49.9712 27.6451 49.9712 26.8366C49.9712 26.2337 49.7926 25.6444 49.458 25.1432C49.1233 24.6421 48.6475 24.2514 48.091 24.0208ZM46.1365 22.8666C46.9213 22.7104 47.7347 22.7906 48.4739 23.097C49.2132 23.4034 49.8451 23.9222 50.2896 24.5879C50.7341 25.2536 50.9712 26.0362 50.9712 26.8366C50.9712 27.9101 50.5451 28.9396 49.7865 29.6987C49.0278 30.4579 47.9989 30.8844 46.9258 30.8844C46.1257 30.8844 45.3434 30.647 44.6781 30.2022C44.0128 29.7573 43.4944 29.1251 43.1882 28.3855C42.8821 27.6459 42.802 26.8321 42.9581 26.047C43.1142 25.2619 43.4993 24.5407 44.0651 23.9745C44.6308 23.4084 45.3518 23.0228 46.1365 22.8666ZM46.3452 46.5C46.9373 46.3849 47.5503 46.4484 48.1063 46.6823C48.6623 46.9163 49.1364 47.3103 49.4684 47.8144C49.8005 48.3185 49.9755 48.9099 49.9712 49.5137C49.9654 50.3183 49.642 51.088 49.0714 51.6548C48.5009 52.2217 47.7297 52.5397 46.9258 52.5397C46.3227 52.5397 45.7329 52.3604 45.2317 52.0246C44.7304 51.6887 44.3401 51.2115 44.1102 50.6533C43.8803 50.095 43.8212 49.481 43.9405 48.8892C44.0598 48.2973 44.3521 47.7543 44.7802 47.3289C45.2084 46.9036 45.753 46.6151 46.3452 46.5ZM48.4942 45.7606C47.7555 45.4498 46.941 45.3655 46.1543 45.5184C45.3676 45.6713 44.6441 46.0546 44.0754 46.6195C43.5068 47.1845 43.1186 47.9056 42.9602 48.6916C42.8018 49.4775 42.8803 50.2928 43.1856 51.0341C43.4908 51.7753 44.0092 52.4092 44.6751 52.8553C45.341 53.3015 46.1244 53.5397 46.9258 53.5397C47.9939 53.5397 49.0184 53.1171 49.7762 52.3642C50.534 51.6113 50.9635 50.5892 50.9712 49.5208C50.9769 48.7191 50.7445 47.9337 50.3035 47.2643C49.8626 46.5949 49.2329 46.0715 48.4942 45.7606ZM48.091 69.3565C47.5346 69.1258 46.9224 69.0655 46.3318 69.1831C45.741 69.3006 45.1983 69.5909 44.7724 70.0171C44.3465 70.4433 44.0565 70.9863 43.9389 71.5777C43.8214 72.169 43.8817 72.7818 44.1122 73.3388C44.3428 73.8957 44.7331 74.3717 45.2339 74.7066C45.7347 75.0414 46.3236 75.2201 46.9258 75.2201C47.7334 75.2201 48.508 74.8991 49.0791 74.3276C49.6503 73.756 49.9712 72.9808 49.9712 72.1723C49.9712 71.5694 49.7926 70.9801 49.458 70.4789C49.1233 69.9778 48.6475 69.5871 48.091 69.3565ZM46.1365 68.2023C46.9213 68.0461 47.7347 68.1263 48.4739 68.4327C49.2132 68.7391 49.8451 69.2579 50.2896 69.9236C50.7341 70.5893 50.9712 71.3719 50.9712 72.1723C50.9712 73.2458 50.5451 74.2753 49.7865 75.0344C49.0278 75.7936 47.9989 76.2201 46.9258 76.2201C46.1257 76.2201 45.3434 75.9827 44.6781 75.5378C44.0128 75.093 43.4944 74.4608 43.1882 73.7212C42.8821 72.9816 42.802 72.1678 42.9581 71.3827C43.1142 70.5976 43.4993 69.8763 44.0651 69.3102C44.6308 68.7441 45.3518 68.3585 46.1365 68.2023ZM46.3452 91.8357C46.9373 91.7206 47.5503 91.7841 48.1063 92.018C48.6623 92.252 49.1364 92.646 49.4684 93.1501C49.8005 93.6542 49.9755 94.2456 49.9712 94.8494C49.9654 95.654 49.642 96.4237 49.0714 96.9905C48.5009 97.5574 47.7297 97.8754 46.9258 97.8754C46.3227 97.8754 45.7329 97.6961 45.2317 97.3603C44.7304 97.0244 44.3401 96.5472 44.1102 95.989C43.8803 95.4307 43.8212 94.8167 43.9405 94.2249C44.0598 93.633 44.3521 93.09 44.7802 92.6646C45.2084 92.2393 45.753 91.9508 46.3452 91.8357ZM48.4942 91.0963C47.7555 90.7855 46.941 90.7011 46.1543 90.8541C45.3676 91.007 44.6441 91.3903 44.0754 91.9552C43.5068 92.5202 43.1186 93.2413 42.9602 94.0272C42.8018 94.8132 42.8803 95.6285 43.1856 96.3698C43.4908 97.111 44.0092 97.7449 44.6751 98.191C45.341 98.6372 46.1244 98.8754 46.9258 98.8754C47.9939 98.8754 49.0184 98.4528 49.7762 97.6999C50.534 96.947 50.9635 95.9249 50.9712 94.8565C50.9769 94.0548 50.7445 93.2694 50.3035 92.6C49.8626 91.9306 49.2329 91.4072 48.4942 91.0963ZM48.091 114.692C47.5346 114.462 46.9224 114.401 46.3318 114.519C45.741 114.637 45.1983 114.927 44.7724 115.353C44.3465 115.779 44.0565 116.322 43.9389 116.914C43.8214 117.505 43.8817 118.118 44.1122 118.675C44.3428 119.232 44.7331 119.708 45.2339 120.042C45.7347 120.377 46.3236 120.556 46.9258 120.556C47.7334 120.556 48.508 120.235 49.0791 119.663C49.6503 119.092 49.9712 118.317 49.9712 117.508C49.9712 116.905 49.7926 116.316 49.458 115.815C49.1233 115.314 48.6475 114.923 48.091 114.692ZM46.1365 113.538C46.9213 113.382 47.7347 113.462 48.4739 113.769C49.2132 114.075 49.8451 114.594 50.2896 115.26C50.7341 115.925 50.9712 116.708 50.9712 117.508C50.9712 118.582 50.5451 119.611 49.7865 120.37C49.0278 121.13 47.9989 121.556 46.9258 121.556C46.1257 121.556 45.3434 121.319 44.6781 120.874C44.0128 120.429 43.4944 119.797 43.1882 119.057C42.8821 118.318 42.802 117.504 42.9581 116.719C43.1142 115.934 43.4993 115.212 44.0651 114.646C44.6308 114.08 45.3518 113.694 46.1365 113.538ZM65.2544 49.517C65.2544 47.8335 66.6182 46.4692 68.2998 46.4692C69.9815 46.4692 71.3453 47.8335 71.3453 49.517C71.3453 51.2006 69.9815 52.5648 68.2998 52.5648C66.6182 52.5648 65.2544 51.2006 65.2544 49.517ZM68.2998 45.4692C66.0653 45.4692 64.2544 47.2818 64.2544 49.517C64.2544 51.7523 66.0653 53.5648 68.2998 53.5648C70.5344 53.5648 72.3453 51.7523 72.3453 49.517C72.3453 47.2818 70.5344 45.4692 68.2998 45.4692ZM89.6739 46.4692C87.9922 46.4692 86.6284 47.8335 86.6284 49.517C86.6284 51.2006 87.9922 52.5648 89.6739 52.5648C91.3555 52.5648 92.7193 51.2006 92.7193 49.517C92.7193 47.8335 91.3555 46.4692 89.6739 46.4692ZM85.6284 49.517C85.6284 47.2818 87.4393 45.4692 89.6739 45.4692C91.9084 45.4692 93.7193 47.2818 93.7193 49.517C93.7193 51.7523 91.9084 53.5648 89.6739 53.5648C87.4393 53.5648 85.6284 51.7523 85.6284 49.517ZM108.028 49.517C108.028 47.8335 109.392 46.4692 111.073 46.4692C112.755 46.4692 114.119 47.8335 114.119 49.517C114.119 51.2006 112.755 52.5648 111.073 52.5648C109.392 52.5648 108.028 51.2006 108.028 49.517ZM111.073 45.4692C108.839 45.4692 107.028 47.2818 107.028 49.517C107.028 51.7523 108.839 53.5648 111.073 53.5648C113.308 53.5648 115.119 51.7523 115.119 49.517C115.119 47.2818 113.308 45.4692 111.073 45.4692Z" fill="#61A1F4"/>
<path fill-rule="evenodd" clip-rule="evenodd" d="M1.13281 4.18134C1.13281 2.49778 2.49662 1.13355 4.17825 1.13355C5.85989 1.13355 7.22369 2.49778 7.22369 4.18134C7.22369 5.86491 5.85989 7.22914 4.17825 7.22914C2.49662 7.22914 1.13281 5.86491 1.13281 4.18134ZM4.17825 0.133545C1.9437 0.133545 0.132813 1.94612 0.132813 4.18134C0.132813 6.41657 1.9437 8.22914 4.17825 8.22914C6.4128 8.22914 8.22369 6.41657 8.22369 4.18134C8.22369 1.94612 6.4128 0.133545 4.17825 0.133545ZM3.53342 23.8474C4.12411 23.7298 4.73642 23.7901 5.29286 24.0208C5.84929 24.2514 6.32494 24.642 6.65962 25.1432C6.99432 25.6445 7.17301 26.2338 7.17301 26.8366C7.17301 27.645 6.85199 28.4203 6.28079 28.9919C5.70963 29.5634 4.93509 29.8844 4.12751 29.8844C3.52526 29.8844 2.93657 29.7057 2.43575 29.3709C1.93489 29.036 1.54439 28.56 1.31387 28.0031C1.08333 27.4461 1.02303 26.8333 1.14057 26.242C1.2581 25.6507 1.54827 25.1076 1.97422 24.6814C2.40017 24.2552 2.94274 23.9649 3.53342 23.8474ZM5.67576 23.097C4.93651 22.7906 4.123 22.7104 3.3382 22.8666C2.55339 23.0228 1.83262 23.4084 1.26688 23.9745C0.701163 24.5406 0.315838 25.2618 0.159764 26.047C0.00369979 26.8321 0.0837407 27.6459 0.389897 28.3855C0.696067 29.1252 1.21469 29.7574 1.87992 30.2022C2.54519 30.647 3.3273 30.8844 4.12751 30.8844C5.20054 30.8844 6.22949 30.4579 6.98813 29.6987C7.74673 28.9396 8.17301 27.9101 8.17301 26.8366C8.17301 26.0361 7.93573 25.2536 7.49126 24.5879C7.04679 23.9223 6.41502 23.4034 5.67576 23.097ZM5.29286 69.3565C4.73642 69.1258 4.12411 69.0655 3.53342 69.1831C2.94274 69.3006 2.40017 69.5908 1.97422 70.0171C1.54827 70.4433 1.2581 70.9864 1.14057 71.5777C1.02303 72.169 1.08333 72.7818 1.31387 73.3388C1.54439 73.8957 1.93489 74.3717 2.43575 74.7066C2.93657 75.0414 3.52526 75.2201 4.12751 75.2201C4.93509 75.2201 5.70963 74.8991 6.28079 74.3276C6.85199 73.756 7.17301 72.9807 7.17301 72.1723C7.17301 71.5695 6.99432 70.9802 6.65962 70.4789C6.32494 69.9777 5.84929 69.5871 5.29286 69.3565ZM3.3382 68.2023C4.123 68.0461 4.93651 68.1263 5.67576 68.4327C6.41502 68.7391 7.04679 69.258 7.49126 69.9236C7.93573 70.5892 8.17301 71.3718 8.17301 72.1723C8.17301 73.2458 7.74673 74.2753 6.98813 75.0344C6.22949 75.7936 5.20054 76.2201 4.12751 76.2201C3.3273 76.2201 2.54519 75.9827 1.87992 75.5378C1.21469 75.0931 0.696067 74.4609 0.389897 73.7212C0.0837407 72.9816 0.00369979 72.1678 0.159764 71.3827C0.315838 70.5975 0.701163 69.8763 1.26688 69.3102C1.83262 68.7441 2.55339 68.3585 3.3382 68.2023ZM1.13281 94.8276C1.13281 93.144 2.49661 91.7798 4.17825 91.7798C5.85989 91.7798 7.22369 93.144 7.22369 94.8276C7.22369 96.5111 5.85989 97.8754 4.17825 97.8754C2.49662 97.8754 1.13281 96.5111 1.13281 94.8276ZM4.17825 90.7798C1.94371 90.7798 0.132813 92.5924 0.132813 94.8276C0.132813 97.0628 1.9437 98.8754 4.17825 98.8754C6.4128 98.8754 8.22369 97.0628 8.22369 94.8276C8.22369 92.5924 6.4128 90.7798 4.17825 90.7798ZM5.29286 114.692C4.73642 114.462 4.12411 114.401 3.53342 114.519C2.94274 114.637 2.40017 114.927 1.97422 115.353C1.54827 115.779 1.2581 116.322 1.14057 116.914C1.02303 117.505 1.08333 118.118 1.31387 118.675C1.54439 119.232 1.93489 119.708 2.43575 120.042C2.93657 120.377 3.52526 120.556 4.12751 120.556C4.93509 120.556 5.70963 120.235 6.28079 119.663C6.85199 119.092 7.17301 118.317 7.17301 117.508C7.17301 116.905 6.99432 116.316 6.65962 115.815C6.32494 115.314 5.84929 114.923 5.29286 114.692ZM3.3382 113.538C4.123 113.382 4.93651 113.462 5.67576 113.769C6.41502 114.075 7.04679 114.594 7.49126 115.26C7.93573 115.925 8.17301 116.708 8.17301 117.508C8.17301 118.582 7.74673 119.611 6.98813 120.37C6.22949 121.13 5.20054 121.556 4.12751 121.556C3.3273 121.556 2.54519 121.319 1.87992 120.874C1.21469 120.429 0.696067 119.797 0.389897 119.057C0.0837407 118.318 0.00369979 117.504 0.159764 116.719C0.315838 115.933 0.701163 115.212 1.26688 114.646C1.83262 114.08 2.55339 113.694 3.3382 113.538ZM1.13281 140.164C1.13281 138.48 2.49662 137.116 4.17825 137.116C5.85989 137.116 7.22369 138.48 7.22369 140.164C7.22369 141.847 5.85989 143.211 4.17825 143.211C2.49661 143.211 1.13281 141.847 1.13281 140.164ZM4.17825 136.116C1.9437 136.116 0.132813 137.928 0.132813 140.164C0.132813 142.399 1.94371 144.211 4.17825 144.211C6.4128 144.211 8.22369 142.399 8.22369 140.164C8.22369 137.928 6.4128 136.116 4.17825 136.116ZM5.29286 160.028C4.73644 159.797 4.12413 159.737 3.53342 159.855C2.94274 159.972 2.40017 160.262 1.97422 160.689C1.54827 161.115 1.2581 161.658 1.14057 162.249C1.02304 162.841 1.08333 163.453 1.31387 164.01C1.54439 164.567 1.93489 165.043 2.43575 165.378C2.93659 165.713 3.52528 165.892 4.12751 165.892C4.93508 165.892 5.70962 165.571 6.28079 164.999C6.85198 164.428 7.17301 163.652 7.17301 162.844C7.17301 162.241 6.99432 161.652 6.65962 161.15C6.32495 160.649 5.84931 160.259 5.29286 160.028ZM3.3382 158.874C4.12298 158.718 4.93649 158.798 5.67576 159.104C6.415 159.411 7.04678 159.93 7.49126 160.595C7.93573 161.261 8.17301 162.043 8.17301 162.844C8.17301 163.917 7.74673 164.947 6.98813 165.706C6.2295 166.465 5.20055 166.892 4.12751 166.892C3.32729 166.892 2.54517 166.654 1.87992 166.209C1.21469 165.765 0.696067 165.132 0.389897 164.393C0.0837414 163.653 0.00369937 162.839 0.159764 162.054C0.315838 161.269 0.701163 160.548 1.26688 159.982C1.83262 159.416 2.55339 159.03 3.3382 158.874ZM22.5063 4.18134C22.5063 2.49778 23.8702 1.13355 25.5518 1.13355C27.2334 1.13355 28.5972 2.49778 28.5972 4.18134C28.5972 5.86491 27.2334 7.22914 25.5518 7.22914C23.8702 7.22914 22.5063 5.86491 22.5063 4.18134ZM25.5518 0.133545C23.3172 0.133545 21.5063 1.94612 21.5063 4.18134C21.5063 6.41657 23.3172 8.22914 25.5518 8.22914C27.7863 8.22914 29.5972 6.41657 29.5972 4.18134C29.5972 1.94612 27.7863 0.133545 25.5518 0.133545ZM26.6871 24.0187C26.1294 23.7887 25.516 23.7296 24.9247 23.849C24.3334 23.9683 23.7908 24.2607 23.3658 24.6891C22.9407 25.1175 22.6524 25.6626 22.5373 26.2553C22.4223 26.848 22.4858 27.4615 22.7197 28.0181C22.9536 28.5747 23.3473 29.0492 23.8509 29.3814C24.3546 29.7136 24.9455 29.8887 25.5487 29.8843C26.3525 29.8786 27.1214 29.555 27.6879 28.9841C28.2544 28.4132 28.5723 27.6412 28.5723 26.8366C28.5723 26.2327 28.3931 25.6426 28.0574 25.1409C27.7218 24.6392 27.2448 24.2487 26.6871 24.0187ZM24.7269 22.8688C25.5124 22.7102 26.3274 22.7886 27.0683 23.0942C27.8092 23.3997 28.4428 23.9185 28.8886 24.5848C29.3344 25.2511 29.5722 26.0348 29.5723 26.8365C29.5723 27.905 29.1502 28.9301 28.3978 29.6884C27.6454 30.4468 26.6239 30.8767 25.5558 30.8843C24.7545 30.89 23.9694 30.6575 23.3003 30.2162C22.6313 29.7748 22.1083 29.1446 21.7978 28.4056C21.4872 27.6665 21.4029 26.8518 21.5557 26.0648C21.7084 25.2778 22.0913 24.5538 22.6559 23.9848C23.2205 23.4157 23.9413 23.0273 24.7269 22.8688ZM24.9247 69.1849C25.516 69.0656 26.1294 69.1246 26.6871 69.3546C27.2448 69.5846 27.7218 69.9752 28.0574 70.4768C28.3931 70.9785 28.5723 71.5687 28.5723 72.1725C28.5723 72.9772 28.2544 73.7491 27.6879 74.3201C27.1214 74.891 26.3525 75.2145 25.5487 75.2203C24.9455 75.2246 24.3546 75.0496 23.8509 74.7173C23.3473 74.3851 22.9536 73.9107 22.7197 73.3541C22.4858 72.7975 22.4223 72.1839 22.5373 71.5913C22.6524 70.9986 22.9407 70.4535 23.3658 70.0251C23.7908 69.5967 24.3334 69.3043 24.9247 69.1849ZM27.0683 68.4301C26.3274 68.1246 25.5124 68.0461 24.7269 68.2047C23.9413 68.3633 23.2205 68.7517 22.6559 69.3207C22.0913 69.8898 21.7084 70.6137 21.5557 71.4007C21.4029 72.1878 21.4872 73.0025 21.7978 73.7415C22.1083 74.4806 22.6313 75.1108 23.3003 75.5521C23.9694 75.9934 24.7545 76.226 25.5558 76.2203C26.6239 76.2126 27.6454 75.7827 28.3978 75.0244C29.1502 74.2661 29.5723 73.2409 29.5723 72.1725C29.5722 71.3708 29.3344 70.587 28.8886 69.9208C28.4428 69.2545 27.8092 68.7357 27.0683 68.4301ZM25.5518 91.7798C23.8702 91.7798 22.5063 93.144 22.5063 94.8276C22.5063 96.5111 23.8702 97.8754 25.5518 97.8754C27.2334 97.8754 28.5972 96.5111 28.5972 94.8276C28.5972 93.144 27.2334 91.7798 25.5518 91.7798ZM21.5063 94.8276C21.5063 92.5924 23.3172 90.7798 25.5518 90.7798C27.7863 90.7798 29.5972 92.5924 29.5972 94.8276C29.5972 97.0628 27.7863 98.8754 25.5518 98.8754C23.3172 98.8754 21.5063 97.0628 21.5063 94.8276ZM24.9247 114.521C25.516 114.401 26.1294 114.46 26.6871 114.69C27.2448 114.92 27.7218 115.311 28.0574 115.813C28.3931 116.314 28.5723 116.904 28.5723 117.508C28.5723 118.313 28.2544 119.085 27.6879 119.656C27.1214 120.227 26.3525 120.55 25.5487 120.556C24.9455 120.56 24.3546 120.385 23.8509 120.053C23.3473 119.721 22.9536 119.246 22.7197 118.69C22.4858 118.133 22.4223 117.52 22.5373 116.927C22.6524 116.334 22.9407 115.789 23.3658 115.361C23.7908 114.932 24.3334 114.64 24.9247 114.521ZM27.0683 113.766C26.3274 113.46 25.5124 113.382 24.7269 113.54C23.9413 113.699 23.2205 114.087 22.6559 114.656C22.0913 115.225 21.7084 115.949 21.5557 116.736C21.4029 117.523 21.4872 118.338 21.7978 119.077C22.1083 119.816 22.6313 120.446 23.3003 120.888C23.9694 121.329 24.7545 121.562 25.5558 121.556C26.6239 121.548 27.6454 121.118 28.3978 120.36C29.1502 119.602 29.5723 118.577 29.5723 117.508C29.5722 116.706 29.3344 115.923 28.8886 115.256C28.4428 114.59 27.8092 114.071 27.0683 113.766ZM25.5518 137.116C23.8702 137.116 22.5063 138.48 22.5063 140.164C22.5063 141.847 23.8702 143.211 25.5518 143.211C27.2334 143.211 28.5972 141.847 28.5972 140.164C28.5972 138.48 27.2334 137.116 25.5518 137.116ZM21.5063 140.164C21.5063 137.928 23.3172 136.116 25.5518 136.116C27.7863 136.116 29.5972 137.928 29.5972 140.164C29.5972 142.399 27.7863 144.211 25.5518 144.211C23.3172 144.211 21.5063 142.399 21.5063 140.164ZM65.2544 4.18134C65.2544 2.49778 66.6182 1.13355 68.2998 1.13355C69.9815 1.13355 71.3453 2.49778 71.3453 4.18134C71.3453 5.86491 69.9815 7.22914 68.2998 7.22914C66.6182 7.22914 65.2544 5.86491 65.2544 4.18134ZM68.2998 0.133545C66.0653 0.133545 64.2544 1.94612 64.2544 4.18134C64.2544 6.41657 66.0653 8.22914 68.2998 8.22914C70.5344 8.22914 72.3453 6.41657 72.3453 4.18134C72.3453 1.94612 70.5344 0.133545 68.2998 0.133545ZM69.4651 24.0208C68.9086 23.7901 68.2965 23.7298 67.7058 23.8474C67.1151 23.965 66.5723 24.2552 66.1464 24.6814C65.7205 25.1076 65.4305 25.6507 65.3129 26.242C65.1954 26.8333 65.2557 27.4461 65.4862 28.0031C65.7168 28.56 66.1071 29.036 66.608 29.3709C67.1088 29.7057 67.6976 29.8844 68.2999 29.8844C69.1075 29.8844 69.882 29.5634 70.4531 28.9919C71.0243 28.4203 71.3452 27.6451 71.3452 26.8366C71.3452 26.2338 71.1665 25.6445 70.8318 25.1432C70.4971 24.642 70.0215 24.2514 69.4651 24.0208ZM67.5106 22.8666C68.2954 22.7104 69.1087 22.7906 69.848 23.097C70.5872 23.4034 71.219 23.9223 71.6635 24.5879C72.1079 25.2536 72.3452 26.0361 72.3452 26.8366C72.3452 27.9101 71.9191 28.9396 71.1605 29.6987C70.4019 30.4579 69.3729 30.8844 68.2999 30.8844C67.4997 30.8844 66.7174 30.647 66.0521 30.2022C65.3869 29.7573 64.8684 29.1251 64.5623 28.3855C64.2561 27.6459 64.1761 26.8321 64.3321 26.047C64.4882 25.2619 64.8733 24.5407 65.4391 23.9745C66.0049 23.4084 66.7258 23.0228 67.5106 22.8666ZM67.7058 69.1831C68.2965 69.0655 68.9086 69.1258 69.4651 69.3565C70.0215 69.5871 70.4971 69.9777 70.8318 70.4789C71.1665 70.9802 71.3452 71.5695 71.3452 72.1723C71.3452 72.9808 71.0243 73.756 70.4531 74.3276C69.882 74.8991 69.1075 75.2201 68.2999 75.2201C67.6976 75.2201 67.1088 75.0414 66.608 74.7066C66.1071 74.3717 65.7168 73.8957 65.4862 73.3388C65.2557 72.7818 65.1954 72.169 65.3129 71.5777C65.4305 70.9863 65.7205 70.4433 66.1464 70.0171C66.5723 69.5909 67.1151 69.3006 67.7058 69.1831ZM69.848 68.4327C69.1087 68.1263 68.2954 68.0461 67.5106 68.2023C66.7258 68.3585 66.0049 68.7441 65.4391 69.3102C64.8733 69.8763 64.4882 70.5976 64.3321 71.3827C64.1761 72.1678 64.2561 72.9816 64.5623 73.7212C64.8684 74.4608 65.3869 75.093 66.0521 75.5378C66.7174 75.9827 67.4997 76.2201 68.2999 76.2201C69.3729 76.2201 70.4019 75.7936 71.1605 75.0344C71.9191 74.2753 72.3452 73.2458 72.3452 72.1723C72.3452 71.3718 72.1079 70.5892 71.6635 69.9236C71.219 69.258 70.5872 68.7391 69.848 68.4327ZM89.6739 1.13355C87.9922 1.13355 86.6284 2.49778 86.6284 4.18134C86.6284 5.86491 87.9922 7.22914 89.6739 7.22914C91.3555 7.22914 92.7193 5.86491 92.7193 4.18134C92.7193 2.49778 91.3555 1.13355 89.6739 1.13355ZM85.6284 4.18134C85.6284 1.94612 87.4393 0.133545 89.6739 0.133545C91.9084 0.133545 93.7193 1.94612 93.7193 4.18134C93.7193 6.41657 91.9084 8.22914 89.6739 8.22914C87.4393 8.22914 85.6284 6.41657 85.6284 4.18134ZM89.0798 23.8474C89.6705 23.7298 90.2827 23.7901 90.8391 24.0208C91.3955 24.2514 91.8712 24.642 92.2059 25.1432C92.5406 25.6445 92.7192 26.2338 92.7192 26.8366C92.7192 27.6451 92.3983 28.4203 91.8272 28.9919C91.256 29.5634 90.4815 29.8844 89.6739 29.8844C89.0716 29.8844 88.4828 29.7057 87.982 29.3709C87.4812 29.036 87.0908 28.56 86.8603 28.0031C86.6297 27.4461 86.5694 26.8333 86.687 26.242C86.8045 25.6507 87.0945 25.1076 87.5205 24.6814C87.9464 24.2552 88.4891 23.965 89.0798 23.8474ZM91.222 23.097C90.4827 22.7906 89.6694 22.7104 88.8846 22.8666C88.0998 23.0228 87.3789 23.4084 86.8131 23.9745C86.2473 24.5407 85.8622 25.2619 85.7062 26.047C85.5501 26.8321 85.6301 27.6459 85.9363 28.3855C86.2424 29.1251 86.7609 29.7573 87.4262 30.2022C88.0914 30.647 88.8737 30.8844 89.6739 30.8844C90.7469 30.8844 91.7759 30.4579 92.5345 29.6987C93.2932 28.9396 93.7192 27.9101 93.7192 26.8366C93.7192 26.0361 93.482 25.2536 93.0375 24.5879C92.593 23.9223 91.9613 23.4034 91.222 23.097ZM108.028 4.18134C108.028 2.49778 109.392 1.13355 111.073 1.13355C112.755 1.13355 114.119 2.49778 114.119 4.18134C114.119 5.86491 112.755 7.22914 111.073 7.22914C109.392 7.22914 108.028 5.86491 108.028 4.18134ZM111.073 0.133545C108.839 0.133545 107.028 1.94612 107.028 4.18134C107.028 6.41657 108.839 8.22914 111.073 8.22914C113.308 8.22914 115.119 6.41657 115.119 4.18134C115.119 1.94612 113.308 0.133545 111.073 0.133545ZM112.213 24.0208C111.657 23.7901 111.045 23.7298 110.454 23.8474C109.863 23.965 109.32 24.2552 108.894 24.6814C108.469 25.1076 108.179 25.6507 108.061 26.242C107.943 26.8333 108.004 27.4461 108.234 28.0031C108.465 28.56 108.855 29.036 109.356 29.3709C109.857 29.7057 110.446 29.8844 111.048 29.8844C111.855 29.8844 112.63 29.5634 113.201 28.9919C113.772 28.4203 114.093 27.6451 114.093 26.8366C114.093 26.2338 113.915 25.6445 113.58 25.1432C113.245 24.642 112.77 24.2514 112.213 24.0208ZM110.259 22.8666C111.043 22.7104 111.857 22.7906 112.596 23.097C113.335 23.4034 113.967 23.9223 114.412 24.5879C114.856 25.2536 115.093 26.0361 115.093 26.8366C115.093 27.9101 114.667 28.9396 113.909 29.6987C113.15 30.4579 112.121 30.8844 111.048 30.8844C110.248 30.8844 109.465 30.647 108.8 30.2022C108.135 29.7573 107.616 29.1251 107.31 28.3855C107.004 27.6459 106.924 26.8321 107.08 26.047C107.236 25.2619 107.621 24.5407 108.187 23.9745C108.753 23.4084 109.474 23.0228 110.259 22.8666ZM129.401 4.18134C129.401 2.49778 130.765 1.13355 132.447 1.13355C134.128 1.13355 135.492 2.49778 135.492 4.18134C135.492 5.86491 134.128 7.22914 132.447 7.22914C130.765 7.22914 129.401 5.86491 129.401 4.18134ZM132.447 0.133545C130.212 0.133545 128.401 1.94612 128.401 4.18134C128.401 6.41657 130.212 8.22914 132.447 8.22914C134.681 8.22914 136.492 6.41657 136.492 4.18134C136.492 1.94612 134.681 0.133545 132.447 0.133545ZM133.587 24.0208C133.031 23.7901 132.419 23.7298 131.828 23.8474C131.237 23.965 130.694 24.2552 130.269 24.6814C129.843 25.1076 129.553 25.6507 129.435 26.242C129.317 26.8333 129.378 27.4461 129.608 28.0031C129.839 28.56 130.229 29.036 130.73 29.3709C131.231 29.7057 131.82 29.8844 132.422 29.8844C133.229 29.8844 134.004 29.5634 134.575 28.9919C135.146 28.4203 135.467 27.6451 135.467 26.8366C135.467 26.2338 135.289 25.6445 134.954 25.1432C134.619 24.642 134.144 24.2514 133.587 24.0208ZM131.633 22.8666C132.417 22.7104 133.231 22.7906 133.97 23.097C134.709 23.4034 135.341 23.9223 135.786 24.5879C136.23 25.2536 136.467 26.0361 136.467 26.8366C136.467 27.9101 136.041 28.9396 135.283 29.6987C134.524 30.4579 133.495 30.8844 132.422 30.8844C131.622 30.8844 130.839 30.647 130.174 30.2022C129.509 29.7573 128.99 29.1251 128.684 28.3855C128.378 27.6459 128.298 26.8321 128.454 26.047C128.61 25.2619 128.995 24.5407 129.561 23.9745C130.127 23.4084 130.848 23.0228 131.633 22.8666ZM153.193 1.19371C153.785 1.07436 154.398 1.13341 154.956 1.36339C155.513 1.59338 155.99 1.98396 156.326 2.48563C156.662 2.98728 156.841 3.57746 156.841 4.18129C156.841 4.98597 156.523 5.75792 155.956 6.32884C155.39 6.89975 154.621 7.22333 153.817 7.22907C153.214 7.23339 152.623 7.05835 152.119 6.72613C151.616 6.39391 151.222 5.91948 150.988 5.36291C150.754 4.80639 150.691 4.19281 150.806 3.60007C150.921 3.00735 151.209 2.46226 151.634 2.03387C152.059 1.60547 152.602 1.31306 153.193 1.19371ZM155.337 0.438913C154.596 0.133368 153.781 0.0549144 152.995 0.213482C152.21 0.372052 151.489 0.760524 150.924 1.32954C150.36 1.89856 149.977 2.62248 149.824 3.40949C149.671 4.19648 149.756 5.01122 150.066 5.75033C150.377 6.4894 150.9 7.11956 151.569 7.56089C152.238 8.00222 153.023 8.23478 153.824 8.22905C154.892 8.22141 155.914 7.7915 156.666 7.03317C157.419 6.27486 157.841 5.2497 157.841 4.18126C157.841 3.37956 157.603 2.59584 157.157 1.92955C156.711 1.26327 156.078 0.744448 155.337 0.438913Z" fill="#DCEDFF"/>
</g>
<defs>
<clipPath id="clip0_199_415">
<rect width="158" height="167" fill="white"/>
</clipPath>
</defs>
</svg>
