<svg width="167" height="158" viewBox="0 0 167 158" fill="none" xmlns="http://www.w3.org/2000/svg">
<g clip-path="url(#clip0_199_418)">
<path fill-rule="evenodd" clip-rule="evenodd" d="M165.808 46.3322C165.925 46.9229 165.865 47.5351 165.634 48.0915C165.404 48.648 165.013 49.1238 164.512 49.4585C164.011 49.7931 163.421 49.9717 162.818 49.9717C162.01 49.9717 161.235 49.6508 160.663 49.0796C160.092 48.5085 159.771 47.7339 159.771 46.9263C159.771 46.3241 159.949 45.7352 160.284 45.2344C160.619 44.7336 161.095 44.3432 161.652 44.1127C162.209 43.8822 162.822 43.8219 163.413 43.9394C164.004 44.0569 164.547 44.347 164.974 44.7729C165.4 45.1988 165.69 45.7415 165.808 46.3322ZM166.558 48.4744C166.864 47.7352 166.945 46.9218 166.788 46.137C166.632 45.3522 166.247 44.6313 165.681 44.0656C165.114 43.4998 164.393 43.1147 163.608 42.9586C162.823 42.8025 162.009 42.8826 161.269 43.1887C160.53 43.4949 159.898 44.0133 159.453 44.6786C159.008 45.3439 158.771 46.1262 158.771 46.9263C158.771 47.9994 159.197 49.0283 159.956 49.787C160.715 50.5456 161.745 50.9717 162.818 50.9717C163.619 50.9717 164.401 50.7346 165.067 50.2901C165.733 49.8456 166.252 49.2136 166.558 48.4744ZM120.531 4.17874C120.531 2.4971 119.166 1.1333 117.483 1.1333C115.799 1.1333 114.435 2.4971 114.435 4.17874C114.435 5.86038 115.799 7.22418 117.483 7.22418C119.166 7.22418 120.531 5.86037 120.531 4.17874ZM117.483 0.133299C119.718 0.133299 121.531 1.94419 121.531 4.17874C121.531 6.41329 119.718 8.22418 117.483 8.22418C115.247 8.22418 113.435 6.41329 113.435 4.17874C113.435 1.94419 115.247 0.133299 117.483 0.133299ZM120.531 25.5523C120.531 23.8706 119.166 22.5068 117.483 22.5068C115.799 22.5068 114.435 23.8706 114.435 25.5523C114.435 27.2339 115.799 28.5977 117.483 28.5977C119.166 28.5977 120.531 27.2339 120.531 25.5523ZM117.483 21.5068C119.718 21.5068 121.531 23.3177 121.531 25.5523C121.531 27.7868 119.718 29.5977 117.483 29.5977C115.247 29.5977 113.435 27.7868 113.435 25.5523C113.435 23.3177 115.247 21.5068 117.483 21.5068ZM142.979 48.0915C143.21 47.5351 143.27 46.9229 143.152 46.3322C143.035 45.7415 142.745 45.1988 142.318 44.7729C141.892 44.347 141.349 44.0569 140.758 43.9394C140.166 43.8219 139.554 43.8822 138.997 44.1127C138.44 44.3432 137.964 44.7336 137.629 45.2344C137.294 45.7352 137.115 46.3241 137.115 46.9263C137.115 47.7339 137.436 48.5085 138.008 49.0796C138.579 49.6508 139.355 49.9717 140.163 49.9717C140.766 49.9717 141.355 49.7931 141.857 49.4584C142.358 49.1238 142.748 48.648 142.979 48.0915ZM144.133 46.137C144.289 46.9218 144.209 47.7352 143.903 48.4744C143.596 49.2136 143.078 49.8456 142.412 50.2901C141.746 50.7346 140.964 50.9717 140.163 50.9717C139.09 50.9717 138.06 50.5456 137.301 49.787C136.542 49.0283 136.115 47.9994 136.115 46.9263C136.115 46.1262 136.353 45.3439 136.798 44.6786C137.242 44.0133 137.875 43.4949 138.614 43.1887C139.354 42.8826 140.168 42.8025 140.953 42.9586C141.738 43.1147 142.459 43.4998 143.025 44.0656C143.591 44.6313 143.977 45.3522 144.133 46.137ZM120.5 46.3456C120.615 46.9378 120.551 47.5508 120.317 48.1068C120.083 48.6628 119.689 49.1368 119.185 49.4689C118.681 49.801 118.09 49.976 117.486 49.9717C116.681 49.9659 115.912 49.6425 115.345 49.0719C114.778 48.5014 114.46 47.7301 114.46 46.9263C114.46 46.3231 114.639 45.7334 114.975 45.2322C115.311 44.7309 115.788 44.3406 116.346 44.1107C116.905 43.8808 117.519 43.8217 118.111 43.941C118.702 44.0603 119.245 44.3526 119.671 44.7807C120.096 45.2088 120.385 45.7535 120.5 46.3456ZM121.239 48.4947C121.55 47.7559 121.634 46.9415 121.481 46.1548C121.328 45.3681 120.945 44.6446 120.38 44.0759C119.815 43.5073 119.094 43.1191 118.308 42.9607C117.522 42.8023 116.707 42.8808 115.966 43.186C115.224 43.4913 114.591 44.0097 114.144 44.6756C113.698 45.3415 113.46 46.1249 113.46 46.9263C113.46 47.9944 113.883 49.0189 114.636 49.7767C115.388 50.5345 116.411 50.964 117.479 50.9717C118.281 50.9774 119.066 50.745 119.735 50.304C120.405 49.8631 120.928 49.2334 121.239 48.4947ZM97.6433 48.0915C97.8739 47.5351 97.9343 46.9229 97.8167 46.3322C97.6991 45.7415 97.4089 45.1988 96.9827 44.7729C96.5565 44.347 96.0134 44.0569 95.4221 43.9394C94.8308 43.8219 94.2179 43.8822 93.661 44.1127C93.104 44.3432 92.6281 44.7336 92.2932 45.2344C91.9584 45.7352 91.7796 46.3241 91.7796 46.9263C91.7796 47.7339 92.1007 48.5085 92.6722 49.0796C93.2437 49.6508 94.019 49.9717 94.8274 49.9717C95.4303 49.9717 96.0196 49.7931 96.5208 49.4584C97.022 49.1238 97.4126 48.648 97.6433 48.0915ZM98.7975 46.137C98.9537 46.9218 98.8735 47.7352 98.5671 48.4744C98.2607 49.2136 97.7418 49.8456 97.0761 50.2901C96.4104 50.7346 95.6279 50.9717 94.8274 50.9717C93.754 50.9717 92.7245 50.5456 91.9653 49.787C91.2062 49.0283 90.7796 47.9994 90.7796 46.9263C90.7796 46.1262 91.0171 45.3439 91.4619 44.6786C91.9067 44.0133 92.5389 43.4949 93.2785 43.1887C94.0181 42.8826 94.8319 42.8025 95.6171 42.9586C96.4022 43.1147 97.1234 43.4998 97.6896 44.0656C98.2557 44.6313 98.6412 45.3522 98.7975 46.137ZM75.164 46.3456C75.2791 46.9378 75.2157 47.5508 74.9817 48.1068C74.7477 48.6628 74.3538 49.1368 73.8497 49.4689C73.3456 49.801 72.7542 49.976 72.1504 49.9717C71.3457 49.9659 70.5761 49.6424 70.0092 49.0719C69.4424 48.5014 69.1243 47.7301 69.1244 46.9263C69.1244 46.3231 69.3037 45.7334 69.6395 45.2322C69.9753 44.7309 70.4526 44.3406 71.0108 44.1107C71.5691 43.8808 72.1831 43.8217 72.7749 43.941C73.3667 44.0603 73.9098 44.3526 74.3351 44.7807C74.7605 45.2088 75.0489 45.7535 75.164 46.3456ZM75.9034 48.4947C76.2143 47.7559 76.2986 46.9415 76.1457 46.1548C75.9927 45.3681 75.6095 44.6446 75.0445 44.0759C74.4796 43.5073 73.7585 43.1191 72.9725 42.9607C72.1866 42.8023 71.3712 42.8808 70.63 43.186C69.8887 43.4913 69.2548 44.0097 68.8087 44.6756C68.3626 45.3415 68.1244 46.1249 68.1244 46.9263C68.1243 47.9944 68.5469 49.0189 69.2998 49.7767C70.0527 50.5345 71.0748 50.964 72.1433 50.9716C72.945 50.9774 73.7304 50.745 74.3998 50.304C75.0692 49.863 75.5926 49.2334 75.9034 48.4947ZM52.3073 48.0915C52.538 47.5351 52.5983 46.9229 52.4807 46.3322C52.3632 45.7415 52.0729 45.1988 51.6467 44.7729C51.2205 44.347 50.6775 44.0569 50.0862 43.9394C49.4949 43.8219 48.882 43.8822 48.325 44.1127C47.7681 44.3432 47.2921 44.7336 46.9573 45.2344C46.6224 45.7352 46.4437 46.3241 46.4437 46.9263C46.4437 47.7339 46.7647 48.5084 47.3363 49.0796C47.9078 49.6508 48.683 49.9717 49.4915 49.9717C50.0944 49.9717 50.6837 49.7931 51.1849 49.4584C51.6861 49.1238 52.0767 48.648 52.3073 48.0915ZM53.4615 46.137C53.6177 46.9218 53.5375 47.7352 53.2311 48.4744C52.9247 49.2136 52.4059 49.8456 51.7402 50.2901C51.0745 50.7346 50.2919 50.9717 49.4915 50.9717C48.4181 50.9717 47.3885 50.5456 46.6294 49.787C45.8702 49.0283 45.4437 47.9994 45.4437 46.9263C45.4437 46.1262 45.6811 45.3439 46.126 44.6786C46.5708 44.0133 47.203 43.4949 47.9426 43.1887C48.6822 42.8826 49.496 42.8025 50.2811 42.9586C51.0662 43.1146 51.7875 43.4998 52.3536 44.0656C52.9198 44.6313 53.3053 45.3522 53.4615 46.137ZM117.483 65.2549C119.166 65.2549 120.531 66.6187 120.531 68.3003C120.531 69.982 119.166 71.3458 117.483 71.3458C115.799 71.3458 114.435 69.982 114.435 68.3003C114.435 66.6187 115.799 65.2549 117.483 65.2549ZM121.531 68.3003C121.531 66.0658 119.718 64.2549 117.483 64.2549C115.247 64.2549 113.435 66.0658 113.435 68.3003C113.435 70.5349 115.247 72.3458 117.483 72.3458C119.718 72.3458 121.531 70.5349 121.531 68.3003ZM120.531 89.6743C120.531 87.9927 119.166 86.6289 117.483 86.6289C115.799 86.6289 114.435 87.9927 114.435 89.6743C114.435 91.356 115.799 92.7198 117.483 92.7198C119.166 92.7198 120.531 91.356 120.531 89.6743ZM117.483 85.6289C119.718 85.6289 121.531 87.4398 121.531 89.6743C121.531 91.9089 119.718 93.7198 117.483 93.7198C115.247 93.7198 113.435 91.9089 113.435 89.6743C113.435 87.4398 115.247 85.6289 117.483 85.6289ZM117.483 108.028C119.166 108.028 120.531 109.392 120.531 111.074C120.531 112.755 119.166 114.119 117.483 114.119C115.799 114.119 114.435 112.755 114.435 111.074C114.435 109.392 115.799 108.028 117.483 108.028ZM121.531 111.074C121.531 108.839 119.718 107.028 117.483 107.028C115.247 107.028 113.435 108.839 113.435 111.074C113.435 113.308 115.247 115.119 117.483 115.119C119.718 115.119 121.531 113.308 121.531 111.074Z" fill="#61A1F4"/>
<path fill-rule="evenodd" clip-rule="evenodd" d="M162.818 1.1333C164.502 1.1333 165.866 2.4971 165.866 4.17874C165.866 5.86038 164.502 7.22418 162.818 7.22418C161.135 7.22418 159.771 5.86038 159.771 4.17874C159.771 2.4971 161.135 1.1333 162.818 1.1333ZM166.866 4.17874C166.866 1.94419 165.054 0.133301 162.818 0.133301C160.583 0.133301 158.771 1.94419 158.771 4.17874C158.771 6.41329 160.583 8.22418 162.818 8.22418C165.054 8.22418 166.866 6.41329 166.866 4.17874ZM143.152 3.5339C143.27 4.1246 143.21 4.73691 142.979 5.29335C142.748 5.84978 142.358 6.32543 141.857 6.66011C141.355 6.9948 140.766 7.17349 140.163 7.17349C139.355 7.17349 138.579 6.85247 138.008 6.28127C137.436 5.71011 137.115 4.93558 137.115 4.12799C137.115 3.52575 137.294 2.93706 137.629 2.43623C137.964 1.93537 138.44 1.54487 138.997 1.31435C139.554 1.08382 140.166 1.02352 140.758 1.14106C141.349 1.25859 141.892 1.54875 142.318 1.97471C142.745 2.40065 143.035 2.94322 143.152 3.5339ZM143.903 5.67625C144.209 4.937 144.289 4.12349 144.133 3.33869C143.977 2.55387 143.591 1.8331 143.025 1.26737C142.459 0.70165 141.738 0.316326 140.953 0.160251C140.168 0.0041869 139.354 0.0842278 138.614 0.390384C137.875 0.696554 137.242 1.21518 136.798 1.88041C136.353 2.54567 136.115 3.32779 136.115 4.12799C136.115 5.20102 136.542 6.22998 137.301 6.98862C138.06 7.74722 139.09 8.1735 140.163 8.1735C140.964 8.1735 141.746 7.93622 142.412 7.49175C143.077 7.04728 143.596 6.4155 143.903 5.67625ZM97.6433 5.29335C97.8739 4.73691 97.9343 4.1246 97.8167 3.5339C97.6991 2.94322 97.4089 2.40065 96.9827 1.97471C96.5564 1.54875 96.0133 1.25859 95.4221 1.14106C94.8308 1.02352 94.2179 1.08382 93.661 1.31435C93.1041 1.54487 92.6281 1.93537 92.2932 2.43623C91.9583 2.93706 91.7796 3.52575 91.7796 4.12799C91.7796 4.93558 92.1007 5.71011 92.6722 6.28127C93.2438 6.85247 94.019 7.17349 94.8274 7.17349C95.4303 7.17349 96.0196 6.9948 96.5208 6.66011C97.022 6.32543 97.4127 5.84978 97.6433 5.29335ZM98.7975 3.33869C98.9537 4.12349 98.8735 4.93699 98.5671 5.67625C98.2607 6.4155 97.7418 7.04728 97.0761 7.49175C96.4105 7.93621 95.6279 8.17349 94.8274 8.17349C93.7539 8.17349 92.7244 7.74722 91.9653 6.98862C91.2062 6.22998 90.7796 5.20102 90.7796 4.12799C90.7796 3.32779 91.0171 2.54567 91.4619 1.88041C91.9067 1.21518 92.5389 0.696552 93.2785 0.390382C94.0181 0.0842258 94.8319 0.00418492 95.6171 0.160249C96.4022 0.316324 97.1235 0.701648 97.6896 1.26737C98.2557 1.8331 98.6412 2.55387 98.7975 3.33869ZM72.1722 1.1333C73.8557 1.1333 75.22 2.4971 75.22 4.17874C75.22 5.86037 73.8557 7.22418 72.1722 7.22418C70.4886 7.22418 69.1244 5.86037 69.1244 4.17874C69.1244 2.4971 70.4886 1.1333 72.1722 1.1333ZM76.22 4.17874C76.22 1.94419 74.4074 0.133297 72.1722 0.133297C69.937 0.133297 68.1244 1.94419 68.1244 4.17874C68.1244 6.41329 69.937 8.22418 72.1722 8.22418C74.4074 8.22418 76.22 6.41328 76.22 4.17874ZM52.3073 5.29334C52.538 4.73691 52.5983 4.1246 52.4808 3.5339C52.3632 2.94322 52.073 2.40065 51.6467 1.97471C51.2205 1.54875 50.6774 1.25859 50.0862 1.14106C49.4949 1.02352 48.882 1.08381 48.325 1.31435C47.7682 1.54487 47.2922 1.93537 46.9573 2.43623C46.6224 2.93705 46.4437 3.52575 46.4437 4.12799C46.4437 4.93558 46.7647 5.71011 47.3363 6.28127C47.9078 6.85247 48.6831 7.17349 49.4915 7.17349C50.0943 7.17349 50.6836 6.9948 51.1849 6.66011C51.6861 6.32542 52.0767 5.84978 52.3073 5.29334ZM53.4615 3.33869C53.6177 4.12349 53.5376 4.93699 53.2311 5.67625C52.9247 6.4155 52.4058 7.04727 51.7402 7.49175C51.0746 7.93621 50.292 8.17349 49.4915 8.17349C48.418 8.17349 47.3885 7.74721 46.6294 6.98861C45.8702 6.22998 45.4437 5.20102 45.4437 4.12799C45.4437 3.32779 45.6812 2.54567 46.126 1.8804C46.5708 1.21518 47.2029 0.69655 47.9426 0.39038C48.6822 0.0842238 49.496 0.00418294 50.2811 0.160247C51.0663 0.316322 51.7875 0.701646 52.3536 1.26736C52.9197 1.8331 53.3053 2.55387 53.4615 3.33869ZM26.8362 1.13329C28.5198 1.13329 29.884 2.4971 29.884 4.17873C29.884 5.86037 28.5198 7.22417 26.8362 7.22417C25.1527 7.22417 23.7884 5.86037 23.7884 4.17873C23.7884 2.4971 25.1527 1.13329 26.8362 1.13329ZM30.884 4.17874C30.884 1.94419 29.0715 0.133295 26.8362 0.133295C24.601 0.133295 22.7884 1.94419 22.7884 4.17873C22.7884 6.41328 24.601 8.22417 26.8362 8.22418C29.0715 8.22418 30.884 6.41328 30.884 4.17874ZM6.97169 5.29334C7.20232 4.73692 7.26263 4.12461 7.14505 3.5339C7.02748 2.94322 6.73727 2.40065 6.31104 1.9747C5.8848 1.54875 5.34171 1.25858 4.75046 1.14106C4.15915 1.02352 3.54631 1.08381 2.98938 1.31435C2.43248 1.54487 1.9565 1.93537 1.62161 2.43623C1.28673 2.93707 1.108 3.52576 1.108 4.12799C1.108 4.93556 1.42905 5.7101 2.00059 6.28127C2.57217 6.85246 3.34746 7.17349 4.15585 7.17349C4.75871 7.17349 5.34802 6.9948 5.84926 6.66011C6.35046 6.32543 6.74104 5.84979 6.97169 5.29334ZM8.12581 3.33868C8.28201 4.12346 8.2019 4.93697 7.89548 5.67624C7.58907 6.41548 7.07024 7.04726 6.40457 7.49175C5.73894 7.93621 4.95639 8.17349 4.15585 8.17349C3.08238 8.17349 2.05283 7.74722 1.29372 6.98861C0.534591 6.22998 0.108001 5.20103 0.108002 4.12799C0.108002 3.32777 0.345505 2.54565 0.790314 1.8804C1.23509 1.21517 1.86726 0.696548 2.60692 0.390378C3.34653 0.0842225 4.16031 0.00418054 4.94542 0.160245C5.73058 0.31632 6.45181 0.701644 7.01791 1.26736C7.58403 1.8331 7.9696 2.55387 8.12581 3.33868ZM162.818 22.5068C164.502 22.5068 165.866 23.8706 165.866 25.5523C165.866 27.2339 164.502 28.5977 162.818 28.5977C161.135 28.5977 159.771 27.2339 159.771 25.5523C159.771 23.8706 161.135 22.5068 162.818 22.5068ZM166.866 25.5523C166.866 23.3177 165.054 21.5068 162.818 21.5068C160.583 21.5068 158.771 23.3177 158.771 25.5523C158.771 27.7868 160.583 29.5977 162.818 29.5977C165.054 29.5977 166.866 27.7868 166.866 25.5523ZM142.981 26.6876C143.211 26.1299 143.27 25.5165 143.151 24.9252C143.031 24.3339 142.739 23.7913 142.311 23.3663C141.882 22.9412 141.337 22.6529 140.744 22.5378C140.152 22.4228 139.538 22.4863 138.982 22.7202C138.425 22.954 137.951 23.3478 137.618 23.8514C137.286 24.3551 137.111 24.946 137.115 25.5492C137.121 26.353 137.445 27.1219 138.016 27.6884C138.587 28.2549 139.359 28.5728 140.163 28.5728C140.767 28.5727 141.357 28.3936 141.859 28.0579C142.361 27.7223 142.751 27.2453 142.981 26.6876ZM144.131 24.7274C144.29 25.5129 144.211 26.3279 143.906 27.0688C143.6 27.8097 143.081 28.4433 142.415 28.8891C141.749 29.3348 140.965 29.5727 140.163 29.5728C139.095 29.5728 138.07 29.1507 137.311 28.3983C136.553 27.6459 136.123 26.6244 136.115 25.5563C136.11 24.7549 136.342 23.9699 136.784 23.3008C137.225 22.6317 137.855 22.1088 138.594 21.7982C139.333 21.4877 140.148 21.4033 140.935 21.5561C141.722 21.7089 142.446 22.0918 143.015 22.6564C143.584 23.221 143.972 23.9418 144.131 24.7274ZM97.8148 24.9252C97.9342 25.5165 97.8751 26.1299 97.6452 26.6876C97.4152 27.2453 97.0246 27.7223 96.5229 28.0579C96.0213 28.3936 95.4311 28.5727 94.8273 28.5728C94.0226 28.5728 93.2506 28.2549 92.6797 27.6884C92.1088 27.1219 91.7852 26.353 91.7795 25.5492C91.7752 24.946 91.9502 24.3551 92.2824 23.8514C92.6146 23.3478 93.0891 22.954 93.6457 22.7202C94.2023 22.4863 94.8158 22.4228 95.4085 22.5378C96.0012 22.6529 96.5463 22.9412 96.9747 23.3663C97.4031 23.7913 97.6955 24.3339 97.8148 24.9252ZM98.5696 27.0688C98.8752 26.3279 98.9536 25.5129 98.7951 24.7274C98.6365 23.9418 98.248 23.221 97.679 22.6564C97.11 22.0918 96.3861 21.7089 95.5991 21.5561C94.812 21.4033 93.9973 21.4877 93.2583 21.7982C92.5192 22.1088 91.889 22.6317 91.4477 23.3008C91.0063 23.9699 90.7738 24.7549 90.7795 25.5563C90.7871 26.6244 91.2171 27.6459 91.9754 28.3983C92.7337 29.1507 93.7588 29.5728 94.8273 29.5728C95.629 29.5727 96.4127 29.3348 97.079 28.8891C97.7453 28.4433 98.2641 27.8097 98.5696 27.0688ZM75.22 25.5523C75.22 23.8706 73.8557 22.5068 72.1722 22.5068C70.4886 22.5068 69.1244 23.8706 69.1244 25.5523C69.1244 27.2339 70.4886 28.5977 72.1722 28.5977C73.8557 28.5977 75.22 27.2339 75.22 25.5523ZM72.1722 21.5068C74.4074 21.5068 76.22 23.3177 76.22 25.5523C76.22 27.7868 74.4074 29.5977 72.1722 29.5977C69.9369 29.5977 68.1244 27.7868 68.1244 25.5523C68.1244 23.3177 69.9369 21.5068 72.1722 21.5068ZM52.4791 24.9252C52.5985 25.5165 52.5394 26.1299 52.3095 26.6876C52.0795 27.2453 51.6889 27.7223 51.1872 28.0579C50.6856 28.3936 50.0954 28.5727 49.4916 28.5727C48.6869 28.5728 47.9149 28.2549 47.344 27.6884C46.7731 27.1219 46.4495 26.353 46.4438 25.5492C46.4395 24.946 46.6145 24.3551 46.9467 23.8514C47.2789 23.3478 47.7534 22.954 48.31 22.7202C48.8666 22.4863 49.4801 22.4228 50.0728 22.5378C50.6655 22.6529 51.2106 22.9412 51.639 23.3663C52.0674 23.7913 52.3598 24.3339 52.4791 24.9252ZM53.2339 27.0688C53.5395 26.3279 53.6179 25.5129 53.4594 24.7273C53.3008 23.9418 52.9123 23.221 52.3433 22.6564C51.7743 22.0918 51.0504 21.7089 50.2634 21.5561C49.4763 21.4033 48.6616 21.4877 47.9226 21.7982C47.1835 22.1088 46.5533 22.6317 46.112 23.3008C45.6706 23.9699 45.4381 24.7549 45.4438 25.5563C45.4514 26.6244 45.8814 27.6459 46.6397 28.3983C47.398 29.1507 48.4231 29.5728 49.4916 29.5727C50.2933 29.5727 51.077 29.3348 51.7433 28.8891C52.4096 28.4433 52.9284 27.8097 53.2339 27.0688ZM29.884 25.5523C29.884 23.8706 28.5198 22.5068 26.8362 22.5068C25.1527 22.5068 23.7884 23.8706 23.7884 25.5523C23.7884 27.2339 25.1527 28.5977 26.8362 28.5977C28.5198 28.5977 29.884 27.2339 29.884 25.5523ZM26.8362 21.5068C29.0715 21.5068 30.884 23.3177 30.884 25.5523C30.884 27.7868 29.0715 29.5977 26.8362 29.5977C24.601 29.5977 22.7884 27.7868 22.7884 25.5523C22.7884 23.3177 24.601 21.5068 26.8362 21.5068ZM162.818 65.2549C164.502 65.2549 165.866 66.6187 165.866 68.3003C165.866 69.982 164.502 71.3458 162.818 71.3458C161.135 71.3458 159.771 69.982 159.771 68.3003C159.771 66.6187 161.135 65.2549 162.818 65.2549ZM166.866 68.3003C166.866 66.0658 165.054 64.2549 162.818 64.2549C160.583 64.2549 158.771 66.0658 158.771 68.3003C158.771 70.5349 160.583 72.3458 162.818 72.3458C165.054 72.3458 166.866 70.5349 166.866 68.3003ZM142.979 69.4656C143.21 68.9091 143.27 68.297 143.152 67.7063C143.035 67.1156 142.745 66.5728 142.318 66.1469C141.892 65.721 141.349 65.431 140.758 65.3134C140.166 65.1959 139.554 65.2562 138.997 65.4867C138.44 65.7173 137.964 66.1076 137.629 66.6084C137.294 67.1093 137.115 67.6981 137.115 68.3004C137.115 69.1079 137.436 69.8825 138.008 70.4536C138.579 71.0248 139.355 71.3457 140.163 71.3457C140.766 71.3457 141.355 71.167 141.857 70.8323C142.358 70.4976 142.748 70.022 142.979 69.4656ZM144.133 67.5111C144.289 68.2959 144.209 69.1092 143.903 69.8485C143.596 70.5877 143.077 71.2195 142.412 71.664C141.746 72.1084 140.964 72.3457 140.163 72.3457C139.09 72.3457 138.06 71.9196 137.301 71.161C136.542 70.4023 136.115 69.3734 136.115 68.3004C136.115 67.5002 136.353 66.7179 136.798 66.0526C137.242 65.3873 137.875 64.8689 138.614 64.5628C139.354 64.2566 140.168 64.1766 140.953 64.3326C141.738 64.4887 142.459 64.8738 143.025 65.4396C143.591 66.0053 143.977 66.7263 144.133 67.5111ZM97.8167 67.7063C97.9343 68.297 97.8739 68.9091 97.6433 69.4656C97.4127 70.022 97.022 70.4976 96.5208 70.8323C96.0196 71.167 95.4303 71.3457 94.8274 71.3457C94.019 71.3457 93.2437 71.0248 92.6722 70.4536C92.1007 69.8825 91.7796 69.1079 91.7796 68.3004C91.7796 67.6981 91.9584 67.1092 92.2932 66.6084C92.6281 66.1076 93.104 65.7173 93.661 65.4867C94.2179 65.2562 94.8308 65.1959 95.4221 65.3134C96.0134 65.431 96.5565 65.721 96.9827 66.1469C97.4089 66.5728 97.6991 67.1156 97.8167 67.7063ZM98.5671 69.8485C98.8735 69.1092 98.9537 68.2959 98.7975 67.5111C98.6412 66.7263 98.2557 66.0053 97.6895 65.4396C97.1234 64.8738 96.4022 64.4887 95.6171 64.3326C94.8319 64.1765 94.0181 64.2566 93.2785 64.5627C92.5389 64.8689 91.9067 65.3873 91.4619 66.0526C91.0171 66.7179 90.7796 67.5002 90.7796 68.3004C90.7796 69.3734 91.2062 70.4023 91.9653 71.161C92.7245 71.9196 93.754 72.3457 94.8274 72.3457C95.6279 72.3457 96.4105 72.1084 97.0761 71.664C97.7418 71.2195 98.2607 70.5877 98.5671 69.8485ZM165.866 89.6743C165.866 87.9927 164.502 86.6289 162.818 86.6289C161.135 86.6289 159.771 87.9927 159.771 89.6743C159.771 91.356 161.135 92.7198 162.818 92.7198C164.502 92.7198 165.866 91.356 165.866 89.6743ZM162.818 85.6289C165.054 85.6289 166.866 87.4398 166.866 89.6743C166.866 91.9089 165.054 93.7198 162.818 93.7198C160.583 93.7198 158.771 91.9089 158.771 89.6743C158.771 87.4398 160.583 85.6289 162.818 85.6289ZM143.152 89.0803C143.27 89.671 143.21 90.2831 142.979 90.8396C142.748 91.396 142.358 91.8717 141.857 92.2063C141.355 92.541 140.766 92.7197 140.163 92.7197C139.355 92.7197 138.579 92.3988 138.008 91.8277C137.436 91.2565 137.115 90.482 137.115 89.6744C137.115 89.0721 137.294 88.4833 137.629 87.9825C137.964 87.4817 138.44 87.0913 138.997 86.8607C139.554 86.6302 140.166 86.5699 140.758 86.6874C141.349 86.805 141.892 87.095 142.318 87.5209C142.745 87.9469 143.035 88.4896 143.152 89.0803ZM143.903 91.2225C144.209 90.4832 144.289 89.6699 144.133 88.8851C143.977 88.1003 143.591 87.3794 143.025 86.8136C142.459 86.2478 141.738 85.8627 140.953 85.7066C140.168 85.5506 139.354 85.6306 138.614 85.9368C137.875 86.2429 137.242 86.7614 136.798 87.4266C136.353 88.0919 136.115 88.8742 136.115 89.6744C136.115 90.7474 136.542 91.7764 137.301 92.535C138.06 93.2936 139.09 93.7197 140.163 93.7197C140.964 93.7197 141.746 93.4825 142.412 93.038C143.077 92.5935 143.596 91.9617 143.903 91.2225ZM162.818 108.028C164.502 108.028 165.866 109.392 165.866 111.074C165.866 112.755 164.502 114.119 162.818 114.119C161.135 114.119 159.771 112.755 159.771 111.074C159.771 109.392 161.135 108.028 162.818 108.028ZM166.866 111.074C166.866 108.839 165.054 107.028 162.818 107.028C160.583 107.028 158.771 108.839 158.771 111.074C158.771 113.308 160.583 115.119 162.818 115.119C165.054 115.119 166.866 113.308 166.866 111.074ZM142.979 112.214C143.21 111.657 143.27 111.045 143.152 110.454C143.035 109.864 142.745 109.321 142.318 108.895C141.892 108.469 141.349 108.179 140.758 108.061C140.166 107.944 139.554 108.004 138.997 108.235C138.44 108.465 137.964 108.856 137.629 109.356C137.294 109.857 137.115 110.446 137.115 111.048C137.115 111.856 137.436 112.631 138.008 113.202C138.579 113.773 139.355 114.094 140.163 114.094C140.766 114.094 141.355 113.915 141.857 113.58C142.358 113.246 142.748 112.77 142.979 112.214ZM144.133 110.259C144.289 111.044 144.209 111.857 143.903 112.597C143.596 113.336 143.077 113.968 142.412 114.412C141.746 114.856 140.964 115.094 140.163 115.094C139.09 115.094 138.06 114.668 137.301 113.909C136.542 113.15 136.115 112.121 136.115 111.048C136.115 110.248 136.353 109.466 136.798 108.801C137.242 108.135 137.875 107.617 138.614 107.311C139.354 107.005 140.168 106.925 140.953 107.081C141.738 107.237 142.459 107.622 143.025 108.188C143.591 108.753 143.977 109.474 144.133 110.259ZM162.818 129.402C164.502 129.402 165.866 130.766 165.866 132.447C165.866 134.129 164.502 135.493 162.818 135.493C161.135 135.493 159.771 134.129 159.771 132.447C159.771 130.766 161.135 129.402 162.818 129.402ZM166.866 132.447C166.866 130.213 165.054 128.402 162.818 128.402C160.583 128.402 158.771 130.213 158.771 132.447C158.771 134.682 160.583 136.493 162.818 136.493C165.054 136.493 166.866 134.682 166.866 132.447ZM142.979 133.588C143.21 133.031 143.27 132.419 143.152 131.828C143.035 131.238 142.745 130.695 142.318 130.269C141.892 129.843 141.349 129.553 140.758 129.435C140.166 129.318 139.554 129.378 138.997 129.609C138.44 129.839 137.964 130.23 137.629 130.731C137.294 131.231 137.115 131.82 137.115 132.422C137.115 133.23 137.436 134.005 138.008 134.576C138.579 135.147 139.355 135.468 140.163 135.468C140.766 135.468 141.355 135.289 141.857 134.954C142.358 134.62 142.748 134.144 142.979 133.588ZM144.133 131.633C144.289 132.418 144.209 133.231 143.903 133.971C143.596 134.71 143.077 135.342 142.412 135.786C141.746 136.23 140.964 136.468 140.163 136.468C139.09 136.468 138.06 136.042 137.301 135.283C136.542 134.524 136.115 133.495 136.115 132.422C136.115 131.622 136.353 130.84 136.798 130.175C137.242 129.509 137.875 128.991 138.614 128.685C139.354 128.379 140.168 128.299 140.953 128.455C141.738 128.611 142.459 128.996 143.025 129.562C143.591 130.127 143.977 130.848 144.133 131.633ZM165.806 153.194C165.925 153.785 165.866 154.398 165.636 154.956C165.406 155.514 165.016 155.991 164.514 156.327C164.012 156.662 163.422 156.841 162.818 156.841C162.014 156.841 161.242 156.523 160.671 155.957C160.1 155.391 159.776 154.621 159.771 153.818C159.766 153.214 159.941 152.624 160.274 152.12C160.606 151.616 161.08 151.222 161.637 150.989C162.193 150.755 162.807 150.691 163.4 150.806C163.992 150.921 164.537 151.21 164.966 151.635C165.394 152.06 165.687 152.603 165.806 153.194ZM166.561 155.337C166.866 154.596 166.945 153.782 166.786 152.996C166.628 152.21 166.239 151.49 165.67 150.925C165.101 150.36 164.377 149.978 163.59 149.825C162.803 149.672 161.989 149.756 161.249 150.067C160.51 150.377 159.88 150.9 159.439 151.569C158.998 152.238 158.765 153.023 158.771 153.825C158.778 154.893 159.208 155.914 159.967 156.667C160.725 157.419 161.75 157.841 162.818 157.841C163.62 157.841 164.404 157.603 165.07 157.158C165.736 156.712 166.255 156.078 166.561 155.337Z" fill="#DCEDFF"/>
</g>
<defs>
<clipPath id="clip0_199_418">
<rect width="158" height="167" fill="white" transform="translate(167) rotate(90)"/>
</clipPath>
</defs>
</svg>
