<svg width="524" height="858" viewBox="0 0 524 858" fill="none" xmlns="http://www.w3.org/2000/svg">
<path d="M-137.514 404.436C-149.434 443.027 -137.912 461.531 -130.66 465.959C-112.81 473.363 -95.8048 448.892 -89.5333 435.731L33.9809 233.165C43.1571 324.783 61.9012 512.59 63.468 530.876C65.4265 553.734 76.3065 615.815 102.617 618.439C123.665 620.538 148.348 589.535 158.058 573.771L323.173 315.378C338.802 451.694 374.868 734.028 394.106 772.835C418.155 821.344 461.271 858.125 496.192 857.837C524.13 857.606 525.668 812.989 522.946 790.71L495.646 610.339C474.688 482.866 428.861 213.208 413.222 154.367C397.584 95.527 368.846 77.3724 356.431 75.6501C349.04 72.2293 327.437 70.1903 300.149 89.4015C272.862 108.613 177.027 306.396 132.521 402.886C138.105 276.356 139.17 19.2272 98.7499 2.94255C58.3304 -13.3421 16.1131 51.3658 0.0569138 85.7553C-40.8335 175.903 -125.594 365.845 -137.514 404.436Z" fill="url(#paint0_linear_526_2)"/>
<defs>
<linearGradient id="paint0_linear_526_2" x1="488.75" y1="-113.761" x2="269.765" y2="826.971" gradientUnits="userSpaceOnUse">
<stop stop-color="#DCEDFF"/>
<stop offset="0.333333" stop-color="#EDF5FC"/>
<stop offset="1" stop-color="#F7FBFF"/>
</linearGradient>
</defs>
</svg>
