<svg width="146" height="139" viewBox="0 0 146 139" fill="none" xmlns="http://www.w3.org/2000/svg">
<path d="M46.1622 135.386C46.1622 136.004 45.9793 136.609 45.6366 137.123C45.2939 137.637 44.8069 138.038 44.237 138.275C43.6671 138.511 43.04 138.573 42.4351 138.453C41.8301 138.332 41.2744 138.034 40.8382 137.597C40.4021 137.16 40.1051 136.603 39.9847 135.996C39.8644 135.389 39.9261 134.761 40.1622 134.189C40.3982 133.618 40.798 133.13 41.3109 132.786C41.8237 132.442 42.4267 132.259 43.0435 132.259C43.4531 132.259 43.8586 132.34 44.237 132.497C44.6154 132.654 44.9592 132.885 45.2488 133.175C45.5384 133.465 45.7681 133.81 45.9248 134.189C46.0816 134.569 46.1622 134.975 46.1622 135.386Z" fill="#61A1F4"/>
<path d="M66.1373 135.386C66.1373 136.004 65.9544 136.609 65.6117 137.123C65.269 137.637 64.7819 138.038 64.2121 138.275C63.6422 138.511 63.0151 138.573 62.4101 138.453C61.8052 138.332 61.2495 138.034 60.8133 137.597C60.3772 137.16 60.0801 136.602 59.9598 135.996C59.8395 135.389 59.9012 134.761 60.1373 134.189C60.3733 133.618 60.7731 133.13 61.2859 132.786C61.7988 132.442 62.4018 132.259 63.0186 132.259C63.8457 132.259 64.639 132.588 65.2239 133.175C65.8087 133.761 66.1373 134.557 66.1373 135.386Z" fill="#61A1F4"/>
<path d="M86.0999 135.386C86.0999 136.004 85.917 136.609 85.5743 137.123C85.2316 137.637 84.7445 138.038 84.1746 138.275C83.6048 138.511 82.9777 138.573 82.3727 138.453C81.7678 138.332 81.2121 138.034 80.7759 137.597C80.3398 137.16 80.0427 136.603 79.9224 135.996C79.8021 135.389 79.8638 134.761 80.0999 134.189C80.3359 133.618 80.7356 133.13 81.2485 132.786C81.7614 132.442 82.3643 132.259 82.9812 132.259C83.8083 132.259 84.6015 132.589 85.1864 133.175C85.7713 133.761 86.0999 134.557 86.0999 135.386Z" fill="#61A1F4"/>
<path d="M106.062 135.386C106.062 136.004 105.879 136.609 105.537 137.123C105.194 137.637 104.707 138.038 104.137 138.275C103.567 138.511 102.94 138.573 102.335 138.453C101.73 138.332 101.174 138.034 100.738 137.597C100.302 137.16 100.005 136.603 99.8848 135.996C99.7645 135.389 99.8262 134.761 100.062 134.189C100.298 133.618 100.698 133.13 101.211 132.786C101.724 132.442 102.327 132.259 102.944 132.259C103.771 132.259 104.564 132.589 105.149 133.175C105.734 133.761 106.062 134.557 106.062 135.386Z" fill="#61A1F4"/>
<path d="M26.1996 116.496C26.1996 117.114 26.0167 117.718 25.674 118.233C25.3314 118.747 24.8443 119.148 24.2744 119.384C23.7045 119.621 23.0775 119.683 22.4725 119.562C21.8675 119.442 21.3118 119.144 20.8756 118.707C20.4395 118.269 20.1424 117.712 20.0221 117.106C19.9018 116.499 19.9635 115.87 20.1996 115.299C20.4356 114.728 20.8354 114.239 21.3482 113.896C21.8611 113.552 22.4641 113.369 23.0809 113.369C23.908 113.369 24.7013 113.698 25.2862 114.284C25.8711 114.871 26.1996 115.666 26.1996 116.496Z" fill="#61A1F4"/>
<path d="M46.1622 116.495C46.1597 117.113 45.975 117.715 45.6313 118.228C45.2876 118.74 44.8004 119.139 44.2311 119.374C43.6617 119.609 43.0357 119.67 42.4319 119.549C41.8282 119.428 41.2737 119.13 40.8383 118.693C40.4029 118.257 40.1061 117.701 39.9854 117.096C39.8647 116.49 39.9253 115.863 40.1597 115.292C40.3942 114.721 40.7919 114.233 41.3028 113.888C41.8137 113.543 42.4149 113.358 43.0306 113.356C43.4424 113.354 43.8504 113.434 44.2311 113.591C44.6118 113.748 44.9577 113.98 45.2488 114.271C45.54 114.563 45.7705 114.91 45.9273 115.292C46.0841 115.674 46.1639 116.083 46.1622 116.495Z" fill="#61A1F4"/>
<path d="M66.1373 116.496C66.1373 117.114 65.9544 117.718 65.6117 118.233C65.269 118.747 64.7819 119.148 64.2121 119.384C63.6422 119.621 63.0151 119.683 62.4101 119.562C61.8052 119.442 61.2495 119.144 60.8133 118.707C60.3772 118.269 60.0801 117.712 59.9598 117.106C59.8395 116.499 59.9012 115.87 60.1373 115.299C60.3733 114.728 60.7731 114.239 61.2859 113.896C61.7988 113.552 62.4018 113.369 63.0186 113.369C63.8447 113.372 64.636 113.703 65.2201 114.288C65.8043 114.874 66.1339 115.667 66.1373 116.496Z" fill="#61A1F4"/>
<path d="M86.0999 116.495C86.0973 117.113 85.9123 117.717 85.5681 118.229C85.2238 118.742 84.7358 119.14 84.1657 119.375C83.5957 119.61 82.969 119.67 82.3649 119.548C81.7608 119.426 81.2062 119.127 80.7714 118.689C80.3365 118.251 80.0408 117.694 79.9215 117.088C79.8022 116.482 79.8647 115.854 80.1011 115.283C80.3375 114.712 80.7372 114.225 81.2498 113.882C81.7624 113.539 82.3649 113.356 82.9812 113.356C83.3918 113.356 83.7984 113.437 84.1776 113.595C84.5568 113.753 84.9012 113.984 85.191 114.276C85.4807 114.568 85.7102 114.914 85.8662 115.295C86.0221 115.676 86.1016 116.084 86.0999 116.495Z" fill="#61A1F4"/>
<path d="M106.062 116.495C106.062 117.114 105.879 117.718 105.537 118.233C105.194 118.747 104.707 119.148 104.137 119.384C103.567 119.621 102.94 119.683 102.335 119.562C101.73 119.442 101.174 119.144 100.738 118.706C100.302 118.269 100.005 117.712 99.8848 117.105C99.7645 116.499 99.8262 115.87 100.062 115.299C100.298 114.727 100.698 114.239 101.211 113.896C101.724 113.552 102.327 113.369 102.944 113.369C103.771 113.369 104.564 113.698 105.149 114.284C105.734 114.871 106.062 115.666 106.062 116.495Z" fill="#61A1F4"/>
<path d="M126.038 116.495C126.035 117.114 125.85 117.718 125.505 118.23C125.16 118.743 124.671 119.142 124.101 119.376C123.53 119.611 122.903 119.67 122.298 119.547C121.694 119.424 121.139 119.123 120.705 118.684C120.27 118.245 119.976 117.687 119.858 117.08C119.74 116.473 119.804 115.844 120.043 115.274C120.281 114.704 120.683 114.217 121.197 113.875C121.711 113.534 122.315 113.353 122.932 113.356C123.758 113.362 124.548 113.696 125.13 114.284C125.711 114.872 126.038 115.667 126.038 116.495Z" fill="#61A1F4"/>
<path d="M26.1996 97.5922C26.1996 98.2106 26.0167 98.8152 25.674 99.3294C25.3314 99.8436 24.8443 100.244 24.2744 100.481C23.7045 100.718 23.0775 100.78 22.4725 100.659C21.8675 100.538 21.3118 100.241 20.8756 99.8032C20.4395 99.3659 20.1424 98.8088 20.0221 98.2022C19.9018 97.5957 19.9635 96.967 20.1996 96.3956C20.4356 95.8242 20.8354 95.3359 21.3482 94.9923C21.8611 94.6487 22.4641 94.4653 23.0809 94.4653C23.908 94.4653 24.7013 94.7948 25.2862 95.3812C25.8711 95.9676 26.1996 96.7629 26.1996 97.5922Z" fill="#61A1F4"/>
<path d="M46.1622 97.5921C46.1622 98.2105 45.9793 98.8151 45.6366 99.3293C45.2939 99.8435 44.8069 100.244 44.237 100.481C43.6671 100.718 43.04 100.78 42.4351 100.659C41.8301 100.538 41.2744 100.24 40.8382 99.8031C40.4021 99.3658 40.1051 98.8087 39.9847 98.2021C39.8644 97.5956 39.9261 96.9668 40.1622 96.3955C40.3982 95.8241 40.798 95.3358 41.3109 94.9922C41.8237 94.6486 42.4267 94.4652 43.0435 94.4652C43.4531 94.4652 43.8586 94.5461 44.237 94.7032C44.6154 94.8604 44.9592 95.0907 45.2488 95.381C45.5384 95.6714 45.7681 96.0161 45.9248 96.3955C46.0816 96.7748 46.1622 97.1814 46.1622 97.5921Z" fill="#61A1F4"/>
<path d="M66.1373 97.5922C66.1373 98.2106 65.9544 98.8152 65.6117 99.3294C65.269 99.8436 64.7819 100.244 64.2121 100.481C63.6422 100.718 63.0151 100.78 62.4101 100.659C61.8052 100.538 61.2495 100.241 60.8133 99.8032C60.3772 99.3659 60.0801 98.8088 59.9598 98.2022C59.8395 97.5957 59.9012 96.967 60.1373 96.3956C60.3733 95.8242 60.7731 95.3359 61.2859 94.9923C61.7988 94.6487 62.4018 94.4653 63.0186 94.4653C63.8447 94.4687 64.636 94.7993 65.2201 95.3849C65.8043 95.9706 66.1339 96.7639 66.1373 97.5922Z" fill="#61A1F4"/>
<path d="M86.0999 97.5921C86.0999 98.2105 85.917 98.8151 85.5743 99.3293C85.2316 99.8435 84.7445 100.244 84.1746 100.481C83.6048 100.718 82.9777 100.78 82.3727 100.659C81.7678 100.538 81.2121 100.24 80.7759 99.8031C80.3398 99.3658 80.0427 98.8087 79.9224 98.2021C79.8021 97.5956 79.8638 96.9668 80.0999 96.3955C80.3359 95.8241 80.7356 95.3358 81.2485 94.9922C81.7614 94.6486 82.3643 94.4652 82.9812 94.4652C83.8083 94.4652 84.6015 94.7946 85.1864 95.381C85.7713 95.9675 86.0999 96.7628 86.0999 97.5921Z" fill="#61A1F4"/>
<path d="M106.062 97.5921C106.062 98.2105 105.879 98.8151 105.537 99.3293C105.194 99.8435 104.707 100.244 104.137 100.481C103.567 100.718 102.94 100.78 102.335 100.659C101.73 100.538 101.174 100.24 100.738 99.8031C100.302 99.3658 100.005 98.8087 99.8848 98.2021C99.7645 97.5956 99.8262 96.9668 100.062 96.3955C100.298 95.8241 100.698 95.3358 101.211 94.9922C101.724 94.6486 102.327 94.4652 102.944 94.4652C103.771 94.4652 104.564 94.7946 105.149 95.381C105.734 95.9675 106.062 96.7628 106.062 97.5921Z" fill="#61A1F4"/>
<path d="M126.038 97.5922C126.038 98.2106 125.855 98.8152 125.512 99.3294C125.169 99.8436 124.682 100.244 124.112 100.481C123.543 100.718 122.916 100.78 122.311 100.659C121.706 100.538 121.15 100.241 120.714 99.8032C120.278 99.3659 119.981 98.8088 119.86 98.2022C119.74 97.5957 119.802 96.967 120.038 96.3956C120.274 95.8242 120.673 95.3359 121.186 94.9923C121.699 94.6487 122.302 94.4653 122.919 94.4653C123.745 94.4687 124.536 94.7993 125.121 95.3849C125.705 95.9706 126.034 96.7639 126.038 97.5922Z" fill="#61A1F4"/>
<path d="M6.23746 78.7016C6.23746 79.3201 6.05452 79.9246 5.71183 80.4388C5.36914 80.953 4.88207 81.3538 4.3122 81.5905C3.74232 81.8272 3.11528 81.8891 2.51031 81.7684C1.90533 81.6478 1.3496 81.35 0.913437 80.9127C0.477276 80.4754 0.180259 79.9182 0.0599221 79.3117C-0.0604144 78.7051 0.00136458 78.0764 0.237413 77.505C0.473462 76.9337 0.87318 76.4453 1.38605 76.1017C1.89892 75.7581 2.5019 75.5748 3.11872 75.5748C3.94586 75.5748 4.73914 75.9042 5.32401 76.4906C5.90888 77.077 6.23746 77.8723 6.23746 78.7016Z" fill="#61A1F4"/>
<path d="M26.1996 78.7016C26.1996 79.3201 26.0167 79.9246 25.674 80.4388C25.3314 80.953 24.8443 81.3538 24.2744 81.5905C23.7045 81.8272 23.0775 81.8891 22.4725 81.7684C21.8675 81.6478 21.3118 81.35 20.8756 80.9127C20.4395 80.4754 20.1424 79.9182 20.0221 79.3117C19.9018 78.7051 19.9635 78.0764 20.1996 77.505C20.4356 76.9337 20.8354 76.4453 21.3482 76.1017C21.8611 75.7581 22.4641 75.5748 23.0809 75.5748C23.908 75.5748 24.7013 75.9042 25.2862 76.4906C25.8711 77.077 26.1996 77.8723 26.1996 78.7016Z" fill="#61A1F4"/>
<path d="M46.1622 78.7016C46.1622 79.3201 45.9793 79.9246 45.6366 80.4388C45.2939 80.953 44.8069 81.3538 44.237 81.5905C43.6671 81.8272 43.04 81.8891 42.4351 81.7684C41.8301 81.6478 41.2744 81.35 40.8382 80.9127C40.4021 80.4754 40.1051 79.9182 39.9847 79.3117C39.8644 78.7051 39.9261 78.0764 40.1622 77.505C40.3982 76.9337 40.798 76.4453 41.3109 76.1017C41.8237 75.7581 42.4267 75.5748 43.0435 75.5748C43.4531 75.5748 43.8586 75.6556 44.237 75.8128C44.6154 75.9699 44.9592 76.2003 45.2488 76.4906C45.5384 76.781 45.7681 77.1257 45.9248 77.505C46.0816 77.8844 46.1622 78.291 46.1622 78.7016Z" fill="#61A1F4"/>
<path d="M66.1373 78.7016C66.1373 79.3201 65.9544 79.9246 65.6117 80.4388C65.269 80.953 64.7819 81.3538 64.2121 81.5905C63.6422 81.8272 63.0151 81.8891 62.4101 81.7684C61.8052 81.6478 61.2495 81.35 60.8133 80.9127C60.3772 80.4754 60.0801 79.9182 59.9598 79.3117C59.8395 78.7051 59.9012 78.0764 60.1373 77.505C60.3733 76.9337 60.7731 76.4453 61.2859 76.1017C61.7988 75.7581 62.4018 75.5748 63.0186 75.5748C63.8457 75.5748 64.639 75.9042 65.2239 76.4906C65.8087 77.077 66.1373 77.8723 66.1373 78.7016Z" fill="#61A1F4"/>
<path d="M86.0999 78.7016C86.0999 79.3201 85.917 79.9246 85.5743 80.4388C85.2316 80.953 84.7445 81.3538 84.1746 81.5905C83.6048 81.8272 82.9777 81.8891 82.3727 81.7684C81.7678 81.6478 81.2121 81.35 80.7759 80.9127C80.3398 80.4754 80.0427 79.9182 79.9224 79.3117C79.8021 78.7051 79.8638 78.0764 80.0999 77.505C80.3359 76.9337 80.7356 76.4453 81.2485 76.1017C81.7614 75.7581 82.3643 75.5748 82.9812 75.5748C83.8083 75.5748 84.6015 75.9042 85.1864 76.4906C85.7713 77.077 86.0999 77.8723 86.0999 78.7016Z" fill="#61A1F4"/>
<path d="M106.062 78.7016C106.062 79.3201 105.879 79.9246 105.537 80.4388C105.194 80.953 104.707 81.3538 104.137 81.5905C103.567 81.8272 102.94 81.8891 102.335 81.7684C101.73 81.6478 101.174 81.35 100.738 80.9127C100.302 80.4754 100.005 79.9182 99.8848 79.3117C99.7645 78.7051 99.8262 78.0764 100.062 77.505C100.298 76.9337 100.698 76.4453 101.211 76.1017C101.724 75.7581 102.327 75.5748 102.944 75.5748C103.771 75.5748 104.564 75.9042 105.149 76.4906C105.734 77.077 106.062 77.8723 106.062 78.7016Z" fill="#61A1F4"/>
<path d="M126.038 78.7016C126.038 79.3201 125.855 79.9246 125.512 80.4388C125.169 80.953 124.682 81.3538 124.112 81.5905C123.543 81.8272 122.916 81.8891 122.311 81.7684C121.706 81.6478 121.15 81.35 120.714 80.9127C120.278 80.4754 119.981 79.9182 119.86 79.3117C119.74 78.7051 119.802 78.0764 120.038 77.505C120.274 76.9337 120.673 76.4453 121.186 76.1017C121.699 75.7581 122.302 75.5748 122.919 75.5748C123.746 75.5748 124.539 75.9042 125.124 76.4906C125.709 77.077 126.038 77.8723 126.038 78.7016Z" fill="#61A1F4"/>
<path d="M142.881 81.8285C144.604 81.8285 146 80.4286 146 78.7016C146 76.9747 144.604 75.5748 142.881 75.5748C141.159 75.5748 139.763 76.9747 139.763 78.7016C139.763 80.4286 141.159 81.8285 142.881 81.8285Z" fill="#61A1F4"/>
<path d="M6.23746 59.8112C6.23746 60.4296 6.05452 61.0342 5.71183 61.5484C5.36914 62.0626 4.88207 62.4634 4.3122 62.7C3.74232 62.9367 3.11528 62.9986 2.51031 62.878C1.90533 62.7573 1.3496 62.4595 0.913437 62.0222C0.477276 61.5849 0.180259 61.0277 0.0599221 60.4212C-0.0604144 59.8146 0.00136458 59.1859 0.237413 58.6146C0.473462 58.0432 0.87318 57.5549 1.38605 57.2113C1.89892 56.8677 2.5019 56.6843 3.11872 56.6843C3.94586 56.6843 4.73914 57.0138 5.32401 57.6002C5.90888 58.1866 6.23746 58.9819 6.23746 59.8112Z" fill="#61A1F4"/>
<path d="M26.1996 59.8111C26.1996 60.4295 26.0167 61.034 25.674 61.5483C25.3314 62.0625 24.8443 62.4632 24.2744 62.6999C23.7045 62.9366 23.0775 62.9985 22.4725 62.8779C21.8675 62.7572 21.3118 62.4594 20.8756 62.0221C20.4395 61.5848 20.1424 61.0276 20.0221 60.4211C19.9018 59.8145 19.9635 59.1858 20.1996 58.6145C20.4356 58.0431 20.8354 57.5548 21.3482 57.2112C21.8611 56.8676 22.4641 56.6842 23.0809 56.6842C23.908 56.6842 24.7013 57.0136 25.2862 57.6C25.8711 58.1864 26.1996 58.9818 26.1996 59.8111Z" fill="#61A1F4"/>
<path d="M46.1622 59.8112C46.1622 60.4296 45.9793 61.0342 45.6366 61.5484C45.2939 62.0626 44.8069 62.4634 44.237 62.7C43.6671 62.9367 43.04 62.9986 42.4351 62.878C41.8301 62.7573 41.2744 62.4595 40.8382 62.0222C40.4021 61.5849 40.1051 61.0277 39.9847 60.4212C39.8644 59.8146 39.9261 59.1859 40.1622 58.6146C40.3982 58.0432 40.798 57.5549 41.3109 57.2113C41.8237 56.8677 42.4267 56.6843 43.0435 56.6843C43.4531 56.6843 43.8586 56.7652 44.237 56.9223C44.6154 57.0795 44.9592 57.3098 45.2488 57.6002C45.5384 57.8905 45.7681 58.2352 45.9248 58.6146C46.0816 58.994 46.1622 59.4006 46.1622 59.8112Z" fill="#61A1F4"/>
<path d="M66.1373 59.8111C66.1373 60.4295 65.9544 61.034 65.6117 61.5483C65.269 62.0625 64.7819 62.4632 64.2121 62.6999C63.6422 62.9366 63.0151 62.9985 62.4101 62.8779C61.8052 62.7572 61.2495 62.4594 60.8133 62.0221C60.3772 61.5848 60.0801 61.0276 59.9598 60.4211C59.8395 59.8145 59.9012 59.1858 60.1373 58.6145C60.3733 58.0431 60.7731 57.5548 61.2859 57.2112C61.7988 56.8676 62.4018 56.6842 63.0186 56.6842C63.8457 56.6842 64.639 57.0136 65.2239 57.6C65.8087 58.1864 66.1373 58.9818 66.1373 59.8111Z" fill="#61A1F4"/>
<path d="M86.0999 59.8112C86.0999 60.4296 85.917 61.0342 85.5743 61.5484C85.2316 62.0626 84.7445 62.4634 84.1746 62.7C83.6048 62.9367 82.9777 62.9986 82.3727 62.878C81.7678 62.7573 81.2121 62.4595 80.7759 62.0222C80.3398 61.5849 80.0427 61.0277 79.9224 60.4212C79.8021 59.8146 79.8638 59.1859 80.0999 58.6146C80.3359 58.0432 80.7356 57.5549 81.2485 57.2113C81.7614 56.8677 82.3643 56.6843 82.9812 56.6843C83.8083 56.6843 84.6015 57.0138 85.1864 57.6002C85.7713 58.1866 86.0999 58.9819 86.0999 59.8112Z" fill="#61A1F4"/>
<path d="M106.062 59.8112C106.062 60.4296 105.879 61.0342 105.537 61.5484C105.194 62.0626 104.707 62.4634 104.137 62.7C103.567 62.9367 102.94 62.9986 102.335 62.878C101.73 62.7573 101.174 62.4595 100.738 62.0222C100.302 61.5849 100.005 61.0277 99.8848 60.4212C99.7645 59.8146 99.8262 59.1859 100.062 58.6146C100.298 58.0432 100.698 57.5549 101.211 57.2113C101.724 56.8677 102.327 56.6843 102.944 56.6843C103.771 56.6843 104.564 57.0138 105.149 57.6002C105.734 58.1866 106.062 58.9819 106.062 59.8112Z" fill="#61A1F4"/>
<path d="M126.038 59.8111C126.038 60.4295 125.855 61.034 125.512 61.5483C125.169 62.0625 124.682 62.4632 124.112 62.6999C123.543 62.9366 122.916 62.9985 122.311 62.8779C121.706 62.7572 121.15 62.4594 120.714 62.0221C120.278 61.5848 119.981 61.0276 119.86 60.4211C119.74 59.8145 119.802 59.1858 120.038 58.6145C120.274 58.0431 120.673 57.5548 121.186 57.2112C121.699 56.8676 122.302 56.6842 122.919 56.6842C123.746 56.6842 124.539 57.0136 125.124 57.6C125.709 58.1864 126.038 58.9818 126.038 59.8111Z" fill="#61A1F4"/>
<path d="M146 59.8112C146 60.4296 145.817 61.0342 145.474 61.5484C145.132 62.0626 144.645 62.4634 144.075 62.7C143.505 62.9367 142.878 62.9986 142.273 62.878C141.668 62.7573 141.112 62.4595 140.676 62.0222C140.24 61.5849 139.943 61.0277 139.822 60.4212C139.702 59.8146 139.764 59.1859 140 58.6146C140.236 58.0432 140.636 57.5549 141.149 57.2113C141.661 56.8677 142.264 56.6843 142.881 56.6843C143.708 56.6843 144.502 57.0138 145.087 57.6002C145.671 58.1866 146 58.9819 146 59.8112Z" fill="#61A1F4"/>
<path d="M26.1996 40.9208C26.1996 41.5392 26.0167 42.1438 25.674 42.658C25.3314 43.1722 24.8443 43.573 24.2744 43.8096C23.7045 44.0463 23.0775 44.1082 22.4725 43.9876C21.8675 43.8669 21.3118 43.5691 20.8756 43.1318C20.4395 42.6945 20.1424 42.1373 20.0221 41.5308C19.9018 40.9242 19.9635 40.2955 20.1996 39.7242C20.4356 39.1528 20.8354 38.6645 21.3482 38.3209C21.8611 37.9773 22.4641 37.7939 23.0809 37.7939C23.908 37.7939 24.7013 38.1233 25.2862 38.7097C25.8711 39.2961 26.1996 40.0915 26.1996 40.9208Z" fill="#61A1F4"/>
<path d="M46.1622 40.9208C46.1622 41.5392 45.9793 42.1438 45.6366 42.658C45.2939 43.1722 44.8069 43.573 44.237 43.8096C43.6671 44.0463 43.04 44.1082 42.4351 43.9876C41.8301 43.8669 41.2744 43.5691 40.8382 43.1318C40.4021 42.6945 40.1051 42.1373 39.9847 41.5308C39.8644 40.9242 39.9261 40.2955 40.1622 39.7242C40.3982 39.1528 40.798 38.6645 41.3109 38.3209C41.8237 37.9773 42.4267 37.7939 43.0435 37.7939C43.4531 37.7939 43.8586 37.8748 44.237 38.0319C44.6154 38.1891 44.9592 38.4194 45.2488 38.7097C45.5384 39.0001 45.7681 39.3448 45.9248 39.7242C46.0816 40.1036 46.1622 40.5101 46.1622 40.9208Z" fill="#61A1F4"/>
<path d="M66.1373 40.9208C66.1373 41.5392 65.9544 42.1438 65.6117 42.658C65.269 43.1722 64.7819 43.573 64.2121 43.8096C63.6422 44.0463 63.0151 44.1082 62.4101 43.9876C61.8052 43.8669 61.2495 43.5691 60.8133 43.1318C60.3772 42.6945 60.0801 42.1373 59.9598 41.5308C59.8395 40.9242 59.9012 40.2955 60.1373 39.7242C60.3733 39.1528 60.7731 38.6645 61.2859 38.3209C61.7988 37.9773 62.4018 37.7939 63.0186 37.7939C63.8447 37.7973 64.636 38.1278 65.2201 38.7135C65.8043 39.2992 66.1339 40.0925 66.1373 40.9208Z" fill="#61A1F4"/>
<path d="M86.0999 40.9208C86.0999 41.5392 85.917 42.1438 85.5743 42.658C85.2316 43.1722 84.7445 43.573 84.1746 43.8096C83.6048 44.0463 82.9777 44.1082 82.3727 43.9876C81.7678 43.8669 81.2121 43.5691 80.7759 43.1318C80.3398 42.6945 80.0427 42.1373 79.9224 41.5308C79.8021 40.9242 79.8638 40.2955 80.0999 39.7242C80.3359 39.1528 80.7356 38.6645 81.2485 38.3209C81.7614 37.9773 82.3643 37.7939 82.9812 37.7939C83.8083 37.7939 84.6015 38.1233 85.1864 38.7097C85.7713 39.2961 86.0999 40.0915 86.0999 40.9208Z" fill="#61A1F4"/>
<path d="M106.062 40.9208C106.062 41.5392 105.879 42.1438 105.537 42.658C105.194 43.1722 104.707 43.573 104.137 43.8096C103.567 44.0463 102.94 44.1082 102.335 43.9876C101.73 43.8669 101.174 43.5691 100.738 43.1318C100.302 42.6945 100.005 42.1373 99.8848 41.5308C99.7645 40.9242 99.8262 40.2955 100.062 39.7242C100.298 39.1528 100.698 38.6645 101.211 38.3209C101.724 37.9773 102.327 37.7939 102.944 37.7939C103.771 37.7939 104.564 38.1233 105.149 38.7097C105.734 39.2961 106.062 40.0915 106.062 40.9208Z" fill="#61A1F4"/>
<path d="M126.038 40.9208C126.038 41.5392 125.855 42.1438 125.512 42.658C125.169 43.1722 124.682 43.573 124.112 43.8096C123.543 44.0463 122.916 44.1082 122.311 43.9876C121.706 43.8669 121.15 43.5691 120.714 43.1318C120.278 42.6945 119.981 42.1373 119.86 41.5308C119.74 40.9242 119.802 40.2955 120.038 39.7242C120.274 39.1528 120.673 38.6645 121.186 38.3209C121.699 37.9773 122.302 37.7939 122.919 37.7939C123.745 37.7973 124.536 38.1278 125.121 38.7135C125.705 39.2992 126.034 40.0925 126.038 40.9208Z" fill="#61A1F4"/>
<path d="M26.1996 22.0303C26.1971 22.6482 26.012 23.2515 25.6678 23.764C25.3235 24.2765 24.8355 24.6753 24.2655 24.91C23.6954 25.1447 23.0687 25.2047 22.4646 25.0826C21.8605 24.9605 21.306 24.6617 20.8711 24.2239C20.4362 23.7861 20.1405 23.2289 20.0212 22.6227C19.9019 22.0165 19.9644 21.3885 20.2008 20.8179C20.4372 20.2473 20.837 19.7596 21.3496 19.4166C21.8622 19.0736 22.4646 18.8906 23.0809 18.8906C23.4915 18.8906 23.8981 18.9718 24.2773 19.1298C24.6566 19.2877 25.0009 19.5192 25.2907 19.8109C25.5805 20.1027 25.8099 20.4489 25.9659 20.8298C26.1219 21.2106 26.2013 21.6186 26.1996 22.0303Z" fill="#61A1F4"/>
<path d="M46.1622 22.0302C46.1597 22.6481 45.9746 23.2514 45.6304 23.7639C45.2862 24.2764 44.7982 24.6752 44.2281 24.9098C43.658 25.1445 43.0313 25.2046 42.4272 25.0825C41.8231 24.9604 41.2686 24.6616 40.8337 24.2238C40.3989 23.786 40.1031 23.2288 39.9838 22.6226C39.8645 22.0164 39.927 21.3884 40.1634 20.8177C40.3999 20.2471 40.7996 19.7595 41.3122 19.4165C41.8248 19.0735 42.4273 18.8904 43.0435 18.8904C43.4542 18.8904 43.8608 18.9717 44.24 19.1297C44.6192 19.2876 44.9636 19.5191 45.2533 19.8108C45.5431 20.1025 45.7726 20.4488 45.9285 20.8297C46.0845 21.2105 46.1639 21.6185 46.1622 22.0302Z" fill="#61A1F4"/>
<path d="M66.1373 22.0303C66.1347 22.6482 65.9497 23.2515 65.6054 23.764C65.2612 24.2765 64.7733 24.6753 64.2032 24.91C63.6331 25.1447 63.0064 25.2047 62.4023 25.0826C61.7981 24.9605 61.2436 24.6617 60.8088 24.2239C60.3739 23.7861 60.0782 23.2289 59.9589 22.6227C59.8396 22.0165 59.9021 21.3885 60.1385 20.8179C60.3749 20.2473 60.7747 19.7596 61.2872 19.4166C61.7998 19.0736 62.4023 18.8906 63.0186 18.8906C63.8469 18.894 64.6401 19.2263 65.2246 19.8147C65.8091 20.4032 66.1373 21.1999 66.1373 22.0303Z" fill="#61A1F4"/>
<path d="M86.0999 22.0302C86.0973 22.6481 85.9123 23.2514 85.5681 23.7639C85.2238 24.2764 84.7358 24.6752 84.1657 24.9098C83.5957 25.1445 82.969 25.2046 82.3649 25.0825C81.7608 24.9604 81.2062 24.6616 80.7714 24.2238C80.3365 23.786 80.0408 23.2288 79.9215 22.6226C79.8022 22.0164 79.8647 21.3884 80.1011 20.8177C80.3375 20.2471 80.7372 19.7595 81.2498 19.4165C81.7624 19.0735 82.3649 18.8904 82.9812 18.8904C83.3918 18.8904 83.7984 18.9717 84.1776 19.1297C84.5568 19.2876 84.9012 19.5191 85.191 19.8108C85.4807 20.1025 85.7102 20.4488 85.8662 20.8297C86.0221 21.2105 86.1016 21.6185 86.0999 22.0302Z" fill="#61A1F4"/>
<path d="M106.062 22.0302C106.06 22.6481 105.875 23.2514 105.53 23.7639C105.186 24.2764 104.698 24.6752 104.128 24.9098C103.558 25.1445 102.931 25.2046 102.327 25.0825C101.723 24.9604 101.169 24.6616 100.734 24.2238C100.299 23.786 100.003 23.2288 99.8838 22.6226C99.7646 22.0164 99.8271 21.3884 100.063 20.8177C100.3 20.2471 100.7 19.7595 101.212 19.4165C101.725 19.0735 102.327 18.8904 102.944 18.8904C103.354 18.8904 103.761 18.9717 104.14 19.1297C104.519 19.2876 104.864 19.5191 105.153 19.8108C105.443 20.1025 105.673 20.4488 105.829 20.8297C105.985 21.2105 106.064 21.6185 106.062 22.0302Z" fill="#61A1F4"/>
<path d="M126.038 22.0303C126.035 22.6482 125.85 23.2515 125.506 23.764C125.162 24.2765 124.674 24.6753 124.104 24.91C123.534 25.1447 122.907 25.2047 122.303 25.0826C121.699 24.9605 121.144 24.6617 120.709 24.2239C120.274 23.7861 119.979 23.2289 119.859 22.6227C119.74 22.0165 119.803 21.3885 120.039 20.8179C120.275 20.2473 120.675 19.7596 121.188 19.4166C121.7 19.0736 122.303 18.8906 122.919 18.8906C123.747 18.894 124.541 19.2263 125.125 19.8147C125.71 20.4032 126.038 21.1999 126.038 22.0303Z" fill="#61A1F4"/>
<path d="M46.1622 3.12689C46.1622 3.74533 45.9793 4.34988 45.6366 4.86409C45.2939 5.3783 44.8069 5.77907 44.237 6.01573C43.6671 6.2524 43.04 6.31434 42.4351 6.19369C41.8301 6.07304 41.2744 5.77521 40.8382 5.3379C40.4021 4.9006 40.1051 4.34345 39.9847 3.7369C39.8644 3.13035 39.9261 2.50166 40.1622 1.9303C40.3982 1.35894 40.798 0.87059 41.3109 0.527004C41.8237 0.183419 42.4267 0 43.0435 0C43.4531 0 43.8586 0.0809088 44.237 0.238049C44.6154 0.395189 44.9592 0.625483 45.2488 0.91584C45.5384 1.2062 45.7681 1.55093 45.9248 1.9303C46.0816 2.30967 46.1622 2.71626 46.1622 3.12689Z" fill="#61A1F4"/>
<path d="M66.1373 3.12689C66.1373 3.74533 65.9544 4.34988 65.6117 4.86409C65.269 5.3783 64.7819 5.77907 64.2121 6.01573C63.6422 6.2524 63.0151 6.31434 62.4101 6.19369C61.8052 6.07304 61.2495 5.77521 60.8133 5.3379C60.3772 4.9006 60.0801 4.34345 59.9598 3.7369C59.8395 3.13035 59.9012 2.50166 60.1373 1.9303C60.3733 1.35894 60.7731 0.87059 61.2859 0.527004C61.7988 0.183419 62.4018 0 63.0186 0C63.8457 0 64.639 0.329437 65.2239 0.91584C65.8087 1.50224 66.1373 2.29759 66.1373 3.12689Z" fill="#61A1F4"/>
<path d="M86.0999 3.12689C86.0999 3.74533 85.917 4.34988 85.5743 4.86409C85.2316 5.3783 84.7445 5.77907 84.1746 6.01573C83.6048 6.2524 82.9777 6.31434 82.3727 6.19369C81.7678 6.07304 81.2121 5.77521 80.7759 5.3379C80.3398 4.9006 80.0427 4.34345 79.9224 3.7369C79.8021 3.13035 79.8638 2.50166 80.0999 1.9303C80.3359 1.35894 80.7356 0.87059 81.2485 0.527004C81.7614 0.183419 82.3643 0 82.9812 0C83.8083 0 84.6015 0.329437 85.1864 0.91584C85.7713 1.50224 86.0999 2.29759 86.0999 3.12689Z" fill="#61A1F4"/>
<path d="M106.062 3.12689C106.062 3.74533 105.879 4.34988 105.537 4.86409C105.194 5.3783 104.707 5.77907 104.137 6.01573C103.567 6.2524 102.94 6.31434 102.335 6.19369C101.73 6.07304 101.174 5.77521 100.738 5.3379C100.302 4.9006 100.005 4.34345 99.8848 3.7369C99.7645 3.13035 99.8262 2.50166 100.062 1.9303C100.298 1.35894 100.698 0.87059 101.211 0.527004C101.724 0.183419 102.327 0 102.944 0C103.771 0 104.564 0.329437 105.149 0.91584C105.734 1.50224 106.062 2.29759 106.062 3.12689Z" fill="#61A1F4"/>
</svg>
