<svg width="128" height="222" viewBox="0 0 128 222" fill="none" xmlns="http://www.w3.org/2000/svg">
<path d="M73.986 216.988C73.986 217.98 73.6929 218.949 73.1436 219.773C72.5944 220.597 71.8137 221.239 70.9004 221.619C69.987 221.998 68.982 222.097 68.0124 221.904C67.0428 221.71 66.1521 221.233 65.4531 220.532C64.754 219.831 64.278 218.938 64.0851 217.966C63.8922 216.994 63.9912 215.986 64.3695 215.071C64.7478 214.155 65.3885 213.372 66.2105 212.821C67.0325 212.271 67.999 211.977 68.9876 211.977C69.644 211.977 70.2939 212.107 70.9004 212.358C71.5068 212.61 72.0578 212.979 72.522 213.445C72.9862 213.91 73.3544 214.463 73.6056 215.071C73.8568 215.679 73.986 216.33 73.986 216.988Z" fill="#61A1F4"/>
<path d="M106.001 216.988C106.001 217.98 105.708 218.948 105.159 219.773C104.609 220.597 103.829 221.239 102.915 221.618C102.002 221.998 100.997 222.097 100.027 221.904C99.0576 221.71 98.167 221.233 97.4679 220.532C96.7689 219.831 96.2928 218.938 96.1 217.966C95.9071 216.994 96.006 215.986 96.3844 215.071C96.7627 214.155 97.4034 213.372 98.2254 212.821C99.0474 212.271 100.014 211.977 101.002 211.977C102.328 211.977 103.599 212.505 104.537 213.445C105.474 214.385 106.001 215.659 106.001 216.988Z" fill="#61A1F4"/>
<path d="M137.996 216.988C137.996 217.98 137.703 218.949 137.153 219.773C136.604 220.597 135.823 221.239 134.91 221.619C133.997 221.998 132.992 222.097 132.022 221.904C131.053 221.71 130.162 221.233 129.463 220.532C128.764 219.831 128.288 218.938 128.095 217.966C127.902 216.994 128.001 215.986 128.379 215.071C128.758 214.155 129.398 213.372 130.22 212.821C131.042 212.271 132.009 211.977 132.997 211.977C134.323 211.977 135.594 212.505 136.532 213.445C137.469 214.385 137.996 215.659 137.996 216.988Z" fill="#61A1F4"/>
<path d="M41.9912 186.712C41.9912 187.703 41.698 188.672 41.1488 189.496C40.5995 190.32 39.8189 190.963 38.9055 191.342C37.9922 191.721 36.9871 191.821 36.0175 191.627C35.0479 191.434 34.1573 190.957 33.4582 190.256C32.7592 189.555 32.283 188.662 32.0902 187.69C31.8973 186.718 31.9963 185.71 32.3747 184.794C32.753 183.878 33.3936 183.096 34.2156 182.545C35.0376 181.994 36.004 181.7 36.9926 181.7C38.3183 181.7 39.5897 182.228 40.5271 183.168C41.4645 184.108 41.9912 185.383 41.9912 186.712Z" fill="#61A1F4"/>
<path d="M73.986 186.712C73.9819 187.701 73.6859 188.667 73.1351 189.488C72.5843 190.309 71.8034 190.948 70.8909 191.325C69.9784 191.702 68.975 191.799 68.0073 191.605C67.0396 191.411 66.1509 190.934 65.4531 190.235C64.7553 189.535 64.2797 188.644 64.0862 187.674C63.8927 186.704 63.9898 185.698 64.3656 184.783C64.7414 183.868 65.3789 183.085 66.1977 182.533C67.0165 181.981 67.9801 181.684 68.9669 181.68C69.6268 181.677 70.2807 181.805 70.8909 182.057C71.5011 182.309 72.0555 182.68 72.5221 183.147C72.9887 183.615 73.3583 184.171 73.6095 184.783C73.8608 185.395 73.9888 186.05 73.986 186.712Z" fill="#61A1F4"/>
<path d="M106.001 186.712C106.001 187.703 105.708 188.672 105.159 189.496C104.609 190.32 103.829 190.963 102.915 191.342C102.002 191.721 100.997 191.821 100.027 191.627C99.0576 191.434 98.167 190.957 97.4679 190.256C96.7689 189.555 96.2928 188.662 96.1 187.69C95.9071 186.718 96.006 185.71 96.3844 184.794C96.7627 183.878 97.4034 183.096 98.2254 182.545C99.0474 181.994 100.014 181.7 101.002 181.7C102.326 181.706 103.595 182.236 104.531 183.174C105.467 184.113 105.995 185.384 106.001 186.712Z" fill="#61A1F4"/>
<path d="M137.996 186.712C137.992 187.702 137.695 188.669 137.143 189.491C136.592 190.312 135.81 190.951 134.896 191.327C133.982 191.703 132.978 191.8 132.01 191.604C131.041 191.408 130.152 190.929 129.455 190.228C128.759 189.526 128.285 188.633 128.093 187.661C127.902 186.69 128.002 185.683 128.381 184.769C128.76 183.854 129.401 183.073 130.222 182.523C131.044 181.973 132.01 181.68 132.997 181.68C133.655 181.68 134.307 181.81 134.915 182.063C135.523 182.316 136.075 182.687 136.539 183.155C137.003 183.622 137.371 184.177 137.621 184.788C137.871 185.398 137.998 186.052 137.996 186.712Z" fill="#61A1F4"/>
<path d="M41.9912 156.415C41.9912 157.406 41.698 158.375 41.1488 159.199C40.5995 160.023 39.8189 160.666 38.9055 161.045C37.9922 161.424 36.9871 161.524 36.0175 161.33C35.0479 161.137 34.1573 160.659 33.4582 159.959C32.7592 159.258 32.283 158.365 32.0902 157.393C31.8973 156.42 31.9963 155.413 32.3747 154.497C32.753 153.581 33.3936 152.799 34.2156 152.248C35.0376 151.697 36.004 151.403 36.9926 151.403C38.3183 151.403 39.5897 151.931 40.5271 152.871C41.4645 153.811 41.9912 155.086 41.9912 156.415Z" fill="#61A1F4"/>
<path d="M73.986 156.415C73.986 157.406 73.6929 158.375 73.1436 159.199C72.5944 160.023 71.8137 160.666 70.9004 161.045C69.987 161.424 68.982 161.523 68.0124 161.33C67.0428 161.137 66.1521 160.659 65.4531 159.958C64.754 159.258 64.278 158.365 64.0851 157.392C63.8922 156.42 63.9912 155.413 64.3695 154.497C64.7478 153.581 65.3885 152.798 66.2105 152.248C67.0325 151.697 67.999 151.403 68.9876 151.403C69.644 151.403 70.2939 151.533 70.9004 151.785C71.5068 152.037 72.0578 152.406 72.522 152.871C72.9862 153.336 73.3544 153.889 73.6056 154.497C73.8568 155.105 73.986 155.757 73.986 156.415Z" fill="#61A1F4"/>
<path d="M106.001 156.415C106.001 157.406 105.708 158.375 105.159 159.199C104.609 160.023 103.829 160.666 102.915 161.045C102.002 161.424 100.997 161.524 100.027 161.33C99.0576 161.137 98.167 160.659 97.4679 159.959C96.7689 159.258 96.2928 158.365 96.1 157.393C95.9071 156.42 96.006 155.413 96.3844 154.497C96.7627 153.581 97.4034 152.799 98.2254 152.248C99.0474 151.697 100.014 151.403 101.002 151.403C102.326 151.409 103.595 151.939 104.531 152.877C105.467 153.816 105.995 155.087 106.001 156.415Z" fill="#61A1F4"/>
<path d="M137.996 156.415C137.996 157.406 137.703 158.375 137.153 159.199C136.604 160.023 135.823 160.666 134.91 161.045C133.997 161.424 132.992 161.523 132.022 161.33C131.053 161.137 130.162 160.659 129.463 159.958C128.764 159.258 128.288 158.365 128.095 157.392C127.902 156.42 128.001 155.413 128.379 154.497C128.758 153.581 129.398 152.798 130.22 152.248C131.042 151.697 132.009 151.403 132.997 151.403C134.323 151.403 135.594 151.931 136.532 152.871C137.469 153.811 137.996 155.086 137.996 156.415Z" fill="#61A1F4"/>
<path d="M9.997 126.138C9.997 127.129 9.70379 128.098 9.15455 128.923C8.60531 129.747 7.82466 130.389 6.9113 130.768C5.99794 131.148 4.99295 131.247 4.02334 131.054C3.05372 130.86 2.16302 130.383 1.46397 129.682C0.764919 128.981 0.288877 128.088 0.0960091 127.116C-0.0968591 126.144 0.00215656 125.136 0.380481 124.22C0.758806 123.305 1.39945 122.522 2.22145 121.971C3.04345 121.421 4.00986 121.127 4.99847 121.127C6.32416 121.127 7.59557 121.655 8.53297 122.595C9.47037 123.534 9.997 124.809 9.997 126.138Z" fill="#61A1F4"/>
<path d="M41.9912 126.138C41.9912 127.129 41.698 128.098 41.1488 128.923C40.5995 129.747 39.8189 130.389 38.9055 130.768C37.9922 131.148 36.9871 131.247 36.0175 131.054C35.0479 130.86 34.1573 130.383 33.4582 129.682C32.7592 128.981 32.283 128.088 32.0902 127.116C31.8973 126.144 31.9963 125.136 32.3747 124.22C32.753 123.305 33.3936 122.522 34.2156 121.971C35.0376 121.421 36.004 121.127 36.9926 121.127C38.3183 121.127 39.5897 121.655 40.5271 122.595C41.4645 123.534 41.9912 124.809 41.9912 126.138Z" fill="#61A1F4"/>
<path d="M73.986 126.138C73.986 127.129 73.6929 128.098 73.1436 128.923C72.5944 129.747 71.8137 130.389 70.9004 130.768C69.987 131.148 68.982 131.247 68.0124 131.054C67.0428 130.86 66.1521 130.383 65.4531 129.682C64.754 128.981 64.278 128.088 64.0851 127.116C63.8922 126.144 63.9912 125.136 64.3695 124.22C64.7478 123.305 65.3885 122.522 66.2105 121.971C67.0325 121.421 67.999 121.127 68.9876 121.127C69.644 121.127 70.2939 121.256 70.9004 121.508C71.5068 121.76 72.0578 122.129 72.522 122.595C72.9862 123.06 73.3544 123.612 73.6056 124.22C73.8568 124.828 73.986 125.48 73.986 126.138Z" fill="#61A1F4"/>
<path d="M106.001 126.138C106.001 127.129 105.708 128.098 105.159 128.923C104.609 129.747 103.829 130.389 102.915 130.768C102.002 131.148 100.997 131.247 100.027 131.054C99.0576 130.86 98.167 130.383 97.4679 129.682C96.7689 128.981 96.2928 128.088 96.1 127.116C95.9071 126.144 96.006 125.136 96.3844 124.22C96.7627 123.305 97.4034 122.522 98.2254 121.971C99.0474 121.421 100.014 121.127 101.002 121.127C102.328 121.127 103.599 121.655 104.537 122.595C105.474 123.534 106.001 124.809 106.001 126.138Z" fill="#61A1F4"/>
<path d="M137.996 126.138C137.996 127.129 137.703 128.098 137.153 128.923C136.604 129.747 135.823 130.389 134.91 130.768C133.997 131.148 132.992 131.247 132.022 131.054C131.053 130.86 130.162 130.383 129.463 129.682C128.764 128.981 128.288 128.088 128.095 127.116C127.902 126.144 128.001 125.136 128.379 124.22C128.758 123.305 129.398 122.522 130.22 121.971C131.042 121.421 132.009 121.127 132.997 121.127C134.323 121.127 135.594 121.655 136.532 122.595C137.469 123.534 137.996 124.809 137.996 126.138Z" fill="#61A1F4"/>
<path d="M9.997 95.8618C9.997 96.8529 9.70379 97.8219 9.15455 98.646C8.60531 99.4702 7.82466 100.113 6.9113 100.492C5.99794 100.871 4.99295 100.97 4.02334 100.777C3.05372 100.584 2.16302 100.106 1.46397 99.4055C0.764919 98.7046 0.288877 97.8116 0.0960091 96.8394C-0.0968591 95.8673 0.00215656 94.8597 0.380481 93.9439C0.758806 93.0282 1.39945 92.2455 2.22145 91.6948C3.04345 91.1441 4.00986 90.8502 4.99847 90.8502C6.32416 90.8502 7.59557 91.3782 8.53297 92.3181C9.47037 93.2579 9.997 94.5326 9.997 95.8618Z" fill="#61A1F4"/>
<path d="M41.9912 95.8616C41.9912 96.8528 41.698 97.8218 41.1488 98.6459C40.5995 99.4701 39.8189 100.112 38.9055 100.492C37.9922 100.871 36.9871 100.97 36.0175 100.777C35.0479 100.584 34.1573 100.106 33.4582 99.4054C32.7592 98.7045 32.283 97.8115 32.0902 96.8393C31.8973 95.8672 31.9963 94.8595 32.3747 93.9438C32.753 93.0281 33.3936 92.2454 34.2156 91.6947C35.0376 91.144 36.004 90.8501 36.9926 90.8501C38.3183 90.8501 39.5897 91.3781 40.5271 92.318C41.4645 93.2578 41.9912 94.5325 41.9912 95.8616Z" fill="#61A1F4"/>
<path d="M73.986 95.8618C73.986 96.8529 73.6929 97.8219 73.1436 98.646C72.5944 99.4702 71.8137 100.113 70.9004 100.492C69.987 100.871 68.982 100.97 68.0124 100.777C67.0428 100.584 66.1521 100.106 65.4531 99.4055C64.754 98.7046 64.278 97.8116 64.0851 96.8394C63.8922 95.8673 63.9912 94.8597 64.3695 93.9439C64.7478 93.0282 65.3885 92.2455 66.2105 91.6948C67.0325 91.1441 67.999 90.8502 68.9876 90.8502C69.644 90.8502 70.2939 90.9798 70.9004 91.2317C71.5068 91.4835 72.0578 91.8527 72.522 92.3181C72.9862 92.7834 73.3544 93.3359 73.6056 93.9439C73.8568 94.552 73.986 95.2036 73.986 95.8618Z" fill="#61A1F4"/>
<path d="M106.001 95.8616C106.001 96.8528 105.708 97.8218 105.159 98.6459C104.609 99.4701 103.829 100.112 102.915 100.492C102.002 100.871 100.997 100.97 100.027 100.777C99.0576 100.584 98.167 100.106 97.4679 99.4054C96.7689 98.7045 96.2928 97.8115 96.1 96.8393C95.9071 95.8672 96.006 94.8595 96.3844 93.9438C96.7627 93.0281 97.4034 92.2454 98.2254 91.6947C99.0474 91.144 100.014 90.8501 101.002 90.8501C102.328 90.8501 103.599 91.3781 104.537 92.318C105.474 93.2578 106.001 94.5325 106.001 95.8616Z" fill="#61A1F4"/>
<path d="M137.996 95.8618C137.996 96.8529 137.703 97.8219 137.153 98.646C136.604 99.4702 135.823 100.113 134.91 100.492C133.997 100.871 132.992 100.97 132.022 100.777C131.053 100.584 130.162 100.106 129.463 99.4055C128.764 98.7046 128.288 97.8116 128.095 96.8394C127.902 95.8673 128.001 94.8597 128.379 93.9439C128.758 93.0282 129.398 92.2455 130.22 91.6948C131.042 91.1441 132.009 90.8502 132.997 90.8502C134.323 90.8502 135.594 91.3782 136.532 92.3181C137.469 93.2579 137.996 94.5326 137.996 95.8618Z" fill="#61A1F4"/>
<path d="M41.9912 65.5853C41.9912 66.5765 41.698 67.5455 41.1488 68.3696C40.5995 69.1938 39.8189 69.8361 38.9055 70.2154C37.9922 70.5947 36.9871 70.694 36.0175 70.5006C35.0479 70.3072 34.1573 69.8299 33.4582 69.129C32.7592 68.4281 32.283 67.5352 32.0902 66.563C31.8973 65.5909 31.9963 64.5832 32.3747 63.6675C32.753 62.7518 33.3936 61.9691 34.2156 61.4184C35.0376 60.8677 36.004 60.5737 36.9926 60.5737C38.3183 60.5737 39.5897 61.1017 40.5271 62.0416C41.4645 62.9814 41.9912 64.2562 41.9912 65.5853Z" fill="#61A1F4"/>
<path d="M73.986 65.5853C73.986 66.5765 73.6929 67.5454 73.1436 68.3695C72.5944 69.1937 71.8137 69.836 70.9004 70.2153C69.987 70.5946 68.982 70.6939 68.0124 70.5005C67.0428 70.3072 66.1521 69.8298 65.4531 69.1289C64.754 68.4281 64.278 67.5351 64.0851 66.5629C63.8922 65.5908 63.9912 64.5832 64.3695 63.6674C64.7478 62.7517 65.3885 61.969 66.2105 61.4183C67.0325 60.8676 67.999 60.5737 68.9876 60.5737C69.644 60.5737 70.2939 60.7033 70.9004 60.9552C71.5068 61.2071 72.0578 61.5762 72.522 62.0415C72.9862 62.5069 73.3544 63.0594 73.6056 63.6674C73.8568 64.2755 73.986 64.9271 73.986 65.5853Z" fill="#61A1F4"/>
<path d="M106.001 65.5853C106.001 66.5765 105.708 67.5455 105.159 68.3696C104.609 69.1938 103.829 69.8361 102.915 70.2154C102.002 70.5947 100.997 70.694 100.027 70.5006C99.0576 70.3072 98.167 69.8299 97.4679 69.129C96.7689 68.4281 96.2928 67.5352 96.1 66.563C95.9071 65.5909 96.006 64.5832 96.3844 63.6675C96.7627 62.7518 97.4034 61.9691 98.2254 61.4184C99.0474 60.8677 100.014 60.5737 101.002 60.5737C102.326 60.5792 103.595 61.109 104.531 62.0477C105.467 62.9863 105.995 64.2579 106.001 65.5853Z" fill="#61A1F4"/>
<path d="M137.996 65.5853C137.996 66.5765 137.703 67.5454 137.153 68.3695C136.604 69.1937 135.823 69.836 134.91 70.2153C133.997 70.5946 132.992 70.6939 132.022 70.5005C131.053 70.3072 130.162 69.8298 129.463 69.1289C128.764 68.4281 128.288 67.5351 128.095 66.5629C127.902 65.5908 128.001 64.5832 128.379 63.6674C128.758 62.7517 129.398 61.969 130.22 61.4183C131.042 60.8676 132.009 60.5737 132.997 60.5737C134.323 60.5737 135.594 61.1017 136.532 62.0415C137.469 62.9814 137.996 64.2561 137.996 65.5853Z" fill="#61A1F4"/>
<path d="M41.9911 35.3089C41.987 36.2992 41.6904 37.266 41.1387 38.0875C40.587 38.9089 39.8049 39.548 38.8912 39.9241C37.9775 40.3003 36.9731 40.3966 36.0049 40.2009C35.0366 40.0052 34.1479 39.5263 33.4509 38.8246C32.7539 38.1229 32.2799 37.2298 32.0887 36.2582C31.8975 35.2867 31.9977 34.2801 32.3766 33.3656C32.7555 32.451 33.3962 31.6695 34.2178 31.1197C35.0393 30.57 36.0049 30.2766 36.9926 30.2766C37.6507 30.2766 38.3024 30.4069 38.9102 30.66C39.518 30.9132 40.07 31.2842 40.5344 31.7517C40.9988 32.2193 41.3666 32.7742 41.6166 33.3847C41.8666 33.9951 41.9938 34.649 41.9911 35.3089Z" fill="#61A1F4"/>
<path d="M73.986 35.3088C73.982 36.2991 73.6853 37.266 73.1336 38.0874C72.5819 38.9088 71.7999 39.5479 70.8862 39.9241C69.9724 40.3002 68.968 40.3965 67.9998 40.2008C67.0315 40.0051 66.1428 39.5262 65.4458 38.8245C64.7488 38.1228 64.2749 37.2297 64.0837 36.2582C63.8925 35.2866 63.9926 34.28 64.3715 33.3655C64.7505 32.4509 65.3911 31.6694 66.2127 31.1197C67.0342 30.5699 67.9998 30.2765 68.9876 30.2765C69.6457 30.2765 70.2974 30.4068 70.9052 30.6599C71.513 30.9131 72.0649 31.2841 72.5293 31.7516C72.9937 32.2192 73.3615 32.7741 73.6115 33.3846C73.8615 33.995 73.9888 34.6489 73.986 35.3088Z" fill="#61A1F4"/>
<path d="M106.001 35.3089C105.997 36.2992 105.7 37.266 105.148 38.0875C104.597 38.9089 103.815 39.548 102.901 39.9241C101.987 40.3003 100.983 40.3966 100.015 40.2009C99.0463 40.0052 98.1576 39.5263 97.4606 38.8246C96.7636 38.1229 96.2897 37.2298 96.0985 36.2582C95.9073 35.2867 96.0074 34.2801 96.3863 33.3656C96.7653 32.451 97.406 31.6695 98.2275 31.1197C99.049 30.57 100.015 30.2766 101.002 30.2766C102.33 30.2821 103.601 30.8147 104.538 31.7578C105.475 32.7009 106.001 33.9778 106.001 35.3089Z" fill="#61A1F4"/>
<path d="M137.996 35.3088C137.992 36.2991 137.695 37.266 137.143 38.0874C136.592 38.9088 135.81 39.5479 134.896 39.9241C133.982 40.3002 132.978 40.3965 132.01 40.2008C131.041 40.0051 130.152 39.5262 129.455 38.8245C128.759 38.1228 128.285 37.2297 128.093 36.2582C127.902 35.2866 128.002 34.28 128.381 33.3655C128.76 32.4509 129.401 31.6694 130.222 31.1197C131.044 30.5699 132.01 30.2765 132.997 30.2765C133.655 30.2765 134.307 30.4068 134.915 30.6599C135.523 30.9131 136.075 31.2841 136.539 31.7516C137.003 32.2192 137.371 32.7741 137.621 33.3846C137.871 33.995 137.998 34.6489 137.996 35.3088Z" fill="#61A1F4"/>
<path d="M73.986 5.01158C73.986 6.00277 73.6929 6.97171 73.1436 7.79586C72.5944 8.62001 71.8137 9.26233 70.9004 9.64164C69.987 10.021 68.982 10.1202 68.0124 9.92686C67.0428 9.73349 66.1521 9.25614 65.4531 8.55526C64.754 7.85438 64.278 6.96141 64.0851 5.98926C63.8922 5.01712 63.9912 4.0095 64.3695 3.09375C64.7478 2.17801 65.3885 1.39531 66.2105 0.844636C67.0325 0.293958 67.999 -1.52588e-05 68.9876 -1.52588e-05C69.644 -1.52588e-05 70.2939 0.129661 70.9004 0.381515C71.5068 0.63337 72.0578 1.00247 72.522 1.46784C72.9862 1.93321 73.3544 2.48572 73.6056 3.09375C73.8568 3.70178 73.986 4.35345 73.986 5.01158Z" fill="#61A1F4"/>
<path d="M106.001 5.0116C106.001 6.00279 105.708 6.97173 105.159 7.79588C104.609 8.62003 103.829 9.26235 102.915 9.64166C102.002 10.021 100.997 10.1202 100.027 9.92688C99.0576 9.7335 98.167 9.25615 97.4679 8.55527C96.7689 7.85439 96.2928 6.96143 96.1 5.98928C95.9071 5.01713 96.006 4.00951 96.3844 3.09377C96.7627 2.17802 97.4034 1.39533 98.2254 0.844651C99.0474 0.293973 100.014 0 101.002 0C102.328 0 103.599 0.528002 104.537 1.46785C105.474 2.4077 106.001 3.68245 106.001 5.0116Z" fill="#61A1F4"/>
<path d="M137.996 5.01158C137.996 6.00277 137.703 6.97171 137.153 7.79586C136.604 8.62001 135.823 9.26233 134.91 9.64164C133.997 10.021 132.992 10.1202 132.022 9.92686C131.053 9.73349 130.162 9.25614 129.463 8.55526C128.764 7.85438 128.288 6.96141 128.095 5.98926C127.902 5.01712 128.001 4.0095 128.379 3.09375C128.758 2.17801 129.398 1.39531 130.22 0.844636C131.042 0.293958 132.009 -1.52588e-05 132.997 -1.52588e-05C134.323 -1.52588e-05 135.594 0.527987 136.532 1.46784C137.469 2.40769 137.996 3.68243 137.996 5.01158Z" fill="#61A1F4"/>
</svg>
