<svg width="133" height="160" viewBox="0 0 133 160" fill="none" xmlns="http://www.w3.org/2000/svg">
<g clip-path="url(#clip0_199_133)">
<path fill-rule="evenodd" clip-rule="evenodd" d="M17.4356 3.61097C17.4356 4.56866 17.0553 5.48715 16.3785 6.16434C15.7017 6.84153 14.7838 7.222 13.8267 7.222C12.8695 7.222 11.9516 6.84153 11.2748 6.16434C10.598 5.48715 10.2178 4.56866 10.2178 3.61097C10.2178 2.65328 10.598 1.73485 11.2748 1.05766C11.9516 0.38047 12.8695 0 13.8267 0C14.7838 0 15.7017 0.38047 16.3785 1.05766C17.0553 1.73485 17.4356 2.65328 17.4356 3.61097ZM-5.67283 25.4364C-5.67283 26.3941 -6.05305 27.3126 -6.72985 27.9898C-7.40665 28.667 -8.32459 29.0474 -9.28173 29.0474C-10.2389 29.0474 -11.1568 28.667 -11.8336 27.9898C-12.5104 27.3126 -12.8906 26.3941 -12.8906 25.4364C-12.8906 24.4787 -12.5104 23.5603 -11.8336 22.8831C-11.1568 22.2059 -10.2389 21.8254 -9.28173 21.8254C-8.32459 21.8254 -7.40665 22.2059 -6.72985 22.8831C-6.05305 23.5603 -5.67283 24.4787 -5.67283 25.4364ZM-5.67283 47.2619C-5.68333 48.2126 -6.06819 49.1209 -6.74385 49.7895C-7.41952 50.4581 -8.33146 50.833 -9.28173 50.8329C-10.2389 50.8329 -11.1568 50.4525 -11.8336 49.7753C-12.5104 49.0981 -12.8906 48.1797 -12.8906 47.222C-12.8906 46.2643 -12.5104 45.3458 -11.8336 44.6686C-11.1568 43.9914 -10.2389 43.611 -9.28173 43.611C-8.80443 43.611 -8.33186 43.7057 -7.89139 43.8896C-7.45092 44.0736 -7.05129 44.3431 -6.71565 44.6827C-6.38001 45.0222 -6.11502 45.425 -5.93601 45.8678C-5.75701 46.3105 -5.66756 46.7843 -5.67283 47.2619ZM132.399 71.1079C132.795 70.5086 133.004 69.8054 133 69.0873C133 68.6097 132.905 68.1369 132.721 67.6962C132.537 67.2554 132.268 66.8556 131.929 66.5197C131.589 66.1839 131.187 65.9187 130.744 65.7396C130.302 65.5605 129.828 65.471 129.351 65.4763C128.633 65.4803 127.933 65.6971 127.338 66.0993C126.744 66.5016 126.282 67.0712 126.011 67.7362C125.74 68.4011 125.672 69.1316 125.816 69.8351C125.96 70.5387 126.309 71.1837 126.819 71.6887C127.329 72.1937 127.978 72.536 128.683 72.6722C129.387 72.8084 130.117 72.7325 130.778 72.454C131.44 72.1756 132.004 71.7071 132.399 71.1079ZM39.9367 71.0935C40.3333 70.4996 40.5449 69.8015 40.5449 69.0873C40.5449 68.1296 40.1647 67.2112 39.4879 66.534C38.8111 65.8568 37.8932 65.4763 36.936 65.4763C36.2223 65.4763 35.5245 65.6881 34.9311 66.0849C34.3376 66.4817 33.875 67.0456 33.6019 67.7054C33.3287 68.3653 33.2572 69.0913 33.3965 69.7918C33.5357 70.4922 33.8795 71.1357 34.3842 71.6407C34.8889 72.1457 35.5319 72.4896 36.232 72.6289C36.932 72.7683 37.6577 72.6967 38.3171 72.4234C38.9765 72.1501 39.5402 71.6873 39.9367 71.0935ZM-28.7822 69.0873C-28.7716 69.5682 -28.8571 70.0463 -29.0337 70.4937C-29.2103 70.941 -29.4744 71.3486 -29.8106 71.6924C-30.1468 72.0362 -30.5482 72.3093 -30.9914 72.4958C-31.4345 72.6822 -31.9104 72.7782 -32.3911 72.7781C-33.3482 72.7781 -34.2662 72.3976 -34.943 71.7204C-35.6198 71.0432 -36 70.1248 -36 69.1671C-36 68.2094 -35.6198 67.2909 -34.943 66.6137C-34.2662 65.9365 -33.3482 65.5561 -32.3911 65.5561C-31.4476 65.5559 -30.5416 65.9253 -29.867 66.5854C-29.1925 67.2454 -28.8031 68.1435 -28.7822 69.0873ZM132.399 92.9332C132.795 92.334 133.004 91.6308 133 90.9127C133 90.4351 132.905 89.9623 132.721 89.5216C132.537 89.0809 132.268 88.681 131.929 88.3452C131.589 88.0093 131.187 87.7442 130.744 87.5651C130.302 87.386 129.828 87.2965 129.351 87.3018C128.633 87.3057 127.933 87.5225 127.338 87.9248C126.744 88.327 126.282 88.8966 126.011 89.5616C125.74 90.2266 125.672 90.957 125.816 91.6605C125.96 92.3641 126.309 93.0091 126.819 93.5141C127.329 94.0191 127.978 94.3614 128.683 94.4976C129.387 94.6339 130.117 94.5579 130.778 94.2795C131.44 94.001 132.004 93.5325 132.399 92.9332ZM-28.7822 90.9127C-28.7822 91.8704 -29.1624 92.7889 -29.8392 93.4661C-30.516 94.1433 -31.434 94.5237 -32.3911 94.5237C-33.3482 94.5237 -34.2662 94.1433 -34.943 93.4661C-35.6198 92.7889 -36 91.8704 -36 90.9127C-36 89.955 -35.6198 89.0366 -34.943 88.3594C-34.2662 87.6822 -33.3482 87.3018 -32.3911 87.3018C-31.434 87.3018 -30.516 87.6822 -29.8392 88.3594C-29.1624 89.0366 -28.7822 89.955 -28.7822 90.9127ZM-5.67283 112.678C-5.67283 113.636 -6.05305 114.554 -6.72985 115.232C-7.40665 115.909 -8.32459 116.289 -9.28173 116.289C-10.2389 116.289 -11.1568 115.909 -11.8336 115.232C-12.5104 114.554 -12.8906 113.636 -12.8906 112.678C-12.8906 111.721 -12.5104 110.802 -11.8336 110.125C-11.1568 109.448 -10.2389 109.067 -9.28173 109.067C-8.32459 109.067 -7.40665 109.448 -6.72985 110.125C-6.05305 110.802 -5.67283 111.721 -5.67283 112.678ZM-5.67283 134.623C-5.67283 135.581 -6.05305 136.5 -6.72985 137.177C-7.40665 137.854 -8.32459 138.234 -9.28173 138.234C-10.2389 138.234 -11.1568 137.854 -11.8336 137.177C-12.5104 136.5 -12.8906 135.581 -12.8906 134.623C-12.8906 133.666 -12.5104 132.747 -11.8336 132.07C-11.1568 131.393 -10.2389 131.012 -9.28173 131.012C-8.32459 131.012 -7.40665 131.393 -6.72985 132.07C-6.05305 132.747 -5.67283 133.666 -5.67283 134.623ZM16.3785 158.942C17.0553 158.265 17.4356 157.347 17.4356 156.389C17.4356 155.431 17.0553 154.513 16.3785 153.836C15.7017 153.158 14.7838 152.778 13.8267 152.778C12.8695 152.778 11.9516 153.158 11.2748 153.836C10.598 154.513 10.2178 155.431 10.2178 156.389C10.2178 157.347 10.598 158.265 11.2748 158.942C11.9516 159.62 12.8695 160 13.8267 160C14.7838 160 15.7017 159.62 16.3785 158.942ZM39.9367 158.395C40.3333 157.801 40.5449 157.103 40.5449 156.389C40.5449 155.431 40.1647 154.513 39.4879 153.836C38.8111 153.158 37.8932 152.778 36.936 152.778C36.2223 152.778 35.5245 152.99 34.9311 153.387C34.3376 153.783 33.875 154.347 33.6019 155.007C33.3287 155.667 33.2572 156.393 33.3965 157.094C33.5357 157.794 33.8795 158.437 34.3842 158.942C34.8889 159.447 35.5319 159.791 36.232 159.931C36.932 160.07 37.6577 159.998 38.3171 159.725C38.9765 159.452 39.5402 158.989 39.9367 158.395ZM63.6533 156.389C63.6533 157.103 63.4417 157.801 63.0451 158.395C62.6486 158.989 62.0849 159.452 61.4255 159.725C60.7661 159.998 60.0404 160.07 59.3404 159.931C58.6403 159.791 57.9973 159.447 57.4926 158.942C56.9879 158.437 56.6441 157.794 56.5049 157.094C56.3656 156.393 56.4371 155.667 56.7103 155.007C56.9834 154.347 57.446 153.783 58.0394 153.387C58.6329 152.99 59.3307 152.778 60.0444 152.778C61.0016 152.778 61.9195 153.158 62.5963 153.836C63.2731 154.513 63.6533 155.431 63.6533 156.389ZM86.1545 158.395C86.5511 157.801 86.7627 157.103 86.7627 156.389C86.7627 155.431 86.3825 154.513 85.7057 153.836C85.0289 153.158 84.111 152.778 83.1538 152.778C82.44 152.778 81.7423 152.99 81.1488 153.387C80.5553 153.783 80.0928 154.347 79.8196 155.007C79.5465 155.667 79.475 156.393 79.6143 157.094C79.7535 157.794 80.0972 158.437 80.6019 158.942C81.1067 159.447 81.7497 159.791 82.4498 159.931C83.1498 160.07 83.8754 159.998 84.5349 159.725C85.1943 159.452 85.758 158.989 86.1545 158.395ZM16.3785 137.177C17.0553 136.5 17.4356 135.581 17.4356 134.623C17.4356 133.666 17.0553 132.747 16.3785 132.07C15.7017 131.393 14.7838 131.012 13.8267 131.012C12.8695 131.012 11.9516 131.393 11.2748 132.07C10.598 132.747 10.2178 133.666 10.2178 134.623C10.2178 135.581 10.598 136.5 11.2748 137.177C11.9516 137.854 12.8695 138.234 13.8267 138.234C14.7838 138.234 15.7017 137.854 16.3785 137.177ZM40.5449 134.623C40.5449 135.338 40.3333 136.036 39.9367 136.63C39.5402 137.223 38.9765 137.686 38.3171 137.96C37.6577 138.233 36.932 138.304 36.232 138.165C35.5319 138.026 34.8889 137.682 34.3842 137.177C33.8795 136.672 33.5357 136.028 33.3965 135.328C33.2572 134.627 33.3287 133.901 33.6019 133.242C33.875 132.582 34.3376 132.018 34.9311 131.621C35.5245 131.224 36.2223 131.012 36.936 131.012C37.8932 131.012 38.8111 131.393 39.4879 132.07C40.1647 132.747 40.5449 133.666 40.5449 134.623ZM63.0451 136.63C63.4417 136.036 63.6533 135.338 63.6533 134.623C63.6533 133.666 63.2731 132.747 62.5963 132.07C61.9195 131.393 61.0016 131.012 60.0444 131.012C59.3307 131.012 58.6329 131.224 58.0394 131.621C57.446 132.018 56.9834 132.582 56.7103 133.242C56.4371 133.901 56.3656 134.627 56.5049 135.328C56.6441 136.028 56.9879 136.672 57.4926 137.177C57.9973 137.682 58.6403 138.026 59.3404 138.165C60.0404 138.304 60.7661 138.233 61.4255 137.96C62.0849 137.686 62.6486 137.223 63.0451 136.63ZM86.7627 134.623C86.7627 135.338 86.5511 136.036 86.1545 136.63C85.758 137.223 85.1943 137.686 84.5349 137.96C83.8754 138.233 83.1498 138.304 82.4498 138.165C81.7497 138.026 81.1067 137.682 80.6019 137.177C80.0972 136.672 79.7535 136.028 79.6143 135.328C79.475 134.627 79.5465 133.901 79.8196 133.242C80.0928 132.582 80.5553 132.018 81.1488 131.621C81.7423 131.224 82.44 131.012 83.1538 131.012C84.111 131.012 85.0289 131.393 85.7057 132.07C86.3825 132.747 86.7627 133.666 86.7627 134.623ZM109.29 136.646C109.686 136.046 109.895 135.342 109.891 134.623C109.886 133.664 109.501 132.745 108.822 132.069C108.142 131.392 107.222 131.012 106.263 131.012C105.544 131.013 104.842 131.226 104.244 131.626C103.647 132.026 103.182 132.594 102.908 133.259C102.634 133.923 102.563 134.654 102.705 135.359C102.847 136.064 103.194 136.711 103.704 137.218C104.213 137.725 104.862 138.069 105.567 138.207C106.272 138.345 107.002 138.27 107.665 137.992C108.328 137.714 108.893 137.246 109.29 136.646ZM16.3785 115.232C17.0553 114.554 17.4356 113.636 17.4356 112.678C17.4356 111.721 17.0553 110.802 16.3785 110.125C15.7017 109.448 14.7838 109.067 13.8267 109.067C12.8695 109.067 11.9516 109.448 11.2748 110.125C10.598 110.802 10.2178 111.721 10.2178 112.678C10.2178 113.636 10.598 114.554 11.2748 115.232C11.9516 115.909 12.8695 116.289 13.8267 116.289C14.7838 116.289 15.7017 115.909 16.3785 115.232ZM40.5449 112.678C40.5449 113.392 40.3333 114.091 39.9367 114.684C39.5402 115.278 38.9765 115.741 38.3171 116.014C37.6577 116.288 36.932 116.359 36.232 116.22C35.5319 116.081 34.8889 115.737 34.3842 115.232C33.8795 114.727 33.5357 114.083 33.3965 113.383C33.2572 112.682 33.3287 111.956 33.6019 111.296C33.875 110.637 34.3376 110.073 34.9311 109.676C35.5245 109.279 36.2223 109.067 36.936 109.067C37.8932 109.067 38.8111 109.448 39.4879 110.125C40.1647 110.802 40.5449 111.721 40.5449 112.678ZM63.0451 114.684C63.4417 114.091 63.6533 113.392 63.6533 112.678C63.6533 111.721 63.2731 110.802 62.5963 110.125C61.9195 109.448 61.0016 109.067 60.0444 109.067C59.3307 109.067 58.6329 109.279 58.0394 109.676C57.446 110.073 56.9834 110.637 56.7103 111.296C56.4371 111.956 56.3656 112.682 56.5049 113.383C56.6441 114.083 56.9879 114.727 57.4926 115.232C57.9973 115.737 58.6403 116.081 59.3404 116.22C60.0404 116.359 60.7661 116.288 61.4255 116.014C62.0849 115.741 62.6486 115.278 63.0451 114.684ZM86.7627 112.678C86.7627 113.392 86.5511 114.091 86.1545 114.684C85.758 115.278 85.1943 115.741 84.5349 116.014C83.8754 116.288 83.1498 116.359 82.4498 116.22C81.7497 116.081 81.1067 115.737 80.6019 115.232C80.0972 114.727 79.7535 114.083 79.6143 113.383C79.475 112.682 79.5465 111.956 79.8196 111.296C80.0928 110.637 80.5553 110.073 81.1488 109.676C81.7423 109.279 82.44 109.067 83.1538 109.067C84.111 109.067 85.0289 109.448 85.7057 110.125C86.3825 110.802 86.7627 111.721 86.7627 112.678ZM109.29 114.701C109.686 114.101 109.895 113.397 109.891 112.678C109.886 111.719 109.501 110.8 108.822 110.124C108.142 109.447 107.222 109.067 106.263 109.067C105.544 109.067 104.842 109.281 104.244 109.681C103.647 110.081 103.182 110.649 102.908 111.313C102.634 111.978 102.563 112.709 102.705 113.414C102.847 114.119 103.194 114.766 103.704 115.273C104.213 115.78 104.862 116.124 105.567 116.262C106.272 116.4 107.002 116.325 107.665 116.047C108.328 115.769 108.893 115.301 109.29 114.701ZM-6.72985 93.4661C-6.05305 92.7889 -5.67283 91.8704 -5.67283 90.9127C-5.67283 89.955 -6.05305 89.0366 -6.72985 88.3594C-7.40665 87.6822 -8.32459 87.3018 -9.28173 87.3018C-10.2389 87.3018 -11.1568 87.6822 -11.8336 88.3594C-12.5104 89.0366 -12.8906 89.955 -12.8906 90.9127C-12.8906 91.8704 -12.5104 92.7889 -11.8336 93.4661C-11.1568 94.1433 -10.2389 94.5237 -9.28173 94.5237C-8.32459 94.5237 -7.40665 94.1433 -6.72985 93.4661ZM17.4356 90.9127C17.4356 91.8704 17.0553 92.7889 16.3785 93.4661C15.7017 94.1433 14.7838 94.5237 13.8267 94.5237C12.8695 94.5237 11.9516 94.1433 11.2748 93.4661C10.598 92.7889 10.2178 91.8704 10.2178 90.9127C10.2178 89.955 10.598 89.0366 11.2748 88.3594C11.9516 87.6822 12.8695 87.3018 13.8267 87.3018C14.7838 87.3018 15.7017 87.6822 16.3785 88.3594C17.0553 89.0366 17.4356 89.955 17.4356 90.9127ZM39.9367 92.9189C40.3333 92.3251 40.5449 91.6269 40.5449 90.9127C40.5449 89.9551 40.1647 89.0366 39.4879 88.3594C38.8111 87.6822 37.8932 87.3018 36.936 87.3018C36.2223 87.3018 35.5245 87.5136 34.9311 87.9104C34.3376 88.3071 33.875 88.8711 33.6019 89.5309C33.3287 90.1907 33.2572 90.9168 33.3965 91.6172C33.5357 92.3177 33.8795 92.9611 34.3842 93.4661C34.8889 93.9711 35.5319 94.315 36.232 94.4544C36.932 94.5937 37.6577 94.5221 38.3171 94.2488C38.9765 93.9755 39.5402 93.5127 39.9367 92.9189ZM63.6533 90.9127C63.6533 91.6269 63.4417 92.3251 63.0451 92.9189C62.6486 93.5127 62.0849 93.9755 61.4255 94.2488C60.7661 94.5221 60.0404 94.5937 59.3404 94.4544C58.6403 94.315 57.9973 93.9711 57.4926 93.4661C56.9879 92.9611 56.6441 92.3177 56.5049 91.6172C56.3656 90.9168 56.4371 90.1907 56.7103 89.5309C56.9834 88.8711 57.446 88.3071 58.0394 87.9104C58.6329 87.5136 59.3307 87.3018 60.0444 87.3018C61.0016 87.3018 61.9195 87.6822 62.5963 88.3594C63.2731 89.0366 63.6533 89.9551 63.6533 90.9127ZM86.1545 92.9189C86.5511 92.3251 86.7627 91.6269 86.7627 90.9127C86.7627 89.9551 86.3825 89.0366 85.7057 88.3594C85.0289 87.6822 84.111 87.3018 83.1538 87.3018C82.44 87.3018 81.7423 87.5136 81.1488 87.9104C80.5553 88.3071 80.0928 88.8711 79.8196 89.5309C79.5465 90.1907 79.475 90.9168 79.6143 91.6172C79.7535 92.3177 80.0972 92.9611 80.6019 93.4661C81.1067 93.9711 81.7497 94.315 82.4498 94.4544C83.1498 94.5937 83.8754 94.5221 84.5349 94.2488C85.1943 93.9755 85.758 93.5127 86.1545 92.9189ZM109.891 90.9127C109.895 91.6317 109.686 92.3357 109.29 92.9354C108.893 93.5351 108.328 94.0036 107.665 94.2815C107.002 94.5593 106.272 94.6341 105.567 94.4963C104.862 94.3584 104.213 94.0142 103.704 93.5072C103.194 93.0002 102.847 92.3533 102.705 91.6485C102.563 90.9436 102.634 90.2125 102.908 89.5479C103.182 88.8832 103.647 88.315 104.244 87.9151C104.842 87.5153 105.544 87.3018 106.263 87.3018C107.222 87.3018 108.142 87.6816 108.822 88.3582C109.501 89.0348 109.886 89.9532 109.891 90.9127ZM-5.92431 70.4937C-5.74771 70.0463 -5.66221 69.5682 -5.67283 69.0873C-5.69368 68.1435 -6.08309 67.2454 -6.75764 66.5854C-7.4322 65.9253 -8.33825 65.5559 -9.28173 65.5561C-10.2389 65.5561 -11.1568 65.9365 -11.8336 66.6137C-12.5104 67.2909 -12.8906 68.2094 -12.8906 69.1671C-12.8906 70.1248 -12.5104 71.0432 -11.8336 71.7204C-11.1568 72.3976 -10.2389 72.7781 -9.28173 72.7781C-8.80102 72.7782 -8.32512 72.6822 -7.88199 72.4958C-7.43886 72.3093 -7.03742 72.0362 -6.70124 71.6924C-6.36506 71.3486 -6.10091 70.941 -5.92431 70.4937ZM17.4356 69.0873C17.4462 69.5682 17.3607 70.0463 17.1841 70.4937C17.0075 70.941 16.7433 71.3486 16.4072 71.6924C16.071 72.0362 15.6695 72.3093 15.2264 72.4958C14.7833 72.6822 14.3074 72.7782 13.8267 72.7781C12.8695 72.7781 11.9516 72.3976 11.2748 71.7204C10.598 71.0432 10.2178 70.1248 10.2178 69.1671C10.2178 68.2094 10.598 67.2909 11.2748 66.6137C11.9516 65.9365 12.8695 65.5561 13.8267 65.5561C14.7701 65.5559 15.6762 65.9253 16.3508 66.5854C17.0253 67.2454 17.4147 68.1435 17.4356 69.0873ZM63.6533 69.0873C63.6533 69.8015 63.4417 70.4996 63.0451 71.0935C62.6486 71.6873 62.0849 72.1501 61.4255 72.4234C60.7661 72.6967 60.0404 72.7683 59.3404 72.6289C58.6403 72.4896 57.9973 72.1457 57.4926 71.6407C56.9879 71.1357 56.6441 70.4922 56.5049 69.7918C56.3656 69.0913 56.4371 68.3653 56.7103 67.7054C56.9834 67.0456 57.446 66.4817 58.0394 66.0849C58.6329 65.6881 59.3307 65.4763 60.0444 65.4763C61.0016 65.4763 61.9195 65.8568 62.5963 66.534C63.2731 67.2112 63.6533 68.1296 63.6533 69.0873ZM86.1545 71.0935C86.5511 70.4996 86.7627 69.8015 86.7627 69.0873C86.7627 68.1296 86.3825 67.2112 85.7057 66.534C85.0289 65.8568 84.111 65.4763 83.1538 65.4763C82.44 65.4763 81.7423 65.6881 81.1488 66.0849C80.5553 66.4817 80.0928 67.0456 79.8196 67.7054C79.5465 68.3653 79.475 69.0913 79.6143 69.7918C79.7535 70.4922 80.0972 71.1357 80.6019 71.6407C81.1067 72.1457 81.7497 72.4896 82.4498 72.6289C83.1498 72.7683 83.8754 72.6967 84.5349 72.4234C85.1943 72.1501 85.758 71.6873 86.1545 71.0935ZM109.891 69.0873C109.895 69.8063 109.686 70.5102 109.29 71.11C108.893 71.7097 108.328 72.1781 107.665 72.456C107.002 72.7339 106.272 72.8086 105.567 72.6708C104.862 72.533 104.213 72.1888 103.704 71.6818C103.194 71.1748 102.847 70.5279 102.705 69.823C102.563 69.1181 102.634 68.3871 102.908 67.7224C103.182 67.0578 103.647 66.4895 104.244 66.0897C104.842 65.6898 105.544 65.4763 106.263 65.4763C107.222 65.4763 108.142 65.8562 108.822 66.5328C109.501 67.2094 109.886 68.1278 109.891 69.0873ZM16.3645 49.7895C17.0402 49.1209 17.4251 48.2126 17.4356 47.2619C17.4408 46.7843 17.3514 46.3105 17.1724 45.8678C16.9934 45.425 16.7284 45.0222 16.3927 44.6827C16.0571 44.3431 15.6575 44.0736 15.217 43.8896C14.7765 43.7057 14.304 43.611 13.8267 43.611C12.8695 43.611 11.9516 43.9914 11.2748 44.6686C10.598 45.3458 10.2178 46.2643 10.2178 47.222C10.2178 48.1797 10.598 49.0981 11.2748 49.7753C11.9516 50.4525 12.8695 50.8329 13.8267 50.8329C14.7769 50.833 15.6889 50.4581 16.3645 49.7895ZM40.5449 47.2618C40.5449 47.976 40.3333 48.6742 39.9367 49.268C39.5402 49.8618 38.9765 50.3247 38.3171 50.598C37.6577 50.8713 36.932 50.9428 36.232 50.8035C35.5319 50.6641 34.8889 50.3202 34.3842 49.8152C33.8795 49.3102 33.5357 48.6668 33.3965 47.9663C33.2572 47.2658 33.3287 46.5398 33.6019 45.88C33.875 45.2202 34.3376 44.6562 34.9311 44.2594C35.5245 43.8627 36.2223 43.6509 36.936 43.6509C37.8932 43.6509 38.8111 44.0313 39.4879 44.7085C40.1647 45.3857 40.5449 46.3041 40.5449 47.2618ZM63.0451 49.268C63.4417 48.6742 63.6533 47.976 63.6533 47.2618C63.6533 46.3041 63.2731 45.3857 62.5963 44.7085C61.9195 44.0313 61.0016 43.6509 60.0444 43.6509C59.3307 43.6509 58.6329 43.8627 58.0394 44.2594C57.446 44.6562 56.9834 45.2202 56.7103 45.88C56.4371 46.5398 56.3656 47.2658 56.5049 47.9663C56.6441 48.6668 56.9879 49.3102 57.4926 49.8152C57.9973 50.3202 58.6403 50.6641 59.3404 50.8035C60.0404 50.9428 60.7661 50.8713 61.4255 50.598C62.0849 50.3247 62.6486 49.8618 63.0451 49.268ZM86.7627 47.2618C86.7627 47.976 86.5511 48.6742 86.1545 49.268C85.758 49.8618 85.1943 50.3247 84.5349 50.598C83.8754 50.8713 83.1498 50.9428 82.4498 50.8035C81.7497 50.6641 81.1067 50.3202 80.6019 49.8152C80.0972 49.3102 79.7535 48.6668 79.6143 47.9663C79.475 47.2658 79.5465 46.5398 79.8196 45.88C80.0928 45.2202 80.5553 44.6562 81.1488 44.2594C81.7423 43.8627 82.44 43.6509 83.1538 43.6509C84.111 43.6509 85.0289 44.0313 85.7057 44.7085C86.3825 45.3857 86.7627 46.3041 86.7627 47.2618ZM109.29 49.2845C109.686 48.6848 109.895 47.9808 109.891 47.2618C109.886 46.3023 109.501 45.3839 108.822 44.7073C108.142 44.0307 107.222 43.6508 106.263 43.6509C105.544 43.6509 104.842 43.8643 104.244 44.2642C103.647 44.6641 103.182 45.2323 102.908 45.897C102.634 46.5616 102.563 47.2927 102.705 47.9975C102.847 48.7024 103.194 49.3493 103.704 49.8563C104.213 50.3633 104.862 50.7075 105.567 50.8453C106.272 50.9832 107.002 50.9084 107.665 50.6305C108.328 50.3527 108.893 49.8842 109.29 49.2845ZM16.3785 27.9898C17.0553 27.3126 17.4356 26.3941 17.4356 25.4364C17.4356 24.4787 17.0553 23.5603 16.3785 22.8831C15.7017 22.2059 14.7838 21.8254 13.8267 21.8254C12.8695 21.8254 11.9516 22.2059 11.2748 22.8831C10.598 23.5603 10.2178 24.4787 10.2178 25.4364C10.2178 26.3941 10.598 27.3126 11.2748 27.9898C11.9516 28.667 12.8695 29.0474 13.8267 29.0474C14.7838 29.0474 15.7017 28.667 16.3785 27.9898ZM40.5449 25.4364C40.5449 26.1506 40.3333 26.8487 39.9367 27.4425C39.5402 28.0364 38.9765 28.4992 38.3171 28.7725C37.6577 29.0458 36.932 29.1173 36.232 28.978C35.5319 28.8387 34.8889 28.4948 34.3842 27.9898C33.8795 27.4848 33.5357 26.8413 33.3965 26.1409C33.2572 25.4404 33.3287 24.7144 33.6019 24.0545C33.875 23.3947 34.3376 22.8308 34.9311 22.434C35.5245 22.0372 36.2223 21.8254 36.936 21.8254C37.8932 21.8254 38.8111 22.2059 39.4879 22.8831C40.1647 23.5603 40.5449 24.4787 40.5449 25.4364ZM63.0451 27.4425C63.4417 26.8487 63.6533 26.1506 63.6533 25.4364C63.6533 24.4787 63.2731 23.5603 62.5963 22.8831C61.9195 22.2059 61.0016 21.8254 60.0444 21.8254C59.3307 21.8254 58.6329 22.0372 58.0394 22.434C57.446 22.8308 56.9834 23.3947 56.7103 24.0545C56.4371 24.7144 56.3656 25.4404 56.5049 26.1409C56.6441 26.8413 56.9879 27.4848 57.4926 27.9898C57.9973 28.4948 58.6403 28.8387 59.3404 28.978C60.0404 29.1173 60.7661 29.0458 61.4255 28.7725C62.0849 28.4992 62.6486 28.0364 63.0451 27.4425ZM86.7627 25.4364C86.7627 26.1506 86.5511 26.8487 86.1545 27.4425C85.758 28.0364 85.1943 28.4992 84.5349 28.7725C83.8754 29.0458 83.1498 29.1173 82.4498 28.978C81.7497 28.8387 81.1067 28.4948 80.6019 27.9898C80.0972 27.4848 79.7535 26.8413 79.6143 26.1409C79.475 25.4404 79.5465 24.7144 79.8196 24.0545C80.0928 23.3947 80.5553 22.8308 81.1488 22.434C81.7423 22.0372 82.44 21.8254 83.1538 21.8254C84.111 21.8254 85.0289 22.2059 85.7057 22.8831C86.3825 23.5603 86.7627 24.4787 86.7627 25.4364ZM109.29 27.459C109.686 26.8593 109.895 26.1554 109.891 25.4364C109.886 24.4769 109.501 23.5585 108.822 22.8819C108.142 22.2052 107.222 21.8254 106.263 21.8254C105.544 21.8254 104.842 22.0389 104.244 22.4388C103.647 22.8386 103.182 23.4069 102.908 24.0715C102.634 24.7361 102.563 25.4672 102.705 26.1721C102.847 26.877 103.194 27.5239 103.704 28.0309C104.213 28.5378 104.862 28.8821 105.567 29.02C106.272 29.1578 107.002 29.083 107.665 28.8052C108.328 28.5273 108.893 28.0588 109.29 27.459ZM39.9367 5.61712C40.3333 5.0233 40.5449 4.32515 40.5449 3.61097C40.5449 2.65328 40.1647 1.73485 39.4879 1.05766C38.8111 0.38047 37.8932 0 36.936 0C36.2223 0 35.5245 0.211807 34.9311 0.608586C34.3376 1.00536 33.875 1.56929 33.6019 2.22911C33.3287 2.88893 33.2572 3.61498 33.3965 4.31544C33.5357 5.0159 33.8795 5.65933 34.3842 6.16434C34.8889 6.66934 35.5319 7.01326 36.232 7.15259C36.932 7.29192 37.6577 7.22042 38.3171 6.94711C38.9765 6.6738 39.5402 6.21094 39.9367 5.61712ZM63.6533 3.61097C63.6533 4.32515 63.4417 5.0233 63.0451 5.61712C62.6486 6.21094 62.0849 6.6738 61.4255 6.94711C60.7661 7.22042 60.0404 7.29192 59.3404 7.15259C58.6403 7.01326 57.9973 6.66934 57.4926 6.16434C56.9879 5.65933 56.6441 5.0159 56.5049 4.31544C56.3656 3.61498 56.4371 2.88893 56.7103 2.22911C56.9834 1.56929 57.446 1.00536 58.0394 0.608586C58.6329 0.211807 59.3307 0 60.0444 0C61.0016 0 61.9195 0.38047 62.5963 1.05766C63.2731 1.73485 63.6533 2.65328 63.6533 3.61097ZM86.1545 5.61712C86.5511 5.0233 86.7627 4.32515 86.7627 3.61097C86.7627 2.65328 86.3825 1.73485 85.7057 1.05766C85.0289 0.38047 84.111 0 83.1538 0C82.44 0 81.7423 0.211807 81.1488 0.608586C80.5553 1.00536 80.0928 1.56929 79.8196 2.22911C79.5465 2.88893 79.475 3.61498 79.6143 4.31544C79.7535 5.0159 80.0972 5.65933 80.6019 6.16434C81.1067 6.66934 81.7497 7.01326 82.4498 7.15259C83.1498 7.29192 83.8754 7.22042 84.5349 6.94711C85.1943 6.6738 85.758 6.21094 86.1545 5.61712Z" fill="#61A1F4"/>
</g>
<defs>
<clipPath id="clip0_199_133">
<rect width="169" height="160" fill="white" transform="translate(-36)"/>
</clipPath>
</defs>
</svg>
