<svg width="75" height="75" viewBox="0 0 75 75" fill="none" xmlns="http://www.w3.org/2000/svg">
<path d="M71.5685 36.07L38.9145 3.41595C38.1247 2.62612 36.8441 2.62612 36.0543 3.41595L3.40023 36.07C2.61041 36.8598 2.61041 38.1404 3.40024 38.9302L36.0543 71.5842C36.8441 72.374 38.1247 72.374 38.9145 71.5842L71.5685 38.9302C72.3583 38.1404 72.3583 36.8598 71.5685 36.07Z" stroke="#DCEDFF" stroke-width="3" stroke-miterlimit="10"/>
<path d="M53.7847 36.8162L38.1683 21.1998C37.7906 20.8221 37.1782 20.8221 36.8004 21.1998L21.184 36.8162C20.8063 37.1939 20.8063 37.8064 21.184 38.1841L36.8004 53.8005C37.1782 54.1782 37.7906 54.1782 38.1683 53.8005L53.7847 38.1841C54.1625 37.8064 54.1625 37.1939 53.7847 36.8162Z" fill="#DCEDFF"/>
</svg>
