<svg width="384" height="384" viewBox="0 0 384 384" fill="none" xmlns="http://www.w3.org/2000/svg">
<g clip-path="url(#clip0_199_727)">
<path fill-rule="evenodd" clip-rule="evenodd" d="M8.63285 190.875C9.20248 191.444 9.59057 192.17 9.74814 192.96C9.90571 193.749 9.82561 194.568 9.51801 195.311C9.21042 196.055 8.68916 196.69 8.02008 197.137C7.35099 197.584 6.56412 197.822 5.75907 197.821C4.95401 197.821 4.16693 197.582 3.49726 197.134C2.82759 196.686 2.30545 196.05 1.99689 195.306C1.68832 194.562 1.60721 193.744 1.76376 192.954C1.9203 192.165 2.30747 191.44 2.87636 190.871C3.25409 190.493 3.70263 190.194 4.19634 189.989C4.69005 189.785 5.21929 189.68 5.75383 189.681C6.28836 189.681 6.81771 189.787 7.31169 189.991C7.80567 190.196 8.25463 190.497 8.63285 190.875ZM26.0386 208.281C26.6082 208.85 26.9963 209.576 27.1539 210.365C27.3115 211.155 27.2314 211.973 26.9238 212.717C26.6162 213.461 26.0949 214.096 25.4258 214.543C24.7568 214.99 23.97 215.228 23.1649 215.227C22.3599 215.227 21.5727 214.988 20.903 214.54C20.2334 214.092 19.7112 213.456 19.4027 212.712C19.0941 211.968 19.013 211.15 19.1695 210.36C19.3261 209.571 19.7132 208.846 20.2821 208.277C21.045 207.514 22.0801 207.086 23.1596 207.086C24.2391 207.087 25.2748 207.517 26.0386 208.281ZM43.4445 225.686C44.0141 226.256 44.4022 226.981 44.5598 227.771C44.7173 228.561 44.6373 229.379 44.3297 230.123C44.0221 230.866 43.5008 231.502 42.8317 231.949C42.1626 232.395 41.3758 232.634 40.5708 232.633C39.7657 232.633 38.9786 232.393 38.3089 231.946C37.6392 231.498 37.1171 230.862 36.8085 230.118C36.4999 229.374 36.4188 228.556 36.5754 227.766C36.7319 226.977 37.1191 226.251 37.688 225.683C38.4508 224.92 39.4859 224.492 40.5655 224.492C41.645 224.493 42.6806 224.923 43.4445 225.686ZM60.8502 243.092C61.4199 243.662 61.808 244.387 61.9655 245.177C62.1231 245.967 62.0431 246.785 61.7355 247.529C61.4279 248.272 60.9066 248.908 60.2375 249.354C59.5684 249.801 58.7816 250.039 57.9766 250.039C57.1715 250.038 56.3843 249.799 55.7147 249.351C55.045 248.904 54.5229 248.268 54.2143 247.524C53.9057 246.78 53.8246 245.961 53.9812 245.172C54.1377 244.382 54.5249 243.657 55.0938 243.088C55.8566 242.325 56.8917 241.897 57.9712 241.898C59.0508 241.899 60.0864 242.328 60.8502 243.092ZM78.2561 260.498C78.8257 261.068 79.2138 261.793 79.3714 262.583C79.529 263.372 79.449 264.191 79.1414 264.935C78.8338 265.678 78.3124 266.313 77.6433 266.76C76.9742 267.207 76.1875 267.445 75.3824 267.445C74.5774 267.444 73.7902 267.205 73.1205 266.757C72.4509 266.31 71.9287 265.674 71.6201 264.93C71.3116 264.186 71.2305 263.367 71.387 262.578C71.5436 261.788 71.9307 261.063 72.4996 260.494C73.2625 259.731 74.2975 259.303 75.3771 259.304C76.4566 259.305 77.4923 259.734 78.2561 260.498ZM95.6619 277.904C96.2315 278.473 96.6197 279.199 96.7773 279.989C96.9348 280.778 96.8547 281.597 96.5471 282.34C96.2395 283.084 95.7182 283.719 95.0491 284.166C94.38 284.613 93.5932 284.851 92.7882 284.851C91.9831 284.85 91.196 284.611 90.5263 284.163C89.8566 283.715 89.3345 283.079 89.0259 282.335C88.7174 281.591 88.6362 280.773 88.7928 279.983C88.9493 279.194 89.3365 278.469 89.9054 277.9C90.6682 277.137 91.7033 276.709 92.7829 276.71C93.8624 276.71 94.898 277.14 95.6619 277.904ZM113.068 295.31C113.637 295.879 114.026 296.605 114.183 297.395C114.341 298.184 114.261 299.003 113.953 299.746C113.645 300.49 113.124 301.125 112.455 301.572C111.786 302.019 110.999 302.257 110.194 302.256C109.389 302.256 108.602 302.017 107.932 301.569C107.262 301.121 106.74 300.485 106.432 299.741C106.123 298.997 106.042 298.179 106.199 297.389C106.355 296.6 106.742 295.875 107.311 295.306C108.074 294.543 109.109 294.115 110.189 294.116C111.268 294.116 112.304 294.546 113.068 295.31ZM131.589 314.8C131.431 314.011 131.043 313.285 130.473 312.715C129.71 311.952 128.674 311.522 127.594 311.521C126.515 311.521 125.48 311.949 124.717 312.712C124.148 313.281 123.761 314.006 123.604 314.795C123.448 315.585 123.529 316.403 123.838 317.147C124.146 317.891 124.668 318.527 125.338 318.975C126.008 319.422 126.795 319.662 127.6 319.662C128.405 319.663 129.192 319.424 129.861 318.978C130.53 318.531 131.051 317.895 131.359 317.152C131.666 316.408 131.746 315.59 131.589 314.8ZM150.004 296.385C149.846 295.596 149.458 294.87 148.888 294.301C148.124 293.537 147.089 293.107 146.009 293.107C144.93 293.106 143.895 293.534 143.132 294.297C142.563 294.866 142.176 295.591 142.019 296.38C141.863 297.17 141.944 297.988 142.252 298.732C142.561 299.476 143.083 300.112 143.753 300.56C144.422 301.008 145.21 301.247 146.015 301.247C146.82 301.248 147.606 301.01 148.276 300.563C148.945 300.116 149.466 299.481 149.774 298.737C150.081 297.994 150.161 297.175 150.004 296.385ZM167.303 275.885C167.873 276.455 168.261 277.181 168.419 277.97C168.576 278.76 168.496 279.578 168.189 280.322C167.881 281.066 167.36 281.701 166.691 282.148C166.022 282.594 165.235 282.833 164.43 282.832C163.625 282.832 162.838 282.592 162.168 282.145C161.498 281.697 160.976 281.061 160.668 280.317C160.359 279.573 160.278 278.755 160.434 277.965C160.591 277.176 160.978 276.451 161.547 275.882C162.31 275.119 163.345 274.691 164.424 274.691C165.504 274.692 166.54 275.122 167.303 275.885ZM186.865 259.524C186.707 258.735 186.319 258.009 185.749 257.44C185.371 257.061 184.922 256.761 184.428 256.556C183.934 256.352 183.405 256.246 182.87 256.245C182.336 256.245 181.807 256.35 181.313 256.554C180.819 256.759 180.371 257.058 179.993 257.436C179.424 258.005 179.037 258.73 178.88 259.519C178.724 260.309 178.805 261.127 179.113 261.871C179.422 262.615 179.944 263.251 180.614 263.699C181.283 264.147 182.071 264.386 182.876 264.386C183.681 264.387 184.468 264.149 185.137 263.702C185.806 263.255 186.327 262.62 186.635 261.876C186.942 261.132 187.022 260.314 186.865 259.524ZM204.133 239.056C204.703 239.625 205.091 240.351 205.248 241.141C205.406 241.93 205.326 242.749 205.018 243.492C204.711 244.236 204.189 244.871 203.52 245.318C202.851 245.765 202.064 246.003 201.259 246.003C200.454 246.002 199.667 245.763 198.998 245.315C198.328 244.867 197.806 244.231 197.497 243.487C197.189 242.743 197.107 241.925 197.264 241.135C197.421 240.346 197.808 239.621 198.377 239.052C199.14 238.289 200.175 237.861 201.254 237.862C202.334 237.862 203.369 238.292 204.133 239.056ZM223.663 222.726C223.506 221.936 223.118 221.211 222.548 220.641C221.784 219.877 220.748 219.448 219.669 219.447C218.589 219.446 217.554 219.874 216.792 220.637C216.223 221.206 215.835 221.931 215.679 222.721C215.522 223.51 215.603 224.329 215.912 225.073C216.221 225.817 216.743 226.453 217.412 226.9C218.082 227.348 218.869 227.587 219.674 227.588C220.479 227.588 221.266 227.35 221.935 226.903C222.604 226.456 223.126 225.821 223.433 225.077C223.741 224.334 223.821 223.516 223.663 222.726ZM240.963 202.226C241.532 202.796 241.921 203.521 242.078 204.311C242.236 205.101 242.156 205.919 241.848 206.663C241.54 207.406 241.019 208.042 240.35 208.488C239.681 208.935 238.894 209.173 238.089 209.173C237.284 209.172 236.497 208.933 235.827 208.485C235.157 208.038 234.635 207.402 234.327 206.658C234.018 205.914 233.937 205.095 234.094 204.306C234.25 203.516 234.637 202.791 235.206 202.222C235.969 201.46 237.004 201.031 238.084 201.032C239.163 201.033 240.199 201.462 240.963 202.226ZM260.493 185.896C260.336 185.106 259.948 184.381 259.378 183.811C258.614 183.047 257.578 182.618 256.499 182.617C255.419 182.616 254.384 183.044 253.621 183.807C253.053 184.376 252.665 185.101 252.509 185.891C252.352 186.68 252.433 187.499 252.742 188.243C253.051 188.987 253.573 189.623 254.242 190.07C254.912 190.518 255.699 190.757 256.504 190.758C257.309 190.758 258.096 190.52 258.765 190.073C259.434 189.626 259.956 188.991 260.263 188.248C260.571 187.504 260.651 186.686 260.493 185.896ZM132.598 278.98C132.44 278.19 132.052 277.464 131.483 276.895C130.719 276.131 129.683 275.701 128.604 275.701C127.524 275.7 126.489 276.128 125.726 276.891C125.157 277.46 124.77 278.185 124.613 278.974C124.457 279.764 124.538 280.582 124.847 281.326C125.155 282.07 125.677 282.706 126.347 283.154C127.017 283.602 127.804 283.841 128.609 283.842C129.414 283.842 130.201 283.604 130.87 283.157C131.539 282.71 132.06 282.075 132.368 281.331C132.675 280.588 132.755 279.769 132.598 278.98ZM149.898 258.48C150.467 259.049 150.856 259.775 151.013 260.565C151.171 261.354 151.091 262.173 150.783 262.916C150.475 263.66 149.954 264.295 149.285 264.742C148.616 265.189 147.829 265.427 147.024 265.426C146.219 265.426 145.432 265.187 144.762 264.739C144.092 264.291 143.57 263.655 143.262 262.911C142.953 262.167 142.872 261.349 143.029 260.559C143.185 259.77 143.572 259.045 144.141 258.476C144.904 257.713 145.939 257.285 147.019 257.286C148.098 257.286 149.134 257.716 149.898 258.48ZM169.459 242.119C169.301 241.329 168.913 240.603 168.344 240.034C167.965 239.656 167.516 239.355 167.022 239.151C166.528 238.946 165.999 238.84 165.465 238.84C164.93 238.839 164.401 238.944 163.907 239.149C163.413 239.353 162.965 239.652 162.587 240.03C162.018 240.599 161.631 241.324 161.474 242.113C161.318 242.903 161.399 243.721 161.708 244.465C162.016 245.209 162.538 245.845 163.208 246.293C163.878 246.741 164.665 246.98 165.47 246.981C166.275 246.981 167.062 246.743 167.731 246.296C168.4 245.849 168.921 245.214 169.229 244.47C169.536 243.727 169.617 242.908 169.459 242.119ZM186.727 221.65C187.297 222.22 187.685 222.945 187.843 223.735C188 224.525 187.92 225.343 187.613 226.087C187.305 226.83 186.784 227.465 186.115 227.912C185.445 228.359 184.659 228.597 183.854 228.597C183.049 228.596 182.261 228.357 181.592 227.909C180.922 227.462 180.4 226.826 180.091 226.082C179.783 225.338 179.702 224.519 179.858 223.73C180.015 222.94 180.402 222.215 180.971 221.646C181.734 220.883 182.769 220.455 183.848 220.456C184.928 220.457 185.963 220.886 186.727 221.65ZM206.258 205.32C206.1 204.53 205.712 203.805 205.142 203.235C204.378 202.471 203.343 202.042 202.263 202.041C201.184 202.04 200.149 202.469 199.386 203.232C198.817 203.8 198.43 204.525 198.273 205.315C198.117 206.104 198.198 206.923 198.506 207.667C198.815 208.411 199.337 209.047 200.007 209.494C200.676 209.942 201.463 210.181 202.268 210.182C203.074 210.183 203.86 209.944 204.529 209.497C205.198 209.051 205.72 208.415 206.027 207.672C206.335 206.928 206.415 206.11 206.258 205.32ZM223.557 184.82C224.127 185.39 224.515 186.116 224.672 186.905C224.83 187.695 224.75 188.513 224.442 189.257C224.135 190 223.613 190.636 222.944 191.083C222.275 191.529 221.488 191.768 220.683 191.767C219.878 191.767 219.091 191.527 218.421 191.08C217.752 190.632 217.23 189.996 216.921 189.252C216.612 188.508 216.531 187.69 216.688 186.9C216.844 186.111 217.232 185.386 217.801 184.817C218.563 184.054 219.598 183.626 220.678 183.626C221.757 183.627 222.793 184.057 223.557 184.82ZM243.088 168.49C242.93 167.7 242.542 166.975 241.972 166.405C241.208 165.641 240.173 165.212 239.093 165.211C238.014 165.21 236.979 165.639 236.216 166.402C235.647 166.97 235.26 167.695 235.103 168.485C234.946 169.274 235.028 170.093 235.336 170.837C235.645 171.581 236.167 172.217 236.837 172.665C237.506 173.112 238.293 173.351 239.098 173.352C239.903 173.353 240.69 173.114 241.359 172.667C242.028 172.221 242.55 171.585 242.857 170.842C243.165 170.098 243.245 169.28 243.088 168.49ZM115.192 261.574C115.035 260.784 114.646 260.059 114.077 259.489C113.313 258.725 112.277 258.296 111.198 258.295C110.118 258.294 109.083 258.722 108.32 259.485C107.751 260.054 107.364 260.779 107.208 261.569C107.051 262.358 107.132 263.177 107.441 263.921C107.749 264.664 108.271 265.301 108.941 265.748C109.611 266.196 110.398 266.435 111.203 266.436C112.008 266.436 112.795 266.198 113.464 265.751C114.133 265.304 114.654 264.669 114.962 263.925C115.27 263.182 115.35 262.364 115.192 261.574ZM132.492 241.074C133.061 241.643 133.45 242.369 133.607 243.159C133.765 243.948 133.685 244.767 133.377 245.51C133.069 246.254 132.548 246.889 131.879 247.336C131.21 247.783 130.423 248.021 129.618 248.021C128.813 248.02 128.026 247.781 127.356 247.333C126.687 246.885 126.164 246.249 125.856 245.505C125.547 244.761 125.466 243.943 125.623 243.153C125.779 242.364 126.166 241.639 126.735 241.07C127.498 240.307 128.533 239.879 129.613 239.88C130.692 239.88 131.728 240.31 132.492 241.074ZM152.053 224.713C151.896 223.923 151.507 223.198 150.938 222.628C150.56 222.25 150.111 221.95 149.617 221.745C149.123 221.54 148.593 221.434 148.059 221.434C147.524 221.433 146.995 221.538 146.501 221.743C146.008 221.947 145.559 222.246 145.181 222.624C144.612 223.193 144.225 223.918 144.069 224.708C143.912 225.497 143.993 226.315 144.302 227.059C144.61 227.803 145.132 228.44 145.802 228.887C146.472 229.335 147.259 229.574 148.064 229.575C148.869 229.575 149.656 229.337 150.325 228.89C150.994 228.443 151.515 227.808 151.823 227.064C152.131 226.321 152.211 225.503 152.053 224.713ZM169.321 204.244C169.891 204.814 170.279 205.539 170.437 206.329C170.594 207.119 170.514 207.937 170.207 208.681C169.899 209.424 169.378 210.06 168.709 210.506C168.04 210.953 167.253 211.191 166.448 211.191C165.643 211.19 164.856 210.951 164.186 210.503C163.516 210.056 162.994 209.42 162.686 208.676C162.377 207.932 162.296 207.113 162.452 206.324C162.609 205.534 162.996 204.809 163.565 204.24C164.328 203.478 165.363 203.049 166.442 203.05C167.522 203.051 168.558 203.48 169.321 204.244ZM188.852 187.914C188.694 187.125 188.306 186.399 187.736 185.829C186.972 185.066 185.937 184.636 184.857 184.635C183.778 184.635 182.743 185.063 181.98 185.826C181.411 186.394 181.024 187.12 180.867 187.909C180.711 188.698 180.792 189.517 181.1 190.261C181.409 191.005 181.931 191.641 182.601 192.089C183.27 192.536 184.058 192.776 184.863 192.776C185.668 192.777 186.454 192.538 187.124 192.092C187.793 191.645 188.314 191.009 188.622 190.266C188.929 189.522 189.009 188.704 188.852 187.914ZM206.151 167.415C206.721 167.984 207.109 168.71 207.266 169.499C207.424 170.289 207.344 171.107 207.036 171.851C206.729 172.595 206.207 173.23 205.538 173.677C204.869 174.124 204.082 174.362 203.277 174.361C202.472 174.361 201.685 174.122 201.016 173.674C200.346 173.226 199.824 172.59 199.515 171.846C199.207 171.102 199.125 170.284 199.282 169.494C199.439 168.705 199.826 167.98 200.395 167.411C201.157 166.648 202.193 166.22 203.272 166.22C204.352 166.221 205.387 166.651 206.151 167.415ZM225.682 151.084C225.524 150.295 225.136 149.569 224.566 148.999C223.802 148.236 222.767 147.806 221.687 147.805C220.608 147.805 219.573 148.233 218.81 148.996C218.241 149.564 217.854 150.29 217.697 151.079C217.541 151.869 217.622 152.687 217.93 153.431C218.239 154.175 218.761 154.811 219.431 155.259C220.1 155.706 220.888 155.946 221.693 155.946C222.498 155.947 223.284 155.708 223.953 155.262C224.623 154.815 225.144 154.179 225.452 153.436C225.759 152.692 225.839 151.874 225.682 151.084ZM97.7862 244.168C97.6286 243.378 97.2405 242.653 96.6709 242.083C95.9071 241.319 94.8714 240.89 93.7919 240.889C92.7123 240.888 91.6773 241.317 90.9144 242.079C90.3455 242.648 89.9584 243.373 89.8018 244.163C89.6453 244.952 89.7264 245.771 90.035 246.515C90.3435 247.259 90.8657 247.895 91.5353 248.342C92.205 248.79 92.9922 249.029 93.7972 249.03C94.6023 249.031 95.3891 248.792 96.0581 248.345C96.7272 247.899 97.2486 247.263 97.5562 246.52C97.8638 245.776 97.9438 244.958 97.7862 244.168ZM115.086 223.668C115.656 224.238 116.044 224.963 116.201 225.753C116.359 226.543 116.279 227.361 115.971 228.105C115.664 228.848 115.142 229.483 114.473 229.93C113.804 230.377 113.017 230.615 112.212 230.615C111.407 230.614 110.62 230.375 109.95 229.927C109.281 229.48 108.759 228.844 108.45 228.1C108.142 227.356 108.06 226.537 108.217 225.748C108.374 224.958 108.761 224.233 109.33 223.664C110.092 222.901 111.127 222.473 112.207 222.474C113.287 222.475 114.322 222.904 115.086 223.668ZM134.647 207.307C134.49 206.517 134.102 205.792 133.532 205.222C133.154 204.844 132.705 204.544 132.211 204.339C131.717 204.134 131.187 204.028 130.653 204.028C130.118 204.028 129.589 204.133 129.095 204.337C128.602 204.541 128.153 204.841 127.775 205.218C127.207 205.787 126.819 206.512 126.663 207.302C126.506 208.091 126.587 208.91 126.896 209.654C127.205 210.398 127.727 211.034 128.396 211.481C129.066 211.929 129.853 212.168 130.658 212.169C131.463 212.169 132.25 211.931 132.919 211.484C133.588 211.038 134.11 210.402 134.417 209.659C134.725 208.915 134.805 208.097 134.647 207.307ZM151.916 186.838C152.485 187.408 152.873 188.134 153.031 188.923C153.189 189.713 153.109 190.531 152.801 191.275C152.493 192.018 151.972 192.654 151.303 193.101C150.634 193.547 149.847 193.786 149.042 193.785C148.237 193.785 147.45 193.545 146.78 193.098C146.11 192.65 145.588 192.014 145.28 191.27C144.971 190.526 144.89 189.708 145.047 188.918C145.203 188.129 145.59 187.404 146.159 186.835C146.922 186.072 147.957 185.644 149.037 185.644C150.116 185.645 151.152 186.075 151.916 186.838ZM171.446 170.508C171.288 169.719 170.9 168.993 170.331 168.424C169.567 167.66 168.531 167.23 167.452 167.229C166.372 167.229 165.337 167.657 164.574 168.42C164.005 168.989 163.618 169.714 163.461 170.503C163.305 171.293 163.386 172.111 163.695 172.855C164.003 173.599 164.525 174.235 165.195 174.683C165.865 175.131 166.652 175.37 167.457 175.37C168.262 175.371 169.049 175.133 169.718 174.686C170.387 174.239 170.908 173.604 171.216 172.86C171.523 172.117 171.603 171.298 171.446 170.508ZM188.745 150.009C189.315 150.578 189.703 151.304 189.861 152.094C190.018 152.883 189.938 153.702 189.631 154.445C189.323 155.189 188.802 155.824 188.133 156.271C187.463 156.718 186.677 156.956 185.872 156.956C185.067 156.955 184.279 156.716 183.61 156.268C182.94 155.82 182.418 155.184 182.109 154.44C181.801 153.696 181.72 152.878 181.876 152.088C182.033 151.299 182.42 150.574 182.989 150.005C183.752 149.242 184.787 148.814 185.866 148.815C186.946 148.815 187.982 149.245 188.745 150.009ZM208.276 133.678C208.118 132.889 207.73 132.163 207.161 131.594C206.397 130.83 205.361 130.4 204.281 130.4C203.202 130.399 202.167 130.827 201.404 131.59C200.835 132.159 200.448 132.884 200.291 133.673C200.135 134.463 200.216 135.281 200.525 136.025C200.833 136.769 201.355 137.405 202.025 137.853C202.695 138.301 203.482 138.54 204.287 138.54C205.092 138.541 205.879 138.303 206.548 137.856C207.217 137.409 207.738 136.774 208.046 136.03C208.353 135.287 208.433 134.468 208.276 133.678ZM80.3804 226.762C80.2228 225.972 79.8347 225.247 79.265 224.677C78.5012 223.914 77.4656 223.484 76.386 223.483C75.3065 223.483 74.2714 223.911 73.5086 224.674C72.9397 225.242 72.5525 225.968 72.396 226.757C72.2394 227.546 72.3205 228.365 72.6291 229.109C72.9377 229.853 73.4598 230.489 74.1295 230.937C74.7991 231.384 75.5863 231.624 76.3914 231.624C77.1964 231.625 77.9832 231.386 78.6523 230.94C79.3214 230.493 79.8427 229.857 80.1503 229.114C80.4579 228.37 80.5379 227.552 80.3804 226.762ZM97.6802 206.262C98.2498 206.832 98.6379 207.557 98.7955 208.347C98.9531 209.137 98.8731 209.955 98.5655 210.699C98.2579 211.442 97.7365 212.078 97.0674 212.524C96.3984 212.971 95.6116 213.209 94.8065 213.209C94.0015 213.208 93.2143 212.969 92.5446 212.521C91.875 212.074 91.3528 211.438 91.0443 210.694C90.7357 209.95 90.6546 209.131 90.8111 208.342C90.9677 207.552 91.3548 206.827 91.9237 206.258C92.6866 205.496 93.7216 205.067 94.8012 205.068C95.8807 205.069 96.9164 205.498 97.6802 206.262ZM117.241 189.901C117.084 189.111 116.696 188.386 116.126 187.816C115.748 187.438 115.299 187.138 114.805 186.933C114.311 186.728 113.782 186.623 113.247 186.622C112.713 186.622 112.183 186.727 111.69 186.931C111.196 187.135 110.747 187.435 110.37 187.813C109.801 188.381 109.414 189.106 109.257 189.896C109.1 190.685 109.182 191.504 109.49 192.248C109.799 192.992 110.321 193.628 110.991 194.076C111.66 194.523 112.447 194.763 113.252 194.763C114.057 194.764 114.844 194.525 115.513 194.079C116.182 193.632 116.704 192.996 117.011 192.253C117.319 191.509 117.399 190.691 117.241 189.901ZM134.51 169.432C135.114 169.987 135.537 170.712 135.723 171.51C135.909 172.309 135.85 173.145 135.553 173.908C135.256 174.672 134.735 175.328 134.058 175.79C133.382 176.253 132.581 176.5 131.762 176.499C130.942 176.499 130.141 176.251 129.464 175.787C128.787 175.324 128.265 174.668 127.967 173.904C127.669 173.139 127.608 172.303 127.793 171.505C127.978 170.707 128.4 169.983 129.004 169.429C129.754 168.74 130.737 168.358 131.756 168.358C132.776 168.359 133.759 168.742 134.51 169.432ZM154.04 153.103C153.882 152.313 153.494 151.587 152.925 151.018C152.161 150.254 151.125 149.824 150.046 149.824C148.966 149.823 147.931 150.251 147.168 151.014C146.599 151.583 146.212 152.308 146.056 153.097C145.899 153.887 145.98 154.705 146.289 155.449C146.597 156.193 147.119 156.829 147.789 157.277C148.459 157.725 149.246 157.964 150.051 157.965C150.856 157.965 151.643 157.727 152.312 157.28C152.981 156.833 153.502 156.198 153.81 155.454C154.118 154.711 154.198 153.892 154.04 153.103ZM171.339 132.603C171.909 133.173 172.297 133.898 172.455 134.688C172.612 135.477 172.532 136.296 172.225 137.039C171.917 137.783 171.396 138.418 170.727 138.865C170.058 139.312 169.271 139.55 168.466 139.55C167.661 139.549 166.874 139.31 166.204 138.862C165.534 138.415 165.012 137.778 164.704 137.034C164.395 136.29 164.314 135.472 164.47 134.683C164.627 133.893 165.014 133.168 165.583 132.599C166.346 131.836 167.381 131.408 168.46 131.409C169.54 131.41 170.576 131.839 171.339 132.603ZM190.87 116.273C190.712 115.483 190.324 114.757 189.755 114.188C188.991 113.424 187.955 112.994 186.876 112.994C185.796 112.993 184.761 113.421 183.998 114.184C183.429 114.753 183.042 115.478 182.886 116.267C182.729 117.057 182.81 117.875 183.119 118.619C183.427 119.363 183.949 119.999 184.619 120.447C185.289 120.895 186.076 121.134 186.881 121.135C187.686 121.135 188.473 120.897 189.142 120.45C189.811 120.003 190.332 119.368 190.64 118.624C190.948 117.881 191.028 117.062 190.87 116.273ZM62.9746 209.356C62.817 208.567 62.4289 207.841 61.8593 207.272C61.0954 206.508 60.0598 206.078 58.9803 206.077C57.9007 206.077 56.8656 206.505 56.1028 207.268C55.5339 207.837 55.1467 208.562 54.9902 209.351C54.8337 210.141 54.9148 210.959 55.2233 211.703C55.5319 212.447 56.054 213.083 56.7237 213.531C57.3934 213.979 58.1806 214.218 58.9856 214.218C59.7907 214.219 60.5774 213.981 61.2465 213.534C61.9156 213.087 62.4369 212.452 62.7445 211.708C63.0521 210.965 63.1322 210.146 62.9746 209.356ZM80.2744 188.856C80.8441 189.426 81.2322 190.152 81.3897 190.941C81.5473 191.731 81.4673 192.549 81.1597 193.293C80.8521 194.036 80.3308 194.672 79.6617 195.119C78.9926 195.565 78.2058 195.804 77.4008 195.803C76.5957 195.803 75.8085 195.563 75.1389 195.116C74.4692 194.668 73.9471 194.032 73.6385 193.288C73.3299 192.544 73.2488 191.726 73.4054 190.936C73.5619 190.147 73.9491 189.422 74.5179 188.853C75.2808 188.09 76.3159 187.662 77.3954 187.662C78.475 187.663 79.5106 188.093 80.2744 188.856ZM99.8356 172.495C99.6781 171.706 99.29 170.98 98.7203 170.411C98.3421 170.032 97.8931 169.732 97.3992 169.527C96.9052 169.322 96.3758 169.217 95.8413 169.216C95.3068 169.216 94.7775 169.321 94.2838 169.525C93.7901 169.73 93.3416 170.029 92.9638 170.407C92.3949 170.976 92.0078 171.701 91.8512 172.49C91.6947 173.28 91.7758 174.098 92.0844 174.842C92.3929 175.586 92.9151 176.222 93.5848 176.67C94.2544 177.118 95.0416 177.357 95.8466 177.357C96.6517 177.358 97.4385 177.12 98.1076 176.673C98.7766 176.226 99.298 175.591 99.6056 174.847C99.9132 174.103 99.9932 173.285 99.8356 172.495ZM117.104 152.027C117.674 152.596 118.062 153.322 118.219 154.112C118.377 154.901 118.297 155.72 117.989 156.463C117.682 157.207 117.16 157.842 116.491 158.289C115.822 158.736 115.035 158.974 114.23 158.974C113.425 158.973 112.638 158.734 111.968 158.286C111.299 157.838 110.777 157.202 110.468 156.458C110.16 155.714 110.078 154.896 110.235 154.106C110.392 153.317 110.779 152.592 111.348 152.023C112.11 151.26 113.146 150.832 114.225 150.833C115.305 150.833 116.34 151.263 117.104 152.027ZM136.634 135.697C136.477 134.907 136.089 134.182 135.519 133.612C134.755 132.848 133.719 132.419 132.64 132.418C131.56 132.417 130.525 132.845 129.762 133.608C129.194 134.177 128.806 134.902 128.65 135.692C128.493 136.481 128.574 137.3 128.883 138.044C129.191 138.787 129.714 139.424 130.383 139.871C131.053 140.319 131.84 140.558 132.645 140.559C133.45 140.559 134.237 140.321 134.906 139.874C135.575 139.427 136.097 138.792 136.404 138.048C136.712 137.305 136.792 136.486 136.634 135.697ZM153.934 115.197C154.503 115.767 154.891 116.492 155.049 117.282C155.207 118.072 155.127 118.89 154.819 119.634C154.511 120.377 153.99 121.013 153.321 121.459C152.652 121.906 151.865 122.144 151.06 122.144C150.255 122.143 149.468 121.904 148.798 121.456C148.128 121.009 147.606 120.373 147.298 119.629C146.989 118.885 146.908 118.066 147.065 117.277C147.221 116.487 147.608 115.762 148.177 115.193C148.94 114.431 149.975 114.002 151.055 114.003C152.134 114.004 153.17 114.433 153.934 115.197ZM173.464 98.8668C173.307 98.0771 172.919 97.3516 172.349 96.782C171.585 96.0181 170.549 95.5886 169.47 95.5879C168.39 95.5872 167.355 96.0154 166.592 96.7782C166.023 97.3471 165.636 98.0722 165.48 98.8616C165.323 99.6511 165.404 100.47 165.713 101.214C166.021 101.958 166.544 102.594 167.213 103.041C167.883 103.489 168.67 103.728 169.475 103.729C170.28 103.729 171.067 103.491 171.736 103.044C172.405 102.597 172.927 101.962 173.234 101.218C173.542 100.475 173.622 99.6565 173.464 98.8668ZM45.5687 191.951C45.4112 191.161 45.023 190.435 44.4534 189.866C43.6896 189.102 42.6539 188.672 41.5744 188.672C40.4949 188.671 39.4598 189.099 38.6969 189.862C38.128 190.431 37.7409 191.156 37.5843 191.945C37.4278 192.735 37.5089 193.553 37.8175 194.297C38.126 195.041 38.6482 195.677 39.3178 196.125C39.9875 196.573 40.7747 196.812 41.5797 196.812C42.3848 196.813 43.1716 196.575 43.8407 196.128C44.5097 195.681 45.031 195.046 45.3386 194.302C45.6462 193.559 45.7263 192.74 45.5687 191.951ZM62.8686 171.451C63.4382 172.02 63.8263 172.746 63.9839 173.535C64.1415 174.325 64.0613 175.143 63.7537 175.887C63.4461 176.631 62.9249 177.266 62.2558 177.713C61.5867 178.16 60.8 178.398 59.9949 178.397C59.1899 178.397 58.4027 178.158 57.733 177.71C57.0633 177.262 56.5412 176.626 56.2326 175.882C55.9241 175.138 55.843 174.32 55.9995 173.53C56.156 172.741 56.5432 172.016 57.1121 171.447C57.8749 170.684 58.91 170.256 59.9896 170.256C61.0691 170.257 62.1047 170.687 62.8686 171.451ZM82.4298 155.089C82.2722 154.3 81.8841 153.574 81.3145 153.005C80.9362 152.626 80.4873 152.326 79.9933 152.121C79.4993 151.917 78.97 151.811 78.4354 151.811C77.9009 151.81 77.3717 151.915 76.878 152.119C76.3842 152.324 75.9357 152.623 75.558 153.001C74.9891 153.57 74.6019 154.295 74.4454 155.084C74.2888 155.874 74.37 156.692 74.6785 157.436C74.9871 158.18 75.5092 158.816 76.1789 159.264C76.8486 159.712 77.6357 159.951 78.4408 159.951C79.2458 159.952 80.0326 159.714 80.7017 159.267C81.3708 158.82 81.892 158.185 82.1996 157.441C82.5072 156.698 82.5873 155.879 82.4298 155.089ZM99.6982 134.621C100.268 135.191 100.656 135.916 100.814 136.706C100.971 137.495 100.891 138.314 100.583 139.057C100.276 139.801 99.7545 140.436 99.0854 140.883C98.4164 141.33 97.6296 141.568 96.8245 141.568C96.0195 141.567 95.2323 141.328 94.5626 140.88C93.893 140.433 93.3708 139.796 93.0623 139.052C92.7537 138.308 92.6726 137.49 92.8291 136.701C92.9857 135.911 93.3728 135.186 93.9417 134.617C94.7046 133.854 95.7396 133.426 96.8192 133.427C97.8987 133.428 98.9344 133.857 99.6982 134.621ZM119.228 118.291C119.071 117.501 118.683 116.776 118.113 116.206C117.349 115.442 116.314 115.013 115.234 115.012C114.154 115.011 113.119 115.439 112.357 116.202C111.788 116.771 111.4 117.496 111.244 118.286C111.087 119.075 111.169 119.894 111.477 120.638C111.786 121.382 112.308 122.018 112.977 122.465C113.647 122.913 114.434 123.152 115.239 123.153C116.044 123.153 116.831 122.915 117.5 122.468C118.169 122.022 118.691 121.386 118.998 120.643C119.306 119.899 119.386 119.081 119.228 118.291ZM136.528 97.7913C137.097 98.3609 137.486 99.0864 137.643 99.8761C137.801 100.666 137.721 101.484 137.413 102.228C137.105 102.971 136.584 103.607 135.915 104.054C135.246 104.5 134.459 104.739 133.654 104.738C132.849 104.738 132.062 104.498 131.392 104.051C130.723 103.603 130.2 102.967 129.892 102.223C129.583 101.479 129.502 100.66 129.659 99.8709C129.815 99.0815 130.202 98.3564 130.771 97.7875C131.534 97.0247 132.569 96.5965 133.649 96.5972C134.728 96.5979 135.764 97.0274 136.528 97.7913ZM156.058 81.4609C155.901 80.6712 155.513 79.9457 154.943 79.3761C154.179 78.6123 153.144 78.1827 152.064 78.182C150.984 78.1813 149.949 78.6095 149.187 79.3724C148.618 79.9412 148.23 80.6663 148.074 81.4558C147.917 82.2453 147.998 83.0637 148.307 83.8077C148.616 84.5517 149.138 85.1877 149.807 85.6354C150.477 86.0831 151.264 86.3224 152.069 86.3229C152.874 86.3234 153.661 86.0852 154.33 85.6384C154.999 85.1915 155.521 84.5561 155.828 83.8125C156.136 83.069 156.216 82.2506 156.058 81.4609ZM28.163 174.545C28.0054 173.755 27.6173 173.03 27.0476 172.46C26.6694 172.082 26.2205 171.782 25.7265 171.577C25.2325 171.372 24.7032 171.266 24.1686 171.266C23.6341 171.266 23.1049 171.37 22.6111 171.575C22.1174 171.779 21.6689 172.078 21.2912 172.456C20.7223 173.025 20.3351 173.75 20.1786 174.54C20.022 175.329 20.1031 176.148 20.4117 176.891C20.7203 177.635 21.2424 178.272 21.9121 178.719C22.5817 179.167 23.3688 179.406 24.1739 179.407C24.9789 179.407 25.7658 179.169 26.4349 178.722C27.104 178.275 27.6252 177.64 27.9328 176.896C28.2404 176.153 28.3205 175.334 28.163 174.545ZM45.4628 154.045C46.0324 154.614 46.4205 155.34 46.5781 156.13C46.7357 156.919 46.6556 157.738 46.348 158.481C46.0404 159.225 45.5191 159.86 44.85 160.307C44.181 160.754 43.3941 160.992 42.589 160.991C41.784 160.991 40.9969 160.752 40.3272 160.304C39.6576 159.856 39.1354 159.22 38.8269 158.476C38.5183 157.732 38.4372 156.914 38.5937 156.124C38.7503 155.335 39.1374 154.61 39.7063 154.041C40.0841 153.663 40.5326 153.364 41.0263 153.16C41.52 152.955 42.0493 152.85 42.5838 152.851C43.1183 152.851 43.6477 152.957 44.1417 153.162C44.6356 153.366 45.0846 153.667 45.4628 154.045ZM65.024 137.684C64.8664 136.894 64.4783 136.169 63.9087 135.599C63.5305 135.221 63.0815 134.921 62.5875 134.716C62.0936 134.511 61.5642 134.405 61.0297 134.405C60.4951 134.404 59.9659 134.509 59.4722 134.714C58.9785 134.918 58.5299 135.217 58.1522 135.595C57.5833 136.164 57.1962 136.889 57.0396 137.679C56.8831 138.468 56.9642 139.286 57.2727 140.03C57.5813 140.774 58.1035 141.41 58.7731 141.858C59.4428 142.306 60.2298 142.545 61.0349 142.546C61.84 142.546 62.6269 142.308 63.2959 141.861C63.965 141.414 64.4863 140.779 64.7939 140.035C65.1015 139.292 65.1816 138.473 65.024 137.684ZM82.2924 117.215C82.8621 117.785 83.2502 118.51 83.4077 119.3C83.5653 120.09 83.4852 120.908 83.1776 121.652C82.87 122.395 82.3488 123.031 81.6797 123.477C81.0106 123.924 80.2237 124.162 79.4187 124.162C78.6136 124.161 77.8265 123.922 77.1569 123.474C76.4872 123.027 75.9651 122.391 75.6565 121.647C75.3479 120.903 75.2668 120.084 75.4234 119.295C75.5799 118.505 75.9671 117.78 76.536 117.211C76.9137 116.834 77.3622 116.534 77.8559 116.33C78.3496 116.126 78.8789 116.021 79.4134 116.021C79.948 116.021 80.4773 116.127 80.9713 116.332C81.4653 116.537 81.9142 116.837 82.2924 117.215ZM101.823 100.885C101.665 100.095 101.277 99.37 100.707 98.8004C100.329 98.4221 99.8801 98.122 99.3861 97.9171C98.8921 97.7122 98.3628 97.6066 97.8283 97.6062C97.2937 97.6059 96.7645 97.7108 96.2708 97.9151C95.7771 98.1193 95.3285 98.4188 94.9508 98.7966C94.3819 99.3654 93.9947 100.091 93.8382 100.88C93.6816 101.669 93.7627 102.488 94.0713 103.232C94.3799 103.976 94.902 104.612 95.5717 105.06C96.2413 105.507 97.0284 105.747 97.8335 105.747C98.6385 105.748 99.4254 105.509 100.094 105.063C100.764 104.616 101.285 103.98 101.592 103.237C101.9 102.493 101.98 101.675 101.823 100.885ZM119.122 80.3855C119.692 80.9551 120.08 81.6806 120.237 82.4703C120.395 83.26 120.315 84.0783 120.007 84.8219C119.7 85.5655 119.178 86.2009 118.509 86.6477C117.84 87.0946 117.053 87.3327 116.248 87.3322C115.443 87.3317 114.656 87.0925 113.986 86.6448C113.317 86.1971 112.795 85.561 112.486 84.8171C112.178 84.0731 112.096 83.2546 112.253 82.4652C112.41 81.6757 112.797 80.9506 113.366 80.3817C113.743 80.004 114.192 79.7045 114.686 79.5002C115.179 79.296 115.709 79.1911 116.243 79.1914C116.778 79.1918 117.307 79.2974 117.801 79.5023C118.295 79.7072 118.744 80.0073 119.122 80.3855ZM138.653 64.0552C138.495 63.2655 138.107 62.54 137.537 61.9703C137.159 61.5921 136.71 61.292 136.216 61.0871C135.722 60.8822 135.193 60.7766 134.658 60.7763C134.124 60.7759 133.594 60.8809 133.101 61.0851C132.607 61.2893 132.158 61.5888 131.781 61.9666C131.212 62.5355 130.825 63.2605 130.668 64.05C130.512 64.8395 130.593 65.6579 130.901 66.4019C131.21 67.1459 131.732 67.7819 132.402 68.2296C133.071 68.6773 133.858 68.9165 134.663 68.917C135.469 68.9176 136.255 68.6794 136.924 68.2326C137.594 67.7858 138.115 67.1503 138.422 66.4068C138.73 65.6632 138.81 64.8448 138.653 64.0552Z" fill="#DCEDFF"/>
<path d="M247.935 66.0212L130.254 183.701C127.44 186.516 127.443 191.082 130.261 193.9L248.095 311.734C250.913 314.552 255.479 314.555 258.294 311.741L375.974 194.06C378.788 191.246 378.785 186.68 375.967 183.861L258.134 66.0278C255.315 63.2096 250.749 63.2066 247.935 66.0212Z" stroke="#61A1F4" stroke-width="0.89" stroke-miterlimit="10"/>
</g>
<defs>
<clipPath id="clip0_199_727">
<rect width="274" height="269" fill="white" transform="translate(0 193.747) rotate(-45)"/>
</clipPath>
</defs>
</svg>
