<svg width="223" height="269" viewBox="0 0 223 269" fill="none" xmlns="http://www.w3.org/2000/svg">
<g clip-path="url(#clip0_199_188)">
<path fill-rule="evenodd" clip-rule="evenodd" d="M8.13555 4.07313C8.13555 4.87871 7.89698 5.66613 7.45001 6.33594C7.00304 7.00575 6.36773 7.52778 5.62444 7.83606C4.88116 8.14434 4.06326 8.22507 3.27419 8.06791C2.48512 7.91074 1.76032 7.52275 1.19143 6.95312C0.622542 6.38349 0.235119 5.65781 0.0781634 4.86771C-0.0787926 4.07761 0.00176126 3.25864 0.309641 2.51438C0.617522 1.77012 1.1389 1.13404 1.80784 0.686489C2.47678 0.238934 3.26326 0 4.06779 0C4.60197 0 5.13092 0.105384 5.62444 0.310075C6.11797 0.514767 6.5664 0.814793 6.94413 1.19301C7.32185 1.57123 7.62149 2.02021 7.82592 2.51438C8.03034 3.00855 8.13555 3.53825 8.13555 4.07313ZM8.13555 28.6886C8.13555 29.4942 7.89698 30.2816 7.45001 30.9514C7.00304 31.6212 6.36773 32.1433 5.62444 32.4515C4.88116 32.7598 4.06326 32.8405 3.27419 32.6834C2.48512 32.5262 1.76032 32.1384 1.19143 31.5687C0.622542 30.9991 0.235119 30.2733 0.0781634 29.4832C-0.0787926 28.6931 0.00176126 27.8741 0.309641 27.1299C0.617522 26.3856 1.1389 25.7495 1.80784 25.302C2.47678 24.8544 3.26326 24.6155 4.06779 24.6155C5.14663 24.6155 6.18127 25.0446 6.94413 25.8085C7.70698 26.5723 8.13555 27.6084 8.13555 28.6886ZM8.13555 53.3042C8.13555 54.1098 7.89698 54.8972 7.45001 55.567C7.00304 56.2368 6.36773 56.759 5.62444 57.0673C4.88116 57.3756 4.06326 57.4561 3.27419 57.299C2.48512 57.1418 1.76032 56.754 1.19143 56.1843C0.622542 55.6147 0.235119 54.8889 0.0781634 54.0988C-0.0787926 53.3087 0.00176126 52.4897 0.309641 51.7455C0.617522 51.0012 1.1389 50.3651 1.80784 49.9176C2.47678 49.47 3.26326 49.2311 4.06779 49.2311C5.14663 49.2311 6.18127 49.6602 6.94413 50.4241C7.70698 51.1879 8.13555 52.224 8.13555 53.3042ZM8.13555 77.9197C8.13555 78.7253 7.89698 79.5127 7.45001 80.1825C7.00304 80.8523 6.36773 81.3745 5.62444 81.6827C4.88116 81.991 4.06326 82.0716 3.27419 81.9145C2.48512 81.7573 1.76032 81.3694 1.19143 80.7998C0.622542 80.2302 0.235119 79.5044 0.0781634 78.7143C-0.0787926 77.9242 0.00176126 77.1052 0.309641 76.3609C0.617522 75.6167 1.1389 74.9806 1.80784 74.5331C2.47678 74.0855 3.26326 73.8466 4.06779 73.8466C5.14663 73.8466 6.18127 74.2757 6.94413 75.0396C7.70698 75.8034 8.13555 76.8394 8.13555 77.9197ZM8.13555 102.535C8.13555 103.341 7.89698 104.128 7.45001 104.798C7.00304 105.468 6.36773 105.99 5.62444 106.298C4.88116 106.607 4.06326 106.687 3.27419 106.53C2.48512 106.373 1.76032 105.985 1.19143 105.415C0.622542 104.846 0.235119 104.12 0.0781634 103.33C-0.0787926 102.54 0.00176126 101.721 0.309641 100.977C0.617522 100.232 1.1389 99.5962 1.80784 99.1487C2.47678 98.7011 3.26326 98.4622 4.06779 98.4622C5.14663 98.4622 6.18127 98.8913 6.94413 99.6552C7.70698 100.419 8.13555 101.455 8.13555 102.535ZM8.13555 127.151C8.13555 127.956 7.89698 128.744 7.45001 129.414C7.00304 130.084 6.36773 130.606 5.62444 130.914C4.88116 131.222 4.06326 131.303 3.27419 131.146C2.48512 130.988 1.76032 130.601 1.19143 130.031C0.622542 129.461 0.235119 128.735 0.0781634 127.945C-0.0787926 127.155 0.00176126 126.336 0.309641 125.592C0.617522 124.848 1.1389 124.212 1.80784 123.764C2.47678 123.317 3.26326 123.078 4.06779 123.078C5.14663 123.078 6.18127 123.507 6.94413 124.271C7.70698 125.035 8.13555 126.071 8.13555 127.151ZM8.13555 151.766C8.13555 152.572 7.89698 153.359 7.45001 154.029C7.00304 154.699 6.36773 155.221 5.62444 155.529C4.88116 155.838 4.06326 155.918 3.27419 155.761C2.48512 155.604 1.76032 155.216 1.19143 154.646C0.622542 154.077 0.235119 153.351 0.0781634 152.561C-0.0787926 151.771 0.00176126 150.952 0.309641 150.208C0.617522 149.463 1.1389 148.827 1.80784 148.38C2.47678 147.932 3.26326 147.693 4.06779 147.693C5.14663 147.693 6.18127 148.122 6.94413 148.886C7.70698 149.65 8.13555 150.686 8.13555 151.766ZM7.45001 178.645C7.89698 177.975 8.13555 177.187 8.13555 176.382C8.13555 175.302 7.70698 174.266 6.94413 173.502C6.18127 172.738 5.14663 172.309 4.06779 172.309C3.26326 172.309 2.47678 172.548 1.80784 172.995C1.1389 173.443 0.617522 174.079 0.309641 174.823C0.00176126 175.567 -0.0787926 176.386 0.0781634 177.176C0.235119 177.967 0.622542 178.692 1.19143 179.262C1.76032 179.832 2.48512 180.219 3.27419 180.377C4.06326 180.534 4.88116 180.453 5.62444 180.145C6.36773 179.837 7.00304 179.315 7.45001 178.645ZM33.4925 178.645C33.9395 177.975 34.178 177.187 34.178 176.382C34.178 175.302 33.7494 174.266 32.9866 173.502C32.2237 172.738 31.1891 172.309 30.1103 172.309C29.3057 172.309 28.5193 172.548 27.8503 172.995C27.1814 173.443 26.66 174.079 26.3521 174.823C26.0442 175.567 25.9637 176.386 26.1206 177.176C26.2776 177.967 26.665 178.692 27.2339 179.262C27.8028 179.832 28.5276 180.219 29.3167 180.377C30.1057 180.534 30.9236 180.453 31.6669 180.145C32.4102 179.837 33.0455 179.315 33.4925 178.645ZM60.221 176.382C60.221 177.187 59.9824 177.975 59.5355 178.645C59.0885 179.315 58.4532 179.837 57.7099 180.145C56.9666 180.453 56.1487 180.534 55.3596 180.377C54.5706 180.219 53.8458 179.832 53.2769 179.262C52.708 178.692 52.3206 177.967 52.1636 177.176C52.0067 176.386 52.0872 175.567 52.3951 174.823C52.703 174.079 53.2243 173.443 53.8933 172.995C54.5622 172.548 55.3487 172.309 56.1532 172.309C57.2321 172.309 58.2667 172.738 59.0296 173.502C59.7924 174.266 60.221 175.302 60.221 176.382ZM85.6219 178.645C86.0689 177.975 86.3074 177.187 86.3074 176.382C86.3074 175.847 86.2022 175.317 85.9978 174.823C85.7934 174.329 85.4937 173.88 85.116 173.502C84.7383 173.123 84.2898 172.823 83.7963 172.619C83.3028 172.414 82.7738 172.309 82.2396 172.309C81.4351 172.309 80.6487 172.548 79.9797 172.995C79.3108 173.443 78.7894 174.079 78.4815 174.823C78.1736 175.567 78.0931 176.386 78.25 177.176C78.407 177.967 78.7944 178.692 79.3633 179.262C79.9322 179.832 80.657 180.219 81.4461 180.377C82.2351 180.534 83.053 180.453 83.7963 180.145C84.5396 179.837 85.1749 179.315 85.6219 178.645ZM112.306 176.382C112.306 177.187 112.067 177.975 111.62 178.645C111.173 179.315 110.538 179.837 109.795 180.145C109.052 180.453 108.234 180.534 107.445 180.377C106.656 180.219 105.931 179.832 105.362 179.262C104.793 178.692 104.406 177.967 104.249 177.176C104.092 176.386 104.172 175.567 104.48 174.823C104.788 174.079 105.309 173.443 105.978 172.995C106.647 172.548 107.434 172.309 108.238 172.309C109.317 172.309 110.352 172.738 111.115 173.502C111.877 174.266 112.306 175.302 112.306 176.382ZM137.663 178.645C138.11 177.975 138.348 177.187 138.348 176.382C138.348 175.302 137.92 174.266 137.157 173.502C136.394 172.738 135.359 172.309 134.281 172.309C133.476 172.309 132.69 172.548 132.021 172.995C131.352 173.443 130.83 174.079 130.523 174.823C130.215 175.567 130.134 176.386 130.291 177.176C130.448 177.967 130.835 178.692 131.404 179.262C131.973 179.832 132.698 180.219 133.487 180.377C134.276 180.534 135.094 180.453 135.837 180.145C136.581 179.837 137.216 179.315 137.663 178.645ZM164.391 176.382C164.391 177.187 164.152 177.975 163.705 178.645C163.258 179.315 162.623 179.837 161.88 180.145C161.137 180.453 160.319 180.534 159.53 180.377C158.74 180.219 158.016 179.832 157.447 179.262C156.878 178.692 156.49 177.967 156.334 177.176C156.177 176.386 156.257 175.567 156.565 174.823C156.873 174.079 157.394 173.443 158.063 172.995C158.732 172.548 159.519 172.309 160.323 172.309C161.402 172.309 162.437 172.738 163.2 173.502C163.962 174.266 164.391 175.302 164.391 176.382ZM189.748 178.645C190.195 177.975 190.434 177.187 190.434 176.382C190.434 175.302 190.005 174.266 189.242 173.502C188.48 172.738 187.445 172.309 186.366 172.309C185.562 172.309 184.775 172.548 184.106 172.995C183.437 173.443 182.916 174.079 182.608 174.823C182.3 175.567 182.22 176.386 182.377 177.176C182.533 177.967 182.921 178.692 183.49 179.262C184.059 179.832 184.783 180.219 185.573 180.377C186.362 180.534 187.18 180.453 187.923 180.145C188.666 179.837 189.301 179.315 189.748 178.645ZM33.4925 154.029C33.9395 153.359 34.178 152.572 34.178 151.766C34.178 150.686 33.7494 149.65 32.9866 148.886C32.2237 148.122 31.1891 147.693 30.1103 147.693C29.3057 147.693 28.5193 147.932 27.8503 148.38C27.1814 148.827 26.66 149.463 26.3521 150.208C26.0442 150.952 25.9637 151.771 26.1206 152.561C26.2776 153.351 26.665 154.077 27.2339 154.646C27.8028 155.216 28.5276 155.604 29.3167 155.761C30.1057 155.918 30.9236 155.838 31.6669 155.529C32.4102 155.221 33.0455 154.699 33.4925 154.029ZM60.221 151.766C60.221 152.572 59.9824 153.359 59.5355 154.029C59.0885 154.699 58.4532 155.221 57.7099 155.529C56.9666 155.838 56.1487 155.918 55.3596 155.761C54.5706 155.604 53.8458 155.216 53.2769 154.646C52.708 154.077 52.3206 153.351 52.1636 152.561C52.0067 151.771 52.0872 150.952 52.3951 150.208C52.703 149.463 53.2243 148.827 53.8933 148.38C54.5622 147.932 55.3487 147.693 56.1532 147.693C57.2321 147.693 58.2667 148.122 59.0296 148.886C59.7924 149.65 60.221 150.686 60.221 151.766ZM85.6219 154.029C86.0689 153.359 86.3074 152.572 86.3074 151.766C86.3074 151.231 86.2022 150.702 85.9978 150.208C85.7934 149.713 85.4937 149.264 85.116 148.886C84.7383 148.508 84.2898 148.208 83.7963 148.003C83.3028 147.799 82.7738 147.693 82.2396 147.693C81.4351 147.693 80.6487 147.932 79.9797 148.38C79.3108 148.827 78.7894 149.463 78.4815 150.208C78.1736 150.952 78.0931 151.771 78.25 152.561C78.407 153.351 78.7944 154.077 79.3633 154.646C79.9322 155.216 80.657 155.604 81.4461 155.761C82.2351 155.918 83.053 155.838 83.7963 155.529C84.5396 155.221 85.1749 154.699 85.6219 154.029ZM112.306 151.766C112.306 152.572 112.067 153.359 111.62 154.029C111.173 154.699 110.538 155.221 109.795 155.529C109.052 155.838 108.234 155.918 107.445 155.761C106.656 155.604 105.931 155.216 105.362 154.646C104.793 154.077 104.406 153.351 104.249 152.561C104.092 151.771 104.172 150.952 104.48 150.208C104.788 149.463 105.309 148.827 105.978 148.38C106.647 147.932 107.434 147.693 108.238 147.693C109.317 147.693 110.352 148.122 111.115 148.886C111.877 149.65 112.306 150.686 112.306 151.766ZM137.663 154.029C138.11 153.359 138.348 152.572 138.348 151.766C138.348 150.686 137.92 149.65 137.157 148.886C136.394 148.122 135.359 147.693 134.281 147.693C133.476 147.693 132.69 147.932 132.021 148.38C131.352 148.827 130.83 149.463 130.523 150.208C130.215 150.952 130.134 151.771 130.291 152.561C130.448 153.351 130.835 154.077 131.404 154.646C131.973 155.216 132.698 155.604 133.487 155.761C134.276 155.918 135.094 155.838 135.837 155.529C136.581 155.221 137.216 154.699 137.663 154.029ZM164.391 151.766C164.391 152.572 164.152 153.359 163.705 154.029C163.258 154.699 162.623 155.221 161.88 155.529C161.137 155.838 160.319 155.918 159.53 155.761C158.74 155.604 158.016 155.216 157.447 154.646C156.878 154.077 156.49 153.351 156.334 152.561C156.177 151.771 156.257 150.952 156.565 150.208C156.873 149.463 157.394 148.827 158.063 148.38C158.732 147.932 159.519 147.693 160.323 147.693C161.402 147.693 162.437 148.122 163.2 148.886C163.962 149.65 164.391 150.686 164.391 151.766ZM189.748 154.029C190.195 153.359 190.434 152.572 190.434 151.766C190.434 150.686 190.005 149.65 189.242 148.886C188.48 148.122 187.445 147.693 186.366 147.693C185.562 147.693 184.775 147.932 184.106 148.38C183.437 148.827 182.916 149.463 182.608 150.208C182.3 150.952 182.22 151.771 182.377 152.561C182.533 153.351 182.921 154.077 183.49 154.646C184.059 155.216 184.783 155.604 185.573 155.761C186.362 155.918 187.18 155.838 187.923 155.529C188.666 155.221 189.301 154.699 189.748 154.029ZM33.4925 129.414C33.9395 128.744 34.178 127.956 34.178 127.151C34.178 126.071 33.7494 125.035 32.9866 124.271C32.2237 123.507 31.1891 123.078 30.1103 123.078C29.3057 123.078 28.5193 123.317 27.8503 123.764C27.1814 124.212 26.66 124.848 26.3521 125.592C26.0442 126.336 25.9637 127.155 26.1206 127.945C26.2776 128.735 26.665 129.461 27.2339 130.031C27.8028 130.601 28.5276 130.988 29.3167 131.146C30.1057 131.303 30.9236 131.222 31.6669 130.914C32.4102 130.606 33.0455 130.084 33.4925 129.414ZM60.221 127.151C60.221 127.956 59.9824 128.744 59.5355 129.414C59.0885 130.084 58.4532 130.606 57.7099 130.914C56.9666 131.222 56.1487 131.303 55.3596 131.146C54.5706 130.988 53.8458 130.601 53.2769 130.031C52.708 129.461 52.3206 128.735 52.1636 127.945C52.0067 127.155 52.0872 126.336 52.3951 125.592C52.703 124.848 53.2243 124.212 53.8933 123.764C54.5622 123.317 55.3487 123.078 56.1532 123.078C57.2321 123.078 58.2667 123.507 59.0296 124.271C59.7924 125.035 60.221 126.071 60.221 127.151ZM85.6219 129.414C86.0689 128.744 86.3074 127.956 86.3074 127.151C86.3074 126.616 86.2022 126.086 85.9978 125.592C85.7934 125.098 85.4937 124.649 85.116 124.271C84.7383 123.892 84.2898 123.592 83.7963 123.388C83.3028 123.183 82.7738 123.078 82.2396 123.078C81.4351 123.078 80.6487 123.317 79.9797 123.764C79.3108 124.212 78.7894 124.848 78.4815 125.592C78.1736 126.336 78.0931 127.155 78.25 127.945C78.407 128.735 78.7944 129.461 79.3633 130.031C79.9322 130.601 80.657 130.988 81.4461 131.146C82.2351 131.303 83.053 131.222 83.7963 130.914C84.5396 130.606 85.1749 130.084 85.6219 129.414ZM112.306 127.151C112.306 127.956 112.067 128.744 111.62 129.414C111.173 130.084 110.538 130.606 109.795 130.914C109.052 131.222 108.234 131.303 107.445 131.146C106.656 130.988 105.931 130.601 105.362 130.031C104.793 129.461 104.406 128.735 104.249 127.945C104.092 127.155 104.172 126.336 104.48 125.592C104.788 124.848 105.309 124.212 105.978 123.764C106.647 123.317 107.434 123.078 108.238 123.078C109.317 123.078 110.352 123.507 111.115 124.271C111.877 125.035 112.306 126.071 112.306 127.151ZM137.663 129.414C138.11 128.744 138.348 127.956 138.348 127.151C138.348 126.071 137.92 125.035 137.157 124.271C136.394 123.507 135.359 123.078 134.281 123.078C133.476 123.078 132.69 123.317 132.021 123.764C131.352 124.212 130.83 124.848 130.523 125.592C130.215 126.336 130.134 127.155 130.291 127.945C130.448 128.735 130.835 129.461 131.404 130.031C131.973 130.601 132.698 130.988 133.487 131.146C134.276 131.303 135.094 131.222 135.837 130.914C136.581 130.606 137.216 130.084 137.663 129.414ZM164.391 127.151C164.391 127.956 164.152 128.744 163.705 129.414C163.258 130.084 162.623 130.606 161.88 130.914C161.137 131.222 160.319 131.303 159.53 131.146C158.74 130.988 158.016 130.601 157.447 130.031C156.878 129.461 156.49 128.735 156.334 127.945C156.177 127.155 156.257 126.336 156.565 125.592C156.873 124.848 157.394 124.212 158.063 123.764C158.732 123.317 159.519 123.078 160.323 123.078C161.402 123.078 162.437 123.507 163.2 124.271C163.962 125.035 164.391 126.071 164.391 127.151ZM189.748 129.414C190.195 128.744 190.434 127.956 190.434 127.151C190.434 126.071 190.005 125.035 189.242 124.271C188.48 123.507 187.445 123.078 186.366 123.078C185.562 123.078 184.775 123.317 184.106 123.764C183.437 124.212 182.916 124.848 182.608 125.592C182.3 126.336 182.22 127.155 182.377 127.945C182.533 128.735 182.921 129.461 183.49 130.031C184.059 130.601 184.783 130.988 185.573 131.146C186.362 131.303 187.18 131.222 187.923 130.914C188.666 130.606 189.301 130.084 189.748 129.414ZM33.4925 104.798C33.9395 104.128 34.178 103.341 34.178 102.535C34.178 101.455 33.7494 100.419 32.9866 99.6552C32.2237 98.8913 31.1891 98.4622 30.1103 98.4622C29.3057 98.4622 28.5193 98.7011 27.8503 99.1487C27.1814 99.5962 26.66 100.232 26.3521 100.977C26.0442 101.721 25.9637 102.54 26.1206 103.33C26.2776 104.12 26.665 104.846 27.2339 105.415C27.8028 105.985 28.5276 106.373 29.3167 106.53C30.1057 106.687 30.9236 106.607 31.6669 106.298C32.4102 105.99 33.0455 105.468 33.4925 104.798ZM60.221 102.535C60.221 103.341 59.9824 104.128 59.5355 104.798C59.0885 105.468 58.4532 105.99 57.7099 106.298C56.9666 106.607 56.1487 106.687 55.3596 106.53C54.5706 106.373 53.8458 105.985 53.2769 105.415C52.708 104.846 52.3206 104.12 52.1636 103.33C52.0067 102.54 52.0872 101.721 52.3951 100.977C52.703 100.232 53.2243 99.5962 53.8933 99.1487C54.5622 98.7011 55.3487 98.4622 56.1532 98.4622C57.2321 98.4622 58.2667 98.8913 59.0296 99.6552C59.7924 100.419 60.221 101.455 60.221 102.535ZM85.6219 104.798C86.0689 104.128 86.3074 103.341 86.3074 102.535C86.3074 102 86.2022 101.471 85.9978 100.977C85.7934 100.482 85.4937 100.033 85.116 99.6552C84.7383 99.277 84.2898 98.9769 83.7963 98.7722C83.3028 98.5675 82.7738 98.4622 82.2396 98.4622C81.4351 98.4622 80.6487 98.7011 79.9797 99.1487C79.3108 99.5962 78.7894 100.232 78.4815 100.977C78.1736 101.721 78.0931 102.54 78.25 103.33C78.407 104.12 78.7944 104.846 79.3633 105.415C79.9322 105.985 80.657 106.373 81.4461 106.53C82.2351 106.687 83.053 106.607 83.7963 106.298C84.5396 105.99 85.1749 105.468 85.6219 104.798ZM112.306 102.535C112.306 103.341 112.067 104.128 111.62 104.798C111.173 105.468 110.538 105.99 109.795 106.298C109.052 106.607 108.234 106.687 107.445 106.53C106.656 106.373 105.931 105.985 105.362 105.415C104.793 104.846 104.406 104.12 104.249 103.33C104.092 102.54 104.172 101.721 104.48 100.977C104.788 100.232 105.309 99.5962 105.978 99.1487C106.647 98.7011 107.434 98.4622 108.238 98.4622C109.317 98.4622 110.352 98.8913 111.115 99.6552C111.877 100.419 112.306 101.455 112.306 102.535ZM137.663 104.798C138.11 104.128 138.348 103.341 138.348 102.535C138.348 101.455 137.92 100.419 137.157 99.6552C136.394 98.8913 135.359 98.4622 134.281 98.4622C133.476 98.4622 132.69 98.7011 132.021 99.1487C131.352 99.5962 130.83 100.232 130.523 100.977C130.215 101.721 130.134 102.54 130.291 103.33C130.448 104.12 130.835 104.846 131.404 105.415C131.973 105.985 132.698 106.373 133.487 106.53C134.276 106.687 135.094 106.607 135.837 106.298C136.581 105.99 137.216 105.468 137.663 104.798ZM164.391 102.535C164.391 103.341 164.152 104.128 163.705 104.798C163.258 105.468 162.623 105.99 161.88 106.298C161.137 106.607 160.319 106.687 159.53 106.53C158.74 106.373 158.016 105.985 157.447 105.415C156.878 104.846 156.49 104.12 156.334 103.33C156.177 102.54 156.257 101.721 156.565 100.977C156.873 100.232 157.394 99.5962 158.063 99.1487C158.732 98.7011 159.519 98.4622 160.323 98.4622C161.402 98.4622 162.437 98.8913 163.2 99.6552C163.962 100.419 164.391 101.455 164.391 102.535ZM189.748 104.798C190.195 104.128 190.434 103.341 190.434 102.535C190.434 101.455 190.005 100.419 189.242 99.6552C188.48 98.8913 187.445 98.4622 186.366 98.4622C185.562 98.4622 184.775 98.7011 184.106 99.1487C183.437 99.5962 182.916 100.232 182.608 100.977C182.3 101.721 182.22 102.54 182.377 103.33C182.533 104.12 182.921 104.846 183.49 105.415C184.059 105.985 184.783 106.373 185.573 106.53C186.362 106.687 187.18 106.607 187.923 106.298C188.666 105.99 189.301 105.468 189.748 104.798ZM33.4925 80.1825C33.9395 79.5127 34.178 78.7253 34.178 77.9197C34.178 76.8394 33.7494 75.8034 32.9866 75.0396C32.2237 74.2757 31.1891 73.8466 30.1103 73.8466C29.3057 73.8466 28.5193 74.0855 27.8503 74.5331C27.1814 74.9806 26.66 75.6167 26.3521 76.3609C26.0442 77.1052 25.9637 77.9242 26.1206 78.7143C26.2776 79.5044 26.665 80.2302 27.2339 80.7998C27.8028 81.3694 28.5276 81.7573 29.3167 81.9145C30.1057 82.0716 30.9236 81.991 31.6669 81.6827C32.4102 81.3745 33.0455 80.8523 33.4925 80.1825ZM60.221 77.9197C60.221 78.7253 59.9824 79.5127 59.5355 80.1825C59.0885 80.8523 58.4532 81.3745 57.7099 81.6827C56.9666 81.991 56.1487 82.0716 55.3596 81.9145C54.5706 81.7573 53.8458 81.3694 53.2769 80.7998C52.708 80.2302 52.3206 79.5044 52.1636 78.7143C52.0067 77.9242 52.0872 77.1052 52.3951 76.3609C52.703 75.6167 53.2243 74.9806 53.8933 74.5331C54.5622 74.0855 55.3487 73.8466 56.1532 73.8466C57.2321 73.8466 58.2667 74.2757 59.0296 75.0396C59.7924 75.8034 60.221 76.8394 60.221 77.9197ZM85.6219 80.1825C86.0689 79.5127 86.3074 78.7253 86.3074 77.9197C86.3074 77.3848 86.2022 76.8551 85.9978 76.3609C85.7934 75.8668 85.4937 75.4178 85.116 75.0396C84.7383 74.6614 84.2898 74.3613 83.7963 74.1566C83.3028 73.9519 82.7738 73.8466 82.2396 73.8466C81.4351 73.8466 80.6487 74.0855 79.9797 74.5331C79.3108 74.9806 78.7894 75.6167 78.4815 76.3609C78.1736 77.1052 78.0931 77.9242 78.25 78.7143C78.407 79.5044 78.7944 80.2302 79.3633 80.7998C79.9322 81.3694 80.657 81.7573 81.4461 81.9145C82.2351 82.0716 83.053 81.991 83.7963 81.6827C84.5396 81.3745 85.1749 80.8523 85.6219 80.1825ZM112.306 77.9197C112.341 78.7393 112.128 79.5504 111.695 80.2467C111.262 80.943 110.629 81.4921 109.878 81.8221C109.128 82.1521 108.296 82.2475 107.491 82.0961C106.686 81.9446 105.945 81.5533 105.366 80.9732C104.786 80.3931 104.396 79.6513 104.244 78.8451C104.093 78.0388 104.188 77.2057 104.518 76.4546C104.848 75.7035 105.396 75.0696 106.091 74.6359C106.787 74.2021 107.597 73.9888 108.415 74.0237C109.433 74.0671 110.398 74.4915 111.118 75.2129C111.839 75.9344 112.263 76.9004 112.306 77.9197ZM137.663 80.1825C138.11 79.5127 138.348 78.7253 138.348 77.9197C138.348 76.8394 137.92 75.8034 137.157 75.0396C136.394 74.2757 135.359 73.8466 134.281 73.8466C133.476 73.8466 132.69 74.0855 132.021 74.5331C131.352 74.9806 130.83 75.6167 130.523 76.3609C130.215 77.1052 130.134 77.9242 130.291 78.7143C130.448 79.5044 130.835 80.2302 131.404 80.7998C131.973 81.3694 132.698 81.7573 133.487 81.9145C134.276 82.0716 135.094 81.991 135.837 81.6827C136.581 81.3745 137.216 80.8523 137.663 80.1825ZM164.391 77.9197C164.391 78.7253 164.152 79.5127 163.705 80.1825C163.258 80.8523 162.623 81.3745 161.88 81.6827C161.137 81.991 160.319 82.0716 159.53 81.9145C158.74 81.7573 158.016 81.3694 157.447 80.7998C156.878 80.2302 156.49 79.5044 156.334 78.7143C156.177 77.9242 156.257 77.1052 156.565 76.3609C156.873 75.6167 157.394 74.9806 158.063 74.5331C158.732 74.0855 159.519 73.8466 160.323 73.8466C161.402 73.8466 162.437 74.2757 163.2 75.0396C163.962 75.8034 164.391 76.8394 164.391 77.9197ZM189.748 80.1825C190.195 79.5127 190.434 78.7253 190.434 77.9197C190.434 76.8394 190.005 75.8034 189.242 75.0396C188.48 74.2757 187.445 73.8466 186.366 73.8466C185.562 73.8466 184.775 74.0855 184.106 74.5331C183.437 74.9806 182.916 75.6167 182.608 76.3609C182.3 77.1052 182.22 77.9242 182.377 78.7143C182.533 79.5044 182.921 80.2302 183.49 80.7998C184.059 81.3694 184.783 81.7573 185.573 81.9145C186.362 82.0716 187.18 81.991 187.923 81.6827C188.666 81.3745 189.301 80.8523 189.748 80.1825ZM33.4925 55.567C33.9395 54.8972 34.178 54.1098 34.178 53.3042C34.178 52.224 33.7494 51.1879 32.9866 50.4241C32.2237 49.6602 31.1891 49.2311 30.1103 49.2311C29.3057 49.2311 28.5193 49.47 27.8503 49.9176C27.1814 50.3651 26.66 51.0012 26.3521 51.7455C26.0442 52.4897 25.9637 53.3087 26.1206 54.0988C26.2776 54.8889 26.665 55.6147 27.2339 56.1843C27.8028 56.754 28.5276 57.1418 29.3167 57.299C30.1057 57.4561 30.9236 57.3756 31.6669 57.0673C32.4102 56.759 33.0455 56.2368 33.4925 55.567ZM60.221 53.3042C60.221 54.1098 59.9824 54.8972 59.5355 55.567C59.0885 56.2368 58.4532 56.759 57.7099 57.0673C56.9666 57.3756 56.1487 57.4561 55.3596 57.299C54.5706 57.1418 53.8458 56.754 53.2769 56.1843C52.708 55.6147 52.3206 54.8889 52.1636 54.0988C52.0067 53.3087 52.0872 52.4897 52.3951 51.7455C52.703 51.0012 53.2243 50.3651 53.8933 49.9176C54.5622 49.47 55.3487 49.2311 56.1532 49.2311C57.2321 49.2311 58.2667 49.6602 59.0296 50.4241C59.7924 51.1879 60.221 52.224 60.221 53.3042ZM85.6219 55.567C86.0689 54.8972 86.3074 54.1098 86.3074 53.3042C86.3074 52.7693 86.2022 52.2396 85.9978 51.7455C85.7934 51.2513 85.4937 50.8023 85.116 50.4241C84.7383 50.0459 84.2898 49.7458 83.7963 49.5412C83.3028 49.3365 82.7738 49.2311 82.2396 49.2311C81.4351 49.2311 80.6487 49.47 79.9797 49.9176C79.3108 50.3651 78.7894 51.0012 78.4815 51.7455C78.1736 52.4897 78.0931 53.3087 78.25 54.0988C78.407 54.8889 78.7944 55.6147 79.3633 56.1843C79.9322 56.754 80.657 57.1418 81.4461 57.299C82.2351 57.4561 83.053 57.3756 83.7963 57.0673C84.5396 56.759 85.1749 56.2368 85.6219 55.567ZM112.306 53.3042C112.306 54.1098 112.067 54.8972 111.62 55.567C111.173 56.2368 110.538 56.759 109.795 57.0673C109.052 57.3756 108.234 57.4561 107.445 57.299C106.656 57.1418 105.931 56.754 105.362 56.1843C104.793 55.6147 104.406 54.8889 104.249 54.0988C104.092 53.3087 104.172 52.4897 104.48 51.7455C104.788 51.0012 105.309 50.3651 105.978 49.9176C106.647 49.47 107.434 49.2311 108.238 49.2311C109.317 49.2311 110.352 49.6602 111.115 50.4241C111.877 51.1879 112.306 52.224 112.306 53.3042ZM137.663 55.567C138.11 54.8972 138.348 54.1098 138.348 53.3042C138.348 52.224 137.92 51.1879 137.157 50.4241C136.394 49.6602 135.359 49.2311 134.281 49.2311C133.476 49.2311 132.69 49.47 132.021 49.9176C131.352 50.3651 130.83 51.0012 130.523 51.7455C130.215 52.4897 130.134 53.3087 130.291 54.0988C130.448 54.8889 130.835 55.6147 131.404 56.1843C131.973 56.754 132.698 57.1418 133.487 57.299C134.276 57.4561 135.094 57.3756 135.837 57.0673C136.581 56.759 137.216 56.2368 137.663 55.567ZM164.391 53.3042C164.391 54.1098 164.152 54.8972 163.705 55.567C163.258 56.2368 162.623 56.759 161.88 57.0673C161.137 57.3756 160.319 57.4561 159.53 57.299C158.74 57.1418 158.016 56.754 157.447 56.1843C156.878 55.6147 156.49 54.8889 156.334 54.0988C156.177 53.3087 156.257 52.4897 156.565 51.7455C156.873 51.0012 157.394 50.3651 158.063 49.9176C158.732 49.47 159.519 49.2311 160.323 49.2311C161.402 49.2311 162.437 49.6602 163.2 50.4241C163.962 51.1879 164.391 52.224 164.391 53.3042ZM189.748 55.567C190.195 54.8972 190.434 54.1098 190.434 53.3042C190.434 52.224 190.005 51.1879 189.242 50.4241C188.48 49.6602 187.445 49.2311 186.366 49.2311C185.562 49.2311 184.775 49.47 184.106 49.9176C183.437 50.3651 182.916 51.0012 182.608 51.7455C182.3 52.4897 182.22 53.3087 182.377 54.0988C182.533 54.8889 182.921 55.6147 183.49 56.1843C184.059 56.754 184.783 57.1418 185.573 57.299C186.362 57.4561 187.18 57.3756 187.923 57.0673C188.666 56.759 189.301 56.2368 189.748 55.567ZM33.4925 30.9514C33.9395 30.2816 34.178 29.4942 34.178 28.6886C34.178 27.6084 33.7494 26.5723 32.9866 25.8085C32.2237 25.0446 31.1891 24.6155 30.1103 24.6155C29.3057 24.6155 28.5193 24.8544 27.8503 25.302C27.1814 25.7495 26.66 26.3856 26.3521 27.1299C26.0442 27.8741 25.9637 28.6931 26.1206 29.4832C26.2776 30.2733 26.665 30.9991 27.2339 31.5687C27.8028 32.1384 28.5276 32.5262 29.3167 32.6834C30.1057 32.8405 30.9236 32.7598 31.6669 32.4515C32.4102 32.1433 33.0455 31.6212 33.4925 30.9514ZM60.221 28.6886C60.221 29.4942 59.9824 30.2816 59.5355 30.9514C59.0885 31.6212 58.4532 32.1433 57.7099 32.4515C56.9666 32.7598 56.1487 32.8405 55.3596 32.6834C54.5706 32.5262 53.8458 32.1384 53.2769 31.5687C52.708 30.9991 52.3206 30.2733 52.1636 29.4832C52.0067 28.6931 52.0872 27.8741 52.3951 27.1299C52.703 26.3856 53.2243 25.7495 53.8933 25.302C54.5622 24.8544 55.3487 24.6155 56.1532 24.6155C57.2321 24.6155 58.2667 25.0446 59.0296 25.8085C59.7924 26.5723 60.221 27.6084 60.221 28.6886ZM85.6219 30.9514C86.0689 30.2816 86.3074 29.4942 86.3074 28.6886C86.3074 28.1537 86.2022 27.624 85.9978 27.1299C85.7934 26.6357 85.4937 26.1867 85.116 25.8085C84.7383 25.4303 84.2898 25.1302 83.7963 24.9256C83.3028 24.7209 82.7738 24.6155 82.2396 24.6155C81.4351 24.6155 80.6487 24.8544 79.9797 25.302C79.3108 25.7495 78.7894 26.3856 78.4815 27.1299C78.1736 27.8741 78.0931 28.6931 78.25 29.4832C78.407 30.2733 78.7944 30.9991 79.3633 31.5687C79.9322 32.1384 80.657 32.5262 81.4461 32.6834C82.2351 32.8405 83.053 32.7598 83.7963 32.4515C84.5396 32.1433 85.1749 31.6212 85.6219 30.9514ZM112.306 28.6886C112.306 29.4942 112.067 30.2816 111.62 30.9514C111.173 31.6212 110.538 32.1433 109.795 32.4515C109.052 32.7598 108.234 32.8405 107.445 32.6834C106.656 32.5262 105.931 32.1384 105.362 31.5687C104.793 30.9991 104.406 30.2733 104.249 29.4832C104.092 28.6931 104.172 27.8741 104.48 27.1299C104.788 26.3856 105.309 25.7495 105.978 25.302C106.647 24.8544 107.434 24.6155 108.238 24.6155C109.317 24.6155 110.352 25.0446 111.115 25.8085C111.877 26.5723 112.306 27.6084 112.306 28.6886ZM137.663 30.9514C138.11 30.2816 138.348 29.4942 138.348 28.6886C138.348 27.6084 137.92 26.5723 137.157 25.8085C136.394 25.0446 135.359 24.6155 134.281 24.6155C133.476 24.6155 132.69 24.8544 132.021 25.302C131.352 25.7495 130.83 26.3856 130.523 27.1299C130.215 27.8741 130.134 28.6931 130.291 29.4832C130.448 30.2733 130.835 30.9991 131.404 31.5687C131.973 32.1384 132.698 32.5262 133.487 32.6834C134.276 32.8405 135.094 32.7598 135.837 32.4515C136.581 32.1433 137.216 31.6212 137.663 30.9514ZM164.391 28.6886C164.391 29.4942 164.152 30.2816 163.705 30.9514C163.258 31.6212 162.623 32.1433 161.88 32.4515C161.137 32.7598 160.319 32.8405 159.53 32.6834C158.74 32.5262 158.016 32.1384 157.447 31.5687C156.878 30.9991 156.49 30.2733 156.334 29.4832C156.177 28.6931 156.257 27.8741 156.565 27.1299C156.873 26.3856 157.394 25.7495 158.063 25.302C158.732 24.8544 159.519 24.6155 160.323 24.6155C161.402 24.6155 162.437 25.0446 163.2 25.8085C163.962 26.5723 164.391 27.6084 164.391 28.6886ZM189.748 30.9514C190.195 30.2816 190.434 29.4942 190.434 28.6886C190.434 27.6084 190.005 26.5723 189.242 25.8085C188.48 25.0446 187.445 24.6155 186.366 24.6155C185.562 24.6155 184.775 24.8544 184.106 25.302C183.437 25.7495 182.916 26.3856 182.608 27.1299C182.3 27.8741 182.22 28.6931 182.377 29.4832C182.533 30.2733 182.921 30.9991 183.49 31.5687C184.059 32.1384 184.783 32.5262 185.573 32.6834C186.362 32.8405 187.18 32.7598 187.923 32.4515C188.666 32.1433 189.301 31.6212 189.748 30.9514ZM33.4925 6.33594C33.9395 5.66613 34.178 4.87871 34.178 4.07313C34.178 3.53825 34.0728 3.00855 33.8684 2.51438C33.664 2.02021 33.3643 1.57123 32.9866 1.19301C32.6089 0.814793 32.1604 0.514767 31.6669 0.310075C31.1734 0.105384 30.6444 0 30.1103 0C29.3057 0 28.5193 0.238934 27.8503 0.686489C27.1814 1.13404 26.66 1.77012 26.3521 2.51438C26.0442 3.25864 25.9637 4.07761 26.1206 4.86771C26.2776 5.65781 26.665 6.38349 27.2339 6.95312C27.8028 7.52275 28.5276 7.91074 29.3167 8.06791C30.1057 8.22507 30.9236 8.14434 31.6669 7.83606C32.4102 7.52778 33.0455 7.00575 33.4925 6.33594ZM60.221 4.07313C60.221 4.87871 59.9824 5.66613 59.5355 6.33594C59.0885 7.00575 58.4532 7.52778 57.7099 7.83606C56.9666 8.14434 56.1487 8.22507 55.3596 8.06791C54.5706 7.91074 53.8458 7.52275 53.2769 6.95312C52.708 6.38349 52.3206 5.65781 52.1636 4.86771C52.0067 4.07761 52.0872 3.25864 52.3951 2.51438C52.703 1.77012 53.2243 1.13404 53.8933 0.686489C54.5622 0.238934 55.3487 0 56.1532 0C56.6874 0 57.2164 0.105384 57.7099 0.310075C58.2034 0.514767 58.6518 0.814793 59.0296 1.19301C59.4073 1.57123 59.7069 2.02021 59.9113 2.51438C60.1158 3.00855 60.221 3.53825 60.221 4.07313ZM85.6219 6.33594C86.0689 5.66613 86.3074 4.87871 86.3074 4.07313C86.3074 3.53825 86.2022 3.00855 85.9978 2.51438C85.7934 2.02021 85.4937 1.57123 85.116 1.19301C84.7383 0.814793 84.2898 0.514767 83.7963 0.310075C83.3028 0.105384 82.7738 0 82.2396 0C81.4351 0 80.6487 0.238934 79.9797 0.686489C79.3108 1.13404 78.7894 1.77012 78.4815 2.51438C78.1736 3.25864 78.0931 4.07761 78.25 4.86771C78.407 5.65781 78.7944 6.38349 79.3633 6.95312C79.9322 7.52275 80.657 7.91074 81.4461 8.06791C82.2351 8.22507 83.053 8.14434 83.7963 7.83606C84.5396 7.52778 85.1749 7.00575 85.6219 6.33594ZM112.306 4.07313C112.306 4.87871 112.067 5.66613 111.62 6.33594C111.173 7.00575 110.538 7.52778 109.795 7.83606C109.052 8.14434 108.234 8.22507 107.445 8.06791C106.656 7.91074 105.931 7.52275 105.362 6.95312C104.793 6.38349 104.406 5.65781 104.249 4.86771C104.092 4.07761 104.172 3.25864 104.48 2.51438C104.788 1.77012 105.309 1.13404 105.978 0.686489C106.647 0.238934 107.434 0 108.238 0C108.772 0 109.301 0.105384 109.795 0.310075C110.288 0.514767 110.737 0.814793 111.115 1.19301C111.492 1.57123 111.792 2.02021 111.996 2.51438C112.201 3.00855 112.306 3.53825 112.306 4.07313ZM137.663 6.33594C138.11 5.66613 138.348 4.87871 138.348 4.07313C138.348 3.53825 138.243 3.00855 138.039 2.51438C137.834 2.02021 137.535 1.57123 137.157 1.19301C136.779 0.814793 136.331 0.514767 135.837 0.310075C135.344 0.105384 134.815 0 134.281 0C133.476 0 132.69 0.238934 132.021 0.686489C131.352 1.13404 130.83 1.77012 130.523 2.51438C130.215 3.25864 130.134 4.07761 130.291 4.86771C130.448 5.65781 130.835 6.38349 131.404 6.95312C131.973 7.52275 132.698 7.91074 133.487 8.06791C134.276 8.22507 135.094 8.14434 135.837 7.83606C136.581 7.52778 137.216 7.00575 137.663 6.33594ZM164.391 4.07313C164.391 4.87871 164.152 5.66613 163.705 6.33594C163.258 7.00575 162.623 7.52778 161.88 7.83606C161.137 8.14434 160.319 8.22507 159.53 8.06791C158.74 7.91074 158.016 7.52275 157.447 6.95312C156.878 6.38349 156.49 5.65781 156.334 4.86771C156.177 4.07761 156.257 3.25864 156.565 2.51438C156.873 1.77012 157.394 1.13404 158.063 0.686489C158.732 0.238934 159.519 0 160.323 0C160.857 0 161.386 0.105384 161.88 0.310075C162.373 0.514767 162.822 0.814793 163.2 1.19301C163.577 1.57123 163.877 2.02021 164.081 2.51438C164.286 3.00855 164.391 3.53825 164.391 4.07313ZM189.748 6.33594C190.195 5.66613 190.434 4.87871 190.434 4.07313C190.434 3.53825 190.329 3.00855 190.124 2.51438C189.92 2.02021 189.62 1.57123 189.242 1.19301C188.865 0.814793 188.416 0.514767 187.923 0.310075C187.429 0.105384 186.9 0 186.366 0C185.562 0 184.775 0.238934 184.106 0.686489C183.437 1.13404 182.916 1.77012 182.608 2.51438C182.3 3.25864 182.22 4.07761 182.377 4.86771C182.533 5.65781 182.921 6.38349 183.49 6.95312C184.059 7.52275 184.783 7.91074 185.573 8.06791C186.362 8.22507 187.18 8.14434 187.923 7.83606C188.666 7.52778 189.301 7.00575 189.748 6.33594Z" fill="#DCEDFF"/>
<path d="M265.632 85H99.207C95.2267 85 92 88.2309 92 92.2164V258.858C92 262.844 95.2267 266.075 99.207 266.075H265.632C269.612 266.075 272.839 262.844 272.839 258.858V92.2164C272.839 88.2309 269.612 85 265.632 85Z" stroke="#61A1F4" stroke-width="0.89" stroke-miterlimit="10"/>
</g>
<defs>
<clipPath id="clip0_199_188">
<rect width="274" height="269" fill="white"/>
</clipPath>
</defs>
</svg>
