<svg width="201" height="292" viewBox="0 0 201 292" fill="none" xmlns="http://www.w3.org/2000/svg">
<path fill-rule="evenodd" clip-rule="evenodd" d="M-9.61664 6.5918C-9.61664 7.89551 -10.0025 9.16992 -10.7254 10.2539C-11.4483 11.3381 -12.4759 12.1829 -13.6781 12.6819C-14.8803 13.1807 -16.2032 13.3113 -17.4794 13.0569C-18.7557 12.8025 -19.9279 12.1748 -20.8481 11.2529C-21.7682 10.3311 -22.3948 9.15649 -22.6486 7.87769C-22.9025 6.59912 -22.7722 5.27368 -22.2743 4.06934C-21.7763 2.86475 -20.933 1.83521 -19.851 1.11084C-18.7691 0.386719 -17.4971 0 -16.1958 0C-15.3318 0 -14.4763 0.170654 -13.6781 0.501709C-12.8799 0.833008 -12.1546 1.3186 -11.5436 1.93066C-10.9327 2.54272 -10.4481 3.26953 -10.1174 4.06934C-9.7868 4.8689 -9.61664 5.72607 -9.61664 6.5918ZM-51.7291 46.4421C-51.7344 47.7446 -52.1249 49.0166 -52.851 50.0969C-53.5772 51.1772 -54.6067 52.0181 -55.8093 52.5127C-57.012 53.0076 -58.334 53.134 -59.6084 52.8767C-60.8829 52.6194 -62.0526 51.9893 -62.97 51.0664C-63.8874 50.1436 -64.5114 48.9688 -64.7631 47.6909C-65.0147 46.4131 -64.8828 45.0891 -64.3841 43.8862C-63.8853 42.6833 -63.042 41.6553 -61.9607 40.9321C-60.8793 40.209 -59.6084 39.8232 -58.3083 39.8232C-57.442 39.8232 -56.5843 39.9946 -55.7843 40.3274C-54.9843 40.6604 -54.2578 41.1484 -53.6465 41.7634C-53.0352 42.3784 -52.5511 43.1084 -52.2221 43.9111C-51.893 44.7141 -51.7255 45.5742 -51.7291 46.4421ZM-51.7291 86.2654C-51.7291 87.5691 -52.1149 88.8435 -52.8379 89.9275C-53.5608 91.0115 -54.5883 91.8564 -55.7905 92.3552C-56.9927 92.8542 -58.3156 92.9849 -59.5919 92.7305C-60.8681 92.4761 -62.0404 91.8481 -62.9605 90.9263C-63.8806 90.0044 -64.5073 88.8298 -64.7612 87.5513C-65.015 86.2727 -64.8847 84.9473 -64.3867 83.7427C-63.8888 82.5383 -63.0455 81.5088 -61.9636 80.7844C-60.8816 80.0601 -59.6096 79.6736 -58.3083 79.6736C-56.5634 79.6736 -54.8899 80.3679 -53.6561 81.6042C-52.4223 82.8403 -51.7291 84.5171 -51.7291 86.2654ZM-93.8415 126.088C-93.8415 127.392 -94.2274 128.667 -94.9504 129.751C-95.6733 130.835 -96.7008 131.679 -97.903 132.178C-99.1052 132.677 -100.428 132.808 -101.704 132.553C-102.981 132.299 -104.153 131.671 -105.073 130.75C-105.993 129.828 -106.62 128.653 -106.874 127.374C-107.127 126.096 -106.997 124.77 -106.499 123.566C-106.001 122.361 -105.158 121.332 -104.076 120.608C-102.994 119.883 -101.722 119.497 -100.421 119.497C-98.6759 119.497 -97.0024 120.191 -95.7685 121.427C-94.5347 122.664 -93.8415 124.34 -93.8415 126.088ZM-93.8415 165.912C-93.8415 167.215 -94.2274 168.49 -94.9504 169.574C-95.6733 170.658 -96.7008 171.503 -97.903 172.002C-99.1052 172.5 -100.428 172.631 -101.704 172.377C-102.981 172.122 -104.153 171.495 -105.073 170.573C-105.993 169.651 -106.62 168.476 -106.874 167.198C-107.127 165.919 -106.997 164.594 -106.499 163.389C-106.001 162.185 -105.158 161.155 -104.076 160.431C-102.994 159.706 -101.722 159.32 -100.421 159.32C-98.6759 159.32 -97.0024 160.014 -95.7685 161.25C-94.5347 162.487 -93.8415 164.163 -93.8415 165.912ZM-51.7291 205.735C-51.7291 207.038 -52.1149 208.313 -52.8379 209.397C-53.5608 210.481 -54.5883 211.326 -55.7905 211.825C-56.9927 212.324 -58.3156 212.454 -59.5919 212.2C-60.8681 211.946 -62.0404 211.318 -62.9605 210.396C-63.8806 209.474 -64.5073 208.299 -64.7612 207.021C-65.015 205.742 -64.8847 204.417 -64.3867 203.212C-63.8888 202.008 -63.0455 200.978 -61.9636 200.254C-60.8816 199.53 -59.6096 199.143 -58.3083 199.143C-56.5634 199.143 -54.8899 199.837 -53.6561 201.074C-52.4223 202.31 -51.7291 203.986 -51.7291 205.735ZM-10.7367 249.237C-10.0117 248.157 -9.62201 246.886 -9.61663 245.585C-9.61304 244.715 -9.78147 243.853 -10.1122 243.048C-10.4429 242.243 -10.9294 241.512 -11.5436 240.897C-12.1577 240.281 -12.8874 239.794 -13.6906 239.463C-14.4937 239.131 -15.3544 238.962 -16.223 238.966C-17.5219 238.971 -18.7902 239.362 -19.868 240.088C-20.9457 240.815 -21.7848 241.844 -22.2794 243.048C-22.774 244.251 -22.9019 245.574 -22.6472 246.851C-22.3925 248.127 -21.7664 249.299 -20.848 250.219C-19.9295 251.139 -18.7597 251.766 -17.486 252.021C-16.2123 252.277 -14.8917 252.148 -13.6906 251.653C-12.4895 251.157 -11.4617 250.317 -10.7367 249.237ZM-51.7291 245.585C-51.7291 246.889 -52.1149 248.163 -52.8379 249.247C-53.5608 250.331 -54.5883 251.176 -55.7905 251.675C-56.9927 252.174 -58.3156 252.304 -59.5919 252.05C-60.8681 251.796 -62.0404 251.168 -62.9605 250.246C-63.8806 249.324 -64.5073 248.15 -64.7612 246.871C-65.015 245.593 -64.8847 244.267 -64.3867 243.062C-63.8888 241.858 -63.0455 240.829 -61.9636 240.104C-60.8816 239.38 -59.6096 238.993 -58.3083 238.993C-56.5634 238.993 -54.8899 239.688 -53.6561 240.924C-52.4223 242.16 -51.7291 243.837 -51.7291 245.585ZM-10.7254 289.07C-10.0025 287.986 -9.61664 286.712 -9.61664 285.408C-9.61664 284.542 -9.7868 283.685 -10.1174 282.886C-10.4481 282.086 -10.9327 281.359 -11.5436 280.747C-12.1546 280.135 -12.8799 279.649 -13.6781 279.318C-14.4763 278.987 -15.3318 278.816 -16.1958 278.816C-17.4971 278.816 -18.7691 279.203 -19.851 279.927C-20.933 280.652 -21.7763 281.681 -22.2743 282.886C-22.7722 284.09 -22.9025 285.416 -22.6486 286.694C-22.3948 287.973 -21.7682 289.147 -20.8481 290.069C-19.9279 290.991 -18.7557 291.619 -17.4794 291.874C-16.2032 292.127 -14.8803 291.997 -13.6781 291.498C-12.4759 291 -11.4483 290.154 -10.7254 289.07ZM74.6354 285.408C74.6354 286.712 74.2496 287.986 73.5267 289.07C72.8037 290.154 71.7762 291 70.574 291.498C69.3718 291.997 68.049 292.127 66.7728 291.874C65.4965 291.619 64.3242 290.991 63.4041 290.069C62.484 289.147 61.8574 287.973 61.6035 286.694C61.3497 285.416 61.4799 284.09 61.9779 282.886C62.4758 281.681 63.3191 280.652 64.401 279.927C65.483 279.203 66.755 278.816 68.0563 278.816C69.8012 278.816 71.4746 279.511 72.7084 280.747C73.9423 281.983 74.6354 283.66 74.6354 285.408ZM115.639 289.07C116.362 287.986 116.748 286.712 116.748 285.408C116.748 283.66 116.055 281.983 114.821 280.747C113.587 279.511 111.914 278.816 110.169 278.816C108.867 278.816 107.595 279.203 106.513 279.927C105.432 280.652 104.588 281.681 104.09 282.886C103.592 284.09 103.462 285.416 103.716 286.694C103.97 287.973 104.596 289.147 105.517 290.069C106.437 290.991 107.609 291.619 108.885 291.874C110.161 292.127 111.484 291.997 112.686 291.498C113.889 291 114.916 290.154 115.639 289.07ZM73.5135 249.24C74.2397 248.159 74.6301 246.888 74.6354 245.585C74.639 244.717 74.4715 243.857 74.1424 243.054C73.8134 242.251 73.3293 241.521 72.718 240.906C72.1068 240.292 71.3803 239.803 70.5803 239.47C69.7803 239.137 68.9225 238.966 68.0563 238.966C66.7562 238.966 65.4852 239.352 64.4039 240.075C63.3225 240.798 62.4793 241.826 61.9805 243.029C61.4818 244.232 61.3499 245.556 61.6015 246.834C61.8532 248.112 62.4771 249.286 63.3945 250.209C64.3119 251.132 65.4817 251.762 66.7561 252.02C68.0306 252.277 69.3526 252.15 70.5552 251.656C71.7579 251.161 72.7873 250.32 73.5135 249.24ZM-10.7254 209.397C-10.0025 208.313 -9.61664 207.038 -9.61664 205.735C-9.61664 204.869 -9.7868 204.012 -10.1174 203.212C-10.4481 202.412 -10.9327 201.686 -11.5436 201.074C-12.1546 200.461 -12.8799 199.976 -13.6781 199.645C-14.4763 199.313 -15.3318 199.143 -16.1958 199.143C-17.4971 199.143 -18.7691 199.53 -19.851 200.254C-20.933 200.978 -21.7763 202.008 -22.2743 203.212C-22.7722 204.417 -22.9025 205.742 -22.6486 207.021C-22.3948 208.299 -21.7682 209.474 -20.8481 210.396C-19.9279 211.318 -18.7557 211.946 -17.4794 212.2C-16.2032 212.454 -14.8803 212.324 -13.6781 211.825C-12.4759 211.326 -11.4483 210.481 -10.7254 209.397ZM32.523 205.735C32.523 207.038 32.1371 208.313 31.4142 209.397C30.6913 210.481 29.6638 211.326 28.4616 211.825C27.2594 212.324 25.9365 212.454 24.6602 212.2C23.384 211.946 22.2117 211.318 21.2916 210.396C20.3715 209.474 19.7449 208.299 19.491 207.021C19.2372 205.742 19.3674 204.417 19.8654 203.212C20.3633 202.008 21.2067 200.978 22.2886 200.254C23.3705 199.53 24.6426 199.143 25.9438 199.143C27.6866 199.15 29.3558 199.847 30.5881 201.082C31.8204 202.316 32.5159 203.989 32.523 205.735ZM116.748 205.735C116.748 207.038 116.362 208.313 115.639 209.397C114.916 210.481 113.889 211.326 112.686 211.825C111.484 212.324 110.161 212.454 108.885 212.2C107.609 211.946 106.437 211.318 105.517 210.396C104.596 209.474 103.97 208.299 103.716 207.021C103.462 205.742 103.592 204.417 104.09 203.212C104.588 202.008 105.432 200.978 106.513 200.254C107.595 199.53 108.867 199.143 110.169 199.143C111.914 199.143 113.587 199.837 114.821 201.074C116.055 202.31 116.748 203.986 116.748 205.735ZM157.779 209.397C158.502 208.313 158.887 207.038 158.887 205.735C158.88 203.989 158.185 202.316 156.953 201.082C155.72 199.847 154.051 199.15 152.308 199.143C151.007 199.143 149.735 199.53 148.653 200.254C147.571 200.978 146.728 202.008 146.23 203.212C145.732 204.417 145.602 205.742 145.856 207.021C146.109 208.299 146.736 209.474 147.656 210.396C148.576 211.318 149.749 211.946 151.025 212.2C152.301 212.454 153.624 212.324 154.826 211.825C156.028 211.326 157.056 210.481 157.779 209.397ZM-52.8379 169.574C-52.1149 168.49 -51.7291 167.215 -51.7291 165.912C-51.7291 164.163 -52.4223 162.487 -53.6561 161.25C-54.8899 160.014 -56.5634 159.32 -58.3083 159.32C-59.6096 159.32 -60.8816 159.706 -61.9636 160.431C-63.0455 161.155 -63.8888 162.185 -64.3867 163.389C-64.8847 164.594 -65.015 165.919 -64.7612 167.198C-64.5073 168.476 -63.8806 169.651 -62.9605 170.573C-62.0404 171.495 -60.8681 172.122 -59.5919 172.377C-58.3156 172.631 -56.9927 172.5 -55.7905 172.002C-54.5883 171.503 -53.5608 170.658 -52.8379 169.574ZM-9.61664 165.912C-9.61664 167.215 -10.0025 168.49 -10.7254 169.574C-11.4483 170.658 -12.4759 171.503 -13.6781 172.002C-14.8803 172.5 -16.2032 172.631 -17.4794 172.377C-18.7557 172.122 -19.9279 171.495 -20.8481 170.573C-21.7682 169.651 -22.3948 168.476 -22.6486 167.198C-22.9025 165.919 -22.7722 164.594 -22.2743 163.389C-21.7763 162.185 -20.933 161.155 -19.851 160.431C-18.7691 159.706 -17.4971 159.32 -16.1958 159.32C-15.3318 159.32 -14.4763 159.49 -13.6781 159.822C-12.8799 160.153 -12.1546 160.638 -11.5436 161.25C-10.9327 161.863 -10.4481 162.589 -10.1174 163.389C-9.7868 164.189 -9.61664 165.046 -9.61664 165.912ZM31.4142 169.574C32.1371 168.49 32.523 167.215 32.523 165.912C32.523 164.163 31.8298 162.487 30.596 161.25C29.3622 160.014 27.6888 159.32 25.9438 159.32C24.6426 159.32 23.3705 159.706 22.2886 160.431C21.2067 161.155 20.3633 162.185 19.8654 163.389C19.3674 164.594 19.2372 165.919 19.491 167.198C19.7449 168.476 20.3715 169.651 21.2916 170.573C22.2117 171.495 23.384 172.122 24.6602 172.377C25.9365 172.631 27.2594 172.5 28.4616 172.002C29.6638 171.503 30.6913 170.658 31.4142 169.574ZM74.6354 165.912C74.6354 167.215 74.2496 168.49 73.5267 169.574C72.8037 170.658 71.7762 171.503 70.574 172.002C69.3718 172.5 68.049 172.631 66.7728 172.377C65.4965 172.122 64.3242 171.495 63.4041 170.573C62.484 169.651 61.8574 168.476 61.6035 167.198C61.3497 165.919 61.4799 164.594 61.9779 163.389C62.4758 162.185 63.3191 161.155 64.401 160.431C65.483 159.706 66.755 159.32 68.0563 159.32C69.8012 159.32 71.4746 160.014 72.7084 161.25C73.9423 162.487 74.6354 164.163 74.6354 165.912ZM158.887 165.912C158.887 167.215 158.502 168.49 157.779 169.574C157.056 170.658 156.028 171.503 154.826 172.002C153.624 172.5 152.301 172.631 151.025 172.377C149.749 172.122 148.576 171.495 147.656 170.573C146.736 169.651 146.109 168.476 145.856 167.198C145.602 165.919 145.732 164.594 146.23 163.389C146.728 162.185 147.571 161.155 148.653 160.431C149.735 159.706 151.007 159.32 152.308 159.32C154.053 159.32 155.727 160.014 156.96 161.25C158.194 162.487 158.887 164.163 158.887 165.912ZM-52.8379 129.751C-52.1149 128.667 -51.7291 127.392 -51.7291 126.088C-51.7291 124.34 -52.4223 122.664 -53.6561 121.427C-54.8899 120.191 -56.5634 119.497 -58.3083 119.497C-59.6096 119.497 -60.8816 119.883 -61.9636 120.608C-63.0455 121.332 -63.8888 122.361 -64.3867 123.566C-64.8847 124.77 -65.015 126.096 -64.7612 127.374C-64.5073 128.653 -63.8806 129.828 -62.9605 130.75C-62.0404 131.671 -60.8681 132.299 -59.5919 132.553C-58.3156 132.808 -56.9927 132.677 -55.7905 132.178C-54.5883 131.679 -53.5608 130.835 -52.8379 129.751ZM-9.61664 126.088C-9.61664 127.392 -10.0025 128.667 -10.7254 129.751C-11.4483 130.835 -12.4759 131.679 -13.6781 132.178C-14.8803 132.677 -16.2032 132.808 -17.4794 132.553C-18.7557 132.299 -19.9279 131.671 -20.8481 130.75C-21.7682 129.828 -22.3948 128.653 -22.6486 127.374C-22.9025 126.096 -22.7722 124.77 -22.2743 123.566C-21.7763 122.361 -20.933 121.332 -19.851 120.608C-18.7691 119.883 -17.4971 119.497 -16.1958 119.497C-15.3318 119.497 -14.4763 119.667 -13.6781 119.999C-12.8799 120.33 -12.1546 120.815 -11.5436 121.427C-10.9327 122.04 -10.4481 122.766 -10.1174 123.566C-9.7868 124.366 -9.61664 125.223 -9.61664 126.088ZM31.4142 129.751C32.1371 128.667 32.523 127.392 32.523 126.088C32.523 124.34 31.8298 122.664 30.596 121.427C29.3622 120.191 27.6888 119.497 25.9438 119.497C24.6426 119.497 23.3705 119.883 22.2886 120.608C21.2067 121.332 20.3633 122.361 19.8654 123.566C19.3674 124.77 19.2372 126.096 19.491 127.374C19.7449 128.653 20.3715 129.828 21.2916 130.75C22.2117 131.671 23.384 132.299 24.6602 132.553C25.9365 132.808 27.2594 132.677 28.4616 132.178C29.6638 131.679 30.6913 130.835 31.4142 129.751ZM74.6354 126.088C74.6354 127.392 74.2496 128.667 73.5267 129.751C72.8037 130.835 71.7762 131.679 70.574 132.178C69.3718 132.677 68.049 132.808 66.7728 132.553C65.4965 132.299 64.3242 131.671 63.4041 130.75C62.484 129.828 61.8574 128.653 61.6035 127.374C61.3497 126.096 61.4799 124.77 61.9779 123.566C62.4758 122.361 63.3191 121.332 64.401 120.608C65.483 119.883 66.755 119.497 68.0563 119.497C69.8012 119.497 71.4746 120.191 72.7084 121.427C73.9423 122.664 74.6354 124.34 74.6354 126.088ZM158.887 126.088C158.887 127.392 158.502 128.667 157.779 129.751C157.056 130.835 156.028 131.679 154.826 132.178C153.624 132.677 152.301 132.808 151.025 132.553C149.749 132.299 148.576 131.671 147.656 130.75C146.736 129.828 146.109 128.653 145.856 127.374C145.602 126.096 145.732 124.77 146.23 123.566C146.728 122.361 147.571 121.332 148.653 120.608C149.735 119.883 151.007 119.497 152.308 119.497C154.053 119.497 155.727 120.191 156.96 121.427C158.194 122.664 158.887 124.34 158.887 126.088ZM199.891 129.751C200.614 128.667 201 127.392 201 126.088C201 124.34 200.307 122.664 199.073 121.427C197.839 120.191 196.166 119.497 194.421 119.497C193.12 119.497 191.847 119.883 190.766 120.608C189.684 121.332 188.84 122.361 188.342 123.566C187.844 124.77 187.714 126.096 187.968 127.374C188.222 128.653 188.848 129.828 189.769 130.75C190.689 131.671 191.861 132.299 193.137 132.553C194.413 132.808 195.736 132.677 196.939 132.178C198.141 131.679 199.168 130.835 199.891 129.751ZM-10.7254 89.9275C-10.0025 88.8435 -9.61664 87.5691 -9.61664 86.2654C-9.61664 85.3997 -9.7868 84.5425 -10.1174 83.7427C-10.4481 82.9431 -10.9327 82.2163 -11.5436 81.6042C-12.1546 80.9919 -12.8799 80.5066 -13.6781 80.1753C-14.4763 79.844 -15.3318 79.6736 -16.1958 79.6736C-17.4971 79.6736 -18.7691 80.0601 -19.851 80.7844C-20.933 81.5088 -21.7763 82.5383 -22.2743 83.7427C-22.7722 84.9473 -22.9025 86.2727 -22.6486 87.5513C-22.3948 88.8298 -21.7682 90.0044 -20.8481 90.9263C-19.9279 91.8481 -18.7557 92.4761 -17.4794 92.7305C-16.2032 92.9849 -14.8803 92.8542 -13.6781 92.3552C-12.4759 91.8564 -11.4483 91.0115 -10.7254 89.9275ZM32.523 86.2654C32.523 87.5691 32.1371 88.8435 31.4142 89.9275C30.6913 91.0115 29.6638 91.8564 28.4616 92.3552C27.2594 92.8542 25.9365 92.9849 24.6602 92.7305C23.384 92.4761 22.2117 91.8481 21.2916 90.9263C20.3715 90.0044 19.7449 88.8298 19.491 87.5513C19.2372 86.2727 19.3674 84.9473 19.8654 83.7427C20.3633 82.5383 21.2067 81.5088 22.2886 80.7844C23.3705 80.0601 24.6426 79.6736 25.9438 79.6736C27.6866 79.6807 29.3558 80.3774 30.5881 81.6121C31.8204 82.8467 32.5159 84.5193 32.523 86.2654ZM73.5267 89.9275C74.2496 88.8435 74.6354 87.5691 74.6354 86.2654C74.6354 84.5171 73.9423 82.8403 72.7084 81.6042C71.4746 80.3679 69.8012 79.6736 68.0563 79.6736C66.755 79.6736 65.483 80.0601 64.401 80.7844C63.3191 81.5088 62.4758 82.5383 61.9779 83.7427C61.4799 84.9473 61.3497 86.2727 61.6035 87.5513C61.8574 88.8298 62.484 90.0044 63.4041 90.9263C64.3242 91.8481 65.4965 92.4761 66.7728 92.7305C68.049 92.9849 69.3718 92.8542 70.574 92.3552C71.7762 91.8564 72.8037 91.0115 73.5267 89.9275ZM157.779 89.9275C158.502 88.8435 158.887 87.5691 158.887 86.2654C158.88 84.5193 158.185 82.8467 156.953 81.6121C155.72 80.3774 154.051 79.6807 152.308 79.6736C151.007 79.6736 149.735 80.0601 148.653 80.7844C147.571 81.5088 146.728 82.5383 146.23 83.7427C145.732 84.9473 145.602 86.2727 145.856 87.5513C146.109 88.8298 146.736 90.0044 147.656 90.9263C148.576 91.8481 149.749 92.4761 151.025 92.7305C152.301 92.9849 153.624 92.8542 154.826 92.3552C156.028 91.8564 157.056 91.0115 157.779 89.9275ZM-10.7386 50.0969C-10.0124 49.0166 -9.62199 47.7446 -9.61662 46.4421C-9.61304 45.5742 -9.78058 44.7141 -10.1096 43.9111C-10.4386 43.1084 -10.9227 42.3784 -11.534 41.7634C-12.1453 41.1484 -12.8717 40.6604 -13.6718 40.3274C-14.4718 39.9946 -15.3295 39.8232 -16.1958 39.8232C-17.4959 39.8232 -18.7668 40.209 -19.8482 40.9321C-20.9296 41.6553 -21.7729 42.6833 -22.2716 43.8862C-22.7704 45.0891 -22.9022 46.4131 -22.6505 47.6909C-22.3989 48.9688 -21.775 50.1436 -20.8576 51.0664C-19.9402 51.9893 -18.7704 52.6194 -17.496 52.8767C-16.2215 53.134 -14.8995 53.0076 -13.6968 52.5127C-12.4941 52.0181 -11.4648 51.1772 -10.7386 50.0969ZM32.523 46.4421C32.5177 47.7446 32.1272 49.0166 31.401 50.0969C30.6749 51.1772 29.6455 52.0181 28.4428 52.5127C27.2402 53.0076 25.9181 53.134 24.6437 52.8767C23.3692 52.6194 22.1995 51.9893 21.2821 51.0664C20.3647 50.1436 19.7408 48.9688 19.4891 47.6909C19.2375 46.4131 19.3693 45.0891 19.868 43.8862C20.3668 42.6833 21.2101 41.6553 22.2914 40.9321C23.3728 40.209 24.6438 39.8232 25.9438 39.8232C27.6913 39.8303 29.3646 40.5308 30.5977 41.7715C31.8307 43.012 32.523 44.6914 32.523 46.4421ZM73.5135 50.0969C74.2397 49.0166 74.6301 47.7446 74.6354 46.4421C74.639 45.5742 74.4715 44.7141 74.1424 43.9111C73.8134 43.1084 73.3293 42.3784 72.718 41.7634C72.1068 41.1484 71.3803 40.6604 70.5803 40.3274C69.7803 39.9946 68.9225 39.8232 68.0563 39.8232C66.7562 39.8232 65.4852 40.209 64.4039 40.9321C63.3225 41.6553 62.4793 42.6833 61.9805 43.8862C61.4818 45.0891 61.3499 46.4131 61.6015 47.6909C61.8532 48.9688 62.4771 50.1436 63.3945 51.0664C64.3119 51.9893 65.4817 52.6194 66.7561 52.8767C68.0306 53.134 69.3526 53.0076 70.5552 52.5127C71.7579 52.0181 72.7873 51.1772 73.5135 50.0969ZM157.766 50.0969C158.492 49.0166 158.882 47.7446 158.887 46.4421C158.888 44.6914 158.195 43.012 156.962 41.7715C155.729 40.5308 154.056 39.8303 152.308 39.8232C151.008 39.8232 149.737 40.209 148.656 40.9321C147.575 41.6553 146.731 42.6833 146.233 43.8862C145.734 45.0891 145.602 46.4131 145.854 47.6909C146.105 48.9688 146.729 50.1436 147.647 51.0664C148.564 51.9893 149.734 52.6194 151.008 52.8767C152.283 53.134 153.605 53.0076 154.807 52.5127C156.01 52.0181 157.039 51.1772 157.766 50.0969ZM31.4142 10.2539C32.1371 9.16992 32.523 7.89551 32.523 6.5918C32.523 4.84351 31.8298 3.16675 30.596 1.93066C29.3622 0.69458 27.6888 0 25.9438 0C24.6426 0 23.3705 0.386719 22.2886 1.11084C21.2067 1.83521 20.3633 2.86475 19.8654 4.06934C19.3674 5.27368 19.2372 6.59912 19.491 7.87769C19.7449 9.15649 20.3715 10.3311 21.2916 11.2529C22.2117 12.1748 23.384 12.8025 24.6602 13.0569C25.9365 13.3113 27.2594 13.1807 28.4616 12.6819C29.6638 12.1829 30.6913 11.3381 31.4142 10.2539ZM74.6354 6.5918C74.6354 7.89551 74.2496 9.16992 73.5267 10.2539C72.8037 11.3381 71.7762 12.1829 70.574 12.6819C69.3718 13.1807 68.049 13.3113 66.7728 13.0569C65.4965 12.8025 64.3242 12.1748 63.4041 11.2529C62.484 10.3311 61.8574 9.15649 61.6035 7.87769C61.3497 6.59912 61.4799 5.27368 61.9779 4.06934C62.4758 2.86475 63.3191 1.83521 64.401 1.11084C65.483 0.386719 66.755 0 68.0563 0C69.8012 0 71.4746 0.69458 72.7084 1.93066C73.9423 3.16675 74.6354 4.84351 74.6354 6.5918ZM201 165.912C201 169.552 198.054 172.503 194.421 172.503C190.787 172.503 187.842 169.552 187.842 165.912C187.842 162.271 190.787 159.32 194.421 159.32C198.054 159.32 201 162.271 201 165.912Z" fill="#DCEDFF"/>
<path d="M31.4139 289.07C32.1368 287.986 32.5227 286.712 32.5227 285.408C32.5227 283.66 31.8295 281.983 30.5957 280.747C29.3618 279.511 27.6884 278.816 25.9435 278.816C24.6423 278.816 23.3702 279.203 22.2883 279.927C21.2063 280.652 20.363 281.681 19.865 282.886C19.3671 284.09 19.2368 285.416 19.4907 286.694C19.7446 287.973 20.3711 289.147 21.2913 290.069C22.2114 290.991 23.3837 291.619 24.6599 291.874C25.9362 292.127 27.259 291.997 28.4612 291.498C29.6634 291 30.691 290.154 31.4139 289.07Z" fill="#DCEDFF"/>
<path d="M32.5227 245.585C32.5227 246.889 32.1368 248.163 31.4139 249.247C30.691 250.331 29.6634 251.176 28.4612 251.675C27.259 252.174 25.9362 252.304 24.6599 252.05C23.3837 251.796 22.2114 251.168 21.2913 250.246C20.3711 249.324 19.7446 248.15 19.4907 246.871C19.2368 245.593 19.3671 244.267 19.865 243.062C20.363 241.858 21.2063 240.829 22.2883 240.104C23.3702 239.38 24.6423 238.993 25.9435 238.993C27.6862 239 29.3555 239.697 30.5878 240.932C31.8201 242.167 32.5155 243.839 32.5227 245.585Z" fill="#DCEDFF"/>
<path d="M116.748 245.585C116.748 246.889 116.362 248.163 115.639 249.247C114.916 250.331 113.888 251.176 112.686 251.675C111.484 252.174 110.161 252.304 108.885 252.05C107.609 251.796 106.436 251.168 105.516 250.246C104.596 249.324 103.969 248.15 103.716 246.871C103.462 245.593 103.592 244.267 104.09 243.062C104.588 241.858 105.431 240.829 106.513 240.104C107.595 239.38 108.867 238.993 110.168 238.993C111.913 238.993 113.587 239.688 114.821 240.924C116.054 242.16 116.748 243.837 116.748 245.585Z" fill="#DCEDFF"/>
<path d="M157.763 249.243C158.491 248.162 158.882 246.889 158.887 245.585C158.887 243.839 158.199 242.164 156.972 240.924C155.744 239.684 154.078 238.98 152.335 238.966C151.034 238.961 149.76 239.342 148.676 240.062C147.591 240.782 146.743 241.808 146.24 243.01C145.737 244.212 145.601 245.537 145.85 246.817C146.099 248.097 146.72 249.274 147.637 250.199C148.553 251.125 149.723 251.758 150.998 252.018C152.273 252.277 153.596 252.152 154.801 251.658C156.005 251.164 157.036 250.323 157.763 249.243Z" fill="#DCEDFF"/>
<path d="M73.5263 209.397C74.2493 208.313 74.6351 207.038 74.6351 205.735C74.6351 203.986 73.9419 202.31 72.7081 201.074C71.4743 199.837 69.8009 199.143 68.0559 199.143C66.7547 199.143 65.4827 199.53 64.4007 200.254C63.3188 200.978 62.4755 202.008 61.9776 203.212C61.4796 204.417 61.3493 205.742 61.6032 207.021C61.8571 208.299 62.4836 209.474 63.4038 210.396C64.3239 211.318 65.4962 211.946 66.7724 212.2C68.0487 212.454 69.3715 212.324 70.5737 211.825C71.7759 211.326 72.8034 210.481 73.5263 209.397Z" fill="#DCEDFF"/>
<path d="M115.639 169.574C116.362 168.49 116.748 167.215 116.748 165.912C116.748 164.163 116.054 162.487 114.821 161.25C113.587 160.014 111.913 159.32 110.168 159.32C108.867 159.32 107.595 159.706 106.513 160.431C105.431 161.155 104.588 162.185 104.09 163.389C103.592 164.594 103.462 165.919 103.716 167.198C103.969 168.476 104.596 169.651 105.516 170.573C106.436 171.495 107.609 172.122 108.885 172.377C110.161 172.631 111.484 172.5 112.686 172.002C113.888 171.503 114.916 170.658 115.639 169.574Z" fill="#DCEDFF"/>
<path d="M115.639 129.751C116.362 128.667 116.748 127.392 116.748 126.088C116.748 124.34 116.054 122.664 114.821 121.427C113.587 120.191 111.913 119.497 110.168 119.497C108.867 119.497 107.595 119.883 106.513 120.608C105.431 121.332 104.588 122.361 104.09 123.566C103.592 124.77 103.462 126.096 103.716 127.374C103.969 128.653 104.596 129.828 105.516 130.75C106.436 131.671 107.609 132.299 108.885 132.553C110.161 132.808 111.484 132.677 112.686 132.178C113.888 131.679 114.916 130.835 115.639 129.751Z" fill="#DCEDFF"/>
<path d="M116.748 86.2654C116.748 87.5691 116.362 88.8435 115.639 89.9275C114.916 91.0115 113.888 91.8564 112.686 92.3552C111.484 92.8542 110.161 92.9849 108.885 92.7305C107.609 92.4761 106.436 91.8481 105.516 90.9263C104.596 90.0044 103.969 88.8298 103.716 87.5513C103.462 86.2727 103.592 84.9473 104.09 83.7427C104.588 82.5383 105.431 81.5088 106.513 80.7844C107.595 80.0601 108.867 79.6736 110.168 79.6736C111.913 79.6736 113.587 80.3679 114.821 81.6042C116.054 82.8403 116.748 84.5171 116.748 86.2654Z" fill="#DCEDFF"/>
<path d="M116.748 46.4421C116.742 47.7446 116.352 49.0166 115.626 50.0969C114.899 51.1772 113.87 52.0181 112.667 52.5127C111.465 53.0076 110.143 53.134 108.868 52.8767C107.594 52.6194 106.424 51.9893 105.507 51.0664C104.589 50.1436 103.965 48.9688 103.714 47.6909C103.462 46.4131 103.594 45.0891 104.093 43.8862C104.591 42.6833 105.435 41.6553 106.516 40.9321C107.597 40.209 108.868 39.8232 110.168 39.8232C111.035 39.8232 111.892 39.9946 112.692 40.3274C113.492 40.6604 114.219 41.1484 114.83 41.7634C115.442 42.3784 115.926 43.1084 116.255 43.9111C116.584 44.7141 116.751 45.5742 116.748 46.4421Z" fill="#DCEDFF"/>
<path d="M115.639 10.2539C116.362 9.16992 116.748 7.89551 116.748 6.5918C116.748 4.84351 116.054 3.16675 114.821 1.93066C113.587 0.69458 111.913 0 110.168 0C108.867 0 107.595 0.386719 106.513 1.11084C105.431 1.83521 104.588 2.86475 104.09 4.06934C103.592 5.27368 103.462 6.59912 103.716 7.87769C103.969 9.15649 104.596 10.3311 105.516 11.2529C106.436 12.1748 107.609 12.8025 108.885 13.0569C110.161 13.3113 111.484 13.1807 112.686 12.6819C113.888 12.1829 114.916 11.3381 115.639 10.2539Z" fill="#DCEDFF"/>
</svg>
