<svg width="195" height="391" viewBox="0 0 195 391" fill="none" xmlns="http://www.w3.org/2000/svg">
<path d="M373.111 188.044L202.875 17.8077C198.757 13.6901 192.081 13.6901 187.963 17.8077L17.727 188.044C13.6093 192.162 13.6093 198.838 17.727 202.955L187.963 373.192C192.081 377.309 198.757 377.309 202.875 373.192L373.111 202.955C377.229 198.838 377.229 192.162 373.111 188.044Z" stroke="#61A1F4" stroke-width="6" stroke-miterlimit="10"/>
<path d="M374.827 189.76L243.776 58.7092C240.606 55.5394 235.466 55.5394 232.297 58.7092L101.246 189.76C98.0758 192.93 98.0758 198.069 101.246 201.239L232.297 332.29C235.466 335.46 240.606 335.46 243.776 332.29L374.827 201.239C377.996 198.069 377.996 192.93 374.827 189.76Z" stroke="#DCEDFF" stroke-width="6" stroke-miterlimit="10"/>
</svg>
