<svg width="152" height="305" viewBox="0 0 152 305" fill="none" xmlns="http://www.w3.org/2000/svg">
<path d="M291.045 146.684L158.252 13.891C155.04 10.679 149.833 10.679 146.621 13.891L13.8277 146.684C10.6157 149.896 10.6157 155.104 13.8277 158.316L146.621 291.109C149.833 294.321 155.04 294.321 158.252 291.109L291.045 158.316C294.257 155.104 294.257 149.896 291.045 146.684Z" stroke="#61A1F4" stroke-width="6" stroke-miterlimit="10"/>
<path d="M292.384 148.023L190.158 45.7964C187.685 43.3238 183.676 43.3238 181.204 45.7964L78.9771 148.023C76.5045 150.496 76.5045 154.504 78.9771 156.977L181.204 259.204C183.676 261.676 187.685 261.676 190.158 259.204L292.384 156.977C294.857 154.504 294.857 150.496 292.384 148.023Z" stroke="#DCEDFF" stroke-width="6" stroke-miterlimit="10"/>
</svg>
