<svg width="159" height="151" viewBox="0 0 159 151" fill="none" xmlns="http://www.w3.org/2000/svg">
<g clip-path="url(#clip0_199_539)">
<path d="M50.2733 147.591C50.2733 148.266 50.0741 148.925 49.7009 149.485C49.3277 150.046 48.7973 150.483 48.1766 150.741C47.556 150.999 46.8731 151.066 46.2143 150.935C45.5554 150.803 44.9502 150.478 44.4753 150.002C44.0003 149.525 43.6768 148.918 43.5457 148.256C43.4147 147.595 43.4819 146.91 43.739 146.287C43.9961 145.664 44.4314 145.132 44.9899 144.757C45.5485 144.383 46.2052 144.183 46.8769 144.183C47.3229 144.183 47.7646 144.271 48.1766 144.442C48.5887 144.613 48.9631 144.864 49.2785 145.181C49.5939 145.498 49.8441 145.873 50.0148 146.287C50.1855 146.7 50.2733 147.144 50.2733 147.591Z" fill="#E0EFFF"/>
<path d="M72.0272 147.591C72.0272 148.266 71.828 148.925 71.4548 149.485C71.0816 150.046 70.5512 150.483 69.9305 150.741C69.3099 150.999 68.627 151.066 67.9682 150.935C67.3093 150.803 66.7042 150.478 66.2292 150.002C65.7542 149.525 65.4307 148.918 65.2996 148.256C65.1686 147.595 65.2358 146.91 65.4929 146.287C65.75 145.664 66.1853 145.132 66.7439 144.757C67.3024 144.383 67.9591 144.183 68.6308 144.183C69.5316 144.183 70.3955 144.542 71.0324 145.181C71.6694 145.82 72.0272 146.687 72.0272 147.591Z" fill="#E0EFFF"/>
<path d="M93.7664 147.591C93.7664 148.266 93.5672 148.925 93.194 149.485C92.8208 150.046 92.2904 150.483 91.6698 150.741C91.0491 150.999 90.3663 151.066 89.7074 150.935C89.0486 150.803 88.4434 150.478 87.9684 150.002C87.4934 149.525 87.17 148.918 87.0389 148.256C86.9079 147.595 86.9751 146.91 87.2322 146.287C87.4892 145.664 87.9245 145.132 88.4831 144.757C89.0416 144.383 89.6983 144.183 90.37 144.183C91.2708 144.183 92.1347 144.542 92.7716 145.181C93.4086 145.82 93.7664 146.687 93.7664 147.591Z" fill="#E0EFFF"/>
<path d="M115.507 147.591C115.507 148.266 115.307 148.925 114.934 149.485C114.561 150.046 114.031 150.483 113.41 150.741C112.789 150.999 112.107 151.066 111.448 150.935C110.789 150.803 110.184 150.478 109.709 150.002C109.234 149.525 108.91 148.918 108.779 148.256C108.648 147.595 108.715 146.91 108.972 146.287C109.229 145.664 109.665 145.132 110.223 144.757C110.782 144.383 111.439 144.183 112.11 144.183C113.011 144.183 113.875 144.542 114.512 145.181C115.149 145.82 115.507 146.687 115.507 147.591Z" fill="#E0EFFF"/>
<path d="M28.5331 126.998C28.5331 127.672 28.3339 128.331 27.9607 128.891C27.5875 129.452 27.0571 129.889 26.4364 130.147C25.8158 130.405 25.1329 130.472 24.4741 130.341C23.8152 130.209 23.21 129.885 22.735 129.408C22.2601 128.931 21.9365 128.324 21.8055 127.663C21.6744 127.001 21.7417 126.316 21.9988 125.693C22.2559 125.07 22.6912 124.538 23.2497 124.163C23.8082 123.789 24.4649 123.589 25.1367 123.589C26.0374 123.589 26.9014 123.948 27.5383 124.587C28.1753 125.227 28.5331 126.094 28.5331 126.998Z" fill="#E0EFFF"/>
<path d="M50.2733 126.998C50.2705 127.671 50.0693 128.328 49.695 128.886C49.3208 129.444 48.7902 129.879 48.1701 130.135C47.5501 130.392 46.8683 130.458 46.2108 130.326C45.5533 130.194 44.9494 129.87 44.4753 129.394C44.0011 128.918 43.6779 128.312 43.5464 127.652C43.4149 126.992 43.481 126.308 43.7363 125.686C43.9916 125.063 44.4248 124.531 44.9812 124.155C45.5376 123.779 46.1923 123.578 46.8628 123.575C47.3112 123.573 47.7555 123.66 48.1701 123.831C48.5847 124.003 48.9614 124.255 49.2785 124.573C49.5956 124.891 49.8467 125.269 50.0174 125.686C50.1882 126.102 50.2751 126.548 50.2733 126.998Z" fill="#E0EFFF"/>
<path d="M72.0272 126.998C72.0272 127.672 71.828 128.331 71.4548 128.891C71.0816 129.452 70.5512 129.889 69.9305 130.147C69.3099 130.405 68.627 130.472 67.9682 130.341C67.3093 130.209 66.7042 129.885 66.2292 129.408C65.7542 128.931 65.4307 128.324 65.2996 127.663C65.1686 127.001 65.2358 126.316 65.4929 125.693C65.75 125.07 66.1853 124.538 66.7439 124.163C67.3024 123.789 67.9591 123.589 68.6308 123.589C69.5305 123.593 70.3922 123.953 71.0283 124.591C71.6645 125.23 72.0235 126.095 72.0272 126.998Z" fill="#E0EFFF"/>
<path d="M93.7664 126.998C93.7636 127.671 93.5621 128.329 93.1873 128.888C92.8124 129.446 92.2809 129.881 91.6601 130.137C91.0392 130.393 90.3568 130.458 89.6989 130.325C89.0409 130.192 88.437 129.866 87.9634 129.389C87.4898 128.912 87.1678 128.304 87.0379 127.643C86.908 126.982 86.976 126.298 87.2335 125.676C87.491 125.054 87.9263 124.522 88.4845 124.148C89.0428 123.774 89.6989 123.575 90.37 123.575C90.8172 123.575 91.26 123.663 91.673 123.836C92.086 124.008 92.461 124.26 92.7766 124.578C93.0922 124.896 93.3421 125.274 93.5119 125.689C93.6818 126.104 93.7683 126.549 93.7664 126.998Z" fill="#E0EFFF"/>
<path d="M115.507 126.998C115.507 127.672 115.307 128.331 114.934 128.891C114.561 129.452 114.031 129.889 113.41 130.147C112.789 130.405 112.107 130.472 111.448 130.341C110.789 130.209 110.184 129.885 109.709 129.408C109.234 128.931 108.91 128.324 108.779 127.663C108.648 127.001 108.715 126.316 108.972 125.693C109.229 125.07 109.665 124.538 110.223 124.163C110.782 123.789 111.439 123.589 112.11 123.589C113.011 123.589 113.875 123.948 114.512 124.587C115.149 125.227 115.507 126.094 115.507 126.998Z" fill="#E0EFFF"/>
<path d="M137.261 126.998C137.258 127.672 137.056 128.33 136.68 128.889C136.305 129.448 135.773 129.883 135.151 130.138C134.529 130.394 133.846 130.458 133.188 130.324C132.53 130.19 131.926 129.863 131.453 129.384C130.98 128.905 130.659 128.296 130.53 127.635C130.402 126.973 130.472 126.288 130.732 125.666C130.991 125.044 131.429 124.514 131.989 124.141C132.549 123.769 133.206 123.572 133.878 123.575C134.778 123.582 135.638 123.946 136.272 124.587C136.905 125.228 137.261 126.095 137.261 126.998Z" fill="#E0EFFF"/>
<path d="M28.5331 106.39C28.5331 107.064 28.3339 107.723 27.9607 108.284C27.5875 108.845 27.0571 109.282 26.4364 109.54C25.8158 109.798 25.1329 109.865 24.4741 109.733C23.8152 109.602 23.21 109.277 22.735 108.801C22.2601 108.324 21.9365 107.716 21.8055 107.055C21.6744 106.394 21.7417 105.709 21.9988 105.086C22.2559 104.463 22.6912 103.93 23.2497 103.556C23.8082 103.181 24.4649 102.981 25.1367 102.981C26.0374 102.981 26.9014 103.341 27.5383 103.98C28.1753 104.619 28.5331 105.486 28.5331 106.39Z" fill="#E0EFFF"/>
<path d="M50.2733 106.39C50.2733 107.064 50.0741 107.723 49.7009 108.284C49.3277 108.845 48.7973 109.282 48.1766 109.54C47.556 109.798 46.8731 109.865 46.2143 109.733C45.5554 109.602 44.9502 109.277 44.4753 108.801C44.0003 108.324 43.6768 107.716 43.5457 107.055C43.4147 106.394 43.4819 105.709 43.739 105.086C43.9961 104.463 44.4314 103.93 44.9899 103.556C45.5485 103.181 46.2052 102.981 46.8769 102.981C47.3229 102.981 47.7646 103.07 48.1766 103.241C48.5887 103.412 48.9631 103.663 49.2785 103.98C49.5939 104.296 49.8441 104.672 50.0148 105.086C50.1855 105.499 50.2733 105.943 50.2733 106.39Z" fill="#E0EFFF"/>
<path d="M72.0272 106.39C72.0272 107.064 71.828 107.723 71.4548 108.284C71.0816 108.845 70.5512 109.282 69.9305 109.54C69.3099 109.798 68.627 109.865 67.9682 109.733C67.3093 109.602 66.7042 109.277 66.2292 108.801C65.7542 108.324 65.4307 107.716 65.2996 107.055C65.1686 106.394 65.2358 105.709 65.4929 105.086C65.75 104.463 66.1853 103.93 66.7439 103.556C67.3024 103.181 67.9591 102.981 68.6308 102.981C69.5305 102.985 70.3922 103.345 71.0283 103.984C71.6645 104.622 72.0235 105.487 72.0272 106.39Z" fill="#E0EFFF"/>
<path d="M93.7664 106.39C93.7664 107.064 93.5672 107.723 93.194 108.284C92.8208 108.845 92.2904 109.282 91.6698 109.54C91.0491 109.798 90.3663 109.865 89.7074 109.733C89.0486 109.602 88.4434 109.277 87.9684 108.801C87.4934 108.324 87.17 107.716 87.0389 107.055C86.9079 106.394 86.9751 105.709 87.2322 105.086C87.4892 104.463 87.9245 103.93 88.4831 103.556C89.0416 103.181 89.6983 102.981 90.37 102.981C91.2708 102.981 92.1347 103.341 92.7716 103.98C93.4086 104.619 93.7664 105.486 93.7664 106.39Z" fill="#E0EFFF"/>
<path d="M115.507 106.39C115.507 107.064 115.307 107.723 114.934 108.284C114.561 108.845 114.031 109.282 113.41 109.54C112.789 109.798 112.107 109.865 111.448 109.733C110.789 109.602 110.184 109.277 109.709 108.801C109.234 108.324 108.91 107.716 108.779 107.055C108.648 106.394 108.715 105.709 108.972 105.086C109.229 104.463 109.665 103.93 110.223 103.556C110.782 103.181 111.439 102.981 112.11 102.981C113.011 102.981 113.875 103.341 114.512 103.98C115.149 104.619 115.507 105.486 115.507 106.39Z" fill="#E0EFFF"/>
<path d="M137.261 106.39C137.261 107.064 137.061 107.723 136.688 108.284C136.315 108.845 135.785 109.282 135.164 109.54C134.543 109.798 133.86 109.865 133.202 109.733C132.543 109.602 131.938 109.277 131.463 108.801C130.988 108.324 130.664 107.716 130.533 107.055C130.402 106.394 130.469 105.709 130.726 105.086C130.983 104.463 131.419 103.93 131.977 103.556C132.536 103.181 133.192 102.981 133.864 102.981C134.764 102.985 135.626 103.345 136.262 103.984C136.898 104.622 137.257 105.487 137.261 106.39Z" fill="#E0EFFF"/>
<path d="M6.79285 85.7969C6.79285 86.4711 6.59362 87.1302 6.22042 87.6907C5.84722 88.2513 5.31677 88.6882 4.69616 88.9462C4.07555 89.2043 3.39267 89.2717 2.73383 89.1402C2.07499 89.0087 1.46977 88.684 0.99477 88.2073C0.519773 87.7306 0.196309 87.1232 0.0652577 86.462C-0.0657938 85.8007 0.00148609 85.1153 0.258553 84.4925C0.51562 83.8696 0.95093 83.3372 1.50947 82.9627C2.06801 82.5881 2.72467 82.3882 3.39642 82.3882C4.2972 82.3882 5.16112 82.7473 5.79807 83.3866C6.43502 84.0259 6.79285 84.8929 6.79285 85.7969Z" fill="#E0EFFF"/>
<path d="M28.5331 85.7969C28.5331 86.4711 28.3339 87.1302 27.9607 87.6907C27.5875 88.2513 27.0571 88.6882 26.4364 88.9462C25.8158 89.2043 25.1329 89.2717 24.4741 89.1402C23.8152 89.0087 23.21 88.684 22.735 88.2073C22.2601 87.7306 21.9365 87.1232 21.8055 86.462C21.6744 85.8007 21.7417 85.1153 21.9988 84.4925C22.2559 83.8696 22.6912 83.3372 23.2497 82.9627C23.8082 82.5881 24.4649 82.3882 25.1367 82.3882C26.0374 82.3882 26.9014 82.7473 27.5383 83.3866C28.1753 84.0259 28.5331 84.8929 28.5331 85.7969Z" fill="#E0EFFF"/>
<path d="M50.2733 85.7969C50.2733 86.4711 50.0741 87.1302 49.7009 87.6907C49.3277 88.2513 48.7973 88.6882 48.1766 88.9462C47.556 89.2043 46.8731 89.2717 46.2143 89.1402C45.5554 89.0087 44.9502 88.684 44.4753 88.2073C44.0003 87.7306 43.6768 87.1232 43.5457 86.462C43.4147 85.8007 43.4819 85.1153 43.739 84.4925C43.9961 83.8696 44.4314 83.3372 44.9899 82.9627C45.5485 82.5881 46.2052 82.3882 46.8769 82.3882C47.3229 82.3882 47.7646 82.4763 48.1766 82.6477C48.5887 82.819 48.9631 83.0701 49.2785 83.3866C49.5939 83.7031 49.8441 84.0789 50.0148 84.4925C50.1855 84.906 50.2733 85.3493 50.2733 85.7969Z" fill="#E0EFFF"/>
<path d="M72.0272 85.7969C72.0272 86.4711 71.828 87.1302 71.4548 87.6907C71.0816 88.2513 70.5512 88.6882 69.9305 88.9462C69.3099 89.2043 68.627 89.2717 67.9682 89.1402C67.3093 89.0087 66.7042 88.684 66.2292 88.2073C65.7542 87.7306 65.4307 87.1232 65.2996 86.462C65.1686 85.8007 65.2358 85.1153 65.4929 84.4925C65.75 83.8696 66.1853 83.3372 66.7439 82.9627C67.3024 82.5881 67.9591 82.3882 68.6308 82.3882C69.5316 82.3882 70.3955 82.7473 71.0324 83.3866C71.6694 84.0259 72.0272 84.8929 72.0272 85.7969Z" fill="#E0EFFF"/>
<path d="M93.7664 85.7969C93.7664 86.4711 93.5672 87.1302 93.194 87.6907C92.8208 88.2513 92.2904 88.6882 91.6698 88.9462C91.0491 89.2043 90.3663 89.2717 89.7074 89.1402C89.0486 89.0087 88.4434 88.684 87.9684 88.2073C87.4934 87.7306 87.17 87.1232 87.0389 86.462C86.9079 85.8007 86.9751 85.1153 87.2322 84.4925C87.4892 83.8696 87.9245 83.3372 88.4831 82.9627C89.0416 82.5881 89.6983 82.3882 90.37 82.3882C91.2708 82.3882 92.1347 82.7473 92.7716 83.3866C93.4086 84.0259 93.7664 84.8929 93.7664 85.7969Z" fill="#E0EFFF"/>
<path d="M115.507 85.7969C115.507 86.4711 115.307 87.1302 114.934 87.6907C114.561 88.2513 114.031 88.6882 113.41 88.9462C112.789 89.2043 112.107 89.2717 111.448 89.1402C110.789 89.0087 110.184 88.684 109.709 88.2073C109.234 87.7306 108.91 87.1232 108.779 86.462C108.648 85.8007 108.715 85.1153 108.972 84.4925C109.229 83.8696 109.665 83.3372 110.223 82.9627C110.782 82.5881 111.439 82.3882 112.11 82.3882C113.011 82.3882 113.875 82.7473 114.512 83.3866C115.149 84.0259 115.507 84.8929 115.507 85.7969Z" fill="#E0EFFF"/>
<path d="M137.261 85.7969C137.261 86.4711 137.061 87.1302 136.688 87.6907C136.315 88.2513 135.785 88.6882 135.164 88.9462C134.543 89.2043 133.86 89.2717 133.202 89.1402C132.543 89.0087 131.938 88.684 131.463 88.2073C130.988 87.7306 130.664 87.1232 130.533 86.462C130.402 85.8007 130.469 85.1153 130.726 84.4925C130.983 83.8696 131.419 83.3372 131.977 82.9627C132.536 82.5881 133.192 82.3882 133.864 82.3882C134.765 82.3882 135.629 82.7473 136.266 83.3866C136.903 84.0259 137.261 84.8929 137.261 85.7969Z" fill="#E0EFFF"/>
<path d="M155.603 89.2057C157.479 89.2057 159 87.6796 159 85.7969C159 83.9143 157.479 82.3882 155.603 82.3882C153.728 82.3882 152.207 83.9143 152.207 85.7969C152.207 87.6796 153.728 89.2057 155.603 89.2057Z" fill="#E0EFFF"/>
<path d="M6.79285 65.2032C6.79285 65.8774 6.59362 66.5364 6.22042 67.097C5.84722 67.6576 5.31677 68.0945 4.69616 68.3525C4.07555 68.6105 3.39267 68.678 2.73383 68.5465C2.07499 68.4149 1.46977 68.0903 0.99477 67.6136C0.519773 67.1368 0.196309 66.5294 0.0652577 65.8682C-0.0657938 65.2069 0.00148609 64.5216 0.258553 63.8987C0.51562 63.2758 0.95093 62.7435 1.50947 62.3689C2.06801 61.9943 2.72467 61.7944 3.39642 61.7944C4.2972 61.7944 5.16112 62.1536 5.79807 62.7928C6.43502 63.4321 6.79285 64.2991 6.79285 65.2032Z" fill="#E0EFFF"/>
<path d="M28.5331 65.2032C28.5331 65.8774 28.3339 66.5364 27.9607 67.097C27.5875 67.6576 27.0571 68.0945 26.4364 68.3525C25.8158 68.6105 25.1329 68.678 24.4741 68.5465C23.8152 68.4149 23.21 68.0903 22.735 67.6136C22.2601 67.1368 21.9365 66.5294 21.8055 65.8682C21.6744 65.2069 21.7417 64.5216 21.9988 63.8987C22.2559 63.2758 22.6912 62.7435 23.2497 62.3689C23.8082 61.9943 24.4649 61.7944 25.1367 61.7944C26.0374 61.7944 26.9014 62.1536 27.5383 62.7928C28.1753 63.4321 28.5331 64.2991 28.5331 65.2032Z" fill="#E0EFFF"/>
<path d="M50.2733 65.2032C50.2733 65.8774 50.0741 66.5364 49.7009 67.097C49.3277 67.6576 48.7973 68.0945 48.1766 68.3525C47.556 68.6105 46.8731 68.678 46.2143 68.5465C45.5554 68.4149 44.9502 68.0903 44.4753 67.6136C44.0003 67.1368 43.6768 66.5294 43.5457 65.8682C43.4147 65.2069 43.4819 64.5216 43.739 63.8987C43.9961 63.2758 44.4314 62.7435 44.9899 62.3689C45.5485 61.9943 46.2052 61.7944 46.8769 61.7944C47.3229 61.7944 47.7646 61.8826 48.1766 62.0539C48.5887 62.2252 48.9631 62.4763 49.2785 62.7928C49.5939 63.1094 49.8441 63.4851 50.0148 63.8987C50.1855 64.3123 50.2733 64.7555 50.2733 65.2032Z" fill="#E0EFFF"/>
<path d="M72.0272 65.2032C72.0272 65.8774 71.828 66.5364 71.4548 67.097C71.0816 67.6576 70.5512 68.0945 69.9305 68.3525C69.3099 68.6105 68.627 68.678 67.9682 68.5465C67.3093 68.4149 66.7042 68.0903 66.2292 67.6136C65.7542 67.1368 65.4307 66.5294 65.2996 65.8682C65.1686 65.2069 65.2358 64.5216 65.4929 63.8987C65.75 63.2758 66.1853 62.7435 66.7439 62.3689C67.3024 61.9943 67.9591 61.7944 68.6308 61.7944C69.5316 61.7944 70.3955 62.1536 71.0324 62.7928C71.6694 63.4321 72.0272 64.2991 72.0272 65.2032Z" fill="#E0EFFF"/>
<path d="M93.7664 65.2032C93.7664 65.8774 93.5672 66.5364 93.194 67.097C92.8208 67.6576 92.2904 68.0945 91.6698 68.3525C91.0491 68.6105 90.3663 68.678 89.7074 68.5465C89.0486 68.4149 88.4434 68.0903 87.9684 67.6136C87.4934 67.1368 87.17 66.5294 87.0389 65.8682C86.9079 65.2069 86.9751 64.5216 87.2322 63.8987C87.4892 63.2758 87.9245 62.7435 88.4831 62.3689C89.0416 61.9943 89.6983 61.7944 90.37 61.7944C91.2708 61.7944 92.1347 62.1536 92.7716 62.7928C93.4086 63.4321 93.7664 64.2991 93.7664 65.2032Z" fill="#E0EFFF"/>
<path d="M115.507 65.2032C115.507 65.8774 115.307 66.5364 114.934 67.097C114.561 67.6576 114.031 68.0945 113.41 68.3525C112.789 68.6105 112.107 68.678 111.448 68.5465C110.789 68.4149 110.184 68.0903 109.709 67.6136C109.234 67.1368 108.91 66.5294 108.779 65.8682C108.648 65.2069 108.715 64.5216 108.972 63.8987C109.229 63.2758 109.665 62.7435 110.223 62.3689C110.782 61.9943 111.439 61.7944 112.11 61.7944C113.011 61.7944 113.875 62.1536 114.512 62.7928C115.149 63.4321 115.507 64.2991 115.507 65.2032Z" fill="#E0EFFF"/>
<path d="M137.261 65.2032C137.261 65.8774 137.061 66.5364 136.688 67.097C136.315 67.6576 135.785 68.0945 135.164 68.3525C134.543 68.6105 133.86 68.678 133.202 68.5465C132.543 68.4149 131.938 68.0903 131.463 67.6136C130.988 67.1368 130.664 66.5294 130.533 65.8682C130.402 65.2069 130.469 64.5216 130.726 63.8987C130.983 63.2758 131.419 62.7435 131.977 62.3689C132.536 61.9943 133.192 61.7944 133.864 61.7944C134.765 61.7944 135.629 62.1536 136.266 62.7928C136.903 63.4321 137.261 64.2991 137.261 65.2032Z" fill="#E0EFFF"/>
<path d="M159 65.2032C159 65.8774 158.801 66.5364 158.427 67.097C158.054 67.6576 157.524 68.0945 156.903 68.3525C156.283 68.6105 155.6 68.678 154.941 68.5465C154.282 68.4149 153.677 68.0903 153.202 67.6136C152.727 67.1368 152.403 66.5294 152.272 65.8682C152.141 65.2069 152.208 64.5216 152.466 63.8987C152.723 63.2758 153.158 62.7435 153.716 62.3689C154.275 61.9943 154.932 61.7944 155.603 61.7944C156.504 61.7944 157.368 62.1536 158.005 62.7928C158.642 63.4321 159 64.2991 159 65.2032Z" fill="#E0EFFF"/>
<path d="M28.5331 44.61C28.5331 45.2842 28.3339 45.9432 27.9607 46.5038C27.5875 47.0643 27.0571 47.5012 26.4364 47.7592C25.8158 48.0172 25.1329 48.0848 24.4741 47.9532C23.8152 47.8217 23.21 47.497 22.735 47.0203C22.2601 46.5436 21.9365 45.9362 21.8055 45.275C21.6744 44.6137 21.7417 43.9284 21.9988 43.3055C22.2559 42.6826 22.6912 42.1502 23.2497 41.7757C23.8082 41.4011 24.4649 41.2012 25.1367 41.2012C26.0374 41.2012 26.9014 41.5603 27.5383 42.1996C28.1753 42.8388 28.5331 43.7059 28.5331 44.61Z" fill="#E0EFFF"/>
<path d="M50.2733 44.61C50.2733 45.2842 50.0741 45.9432 49.7009 46.5038C49.3277 47.0643 48.7973 47.5012 48.1766 47.7592C47.556 48.0172 46.8731 48.0848 46.2143 47.9532C45.5554 47.8217 44.9502 47.497 44.4753 47.0203C44.0003 46.5436 43.6768 45.9362 43.5457 45.275C43.4147 44.6137 43.4819 43.9284 43.739 43.3055C43.9961 42.6826 44.4314 42.1502 44.9899 41.7757C45.5485 41.4011 46.2052 41.2012 46.8769 41.2012C47.3229 41.2012 47.7646 41.2894 48.1766 41.4607C48.5887 41.632 48.9631 41.883 49.2785 42.1996C49.5939 42.5161 49.8441 42.8919 50.0148 43.3055C50.1855 43.7191 50.2733 44.1623 50.2733 44.61Z" fill="#E0EFFF"/>
<path d="M72.0272 44.61C72.0272 45.2842 71.828 45.9432 71.4548 46.5038C71.0816 47.0643 70.5512 47.5012 69.9305 47.7592C69.3099 48.0172 68.627 48.0848 67.9682 47.9532C67.3093 47.8217 66.7042 47.497 66.2292 47.0203C65.7542 46.5436 65.4307 45.9362 65.2996 45.275C65.1686 44.6137 65.2358 43.9284 65.4929 43.3055C65.75 42.6826 66.1853 42.1502 66.7439 41.7757C67.3024 41.4011 67.9591 41.2012 68.6308 41.2012C69.5305 41.2049 70.3922 41.5652 71.0283 42.2037C71.6645 42.8422 72.0235 43.707 72.0272 44.61Z" fill="#E0EFFF"/>
<path d="M93.7664 44.61C93.7664 45.2842 93.5672 45.9432 93.194 46.5038C92.8208 47.0643 92.2904 47.5012 91.6698 47.7592C91.0491 48.0172 90.3663 48.0848 89.7074 47.9532C89.0486 47.8217 88.4434 47.497 87.9684 47.0203C87.4934 46.5436 87.17 45.9362 87.0389 45.275C86.9079 44.6137 86.9751 43.9284 87.2322 43.3055C87.4892 42.6826 87.9245 42.1502 88.4831 41.7757C89.0416 41.4011 89.6983 41.2012 90.37 41.2012C91.2708 41.2012 92.1347 41.5603 92.7716 42.1996C93.4086 42.8388 93.7664 43.7059 93.7664 44.61Z" fill="#E0EFFF"/>
<path d="M115.507 44.61C115.507 45.2842 115.307 45.9432 114.934 46.5038C114.561 47.0643 114.031 47.5012 113.41 47.7592C112.789 48.0172 112.107 48.0848 111.448 47.9532C110.789 47.8217 110.184 47.497 109.709 47.0203C109.234 46.5436 108.91 45.9362 108.779 45.275C108.648 44.6137 108.715 43.9284 108.972 43.3055C109.229 42.6826 109.665 42.1502 110.223 41.7757C110.782 41.4011 111.439 41.2012 112.11 41.2012C113.011 41.2012 113.875 41.5603 114.512 42.1996C115.149 42.8388 115.507 43.7059 115.507 44.61Z" fill="#E0EFFF"/>
<path d="M137.261 44.61C137.261 45.2842 137.061 45.9432 136.688 46.5038C136.315 47.0643 135.785 47.5012 135.164 47.7592C134.543 48.0172 133.86 48.0848 133.202 47.9532C132.543 47.8217 131.938 47.497 131.463 47.0203C130.988 46.5436 130.664 45.9362 130.533 45.275C130.402 44.6137 130.469 43.9284 130.726 43.3055C130.983 42.6826 131.419 42.1502 131.977 41.7757C132.536 41.4011 133.192 41.2012 133.864 41.2012C134.764 41.2049 135.626 41.5652 136.262 42.2037C136.898 42.8422 137.257 43.707 137.261 44.61Z" fill="#E0EFFF"/>
<path d="M28.5331 24.0161C28.5303 24.6897 28.3287 25.3473 27.9539 25.9061C27.579 26.4648 27.0475 26.8995 26.4267 27.1553C25.8058 27.4112 25.1234 27.4767 24.4655 27.3436C23.8075 27.2104 23.2037 26.8847 22.7301 26.4074C22.2565 25.9301 21.9344 25.3227 21.8045 24.6618C21.6746 24.001 21.7426 23.3164 22.0001 22.6943C22.2576 22.0723 22.6929 21.5407 23.2512 21.1667C23.8094 20.7928 24.4655 20.5933 25.1366 20.5933C25.5838 20.5933 26.0266 20.6819 26.4396 20.8541C26.8526 21.0262 27.2277 21.2786 27.5432 21.5966C27.8588 21.9146 28.1087 22.2921 28.2786 22.7073C28.4484 23.1225 28.5349 23.5673 28.5331 24.0161Z" fill="#E0EFFF"/>
<path d="M50.2733 24.0161C50.2705 24.6897 50.0689 25.3473 49.6941 25.9061C49.3192 26.4648 48.7878 26.8995 48.1669 27.1553C47.5461 27.4112 46.8636 27.4767 46.2057 27.3436C45.5478 27.2104 44.9439 26.8847 44.4703 26.4074C43.9967 25.9301 43.6746 25.3227 43.5447 24.6618C43.4148 24.001 43.4829 23.3164 43.7403 22.6943C43.9978 22.0723 44.4331 21.5407 44.9914 21.1667C45.5496 20.7928 46.2057 20.5933 46.8769 20.5933C47.3241 20.5933 47.7669 20.6819 48.1799 20.8541C48.5929 21.0262 48.9679 21.2786 49.2834 21.5966C49.599 21.9146 49.8489 22.2921 50.0188 22.7073C50.1886 23.1225 50.2751 23.5673 50.2733 24.0161Z" fill="#E0EFFF"/>
<path d="M72.0272 24.0161C72.0244 24.6897 71.8228 25.3473 71.448 25.9061C71.0731 26.4648 70.5417 26.8995 69.9208 27.1553C69.3 27.4112 68.6175 27.4767 67.9596 27.3436C67.3017 27.2104 66.6978 26.8847 66.2242 26.4074C65.7506 25.9301 65.4285 25.3227 65.2986 24.6618C65.1687 24.001 65.2368 23.3164 65.4942 22.6943C65.7517 22.0723 66.187 21.5407 66.7453 21.1667C67.3035 20.7928 67.9596 20.5933 68.6308 20.5933C69.5328 20.597 70.3967 20.9592 71.0332 21.6007C71.6698 22.2422 72.0272 23.1107 72.0272 24.0161Z" fill="#E0EFFF"/>
<path d="M93.7664 24.0161C93.7636 24.6897 93.5621 25.3473 93.1873 25.9061C92.8124 26.4648 92.2809 26.8995 91.6601 27.1553C91.0392 27.4112 90.3568 27.4767 89.6989 27.3436C89.0409 27.2104 88.437 26.8847 87.9634 26.4074C87.4898 25.9301 87.1678 25.3227 87.0379 24.6618C86.908 24.001 86.976 23.3164 87.2335 22.6943C87.491 22.0723 87.9263 21.5407 88.4845 21.1667C89.0428 20.7928 89.6989 20.5933 90.37 20.5933C90.8172 20.5933 91.26 20.6819 91.673 20.8541C92.086 21.0262 92.461 21.2786 92.7766 21.5966C93.0922 21.9146 93.3421 22.2921 93.5119 22.7073C93.6818 23.1225 93.7683 23.5673 93.7664 24.0161Z" fill="#E0EFFF"/>
<path d="M115.507 24.0161C115.504 24.6897 115.302 25.3473 114.927 25.9061C114.553 26.4648 114.021 26.8995 113.4 27.1553C112.779 27.4112 112.097 27.4767 111.439 27.3436C110.781 27.2104 110.177 26.8847 109.704 26.4074C109.23 25.9301 108.908 25.3227 108.778 24.6618C108.648 24.001 108.716 23.3164 108.974 22.6943C109.231 22.0723 109.667 21.5407 110.225 21.1667C110.783 20.7928 111.439 20.5933 112.11 20.5933C112.557 20.5933 113 20.6819 113.413 20.8541C113.826 21.0262 114.201 21.2786 114.517 21.5966C114.832 21.9146 115.082 22.2921 115.252 22.7073C115.422 23.1225 115.508 23.5673 115.507 24.0161Z" fill="#E0EFFF"/>
<path d="M137.261 24.0161C137.258 24.6897 137.056 25.3473 136.681 25.9061C136.307 26.4648 135.775 26.8995 135.154 27.1553C134.533 27.4112 133.851 27.4767 133.193 27.3436C132.535 27.2104 131.931 26.8847 131.458 26.4074C130.984 25.9301 130.662 25.3227 130.532 24.6618C130.402 24.001 130.47 23.3164 130.728 22.6943C130.985 22.0723 131.42 21.5407 131.979 21.1667C132.537 20.7928 133.193 20.5933 133.864 20.5933C134.766 20.597 135.63 20.9592 136.267 21.6007C136.903 22.2422 137.261 23.1107 137.261 24.0161Z" fill="#E0EFFF"/>
<path d="M50.2733 3.40879C50.2733 4.08298 50.0741 4.74203 49.7009 5.3026C49.3277 5.86317 48.7973 6.30006 48.1766 6.55807C47.556 6.81607 46.8731 6.88359 46.2143 6.75206C45.5554 6.62054 44.9502 6.29585 44.4753 5.81913C44.0003 5.3424 43.6768 4.73503 43.5457 4.07379C43.4147 3.41255 43.4819 2.72719 43.739 2.10432C43.9961 1.48145 44.4314 0.949075 44.9899 0.574515C45.5485 0.199954 46.2052 0 46.8769 0C47.3229 0 47.7646 0.0882029 48.1766 0.25951C48.5887 0.430816 48.9631 0.681871 49.2785 0.998405C49.5939 1.31494 49.8441 1.69075 50.0148 2.10432C50.1855 2.51789 50.2733 2.96114 50.2733 3.40879Z" fill="#E0EFFF"/>
<path d="M72.0272 3.40879C72.0272 4.08298 71.828 4.74203 71.4548 5.3026C71.0816 5.86317 70.5512 6.30006 69.9305 6.55807C69.3099 6.81607 68.627 6.88359 67.9682 6.75206C67.3093 6.62054 66.7042 6.29585 66.2292 5.81913C65.7542 5.3424 65.4307 4.73503 65.2996 4.07379C65.1686 3.41255 65.2358 2.72719 65.4929 2.10432C65.75 1.48145 66.1853 0.949075 66.7439 0.574515C67.3024 0.199954 67.9591 0 68.6308 0C69.5316 0 70.3955 0.359137 71.0324 0.998405C71.6694 1.63767 72.0272 2.50473 72.0272 3.40879Z" fill="#E0EFFF"/>
<path d="M93.7664 3.40879C93.7664 4.08298 93.5672 4.74203 93.194 5.3026C92.8208 5.86317 92.2904 6.30006 91.6698 6.55807C91.0491 6.81607 90.3663 6.88359 89.7074 6.75206C89.0486 6.62054 88.4434 6.29585 87.9684 5.81913C87.4934 5.3424 87.17 4.73503 87.0389 4.07379C86.9079 3.41255 86.9751 2.72719 87.2322 2.10432C87.4892 1.48145 87.9245 0.949075 88.4831 0.574515C89.0416 0.199954 89.6983 0 90.37 0C91.2708 0 92.1347 0.359137 92.7716 0.998405C93.4086 1.63767 93.7664 2.50473 93.7664 3.40879Z" fill="#E0EFFF"/>
<path d="M115.507 3.40879C115.507 4.08298 115.307 4.74203 114.934 5.3026C114.561 5.86317 114.031 6.30006 113.41 6.55807C112.789 6.81607 112.107 6.88359 111.448 6.75206C110.789 6.62054 110.184 6.29585 109.709 5.81913C109.234 5.3424 108.91 4.73503 108.779 4.07379C108.648 3.41255 108.715 2.72719 108.972 2.10432C109.229 1.48145 109.665 0.949075 110.223 0.574515C110.782 0.199954 111.439 0 112.11 0C113.011 0 113.875 0.359137 114.512 0.998405C115.149 1.63767 115.507 2.50473 115.507 3.40879Z" fill="#E0EFFF"/>
</g>
<defs>
<clipPath id="clip0_199_539">
<rect width="159" height="151" fill="white"/>
</clipPath>
</defs>
</svg>
