<svg width="159" height="151" viewBox="0 0 159 151" fill="none" xmlns="http://www.w3.org/2000/svg">
<g clip-path="url(#clip0_199_423)">
<path d="M50.2723 147.591C50.2723 148.265 50.0731 148.924 49.6999 149.485C49.3267 150.046 48.7963 150.482 48.1757 150.74C47.555 150.998 46.8721 151.066 46.2133 150.934C45.5544 150.803 44.9493 150.478 44.4743 150.002C43.9993 149.525 43.6758 148.917 43.5448 148.256C43.4137 147.595 43.4809 146.91 43.738 146.287C43.9951 145.664 44.4304 145.131 44.989 144.757C45.5475 144.382 46.2042 144.182 46.8759 144.182C47.3219 144.182 47.7636 144.271 48.1757 144.442C48.5877 144.613 48.9621 144.864 49.2775 145.181C49.5929 145.497 49.8431 145.873 50.0138 146.287C50.1845 146.7 50.2723 147.143 50.2723 147.591Z" fill="#E0EFFF"/>
<path d="M72.0262 147.591C72.0262 148.265 71.827 148.924 71.4538 149.485C71.0806 150.046 70.5502 150.482 69.9296 150.74C69.309 150.998 68.626 151.066 67.9672 150.934C67.3084 150.803 66.7032 150.478 66.2282 150.002C65.7532 149.525 65.4297 148.917 65.2987 148.256C65.1676 147.595 65.2349 146.91 65.4919 146.287C65.749 145.664 66.1843 145.131 66.7429 144.757C67.3014 144.382 67.9581 144.182 68.6298 144.182C69.5306 144.182 70.3945 144.542 71.0314 145.181C71.6684 145.82 72.0262 146.687 72.0262 147.591Z" fill="#E0EFFF"/>
<path d="M93.7664 147.591C93.7664 148.265 93.5672 148.924 93.194 149.485C92.8208 150.046 92.2904 150.482 91.6698 150.74C91.0491 150.998 90.3663 151.066 89.7074 150.934C89.0486 150.803 88.4434 150.478 87.9684 150.002C87.4934 149.525 87.17 148.917 87.0389 148.256C86.9079 147.595 86.9751 146.91 87.2322 146.287C87.4892 145.664 87.9245 145.131 88.4831 144.757C89.0416 144.382 89.6983 144.182 90.37 144.182C91.2708 144.182 92.1347 144.542 92.7716 145.181C93.4086 145.82 93.7664 146.687 93.7664 147.591Z" fill="#E0EFFF"/>
<path d="M115.507 147.591C115.507 148.265 115.307 148.924 114.934 149.485C114.561 150.046 114.031 150.482 113.41 150.74C112.789 150.998 112.107 151.066 111.448 150.934C110.789 150.803 110.184 150.478 109.709 150.002C109.234 149.525 108.91 148.917 108.779 148.256C108.648 147.595 108.715 146.91 108.972 146.287C109.229 145.664 109.665 145.131 110.223 144.757C110.782 144.382 111.439 144.182 112.11 144.182C113.011 144.182 113.875 144.542 114.512 145.181C115.149 145.82 115.507 146.687 115.507 147.591Z" fill="#E0EFFF"/>
<path d="M28.5331 126.998C28.5331 127.672 28.3339 128.331 27.9607 128.892C27.5875 129.452 27.0571 129.889 26.4364 130.147C25.8158 130.405 25.1329 130.473 24.4741 130.341C23.8152 130.21 23.21 129.885 22.735 129.408C22.2601 128.932 21.9365 128.324 21.8055 127.663C21.6744 127.002 21.7417 126.316 21.9988 125.693C22.2559 125.071 22.6912 124.538 23.2497 124.164C23.8082 123.789 24.4649 123.589 25.1367 123.589C26.0374 123.589 26.9014 123.948 27.5383 124.588C28.1753 125.227 28.5331 126.094 28.5331 126.998Z" fill="#E0EFFF"/>
<path d="M50.2723 126.998C50.2695 127.671 50.0683 128.328 49.6941 128.886C49.3198 129.445 48.7892 129.879 48.1692 130.136C47.5491 130.392 46.8674 130.458 46.2098 130.326C45.5523 130.194 44.9484 129.87 44.4743 129.394C44.0001 128.918 43.677 128.312 43.5455 127.652C43.414 126.992 43.48 126.308 43.7353 125.686C43.9906 125.063 44.4238 124.531 44.9802 124.155C45.5366 123.78 46.1913 123.578 46.8618 123.575C47.3102 123.573 47.7545 123.66 48.1692 123.832C48.5838 124.003 48.9605 124.255 49.2775 124.573C49.5946 124.892 49.8457 125.27 50.0164 125.686C50.1872 126.102 50.2741 126.548 50.2723 126.998Z" fill="#E0EFFF"/>
<path d="M72.0262 126.998C72.0262 127.672 71.827 128.331 71.4538 128.892C71.0806 129.452 70.5502 129.889 69.9296 130.147C69.309 130.405 68.626 130.473 67.9672 130.341C67.3084 130.21 66.7032 129.885 66.2282 129.408C65.7532 128.932 65.4297 128.324 65.2987 127.663C65.1676 127.002 65.2349 126.316 65.4919 125.693C65.749 125.071 66.1843 124.538 66.7429 124.164C67.3014 123.789 67.9581 123.589 68.6298 123.589C69.5295 123.593 70.3912 123.953 71.0274 124.592C71.6635 125.23 72.0225 126.095 72.0262 126.998Z" fill="#E0EFFF"/>
<path d="M93.7664 126.998C93.7636 127.671 93.5621 128.329 93.1873 128.888C92.8124 129.446 92.2809 129.881 91.6601 130.137C91.0392 130.393 90.3568 130.458 89.6989 130.325C89.0409 130.192 88.437 129.866 87.9634 129.389C87.4898 128.912 87.1678 128.304 87.0379 127.644C86.908 126.983 86.976 126.298 87.2335 125.676C87.491 125.054 87.9263 124.522 88.4845 124.148C89.0428 123.775 89.6989 123.575 90.37 123.575C90.8172 123.575 91.26 123.664 91.673 123.836C92.086 124.008 92.461 124.26 92.7766 124.578C93.0922 124.896 93.3421 125.274 93.5119 125.689C93.6818 126.104 93.7683 126.549 93.7664 126.998Z" fill="#E0EFFF"/>
<path d="M115.507 126.998C115.507 127.672 115.307 128.331 114.934 128.892C114.561 129.452 114.031 129.889 113.41 130.147C112.789 130.405 112.107 130.473 111.448 130.341C110.789 130.21 110.184 129.885 109.709 129.408C109.234 128.932 108.91 128.324 108.779 127.663C108.648 127.002 108.715 126.316 108.972 125.693C109.229 125.071 109.665 124.538 110.223 124.164C110.782 123.789 111.439 123.589 112.11 123.589C113.011 123.589 113.875 123.948 114.512 124.588C115.149 125.227 115.507 126.094 115.507 126.998Z" fill="#E0EFFF"/>
<path d="M137.261 126.998C137.258 127.672 137.056 128.33 136.68 128.889C136.305 129.448 135.773 129.883 135.151 130.138C134.529 130.394 133.846 130.458 133.188 130.324C132.53 130.19 131.926 129.863 131.453 129.384C130.98 128.905 130.659 128.297 130.53 127.635C130.402 126.973 130.472 126.288 130.732 125.666C130.991 125.044 131.429 124.514 131.989 124.142C132.549 123.769 133.206 123.572 133.878 123.575C134.778 123.582 135.638 123.946 136.272 124.587C136.905 125.229 137.261 126.095 137.261 126.998Z" fill="#E0EFFF"/>
<path d="M28.5331 106.39C28.5331 107.064 28.3339 107.723 27.9607 108.284C27.5875 108.845 27.0571 109.282 26.4364 109.54C25.8158 109.798 25.1329 109.865 24.4741 109.733C23.8152 109.602 23.21 109.277 22.735 108.801C22.2601 108.324 21.9365 107.716 21.8055 107.055C21.6744 106.394 21.7417 105.709 21.9988 105.086C22.2559 104.463 22.6912 103.93 23.2497 103.556C23.8082 103.181 24.4649 102.981 25.1367 102.981C26.0374 102.981 26.9014 103.341 27.5383 103.98C28.1753 104.619 28.5331 105.486 28.5331 106.39Z" fill="#E0EFFF"/>
<path d="M50.2723 106.39C50.2723 107.064 50.0731 107.723 49.6999 108.284C49.3267 108.845 48.7963 109.282 48.1757 109.54C47.555 109.798 46.8721 109.865 46.2133 109.733C45.5544 109.602 44.9493 109.277 44.4743 108.801C43.9993 108.324 43.6758 107.716 43.5448 107.055C43.4137 106.394 43.4809 105.709 43.738 105.086C43.9951 104.463 44.4304 103.93 44.989 103.556C45.5475 103.181 46.2042 102.981 46.8759 102.981C47.3219 102.981 47.7636 103.07 48.1757 103.241C48.5877 103.412 48.9621 103.663 49.2775 103.98C49.5929 104.296 49.8431 104.672 50.0138 105.086C50.1845 105.499 50.2723 105.943 50.2723 106.39Z" fill="#E0EFFF"/>
<path d="M72.0262 106.39C72.0262 107.064 71.827 107.723 71.4538 108.284C71.0806 108.845 70.5502 109.282 69.9296 109.54C69.309 109.798 68.626 109.865 67.9672 109.733C67.3084 109.602 66.7032 109.277 66.2282 108.801C65.7532 108.324 65.4297 107.716 65.2987 107.055C65.1676 106.394 65.2349 105.709 65.4919 105.086C65.749 104.463 66.1843 103.93 66.7429 103.556C67.3014 103.181 67.9581 102.981 68.6298 102.981C69.5295 102.985 70.3912 103.345 71.0274 103.984C71.6635 104.622 72.0225 105.487 72.0262 106.39Z" fill="#E0EFFF"/>
<path d="M93.7664 106.39C93.7664 107.064 93.5672 107.723 93.194 108.284C92.8208 108.845 92.2904 109.282 91.6698 109.54C91.0491 109.798 90.3663 109.865 89.7074 109.733C89.0486 109.602 88.4434 109.277 87.9684 108.801C87.4934 108.324 87.17 107.716 87.0389 107.055C86.9079 106.394 86.9751 105.709 87.2322 105.086C87.4892 104.463 87.9245 103.93 88.4831 103.556C89.0416 103.181 89.6983 102.981 90.37 102.981C91.2708 102.981 92.1347 103.341 92.7716 103.98C93.4086 104.619 93.7664 105.486 93.7664 106.39Z" fill="#E0EFFF"/>
<path d="M115.507 106.39C115.507 107.064 115.307 107.723 114.934 108.284C114.561 108.845 114.031 109.282 113.41 109.54C112.789 109.798 112.107 109.865 111.448 109.733C110.789 109.602 110.184 109.277 109.709 108.801C109.234 108.324 108.91 107.716 108.779 107.055C108.648 106.394 108.715 105.709 108.972 105.086C109.229 104.463 109.665 103.93 110.223 103.556C110.782 103.181 111.439 102.981 112.11 102.981C113.011 102.981 113.875 103.341 114.512 103.98C115.149 104.619 115.507 105.486 115.507 106.39Z" fill="#E0EFFF"/>
<path d="M137.261 106.39C137.261 107.064 137.061 107.723 136.688 108.284C136.315 108.845 135.785 109.282 135.164 109.54C134.543 109.798 133.86 109.865 133.202 109.733C132.543 109.602 131.938 109.277 131.463 108.801C130.988 108.324 130.664 107.716 130.533 107.055C130.402 106.394 130.469 105.709 130.726 105.086C130.983 104.463 131.419 103.93 131.977 103.556C132.536 103.181 133.192 102.981 133.864 102.981C134.764 102.985 135.626 103.345 136.262 103.984C136.898 104.622 137.257 105.487 137.261 106.39Z" fill="#E0EFFF"/>
<path d="M6.79285 85.7967C6.79285 86.4709 6.59362 87.1299 6.22042 87.6905C5.84722 88.2511 5.31677 88.688 4.69616 88.946C4.07555 89.204 3.39267 89.2715 2.73383 89.14C2.07499 89.0084 1.46977 88.6838 0.99477 88.2071C0.519773 87.7303 0.196309 87.123 0.0652577 86.4617C-0.0657938 85.8005 0.00148609 85.1151 0.258553 84.4922C0.51562 83.8693 0.95093 83.337 1.50947 82.9624C2.06801 82.5879 2.72467 82.3879 3.39642 82.3879C4.2972 82.3879 5.16112 82.7471 5.79807 83.3863C6.43502 84.0256 6.79285 84.8926 6.79285 85.7967Z" fill="#E0EFFF"/>
<path d="M28.5331 85.7967C28.5331 86.4709 28.3339 87.1299 27.9607 87.6905C27.5875 88.2511 27.0571 88.688 26.4364 88.946C25.8158 89.204 25.1329 89.2715 24.4741 89.14C23.8152 89.0084 23.21 88.6838 22.735 88.2071C22.2601 87.7303 21.9365 87.123 21.8055 86.4617C21.6744 85.8005 21.7417 85.1151 21.9988 84.4922C22.2559 83.8693 22.6912 83.337 23.2497 82.9624C23.8082 82.5879 24.4649 82.3879 25.1367 82.3879C26.0374 82.3879 26.9014 82.7471 27.5383 83.3863C28.1753 84.0256 28.5331 84.8926 28.5331 85.7967Z" fill="#E0EFFF"/>
<path d="M50.2723 85.7967C50.2723 86.4709 50.0731 87.1299 49.6999 87.6905C49.3267 88.2511 48.7963 88.688 48.1757 88.946C47.555 89.204 46.8721 89.2715 46.2133 89.14C45.5544 89.0084 44.9493 88.6838 44.4743 88.2071C43.9993 87.7303 43.6758 87.123 43.5448 86.4617C43.4137 85.8005 43.4809 85.1151 43.738 84.4922C43.9951 83.8693 44.4304 83.337 44.989 82.9624C45.5475 82.5879 46.2042 82.3879 46.8759 82.3879C47.3219 82.3879 47.7636 82.4761 48.1757 82.6474C48.5877 82.8187 48.9621 83.0698 49.2775 83.3863C49.5929 83.7029 49.8431 84.0786 50.0138 84.4922C50.1845 84.9058 50.2723 85.349 50.2723 85.7967Z" fill="#E0EFFF"/>
<path d="M72.0262 85.7967C72.0262 86.4709 71.827 87.1299 71.4538 87.6905C71.0806 88.2511 70.5502 88.688 69.9296 88.946C69.309 89.204 68.626 89.2715 67.9672 89.14C67.3084 89.0084 66.7032 88.6838 66.2282 88.2071C65.7532 87.7303 65.4297 87.123 65.2987 86.4617C65.1676 85.8005 65.2349 85.1151 65.4919 84.4922C65.749 83.8693 66.1843 83.337 66.7429 82.9624C67.3014 82.5879 67.9581 82.3879 68.6298 82.3879C69.5306 82.3879 70.3945 82.7471 71.0314 83.3863C71.6684 84.0256 72.0262 84.8926 72.0262 85.7967Z" fill="#E0EFFF"/>
<path d="M93.7664 85.7967C93.7664 86.4709 93.5672 87.1299 93.194 87.6905C92.8208 88.2511 92.2904 88.688 91.6698 88.946C91.0491 89.204 90.3663 89.2715 89.7074 89.14C89.0486 89.0084 88.4434 88.6838 87.9684 88.2071C87.4934 87.7303 87.17 87.123 87.0389 86.4617C86.9079 85.8005 86.9751 85.1151 87.2322 84.4922C87.4892 83.8693 87.9245 83.337 88.4831 82.9624C89.0416 82.5879 89.6983 82.3879 90.37 82.3879C91.2708 82.3879 92.1347 82.7471 92.7716 83.3863C93.4086 84.0256 93.7664 84.8926 93.7664 85.7967Z" fill="#E0EFFF"/>
<path d="M115.507 85.7967C115.507 86.4709 115.307 87.1299 114.934 87.6905C114.561 88.2511 114.031 88.688 113.41 88.946C112.789 89.204 112.107 89.2715 111.448 89.14C110.789 89.0084 110.184 88.6838 109.709 88.2071C109.234 87.7303 108.91 87.123 108.779 86.4617C108.648 85.8005 108.715 85.1151 108.972 84.4922C109.229 83.8693 109.665 83.337 110.223 82.9624C110.782 82.5879 111.439 82.3879 112.11 82.3879C113.011 82.3879 113.875 82.7471 114.512 83.3863C115.149 84.0256 115.507 84.8926 115.507 85.7967Z" fill="#E0EFFF"/>
<path d="M137.261 85.7967C137.261 86.4709 137.061 87.1299 136.688 87.6905C136.315 88.2511 135.785 88.688 135.164 88.946C134.543 89.204 133.86 89.2715 133.202 89.14C132.543 89.0084 131.938 88.6838 131.463 88.2071C130.988 87.7303 130.664 87.123 130.533 86.4617C130.402 85.8005 130.469 85.1151 130.726 84.4922C130.983 83.8693 131.419 83.337 131.977 82.9624C132.536 82.5879 133.192 82.3879 133.864 82.3879C134.765 82.3879 135.629 82.7471 136.266 83.3863C136.903 84.0256 137.261 84.8926 137.261 85.7967Z" fill="#E0EFFF"/>
<path d="M155.603 89.2055C157.479 89.2055 159 87.6793 159 85.7967C159 83.9141 157.479 82.3879 155.603 82.3879C153.728 82.3879 152.207 83.9141 152.207 85.7967C152.207 87.6793 153.728 89.2055 155.603 89.2055Z" fill="#E0EFFF"/>
<path d="M6.79285 65.2032C6.79285 65.8774 6.59362 66.5364 6.22042 67.097C5.84722 67.6576 5.31677 68.0945 4.69616 68.3525C4.07555 68.6105 3.39267 68.678 2.73383 68.5465C2.07499 68.4149 1.46977 68.0903 0.99477 67.6136C0.519773 67.1368 0.196309 66.5294 0.0652577 65.8682C-0.0657938 65.2069 0.00148609 64.5216 0.258553 63.8987C0.51562 63.2758 0.95093 62.7435 1.50947 62.3689C2.06801 61.9943 2.72467 61.7944 3.39642 61.7944C4.2972 61.7944 5.16112 62.1536 5.79807 62.7928C6.43502 63.4321 6.79285 64.2991 6.79285 65.2032Z" fill="#E0EFFF"/>
<path d="M28.5331 65.2032C28.5331 65.8774 28.3339 66.5364 27.9607 67.097C27.5875 67.6576 27.0571 68.0945 26.4364 68.3525C25.8158 68.6105 25.1329 68.678 24.4741 68.5465C23.8152 68.4149 23.21 68.0903 22.735 67.6136C22.2601 67.1368 21.9365 66.5294 21.8055 65.8682C21.6744 65.2069 21.7417 64.5216 21.9988 63.8987C22.2559 63.2758 22.6912 62.7435 23.2497 62.3689C23.8082 61.9943 24.4649 61.7944 25.1367 61.7944C26.0374 61.7944 26.9014 62.1536 27.5383 62.7928C28.1753 63.4321 28.5331 64.2991 28.5331 65.2032Z" fill="#E0EFFF"/>
<path d="M50.2723 65.2032C50.2723 65.8774 50.0731 66.5364 49.6999 67.097C49.3267 67.6576 48.7963 68.0945 48.1757 68.3525C47.555 68.6105 46.8721 68.678 46.2133 68.5465C45.5544 68.4149 44.9493 68.0903 44.4743 67.6136C43.9993 67.1368 43.6758 66.5294 43.5448 65.8682C43.4137 65.2069 43.4809 64.5216 43.738 63.8987C43.9951 63.2758 44.4304 62.7435 44.989 62.3689C45.5475 61.9943 46.2042 61.7944 46.8759 61.7944C47.3219 61.7944 47.7636 61.8826 48.1757 62.0539C48.5877 62.2252 48.9621 62.4763 49.2775 62.7928C49.5929 63.1094 49.8431 63.4851 50.0138 63.8987C50.1845 64.3123 50.2723 64.7555 50.2723 65.2032Z" fill="#E0EFFF"/>
<path d="M72.0262 65.2032C72.0262 65.8774 71.827 66.5364 71.4538 67.097C71.0806 67.6576 70.5502 68.0945 69.9296 68.3525C69.309 68.6105 68.626 68.678 67.9672 68.5465C67.3084 68.4149 66.7032 68.0903 66.2282 67.6136C65.7532 67.1368 65.4297 66.5294 65.2987 65.8682C65.1676 65.2069 65.2349 64.5216 65.4919 63.8987C65.749 63.2758 66.1843 62.7435 66.7429 62.3689C67.3014 61.9943 67.9581 61.7944 68.6298 61.7944C69.5306 61.7944 70.3945 62.1536 71.0314 62.7928C71.6684 63.4321 72.0262 64.2991 72.0262 65.2032Z" fill="#E0EFFF"/>
<path d="M93.7664 65.2032C93.7664 65.8774 93.5672 66.5364 93.194 67.097C92.8208 67.6576 92.2904 68.0945 91.6698 68.3525C91.0491 68.6105 90.3663 68.678 89.7074 68.5465C89.0486 68.4149 88.4434 68.0903 87.9684 67.6136C87.4934 67.1368 87.17 66.5294 87.0389 65.8682C86.9079 65.2069 86.9751 64.5216 87.2322 63.8987C87.4892 63.2758 87.9245 62.7435 88.4831 62.3689C89.0416 61.9943 89.6983 61.7944 90.37 61.7944C91.2708 61.7944 92.1347 62.1536 92.7716 62.7928C93.4086 63.4321 93.7664 64.2991 93.7664 65.2032Z" fill="#E0EFFF"/>
<path d="M115.507 65.2032C115.507 65.8774 115.307 66.5364 114.934 67.097C114.561 67.6576 114.031 68.0945 113.41 68.3525C112.789 68.6105 112.107 68.678 111.448 68.5465C110.789 68.4149 110.184 68.0903 109.709 67.6136C109.234 67.1368 108.91 66.5294 108.779 65.8682C108.648 65.2069 108.715 64.5216 108.972 63.8987C109.229 63.2758 109.665 62.7435 110.223 62.3689C110.782 61.9943 111.439 61.7944 112.11 61.7944C113.011 61.7944 113.875 62.1536 114.512 62.7928C115.149 63.4321 115.507 64.2991 115.507 65.2032Z" fill="#E0EFFF"/>
<path d="M137.261 65.2032C137.261 65.8774 137.061 66.5364 136.688 67.097C136.315 67.6576 135.785 68.0945 135.164 68.3525C134.543 68.6105 133.86 68.678 133.202 68.5465C132.543 68.4149 131.938 68.0903 131.463 67.6136C130.988 67.1368 130.664 66.5294 130.533 65.8682C130.402 65.2069 130.469 64.5216 130.726 63.8987C130.983 63.2758 131.419 62.7435 131.977 62.3689C132.536 61.9943 133.192 61.7944 133.864 61.7944C134.765 61.7944 135.629 62.1536 136.266 62.7928C136.903 63.4321 137.261 64.2991 137.261 65.2032Z" fill="#E0EFFF"/>
<path d="M159 65.2032C159 65.8774 158.801 66.5364 158.427 67.097C158.054 67.6576 157.524 68.0945 156.903 68.3525C156.283 68.6105 155.6 68.678 154.941 68.5465C154.282 68.4149 153.677 68.0903 153.202 67.6136C152.727 67.1368 152.403 66.5294 152.272 65.8682C152.141 65.2069 152.208 64.5216 152.466 63.8987C152.723 63.2758 153.158 62.7435 153.716 62.3689C154.275 61.9943 154.932 61.7944 155.603 61.7944C156.504 61.7944 157.368 62.1536 158.005 62.7928C158.642 63.4321 159 64.2991 159 65.2032Z" fill="#E0EFFF"/>
<path d="M28.5331 44.6097C28.5331 45.2839 28.3339 45.943 27.9607 46.5035C27.5875 47.0641 27.0571 47.501 26.4364 47.759C25.8158 48.017 25.1329 48.0845 24.4741 47.953C23.8152 47.8215 23.21 47.4968 22.735 47.0201C22.2601 46.5433 21.9365 45.936 21.8055 45.2747C21.6744 44.6135 21.7417 43.9281 21.9988 43.3052C22.2559 42.6824 22.6912 42.15 23.2497 41.7754C23.8082 41.4009 24.4649 41.2009 25.1367 41.2009C26.0374 41.2009 26.9014 41.5601 27.5383 42.1993C28.1753 42.8386 28.5331 43.7057 28.5331 44.6097Z" fill="#E0EFFF"/>
<path d="M50.2723 44.6097C50.2723 45.2839 50.0731 45.943 49.6999 46.5035C49.3267 47.0641 48.7963 47.501 48.1757 47.759C47.555 48.017 46.8721 48.0845 46.2133 47.953C45.5544 47.8215 44.9493 47.4968 44.4743 47.0201C43.9993 46.5433 43.6758 45.936 43.5448 45.2747C43.4137 44.6135 43.4809 43.9281 43.738 43.3052C43.9951 42.6824 44.4304 42.15 44.989 41.7754C45.5475 41.4009 46.2042 41.2009 46.8759 41.2009C47.3219 41.2009 47.7636 41.2891 48.1757 41.4604C48.5877 41.6317 48.9621 41.8828 49.2775 42.1993C49.5929 42.5159 49.8431 42.8917 50.0138 43.3052C50.1845 43.7188 50.2723 44.1621 50.2723 44.6097Z" fill="#E0EFFF"/>
<path d="M72.0262 44.6097C72.0262 45.2839 71.827 45.943 71.4538 46.5035C71.0806 47.0641 70.5502 47.501 69.9296 47.759C69.309 48.017 68.626 48.0845 67.9672 47.953C67.3084 47.8215 66.7032 47.4968 66.2282 47.0201C65.7532 46.5433 65.4297 45.936 65.2987 45.2747C65.1676 44.6135 65.2349 43.9281 65.4919 43.3052C65.749 42.6824 66.1843 42.15 66.7429 41.7754C67.3014 41.4009 67.9581 41.2009 68.6298 41.2009C69.5295 41.2046 70.3912 41.565 71.0274 42.2035C71.6635 42.8419 72.0225 43.7068 72.0262 44.6097Z" fill="#E0EFFF"/>
<path d="M93.7664 44.6097C93.7664 45.2839 93.5672 45.943 93.194 46.5035C92.8208 47.0641 92.2904 47.501 91.6698 47.759C91.0491 48.017 90.3663 48.0845 89.7074 47.953C89.0486 47.8215 88.4434 47.4968 87.9684 47.0201C87.4934 46.5433 87.17 45.936 87.0389 45.2747C86.9079 44.6135 86.9751 43.9281 87.2322 43.3052C87.4892 42.6824 87.9245 42.15 88.4831 41.7754C89.0416 41.4009 89.6983 41.2009 90.37 41.2009C91.2708 41.2009 92.1347 41.5601 92.7716 42.1993C93.4086 42.8386 93.7664 43.7057 93.7664 44.6097Z" fill="#E0EFFF"/>
<path d="M115.507 44.6097C115.507 45.2839 115.307 45.943 114.934 46.5035C114.561 47.0641 114.031 47.501 113.41 47.759C112.789 48.017 112.107 48.0845 111.448 47.953C110.789 47.8215 110.184 47.4968 109.709 47.0201C109.234 46.5433 108.91 45.936 108.779 45.2747C108.648 44.6135 108.715 43.9281 108.972 43.3052C109.229 42.6824 109.665 42.15 110.223 41.7754C110.782 41.4009 111.439 41.2009 112.11 41.2009C113.011 41.2009 113.875 41.5601 114.512 42.1993C115.149 42.8386 115.507 43.7057 115.507 44.6097Z" fill="#E0EFFF"/>
<path d="M137.261 44.6097C137.261 45.2839 137.061 45.943 136.688 46.5035C136.315 47.0641 135.785 47.501 135.164 47.759C134.543 48.017 133.86 48.0845 133.202 47.953C132.543 47.8215 131.938 47.4968 131.463 47.0201C130.988 46.5433 130.664 45.936 130.533 45.2747C130.402 44.6135 130.469 43.9281 130.726 43.3052C130.983 42.6824 131.419 42.15 131.977 41.7754C132.536 41.4009 133.192 41.2009 133.864 41.2009C134.764 41.2046 135.626 41.565 136.262 42.2035C136.898 42.8419 137.257 43.7068 137.261 44.6097Z" fill="#E0EFFF"/>
<path d="M28.5331 24.0164C28.5303 24.6899 28.3287 25.3476 27.9539 25.9063C27.579 26.465 27.0475 26.8997 26.4267 27.1556C25.8058 27.4114 25.1234 27.4769 24.4655 27.3438C23.8075 27.2107 23.2037 26.8849 22.7301 26.4076C22.2565 25.9304 21.9344 25.3229 21.8045 24.6621C21.6746 24.0012 21.7426 23.3166 22.0001 22.6946C22.2576 22.0725 22.6929 21.5409 23.2512 21.167C23.8094 20.793 24.4655 20.5935 25.1366 20.5935C25.5838 20.5935 26.0266 20.6821 26.4396 20.8543C26.8526 21.0265 27.2277 21.2788 27.5432 21.5969C27.8588 21.9149 28.1087 22.2923 28.2786 22.7075C28.4484 23.1227 28.5349 23.5675 28.5331 24.0164Z" fill="#E0EFFF"/>
<path d="M50.2723 24.0164C50.2695 24.6899 50.068 25.3476 49.6931 25.9063C49.3182 26.465 48.7868 26.8997 48.1659 27.1556C47.5451 27.4114 46.8626 27.4769 46.2047 27.3438C45.5468 27.2107 44.9429 26.8849 44.4693 26.4076C43.9957 25.9304 43.6737 25.3229 43.5437 24.6621C43.4138 24.0012 43.4819 23.3166 43.7393 22.6946C43.9968 22.0725 44.4322 21.5409 44.9904 21.167C45.5486 20.793 46.2047 20.5935 46.8759 20.5935C47.3231 20.5935 47.7659 20.6821 48.1789 20.8543C48.5919 21.0265 48.9669 21.2788 49.2825 21.5969C49.598 21.9149 49.8479 22.2923 50.0178 22.7075C50.1876 23.1227 50.2741 23.5675 50.2723 24.0164Z" fill="#E0EFFF"/>
<path d="M72.0262 24.0164C72.0234 24.6899 71.8219 25.3476 71.447 25.9063C71.0721 26.465 70.5407 26.8997 69.9199 27.1556C69.299 27.4114 68.6165 27.4769 67.9586 27.3438C67.3007 27.2107 66.6968 26.8849 66.2232 26.4076C65.7496 25.9304 65.4276 25.3229 65.2976 24.6621C65.1677 24.0012 65.2358 23.3166 65.4933 22.6946C65.7507 22.0725 66.1861 21.5409 66.7443 21.167C67.3025 20.793 67.9586 20.5935 68.6298 20.5935C69.5319 20.5972 70.3957 20.9595 71.0323 21.601C71.6688 22.2425 72.0262 23.111 72.0262 24.0164Z" fill="#E0EFFF"/>
<path d="M93.7664 24.0164C93.7636 24.6899 93.5621 25.3476 93.1873 25.9063C92.8124 26.465 92.2809 26.8997 91.6601 27.1556C91.0392 27.4114 90.3568 27.4769 89.6989 27.3438C89.0409 27.2107 88.437 26.8849 87.9634 26.4076C87.4898 25.9304 87.1678 25.3229 87.0379 24.6621C86.908 24.0012 86.976 23.3166 87.2335 22.6946C87.491 22.0725 87.9263 21.5409 88.4845 21.167C89.0428 20.793 89.6989 20.5935 90.37 20.5935C90.8172 20.5935 91.26 20.6821 91.673 20.8543C92.086 21.0265 92.461 21.2788 92.7766 21.5969C93.0922 21.9149 93.3421 22.2923 93.5119 22.7075C93.6818 23.1227 93.7683 23.5675 93.7664 24.0164Z" fill="#E0EFFF"/>
<path d="M115.507 24.0164C115.504 24.6899 115.302 25.3476 114.927 25.9063C114.553 26.465 114.021 26.8997 113.4 27.1556C112.779 27.4114 112.097 27.4769 111.439 27.3438C110.781 27.2107 110.177 26.8849 109.704 26.4076C109.23 25.9304 108.908 25.3229 108.778 24.6621C108.648 24.0012 108.716 23.3166 108.974 22.6946C109.231 22.0725 109.667 21.5409 110.225 21.167C110.783 20.793 111.439 20.5935 112.11 20.5935C112.557 20.5935 113 20.6821 113.413 20.8543C113.826 21.0265 114.201 21.2788 114.517 21.5969C114.832 21.9149 115.082 22.2923 115.252 22.7075C115.422 23.1227 115.508 23.5675 115.507 24.0164Z" fill="#E0EFFF"/>
<path d="M137.261 24.0164C137.258 24.6899 137.056 25.3476 136.681 25.9063C136.307 26.465 135.775 26.8997 135.154 27.1556C134.533 27.4114 133.851 27.4769 133.193 27.3438C132.535 27.2107 131.931 26.8849 131.458 26.4076C130.984 25.9304 130.662 25.3229 130.532 24.6621C130.402 24.0012 130.47 23.3166 130.728 22.6946C130.985 22.0725 131.42 21.5409 131.979 21.167C132.537 20.793 133.193 20.5935 133.864 20.5935C134.766 20.5972 135.63 20.9595 136.267 21.601C136.903 22.2425 137.261 23.111 137.261 24.0164Z" fill="#E0EFFF"/>
<path d="M50.2723 3.40879C50.2723 4.08298 50.0731 4.74203 49.6999 5.3026C49.3267 5.86317 48.7963 6.30006 48.1757 6.55807C47.555 6.81607 46.8721 6.88359 46.2133 6.75206C45.5544 6.62054 44.9493 6.29585 44.4743 5.81913C43.9993 5.3424 43.6758 4.73503 43.5448 4.07379C43.4137 3.41255 43.4809 2.72719 43.738 2.10432C43.9951 1.48145 44.4304 0.949075 44.989 0.574515C45.5475 0.199954 46.2042 0 46.8759 0C47.3219 0 47.7636 0.0882029 48.1757 0.25951C48.5877 0.430816 48.9621 0.681871 49.2775 0.998405C49.5929 1.31494 49.8431 1.69075 50.0138 2.10432C50.1845 2.51789 50.2723 2.96114 50.2723 3.40879Z" fill="#E0EFFF"/>
<path d="M72.0262 3.40879C72.0262 4.08298 71.827 4.74203 71.4538 5.3026C71.0806 5.86317 70.5502 6.30006 69.9296 6.55807C69.309 6.81607 68.626 6.88359 67.9672 6.75206C67.3084 6.62054 66.7032 6.29585 66.2282 5.81913C65.7532 5.3424 65.4297 4.73503 65.2987 4.07379C65.1676 3.41255 65.2349 2.72719 65.4919 2.10432C65.749 1.48145 66.1843 0.949075 66.7429 0.574515C67.3014 0.199954 67.9581 0 68.6298 0C69.5306 0 70.3945 0.359137 71.0314 0.998405C71.6684 1.63767 72.0262 2.50473 72.0262 3.40879Z" fill="#E0EFFF"/>
<path d="M93.7664 3.40879C93.7664 4.08298 93.5672 4.74203 93.194 5.3026C92.8208 5.86317 92.2904 6.30006 91.6698 6.55807C91.0491 6.81607 90.3663 6.88359 89.7074 6.75206C89.0486 6.62054 88.4434 6.29585 87.9684 5.81913C87.4934 5.3424 87.17 4.73503 87.0389 4.07379C86.9079 3.41255 86.9751 2.72719 87.2322 2.10432C87.4892 1.48145 87.9245 0.949075 88.4831 0.574515C89.0416 0.199954 89.6983 0 90.37 0C91.2708 0 92.1347 0.359137 92.7716 0.998405C93.4086 1.63767 93.7664 2.50473 93.7664 3.40879Z" fill="#E0EFFF"/>
<path d="M115.507 3.40879C115.507 4.08298 115.307 4.74203 114.934 5.3026C114.561 5.86317 114.031 6.30006 113.41 6.55807C112.789 6.81607 112.107 6.88359 111.448 6.75206C110.789 6.62054 110.184 6.29585 109.709 5.81913C109.234 5.3424 108.91 4.73503 108.779 4.07379C108.648 3.41255 108.715 2.72719 108.972 2.10432C109.229 1.48145 109.665 0.949075 110.223 0.574515C110.782 0.199954 111.439 0 112.11 0C113.011 0 113.875 0.359137 114.512 0.998405C115.149 1.63767 115.507 2.50473 115.507 3.40879Z" fill="#E0EFFF"/>
</g>
<defs>
<clipPath id="clip0_199_423">
<rect width="159" height="151" fill="white"/>
</clipPath>
</defs>
</svg>
