<svg width="100" height="100" viewBox="0 0 100 100" fill="none" xmlns="http://www.w3.org/2000/svg">
<path fill-rule="evenodd" clip-rule="evenodd" d="M41.3984 20.4371L50.6161 17.3301C46.9912 17.5372 43.8841 18.6765 41.3984 20.4371Z" fill="#D9EBFF"/>
<path fill-rule="evenodd" clip-rule="evenodd" d="M33.1134 68.0788L32.8027 65.386C31.8705 62.7968 29.7992 60.829 27.2099 60.104L26.6921 59.8969C25.9671 59.6897 25.5528 58.8612 25.8635 58.1362C26.8992 55.547 28.9706 49.54 29.3849 44.3615C29.7992 39.0795 32.5955 26.237 41.3989 20.23L34.874 22.4049L27.2099 31.3119L25.2421 39.4938L23.2743 50.99L18.7173 60.4147L19.3387 62.6932L25.76 64.3504L27.5206 76.8822L29.7992 80.4035L34.874 81.1285L44.9202 79.8857C41.0882 80.0928 38.3954 78.2286 36.6347 76.0536C34.6669 73.7751 33.5276 70.9788 33.1134 68.0788Z" fill="#D9EBFF"/>
<path fill-rule="evenodd" clip-rule="evenodd" d="M28.4529 33.2799C31.56 26.9622 37.2563 21.7838 43.8847 19.6088C47.0953 18.5731 48.5453 18.366 52.4809 18.366C55.588 18.366 56.313 18.4696 57.7629 18.7803C73.1947 22.0945 82.4123 37.3191 78.0624 52.1295C77.2339 54.9258 76.4053 56.5829 74.0232 60.5186C73.1947 61.8649 72.4697 63.8328 72.0554 65.5934C71.8483 67.0434 71.7447 83.718 72.0554 84.2358C72.159 84.443 72.4697 84.6501 72.7804 84.8573C73.4018 85.168 74.334 84.9608 74.6447 84.3394C74.7482 84.0287 74.8518 81.7502 74.9554 75.0182C75.0589 67.3541 75.0589 65.9041 75.3696 65.1792C75.7839 63.7292 76.3018 62.7971 77.3375 61.0364C78.5803 59.1722 79.9267 56.4794 80.5481 54.7187C82.1016 50.4724 82.6195 45.7082 82.1016 41.3583C81.2731 34.212 77.7517 27.4801 72.4697 22.7159C67.4984 18.366 61.4914 15.7768 54.863 15.1554C52.6881 14.9482 52.4809 14.9482 50.0988 15.1554C47.8203 15.3625 45.7489 15.7768 43.3668 16.5018C34.2528 19.5053 27.2101 26.5479 24.3102 35.662C23.4816 38.2512 23.0673 40.5297 22.9638 44.3618C22.7566 49.2295 22.6531 49.4367 19.8567 56.0651C17.9925 60.5186 17.7853 61.3471 18.096 62.4864C18.3032 63.2113 19.1317 64.1435 19.7531 64.4542C19.9603 64.5577 21.2031 64.972 22.3424 65.2827C23.4816 65.5934 24.5173 65.9041 24.6209 66.0077C24.7244 66.1113 25.1387 68.5969 25.553 71.704C26.0708 74.8111 26.4851 77.6074 26.6922 78.1253C27.1065 79.8859 28.5565 81.3359 30.3172 81.9573C31.0421 82.268 31.8707 82.268 37.3598 82.268H43.574L44.9204 81.8538C48.856 80.5074 51.6524 76.8824 51.6524 72.9468C51.6524 72.0147 51.5488 71.8076 51.2381 71.4969C50.306 70.5647 48.6489 71.2897 48.6489 72.7397C48.6489 75.1218 46.9918 77.6074 44.7132 78.6431L43.7811 79.0574H37.4634H31.1457L30.5243 78.6431C30.11 78.3324 29.7993 77.9181 29.6957 77.5039C29.5922 77.0896 29.0743 74.2932 28.5565 71.1862C27.4172 63.5221 27.4172 63.6256 23.4816 62.5899C22.2388 62.2792 21.2031 61.865 21.0995 61.7614C20.8924 61.5542 21.0995 60.9328 22.6531 57.3079C25.4494 50.8866 25.8637 49.0224 25.8637 45.7082M48.6489 23.9587C45.5418 24.7873 42.7454 27.2729 41.5026 30.1729L41.0883 31.105L39.7419 31.3121C37.6706 31.6228 36.117 32.4514 34.5635 34.0049C33.1135 35.4549 32.3885 36.8013 31.9743 38.6655C30.9386 43.6368 34.5635 48.8153 39.6384 49.6438C40.4669 49.7474 40.8812 49.9545 40.8812 50.0581C40.8812 50.5759 41.9169 52.233 42.6419 52.958C44.1954 54.408 45.6454 54.9258 49.0631 54.9258C51.3417 54.9258 51.9631 55.0294 52.8952 55.7544C54.0344 56.5829 54.138 57.2043 54.2416 60.6221L54.3452 63.6256L54.863 64.0399C55.4844 64.5577 56.313 64.5577 56.9344 64.0399L57.3487 63.6256V60.3114V56.9972L56.8308 55.9615C56.2094 54.5116 55.0701 53.3723 53.7237 52.7509C52.3773 52.1295 51.1345 51.9223 48.5453 51.9223C46.7846 51.9223 46.4739 51.9223 45.7489 51.5081C43.6776 50.3688 43.2633 47.3653 45.1275 45.9153C45.8525 45.2939 46.7846 44.9832 47.5096 44.9832C47.8203 44.9832 48.131 44.7761 48.4417 44.4654C49.0631 43.844 49.0631 43.119 48.4417 42.4976C47.8203 41.8761 46.8882 41.8761 45.3347 42.394C43.4704 43.0154 41.9169 44.4654 41.1919 46.226L40.8812 47.0546L40.2598 46.951C39.2241 46.7439 37.567 45.9153 36.7384 45.1903C36.3242 44.7761 35.8063 44.0511 35.4956 43.4297C35.0813 42.4976 34.9778 42.2904 34.9778 40.7369C34.9778 39.1833 34.9778 38.8726 35.4956 38.0441C36.0135 37.0084 37.2563 35.7656 38.1884 35.2477C38.9134 34.8335 40.5705 34.4192 40.6741 34.6263C40.6741 34.6263 40.7776 35.0406 40.7776 35.4549C40.7776 36.387 41.2955 37.0084 42.124 37.112C42.6419 37.2155 42.849 37.112 43.2633 36.6977C43.7811 35.8691 43.7811 35.7656 43.7811 34.5227C43.7811 32.1407 44.5061 30.2764 46.0596 28.8265C47.8203 27.1694 49.581 26.5479 51.8595 26.6515C54.2416 26.8586 56.6237 28.3086 57.7629 30.4836C58.5915 31.9335 58.6951 31.9335 60.5593 32.0371C62.0093 32.0371 62.32 32.1407 63.3557 32.5549C64.7021 33.1763 65.7377 34.212 66.4627 35.5584C66.877 36.4906 66.9806 36.6977 66.9806 38.2512C66.9806 39.9083 66.9806 40.1155 66.4627 41.1512C65.9449 42.1869 65.9449 42.394 66.152 42.8083C66.3592 43.3261 66.9806 43.844 67.602 43.844C68.0163 43.844 68.6377 43.4297 68.9484 42.9118L69.2591 42.4976L69.6734 43.119C70.3983 44.1547 70.6055 44.8796 70.5019 46.0189C70.5019 47.9867 69.4662 49.5402 67.602 50.3688C65.2199 51.5081 62.2164 50.3688 61.0771 47.9867C60.4557 46.7439 60.5593 46.5367 61.595 45.6046C62.9414 44.2582 63.3557 43.4297 63.3557 41.4619C63.4592 39.9083 63.4592 39.9083 62.9414 39.3905C62.32 38.7691 61.595 38.7691 60.9736 39.2869C60.5593 39.5976 60.4557 39.8048 60.4557 41.0476C60.3522 42.1868 60.2486 42.4976 59.9379 43.0154C58.7986 44.5689 56.9344 44.5689 55.2773 43.2225C54.2416 42.2904 53.6202 42.2904 52.8952 43.0154C52.2738 43.6368 52.2738 44.1547 52.7916 44.9832C53.5166 46.1225 55.1737 47.1582 56.8308 47.2617C57.7629 47.3653 57.7629 47.3653 57.8665 47.8831C58.0736 48.9188 59.1093 50.6795 60.145 51.6116C63.4592 54.7187 68.327 54.6151 71.434 51.4045C74.5411 48.1938 74.4375 43.3261 71.2269 40.219L70.2948 39.2869V37.837C70.1912 35.2477 69.2591 33.1764 67.3948 31.3121C65.9449 29.8621 63.3557 28.8265 61.4914 28.8265C60.87 28.8265 60.7664 28.7229 59.9379 27.6872C59.5236 27.0658 58.6951 26.2372 58.1772 25.823C57.1415 24.9944 54.9666 23.9587 53.7237 23.648C52.2738 23.648 49.7881 23.648 48.6489 23.9587ZM50.5131 32.4514C48.4417 32.8656 46.2668 34.8335 46.4739 36.0763C46.6811 36.8013 47.3025 37.3191 48.0274 37.3191C48.5453 37.3191 48.7524 37.2155 49.2703 36.6977C50.2024 35.7656 50.8238 35.4549 51.9631 35.5584C53.6202 35.662 54.6559 36.8013 54.6559 38.5619C54.6559 39.9083 55.1737 40.5297 56.2094 40.5297C57.1415 40.5297 57.5558 40.1155 57.6594 39.0798C57.8665 37.3191 57.2451 35.4549 56.0023 34.212C54.6559 32.8656 52.2738 32.1407 50.5131 32.4514Z" fill="#61A1F4"/>
</svg>
