<svg width="100" height="100" viewBox="0 0 100 100" fill="none" xmlns="http://www.w3.org/2000/svg">
<path fill-rule="evenodd" clip-rule="evenodd" d="M49.6423 34.1382C49.6423 34.1382 59.4356 36.3496 59.3303 49.9337C59.225 63.5179 53.1174 68.046 53.1174 68.046L52.6961 75.9437C52.6961 75.9437 63.4371 77.7339 64.7008 83.315H73.2303L71.4402 79.1028L64.2795 74.6801L57.856 73.3111L55.2234 68.2566L59.9621 64.3603L61.9629 59.0951L62.5947 53.4087L64.7008 48.7754L62.3841 39.8246L57.6454 35.0859L54.2757 34.1382H49.6423Z" fill="#D9EBFF"/>
<path fill-rule="evenodd" clip-rule="evenodd" d="M26.897 15.3943C26.4758 15.8155 26.2652 16.342 26.4758 16.8685C26.5811 17.0792 27.1076 17.8163 27.7394 18.4481L28.8978 19.7117L28.1607 19.817C26.897 20.0277 26.3705 20.7648 26.6864 21.6072C26.897 22.0284 30.6879 26.8724 31.1092 27.1883C31.9516 27.8201 33.2152 27.1883 33.2152 26.1353C33.2152 25.714 33.1099 25.3981 31.8463 23.9239L30.4773 22.239L31.2145 22.1337C32.6887 21.9231 33.3205 21.2913 33.1099 20.3436C33.0046 19.9223 29.1084 15.6049 28.4766 15.1837C27.95 14.8678 27.4235 14.9731 26.897 15.3943ZM51.0115 15.289C50.8009 15.3943 49.7479 16.8685 48.6949 18.3428C47.01 20.7648 46.7994 21.186 46.7994 21.6072C46.7994 22.0284 46.9047 22.239 47.2206 22.5549C47.5365 22.8709 47.7471 22.9762 48.6949 22.9762C49.3267 22.9762 49.7479 23.0815 49.7479 23.0815C49.7479 23.0815 49.3267 23.8186 48.9055 24.5557C48.2737 25.6087 47.9577 26.03 47.7471 26.03C47.5365 26.03 46.5888 26.2406 45.6411 26.2406C40.4812 26.6618 34.2683 28.5572 29.6349 30.9792L28.3713 31.6111L27.8447 30.9792C27.1076 29.8209 26.1599 29.0838 24.8962 28.7679C20.4735 27.3989 16.472 32.0323 18.578 36.1391C19.1045 37.1921 19.8417 37.9293 21.2106 38.7717C22.053 39.2982 22.1583 39.4035 22.1583 39.6141C22.1583 39.7194 21.9477 40.5619 21.7371 41.4043C20.3682 47.0907 20.3682 53.4089 21.7371 59.3059C21.9477 60.1483 22.1583 60.8855 22.1583 61.0961C22.2637 61.3067 22.053 61.5173 21 62.1491C19.2098 63.3075 18.4727 64.3605 18.1568 66.0453C17.7356 68.362 18.9992 70.6787 21.2106 71.7317C22.2637 72.2583 24.0538 72.2583 25.2122 71.9424C26.4758 71.4158 27.1076 70.8893 28.3713 69.2045L28.5819 68.8885L30.372 69.731C32.3728 70.784 34.4789 71.6264 36.4796 72.2583L37.8486 72.6795L36.3743 73.1007C32.4781 73.9431 29.5296 75.9439 27.6341 79.2083C26.5811 80.8932 25.844 83.2098 26.0546 84.0523C26.1599 84.2629 26.3705 84.5788 26.5811 84.6841C27.0023 85 27.4235 85 50.2744 85C75.3367 85 74.073 85 74.4943 84.3682C74.8102 83.7364 74.4943 82.2621 73.5465 80.3666C72.2829 77.8394 70.2821 75.8386 67.8601 74.4696C66.4912 73.7325 65.6488 73.5219 64.0692 73.206L62.9109 72.9954L64.2798 72.5742C66.2806 71.9424 68.3866 70.9946 70.3874 70.0469L72.1776 69.0991L72.3882 69.4151C73.5465 71.0999 74.2837 71.7317 75.5473 72.153C76.6003 72.5742 78.4958 72.4689 79.5488 71.9424C81.7602 70.8893 83.0239 68.4673 82.6026 66.256C82.2867 64.5711 81.5496 63.5181 79.7594 62.3597C78.6011 61.6226 78.4958 61.5173 78.6011 61.2014C79.0223 59.7271 79.3382 57.8317 79.4435 57.0945C79.5488 56.2521 79.5488 56.1468 79.2329 55.8309C78.7064 55.3044 78.3905 55.1991 78.0746 55.1991C77.2322 55.0938 76.7056 55.6203 76.495 56.6733C76.3897 57.0945 76.0738 58.5688 75.7579 59.8324C75.2314 62.0438 75.2314 62.2544 75.3367 62.5703C75.442 62.7809 76.2844 63.4128 77.2322 64.0446C78.7064 64.9923 79.0223 65.2029 79.3382 65.8347C79.7594 66.6772 79.7594 67.2037 79.3382 68.1514C78.917 69.0992 78.1799 69.5204 77.1268 69.5204C75.9685 69.5204 75.442 69.2045 74.389 67.5196C73.4412 66.0453 73.1253 65.7294 72.4935 65.7294C72.3882 65.7294 71.3351 66.1507 70.3874 66.7825C67.0177 68.5726 63.1215 70.1522 59.6464 70.8893C57.751 71.3105 57.8563 71.3105 57.5404 70.3628C57.3298 69.5204 57.3298 69.3098 58.3828 68.5726C61.8578 65.94 63.648 62.1491 63.648 57.6211C63.648 56.2521 63.648 56.1468 64.0692 55.3044C64.701 54.146 65.4381 51.8294 65.6488 50.4604C65.8594 48.6702 65.7541 45.9323 65.3328 44.2475C64.8063 42.352 63.648 39.93 62.4896 38.4558C55.2237 29.505 41.2183 30.9792 36.269 41.4043C35.216 43.5104 34.9001 45.0899 34.7948 47.5119C34.7948 48.6702 34.7948 49.8286 34.9001 50.4604C35.1107 51.8294 35.8478 54.146 36.4796 55.3044C36.9009 56.1468 36.9009 56.2521 36.9009 57.6211C36.9009 62.1491 38.691 65.94 42.166 68.5726C43.3244 69.4151 43.3244 69.5204 43.0085 70.5734L42.7979 71.2052L42.166 70.9946C41.113 70.784 38.0592 70.0469 36.6903 69.5204C34.4789 68.7832 32.2675 67.7302 30.2667 66.6772C29.2137 66.1507 28.266 65.6241 28.0554 65.6241C27.5288 65.6241 27.1076 66.0453 26.1599 67.5196C25.1069 69.0991 24.6856 69.4151 23.422 69.4151C22.2637 69.4151 21.4212 68.7832 21 67.6249C20.7894 66.8878 20.7894 66.4666 21.2106 65.7294C21.5265 65.0976 21.8424 64.887 23.3167 63.9393C24.2644 63.3075 25.1069 62.6756 25.2122 62.465C25.4228 62.1491 25.3175 61.9385 24.7909 59.8324C24.0538 57.0945 23.8432 55.515 23.6326 52.5665C23.422 48.8809 23.8432 44.5634 24.7909 40.6672C25.1068 39.5088 25.2122 38.6664 25.2122 38.4558C25.1069 37.9293 24.7909 37.7187 23.1061 36.6656C21.5265 35.7179 21.1053 35.1914 20.8947 34.2436C20.6841 33.1906 21.4212 31.8217 22.4743 31.4004C23.1061 31.0845 23.9485 31.1898 24.6856 31.5057C25.2122 31.7164 25.4228 32.0323 26.2652 33.2959C26.7917 34.1383 27.3182 34.8755 27.5288 34.8755C28.0554 35.0861 28.5819 34.9808 29.5296 34.4543C42.2713 27.083 58.4881 26.9777 71.2298 34.3489C72.2829 34.9808 72.8094 35.0861 73.3359 34.8755C73.4412 34.8755 73.9677 34.1383 74.5996 33.2959C75.442 32.0323 75.6526 31.7164 76.1791 31.5057C76.9162 31.1898 77.7587 31.0845 78.3905 31.4004C79.3382 31.8217 80.0753 33.1906 79.97 34.2436C79.7594 35.0861 79.3382 35.6126 77.7587 36.6656C75.3367 38.2452 75.3367 38.1399 75.9685 40.4566C76.1791 41.299 76.495 42.6679 76.7056 43.4051C76.9162 44.6687 77.0215 44.8793 77.3375 45.1952C77.9693 45.7217 78.6011 45.7217 79.1276 45.1952C79.5488 44.774 79.5488 44.774 79.4435 43.9316C79.4435 43.5104 79.2329 42.352 79.0223 41.5096C78.8117 40.6672 78.6011 39.8247 78.6011 39.7194C78.6011 39.5088 78.8117 39.2982 79.6541 38.7717C80.9178 38.0346 81.6549 37.2974 82.1814 36.2444C84.2875 32.1376 80.3913 27.5042 75.8632 28.8732C74.7049 29.1891 73.7571 29.9262 72.9147 31.0845L72.2829 32.0323L71.2298 31.4004C67.9654 29.6103 63.0162 27.9254 59.0146 27.083C57.4351 26.7671 54.9078 26.4512 52.907 26.3459C52.1699 26.3459 51.5381 26.2406 51.5381 26.2406C51.5381 26.2406 52.0646 25.2928 52.6964 24.2398C54.0654 22.0284 54.1707 21.5019 53.5388 20.8701C53.2229 20.5542 53.1176 20.4489 52.0646 20.4489C51.4328 20.4489 51.0115 20.4489 51.0115 20.3436C51.0115 20.3436 51.5381 19.5011 52.1699 18.5534C52.907 17.5004 53.3282 16.6579 53.3282 16.4473C53.1176 15.289 51.854 14.6572 51.0115 15.289ZM72.0723 15.289C71.4404 15.7102 67.5442 20.0277 67.4389 20.4489C67.2283 21.3966 67.8601 22.0284 69.3344 22.239L70.0715 22.3443L68.7026 24.0292C67.5442 25.5034 67.3336 25.8194 67.3336 26.2406C67.3336 27.2936 68.5973 27.9254 69.4397 27.2936C69.8609 26.9777 73.7571 22.1337 73.8624 21.7125C74.1783 20.8701 73.6518 20.133 72.3882 19.9223L71.5458 19.817L72.7041 18.5534C73.3359 17.8163 73.9677 17.0792 73.9677 16.9738C74.1783 16.4473 73.9677 15.9208 73.5465 15.4996C73.1253 14.9731 72.5988 14.8678 72.0723 15.289ZM53.5388 35.5073C57.3298 36.5603 60.173 38.9823 61.8578 42.2467C62.8056 44.1422 63.0162 45.1952 63.1215 47.5119C63.2268 49.4074 63.2268 49.5127 62.9109 49.4074C62.8056 49.3021 61.8578 49.1968 60.9101 49.1968C56.2767 48.8809 52.0646 47.196 48.4843 44.3528C47.9577 43.9316 47.2206 43.5104 47.01 43.4051C46.4835 43.2998 44.4827 44.0369 43.0085 44.774C41.113 45.7217 39.0069 47.5119 37.7433 49.1968L37.4274 49.618L37.5327 47.6172C37.638 45.5111 37.8486 44.4581 38.5857 42.7732C40.2706 38.9823 43.9562 36.1391 48.2737 35.2967C49.3267 34.9808 52.3805 35.0861 53.5388 35.5073ZM47.3259 46.7748C50.8009 49.5127 55.4343 51.3028 59.9624 51.8294L61.0154 51.9347L60.9101 55.8309C60.8048 60.1483 60.8048 60.4643 59.7517 62.5703C58.3828 65.3082 56.0661 67.309 53.0123 68.1514C51.4328 68.5726 49.0108 68.5726 47.4312 68.1514C44.4827 67.309 42.0607 65.3082 40.6918 62.5703C39.6388 60.4643 39.6388 60.2536 39.5334 55.4097V51.0922L40.2706 50.1445C41.2183 48.9862 42.7979 47.7225 44.2721 46.9854C45.1145 46.5642 46.0623 46.143 46.3782 46.0377C46.4835 46.143 46.7994 46.4589 47.3259 46.7748ZM77.6534 49.1968C76.495 49.8286 76.9162 51.7241 78.2852 51.7241C79.0223 51.7241 79.6541 51.0922 79.6541 50.3551C79.6541 49.3021 78.6011 48.6702 77.6534 49.1968ZM47.1153 70.784C48.6949 71.2052 51.854 71.2052 53.5388 70.784C54.1707 70.5734 54.8025 70.4681 54.8025 70.4681C54.8025 70.4681 54.9078 70.784 55.1184 71.2052C55.2237 71.6264 55.5396 72.153 55.7502 72.4689L56.1714 72.9954L55.8555 73.206C55.329 73.7325 53.3282 74.5749 52.3805 74.7855C50.3797 75.2068 48.2737 74.9962 46.3782 74.0484C45.7464 73.7325 45.1145 73.4166 45.0092 73.206L44.588 73.1007L45.0092 72.3636C45.2198 71.9424 45.5358 71.4158 45.6411 71.0999C45.7464 70.784 45.8517 70.4681 45.957 70.4681C45.957 70.5734 46.4835 70.6787 47.1153 70.784ZM43.0085 75.4174C44.0615 76.2598 45.7464 77.1022 47.1153 77.5234C48.6949 77.9447 51.6434 77.9447 53.2229 77.5234C54.6972 77.1022 56.382 76.2598 57.4351 75.4174C58.1722 74.7855 58.2775 74.7855 58.804 74.8908C59.1199 74.9962 60.4889 75.2068 61.8578 75.4174C63.3321 75.628 64.8063 75.9439 65.4381 76.1545C67.8601 77.1022 70.1768 79.3136 71.2298 81.7356L71.4405 82.1568H50.2744H29.1084L29.319 81.6303C30.2667 79.4189 32.6887 77.1022 35.1107 76.2598C35.6372 76.0492 37.2168 75.7333 39.0069 75.4174C40.5865 75.2068 41.9554 74.8908 41.9554 74.8908C42.0607 74.6802 42.2713 74.7855 43.0085 75.4174Z" fill="#61A1F4"/>
</svg>
