<svg width="100" height="100" viewBox="0 0 100 100" fill="none" xmlns="http://www.w3.org/2000/svg">
<path d="M56.4 21.1997L48.7 46.4997L50.7 47.5997L60.2999 21.9997L56.4 21.1997Z" fill="#D9EBFF"/>
<path d="M73.9 26.6996L54.9 55.6996L48.5 56.3996L44.1 75.9996L43 75.3996L46.5 52.5996L53.7 53.1996L68.8 24.0996L71.4 24.5996L73.9 26.6996Z" fill="#D9EBFF"/>
<path fill-rule="evenodd" clip-rule="evenodd" d="M67.7 55.6997C67.7 55.6997 78.8 64.1997 67.2 72.1997L72.6 71.6997L73.2 69.1997L74.7 67.0997L75.5 62.9997L73.5 58.7997L70.9 56.2997L67.7 55.6997Z" fill="#D9EBFF"/>
<path d="M79.2001 50.7997C81.1001 46.6997 82.7001 42.4997 83.6001 38.4997C84.2001 35.7997 84.3001 35.0997 84.2001 34.7997L84.1001 34.6997C84.0001 34.5997 83.3001 34.0997 82.6001 33.6997C79.3001 31.9997 76.5001 29.0997 75.0001 25.9997C74.6001 25.0997 74.3001 24.6997 74.1001 24.6997C73.3001 24.3997 69.7001 23.4997 68.9001 23.3997H68.8001C68.3001 23.0997 68.0001 23.1997 67.8001 23.2997L67.7001 23.3997C67.5001 23.6997 63.2001 32.1997 60.4001 37.8997L53.4001 51.9997H53.3001C52.9001 51.8997 51.8001 51.7997 50.5001 51.5997L49.5001 51.4997C47.9001 51.2997 47.1001 51.1997 46.6001 51.1997C46.1001 51.1997 46.0001 51.2997 45.9001 51.4997C45.7001 51.6997 45.6001 52.4997 44.6001 58.6997L43.8001 63.9997C43.5001 66.2997 43.1001 68.4997 42.8001 70.3997C42.2001 74.4997 41.9001 76.3997 41.9001 76.5997C41.9001 77.3997 42.4001 77.6997 44.9001 79.4997C48.3001 81.7997 49.4001 82.3997 49.9001 82.3997C50.4001 82.3997 51.0001 82.0997 52.2001 81.2997C54.7001 79.6997 57.1001 77.8997 57.4001 77.4997C57.6001 77.1997 57.5001 76.7997 57.3001 76.4997C57.1001 76.0997 56.7001 75.8997 56.3001 75.8997C56.0001 75.8997 55.4001 76.2997 54.6001 76.7997L54.0001 76.9997C52.2001 78.1997 50.4001 79.3997 49.9001 79.6997H49.8001H49.7001C48.9001 79.2997 44.9001 76.6997 44.3001 76.0997L44.2001 75.9997V75.8997C44.3001 75.2997 44.5001 73.1997 44.8001 71.7997V71.5997L45.3001 71.9997C46.8001 73.1997 49.2001 74.8997 49.6001 74.8997C50.1001 74.8997 51.7001 73.7997 52.4001 73.0997C52.8001 72.6997 52.9001 72.1997 52.8001 71.6997C52.6001 71.1997 52.2001 70.8997 51.8001 70.8997C51.6001 70.8997 51.3001 70.9997 50.9001 71.2997L50.4001 71.5997L49.8001 71.9997L49.0001 71.4997C47.3001 70.2997 45.7001 68.9997 45.3001 68.5997V68.4997V68.3997C45.4001 67.4997 46.4001 61.1997 47.0001 57.3997V57.2997C47.3001 55.1997 47.5001 54.2997 47.5001 53.7997V53.6997H47.6001C47.9001 53.6997 49.1001 53.8997 50.6001 54.0997C52.8001 54.3997 54.0001 54.4997 54.3001 54.3997C54.7001 54.2997 55.2001 53.2997 60.5001 42.7997L60.6001 42.6997C63.2001 37.4997 65.6001 32.6997 66.2001 31.6997L66.3001 31.5997L67.1001 31.7997C67.8001 31.9997 67.9001 31.9997 68.5001 32.8997L68.7001 33.1997C70.3001 35.2997 71.9001 37.1997 73.8001 38.6997L74.1001 38.8997L73.6001 40.2997C72.9001 42.4997 71.9001 44.7997 70.6001 47.6997C69.5001 49.8997 69.5001 50.2997 69.6001 50.4997C69.8001 51.0997 70.2001 51.3997 70.8001 51.3997C71.5001 51.3997 71.7001 51.0997 72.3001 49.9997L72.4001 49.8997C74.3001 46.0997 77.0001 39.1997 76.7001 38.2997C76.7001 37.8997 76.0001 37.3997 75.7001 37.1997C73.9001 35.7997 71.5001 33.1997 70.1001 31.0997C69.5001 30.1997 69.3001 29.8997 68.7001 29.7997C68.7001 29.7997 68.5001 29.7997 68.3001 29.6997C68.1001 29.5997 68.0001 29.5997 67.8001 29.4997L67.4001 29.3997L68.4001 27.2997C68.9001 26.2997 69.1001 25.8997 69.1001 25.8997V25.7997H69.2001H69.3001C70.1001 25.9997 71.8001 26.4997 72.2001 26.5997C72.3001 26.6997 72.5001 27.0997 72.8001 27.5997C74.6001 30.7997 77.4001 33.6997 80.5001 35.3997C81.0001 35.5997 81.2001 35.7997 81.3001 35.8997L81.4001 35.9997V36.0997C81.2001 36.7997 80.4001 39.7997 80.0001 41.1997C79.2001 43.8997 77.5001 48.0997 76.1001 50.9997C75.8001 51.5997 75.6001 52.1997 75.6001 52.4997C75.6001 52.8997 75.9001 53.2997 76.3001 53.4997C76.8001 53.6997 77.3001 53.5997 77.7001 53.1997L77.8001 53.0997C77.8001 53.0997 77.9001 52.9997 77.9001 52.8997C78.4001 52.3997 78.8001 51.5997 79.2001 50.7997Z" fill="#61A1F4"/>
<path d="M80.8001 64.2997C80.9001 63.8997 80.8001 63.5997 80.5001 63.0997C80.2001 62.7997 80.1001 62.7997 78.3001 62.6997H76.6001L76.4001 61.9997C76.3001 61.5997 76.1001 60.8997 76.0001 60.5997L75.9001 60.1997L76.0001 60.0997C76.3001 59.8997 76.8001 59.5997 77.3001 59.2997C78.3001 58.7997 79.0001 58.2997 79.1001 57.9997C79.3001 57.5997 79.2001 57.1997 79.0001 56.7997C78.8001 56.4997 78.4001 56.2997 78.0001 56.2997C77.7001 56.2997 76.8001 56.7997 76.1001 57.1997L74.8001 57.9997L73.9001 56.9997C73.5001 56.5997 73.2001 56.2997 73.1001 56.0997H73.0001V55.9997C73.2001 55.6997 73.4001 55.1997 73.8001 54.5997C74.5001 53.4997 74.7001 52.8997 74.7001 52.7997C74.7001 52.2997 74.4001 51.7997 73.8001 51.5997C72.9001 51.3997 72.5001 51.7997 71.7001 53.3997L71.4001 53.8997C71.2001 54.1997 71.0001 54.4997 70.9001 54.6997L70.8001 54.7997H70.7001C70.6001 54.7997 70.3001 54.6997 69.9001 54.4997C69.7001 54.4997 69.5001 54.3997 69.3001 54.2997H69.2001C69.0001 54.1997 68.8001 54.1997 68.7001 54.1997L68.4001 54.0997V52.5997C68.4001 50.9997 68.4001 50.6997 68.0001 50.2997C67.4001 49.7997 66.6001 49.7997 66.1001 50.1997C65.8001 50.4997 65.7001 50.6997 65.7001 52.4997V54.1997L65.1001 54.3997C64.8001 54.4997 64.4001 54.5997 64.1001 54.6997C63.9001 54.7997 63.7001 54.7997 63.6001 54.7997L63.2001 54.8997L62.5001 53.7997C62.3001 53.4997 62.1001 53.0997 61.9001 52.7997L61.8001 52.5997C61.7001 52.3997 61.5001 52.1997 61.5001 51.9997C61.2001 51.5997 60.7001 51.4997 60.2001 51.6997C59.7001 51.8997 59.4001 52.2997 59.4001 52.7997C59.4001 53.0997 59.7001 53.6997 60.3001 54.7997L61.1001 56.0997L59.1001 58.0997L57.6001 57.1997C56.6001 56.6997 56.1001 56.3997 55.8001 56.3997C55.4001 56.3997 55.0001 56.6997 54.8001 57.0997C54.6001 57.5997 54.7001 58.0997 55.1001 58.4997C55.3001 58.6997 56.2001 59.1997 56.8001 59.4997L58.0001 60.1997L57.9001 60.5997C57.8001 60.8997 57.6001 61.5997 57.5001 62.0997L57.3001 62.6997H55.7001C53.9001 62.6997 53.7001 62.6997 53.5001 62.9997C53.2001 63.2997 53.1001 63.5997 53.1001 63.9997C53.1001 64.3997 53.3001 64.6997 53.6001 64.8997C54.0001 65.0997 54.2001 65.1997 55.8001 65.1997H57.4001L57.7001 66.2997C57.8001 66.5997 57.9001 66.8997 57.9001 67.1997C58.0001 67.3997 58.0001 67.5997 58.0001 67.6997V67.7997L57.8001 67.9997C57.6001 68.0997 57.2001 68.3997 56.6001 68.6997C54.9001 69.5997 54.5001 70.0997 54.8001 70.8997C55.0001 71.3997 55.6001 71.7997 56.1001 71.6997C56.2001 71.6997 56.4001 71.6997 58.5001 70.3997C60.6001 69.0997 61.1001 68.7997 60.7001 67.6997C60.5001 67.4997 60.3001 66.9997 60.1001 66.4997C59.7001 65.5997 59.5001 63.6997 59.8001 62.3997C60.3001 59.7997 62.5001 57.4997 65.1001 56.7997C66.1001 56.4997 67.8001 56.4997 68.8001 56.7997C72.5001 57.7997 74.9001 61.6997 74.1001 65.2997C73.4001 68.2997 71.2001 70.4997 68.4001 70.9997C66.8001 71.3997 65.7001 71.1997 63.8001 70.3997L63.4001 70.2997C62.7001 69.9997 62.5001 69.8997 62.1001 70.1997C61.6001 70.4997 59.3001 74.3997 59.3001 74.9997C59.3001 75.4997 59.6001 75.8997 60.1001 76.0997C60.5001 76.2997 61.0001 76.1997 61.3001 75.8997C61.4001 75.7997 62.0001 74.7997 62.4001 74.1997C62.6001 73.7997 63.0001 73.1997 63.1001 72.9997V72.8997H63.2001C63.4001 72.8997 63.5001 72.8997 63.7001 72.9997C63.9001 73.0997 64.6001 73.2997 65.1001 73.3997L65.7001 73.5997V75.2997C65.7001 77.2997 65.7001 77.2997 66.2001 77.6997C66.6001 77.8997 66.9001 77.9997 67.2001 77.8997C67.5001 77.7997 67.7001 77.5997 67.9001 77.1997C68.0001 76.7997 68.1001 76.0997 68.1001 74.9997C68.1001 74.3997 68.1001 73.8997 68.1001 73.6997V73.5997H68.2001C68.6001 73.5997 69.6001 73.2997 70.4001 73.0997H70.5001L70.6001 73.1997C70.7001 73.2997 70.9001 73.6997 71.4001 74.3997C72.3001 75.7997 72.6001 76.3997 73.3001 76.3997C73.8001 76.3997 74.5001 75.6997 74.5001 75.2997C74.5001 74.9997 74.0001 74.0997 73.6001 73.3997C73.2001 72.7997 73.0001 72.3997 72.9001 72.1997L72.8001 71.9997L72.9001 71.8997C73.2001 71.4997 74.3001 70.4997 74.8001 70.0997L74.9001 69.9997H75.0001C75.3001 70.0997 75.9001 70.4997 76.3001 70.6997C77.9001 71.5997 78.3001 71.7997 79.0001 71.2997C79.4001 70.8997 79.5001 70.3997 79.1001 69.7997C78.9001 69.4997 78.0001 68.9997 77.3001 68.5997C76.6001 68.1997 76.3001 67.9997 76.1001 67.7997L76.0001 67.6997V67.5997C76.2001 66.8997 76.5001 65.8997 76.5001 65.3997V65.2997H76.6001C76.8001 65.2997 77.3001 65.2997 77.9001 65.2997C79.2001 65.2997 79.7001 65.1997 80.1001 65.0997C80.5001 64.7997 80.8001 64.5997 80.8001 64.2997Z" fill="#61A1F4"/>
<path d="M61.8001 21.3998C61.6001 20.8998 61.6001 20.8998 58.4001 19.9998C57.5001 19.7998 56.4001 19.4998 55.0001 19.0998L53.5001 18.6998C50.6001 17.8998 50.2001 17.7998 50.1001 17.7998C49.9001 17.7998 48.7001 18.0998 45.0001 19.0998C43.0001 19.5998 40.5001 20.2998 37.8001 20.9998L34.5001 21.8998C27.1001 23.9998 25.9001 24.2998 25.8001 24.3998C25.5001 24.5998 25.2001 25.2998 25.1001 25.5998V25.6998C23.7001 28.8998 20.8001 31.7998 17.5001 33.4998C16.6001 33.8998 16.0001 34.2998 15.9001 34.5998C15.4001 35.4998 17.3001 41.9998 19.1001 46.4998C21.8001 53.3998 25.7001 60.0998 30.7001 66.1998C32.3001 68.1998 38.2001 74.2998 39.1001 74.7998C39.8001 75.0998 40.4001 74.9998 40.8001 74.4998C40.9001 74.2998 41.1001 72.2998 41.8001 60.6998C42.2001 53.1998 42.6001 47.2998 42.7001 46.7998L42.8001 46.4998L46.6001 47.7998C48.6001 48.4998 50.9001 49.1998 51.3001 49.1998C51.5001 49.1998 51.9001 49.0998 52.1001 48.8998C52.4001 48.4998 56.7001 36.9998 57.0001 36.1998C61.9001 22.3998 62.1001 21.7998 61.8001 21.3998ZM38.6001 67.6998C38.6001 68.1998 38.5001 68.6998 38.5001 69.1998C38.5001 69.7998 38.4001 70.2998 38.4001 70.5998V70.9998L36.5001 69.0998C28.9001 61.3998 23.3001 52.2998 19.8001 41.8998C19.2001 40.1998 18.3001 36.5998 18.1001 35.7998V35.6998L18.2001 35.5998C18.4001 35.4998 18.7001 35.2998 19.0001 35.0998C22.2001 33.3998 25.0001 30.4998 26.7001 27.3998C26.9001 27.0998 27.1001 26.5998 27.2001 26.3998L27.3001 26.2998C28.8001 25.7998 48.3001 20.4998 49.8001 20.1998C50.0001 20.2998 50.4001 20.3998 51.3001 20.5998C52.2001 20.7998 53.3001 21.0998 54.6001 21.4998C55.5001 21.6998 56.3001 21.9998 57.0001 22.1998H57.1001C57.9001 22.3998 58.6001 22.5998 58.9001 22.6998H59.1001V22.8998C58.8001 23.6998 58.1001 25.6998 57.8001 26.2998V26.3998H57.7001C57.2001 26.2998 55.7001 25.8998 54.1001 25.4998L50.1001 24.4998L40.2001 26.9998C38.1001 27.5998 36.2001 28.0998 34.6001 28.5998H34.5001C30.6001 29.6998 30.3001 29.7998 30.2001 29.8998C30.1001 29.9998 29.9001 30.1998 29.7001 30.5998C28.7001 32.2998 26.1001 35.2998 24.2001 36.7998C23.5001 37.3998 23.2001 37.6998 23.0001 37.9998C22.7001 38.7998 24.8001 44.1998 26.0001 46.8998C28.9001 53.2998 33.1001 59.6998 37.5001 64.4998L38.7001 65.7998L38.6001 67.6998ZM56.6001 28.8998C55.8001 31.1998 51.1001 43.9998 50.3001 46.0998L50.2001 46.1998H50.1001C49.8001 46.0998 49.2001 45.8998 48.6001 45.6998H48.5001C47.8001 45.4998 46.9001 45.1998 45.9001 44.7998L44.9001 44.4998C41.1001 43.2998 41.0001 43.2998 40.4001 43.9998C40.3001 44.1998 40.1001 45.6998 39.6001 53.1998C39.4001 55.7998 39.3001 58.1998 39.2001 59.8998V60.0998C39.1001 61.0998 39.1001 61.7998 39.1001 62.1998V62.5998L38.9001 62.2998C37.5001 60.7998 35.0001 57.4998 34.0001 55.9998C30.8001 51.3998 27.9001 45.5998 26.0001 40.0998L25.5001 38.6998L25.8001 38.4998C27.7001 36.9998 29.4001 35.1998 30.9001 32.9998L31.8001 31.8998L40.8001 29.3998C45.3001 28.0998 49.1001 27.0998 49.9001 26.8998H50.0001H50.1001C50.4001 27.0998 51.1001 27.2998 52.6001 27.6998L53.5001 27.9998C54.8001 28.3998 56.0001 28.6998 56.5001 28.7998H56.7001L56.6001 28.8998Z" fill="#61A1F4"/>
</svg>
