<svg width="100" height="100" viewBox="0 0 100 100" fill="none" xmlns="http://www.w3.org/2000/svg">
<g clip-path="url(#clip0_370_1407)">
<path d="M53.4712 23.8548C53.4712 23.8548 68.0022 24.761 71.1416 37.9923C71.1416 37.9923 86.8387 43.611 77.2411 58.2923L80.3805 57.4767L82.1744 54.6673L83.4302 50.7704L83.0714 46.4204L80.0217 40.8017L75.9853 38.6267L75.3574 33.8235L72.5768 28.8392L67.464 24.3985L61.8131 21.9517L56.2518 22.7673L53.4712 23.8548Z" fill="#D9EBFF"/>
<path d="M69.7963 60.4673C70.8726 60.8298 71.052 60.8298 73.1151 60.8298C75.1781 60.8298 75.4472 60.8298 76.4339 60.4673C78.3958 59.8778 80.1719 58.7823 81.5874 57.2886C83.0029 55.7948 84.009 53.9545 84.5067 51.9485C84.7171 50.9972 84.8075 50.0228 84.7758 49.0485C84.8529 47.1256 84.4193 45.2169 83.52 43.5204C82.3348 41.2361 80.4888 39.3709 78.2278 38.1735L77.3309 37.7204L77.1515 36.361C76.4965 32.8304 74.8094 29.5791 72.3078 27.0267C70.8376 25.4408 69.1081 24.1225 67.195 23.1298C64.6882 21.7785 61.872 21.1218 59.0326 21.2267C57.8901 21.1957 56.7476 21.2868 55.624 21.4985C52.6214 22.0809 49.8134 23.4214 47.4616 25.3954L46.3852 26.3017L45.3088 25.3954C43.0841 23.4555 40.3924 22.1426 37.5051 21.5892C36.1716 21.3579 34.8217 21.2367 33.4687 21.2267C32.6583 21.2316 31.8492 21.2921 31.0469 21.4079C27.0266 22.0464 23.3327 24.0241 20.5523 27.0267C17.4281 30.3552 15.5558 34.6836 15.2601 39.261C15.1517 41.983 15.7061 44.6903 16.8747 47.1454C16.9188 47.1953 16.9432 47.2598 16.9432 47.3267C16.9432 47.3935 16.9188 47.4581 16.8747 47.5079C16.785 47.6892 16.6056 47.6892 16.2468 47.7798C16.0094 47.8083 15.7868 47.9109 15.6099 48.0734C15.433 48.2358 15.3107 48.45 15.2601 48.686C15.2166 48.9052 15.2356 49.1323 15.315 49.3409C15.3944 49.5495 15.5309 49.731 15.7086 49.8642C16.211 49.9598 16.7234 49.9902 17.2335 49.9548H18.5789L19.2965 51.1329C23.5123 58.0204 32.213 67.1735 43.0664 76.3267C45.5779 78.411 46.0264 78.7735 46.3852 78.7735C46.744 78.7735 47.0131 78.6829 49.1658 76.8704C54.0992 72.7923 59.481 67.8985 59.6604 67.3548C59.7005 67.1851 59.7052 67.0089 59.6743 66.8373C59.6434 66.6657 59.5776 66.5025 59.481 66.3579C59.2228 66.0832 58.869 65.9207 58.4944 65.9048C58.1356 65.9048 57.5974 66.3579 55.3549 68.4423C53.1125 70.5267 48.7173 74.3329 46.6543 75.9642C46.2955 76.236 46.2058 76.236 43.0664 73.5173C36.4853 67.8916 30.3935 61.7065 24.8578 55.0298C24.4093 54.486 21.4493 50.6798 21.4493 50.3173C21.4493 49.9548 21.4493 50.0454 27.9972 50.0454C33.0202 50.0454 34.276 49.9548 34.4554 49.9548C34.7245 49.7735 34.9936 48.9579 36.1597 44.9704C37.3257 40.9829 37.3257 40.9829 37.5051 40.9829C37.6845 40.9829 37.7742 41.1642 40.9136 51.3142C42.6179 56.9329 44.1428 61.8267 44.3221 62.1892C44.4353 62.5742 44.6928 62.8994 45.0397 63.0954C45.3676 63.1979 45.7222 63.1653 46.0264 63.0048C46.3852 62.8235 46.4749 62.6423 48.5379 56.0267L50.3319 50.2267H53.8301C56.521 50.2267 57.0592 50.2267 57.2386 50.0454C57.3714 49.934 57.4798 49.7959 57.557 49.6399C57.6342 49.4839 57.6785 49.3134 57.6871 49.1392C57.696 48.9708 57.6686 48.8026 57.6066 48.6461C57.5447 48.4895 57.4497 48.3486 57.3283 48.2329L57.0592 47.961H49.0761L48.807 48.3235C48.1236 49.8084 47.583 51.3561 47.1925 52.9454C45.7573 57.2048 45.7573 57.2048 45.4882 57.2048C45.2191 57.2048 45.2191 57.2048 41.9003 46.4204C39.927 40.1673 38.5815 35.636 38.4918 35.3642C38.397 35.1868 38.2533 35.0411 38.0782 34.9446C37.9031 34.8481 37.704 34.805 37.5051 34.8204V34.8204C37.2984 34.8221 37.0962 34.8825 36.9218 34.9946C36.7473 35.1068 36.6076 35.2663 36.5185 35.4548C36.4288 35.7267 35.6215 38.2642 34.6348 41.7079L32.9306 47.6892H19.8347L19.2965 46.4204C18.0521 43.9938 17.5229 41.2574 17.7717 38.536C18.0729 35.3342 19.2827 32.2884 21.2558 29.7645C23.2288 27.2405 25.8811 25.3458 28.8942 24.3079C34.5451 22.4048 40.4652 23.7642 45.1294 28.1142C46.0264 28.9298 46.1161 29.0204 46.5646 29.0204C47.0131 29.0204 47.1028 28.9298 47.9997 28.1142C50.3779 25.7636 53.4166 24.2127 56.7004 23.6735C60.0904 23.1782 63.5488 23.7685 66.5895 25.3615C69.6303 26.9545 72.1006 29.4701 73.6533 32.5548C74.2601 33.8645 74.7407 35.2301 75.0884 36.6329C75.0884 37.086 74.5502 37.086 73.2945 37.086C70.7251 37.0756 68.2243 37.9228 66.1805 39.496C64.1368 41.0693 62.6645 43.2805 61.9926 45.786C61.6511 46.8055 61.5288 47.8869 61.6338 48.9579C61.5979 49.9623 61.6883 50.9672 61.9029 51.9485C62.3476 53.9504 63.314 55.7958 64.7018 57.2936C66.0896 58.7913 67.8485 59.8871 69.7963 60.4673V60.4673ZM64.9526 44.1548C66.2514 42.1711 68.1339 40.6496 70.3344 39.8048C72.0002 39.3347 73.7529 39.2725 75.4472 39.6235C76.1258 39.8408 76.7858 40.1136 77.4206 40.4392C78.3705 40.8653 79.225 41.482 79.9321 42.2517C81.0605 43.2798 81.8966 44.5939 82.3539 46.0579C83.0579 48.2336 82.9652 50.5923 82.0926 52.7047C81.2201 54.817 79.6258 56.5426 77.6 57.5673C76.273 58.2765 74.7956 58.6497 73.2945 58.6548C71.0789 58.6263 68.9409 57.8264 67.2414 56.39C65.5419 54.9536 64.3849 52.9687 63.9659 50.7704C63.4364 48.5192 63.79 46.1483 64.9526 44.1548V44.1548Z" fill="#61A1F4" stroke="#61A1F4" stroke-width="0.5" stroke-miterlimit="10"/>
<path d="M67.1052 49.0482C67.1052 49.1889 67.1376 49.3277 67.1999 49.4535C67.2622 49.5793 67.3526 49.6888 67.464 49.7732C67.8228 50.1357 67.8228 50.1357 69.7962 50.1357H72.0386L72.1283 52.492C72.1283 54.5763 72.1283 54.5763 72.4871 54.8482C72.5888 54.9575 72.7159 55.0396 72.8568 55.087C72.9977 55.1345 73.148 55.1458 73.2944 55.1201C73.5866 55.1271 73.8721 55.031 74.1016 54.8482C74.3707 54.4857 74.3707 54.4857 74.4604 52.492L74.5501 50.1357H76.7926C78.7659 50.1357 78.7659 50.1357 79.1247 49.7732C79.2361 49.6888 79.3265 49.5793 79.3888 49.4535C79.4511 49.3277 79.4835 49.1889 79.4835 49.0482C79.4835 48.0513 79.3041 47.7795 76.6132 47.7795H74.5501V45.6045C74.5501 44.2451 74.4604 43.5201 74.4604 43.4295C74.3907 43.2859 74.2917 43.1588 74.1699 43.0566C74.0482 42.9545 73.9063 42.8795 73.7538 42.8367C73.6013 42.7939 73.4415 42.7842 73.285 42.8083C73.1286 42.8324 72.9789 42.8896 72.8459 42.9763C72.3974 43.3388 72.3077 43.6107 72.3077 45.6045V47.7795H70.2446C67.2846 47.7795 67.1052 48.142 67.1052 49.0482Z" fill="#61A1F4" stroke="#61A1F4" stroke-width="0.5" stroke-miterlimit="10"/>
<path d="M62.3514 64.2736C62.5957 64.287 62.8383 64.2247 63.0466 64.0952C63.255 63.9656 63.4193 63.7749 63.5175 63.5485C63.6017 63.3706 63.6297 63.1708 63.5976 62.9762C63.5655 62.7816 63.4749 62.6018 63.3381 62.461C63.2063 62.2815 63.0267 62.1436 62.8202 62.0634C62.6137 61.9832 62.3889 61.9639 62.172 62.0079C61.9397 62.1052 61.74 62.2681 61.5969 62.477C61.4537 62.6859 61.3731 62.9321 61.3648 63.186C61.3638 63.4594 61.4648 63.7231 61.6477 63.9247C61.8305 64.1262 62.0818 64.2508 62.3514 64.2736V64.2736Z" fill="#61A1F4" stroke="#61A1F4" stroke-width="0.5" stroke-miterlimit="10"/>
</g>
<defs>
<clipPath id="clip0_370_1407">
<rect width="70" height="58" fill="white" transform="translate(15 21)"/>
</clipPath>
</defs>
</svg>
