<svg width="100" height="100" viewBox="0 0 100 100" fill="none" xmlns="http://www.w3.org/2000/svg">
<g clip-path="url(#clip0_370_1428)">
<path fill-rule="evenodd" clip-rule="evenodd" d="M63.4024 26.8483C63.4024 26.8483 78.8916 33.8243 73.6924 53.4443C67.6267 76.1164 44.6636 72.7374 38.2729 71.1024L40.7642 74.4814C40.7642 74.4814 55.9285 77.7514 66.8685 71.6474C71.3095 69.1404 76.5087 58.1313 76.5087 58.1313L77.5918 46.0323L74.4507 34.6963L67.3018 26.7393H63.4024V26.8483Z" fill="#D9EBFF"/>
<path d="M78.8375 44.4739C78.1551 39.449 76.487 34.2715 74.6781 31.6009C73.5291 29.9244 72.0619 28.4931 70.3609 27.3894C68.66 26.2857 66.7589 25.5314 64.7672 25.1699C62.9042 24.8375 60.9977 24.8375 59.1347 25.1699C56.4918 25.6386 54.8995 26.4997 52.105 28.3745C51.1193 28.9958 50.5236 28.9958 49.3212 27.3499C47.3932 24.8647 46.635 23.2188 45.4652 18.9351L45.2702 18.2375C44.577 15.8068 44.5337 15.6651 44.0679 15.3054C43.6021 14.9457 38.5546 14.9021 37.9047 15.3054C37.6842 15.4508 37.5001 15.6455 37.3667 15.8742C37.2333 16.103 37.1542 16.3597 37.1356 16.6243L40.6126 27.5243C41.7814 29.8798 43.2969 32.0442 45.1077 33.9445C46.765 35.6013 46.7541 35.634 46.4509 37.2908C46.2129 38.3455 46.1002 39.4248 46.1151 40.5063C46.0955 42.5096 46.4634 44.4976 47.1982 46.3596C47.8826 48.1661 48.1816 50.0972 48.0756 52.0276C48.0256 53.7647 47.6277 55.4738 46.9058 57.0525C46.0336 59.267 44.384 61.0822 42.2698 62.1537C41.1646 62.7906 39.8829 63.047 38.6196 62.884C37.352 62.809 36.1249 62.4074 35.056 61.7177C33.691 60.8402 32.1047 60.375 30.485 60.377C28.7184 60.1923 26.9374 60.5454 25.3725 61.3907C23.4974 62.3338 21.977 63.8638 21.0398 65.7507C20.2263 67.291 19.8905 69.0414 20.0758 70.7757C20.0233 71.7342 20.1747 72.6929 20.5199 73.5879C21.2023 75.6262 21.9172 76.5527 26.0007 80.6729C27.5496 82.2207 29.9759 84.5969 30.3334 84.7713C31.6113 85.011 32.9141 85.0879 34.2111 85.0002H37.5689L38.0888 84.4879C38.2566 84.3431 38.3895 84.162 38.4777 83.9581C38.5659 83.7542 38.607 83.5329 38.5979 83.3107V82.6567L33.0738 77.0977C28.1995 72.2036 27.658 71.5823 27.5063 71.1245C27.3861 70.6654 27.3944 70.1818 27.5304 69.7273C27.6664 69.2727 27.9248 68.8649 28.2769 68.5489C28.6289 68.233 29.0611 68.0212 29.5253 67.9371C29.9896 67.853 30.468 67.8999 30.9074 68.0725C31.5809 68.5418 32.2083 69.0747 32.7813 69.6639C33.4637 70.3506 34.4927 71.2008 35.1751 71.7676L35.4134 71.9747C40.208 75.6567 46.0914 77.6137 52.1221 77.5327C58.1528 77.4517 63.9822 75.3373 68.6774 71.5278C74.3192 66.7379 77.9525 59.9784 78.8483 52.6053C79.0614 49.8989 79.0577 47.1797 78.8375 44.4739V44.4739ZM33.9186 64.5844C33.7503 64.419 33.5402 64.3032 33.3111 64.2494C33.0819 64.1956 32.8425 64.2059 32.6188 64.2792C32.4124 64.3492 32.2298 64.4763 32.0918 64.646C31.9539 64.8156 31.8662 65.021 31.839 65.2384V65.3038C31.839 65.3038 31.839 65.4128 31.839 65.4237H31.5898H31.1674C30.8316 65.4237 30.42 65.3474 30.0842 65.3474C29.4177 65.3313 28.7547 65.4499 28.1345 65.6962C27.0323 66.2315 26.1427 67.1267 25.6108 68.236V68.3123C25.2868 68.9633 25.1409 69.6894 25.1883 70.416C25.1883 72.596 25.1883 72.596 30.7991 78.2422L35.1318 82.4605H31.6657L27.8529 78.6128C24.8742 75.6262 23.8777 74.6125 23.5203 73.9912C23.0427 73.0776 22.7568 72.075 22.6804 71.0455C22.604 70.0161 22.7387 68.9819 23.0762 68.0071C23.3813 67.08 23.8751 66.2271 24.5259 65.5027C25.1768 64.7783 25.9705 64.1983 26.8564 63.7996C27.8993 63.2818 29.0517 63.0274 30.2142 63.0584C31.7631 63.0584 32.1314 63.1347 34.3194 64.2356C35.8276 65.1399 37.5575 65.6006 39.3128 65.5654C41.7005 65.5542 44.0055 64.6844 45.8118 63.1129C48.1762 60.9871 49.8675 58.2087 50.6752 55.1232C50.9428 54.0551 51.0559 52.9538 51.011 51.8532C51.1686 49.6967 50.8275 47.5328 50.0145 45.5312C49.713 44.6863 49.4634 43.8236 49.2671 42.9479C48.9943 41.1014 49.0346 39.2218 49.3862 37.3889C49.5775 36.6785 49.6145 35.9349 49.4946 35.2089C49.2563 34.1189 49.018 33.6829 47.469 32.1242C46.1543 30.82 44.9614 29.397 43.9054 27.8731C43.4665 27.312 43.1458 26.6666 42.9631 25.9765L40.4826 19.9052C40.2552 18.8152 40.0169 17.8451 39.9085 17.3764C40.3005 17.3312 40.6947 17.3094 41.0892 17.311H42.3998L42.9956 19.491C43.6502 22.3477 44.7977 25.0666 46.3859 27.5243C48.2056 30.1621 49.1371 30.9142 50.7185 31.0232C52.0075 31.1431 52.7116 30.8815 54.1413 29.7697C56.3664 28.0621 59.0989 27.1596 61.8968 27.2082C63.9918 27.183 66.063 27.6574 67.9409 28.5925C69.9622 29.7198 71.6742 31.3339 72.9234 33.2905C74.7173 36.8145 75.8935 40.6236 76.4004 44.5502C76.6917 47.3861 76.6554 50.2465 76.2921 53.074C74.8081 61.2054 70.2805 67.9744 63.8682 71.6041C59.9058 73.835 55.4068 74.9178 50.8702 74.7324C46.001 74.5265 41.3075 72.8432 37.4064 69.9037C35.0451 68.2033 34.5577 67.2767 34.3627 65.7943C34.2855 65.4198 34.1694 65.0544 34.0161 64.7043L33.9186 64.5844Z" fill="#61A1F4"/>
</g>
<defs>
<clipPath id="clip0_370_1428">
<rect width="59" height="70" fill="white" transform="translate(20 15)"/>
</clipPath>
</defs>
</svg>
