<svg width="100" height="100" viewBox="0 0 100 100" fill="none" xmlns="http://www.w3.org/2000/svg">
<g clip-path="url(#clip0_370_1442)">
<path fill-rule="evenodd" clip-rule="evenodd" d="M50.9333 28.4522L53.8736 32.2297C55.8533 34.8034 56.9612 37.9401 57.0367 41.1853C57.1122 44.4304 56.1514 47.6152 54.2936 50.278L50.9333 54.9999V59.1972C50.9333 59.1972 66.8948 58.1479 66.8948 75.2518V81.7576L70.3601 82.1773V67.4868C70.3601 67.4868 67.2098 60.1416 63.0094 56.6789C61.5393 55.5246 57.864 54.895 57.5489 53.321C57.0239 50.278 61.0143 46.3955 61.0143 46.3955L62.1694 41.044L61.0143 35.2728L59.5441 31.7051L54.7137 24.3599L50.9333 28.4522Z" fill="#D9EBFF"/>
<path fill-rule="evenodd" clip-rule="evenodd" d="M61.7493 18.9035C61.7493 18.9035 66.7897 27.0882 62.4843 34.8532L62.2743 37.0567L64.1645 37.6863L66.8947 38.211L67.8398 34.7482L68.7849 27.8227L67.4198 23.2057L64.8995 18.2739L61.7493 18.9035Z" fill="#D9EBFF"/>
<path d="M70.3496 65.5349C69.6355 63.4363 67.9869 60.4562 67.1993 59.984C66.9263 59.5958 66.7898 59.6168 66.3382 59.8476C66.1874 59.8995 66.0503 59.9851 65.9375 60.0978C65.8247 60.2105 65.7391 60.3475 65.6872 60.4982C65.6492 60.7726 65.6698 61.0519 65.7477 61.3178C65.8255 61.5836 65.9588 61.83 66.1387 62.0407C66.9815 63.3118 67.6623 64.683 68.1654 66.1226C68.8499 68.1488 69.1664 70.2809 69.1 72.4185L69.1945 75.1362H62.0643V72.8382C62.0643 70.4457 62.0643 70.2569 61.8123 69.8791C61.7026 69.7477 61.5641 69.6434 61.4074 69.5742C61.2508 69.5051 61.0803 69.4729 60.9092 69.4804C60.7357 69.4734 60.5628 69.5067 60.4043 69.5777C60.2458 69.6487 60.1059 69.7555 59.9957 69.8896C59.7541 70.2569 59.7541 70.3618 59.7541 75.8812V81.2327H53.6636C47.4995 81.2327 47.4995 81.2327 47.0165 81.5895C46.875 81.6949 46.7591 81.8307 46.6773 81.9869C46.5955 82.1431 46.5499 82.3157 46.5439 82.4919C46.548 82.6644 46.5918 82.8337 46.6719 82.9866C46.752 83.1394 46.8664 83.2718 47.006 83.3733C47.384 83.7511 47.384 83.7511 59.1241 83.7511H70.7591L71.5152 82.9956L71.4102 76.0806C71.3052 68.6724 71.2947 68.3786 70.3496 65.5349ZM61.9488 81.2747V77.4552H69.0895V81.2327L61.9488 81.2747Z" fill="#61A1F4"/>
<path d="M21.6778 34.2341L21.4258 34.3076C21.1936 34.3571 20.9728 34.4496 20.7747 34.5804C20.1048 34.9833 19.5847 35.5938 19.2936 36.319C19.0025 37.0442 18.9562 37.8445 19.1617 38.5984C19.3672 39.3523 19.8134 40.0185 20.4324 40.496C21.0514 40.9734 21.8095 41.2359 22.5914 41.2436C23.2488 41.237 23.8914 41.0481 24.4476 40.6979C25.0039 40.3477 25.4519 39.85 25.7417 39.2604C25.9676 38.7497 26.0844 38.1975 26.0844 37.6392C26.0844 37.0808 25.9676 36.5286 25.7417 36.018C25.3554 35.3149 24.7477 34.7589 24.0129 34.4364C23.2781 34.1138 22.4572 34.0427 21.6778 34.2341V34.2341ZM23.778 37.6864C23.7626 37.9088 23.6883 38.1231 23.5629 38.3075C23.4374 38.4919 23.2652 38.6396 23.0639 38.7357C22.8964 38.811 22.7128 38.8437 22.5296 38.8308C22.3464 38.818 22.1692 38.7601 22.0138 38.6622C21.8415 38.5484 21.7017 38.3919 21.6078 38.208C21.514 38.0241 21.4694 37.8191 21.4783 37.6129C21.4746 37.4327 21.5135 37.2542 21.592 37.0919C21.6705 36.9296 21.7862 36.7881 21.9298 36.679C22.1158 36.5444 22.3408 36.4743 22.5704 36.4797C22.7025 36.4793 22.8337 36.5005 22.9589 36.5426C23.0942 36.6088 23.2398 36.6514 23.3894 36.6685C23.5515 36.9902 23.6681 37.3327 23.736 37.6864H23.778Z" fill="#61A1F4"/>
<path d="M41.5876 81.2328H39.3824V75.8813C39.3824 70.3619 39.3824 70.2569 39.1304 69.8792C39.0207 69.7478 38.8821 69.6434 38.7255 69.5743C38.5689 69.5051 38.3984 69.473 38.2273 69.4804C38.0537 69.4734 37.8809 69.5067 37.7224 69.5777C37.5638 69.6488 37.424 69.7555 37.3137 69.8897C37.0722 70.2569 37.0722 70.4458 37.0722 72.8382V75.1467H29.942L30.0366 72.4185C30.1416 68.5465 30.4986 66.8047 31.6957 64.3073C33.3922 60.7532 36.1961 57.8446 39.6869 56.0177C40.275 55.7239 42.0601 54.9684 42.6062 54.8215C42.6062 54.9474 42.6902 55.1363 42.7532 55.3566C43.0735 56.6537 43.7457 57.8374 44.6959 58.7774C45.3341 59.4609 46.104 60.0085 46.9594 60.3871C47.8147 60.7658 48.7379 60.9678 49.6733 60.9809C50.6133 60.9965 51.5454 60.8074 52.4049 60.4269C53.2644 60.0464 54.0308 59.4835 54.6508 58.7774C55.6175 57.8375 56.292 56.6388 56.5934 55.3251L56.7405 54.8215L57.066 54.9474C58.2512 55.362 59.3968 55.8817 60.4893 56.5004C61.5355 57.1423 62.5324 57.8614 63.4716 58.6515C63.6502 58.9059 63.8929 59.1086 64.1751 59.2391C64.3657 59.3266 64.5752 59.3648 64.7844 59.3501C64.9936 59.3354 65.1958 59.2684 65.3722 59.1551C65.54 59.0587 65.6808 58.9216 65.7817 58.7566C65.8826 58.5916 65.9404 58.4039 65.9498 58.2107C65.9498 57.1614 61.8649 54.2128 59.0717 53.0796L58.2631 52.8592L59.0612 52.0617C59.5967 51.5266 60.3423 50.6766 60.7623 50.152C61.5295 48.976 62.1734 47.7242 62.684 46.4164C62.6791 46.3781 62.6791 46.3393 62.684 46.301C63.0922 46.2541 63.5044 46.2541 63.9126 46.301C64.5019 46.3671 65.0985 46.3078 65.6632 46.1269C66.2279 45.946 66.7479 45.6478 67.1889 45.2517C67.7887 44.7427 68.2773 44.1157 68.6242 43.4099C68.971 42.704 69.1688 41.9344 69.2051 41.1488C69.1372 40.1741 68.85 39.2271 68.365 38.3786C68.281 38.2947 68.302 38.2003 68.554 37.5287L68.6275 37.3398C69.1841 35.6829 69.6089 33.9848 69.8981 32.2611L69.9822 31.7574L71.5153 31.2748C75.0226 30.152 77.1648 28.557 77.5638 26.7837C77.6661 26.1959 77.6045 25.5913 77.386 25.0361C77.1674 24.4809 76.8003 23.9964 76.3247 23.6357C74.8554 22.4607 73.1396 21.6321 71.3053 21.2118C71.0893 21.2185 70.8806 21.2916 70.7077 21.4212C70.5348 21.5507 70.4061 21.7305 70.3392 21.9358C70.2378 22.1487 70.2017 22.3868 70.2353 22.6202C70.269 22.8536 70.3708 23.0718 70.5282 23.2475C71.0126 23.5557 71.5261 23.8158 72.0613 24.024C74.3715 24.9998 75.2116 25.8918 75.2116 26.343C74.7434 27.0002 74.1379 27.548 73.437 27.9484C73.0484 28.1478 72.1138 28.557 71.2528 28.8823L70.2027 29.302V28.8718C70.2027 24.7375 68.1025 20.3933 65.1727 18.3052C63.5766 17.2559 62.6945 17.0145 60.2268 17.0145C59.1662 16.9169 58.0967 17.0238 57.0765 17.3293L55.9004 17.5287L55.4698 17.1824C54.7672 16.5246 53.923 16.0364 53.0021 15.7553C50.7982 15.0602 48.4714 14.842 46.1765 15.1153V15.1153C44.3261 15.5384 42.5844 16.3425 41.0625 17.4762C40.3065 18.0429 39.8234 18.5255 39.7709 18.9558C39.765 19.1055 39.7889 19.255 39.8411 19.3955C39.8934 19.536 39.9731 19.6647 40.0755 19.7742C40.695 20.5402 41.4826 20.2149 42.4697 19.4909C44.2967 18.0173 46.604 17.2699 48.9488 17.3923C51.6265 17.4972 53.2541 18.1163 54.1992 19.407C54.4513 19.7428 54.9553 20.2254 55.2493 20.2254C55.6985 20.1797 56.1418 20.0883 56.5724 19.9526C57.843 19.4233 59.2233 19.2108 60.5943 19.3335C61.3178 19.2693 62.045 19.4073 62.6945 19.7323C65.5718 21.0754 67.3989 24.3388 67.7139 28.6829L67.8085 29.9736L66.6114 30.2569C66.1127 30.3984 65.6035 30.5002 65.0887 30.5612C64.9652 30.5735 64.8468 30.6164 64.7441 30.6861C64.6414 30.7557 64.5577 30.8498 64.5007 30.96C64.3932 31.0862 64.3119 31.2325 64.2616 31.3904C64.2113 31.5482 64.1929 31.7146 64.2076 31.8796C64.2223 32.0447 64.2697 32.2052 64.347 32.3517C64.4244 32.4983 64.5301 32.628 64.6582 32.7333C65.0572 32.9956 65.2567 32.9642 66.3908 32.7333C66.7164 32.6808 67.1679 32.5969 67.4409 32.5864C67.2031 33.9494 66.8519 35.2902 66.3908 36.5948L65.5718 36.4059L65.0782 36.301C64.6769 36.1896 64.2652 36.1193 63.8496 36.0911H63.293L63.2195 35.5455C63.104 34.1919 62.5055 33.4468 60.9618 31.642C59.1566 29.6198 57.4769 27.4892 55.9319 25.2622C55.6841 24.8572 55.3174 24.5385 54.8818 24.3493C54.0417 24.1079 53.5482 24.3493 52.6871 25.1362C49.0511 28.7049 44.5147 31.2217 39.5609 32.4185C38.828 32.5811 38.1084 32.7985 37.4082 33.0691C36.9361 33.3291 36.5404 33.708 36.2604 34.1682C35.9804 34.6285 35.8258 35.1539 35.8121 35.6924V35.9232L34.972 36.0072C34.522 35.9981 34.0739 36.0692 33.6489 36.217C33.5129 35.9936 33.3902 35.7623 33.2813 35.5245L33.0608 35.0733C32.6287 34.2189 32.2397 33.3433 31.8952 32.45C32.1526 32.4639 32.4087 32.4955 32.6618 32.5444C34.2999 32.8277 35.0455 32.8487 35.308 31.7679C35.455 31.3377 35.308 31.1383 34.9405 30.8236C34.573 30.5088 34.1949 30.3409 32.7353 30.0261C32.0002 29.8687 31.3177 29.7008 31.0656 29.6378C30.839 28.6 30.6811 27.5484 30.5931 26.4899C30.5931 26.4899 30.5931 26.4059 30.5931 26.4164C31.0006 26.3254 31.4152 26.2692 31.8322 26.2485C33.2214 26.282 34.5841 25.8661 35.7176 25.0628C36.9357 24.2443 39.0359 22.3136 39.1619 21.7889C39.1945 21.652 39.1993 21.5099 39.1758 21.3711C39.1524 21.2323 39.1012 21.0996 39.0254 20.9809C38.8863 20.7462 38.6659 20.5707 38.4058 20.4878C37.7863 20.2359 37.4817 20.4878 36.6101 21.2853L36.5156 21.3692C35.6325 22.2557 34.6111 22.9928 33.4914 23.5518C32.997 23.8778 32.4137 24.0427 31.8217 24.024H31.6117C30.9902 24.0531 30.3673 24.0179 29.753 23.919C29.1125 23.8141 28.9129 23.8036 28.5454 24.1709L28.0309 24.5486L28.1464 26.5423C28.1274 27.366 28.1978 28.1893 28.3564 28.9977C28.3564 29.0607 28.3564 29.1132 28.3564 29.1446C27.907 29.0456 27.4649 28.9159 27.0333 28.7564C24.8176 27.875 23.736 26.8781 23.799 26.3849C24.093 25.3356 26.7708 24.003 30.4671 23.0691C31.8847 22.7438 32.3258 22.5339 32.5673 22.2611C32.9453 21.7574 32.9243 21.5791 32.6933 20.9914C32.2838 20.1835 31.7692 20.2674 30.0366 20.6766C24.3765 22.1142 21.6358 23.8246 21.2683 26.0911C20.9427 28.1898 23.1374 30.152 27.2958 31.4636L28.7659 31.9568L29.2595 33.3314C29.564 34.1499 30.0996 35.4301 30.5301 36.2905L31.2127 37.6441L30.7611 38.2737C30.2825 38.8861 29.9497 39.5992 29.7878 40.3591C29.6258 41.119 29.6391 41.9058 29.8265 42.6599C30.0315 43.4453 30.416 44.1726 30.9499 44.7843C31.4838 45.3961 32.1525 45.8758 32.9033 46.1856C33.5678 46.4583 34.2875 46.5697 35.0035 46.5109C35.4137 46.4813 35.8259 46.4989 36.2321 46.5633C36.2371 46.6016 36.2371 46.6404 36.2321 46.6787C36.7413 47.9772 37.3853 49.2187 38.1538 50.3828C38.626 51.1072 39.2028 51.7578 39.8654 52.3136L40.6845 53.1425L39.9284 53.4468C37.3149 54.5191 34.9648 56.1444 33.0398 58.2107C30.356 60.8145 28.5409 64.1819 27.8419 67.854C27.5163 69.1446 27.5163 69.5224 27.5163 75.9862L27.4113 82.7018V82.7858L28.1674 83.5413H36.1271C44.1918 83.5413 44.1918 83.5413 44.4439 83.2894C44.5753 83.1798 44.6798 83.0414 44.749 82.8849C44.8182 82.7283 44.8503 82.558 44.8429 82.387C44.8499 82.2136 44.8166 82.0409 44.7455 81.8825C44.6744 81.7241 44.5676 81.5843 44.4333 81.4741C44.0658 81.2328 43.8768 81.2328 41.5876 81.2328ZM36.9672 77.4552V81.2328H29.8265V77.4552H36.9672ZM45.1054 55.4196L45.1684 55.3566C45.5728 55.4346 45.9698 55.547 46.355 55.6924V55.6924C47.3867 55.935 48.4459 56.0409 49.5053 56.0072C50.6085 56.035 51.7113 55.9364 52.7921 55.7134H52.9181L53.9682 55.472C53.9682 55.6294 53.8422 55.8288 53.7582 56.0492C53.2543 57.0258 52.4372 57.8054 51.4375 58.2632C50.8452 58.5412 50.1855 58.6432 49.5368 58.557C48.8882 58.6432 48.2284 58.5412 47.6361 58.2632C46.4487 57.6744 45.5239 56.6642 45.0424 55.4301L45.1054 55.4196ZM46.6806 53.3209C44.9186 52.843 43.2929 51.9604 41.9328 50.7435C40.5727 49.5265 39.516 48.0088 38.8468 46.3115C38.2168 44.5381 38.1223 43.6567 38.1223 39.5644C38.1223 36.4164 38.1223 35.6609 38.2693 35.514C38.8996 35.1868 39.5758 34.9568 40.275 34.8319C44.539 33.7866 48.5147 31.8002 51.91 29.0187C52.5191 28.5151 53.3802 27.77 53.7057 27.4343C53.8463 27.2937 53.9972 27.1639 54.1572 27.046L54.5353 27.4972L55.0708 28.1478C56.2852 29.9531 57.6594 31.6458 59.1767 33.2055L59.3972 33.4364C60.9093 35.0208 60.9093 35.0208 60.9093 39.4594C61.0125 41.1271 60.9422 42.801 60.6993 44.4542C60.3289 46.5516 59.3419 48.4913 57.8641 50.0261C56.3948 51.6235 54.5008 52.77 52.4036 53.3314C50.5187 53.7483 48.5654 53.7483 46.6806 53.3314V53.3209ZM63.3246 43.8351V41.1488C63.289 40.2705 63.31 39.3907 63.3876 38.5151C63.8765 38.4657 64.3703 38.5012 64.8472 38.62C65.6457 38.9867 66.2707 39.6488 66.5903 40.4668C66.7336 41.0302 66.6973 41.6242 66.4865 42.166C66.2756 42.7077 65.9008 43.1702 65.4142 43.4888C64.838 43.8369 64.1599 43.9776 63.4926 43.8876L63.3246 43.8351ZM35.7071 41.1488V43.7511L35.434 43.8876C34.7634 43.9759 34.0826 43.8354 33.5019 43.4888C33.1603 43.2795 32.8699 42.9966 32.6519 42.6607C32.4339 42.3249 32.2938 41.9445 32.2417 41.5476C32.1938 41.1133 32.2489 40.6739 32.4026 40.2649C32.5563 39.8559 32.8043 39.4889 33.1264 39.1935C33.4486 38.8982 33.8359 38.6828 34.2569 38.565C34.6779 38.4471 35.1207 38.43 35.5495 38.5151H35.6126C35.7414 39.3868 35.7731 40.2701 35.7071 41.1488V41.1488Z" fill="#61A1F4"/>
<path d="M79.79 33.3946C79.5796 32.9491 79.2831 32.5496 78.9175 32.2191C78.552 31.8886 78.1246 31.6335 77.6601 31.4687C77.1955 31.3039 76.7029 31.2325 76.2106 31.2587C75.7183 31.2849 75.236 31.4081 74.7916 31.6213C74.0909 31.9752 73.5251 32.5481 73.1803 33.2529C72.8356 33.9578 72.7307 34.7558 72.8817 35.5257C73.0327 36.2956 73.4313 36.9951 74.0168 37.5177C74.6023 38.0403 75.3427 38.3575 76.1252 38.4209H76.4087C77.0902 38.4188 77.7578 38.2286 78.3378 37.8712C78.9178 37.5139 79.3877 37.0032 79.6955 36.3957C80.0706 35.4358 80.104 34.3762 79.79 33.3946V33.3946ZM77.6058 34.9581C77.5652 35.2499 77.4304 35.5205 77.222 35.7288C77.0135 35.9371 76.7427 36.0718 76.4507 36.1124C76.1501 36.0949 75.8663 35.9677 75.6534 35.7549C75.4404 35.5421 75.3131 35.2585 75.2956 34.9581C75.2885 34.7989 75.3202 34.6402 75.3878 34.4959C75.4555 34.3515 75.5572 34.2257 75.6842 34.1292C75.7485 34.0048 75.8445 33.8996 75.9625 33.8241C76.0805 33.7485 76.2163 33.7054 76.3562 33.6989C76.5782 33.7113 76.7941 33.776 76.9863 33.8878V33.8878C77.1736 33.9971 77.3293 34.1533 77.4379 34.341C77.5466 34.5286 77.6044 34.7413 77.6058 34.9581Z" fill="#61A1F4"/>
</g>
<defs>
<clipPath id="clip0_370_1442">
<rect width="61" height="70" fill="white" transform="translate(19 15)"/>
</clipPath>
</defs>
</svg>
