<svg width="100" height="100" viewBox="0 0 100 100" fill="none" xmlns="http://www.w3.org/2000/svg">
<path fill-rule="evenodd" clip-rule="evenodd" d="M31.526 81.2311L44.2337 65.9388L43.4799 57.3234L37.126 53.7695L38.4183 59.1541L40.0337 64.7541L28.9414 79.1849L31.526 81.2311Z" fill="#D9EBFF"/>
<path fill-rule="evenodd" clip-rule="evenodd" d="M62.4336 28.7842C62.4336 28.7842 66.0951 48.5996 64.1567 51.615C62.2182 54.6303 65.9874 51.2919 65.9874 51.2919L66.7413 49.5688V42.8919L64.5874 29.8611L62.4336 28.7842Z" fill="#D9EBFF"/>
<path fill-rule="evenodd" clip-rule="evenodd" d="M41.7564 55.4925C41.7564 55.4925 31.2026 46.1233 34.4334 37.2925L32.2795 36.1079L30.7718 39.4464L30.3411 43.6464L31.9564 47.9541L36.5872 52.6925L41.7564 55.4925Z" fill="#D9EBFF"/>
<path fill-rule="evenodd" clip-rule="evenodd" d="M36.5874 37.0771C36.5874 37.0771 41.1104 26.0925 55.972 22.8617V21.6771L52.7412 21.1387H50.372C50.372 21.1387 45.7412 22.5387 45.4181 22.6464C45.0951 22.7541 41.7566 24.8002 41.6489 24.9079C41.5412 25.0156 32.7104 34.3848 32.7104 34.3848L36.5874 37.0771Z" fill="#D9EBFF"/>
<path fill-rule="evenodd" clip-rule="evenodd" d="M60.172 26.0928C60.172 26.0928 61.7874 15.7543 72.0181 20.1697L69.4335 16.8312L66.0951 16.1851L62.4335 16.9389L59.2027 19.7389L58.772 22.6466L60.172 26.0928Z" fill="#D9EBFF"/>
<path fill-rule="evenodd" clip-rule="evenodd" d="M66.5258 15C69.4335 15 71.9104 16.5077 73.2027 19.0923C74.495 21.5692 74.2796 24.5846 72.8796 26.9538C71.695 28.5692 70.1873 29.4308 67.8181 29.9692C66.4181 30.2923 66.3104 30.2923 66.3104 30.2923C66.095 30.4 66.095 30.4 66.5257 32.6614L66.5258 32.6615C67.495 37.7231 68.2488 43.6462 68.2488 47.6308C68.2488 49.8923 68.2488 50 67.9258 50.6462C66.8488 52.8 64.3719 53.7692 62.1104 52.9077C61.3565 52.6923 60.2796 51.7231 59.9565 51.1846C59.9206 51.1487 59.8967 51.1009 59.8728 51.053C59.8249 50.9573 59.777 50.8615 59.6334 50.8615C59.4181 50.8615 59.3104 50.9692 59.095 51.1846C58.5565 51.6154 57.695 51.9385 56.8334 52.1538L55.5411 52.3692L57.4796 54.7385C59.6334 57.4308 60.3873 59.0462 60.3873 61.0923C60.3873 61.7385 59.7411 65.1846 58.2334 72.9385C57.6224 75.9935 57.0837 78.6152 56.6854 80.5531C56.2413 82.7141 55.9719 84.0249 55.9719 84.1385C55.9719 84.2462 55.7565 84.4615 55.5411 84.6769L55.2181 85H46.2796L45.8488 84.5692C45.5258 84.3539 45.4181 84.0308 45.4181 84.0308C45.4181 83.9905 45.4935 83.5729 45.6218 82.8629C45.8363 81.6761 46.1984 79.6719 46.6027 77.2462C47.7461 70.6978 47.7859 70.4698 47.6904 70.365C47.687 70.3612 47.6834 70.3576 47.6796 70.3539L47.5719 70.2462H47.4642C47.457 70.2462 47.45 70.2462 47.443 70.2464C47.2422 70.2543 47.0501 70.4882 41.3258 77.4615C37.9873 81.5538 35.4027 84.5692 35.1873 84.7846C34.6488 85.1077 34.3258 85 31.3104 82.4154C29.5873 81.0154 28.4027 79.9385 28.295 79.8308C28.0796 79.5077 27.9719 79.2923 28.0796 78.9692C28.1873 78.7539 30.4488 75.7385 33.5719 71.8615C39.0642 64.8615 39.0642 64.7538 39.0642 64.6462C39.0642 64.5173 38.5246 62.8853 37.9988 61.295C37.6457 60.227 37.2988 59.1778 37.1258 58.6154L35.1873 52.8L34.1104 52.0462C32.3873 50.6462 30.8796 48.4923 30.2334 46.2308C29.8027 44.8308 29.695 42.1385 30.0181 40.6308C30.6642 37.6154 31.9565 35.0308 34.7565 31.4769C41.4334 22.1077 49.4027 19.6308 52.7411 19.6308C53.9258 19.6308 55.5411 20.0615 56.7258 20.7077C57.7067 21.1982 57.7941 21.2419 57.8833 21.2458C57.892 21.2462 57.9008 21.2462 57.9104 21.2462C58.0181 21.2462 58.2334 21.1385 58.2334 20.7077C58.2334 20.6 58.4488 20.0615 58.7719 19.4154C59.8488 17.2615 61.5719 15.9692 64.2642 15.3231C65.0181 15.1077 65.9873 15 66.4181 15H66.5258ZM34.6488 81.7692C35.6181 80.8 46.495 67.4462 46.7104 66.9077C47.2488 65.8308 47.2488 64.7538 46.7104 62.6L46.2796 60.7692L42.7258 58.2923C39.1119 55.6552 38.7756 55.4098 38.5033 55.4673C38.4754 55.4732 38.4481 55.4823 38.4181 55.4923L38.3104 55.7077L38.4181 55.9231C38.4849 55.99 38.7594 56.8043 39.1642 58.0051C39.4113 58.738 39.7069 59.615 40.0334 60.5538C40.1332 60.8863 40.3047 61.424 40.4943 62.018C40.9188 63.3483 41.4334 64.9613 41.4334 65.1846C41.3494 65.2687 40.9699 65.7631 40.359 66.5589C39.4051 67.8016 37.887 69.7792 36.0488 72.0769C30.6642 78.7538 30.6642 78.8615 30.6642 78.9692C30.6642 79.1846 30.6642 79.2923 32.3873 80.6923C33.4642 81.6615 33.895 81.9846 34.2181 81.9846C34.4334 81.9846 34.5411 81.8769 34.6488 81.7692ZM57.5607 59.5726C57.4846 59.3346 57.3839 59.1044 57.2642 58.8308C57.112 58.3742 56.207 57.1648 54.5112 54.8986C53.8071 53.9577 52.9667 52.8346 51.9873 51.5077L46.9258 45.2615L40.5719 41.3846C39.0959 40.4901 37.75 39.6699 36.6652 39.0088C35.1381 38.0782 34.1286 37.463 34.0027 37.4C33.895 37.4 33.8142 37.3731 33.7334 37.3462C33.6527 37.3192 33.5719 37.2923 33.4642 37.2923C33.2488 37.2923 33.1411 37.5077 33.0334 37.7231C32.8611 37.9815 32.6888 38.5157 32.5165 39.0499C32.4734 39.1834 32.4304 39.3169 32.3873 39.4462C31.9565 40.5231 31.9565 40.9538 31.9565 42.7846V42.7846C31.9565 44.7231 31.9565 44.9385 32.2796 45.9077C33.2488 48.6 33.895 49.1385 41.8642 54.8462C44.902 56.9905 47.7915 59.0606 49.1183 60.0112C49.3908 60.2064 49.5973 60.3544 49.7258 60.4462C50.5873 60.9846 51.0181 61.4154 51.1258 61.6308C51.335 61.9446 51.1378 63.0711 49.7448 71.0294L49.6181 71.7538C49.0813 74.8553 48.5775 77.5935 48.2348 79.456C47.9588 80.9564 47.7873 81.8885 47.7873 81.9846L47.6796 82.7385H53.7104L55.8642 71.6462C57.676 62.3153 57.9638 60.8336 57.5607 59.5726ZM51.5565 41.2769L51.3411 41.3846C51.3411 41.3846 48.8642 44.0769 49.0796 44.6154C49.0796 44.6154 50.8027 46.9846 51.1258 46.9846C51.3958 46.9846 51.4401 46.6837 51.5103 46.2076C51.5241 46.1141 51.5388 46.0138 51.5565 45.9077C51.5565 45.5545 51.6028 45.0624 51.6651 44.4009C51.6978 44.0538 51.7348 43.6601 51.7719 43.2154C51.8796 41.6 51.8796 41.6 51.7719 41.4923L51.5565 41.2769ZM56.1873 49.8923C56.9411 49.7846 57.5873 49.3538 57.9104 48.7077C58.3411 47.8462 58.7719 41.1692 58.7719 37.0769C58.7719 33.2 58.2334 26.3077 57.9104 24.9077C57.695 24.0462 56.7258 23.1846 55.4334 22.5385C54.4642 22 53.6027 21.7846 52.2027 21.6769C49.8334 22.3231 44.1258 24.6923 40.2488 28.4615C38.095 30.5077 36.4796 32.3385 35.295 34.0615L34.4334 35.2462L40.6796 39.3385C40.6796 39.3385 46.6027 42.8923 46.8181 43C46.9258 43.1077 47.1411 43.1077 48.0027 42.0308C48.4334 41.4923 49.4027 40.4154 50.2642 39.5538L51.8796 37.9385L51.7719 35.7846C51.7719 33.6308 51.8796 33.2 52.3104 32.9846C52.6334 32.7692 53.2796 32.7692 53.6027 33.0923C53.6741 33.1399 53.7298 33.177 53.7743 33.2246C53.931 33.392 53.9496 33.6888 54.0334 35.0308C54.1411 37.4 54.0335 42.8923 53.7104 45.6923C53.495 48.0615 53.495 48.4923 54.2488 49.2462C54.6796 49.6769 55.2181 49.8923 55.8642 49.8923H56.1873ZM63.4027 51.0769C64.2642 51.0769 65.0181 50.6462 65.4488 49.8923C65.7719 49.3539 65.7719 49.0308 65.6642 47.2C65.5565 44.5077 65.2334 41.1692 64.8027 38.0462C64.8027 37.9385 63.6181 30.2923 63.0796 30.0769C63.0313 30.0286 62.9181 29.9803 62.7593 29.9126C62.5639 29.8293 62.2997 29.7167 62.0027 29.5385L60.6027 28.8923L60.7104 31.6923C60.9258 34.1692 60.9258 39.2308 60.8181 42.0308C60.8181 44.2923 61.0334 49.2462 61.3565 49.8923C61.6796 50.6462 62.4334 51.0769 63.295 51.0769H63.4027ZM65.4488 27.9231C68.6796 27.9231 71.1565 26.0923 71.695 23.4C72.1258 21.0308 70.9411 18.7692 68.6796 17.5846C67.2796 17.0462 64.9104 17.1538 63.0796 17.9077C62.2181 18.3385 60.9258 19.5231 60.495 20.4923C60.1719 21.1385 60.0642 21.4615 60.0642 22.6462C60.0642 23.8308 60.1719 24.1538 60.495 24.9077C61.3565 26.6308 62.9719 27.8154 64.9104 27.9231H65.4488ZM36.3716 22.2154C37.1255 21.8923 37.1255 21.6769 37.1255 21.1384C37.1255 20.8587 37.0447 20.7404 36.8832 20.5039C36.8582 20.4673 36.8312 20.4279 36.8024 20.3846C36.587 20.1692 36.3716 20.0615 36.0485 20.0615C35.8332 20.0615 35.5101 20.1692 34.9716 20.3846C34.1101 20.8154 33.2485 21.6769 32.8178 22.7538C32.2793 23.8308 31.9562 24.1538 30.7716 24.8C29.8024 25.2308 28.9408 26.0923 28.5101 27.1692C28.187 28.0308 28.187 28.2461 28.6178 28.6769C28.8332 28.8923 29.2639 29 29.587 29C29.9101 28.8923 30.2332 28.6769 30.3408 28.4615C30.6639 27.6 31.0947 27.1692 32.1716 26.7384C33.3562 26.2 34.1101 25.4461 34.7562 24.2615C35.4024 22.8615 35.5101 22.7538 36.3716 22.2154ZM28.9413 70.0314C30.1259 69.4929 30.8798 68.7391 31.5259 67.5544C32.1721 66.2621 32.2798 66.1544 33.1413 65.7237C33.8952 65.4006 33.8952 65.1852 33.8952 64.6467C33.8952 64.367 33.8144 64.2487 33.6529 64.0122C33.6279 63.9756 33.601 63.9362 33.5721 63.8929C33.3567 63.6775 33.1413 63.5698 32.8183 63.5698C32.6029 63.5698 32.2798 63.6775 31.7413 63.8929C30.8798 64.3237 30.0183 65.1852 29.5875 66.2621C29.049 67.3391 28.7259 67.6621 27.5413 68.3083C26.5721 68.7391 25.7106 69.6006 25.2798 70.5698C24.9567 71.216 24.9567 71.3237 25.0644 71.5391C25.2798 72.0775 25.4952 72.2929 25.9259 72.4006C26.3567 72.5083 27.0029 72.1852 27.1106 71.8621C27.4336 71.0006 27.8644 70.5698 28.9413 70.0314Z" fill="#61A1F4"/>
</svg>
