<svg width="100" height="100" viewBox="0 0 100 100" fill="none" xmlns="http://www.w3.org/2000/svg">
<path d="M26.9863 20.7279C26.9863 20.7279 64.4238 18.8867 54.5019 53.2555L55.9339 53.051L58.5934 53.2555L61.1506 45.1748L62.5826 36.9917L61.7643 29.0132L55.0133 22.0576L49.2852 17.0455L37.9312 15.1021L30.4641 18.0684L26.9863 20.7279Z" fill="#D9EBFF"/>
<path d="M51.6379 56.4264C51.6379 56.4264 82.1198 55.1989 78.8466 70.7467L79.0512 78.9298L82.8358 75.8611V68.9055V63.8934L81.813 60.211L75.5734 57.0401C75.5734 57.0401 69.6407 55.4035 69.3338 55.3012C69.0269 55.1989 60.4347 54.0737 60.4347 54.0737L53.07 54.5852L51.6379 56.4264Z" fill="#D9EBFF"/>
<path d="M15.7348 33.821C15.2234 35.9691 15.0188 37.2988 15.0188 39.7537C15.0188 43.8453 15.7348 46.8116 17.4737 50.494C20.6447 57.0404 27.2934 62.2571 34.1467 63.6892L35.7833 63.996L35.8856 69.5196C35.8856 71.9745 35.8856 73.202 35.9879 73.918C35.9879 74.634 36.0902 74.8386 36.1925 75.1455C37.0108 77.2935 38.5451 79.0324 41.1023 80.5667C45.9098 83.5331 53.786 85.272 61.7645 84.9651C68.1064 84.7605 73.2208 83.7377 77.6192 81.5896C79.6649 80.669 81.097 79.6461 82.3244 78.4187C83.7565 76.9866 84.4725 75.7592 84.7793 74.0203C84.7793 73.8157 84.8816 73.0997 84.8816 72.0768C84.8816 71.0539 84.8816 69.6219 84.8816 68.2921V63.3823L84.5748 62.564C83.8588 60.7228 82.4267 59.0862 80.2787 57.6542C76.1871 54.8924 70.3567 53.3581 62.8897 52.8466L60.4348 52.7443L61.4576 50.6986C64.8332 43.9476 64.9354 35.7645 61.6622 28.9112C59.2073 23.6945 54.3998 19.0915 49.1831 16.9435C46.1144 15.6137 42.7389 15 39.568 15C38.9542 15 38.3405 15 37.8291 15.1023C27.2934 16.0229 18.292 23.6945 15.7348 33.821ZM82.0176 72.6905C82.0176 73.4066 81.9153 74.0203 81.7107 74.5317C81.5061 75.0432 81.097 75.5546 80.5855 76.1683C79.1535 77.7027 77.3123 78.8278 74.4482 79.8507C70.6636 81.2827 65.7537 81.9988 60.6393 81.9988C55.6272 81.9988 50.8197 81.2827 47.035 79.953C45.0915 79.237 43.3526 78.4187 42.0229 77.3958C40.6931 76.4752 39.7725 75.4523 39.4657 74.5317L39.2611 74.0203C39.1588 73.4066 39.0565 72.8951 39.0565 72.6905C39.0565 72.3837 39.0565 72.1791 39.0565 71.9745C39.0565 71.7699 39.1588 71.6677 39.2611 71.5654C39.3634 71.4631 39.4657 71.3608 39.6703 71.3608C39.8748 71.3608 39.9771 71.3608 40.1817 71.4631C40.284 71.5654 40.5908 71.7699 40.8977 71.9745C44.3755 74.2249 49.3876 75.8615 55.6272 76.4752C56.5478 76.5775 58.4913 76.6798 60.7416 76.6798H60.8439C62.992 76.6798 64.9354 76.5775 65.856 76.4752C67.9018 76.2706 70.3567 75.8615 71.9933 75.4523H72.0956C75.062 74.7363 78.7443 73.202 80.4832 71.9745L82.2221 70.7471V72.6905H82.0176ZM39.2611 63.5869L39.4657 63.0754C40.4886 61.2343 42.8412 59.4954 46.4213 58.1656C46.7281 58.0633 47.035 57.961 47.3419 57.8587C47.4442 57.8587 47.6487 57.7565 47.751 57.7565C47.8533 57.7565 48.0579 57.7565 48.2625 57.8587C48.2625 57.8587 48.3648 57.961 48.5693 58.0633L49.1831 58.4725C49.6945 58.8816 50.4105 59.3931 51.3311 60.0068C53.1723 61.3365 55.6272 63.0754 58.2867 65.0189C60.9462 66.8601 63.4011 68.7013 65.2423 70.031C66.1629 70.6448 66.8789 71.1562 67.2881 71.5654C67.4926 71.7699 67.6972 71.8722 67.9018 71.9745L68.0041 72.0768L68.1064 72.1791C68.1064 72.1791 68.1064 72.1791 68.2087 72.2814C68.2087 72.2814 68.2087 72.3837 68.311 72.3837C68.311 72.486 68.4132 72.486 68.4132 72.5882C68.4132 72.5882 68.4132 72.6905 68.4132 72.7928L68.311 72.8951L68.0041 73.202H67.9018C67.9018 73.202 67.7995 73.202 67.6972 73.202C67.5949 73.202 67.3904 73.3043 67.1858 73.3043C66.8789 73.3043 66.3675 73.4066 65.7537 73.5088C64.5263 73.6111 63.0943 73.7134 61.9691 73.7134C61.4576 73.7134 60.9462 73.7134 60.4348 73.7134C56.4455 73.7134 52.5586 73.202 49.0808 72.2814C45.0915 71.1562 42.1252 69.6219 40.3863 67.7807C39.6703 67.0647 39.2611 66.3487 39.1588 65.6326C38.9542 64.9166 38.9542 64.3029 39.2611 63.5869ZM61.7645 56.0176C63.1965 56.0176 65.0377 56.1199 65.9583 56.2221L66.3675 56.3244C70.7659 56.9382 73.9368 57.8587 76.8009 59.2908C78.4375 60.1091 79.1535 60.6205 80.1764 61.6434C80.7901 62.2571 81.097 62.7686 81.4038 63.28C81.7107 63.7915 81.813 64.4052 81.813 65.0189C81.813 65.6327 81.7107 66.1441 81.4038 66.7578C81.1993 67.2693 80.7901 67.6784 80.1764 68.2921L79.8695 68.599C78.5398 69.8265 76.3917 70.9516 74.1414 71.8722L73.1185 72.2814H73.0162L62.8897 65.0189C58.7981 62.0526 56.1387 60.2114 54.7066 59.0862C53.9906 58.5748 53.5814 58.2679 53.3769 58.0633C53.2746 57.961 53.1723 57.8588 53.07 57.6542C53.07 57.245 52.9677 57.0404 53.07 56.8359C53.1723 56.6313 53.2746 56.529 53.4792 56.4267C53.6837 56.4267 53.9906 56.3244 54.7066 56.2221C55.3203 56.1199 56.0364 56.1199 57.4684 55.9153C58.1844 55.9153 60.2302 55.9153 61.7645 56.0176ZM55.1158 26.354C55.2181 26.2517 55.3204 26.1494 55.3204 26.1494L55.4226 26.0471L55.5249 25.9448H55.6272C55.6272 25.9448 55.7295 25.9448 55.8318 25.9448C55.9341 25.9448 56.0364 25.9448 56.1387 26.0471L56.2409 26.1494L56.3432 26.2517C56.4455 26.354 56.5478 26.4563 56.6501 26.6609C62.1737 34.1279 62.5828 43.9476 57.5707 51.6192C57.3661 51.926 57.1615 52.2329 56.957 52.5398C56.8547 52.6421 56.7524 52.7443 56.6501 52.8466C56.5478 52.9489 56.4455 53.0512 56.2409 53.1535C56.1387 53.1535 56.0364 53.2558 55.9341 53.2558C55.8318 53.2558 55.6272 53.3581 55.5249 53.3581C55.2181 53.3581 54.9112 53.4604 54.502 53.4604H54.3998L54.2975 53.1535V53.2558C52.2517 53.4604 49.1831 54.0741 47.035 54.7901C42.6366 56.1198 39.3634 58.0633 37.5222 60.416L37.0108 61.0297L35.2719 60.7228C32.1009 60.1091 28.7254 58.5748 26.1682 56.529L25.9636 56.3244V56.2221C25.9636 56.1199 25.9636 55.9153 25.9636 55.813C26.0659 55.6084 26.1682 55.4038 26.2705 55.3015C26.5774 54.9947 27.0888 54.381 28.0094 53.4604C29.8506 51.5169 33.4307 47.9368 40.5908 40.7766C44.6824 36.6851 48.3648 33.0027 51.0242 30.3432C52.354 29.0135 53.4792 27.8883 54.1952 27.1723C54.6043 26.8654 54.9112 26.5586 55.1158 26.354ZM40.4886 18.1709C41.716 18.2732 42.8412 18.3755 43.3526 18.4778C46.5236 19.0915 50.3082 20.7281 52.7631 22.6716L53.5815 23.3876L53.07 23.8991L38.4428 38.6286C31.2826 45.7887 27.7025 49.3688 25.7591 51.3123C24.8385 52.2329 24.2247 52.7443 23.9179 53.0512C23.8156 53.1535 23.611 53.2558 23.4064 53.3581C23.3041 53.3581 23.3041 53.3581 23.2019 53.3581C23.0996 53.3581 23.0996 53.3581 22.9973 53.3581C22.7927 53.2558 22.6904 53.1535 22.6904 53.1535C22.0767 52.3352 20.8492 50.494 20.4401 49.5734C18.292 45.2773 17.576 40.4698 18.4966 35.8668L18.5989 35.5599C20.2355 27.8883 26.0659 21.5464 33.533 19.1938L34.1467 18.9892C35.2719 18.6824 35.9879 18.5801 38.0336 18.2732C38.3405 18.0686 39.2611 18.0686 40.4886 18.1709Z" fill="#61A1F4"/>
</svg>
