<svg width="100" height="100" viewBox="0 0 100 100" fill="none" xmlns="http://www.w3.org/2000/svg">
<path d="M50.4744 26.3052C50.4744 26.3052 85.5884 44.4286 55.932 72.3345L57.1677 73.1583L65.9204 68.4215L70.7602 61.8312L73.9524 54.1082C73.9524 54.1082 74.2613 45.0465 73.9524 44.7375C73.6435 44.4286 69.7305 37.9413 69.7305 37.9413L65.9204 31.042L59.2271 26.8201L55.1082 25.4814L50.4744 26.3052Z" fill="#D9EBFF"/>
<path d="M66.5385 51.2246C66.9504 51.5335 67.1563 51.6365 68.392 51.6365C69.7307 51.6365 69.8337 51.6365 70.3485 51.1216C70.7604 50.7097 70.8634 50.2978 70.7604 49.7829C70.6574 49.2681 70.3485 48.8562 69.8337 48.5473C69.5247 48.4443 68.7009 48.3413 68.2891 48.3413C67.0534 48.3413 66.9504 48.3413 66.4355 48.8562C65.9207 49.371 65.9207 49.474 65.9207 50.0919C66.0236 50.6067 66.2296 51.0186 66.5385 51.2246Z" fill="#61A1F4"/>
<path d="M51.6071 45.3549C50.6803 45.0459 49.2387 45.0459 48.3119 45.3549L47.797 45.5608L45.5316 43.3984C44.7078 42.5746 43.0602 41.03 42.8543 40.927C42.2364 40.6181 41.5156 40.721 41.0008 41.2359C40.4859 41.7508 40.3829 42.4716 40.6918 43.0894C40.7948 43.3984 42.3394 44.943 43.1632 45.7668L45.3257 47.9292L45.1197 48.4441C44.5019 50.1946 45.0167 52.2541 46.3554 53.4898C47.2822 54.4166 48.5178 54.9314 49.8565 54.9314C50.4743 54.9314 51.0922 54.8284 51.6071 54.6225C52.7398 54.2106 53.9755 52.9749 54.3873 51.8422C54.7992 50.8125 54.7992 49.3708 54.4903 48.4441L54.2844 47.9292L58.9182 43.2954C63.758 38.4556 63.758 38.1467 63.8609 38.0437C64.0669 37.3229 63.552 36.4991 62.9342 36.1902C62.3163 35.8813 62.2134 35.8813 61.5955 36.1902C61.2866 36.3961 58.4033 39.1764 56.4468 41.03L52.019 45.5608L51.6071 45.3549ZM50.8862 48.547C51.4011 48.856 51.6071 49.3708 51.6071 49.9887C51.6071 50.6065 51.2981 51.1214 50.7833 51.3273C50.2684 51.6363 49.5476 51.6363 49.0327 51.3273C48.5178 51.0184 48.2089 50.5035 48.2089 49.8857C48.2089 49.3708 48.3119 48.9589 48.6208 48.65C48.9297 48.3411 49.3416 48.2381 49.8565 48.2381C50.2684 48.3411 50.5773 48.4441 50.8862 48.547Z" fill="#61A1F4"/>
<path d="M59.0213 19.5089C59.1242 19.5089 59.2272 19.5089 59.3302 19.5089C59.948 19.5089 60.4629 19.1999 60.6689 18.6851C60.9778 18.0672 60.8748 17.3464 60.3599 16.8315C59.7421 16.2137 58.9183 16.2137 58.1975 16.8315C57.7856 17.2434 57.6826 17.4494 57.6826 17.9643C57.7856 18.6851 58.3005 19.4059 59.0213 19.5089Z" fill="#61A1F4"/>
<path d="M50.6804 33.7192C51.4012 33.3073 51.5041 32.8954 51.5041 31.4538C51.5041 30.1151 51.5041 30.0121 50.9893 29.6002C50.4744 29.0854 49.5476 28.9824 48.9298 29.3943C48.312 29.9092 48.209 30.424 48.209 31.5567C48.209 32.7924 48.209 32.8954 48.7239 33.4103C49.0328 33.7192 49.4447 33.9251 49.7536 33.9251C50.1655 33.9251 50.4744 33.9251 50.6804 33.7192Z" fill="#61A1F4"/>
<path d="M49.2388 66.1561C48.518 66.465 48.312 67.0829 48.312 68.4215C48.312 69.7602 48.312 69.8631 48.8269 70.378C49.1358 70.6869 49.5477 70.8929 49.9596 70.8929C50.0626 70.8929 50.1655 70.8929 50.1655 70.8929C50.6804 70.7899 51.0923 70.481 51.4012 69.9661C51.5042 69.6572 51.6072 68.8334 51.6072 68.4215C51.6072 67.1858 51.6072 67.0829 51.0923 66.568C50.4745 66.0531 49.9596 65.9501 49.2388 66.1561Z" fill="#61A1F4"/>
<path d="M31.4244 48.3413C30.0858 48.3413 29.9828 48.3413 29.5709 48.8562C28.953 49.474 28.953 50.4008 29.4679 51.0186C29.8798 51.4305 30.2917 51.6365 31.1155 51.6365C31.3214 51.6365 31.5274 51.6365 31.7333 51.6365C32.7631 51.6365 32.969 51.5335 33.3809 51.0186C33.8958 50.4008 33.9988 49.8859 33.5869 49.1651C33.2779 48.4443 32.866 48.3413 31.4244 48.3413Z" fill="#61A1F4"/>
<path d="M77.8655 28.7763H78.5863C79.822 28.7763 80.5428 28.6733 80.9547 27.8495C81.3666 27.0258 81.0577 26.202 80.3369 25.7901C79.925 25.5841 79.3071 25.5841 76.9387 25.5841H73.9525L72.9228 26.5109V29.7031C72.9228 32.8953 72.9228 32.8953 73.3347 33.3072C73.8495 33.822 74.6733 34.028 75.1882 33.7191C75.909 33.3072 76.1149 32.8953 76.1149 31.7625V31.5566C76.7328 32.3804 78.3804 35.1607 78.9982 36.3964C80.3369 39.1767 81.2636 42.3688 81.6755 45.4581C81.8815 46.5908 81.8815 47.8265 81.8815 49.9889C81.8815 53.2841 81.6755 54.9317 80.9547 57.9179C79.5131 63.4785 76.7328 68.3183 72.6138 72.4372C68.4949 76.5562 63.5521 79.3364 58.0945 80.7781C55.2113 81.4989 53.5637 81.7048 50.1656 81.7048C46.9734 81.7048 45.4288 81.4989 42.5455 80.8811C36.8819 79.5424 31.3213 76.3502 27.3054 72.1283C22.6715 67.1855 19.6853 61.316 18.6556 54.6227C18.3466 52.4603 18.3466 47.6205 18.6556 45.4581C18.9645 43.7075 19.6853 40.8242 20.2002 39.3826C23.8043 29.2912 32.4541 21.5681 42.7514 19.0968C45.8407 18.376 49.2388 18.17 53.4607 18.376L54.7994 18.4789L55.3142 17.9641C55.6232 17.5522 55.8291 17.1403 55.7261 16.6254C55.6232 16.2135 55.4172 15.8016 55.0053 15.4927C54.3875 15.0808 49.6507 14.8748 47.4882 15.0808C39.8682 15.8016 33.6897 18.273 28.1292 22.8038C21.024 28.3644 16.3901 36.4993 15.1545 45.664C14.9485 47.4146 14.9485 52.6662 15.1545 54.4168C16.2872 62.3458 19.6853 69.142 25.2459 74.7026C31.9392 81.3959 40.8979 85 49.9596 85C54.3875 85 58.8154 84.1762 63.0373 82.4257C69.5246 79.8513 75.2912 75.1145 79.3071 69.0391C83.2201 63.1696 85.1766 55.9614 84.8677 48.8562C84.5588 41.4421 82.3963 35.1607 77.8655 28.7763Z" fill="#61A1F4"/>
<path fill-rule="evenodd" clip-rule="evenodd" d="M46.9734 24.2456C43.3694 24.6575 39.8683 25.8931 37.088 27.5407C35.0285 28.7764 30.3947 32.2775 27.5114 37.1173C24.9371 41.5452 23.7014 47.3117 24.2162 52.4604C24.8341 58.7418 27.5114 64.3024 32.0422 68.6273C35.9552 72.3343 40.2801 74.5997 45.7378 75.5265C48.1062 75.9384 51.8132 75.9384 54.2846 75.5265C59.9481 74.4968 64.6849 72.0254 68.5979 67.9064C72.408 63.9934 74.5704 59.5656 75.4972 54.2109C75.9091 51.7396 75.9091 48.1355 75.4972 45.6641C74.5704 40.3095 72.305 35.8816 68.5979 31.9686C64.6849 27.9526 59.8452 25.3783 54.3876 24.3485C52.2251 24.1426 48.827 24.0396 46.9734 24.2456ZM45.6348 27.1288C42.9575 27.7467 40.5891 28.6734 37.8088 30.218C34.6166 32.1745 31.3214 36.1905 30.0857 38.044C28.8501 40.1035 27.8203 42.7808 27.3055 45.2522C24.8341 57.6091 32.3512 69.554 44.5021 72.5403C50.9894 74.1879 57.8887 72.8492 63.4492 68.9362C65.0968 67.8035 67.7741 65.1262 68.9069 63.4786C69.9366 62.1399 71.3782 59.2566 71.8931 57.712C72.408 56.1674 72.9228 53.799 73.1288 51.8425C73.5407 46.6938 71.9961 41.0303 68.9069 36.7054C65.3028 31.6597 60.2571 28.4675 53.9757 27.2318C52.0192 26.7169 47.4883 26.7169 45.6348 27.1288Z" fill="#61A1F4"/>
</svg>
