<svg width="100" height="100" viewBox="0 0 100 100" fill="none" xmlns="http://www.w3.org/2000/svg">
<path d="M32.7244 30.1821C32.7244 30.1821 39.8442 35.2079 39.1113 42.7466C38.3784 50.2853 37.4361 54.1594 35.0279 55.6252L33.2479 56.3582L34.0855 61.8028C34.0855 61.8028 42.1477 62.7451 42.043 72.2732L44.3465 73.739L45.7077 70.5979L44.4512 67.9803L40.996 61.6981L42.043 59.1852L38.7972 57.5099L36.389 59.1852L36.4937 55.6252L40.7866 51.9606L44.1371 46.0972L42.3571 37.1973L41.5195 33.0091L37.1219 30.8104L32.7244 30.1821Z" fill="#D9EBFF"/>
<path d="M67.6955 30.9148C67.6955 30.9148 72.6166 35.9406 72.5119 41.6993C72.4072 47.3533 70.6272 53.112 68.4284 54.5779L65.9155 54.9967L67.2767 60.9648C67.2767 60.9648 81.0976 59.499 81.307 78.4504L82.3541 76.1469V64.6295L77.9565 59.3943L75.3389 60.2319L72.9307 60.0225L71.1507 58.4519L69.1614 55.6249L74.606 50.3897L75.7577 47.2486L74.7107 39.6052L74.1872 33.5324L71.1507 30.8101L67.6955 30.9148Z" fill="#D9EBFF"/>
<path d="M50.0007 54.2637C50.0007 54.2637 56.283 61.593 52.3042 69.3411L50.5243 69.8646L51.3619 74.3669C51.3619 74.3669 62.0417 76.0421 61.4135 82.9526L62.7746 82.5338L63.5076 77.9268L60.6806 75.0998L57.2253 73.8433L53.3513 73.2151L53.7701 69.3411L55.8642 66.6188L56.8065 61.3835L55.8642 58.2424L54.503 55.3107L50.0007 54.2637Z" fill="#D9EBFF"/>
<path d="M83.6107 79.1837V74.472C83.6107 72.1685 83.6107 69.9698 83.6107 67.6663C83.6107 65.1534 82.8778 63.164 81.3072 61.4887C81.2025 61.384 81.2025 61.2793 81.2025 61.1746V60.9652L81.4119 60.7558C83.6107 59.7087 84.3437 57.7194 84.8672 55.6253C85.0766 54.9971 84.8672 54.5782 84.2389 54.2641C84.1342 54.2641 84.0295 54.1594 83.9248 54.1594C83.8201 54.1594 83.7154 54.0547 83.6107 54.0547C80.5743 52.903 78.6896 51.2277 77.6426 48.8195C77.1191 47.6678 76.9097 46.4113 76.9097 44.8408V43.7937C76.9097 41.6996 76.9097 39.6056 76.4908 37.5115C75.3391 32.0669 71.9886 28.821 66.9628 28.5069C62.5652 28.1928 59.2147 29.8681 57.0159 33.5327C56.0735 35.208 55.4453 36.8833 55.3406 38.7679C55.2359 40.2338 55.1312 41.8043 55.1312 43.2702C55.1312 44.0031 55.1312 44.8408 55.0265 45.5737C54.9218 48.1913 53.7701 50.3901 51.7807 52.0653C51.4666 52.2748 51.0477 52.3795 50.7336 52.3795C47.1737 51.9606 44.4514 53.2171 42.462 56.1488C42.3573 56.3582 42.2526 56.5676 42.1479 56.777C41.9385 57.1958 41.7291 57.7194 41.3103 57.8241C40.7867 58.0335 40.2632 57.7194 39.7397 57.51C39.5303 57.4053 39.4256 57.4053 39.2162 57.3006C39.1115 57.3006 39.1115 57.3006 39.0068 57.3006C38.7974 57.3006 38.2739 57.1958 38.1691 56.5676C38.0644 55.9394 38.4833 55.6253 38.9021 55.4159C42.3573 53.1124 44.242 49.9713 44.3467 45.8878C44.3467 44.3172 44.3467 42.7467 44.3467 41.1761V40.2338C44.3467 34.0562 39.9491 29.3446 33.7716 28.7163C27.8034 28.0881 22.2541 32.4857 21.5212 38.3491C21.3118 40.2338 21.3118 42.2232 21.3118 44.1078C21.3118 44.5267 21.3118 45.0502 21.3118 45.469C21.3118 49.7619 23.1965 53.1124 26.8611 55.4159C27.594 55.8347 27.4893 56.3582 27.3846 56.6723C27.1752 57.0911 26.6517 57.3006 26.547 57.3006C25.8141 57.51 25.0811 57.7194 24.3482 58.0335C22.9871 58.4523 21.5212 58.8711 20.2647 59.3946C17.4377 60.5464 15.7625 62.5358 15.2389 65.3628C15.2389 65.5722 15.1342 65.7816 15.1342 65.991L15.0295 66.3051V79.6025C15.3437 80.126 15.7625 80.3355 16.4954 80.3355C20.893 80.3355 25.1858 80.3355 29.5834 80.3355H35.028V81.2778C35.028 81.6966 35.028 82.0107 35.028 82.4295C35.028 83.3719 35.4468 83.686 36.2845 83.686C36.9127 83.686 37.4362 83.686 38.0644 83.686H38.6927H39.9491C40.9962 83.686 42.0432 83.686 43.0902 83.686C43.5091 83.686 43.8232 83.4766 44.0326 83.2672C44.242 83.0578 44.242 82.7436 44.242 82.4295C44.1373 81.6966 43.4043 81.5919 42.9855 81.5919C42.0432 81.5919 41.1009 81.5919 40.1585 81.5919H38.1691C37.9597 81.5919 37.855 81.5919 37.6456 81.5919H37.0174V81.2778C37.0174 81.0684 37.0174 80.859 37.0174 80.5449C37.0174 80.0213 37.1221 79.6025 37.1221 79.1837C37.3315 77.6131 37.9597 76.3567 39.1115 75.6238C40.3679 74.6814 41.8338 74.2626 43.2996 73.8438C43.6138 73.7391 43.9279 73.6344 44.242 73.5297L44.5561 73.425L44.6608 73.6344C45.7078 75.8332 47.2784 76.8802 49.3725 76.8802C51.5713 76.8802 53.1418 75.7285 54.0842 73.5297L54.1889 73.2156L54.503 73.3203C54.9218 73.5297 55.4453 73.6344 55.8641 73.8438C56.9112 74.2626 57.8535 74.5767 58.9006 75.1002C60.8899 76.1473 62.0417 78.8696 61.5182 81.2778V81.8013H59.7382C59.2147 81.8013 58.6911 81.8013 58.1676 81.8013C57.4347 81.8013 56.7018 81.8013 55.8641 81.8013C55.0265 81.8013 54.503 82.2201 54.503 82.8484C54.503 83.7907 55.3406 83.8954 55.8641 83.8954C58.0629 83.8954 60.2617 83.8954 62.5652 83.8954C63.5075 83.8954 63.8216 83.4766 63.8216 82.6389C63.8216 82.2201 63.8216 81.906 63.8216 81.4872V80.6496H82.1449C83.2966 80.6496 83.6107 80.3355 83.6107 79.1837ZM75.8626 50.3901L76.072 50.8089C77.3285 53.0077 79.3179 54.6829 82.2496 56.0441L82.459 56.1488V56.3582C81.9355 58.2429 80.4696 59.4993 78.5849 59.4993C78.3755 59.4993 78.2708 59.4993 78.1661 59.3946C77.5379 59.1852 77.0144 58.9758 76.4908 58.8711C75.1297 58.4523 73.6638 57.9288 72.3027 57.51C71.5698 57.3005 71.4651 56.8817 71.3603 56.3582C71.2556 55.1018 71.7792 54.3688 72.6168 53.7406C73.4544 53.1124 74.0826 52.3795 74.8156 51.6465C75.1297 51.3324 75.4438 51.0183 75.7579 50.5995L75.8626 50.3901ZM57.2253 41.0714C57.4347 38.3491 57.9582 35.208 60.5758 32.6951C62.2511 31.1245 65.1828 30.3916 67.8004 30.9151C70.3133 31.4386 72.3027 32.9045 73.3497 35.208C74.1874 36.8833 74.6062 38.7679 74.7109 41.1761V41.3855L74.5015 41.4902C73.8732 41.6996 73.245 41.6996 72.6168 41.6996C70.3133 41.6996 68.3239 40.5479 67.0675 38.4538C66.7534 37.9303 66.3345 37.6162 65.9157 37.6162C65.4969 37.6162 65.1828 37.9303 64.8687 38.4538C63.4028 41.0714 60.5758 42.2232 57.4347 41.4902L57.2253 41.3855V41.0714ZM57.2253 44.0031L57.33 43.689H57.6441C61.0993 44.1078 63.7169 43.1655 65.7063 40.9667L65.9157 40.6526L66.1251 40.9667C68.1145 43.2702 70.7321 44.1078 74.1874 43.689H74.5015L74.6062 44.0031C75.3391 46.8301 73.6638 50.4948 70.9415 52.4842C69.4757 53.5312 67.6957 54.0547 65.9157 54.0547C64.2405 54.0547 62.5652 53.5312 61.0993 52.5889C58.2723 50.7042 56.5971 47.0395 57.2253 44.0031ZM69.1616 55.6253V56.0441C69.1616 56.3582 69.1616 56.6723 69.1616 56.9864C69.1616 57.7194 69.1616 58.3476 68.9521 58.9758C68.638 60.337 67.3816 61.1746 66.0204 61.1746C65.9157 61.1746 65.7063 61.1746 65.6016 61.1746C64.0311 60.9652 62.8793 59.7087 62.8793 58.1382C62.8793 57.6147 62.8793 57.1958 62.8793 56.6723V55.5206L63.2981 55.6253C65.1828 56.0441 66.9628 56.0441 68.9521 55.6253H69.1616ZM56.1783 50.2854L56.3877 50.5995C56.4924 50.7042 56.5971 50.9136 56.7018 51.0183C56.9112 51.3324 57.1206 51.6465 57.33 51.8559C58.2723 52.7983 59.11 53.6359 59.9476 54.2641C60.2617 54.5782 60.5758 54.8924 60.5758 55.5206C60.5758 55.8347 60.5758 56.1488 60.5758 56.5676C60.5758 56.777 60.5758 56.8817 60.5758 57.0911V57.3006L57.4347 58.1382V57.9288C56.7018 56.1488 55.55 54.7877 53.9795 53.8453L53.6654 53.6359L56.1783 50.2854ZM43.2996 59.7087C43.4043 57.1958 46.022 54.7877 48.9537 54.5782C52.0948 54.3688 55.0265 56.4629 55.6547 59.7087L55.7594 60.337L55.2359 60.1276C51.3619 58.4523 47.5925 58.4523 43.7185 60.1276L43.2996 60.337V59.7087ZM27.3846 32.6951C30.5257 30.4963 34.0857 30.2869 37.5409 32.2763C40.7867 34.1609 42.5667 37.8256 42.0432 41.8043V42.1185H41.7291C41.415 42.1185 41.1009 42.1185 40.7867 42.1185C37.4362 42.1185 33.7716 41.6996 30.421 39.6056C29.4787 39.082 29.1646 39.082 28.5364 39.9197C27.3846 41.2808 25.8141 41.6996 23.8247 41.909H23.5106V41.5949C23.0918 37.7209 24.4529 34.6845 27.3846 32.6951ZM23.4059 44.4219V44.2125H23.6153C23.9294 44.1078 24.3482 44.1078 24.6623 44.0031C25.3952 43.8984 26.1282 43.689 26.7564 43.4796C27.2799 43.2702 27.8034 42.9561 28.327 42.642C28.6411 42.4326 28.9552 42.3279 29.1646 42.1185C29.374 42.0138 29.7928 41.8043 30.1069 42.0138C33.1433 43.5843 36.5986 44.3172 41.1009 44.2125C41.2056 44.2125 41.3103 44.2125 41.5197 44.2125H42.0432V44.5267C42.3573 48.5054 40.9962 51.4371 37.9597 53.5312C36.2845 54.6829 34.5045 55.2065 32.7245 55.2065C31.154 55.2065 29.4787 54.7877 27.9081 53.8453C24.6623 51.8559 23.0918 48.7148 23.4059 44.4219ZM34.6092 60.6511C33.981 61.0699 33.3528 61.2793 32.7245 61.2793C32.201 61.2793 31.6775 61.1746 31.154 60.8605C29.8975 60.1276 29.374 58.9758 29.5834 57.4053V57.0911H35.761L35.8657 57.3006C36.1798 58.6617 35.6562 59.9182 34.6092 60.6511ZM44.4514 71.1215C44.3467 71.4356 43.9279 71.645 43.5091 71.7497C42.9855 71.9591 42.462 72.0638 42.0432 72.2732C41.2056 72.5873 40.2632 72.9015 39.4256 73.2156C37.4362 74.1579 36.0751 75.7285 35.4468 77.8226C35.3421 78.032 35.1327 78.4508 34.7139 78.4508C32.4104 78.4508 30.2116 78.4508 27.9081 78.4508C27.3846 78.4508 26.8611 78.4508 26.4423 78.4508H24.5576V75.6238C24.5576 74.6814 24.5576 73.7391 24.5576 72.9015C24.5576 72.3779 24.4529 72.0638 24.2435 71.8544C24.0341 71.645 23.8247 71.5403 23.5106 71.5403C22.6729 71.5403 22.4635 72.2732 22.4635 72.9015C22.4635 73.9485 22.4635 74.9955 22.4635 76.0426V78.4508H17.2283V77.9273C17.2283 77.7178 17.2283 77.6131 17.2283 77.4037C17.2283 76.3567 17.2283 75.4144 17.2283 74.3673C17.2283 72.1685 17.2283 69.9697 17.2283 67.771C17.2283 64.6298 18.5895 62.5358 21.3118 61.384C22.6729 60.8605 24.0341 60.4417 25.3952 60.0229C26.0235 59.8134 26.6517 59.604 27.2799 59.3946L27.594 59.2899L27.6987 59.604C28.7458 62.1169 30.421 63.3734 32.8292 63.3734H32.9339C35.2374 63.3734 36.9127 62.1169 37.9597 59.7087L38.0644 59.4993L41.2056 60.337V60.5464C41.2056 60.8605 41.2056 61.2793 41.2056 61.5934C41.2056 62.3263 41.2056 63.164 41.2056 64.0016C41.415 66.0957 42.3573 67.8757 44.1373 69.3415C44.6608 69.9697 44.5561 70.598 44.4514 71.1215ZM51.3619 74.3673C50.8383 74.7861 50.1054 74.9955 49.4772 74.9955C48.9537 74.9955 48.4301 74.8908 48.0113 74.5767C46.9643 73.9485 46.5455 72.7968 46.7549 71.5403V71.3309H52.0948L52.1995 71.5403C52.5136 72.4826 52.1995 73.6344 51.3619 74.3673ZM49.3725 69.2368C46.1267 69.2368 43.5091 66.8286 43.0902 63.5828C42.9855 63.0593 43.1949 62.7452 43.6138 62.5358C45.3937 61.4887 47.2784 60.9652 49.3725 60.9652C51.4666 60.9652 53.3512 61.4887 55.1312 62.5358C55.6547 62.8499 55.7594 63.164 55.7594 63.6875C55.3406 66.9333 52.723 69.2368 49.3725 69.2368ZM81.4119 74.7861C81.4119 75.9379 81.4119 76.9849 81.4119 78.1367V78.4508H76.2814V73.1109C76.2814 72.9015 76.2814 72.6921 76.2814 72.5873C76.1767 71.9591 75.7579 71.5403 75.2344 71.5403C74.6062 71.5403 74.1874 71.9591 74.1874 72.5873C74.1874 73.7391 74.1874 74.8908 74.1874 76.0426V78.3461H73.6638C73.5591 78.3461 73.3497 78.3461 73.245 78.3461H70.1039C68.2192 78.3461 66.4393 78.3461 64.5546 78.3461C64.1358 78.3461 63.7169 78.2414 63.6122 77.6131C62.984 75.4144 61.6229 73.8438 59.4241 72.9015C58.5864 72.5874 57.7488 72.2732 57.0159 71.9591C56.4924 71.7497 56.0735 71.645 55.55 71.4356C55.2359 71.3309 54.7124 71.1215 54.7124 70.7027C54.7124 70.0744 54.8171 69.5509 55.0265 69.2368C55.3406 68.9227 55.6547 68.5039 55.8641 68.1898C56.1782 67.8757 56.4924 67.4569 56.8065 67.1427C57.7488 65.7816 58.1676 64.0016 58.1676 62.0122C58.1676 60.0229 58.2723 59.9182 60.157 59.3946C60.2617 59.3946 60.4711 59.2899 60.5758 59.2899L60.9946 59.1852L61.0993 59.3946C62.1464 61.9075 63.9264 63.0593 66.3345 62.9546C68.638 62.8499 70.2086 61.6981 71.1509 59.2899L71.2556 59.0805L71.5698 59.1852C72.0933 59.2899 72.6168 59.4993 73.1403 59.604C75.1297 60.1276 77.2238 60.6511 79.0037 61.9075C80.679 62.9546 81.5166 64.5251 81.6213 66.3051C81.4119 69.4462 81.4119 72.1685 81.4119 74.7861Z" fill="#61A1F4"/>
<path d="M42.0433 24.8422C43.8233 26.6222 45.708 28.5068 47.5927 30.1821L49.3726 31.8574C49.8962 32.3809 50.4197 32.3809 50.9432 31.9621C51.5714 31.3338 52.3043 30.7056 52.9326 30.0774C54.8172 28.2974 56.8066 26.4127 58.5866 24.5281C59.9477 23.0622 60.3666 21.1775 59.7383 19.1882C59.1101 17.1988 57.6443 15.7329 55.6549 15.2094C53.7702 14.7906 51.9902 15.2094 50.4197 16.4659L50.2103 16.5706L49.6867 16.1517C48.6397 15.3141 47.3833 15 46.1268 15C44.5562 15 42.9857 15.6282 41.8339 16.8847C39.7399 19.2929 39.8446 22.7481 42.0433 24.8422ZM43.5092 18.3505C44.8704 16.9894 47.0691 16.8847 48.535 18.2458C48.6397 18.3505 48.8491 18.4552 48.9538 18.6646L49.0585 18.7693C49.8961 19.607 50.315 19.5023 51.1526 18.7693L51.362 18.5599C51.4667 18.4552 51.6761 18.2458 51.7808 18.1411C53.2467 16.8847 55.4455 16.9894 56.8066 18.3505C58.1678 19.7117 58.1678 21.9105 56.8066 23.2716C55.3408 24.7375 53.8749 26.2033 52.3043 27.6692C51.6761 28.2974 51.0479 28.9256 50.315 29.5539L50.1056 29.7633L49.8962 29.5539C49.2679 28.9256 48.535 28.2974 47.9068 27.6692C46.4409 26.308 44.8704 24.8422 43.5092 23.3763C42.0433 22.0152 42.0433 19.7117 43.5092 18.3505Z" fill="#61A1F4"/>
<path d="M49.4772 83.9998C50.1054 83.9998 50.5243 83.581 50.5243 82.9528C50.5243 82.6387 50.4196 82.4293 50.2101 82.2199C50.0007 82.0105 49.7913 81.9058 49.4772 81.9058C49.1631 81.9058 48.9537 82.0105 48.7443 82.2199C48.5349 82.4293 48.4302 82.6387 48.4302 82.9528C48.4302 83.4763 48.849 83.9998 49.4772 83.9998Z" fill="#61A1F4"/>
</svg>
