<svg width="100" height="100" viewBox="0 0 100 100" fill="none" xmlns="http://www.w3.org/2000/svg">
<path d="M21.0523 19.437C21.0523 19.437 16.4697 32.3516 36.154 57.3475L39.0702 69.1164L34.5918 64.3255L26.4681 53.5981L21.6772 45.4744L18.2403 38.184L15.949 28.8105L17.4071 22.4574L21.0523 19.437Z" fill="#D9EBFF"/>
<path d="M51.4636 46.9326C51.4636 46.9326 67.2944 51.0985 64.3782 66.9293H66.8778L68.7525 61.4094L68.0234 55.1604L63.3367 49.1197L57.9209 46.3077L53.13 45.5786L51.4636 46.9326Z" fill="#D9EBFF"/>
<path d="M28.0301 16C28.7592 16.2083 29.3841 16.3124 30.1131 16.5207C32.5086 17.2498 34.3833 18.7079 35.9455 20.5826C38.7576 24.0195 41.5696 27.4565 44.6941 30.6851C49.485 35.7884 55.4215 39.1212 61.9829 41.5167C70.0025 44.537 75.0016 52.869 74.1684 61.4092C73.7518 65.7835 71.9813 69.6371 68.961 72.8657C68.2319 73.5947 67.3987 73.5948 66.878 72.6574C66.5655 72.0325 66.7738 71.6159 67.1904 71.0952C68.961 69.3246 70.2108 67.2416 70.9398 64.8462C74.2726 54.8478 67.3987 43.9121 56.8796 42.7665C47.402 41.725 39.1742 48.3905 38.1327 57.8682C37.0912 66.9292 43.5484 74.1155 50.7348 75.886C50.8389 75.886 51.0472 75.886 51.2555 75.9902C50.9431 75.0528 50.6306 74.2196 50.214 73.3864C50.1099 73.1782 49.7974 73.074 49.5891 72.9699C44.5899 70.991 41.4655 67.3458 40.6323 62.0341C39.4866 54.7437 43.8609 46.7241 52.1929 45.266C58.0252 44.2246 64.0659 46.8283 67.1904 52.0358C70.3149 57.035 70.0025 63.7005 66.3572 68.2831C65.7323 69.1163 65.3157 69.2205 64.6908 68.908C63.9618 68.4914 63.7535 67.7624 64.3784 67.0333C65.524 65.5752 66.2531 63.9088 66.6697 62.0341C68.1278 55.1603 63.441 48.5988 56.463 47.6615C51.568 47.0366 46.9854 49.2237 44.4858 53.3897C41.9862 57.764 42.2987 63.2839 45.2148 67.0333C46.4646 68.6997 48.131 69.8454 50.0057 70.6786C50.1099 70.5744 50.1099 70.4703 50.214 70.3661C51.0472 68.179 52.7136 66.9292 55.0049 66.825C58.8584 66.7209 61.6705 68.5956 63.9618 71.5118C65.1074 72.9699 65.7323 74.6362 65.6282 76.5109C65.524 79.2188 63.441 81.1977 60.4207 81.3018C58.1294 81.406 56.1506 80.5728 54.2759 79.323C53.8593 79.0105 53.3385 78.8022 52.9219 78.8022C48.2352 78.3856 44.2775 76.4068 40.9447 73.1782C35.7372 68.179 30.9463 62.8673 26.7804 56.8267C22.0936 50.1611 18.3442 43.0789 16.1571 35.1635C15.5322 32.8722 14.9073 30.5809 15.0114 28.1855C15.2197 22.978 18.6567 18.1871 23.3434 16.729C24.0725 16.5207 24.6974 16.4166 25.4264 16.2083C26.2596 16 27.0928 16 28.0301 16ZM53.1302 40.1627C52.8178 39.9544 52.7136 39.9544 52.6095 39.8503C48.2352 37.3507 44.3816 34.2262 40.9447 30.4768C38.341 27.5606 35.9455 24.5403 33.4459 21.6241C31.7795 19.6452 29.6965 18.4996 27.0928 18.4996C21.0521 18.2913 16.2612 23.9154 17.4069 29.9561C17.9276 32.7681 18.6567 35.5801 19.6982 38.1839C23.2393 47.8698 28.9675 56.4101 35.7372 64.2213C35.8414 64.3254 35.9455 64.3254 36.0497 64.4296C33.2376 52.5565 41.3613 41.3084 53.1302 40.1627ZM60.3165 78.6981C62.3995 78.6981 63.5452 77.3441 63.1286 75.2611C62.6078 72.1367 58.8584 69.1163 55.4215 69.1163C53.1302 69.1163 51.9846 70.4703 52.5053 72.6574C53.1302 75.6777 56.9838 78.6981 60.3165 78.6981Z" fill="#61A1F4"/>
<path d="M85 75.0521C84.271 78.1766 82.5004 80.3637 79.7925 82.0301C78.2303 82.9674 76.5639 83.4882 74.6892 83.4882C70.8357 83.384 68.5444 80.4679 69.4817 76.6143C70.6274 72.24 75.6266 68.6989 80.105 69.0114C82.3963 69.1155 84.271 70.6778 84.7917 72.9691C84.7917 73.0732 84.8959 73.1774 84.8959 73.2815C85 73.9064 85 74.4272 85 75.0521ZM79.4801 71.511C79.2718 71.511 79.1676 71.511 78.9593 71.511C78.751 71.511 78.5427 71.6151 78.3344 71.6151C75.21 72.4483 72.8145 74.323 71.9813 77.5517C71.4606 79.6347 72.6062 80.9886 74.6892 81.0928C77.9178 81.1969 81.7714 78.3849 82.6046 75.2604C83.0212 72.9691 81.7714 71.4068 79.4801 71.511Z" fill="#61A1F4"/>
<path d="M31.467 54.3267C31.3628 54.2225 30.9462 54.0142 30.7379 53.7018C27.7176 49.4317 25.218 44.8491 23.135 40.0582C22.8226 39.225 23.0309 38.6001 23.6558 38.3918C24.3848 38.0793 25.0097 38.3918 25.3221 39.225C26.9885 43.1827 29.0715 46.9321 31.467 50.5773C31.8836 51.2022 32.4043 51.8271 32.7168 52.5562C33.2375 53.2852 32.6126 54.3267 31.467 54.3267Z" fill="#61A1F4"/>
<path d="M23.3433 33.7053C23.3433 34.4343 23.0309 34.8509 22.5101 34.9551C21.8853 35.0592 21.3645 34.9551 21.1562 34.3302C20.7396 32.9762 20.4272 31.5181 20.1147 30.06C20.0106 29.4351 20.323 29.0185 20.9479 28.9144C21.5728 28.7061 22.1977 28.8102 22.3018 29.4351C22.7184 30.8932 23.0309 32.3513 23.3433 33.7053Z" fill="#61A1F4"/>
<path d="M60.0041 77.5525C57.5045 77.3442 54.38 74.8446 53.7551 72.4492C53.651 72.0326 53.651 71.616 53.7551 71.3036C53.8593 70.6787 54.2759 70.3662 55.0049 70.3662C55.6298 70.3662 56.0464 70.7828 56.1506 71.4077C56.463 73.2824 58.2336 74.8446 60.3165 75.1571C60.7331 75.2612 61.2539 75.5737 61.358 75.8861C61.4622 76.1986 61.358 76.8235 61.1497 77.1359C60.8373 77.3442 60.3165 77.4484 60.0041 77.5525Z" fill="#61A1F4"/>
<path d="M81.4588 74.3235C81.2505 74.9484 81.0422 75.5733 80.7298 76.094C79.48 78.0729 77.7094 79.4268 75.314 79.8434C74.1684 80.0517 73.5435 79.531 73.5435 78.5936C73.5435 77.9687 73.9601 77.448 74.6891 77.448C76.3555 77.3438 77.6053 76.4065 78.5426 75.0525C78.7509 74.7401 78.8551 74.4276 78.9592 74.1152C79.1675 73.1778 79.48 72.7612 80.3132 72.7612C80.9381 72.8654 81.3547 73.3861 81.4588 74.3235Z" fill="#61A1F4"/>
</svg>
