<svg width="120" height="120" viewBox="0 0 120 120" fill="none" xmlns="http://www.w3.org/2000/svg">
<circle cx="60" cy="60" r="60" fill="#F7FAFF"/>
<path d="M90.4998 92C91.2998 88.4 81.4998 71.5 76.4998 63.5C76.8332 63 77.5998 62 77.9998 62H79.9998L88.4998 76.5L93.9998 86L92.4998 89.5L90.4998 92Z" fill="#D9EBFF"/>
<path d="M65.4998 66C68.6998 62.8 66.1665 51.6667 64.4998 46.5H69.4998L71.4998 47L70.4998 49.5L71.4998 51.5V59L69.4998 65C66.8332 66.6667 62.2998 69.2 65.4998 66Z" fill="#D9EBFF"/>
<path d="M41.4998 53.5C43.4998 49.9 42.6665 44 41.9998 41.5L40 46L38 50.5L36 54L34.5 56.5L35.5 60.5L38 62V66L41.4998 69.5L44.5 71.5L48.5 69.5C45.5 68 41.9998 67 42.4998 64C42.9998 61 38.9998 58 41.4998 53.5Z" fill="#D9EBFF"/>
<path fill-rule="evenodd" clip-rule="evenodd" d="M54.2084 26.9482C53.3997 27.422 53.295 28.358 53.9746 29.0377C54.3773 29.4404 54.5296 29.5026 55.1117 29.5026C56.4375 29.5026 58.5053 30.0182 59.7998 30.6716C60.1383 30.8424 60.843 31.2646 61.3659 31.6098C62.4142 32.3017 62.5743 32.3305 63.719 32.0323C65.9375 31.4544 68.5768 32.1706 70.2318 33.7993C71.2937 34.8444 71.5866 35.4082 72.7437 38.6348C74.1844 42.6519 75.3692 45.0334 77.2134 47.6194L77.8971 48.5781L76.904 47.6592C75.5767 46.431 74.6835 46.0004 73.4165 45.9777C72.5586 45.9624 72.3755 45.91 71.8512 45.5301C71.5246 45.2936 70.91 44.9599 70.4855 44.7887L69.7136 44.4772L60.6549 44.4352C55.3175 44.4104 51.2043 44.4474 50.6422 44.5254C48.1336 44.873 46.251 46.6804 45.8511 49.1251C45.676 50.1958 45.6778 54.3329 45.8542 56.193C46.2649 60.5246 48.5774 64.42 52.1178 66.7443C52.9225 67.2727 52.9765 67.34 52.901 67.7199C52.7741 68.3589 52.1868 69.1356 51.5023 69.5697C50.9129 69.9434 50.8529 69.955 50.4853 69.765C50.2705 69.6538 49.8846 69.3784 49.6277 69.1528C48.8551 68.4744 48.5011 68.4157 47.4858 68.7979C46.3296 69.233 45.28 69.3542 44.2738 69.1688C42.039 68.7569 40.2423 67.0671 39.7136 64.8796C39.6266 64.5195 39.5641 63.7459 39.5748 63.16C39.5979 61.8886 39.475 61.6452 38.5576 61.146C36.769 60.1725 35.871 58.3537 36.1776 56.325C36.3467 55.2056 36.7392 54.5886 38.3223 52.9539C40.501 50.7041 41.2987 49.5914 42.0895 47.7001C42.7813 46.0459 42.9924 44.9136 43.1246 42.1512C43.299 38.5076 43.7228 36.826 44.9478 34.9165C45.8164 33.5626 45.7315 32.7322 44.6791 32.2925C43.7303 31.8961 43.0218 32.5337 41.884 34.8086C40.8609 36.8541 40.3828 39.3065 40.3825 42.5098C40.3823 44.8628 39.4978 47.4367 38.0857 49.1935C37.8136 49.5319 36.9371 50.4857 36.1377 51.313C35.3384 52.1403 34.5133 53.1117 34.3041 53.4716C32.5091 56.5606 33.4397 60.9677 36.3069 62.9547C36.7656 63.2724 36.8274 63.3817 36.8294 63.8777C36.8396 66.2655 38.4202 69.1518 40.456 70.5002C41.1173 70.9382 41.1128 71.0722 40.437 71.0722C39.0069 71.0722 36.4236 71.9645 34.8173 73.013C31.5593 75.1399 29.6554 78.3977 29.2934 82.4652C29.118 84.4365 29.2385 87.6119 29.533 88.7804C30.0776 90.9408 31.8713 93.1482 33.8595 94.1044C35.8312 95.0527 34.0733 94.9971 62.1367 94.9998C86.9511 95.0021 87.5381 94.9961 88.5692 94.7325C90.0986 94.3413 91.4137 93.5989 92.4985 92.5141C94.8916 90.121 95.5951 86.3403 94.2103 83.3156C94.0281 82.9175 91.4506 78.3538 88.4826 73.1741C85.5145 67.9944 83.0172 63.6251 82.9329 63.4646C82.7969 63.2055 82.8397 63.1331 83.3151 62.8185C86.3991 60.7776 87.4566 55.9291 85.4968 52.8171C85.26 52.4411 84.104 51.1797 82.928 50.0139C80.6434 47.7493 79.2812 46.0254 77.996 43.7723C76.8867 41.8276 76.3466 40.5951 75.1982 37.3888C74.0242 34.1108 73.6317 33.3829 72.3117 32.0359C70.1188 29.7979 66.827 28.6979 63.8667 29.2134L62.9588 29.3714L62.1951 28.8829C60.4443 27.7628 57.8944 26.9473 55.7659 26.8265C54.854 26.7748 54.4506 26.8064 54.2084 26.9482ZM48.4502 28.2317C47.6749 28.5152 47.3035 29.4815 47.7073 30.165C48.1819 30.9685 49.1855 31.1129 49.8282 30.4703C50.8264 29.4721 49.7666 27.7505 48.4502 28.2317ZM69.5427 47.3279C69.8483 47.4776 69.8441 47.6283 69.5214 48.0815C69.0837 48.6963 68.7813 49.9708 68.8708 50.8249C68.9166 51.2633 69.3071 52.5148 69.7909 53.7743L70.6313 55.9622L70.4754 57.872C70.3301 59.6525 70.288 59.8375 69.8524 60.6068C68.3496 63.2614 65.7787 65.2229 62.7398 66.0338C61.1981 66.4453 58.6662 66.4441 57.1333 66.0311C53.0609 64.9343 49.906 61.7783 48.8448 57.7399C48.6035 56.8211 48.5463 56.1095 48.4879 53.2957C48.4413 51.0495 48.4687 49.7608 48.5708 49.385C48.8699 48.2845 49.6252 47.529 50.6846 47.271C51.275 47.1272 69.2434 47.1813 69.5427 47.3279ZM73.9228 48.834C74.6187 49.1304 76.6632 51.2117 77.0168 51.9836C77.5468 53.1401 77.5747 53.7789 77.2561 57.4452L76.961 60.8408L75.2517 61.6339C74.3116 62.0701 73.5026 62.4033 73.4541 62.3746C73.4055 62.3458 73.2904 61.7918 73.1984 61.1435C73.0704 60.2413 73.0671 59.5863 73.1842 58.3522C73.4348 55.7132 73.43 55.6789 72.4485 53.0753C71.9596 51.7786 71.5597 50.5737 71.5597 50.3978C71.5597 49.8847 72.0216 49.1665 72.5253 48.8963C73.0828 48.5973 73.3405 48.5858 73.9228 48.834ZM83.2976 54.4835C83.93 55.7232 83.9097 57.2736 83.2411 58.7631C82.8935 59.5378 81.8796 60.6798 81.5394 60.6798C81.4595 60.6798 81.1601 60.4337 80.8739 60.1329C80.5877 59.832 80.2247 59.5859 80.0675 59.5859C79.823 59.5859 79.7904 59.5212 79.8441 59.1415C79.8786 58.8971 79.9947 57.6469 80.1022 56.3633C80.3534 53.3641 80.2085 52.2162 79.3771 50.616C79.1587 50.1958 79.5157 50.4906 81.0549 52.0012C82.1308 53.0571 83.1394 54.1735 83.2976 54.4835ZM85.6302 73.6962C91.9772 84.7713 92.2077 85.2257 92.2077 86.6609C92.2077 90.0243 89.0238 92.7378 85.7378 92.175C84.0022 91.8776 82.3704 90.6909 81.6339 89.1906C81.344 88.6001 73.1512 66.3992 73.0373 65.8959C72.9909 65.6909 79.2191 62.6962 79.3746 62.8487C79.4237 62.8968 82.2387 67.7781 85.6302 73.6962ZM70.4118 66.7326C70.8386 67.9008 70.9369 68.3151 70.8221 68.4614C70.6109 68.7301 68.8275 69.5681 68.4668 69.5681C67.9662 69.5681 66.9104 68.1465 66.9104 67.4724C66.9104 67.3679 67.2642 67.0612 67.6967 66.791C68.1292 66.5206 68.7599 66.0531 69.0983 65.7517C69.4367 65.4505 69.7444 65.2022 69.782 65.2C69.8196 65.1978 70.1031 65.8875 70.4118 66.7326ZM57.1333 68.8427C58.9256 69.2564 62.0033 69.1191 63.9854 68.537C64.227 68.4661 64.3114 68.5461 64.5047 69.0292C64.6316 69.3464 64.9205 69.8749 65.1466 70.2035C65.3728 70.5321 65.5162 70.8682 65.4655 70.9503C65.2486 71.3011 63.6335 72.1969 62.6137 72.5321C61.7045 72.8307 61.243 72.8971 60.0049 72.9066C58.697 72.9168 58.3438 72.8668 57.2966 72.5236C56.1924 72.1617 54.6307 71.3111 54.4077 70.9503C54.3569 70.8682 54.5004 70.5321 54.7265 70.2035C54.9526 69.8749 55.2415 69.3464 55.3684 69.0292C55.5618 68.5461 55.6461 68.4661 55.8878 68.537C56.0464 68.5835 56.6069 68.7211 57.1333 68.8427ZM52.2229 72.7268C52.6956 73.249 54.6598 74.4669 55.6997 74.8823C58.4812 75.9936 61.6006 75.9664 64.3807 74.8063C65.256 74.441 67.2309 73.19 67.6323 72.7466C67.8556 72.4998 67.9186 72.4937 68.452 72.6669C68.7698 72.7702 69.8831 72.9613 70.9259 73.0915L72.8218 73.3285L75.3336 80.1656C76.7151 83.926 77.8465 87.0182 77.8476 87.0369C77.8488 87.0556 77.5974 86.8187 77.2889 86.5102C76.5966 85.8178 75.6682 85.3833 73.9506 84.9476C71.894 84.4259 70.405 84.2915 67.7831 84.3907L65.4422 84.4793L65.3584 83.9554C65.2658 83.3763 64.837 82.8929 64.3123 82.7764C64.1243 82.7346 61.0784 82.4536 57.5436 82.1518C54.0088 81.85 49.0085 81.4216 46.4319 81.1996C42.9906 80.9032 41.641 80.8332 41.3473 80.9355C40.4716 81.2408 40.2264 82.4236 40.8993 83.0965C41.3653 83.5625 40.3709 83.4447 52.6208 84.4861C58.0358 84.9465 62.4793 85.3346 62.4951 85.3485C62.511 85.3625 62.4043 86.7556 62.2582 88.4445C62.1121 90.1334 61.9914 91.6845 61.9902 91.8913L61.9877 92.2673L49.4416 92.2656C36.0537 92.2639 36.2613 92.2736 34.923 91.5895C34.0547 91.1456 32.9748 90.0049 32.5279 89.0594C32.2118 88.3905 32.1198 87.9496 32.0141 86.5981C31.8647 84.6874 31.9819 82.0276 32.2639 80.9294C32.7324 79.1047 34.0358 77.0479 35.4336 75.9275C36.4924 75.0789 38.116 74.2825 39.3176 74.0227C39.8657 73.9042 42.7446 73.5661 45.7154 73.2717C48.6861 72.9772 51.2705 72.6735 51.4585 72.5966C51.93 72.404 51.931 72.4042 52.2229 72.7268ZM72.8264 87.469C73.4857 87.6201 74.2877 87.8599 74.6086 88.0019C76.4356 88.81 76.5663 91.1139 74.8355 91.9969C74.3373 92.251 74.0173 92.2673 69.514 92.2673H64.7225L64.7281 91.8913C64.7417 90.9982 65.0994 87.4691 65.1851 87.3834C65.5697 86.9989 71.0433 87.0603 72.8264 87.469ZM80.0347 91.7854C80.1867 91.9473 80.3112 92.1219 80.3112 92.1735C80.3112 92.2252 79.8591 92.2673 79.3067 92.2673H78.302L78.5501 91.5494C78.6865 91.1546 78.8015 90.5854 78.8056 90.2845L78.8132 89.7376L79.2856 90.6143C79.5455 91.0965 79.8825 91.6235 80.0347 91.7854Z" fill="#61A1F4"/>
<path d="M25.3652 27.8348C25.9777 26.5229 27.2574 25.4518 28.5859 25.1388C29.4594 24.933 30.331 24.9776 31.3027 25.2777C32.1047 25.5255 32.3607 25.692 33.1416 26.4742C34.2457 27.58 34.5692 28.3634 34.5617 29.9127C34.555 31.2836 34.0767 32.3637 33.0436 33.3407L32.3027 34.0415L32.5136 34.7672C32.6297 35.1664 32.7246 35.6249 32.7246 35.7863C32.7246 36.2442 32.3703 36.8171 31.9763 36.9967C30.9705 37.455 30.2423 36.9023 29.8493 35.3824C29.3774 33.557 29.5337 32.9644 30.8269 31.6738C31.839 30.6634 32.0653 30.0634 31.7705 29.1703C31.3113 27.779 29.5344 27.3093 28.4227 28.2853C27.8196 28.8148 27.6193 29.4306 27.739 30.3878C27.8302 31.1173 27.8185 31.1541 27.3525 31.6201C26.8232 32.1494 26.3903 32.2263 25.7632 31.9019C25.2198 31.6209 24.9984 30.9844 25 29.7076C25.0012 28.8115 25.0673 28.4728 25.3652 27.8348Z" fill="#F29021"/>
<path d="M85.4061 28.8335C85.6261 27.2028 87.2276 25.5376 88.978 25.1198C90.8376 24.6758 92.9578 25.4969 94.0289 27.0757C95.995 29.9741 94.5433 33.7262 91.1474 34.5231L90.1636 34.7541L89.9969 35.5126C89.8011 36.4036 89.1614 37.1601 88.6039 37.1601C87.8155 37.1601 87.148 36.5302 87.148 35.7863C87.148 35.3693 87.5462 34.0391 87.8528 33.4321C88.1723 32.7991 89.0631 32.133 89.7281 32.0299C91.2005 31.8014 91.9635 31.2388 92.15 30.2443C92.4192 28.81 91.1097 27.5155 89.6641 27.7868C89.0627 27.8996 88.3016 28.5658 88.1096 29.1474C87.7264 30.3085 86.5113 30.6384 85.7512 29.7876C85.4108 29.4068 85.3511 29.2415 85.4061 28.8335Z" fill="#F29021"/>
<path d="M31.3567 40.9192C31.1336 40.2431 31.5088 39.4777 32.1682 39.2647C32.7582 39.0739 33.1028 39.1551 33.5792 39.5972C34.086 40.0673 34.095 40.8018 33.6012 41.3885C33.3097 41.735 33.1462 41.8093 32.6745 41.8093C31.962 41.8093 31.5612 41.5385 31.3567 40.9192Z" fill="#F29021"/>
<path d="M85.9173 40.5102C85.9173 40.2175 86.0448 39.9011 86.2714 39.6319C86.5629 39.2854 86.7264 39.2112 87.1981 39.2112C87.9067 39.2112 88.3113 39.4815 88.5117 40.0887C88.6337 40.4583 88.624 40.6546 88.4654 41.0345C88.2243 41.6114 87.8933 41.8093 87.1692 41.8093C86.7299 41.8093 86.5574 41.7285 86.2714 41.3885C86.0448 41.1194 85.9173 40.803 85.9173 40.5102Z" fill="#F29021"/>
</svg>
