<svg width="120" height="120" viewBox="0 0 120 120" fill="none" xmlns="http://www.w3.org/2000/svg">
<circle cx="60" cy="60" r="60" fill="#F7FAFF"/>
<path d="M31.5 92.5C34.7 92.5 42.5 72.1667 46 62L49.5 63.5L40 90.5L37 93.5L31.5 92.5Z" fill="#D9EBFF"/>
<path d="M69 46C65 39.6 57 37 53.5 36.5L52.5 35.5L59 34H65L71 39.5L74 44.5H72L69 46Z" fill="#D9EBFF"/>
<path d="M74.5 93.5C74.5 86.3 69.1667 80.5 66.5 78.5L68 76L75 77L79 89L83 93.5H74.5Z" fill="#D9EBFF"/>
<path d="M64 71C67.2 68.2 66 55.8333 65 50L70 51.5L71 62V65.5L69 68.5L64 71Z" fill="#D9EBFF"/>
<path fill-rule="evenodd" clip-rule="evenodd" d="M57.6705 32.3303C52.578 33.154 48.3329 36.0271 45.7564 40.3941C45.1043 41.4994 44.2336 43.5624 44.0625 44.4073C43.997 44.7309 43.6902 45.1735 43.1144 45.7746C41.7019 47.2496 40.9836 48.6337 40.7075 50.4129C40.5908 51.1659 40.6051 51.9265 40.7729 53.8747C40.8912 55.2481 41.0226 56.6331 41.0651 56.9528C41.1383 57.5045 41.1246 57.5339 40.7941 57.5339C40.6027 57.5339 40.2653 57.7032 40.0445 57.91C39.6539 58.2759 26.5644 80.975 25.7858 82.6371C23.806 86.8628 25.6994 92.0392 29.9814 94.1072C31.941 95.0535 30.127 94.9997 59.995 94.9997C89.863 94.9997 88.049 95.0535 90.0086 94.1072C93.6463 92.3503 95.6272 88.3448 94.7967 84.4252C94.5454 83.2387 94.1952 82.4804 92.6534 79.7841C91.5861 77.9179 91.3393 77.5763 90.9354 77.4076C90.3662 77.1697 89.649 77.3498 89.3253 77.8118C88.8857 78.4394 89.0512 78.9913 90.3641 81.2782C91.847 83.8607 92.1254 84.5225 92.2239 85.6995C92.4682 88.617 90.543 91.3094 87.6793 92.0553C84.9603 92.7635 82.0616 91.4384 80.8571 88.9365C80.3418 87.8657 71.5524 63.9802 71.6411 63.8915C71.7096 63.823 78.4232 60.6789 78.5009 60.6789C78.5322 60.6789 79.5637 62.448 80.7934 64.61C82.0231 66.7723 83.1949 68.7105 83.3975 68.9172C84.1009 69.635 85.2863 69.3191 85.5809 68.3356C85.7709 67.7018 86.0088 68.1918 82.7758 62.5585C81.3621 60.0953 80.0493 57.957 79.8584 57.8069C79.6675 57.6567 79.3604 57.5339 79.176 57.5339C78.866 57.5339 78.8464 57.4951 78.9171 57.0212C78.9592 56.7392 79.0934 55.3329 79.2151 53.8961C79.4163 51.5214 79.4172 51.1812 79.2238 50.1558C78.9234 48.5636 78.2192 47.215 77.0185 45.933C76.2311 45.0922 76.0048 44.7512 75.8702 44.2022C75.6376 43.254 74.8216 41.3756 74.1569 40.2583C71.726 36.1723 67.5061 33.2439 62.8889 32.4386C61.8337 32.2547 58.5586 32.1866 57.6705 32.3303ZM63.4818 35.3634C64.6825 35.6864 66.7588 36.6352 67.7365 37.3079C68.6039 37.9048 69.6107 38.8165 70.4151 39.7336C71.14 40.5601 72.438 42.5683 72.438 42.8632C72.438 42.9838 72.2228 43.0399 71.7595 43.0399C69.0059 43.0399 66.7357 46.1632 67.5603 48.817C67.7529 49.4364 67.75 49.4665 67.4996 49.4665C67.0379 49.4665 64.2076 48.4961 62.9348 47.9013C61.3371 47.1547 59.5449 46.0299 58.0328 44.8249C57.053 44.044 56.7314 43.8603 56.3437 43.8603C55.7786 43.8603 53.7324 44.5238 52.7283 45.0326C52.055 45.3737 52.0151 45.3788 51.8859 45.1383C51.6288 44.6595 50.6001 43.7673 49.9316 43.443C49.5207 43.2438 48.9305 43.0967 48.4066 43.063C47.8724 43.0287 47.552 42.9476 47.552 42.8468C47.552 42.6746 48.5944 40.9349 49.0612 40.328C49.7053 39.4905 51.3732 37.9197 52.201 37.3708C53.8731 36.2624 55.393 35.606 57.2603 35.1861C58.6125 34.8818 62.056 34.98 63.4818 35.3634ZM48.9455 46.0139C49.4057 46.2825 49.8765 47.0907 49.8765 47.6124C49.8765 47.8019 49.4345 49.1377 48.8941 50.5806L47.9116 53.2045L48.0746 55.1982C48.1643 56.2948 48.2372 57.4947 48.2367 57.8646C48.2356 58.6224 47.998 60.1263 47.8387 60.3841C47.7614 60.5092 47.2515 60.3294 45.8996 59.7003C44.8907 59.2307 44.0413 58.8298 44.0119 58.8093C43.9827 58.7888 43.8102 57.1243 43.6288 55.1106C43.2636 51.0576 43.291 50.5571 43.9543 49.1981C44.3203 48.4484 46.4892 46.1619 47.0734 45.9099C47.5412 45.7082 48.5141 45.7622 48.9455 46.0139ZM73.0533 46.0329C73.8657 46.5425 75.6853 48.4802 76.0484 49.2223C76.6835 50.5205 76.718 51.1854 76.3566 55.1789C76.1777 57.155 76.0074 58.7888 75.9781 58.8093C75.9487 58.8298 75.0993 59.2307 74.0905 59.7003C72.7385 60.3294 72.2287 60.5092 72.1513 60.3841C71.992 60.1263 71.7545 58.6224 71.7534 57.8646C71.7528 57.4947 71.8257 56.2948 71.9154 55.1982L72.0784 53.2045L71.0959 50.5806C70.5556 49.1377 70.1161 47.7889 70.1192 47.5837C70.1273 47.0594 70.5335 46.3558 71.0092 46.0422C71.5347 45.6959 72.5088 45.6915 73.0533 46.0329ZM57.2536 47.6694C60.2873 49.9475 63.9608 51.5731 67.7769 52.3262L68.9272 52.5532L69.1182 53.0951C69.2776 53.5478 69.282 53.9482 69.1446 55.5273C68.9567 57.6861 69.0385 59.3524 69.402 60.7801C69.643 61.7261 69.6434 61.7733 69.4112 61.847C69.0434 61.9638 68.4727 62.7093 68.4727 63.073C68.4727 63.2501 68.6605 63.9046 68.8902 64.5276C69.3967 65.9012 69.4056 65.8768 67.8557 67.3647C66.5109 68.6558 65.2763 69.4088 63.5501 69.9906C62.4232 70.3705 62.0157 70.4365 60.4736 70.4892C57.8041 70.5801 55.732 70.0253 53.7034 68.6767C52.8318 68.0974 50.6969 66.0183 50.6969 65.7489C50.6969 65.6781 50.8855 65.1084 51.116 64.4833C51.6099 63.144 51.5759 62.6451 50.9552 62.1228C50.7265 61.9303 50.4933 61.7728 50.4371 61.7728C50.3811 61.7728 50.4488 61.3267 50.5877 60.7814C50.9522 59.3498 51.0333 57.6841 50.8434 55.5273L50.677 53.637L51.5757 51.2151C52.07 49.883 52.4745 48.708 52.4745 48.6041C52.4745 48.3527 52.8206 48.0613 53.5684 47.6831C54.3898 47.2675 55.6494 46.7448 55.8464 46.7375C55.9337 46.7344 56.5669 47.1538 57.2536 47.6694ZM45.1228 62.3487C47.6138 63.5105 48.3776 63.9243 48.3335 64.0878C48.1001 64.9509 39.5049 88.1663 39.1336 88.9365C38.1019 91.076 35.7279 92.4253 33.3464 92.2256C30.9993 92.0288 28.9783 90.5233 28.1202 88.3324C27.7046 87.2713 27.6723 85.2666 28.0549 84.2659C28.1986 83.8898 31.2711 78.4267 34.8826 72.1255C39.8008 63.5443 41.4998 60.6883 41.6516 60.7466C41.7629 60.7894 43.3249 61.5104 45.1228 62.3487ZM52.0523 70.8739C52.6929 71.2979 52.7197 71.4544 52.3301 72.4956C51.9808 73.4295 50.9868 74.3782 50.1231 74.6023C49.3051 74.8144 47.4225 75.089 47.3414 75.0079C47.3047 74.9711 47.7828 73.5582 48.4042 71.868L49.5337 68.7951L50.5134 69.6496C51.0523 70.1196 51.7448 70.6705 52.0523 70.8739ZM72.6499 75.0065C72.5537 75.1028 70.2312 74.743 69.6669 74.5443C68.5423 74.1485 67.6559 73.0558 67.4542 71.8165C67.3652 71.2696 67.3727 71.2571 68.0892 70.7603C68.4881 70.4837 69.183 69.9259 69.6334 69.5208L70.4522 68.7843L71.5811 71.8654C72.202 73.56 72.683 74.9735 72.6499 75.0065ZM86.6893 72.1653C86.1042 72.522 85.9071 73.0331 86.102 73.688C86.3947 74.6703 87.5774 74.9587 88.3099 74.2263C88.9866 73.5496 88.746 72.3471 87.8729 72.0428C87.2907 71.8398 87.2093 71.8482 86.6893 72.1653ZM56.4776 72.8826C57.4465 73.1477 57.9332 73.19 59.995 73.1879C62.0418 73.1859 62.5494 73.1414 63.5046 72.8803C64.1187 72.7123 64.6522 72.5749 64.69 72.5749C64.7279 72.5749 64.8583 72.8747 64.98 73.241C65.1017 73.6074 65.4176 74.2662 65.6817 74.705L66.1622 75.503L65.8476 75.7513C65.2278 76.2406 63.8764 76.9348 62.9938 77.2175C60.0163 78.1711 56.6108 77.6022 54.1401 75.7385L53.8278 75.503L54.3083 74.705C54.5725 74.2662 54.8883 73.6074 55.01 73.241C55.1317 72.8747 55.2586 72.5749 55.2922 72.5749C55.3257 72.5749 55.8593 72.7133 56.4776 72.8826ZM52.3908 77.8309C56.1151 80.6793 61.1514 81.2165 65.3683 79.2154C65.9473 78.9407 66.9134 78.3448 67.5155 77.8911C68.5528 77.1095 68.6334 77.0738 69.0542 77.2108C69.2984 77.2903 70.4802 77.513 71.6803 77.7057C72.8806 77.8983 73.8689 78.0687 73.8767 78.0843C73.8845 78.1 74.8346 80.6971 75.9881 83.8557C78.279 90.1293 78.4414 90.5106 79.267 91.5551L79.8282 92.2649H59.989H40.1499L40.6211 91.6838C41.4688 90.6385 41.8866 89.6717 44.0048 83.8557C45.1552 80.6971 46.1036 78.0998 46.1125 78.0838C46.1215 78.0678 47.1358 77.8929 48.3666 77.6952C49.5975 77.4973 50.733 77.2836 50.89 77.22C51.3415 77.0374 51.3667 77.0476 52.3908 77.8309Z" fill="#61A1F4"/>
<path d="M34.5619 26.4213C34.5619 25.7985 34.7437 25.4592 35.2148 25.2037C35.6969 24.942 36.2044 24.9385 36.5697 25.1944C36.8398 25.3836 40.914 29.7407 41.9132 30.9091C42.4388 31.5238 42.4964 32.1586 42.075 32.6944C41.7843 33.064 41.2725 33.2449 40.0997 33.3925C38.4956 33.5944 38.4803 33.3752 40.255 35.6079C42.6735 38.6509 42.7309 38.7637 42.2939 39.6088C41.8692 40.4301 40.792 40.4827 40.0691 39.7175C39.1622 38.7574 34.8311 33.1568 34.7521 32.8419C34.6454 32.4171 34.9253 31.7275 35.3054 31.4784C35.4658 31.3734 36.087 31.2195 36.6861 31.1364C37.2851 31.0534 37.8567 30.9596 37.9564 30.9281C38.1712 30.8602 37.9595 30.5952 35.9634 28.4319C34.7273 27.0923 34.5619 26.8549 34.5619 26.4213Z" fill="#F29021"/>
<path d="M78.0078 30.9832C78.7234 30.1125 83.138 25.392 83.4235 25.1919C83.7913 24.9343 84.2421 24.9361 84.7468 25.197C85.2422 25.4532 85.4277 25.7867 85.4277 26.4213C85.4277 26.8549 85.2623 27.0923 84.0262 28.4319C82.0301 30.5952 81.8185 30.8602 82.0333 30.9281C82.1329 30.9596 82.7045 31.0534 83.3035 31.1364C83.9026 31.2195 84.5238 31.3734 84.6842 31.4784C85.0643 31.7275 85.3442 32.4171 85.2375 32.8419C85.1585 33.1568 80.8274 38.7574 79.9206 39.7175C79.1976 40.4827 78.1204 40.4301 77.6957 39.6088C77.2587 38.7637 77.3161 38.6509 79.7346 35.6079C81.5093 33.3752 81.494 33.5944 79.8899 33.3925C78.7171 33.2449 78.2053 33.064 77.9146 32.6944C77.5182 32.1905 77.5538 31.5354 78.0078 30.9832Z" fill="#F29021"/>
<path d="M25.161 40.1197C24.8375 39.4097 25.0565 38.6587 25.6891 38.3081C25.8689 38.2084 26.1697 38.1273 26.3577 38.1278C26.7907 38.1289 33.669 41.3835 34.0854 41.7843C34.5374 42.2193 34.616 42.7039 34.3282 43.2807C34.1394 43.6591 33.8076 43.9271 32.8793 44.4509C32.2171 44.8245 31.7249 45.1789 31.7854 45.2383C31.846 45.2977 32.9416 45.9377 34.22 46.6605C36.9642 48.2119 37.2221 48.4306 37.2221 49.2068C37.2221 49.6711 37.1426 49.8386 36.7613 50.1794C36.3788 50.5211 36.2169 50.5792 35.8073 50.5219C35.2465 50.4434 28.2068 46.4778 27.8258 46.0259C27.1041 45.1693 27.4664 44.4144 29.0336 43.5087L30.1968 42.8365L27.7643 41.6653C25.8142 40.7267 25.2979 40.42 25.161 40.1197Z" fill="#F29021"/>
<path d="M85.8869 41.8018C86.048 41.6473 87.7796 40.7571 89.7349 39.8238C91.6903 38.8904 93.4316 38.1247 93.6046 38.122C94.3231 38.111 94.9993 38.7715 94.9993 39.4845C94.9993 40.2451 94.7206 40.4641 92.2253 41.6653L89.7928 42.8365L90.956 43.5087C92.3318 44.3038 92.6622 44.7787 92.3975 45.5811C92.2071 46.1575 92.1951 46.1657 87.9574 48.5808C86.0485 49.6687 84.4694 50.4803 84.1824 50.5211C83.7721 50.5792 83.6113 50.5216 83.2283 50.1794C82.847 49.8386 82.7675 49.6711 82.7675 49.2068C82.7675 48.4353 83.0134 48.2272 85.7696 46.6654C87.0481 45.941 88.1436 45.2991 88.2042 45.2392C88.2647 45.1793 87.7725 44.8245 87.1103 44.4509C86.182 43.9271 85.8503 43.6591 85.6614 43.2807C85.3769 42.7104 85.4518 42.2193 85.8869 41.8018Z" fill="#F29021"/>
</svg>
