<svg width="120" height="120" viewBox="0 0 120 120" fill="none" xmlns="http://www.w3.org/2000/svg">
<circle cx="60" cy="60" r="60" fill="#F7FAFF"/>
<g clip-path="url(#clip0_207_10)">
<path d="M56.0624 34.5583L55.0054 33.8052L60.5554 34.9152L63.8854 38.0602L60.9254 49.1602L53.5254 48.7902C60.035 47.0148 61.5575 38.4736 56.0624 34.5583Z" fill="#D9EBFF"/>
<path d="M64.9949 88.0102C59.0749 84.8652 60.37 75.6152 60.37 70.8052H64.0699L64.9949 80.6102L67.3999 85.7902L72.5799 85.2352L75.3549 82.2752L79.9799 73.5802L83.1249 72.1002L84.7899 72.4702C77.3899 91.1552 70.8401 91.1154 64.9949 88.0102Z" fill="#D9EBFF"/>
<path d="M35.3952 42.1301V28.9951L32.9902 30.8451V37.5051V46.7551L39.2802 54.1551L44.8302 56.5601L47.4202 55.6351C37.3562 53.2671 35.2102 45.6451 35.3952 42.1301Z" fill="#D9EBFF"/>
<path d="M85.9219 70.2759C84.5404 69.6216 82.9867 69.5442 81.5476 70.058C80.6426 70.3809 79.8516 70.9139 79.226 71.6077C78.7292 71.059 78.1234 70.6045 77.429 70.2759C76.0475 69.6216 74.4943 69.5442 73.0547 70.058C71.6212 70.57 70.4717 71.6072 69.8163 72.9796L65.9986 80.5331C65.8614 80.1068 65.7869 79.6535 65.7869 79.1821V70.4283C65.8033 70.3419 65.8123 70.2527 65.8123 70.1618V58.0591C74.1827 57.3251 80.7702 50.2769 80.7702 41.7191V31.913C80.7702 29.1737 78.5418 26.9453 75.8025 26.9453C73.0631 26.9453 70.8348 29.1737 70.8348 31.913V41.7191C70.8348 45.285 67.9334 48.1863 64.367 48.1863H62.4903C64.022 46.5462 64.9621 44.3472 64.9621 41.9308V40.9795C64.9621 35.9204 60.8463 31.8046 55.7871 31.8046C50.7285 31.8046 46.6128 35.9204 46.6128 40.9795V41.9308C46.6128 44.3472 47.5528 46.5462 49.0845 48.1863H47.2079C43.6414 48.1863 40.7401 45.285 40.7401 41.7191V31.913C40.7401 29.1737 38.5117 26.9453 35.7724 26.9453C33.0331 26.9453 30.8047 29.1737 30.8047 31.913V41.7191C30.8047 50.3057 37.4368 57.372 45.8472 58.0658V70.1618C45.8472 70.1765 45.8489 70.1912 45.8495 70.2065V79.1821C45.8495 79.5829 45.8647 79.9883 45.8947 80.3869C45.9522 81.1457 46.5857 81.7232 47.3343 81.7232C47.371 81.7232 47.4077 81.7221 47.445 81.7193C48.241 81.6589 48.8372 80.965 48.7774 80.1689C48.7525 79.8426 48.7401 79.5107 48.7401 79.1821V71.6072H62.8963V79.1821C62.8963 83.2177 66.1793 86.5007 70.2149 86.5007C73.0214 86.5007 75.6122 84.8651 76.8204 82.333L80.8972 74.268C80.9023 74.2573 80.9079 74.246 80.913 74.2347C81.2371 73.5516 81.8078 73.0344 82.5198 72.7803C83.2323 72.5263 84.0007 72.5647 84.6844 72.8882C86.0907 73.5544 86.6954 75.2368 86.0388 76.6449L81.9637 84.7064C81.958 84.7172 81.9529 84.7285 81.9473 84.7397C79.8109 89.2496 75.2057 92.1639 70.2154 92.1639C63.0572 92.1639 57.2336 86.3403 57.2336 79.1821V78.4306C57.2336 77.6323 56.5866 76.9853 55.7883 76.9853C54.99 76.9853 54.343 77.6323 54.343 78.4306V79.1821C54.343 84.5303 57.0021 89.2693 61.0676 92.1464C58.3577 92.0132 55.8114 91.0568 53.6683 89.3557C53.0427 88.8595 52.1338 88.9639 51.6375 89.5894C51.1418 90.215 51.2463 91.124 51.8718 91.6202C54.7032 93.8672 58.1098 95.0545 61.7231 95.0545C63.1469 95.0545 64.5668 94.8575 65.9495 94.4719C67.3073 94.8513 68.7379 95.0545 70.2154 95.0545C76.3111 95.0545 81.936 91.4988 84.5517 85.9942L88.6279 77.9304C88.6336 77.9191 88.6386 77.9084 88.6443 77.8971C89.9942 75.0454 88.773 71.6264 85.9219 70.2759ZM49.5034 41.9308V40.9795C49.5034 37.5142 52.3223 34.6952 55.7877 34.6952C59.2525 34.6952 62.0714 37.5142 62.0714 40.9795V41.9308C62.0714 45.1963 59.5675 47.8871 56.3783 48.1863H55.1966C52.0073 47.8877 49.5034 45.1963 49.5034 41.9308ZM33.6953 41.7191V31.913C33.6953 30.7675 34.6269 29.8359 35.7724 29.8359C36.9179 29.8359 37.8495 30.7675 37.8495 31.913V41.7191C37.8495 46.8793 42.0476 51.077 47.2079 51.077H55.0972C55.3253 51.0945 55.5551 51.1057 55.7877 51.1057C56.0197 51.1057 56.2495 51.0945 56.4776 51.077H64.367C69.5272 51.077 73.7254 46.8793 73.7254 41.7191V31.913C73.7254 30.7675 74.6569 29.8359 75.8025 29.8359C76.948 29.8359 77.8795 30.7675 77.8795 31.913V41.7191C77.8795 49.1698 71.8183 55.2317 64.3676 55.2317C63.5692 55.2317 62.9222 55.8787 62.9222 56.677V68.7165H48.7379V56.677C48.7379 55.8787 48.0909 55.2317 47.2925 55.2317H47.2079C39.7572 55.2317 33.6953 49.1698 33.6953 41.7191ZM74.2324 81.0446C74.2267 81.0553 74.2216 81.0666 74.216 81.0773C73.4877 82.6158 71.9165 83.61 70.2149 83.61C69.394 83.61 68.6256 83.3848 67.9656 82.9941C68.0977 82.7795 68.2197 82.5582 68.3275 82.333L72.4037 74.268C72.4094 74.2573 72.4144 74.246 72.4201 74.2347C72.7436 73.551 73.3144 73.0344 74.0269 72.7803C74.7388 72.5257 75.5078 72.5641 76.1915 72.8882C76.8418 73.1964 77.3375 73.726 77.6012 74.3792L74.2324 81.0446Z" fill="#61A1F4"/>
<path d="M50.2736 85.2983C49.8914 84.5977 49.0135 84.3397 48.3123 84.7213C47.6116 85.1036 47.353 85.9815 47.7353 86.6815C47.995 87.171 48.4952 87.4499 49.0129 87.4499C49.2415 87.4499 49.473 87.3957 49.6893 87.2811C50.3944 86.9074 50.6626 86.0317 50.2888 85.3271L50.2736 85.2983Z" fill="#61A1F4"/>
<path d="M30.2266 83.5469C29.4283 83.5469 28.7812 84.1939 28.7812 84.9922V86.9885C28.7812 87.7868 29.4283 88.4338 30.2266 88.4338C31.0249 88.4338 31.6719 87.7868 31.6719 86.9885V84.9922C31.6719 84.1939 31.0249 83.5469 30.2266 83.5469Z" fill="#F29021"/>
<path d="M30.2266 93.1133C29.4283 93.1133 28.7812 93.7603 28.7812 94.5586V96.5549C28.7812 97.3532 29.4283 98.0002 30.2266 98.0002C31.0249 98.0002 31.6719 97.3532 31.6719 96.5549V94.5586C31.6719 93.7603 31.0249 93.1133 30.2266 93.1133Z" fill="#F29021"/>
<path d="M36.0081 89.3281H34.0117C33.2134 89.3281 32.5664 89.9751 32.5664 90.7734C32.5664 91.5717 33.2134 92.2188 34.0117 92.2188H36.0081C36.8064 92.2188 37.4534 91.5717 37.4534 90.7734C37.4534 89.9751 36.8064 89.3281 36.0081 89.3281Z" fill="#F29021"/>
<path d="M26.4417 89.3281H24.4453C23.647 89.3281 23 89.9751 23 90.7734C23 91.5717 23.647 92.2188 24.4453 92.2188H26.4417C27.24 92.2188 27.887 91.5717 27.887 90.7734C27.887 89.9751 27.24 89.3281 26.4417 89.3281Z" fill="#F29021"/>
<path d="M89.7734 24C88.9751 24 88.3281 24.647 88.3281 25.4453V27.4417C88.3281 28.24 88.9751 28.887 89.7734 28.887C90.5717 28.887 91.2188 28.24 91.2188 27.4417V25.4453C91.2188 24.647 90.5717 24 89.7734 24Z" fill="#F29021"/>
<path d="M89.7734 33.5664C88.9751 33.5664 88.3281 34.2134 88.3281 35.0117V37.0081C88.3281 37.8064 88.9751 38.4534 89.7734 38.4534C90.5717 38.4534 91.2188 37.8064 91.2188 37.0081V35.0117C91.2188 34.2134 90.5717 33.5664 89.7734 33.5664Z" fill="#F29021"/>
<path d="M95.5549 29.7812H93.5586C92.7603 29.7812 92.1133 30.4283 92.1133 31.2266C92.1133 32.0249 92.7603 32.6719 93.5586 32.6719H95.5549C96.3532 32.6719 97.0002 32.0249 97.0002 31.2266C97.0002 30.4283 96.3532 29.7812 95.5549 29.7812Z" fill="#F29021"/>
<path d="M83.9922 32.6719H85.9885C86.7868 32.6719 87.4338 32.0249 87.4338 31.2266C87.4338 30.4283 86.7868 29.7812 85.9885 29.7812H83.9922C83.1939 29.7812 82.5469 30.4283 82.5469 31.2266C82.5469 32.0249 83.1939 32.6719 83.9922 32.6719Z" fill="#F29021"/>
</g>
<defs>
<clipPath id="clip0_207_10">
<rect width="74" height="74" fill="white" transform="translate(23 24)"/>
</clipPath>
</defs>
</svg>
