<svg width="120" height="120" viewBox="0 0 120 120" fill="none" xmlns="http://www.w3.org/2000/svg">
<circle cx="60" cy="60" r="60" fill="#F7FAFF"/>
<g clip-path="url(#clip0_205_49)">
<path d="M54.75 36.375C54.75 50.375 55.8 55.625 61.225 56.15L59.125 57.2L54.4 54.925L49.5 49.325V40.4L51.425 38.65L54.75 36.375Z" fill="#D9EBFF"/>
<path d="M83.0996 72.6001C81.9796 68.4001 79.5996 67.2334 78.5496 67.1751L77.8496 63.8501L80.8246 64.7251L84.4996 67.8751L88.5246 79.7751V84.1501L86.4246 88.8751H82.2246V87.1251L83.0996 85.3751C86.4246 83.4501 84.4996 77.8501 83.0996 72.6001Z" fill="#D9EBFF"/>
<path d="M75.05 66.1251C75.05 63.7451 70.2667 63.1501 67.875 63.1501L72.425 62.1001L76.45 62.6251L77.85 64.3751V68.2251V85.2001H75.05V66.1251Z" fill="#D9EBFF"/>
<path d="M59.2514 71.1855L59.6496 70.6748H57.5496L55.9746 73.4748L57.1996 76.0998L59.6496 77.8498L61.3996 77.1498L62.7996 75.5748C60.0392 76.9119 57.3655 73.6044 59.2514 71.1855Z" fill="#D9EBFF"/>
<path d="M91.5128 88.1758H87.5778L87.9405 87.7438C89.7984 85.5313 90.376 82.5693 89.4858 79.8208L85.9307 68.8443C85.0388 66.0905 82.8311 64.0228 80.0249 63.313L78.2582 62.8662C77.5641 61.8916 76.4731 61.2184 75.2225 61.0865L75.2236 56.7148C75.2238 56.1488 74.7651 55.6899 74.1992 55.6898C74.199 55.6898 74.199 55.6898 74.1989 55.6898C73.633 55.6898 73.1743 56.1484 73.1742 56.7142L73.1731 61.0623H71.127L68.5923 60.4212C67.9509 60.2588 67.4733 59.7311 67.376 59.0766L66.7937 55.1658C69.1425 53.3168 70.8825 50.826 71.4079 47.8501H72.2533C72.5755 47.8501 72.8857 47.7979 73.1765 47.7027L73.1754 51.9154C73.1753 52.4814 73.634 52.9403 74.1999 52.9404H74.2001C74.766 52.9404 75.2247 52.4818 75.2248 51.916C75.2254 51.0988 75.2283 41.5249 75.2283 38.37C75.2347 30.9828 69.2584 25 61.8699 25H58.1293L58.0854 25.0001C58.0773 25.0001 58.0694 25.0008 58.0612 25.0008C50.6979 25.0373 44.7645 31.0113 44.7707 38.3695C44.7707 41.8108 44.7687 38.2748 44.7766 61.0864C43.5261 61.2184 42.435 61.8915 41.7409 62.866L39.9742 63.3128C37.1681 64.0227 34.9604 66.0904 34.0684 68.8442L30.5133 79.8207C29.6231 82.5693 30.2008 85.5311 32.0585 87.7435L32.4213 88.1757H28.4863C26.6049 88.1757 25.0742 89.7064 25.0742 91.5878C25.0742 93.4693 26.6048 95 28.4863 95H91.513C93.3944 95 94.9251 93.4693 94.9251 91.5879C94.9249 89.7065 93.3944 88.1758 91.5128 88.1758ZM83.981 69.4756L87.5361 80.452C88.2074 82.5244 87.7718 84.7576 86.371 86.4258L84.9018 88.1758H83.0139C83.2223 87.6158 83.3325 87.0186 83.3325 86.4064C83.3325 85.2347 82.3793 84.2815 81.2077 84.2815H79.0511V65.3432C79.0511 65.2884 79.049 65.234 79.047 65.1796C79.1826 65.2503 82.7535 65.6857 83.981 69.4756ZM81.2078 86.3309C81.2494 86.3309 81.2831 86.3647 81.2831 86.4063C81.2831 87.0486 81.0789 87.6626 80.7067 88.1757H39.2924C38.9203 87.6624 38.716 87.0484 38.716 86.4063C38.716 86.3646 38.7498 86.3309 38.7913 86.3309H81.2078ZM73.1772 44.908C73.1596 45.4031 72.7524 45.8005 72.2533 45.8005H71.569L71.5794 41.6469H72.2548C72.7572 41.6469 73.1665 42.0502 73.1779 42.5499L73.1772 44.908ZM55.2779 29.9129C55.2779 28.3459 56.5294 27.0669 58.0785 27.0508C58.0955 27.0508 58.1123 27.0496 58.1293 27.0496H61.8699C68.1235 27.0496 73.1843 32.1129 73.1788 38.3689L73.1786 39.5975C71.7696 39.5975 69.0948 39.5975 64.9015 39.5975C59.595 39.5975 55.278 35.2803 55.278 29.9738V29.9129H55.2779ZM55.5946 37.0098C57.7279 39.8246 61.1054 41.6469 64.9013 41.6469H69.5297L69.5188 46.0167C69.5188 49.4944 67.4823 52.1372 65.1864 53.825C65.1714 53.8334 62.4345 55.9161 59.9994 55.9839C57.75 55.9211 54.9309 53.8922 54.8148 53.8262C52.5179 52.1379 50.4801 49.4934 50.4801 46.0119C50.4569 40.8843 50.4794 45.8487 50.4552 40.5107C50.4529 39.9866 50.8763 39.561 51.4008 39.561C53.2228 39.5611 54.8063 38.5241 55.5946 37.0098ZM66.0568 61.0623H53.9424C54.3078 60.5798 54.5572 60.0055 54.6506 59.3785L55.0889 56.4344C56.9479 57.4946 58.7571 58.0075 59.9777 58.0336C59.9851 58.0337 59.9923 58.0338 59.9997 58.0338C60.0071 58.0338 60.0143 58.0337 60.0217 58.0336C61.2423 58.0075 63.0515 57.4948 64.9105 56.4344L65.3488 59.3785C65.4419 60.0055 65.6913 60.5798 66.0568 61.0623ZM47.746 47.8501H48.5916C49.1166 50.823 50.8536 53.3142 53.2056 55.1658L52.6233 59.0766C52.526 59.7311 52.0484 60.2588 51.4071 60.4211L48.8722 61.0622H46.826L46.8226 47.7027C47.1136 47.798 47.4236 47.8501 47.746 47.8501ZM46.8219 44.908L46.8214 42.5499C46.8327 42.0502 47.2421 41.6469 47.7445 41.6469H48.411L48.4299 45.8005H47.746C47.2467 45.8007 46.8396 45.4031 46.8219 44.908ZM53.6214 27.9833C53.3688 28.5763 53.2284 29.2284 53.2284 29.9127C53.2422 30.0531 53.1318 31.9985 54.0773 34.3361V34.8351C54.0773 36.3109 52.8767 37.5115 51.4009 37.5115C50.0534 37.5115 48.9297 38.3943 48.5477 39.5973H47.7445C47.422 39.5973 47.1116 39.6496 46.8207 39.745L46.8203 38.3682C46.8162 33.6741 49.6516 29.7093 53.6214 27.9833ZM32.4632 80.4522L36.0183 69.4757C37.2452 65.6875 40.8141 65.2516 40.9523 65.1797C40.9503 65.2341 40.9482 65.2884 40.9482 65.3434V71.4166C40.9482 71.9826 41.4071 72.4413 41.9729 72.4413C42.5389 72.4413 42.9976 71.9826 42.9976 71.4166V65.3434C42.9976 64.1129 43.9987 63.1119 45.2292 63.1119H74.7703C76.0007 63.1119 77.0018 64.1129 77.0018 65.3434V84.2815H42.9975V76.2072C42.9975 75.6412 42.5387 75.1825 41.9728 75.1825C41.4068 75.1825 40.9481 75.6412 40.9481 76.2072V84.2815H38.7915C37.6198 84.2815 36.6666 85.2347 36.6666 86.4064C36.6666 87.0186 36.7769 87.616 36.9853 88.1758H35.0975L33.6282 86.4257C32.2275 84.7577 31.7919 82.5244 32.4632 80.4522ZM91.5128 92.9504H28.4863C27.7349 92.9504 27.1238 92.3392 27.1238 91.5879C27.1238 90.8365 27.735 90.2254 28.4863 90.2254H91.513C92.2644 90.2254 92.8755 90.8366 92.8755 91.5879C92.8755 92.3392 92.2642 92.9504 91.5128 92.9504Z" fill="#61A1F4"/>
<path d="M59.9999 78.502C62.5873 78.502 64.6923 76.3969 64.6923 73.8096C64.6923 71.2224 62.5873 69.1172 59.9999 69.1172C57.4125 69.1172 55.3076 71.2222 55.3076 73.8095C55.3076 76.3968 57.4125 78.502 59.9999 78.502ZM59.9999 71.1667C61.4572 71.1667 62.6428 72.3522 62.6428 73.8096C62.6428 75.2671 61.4572 76.4526 59.9999 76.4526C58.5427 76.4526 57.357 75.2671 57.357 73.8096C57.357 72.3522 58.5427 71.1667 59.9999 71.1667Z" fill="#61A1F4"/>
<path d="M37.2256 53.1155H38.4652V54.3551C38.4652 54.9214 38.9242 55.3805 39.4906 55.3805C40.057 55.3805 40.516 54.9214 40.516 54.3551V53.1155H41.7555C42.3219 53.1155 42.7809 52.6564 42.7809 52.0901C42.7809 51.5238 42.3219 51.0647 41.7555 51.0647H40.516V49.8252C40.516 49.2589 40.057 48.7998 39.4906 48.7998C38.9242 48.7998 38.4652 49.2589 38.4652 49.8252V51.0647H37.2256C36.6592 51.0647 36.2002 51.5238 36.2002 52.0901C36.2002 52.6564 36.6592 53.1155 37.2256 53.1155Z" fill="#F29021"/>
<path d="M29.0541 43.2294H30.5706V44.7459C30.5706 45.4386 31.132 46.0002 31.8249 46.0002C32.5178 46.0002 33.0792 45.4386 33.0792 44.7459V43.2294H34.5955C35.2884 43.2294 35.8498 42.6678 35.8498 41.9751C35.8498 41.2824 35.2884 40.7208 34.5955 40.7208H33.0792V39.2045C33.0792 38.5118 32.5178 37.9502 31.8249 37.9502C31.132 37.9502 30.5706 38.5118 30.5706 39.2045V40.7208H29.0541C28.3612 40.7208 27.7998 41.2824 27.7998 41.9751C27.7998 42.6678 28.3612 43.2294 29.0541 43.2294Z" fill="#F29021"/>
<path d="M39.5999 31.375H40.3251V32.1002C40.3251 32.4315 40.5937 32.7001 40.925 32.7001C41.2564 32.7001 41.5249 32.4315 41.5249 32.1002V31.375H42.2501C42.5815 31.375 42.85 31.1064 42.85 30.7751C42.85 30.4438 42.5815 30.1752 42.2501 30.1752H41.5249V29.45C41.5249 29.1187 41.2564 28.8501 40.925 28.8501C40.5937 28.8501 40.3251 29.1187 40.3251 29.45V30.1752H39.5999C39.2685 30.1752 39 30.4438 39 30.7751C39 31.1064 39.2685 31.375 39.5999 31.375Z" fill="#F29021"/>
<path d="M79.8499 38.7251H80.5751V39.4503C80.5751 39.7816 80.8437 40.0502 81.175 40.0502C81.5064 40.0502 81.7749 39.7816 81.7749 39.4503V38.7251H82.5001C82.8315 38.7251 83.1 38.4565 83.1 38.1252C83.1 37.7939 82.8315 37.5253 82.5001 37.5253H81.7749V36.8001C81.7749 36.4688 81.5064 36.2002 81.175 36.2002C80.8437 36.2002 80.5751 36.4688 80.5751 36.8001V37.5253H79.8499C79.5185 37.5253 79.25 37.7939 79.25 38.1252C79.25 38.4565 79.5185 38.7251 79.8499 38.7251Z" fill="#F29021"/>
<path d="M82.1998 53.1498H83.6503V54.6003C83.6503 55.2629 84.1873 55.8001 84.8501 55.8001C85.5129 55.8001 86.0499 55.2629 86.0499 54.6003V53.1498H87.5002C88.163 53.1498 88.7 52.6126 88.7 51.95C88.7 51.2874 88.163 50.7502 87.5002 50.7502H86.0499V49.2999C86.0499 48.6373 85.5129 48.1001 84.8501 48.1001C84.1873 48.1001 83.6503 48.6373 83.6503 49.2999V50.7502H82.1998C81.537 50.7502 81 51.2874 81 51.95C81 52.6126 81.537 53.1498 82.1998 53.1498Z" fill="#F29021"/>
</g>
<defs>
<clipPath id="clip0_205_49">
<rect width="70" height="70" fill="white" transform="translate(25 25)"/>
</clipPath>
</defs>
</svg>
