<svg width="120" height="120" viewBox="0 0 120 120" fill="none" xmlns="http://www.w3.org/2000/svg">
<circle cx="60" cy="60" r="60" fill="#F7FAFF"/>
<path d="M56.5665 79.2356L53.084 70.8159H54.9795L60.7543 76.9874L56.5665 79.2356Z" fill="#D9EBFF"/>
<path d="M79.0936 81.6161C78.9469 77.3597 72.834 74.2103 70.0127 73.3727L71.4233 70.8159L79.7108 75.136L82.4439 81.1312V93.915H79.3581C79.3581 94.9142 79.3581 89.2864 79.0936 81.6161Z" fill="#D9EBFF"/>
<path d="M71.3349 49.2151C71.3349 40.1971 60.8433 35.4614 56.2588 34.7561L63.6646 34.0508L72.2166 39.1643L75.3905 47.011V57.9434L73.0982 64.7321L67.9847 69.0521L59.9617 70.4628C67.632 67.2888 71.3349 64.1149 71.3349 49.2151Z" fill="#D9EBFF"/>
<path d="M60.485 60.3813C58.9549 60.3813 57.4875 60.9892 56.4056 62.0711C55.5979 62.8788 55.0544 63.9013 54.8308 65.0044C54.7042 65.6289 55.2324 66.1506 55.8697 66.1506C56.5069 66.1506 57.0055 65.6201 57.214 65.0179C57.3839 64.5275 57.6634 64.0768 58.0374 63.7029C58.6865 63.0537 59.567 62.689 60.485 62.689C61.4031 62.689 62.2835 63.0537 62.9327 63.7029C63.3066 64.0768 63.5862 64.5275 63.756 65.0179C63.9645 65.6201 64.4632 66.1506 65.1004 66.1506C65.7377 66.1506 66.2659 65.6289 66.1393 65.0044C65.9156 63.9013 65.3722 62.8788 64.5645 62.0711C63.4825 60.9892 62.0151 60.3813 60.485 60.3813Z" fill="#61A1F4"/>
<path d="M88.1788 39.036C88.1788 38.883 88.2396 38.7362 88.3478 38.628C88.456 38.5198 88.6028 38.4591 88.7558 38.4591H89.3327C89.9699 38.4591 90.4865 37.9425 90.4865 37.3052C90.4865 36.668 89.9699 36.1514 89.3327 36.1514H88.7558C87.9907 36.1514 87.257 36.4553 86.716 36.9962C86.1751 37.5372 85.8712 38.2709 85.8712 39.036C85.8712 39.189 85.8104 39.3357 85.7022 39.4439C85.594 39.5521 85.4472 39.6129 85.2942 39.6129H84.7173C84.0801 39.6129 83.5635 40.1295 83.5635 40.7667C83.5635 41.404 84.0801 41.9206 84.7173 41.9206H85.2942C86.0593 41.9206 86.793 41.6167 87.334 41.0757C87.8749 40.5347 88.1788 39.801 88.1788 39.036Z" fill="#F29021"/>
<path d="M32.794 39.036C32.794 39.801 33.0979 40.5347 33.6389 41.0757C34.1799 41.6167 34.9136 41.9206 35.6786 41.9206H36.2555C36.8928 41.9206 37.4094 41.404 37.4094 40.7667C37.4094 40.1295 36.8928 39.6129 36.2555 39.6129H35.6786C35.5256 39.6129 35.3789 39.5521 35.2707 39.4439C35.1625 39.3357 35.1017 39.189 35.1017 39.036C35.1017 38.2709 34.7978 37.5372 34.2568 36.9962C33.7158 36.4553 32.9821 36.1514 32.2171 36.1514H31.6402C31.0029 36.1514 30.4863 36.668 30.4863 37.3052C30.4863 37.9425 31.0029 38.4591 31.6402 38.4591H32.2171C32.3701 38.4591 32.5168 38.5198 32.625 38.628C32.7332 38.7362 32.794 38.883 32.794 39.036Z" fill="#F29021"/>
<path d="M37.4093 47.6893C36.9568 47.2369 36.2233 47.2369 35.7708 47.6893L35.4362 48.024C35.3992 48.0787 35.3494 48.1235 35.291 48.1545C35.2327 48.1855 35.1676 48.2017 35.1016 48.2017C35.0355 48.2017 34.9705 48.1855 34.9121 48.1545C34.8538 48.1235 34.804 48.0787 34.767 48.024C34.2349 47.5175 33.5285 47.2349 32.7939 47.2349C32.0593 47.2349 31.3529 47.5175 30.8208 48.024L30.4862 48.3586C30.0338 48.811 30.0338 49.5446 30.4862 49.997C30.9387 50.4495 31.6722 50.4495 32.1247 49.997L32.4593 49.6624C32.4963 49.6077 32.5461 49.5629 32.6045 49.5319C32.6628 49.5009 32.7278 49.4847 32.7939 49.4847C32.86 49.4847 32.925 49.5009 32.9834 49.5319C33.0417 49.5629 33.0915 49.6077 33.1285 49.6624C33.6606 50.1689 34.367 50.4514 35.1016 50.4514C35.8362 50.4514 36.5426 50.1689 37.0747 49.6624L37.4093 49.3278C37.8617 48.8754 37.8617 48.1418 37.4093 47.6893Z" fill="#F29021"/>
<path d="M90.1508 48.024C89.6188 47.5175 88.9123 47.2349 88.1778 47.2349C87.4432 47.2349 86.7367 47.5175 86.2047 48.024C86.1677 48.0787 86.1179 48.1235 86.0595 48.1545C86.0012 48.1855 85.9361 48.2017 85.8701 48.2017C85.804 48.2017 85.739 48.1855 85.6806 48.1545C85.6223 48.1235 85.5724 48.0787 85.5355 48.024L85.2008 47.6893C84.7484 47.2369 84.0148 47.2369 83.5624 47.6893C83.1099 48.1418 83.1099 48.8754 83.5624 49.3278L83.897 49.6624C84.429 50.1689 85.1355 50.4514 85.8701 50.4514C86.6047 50.4514 87.3111 50.1689 87.8431 49.6624C87.8801 49.6077 87.93 49.5629 87.9883 49.5319C88.0467 49.5009 88.1117 49.4847 88.1778 49.4847C88.2438 49.4847 88.3089 49.5009 88.3672 49.5319C88.4255 49.5629 88.4754 49.6077 88.5124 49.6624L88.847 49.997C89.2994 50.4495 90.033 50.4495 90.4854 49.997C90.9379 49.5446 90.9379 48.811 90.4854 48.3586L90.1508 48.024Z" fill="#F29021"/>
<path d="M73.2064 29.4177L73.7397 29.9511L73.2064 30.4845C72.9627 30.7281 72.9627 31.1231 73.2064 31.3668C73.4501 31.6105 73.8451 31.6105 74.0888 31.3668L74.6221 30.8335L75.1554 31.3668C75.3992 31.6105 75.7942 31.6104 76.0378 31.3668C76.2815 31.1231 76.2815 30.7281 76.0378 30.4844L75.5045 29.9511L76.0378 29.4178C76.2815 29.1741 76.2815 28.7791 76.0378 28.5354C75.7941 28.2917 75.3991 28.2917 75.1554 28.5354L74.6221 29.0687L74.0888 28.5353C73.845 28.2916 73.45 28.2917 73.2064 28.5353C72.9627 28.779 72.9627 29.174 73.2064 29.4177Z" fill="#F29021"/>
<path d="M42.3478 29.0184L43.2804 29.9511L42.3478 30.8837C41.9217 31.3098 41.9216 32.0005 42.3478 32.4267C42.7739 32.8528 43.4646 32.8527 43.8907 32.4267L44.8233 31.494L45.7559 32.4266C46.1821 32.8527 46.8728 32.8526 47.2988 32.4266C47.7249 32.0005 47.725 31.3098 47.2988 30.8836L46.3663 29.9511L47.2988 29.0185C47.7249 28.5925 47.725 27.9017 47.2988 27.4756C46.8727 27.0494 46.182 27.0495 45.7559 27.4756L44.8233 28.4081L43.8907 27.4755C43.4645 27.0493 42.7738 27.0494 42.3478 27.4755C41.9217 27.9015 41.9216 28.5923 42.3478 29.0184Z" fill="#F29021"/>
<path fill-rule="evenodd" clip-rule="evenodd" d="M68.7581 69.6129H69.7158C73.388 69.6129 76.9098 71.0717 79.5065 73.6684C82.1031 76.265 83.5619 79.7868 83.5619 83.4591V92.7847H87.8814C88.4931 92.7847 88.989 93.2807 88.989 93.8924C88.989 94.5042 88.4931 95.0001 87.8814 95.0001H80.1726V94.9975H56.4861C55.8488 94.9975 55.3322 94.4809 55.3322 93.8436C55.3322 93.2064 55.8488 92.6898 56.4861 92.6898H59.3312V79.5591L54.0812 82.1783C53.9205 82.2607 53.7426 82.3041 53.562 82.3052C53.3201 82.3058 53.0841 82.2304 52.8874 82.0896C52.6907 81.9488 52.5433 81.7498 52.4659 81.5206L49.3274 72.0937C46.6415 72.5486 44.2031 73.9392 42.444 76.0193C40.6849 78.0994 39.7185 80.7349 39.7159 83.4591V92.6898H44.3313V86.9206C44.3313 86.2833 44.8479 85.7667 45.4851 85.7667C46.1224 85.7667 46.639 86.2833 46.639 86.9206V92.6898H48.2493C48.8866 92.6898 49.4031 93.2064 49.4031 93.8436C49.4031 94.4809 48.8866 94.9975 48.2493 94.9975H38.5621C38.4908 94.9975 38.4203 94.9909 38.3512 94.9781H34.1077C33.4959 94.9781 33 94.4821 33 93.8704C33 93.2586 33.4959 92.7627 34.1077 92.7627H37.4082V83.4591C37.4235 79.7968 38.889 76.2898 41.484 73.7056C44.079 71.1215 47.5921 69.6706 51.2543 69.6706H52.212C48.7423 67.6022 46.1735 64.3088 45.012 60.4399H44.9082C43.5311 60.5164 42.18 60.0427 41.1522 59.1231C40.1244 58.2034 39.5039 56.9131 39.4274 55.5361C39.3509 54.159 39.8246 52.8079 40.7443 51.7801C41.6639 50.7522 42.9542 50.1318 44.3313 50.0553V48.8438C44.3343 46.3998 44.8947 43.9887 45.9697 41.7938C43.0505 41.113 40.8697 40.063 40.8697 38.4592C40.8697 36.1515 45.289 34.663 54.0005 34.063C56.0425 33.158 58.2514 32.6904 60.4851 32.6904C62.7187 32.6904 64.9276 33.158 66.9697 34.063C75.6812 34.663 80.1004 36.1515 80.1004 38.4592C80.1004 40.063 77.9196 41.113 75.0004 41.7938C76.0755 43.9887 76.6358 46.3998 76.6389 48.8438V50.0553C77.9505 50.2076 79.1545 50.855 80.0048 51.8651C80.8551 52.8753 81.2877 54.1721 81.214 55.4905C81.1404 56.8088 80.5661 58.0493 79.6085 58.9585C78.651 59.8677 77.3824 60.3769 76.0619 60.3822H75.9581C74.7967 64.2511 72.2278 67.5445 68.7581 69.6129ZM58.662 77.3091L54.1736 71.9206H51.7043L54.2312 79.5244L58.662 77.3091ZM60.4851 75.8898L63.7851 71.9206H57.1851L60.4851 75.8898ZM69.2658 71.9206H66.7966L62.3081 77.3091L66.7389 79.5244L69.2658 71.9206ZM78.2463 57.0967C78.7023 56.5665 78.951 55.8892 78.9466 55.1899C78.9467 54.5249 78.7171 53.8803 78.2965 53.3652C77.876 52.85 77.2904 52.496 76.6389 52.363V55.7668C76.6354 56.5392 76.5775 57.3103 76.4658 58.0745C77.1579 57.9742 77.7903 57.6269 78.2463 57.0967ZM73.7773 39.6823C75.1134 39.4904 76.4081 39.077 77.6081 38.4592C76.9389 38.0207 74.9427 37.3053 71.2274 36.8092C72.1873 37.6633 73.0432 38.6277 73.7773 39.6823ZM60.4851 40.7669C64.0728 40.7914 67.658 40.5717 71.2158 40.1092C69.9173 38.5168 68.2807 37.2334 66.4247 36.352C64.5687 35.4706 62.5398 35.0133 60.4851 35.0133C58.4304 35.0133 56.4015 35.4706 54.5454 36.352C52.6894 37.2334 51.0528 38.5168 49.7543 40.1092C53.3122 40.5717 56.8974 40.7914 60.4851 40.7669ZM49.7428 36.8092C46.0274 37.3053 44.0313 38.0207 43.362 38.4592C44.5621 39.077 45.8568 39.4904 47.1928 39.6823C47.927 38.6277 48.7829 37.6633 49.7428 36.8092ZM72.6581 42.2438C68.6251 42.8075 64.5573 43.0851 60.4851 43.0746C56.4129 43.0851 52.345 42.8075 48.312 42.2438C47.2137 44.2702 46.6386 46.5388 46.639 48.8438V50.0553H54.8774C56.7339 50.0565 58.5593 49.578 60.1765 48.6663C61.7938 47.7545 63.1481 46.4405 64.1081 44.8515C64.2103 44.6793 64.3555 44.5367 64.5295 44.4376C64.7035 44.3385 64.9002 44.2864 65.1004 44.2864C65.3007 44.2864 65.4974 44.3385 65.6714 44.4376C65.8454 44.5367 65.9906 44.6793 66.0927 44.8515C66.9673 46.2943 68.1684 47.5115 69.5993 48.4054C71.0302 49.2992 72.651 49.8446 74.3312 49.9976V48.8438C74.3315 46.5388 73.7565 44.2702 72.6581 42.2438ZM42.6736 53.3652C42.2531 53.8803 42.0235 54.5249 42.0236 55.1899C42.0191 55.8892 42.2679 56.5665 42.7239 57.0967C43.1798 57.6269 43.8123 57.9742 44.5044 58.0745C44.3926 57.3103 44.3348 56.5392 44.3313 55.7668V52.363C43.6797 52.496 43.0941 52.85 42.6736 53.3652ZM46.639 52.3053V55.7668C46.639 59.439 48.0977 62.9609 50.6944 65.5575C53.291 68.1542 56.8129 69.6129 60.4851 69.6129C64.1573 69.6129 67.6791 68.1542 70.2758 65.5575C72.8724 62.9609 74.3312 59.439 74.3312 55.7668V52.3053C72.539 52.1628 70.7951 51.654 69.2073 50.8105C67.6196 49.9671 66.2218 48.8068 65.1004 47.4015C63.8753 48.9268 62.3245 50.1589 60.5616 51.0074C58.7988 51.8559 56.8684 52.2993 54.912 52.3053H46.639ZM76.6389 86.9206V92.6898H81.2542V83.4591C81.2598 80.7289 80.2971 78.0852 78.5373 75.9979C76.7775 73.9107 74.3345 72.515 71.6427 72.0591L68.5043 81.486C68.4504 81.6416 68.3639 81.784 68.2504 81.9034C68.137 82.0228 67.9993 82.1165 67.8466 82.1783C67.6963 82.2469 67.533 82.2823 67.3677 82.2823C67.2025 82.2823 67.0392 82.2469 66.8889 82.1783L61.6389 79.5591V92.6898H74.3312V86.9206C74.3312 86.2833 74.8478 85.7667 75.485 85.7667C76.1223 85.7667 76.6389 86.2833 76.6389 86.9206Z" fill="#61A1F4"/>
</svg>
