<svg width="120" height="120" viewBox="0 0 120 120" fill="none" xmlns="http://www.w3.org/2000/svg">
<path d="M90.4307 62.1948H80.6521C80.1297 62.193 79.613 62.0869 79.1322 61.8825C78.6514 61.6782 78.2163 61.3798 77.8525 61.0049L71.8534 55.0058C71.7597 54.9128 71.6853 54.8023 71.6345 54.6804C71.5838 54.5586 71.5576 54.4279 71.5576 54.2959C71.5576 54.1639 71.5838 54.0332 71.6345 53.9114C71.6853 53.7895 71.7597 53.6789 71.8534 53.586C72.0407 53.3998 72.2941 53.2952 72.5583 53.2952C72.8224 53.2952 73.0758 53.3998 73.2632 53.586L79.3123 59.6351C79.4918 59.8193 79.7064 59.9655 79.9434 60.0651C80.1804 60.1647 80.435 60.2157 80.6921 60.2151H90.4707C90.7545 60.2129 91.035 60.1544 91.2959 60.0428C91.5568 59.9312 91.7929 59.7688 91.9905 59.5651C92.3 59.2648 92.5125 58.8787 92.6006 58.4566C92.6887 58.0344 92.6484 57.5956 92.4849 57.1965C92.3214 56.7975 92.0422 56.4565 91.6832 56.2175C91.3243 55.9786 90.902 55.8525 90.4707 55.8557H82.9718C82.7048 55.8546 82.4408 55.8001 82.1952 55.6953C81.9496 55.5906 81.7275 55.4377 81.542 55.2458L75.5928 49.3966C75.4559 49.2035 75.3919 48.9681 75.4123 48.7323C75.4326 48.4964 75.536 48.2755 75.704 48.1087C75.872 47.9419 76.0937 47.8401 76.3296 47.8215C76.5656 47.8028 76.8005 47.8685 76.9926 48.0068L82.9118 53.866H90.4307C91.5365 53.866 92.597 54.3052 93.379 55.0871C94.1609 55.8691 94.6001 56.9296 94.6001 58.0354C94.6001 59.1412 94.1609 60.2017 93.379 60.9836C92.597 61.7655 91.5365 62.2048 90.4307 62.2048V62.1948Z" fill="#61A1F4"/>
<path d="M53.4263 79.2624H37.6785C37.0972 79.2904 36.5161 79.2002 35.9707 78.997C35.4252 78.7939 34.9267 78.4821 34.5053 78.0805C34.0839 77.679 33.7485 77.1961 33.5193 76.6611C33.2901 76.126 33.1719 75.55 33.1719 74.968C33.1719 74.3859 33.2901 73.8099 33.5193 73.2749C33.7485 72.7399 34.0839 72.257 34.5053 71.8554C34.9267 71.4539 35.4252 71.1421 35.9707 70.939C36.5161 70.7358 37.0972 70.6455 37.6785 70.6736H48.9969L55.316 62.8747C55.4831 62.6679 55.7255 62.5359 55.9899 62.5077C56.2543 62.4796 56.302 62.6101 56.5088 62.7772C56.7157 62.9443 56.8477 63.1866 56.8758 63.451C56.9039 63.7154 57.0429 63.9277 56.8758 64.1345L50.1968 72.3034C50.1027 72.4194 49.9838 72.5128 49.8488 72.5768C49.7138 72.6409 49.5662 72.6738 49.4169 72.6733H37.6785C37.3645 72.6526 37.0495 72.6965 36.7531 72.8025C36.4567 72.9084 36.1852 73.074 35.9554 73.2891C35.7256 73.5043 35.5424 73.7643 35.4172 74.053C35.2919 74.3418 35.2273 74.6532 35.2273 74.968C35.2273 75.2828 35.2919 75.5942 35.4172 75.8829C35.5424 76.1717 35.7256 76.4317 35.9554 76.6468C36.1852 76.8619 36.4567 77.0276 36.7531 77.1335C37.0495 77.2395 37.3645 77.2834 37.6785 77.2627H52.9964L60.3153 68.174C60.484 67.9764 60.723 67.8523 60.9816 67.8278C61.2402 67.8034 61.3932 68.0115 61.5959 68.174C61.7987 68.3364 62.0352 68.4404 62.0677 68.6981C62.1002 68.9558 62.0311 69.2161 61.8751 69.4238L54.2562 78.8924C54.1569 79.0153 54.0299 79.1128 53.8857 79.1771C53.7414 79.2414 53.584 79.2706 53.4263 79.2624Z" fill="#61A1F4"/>
<path d="M79.2922 39.9179C77.8161 39.9199 76.3726 39.4838 75.1445 38.665C73.9163 37.8461 72.9587 36.6813 72.3929 35.318C71.8271 33.9546 71.6786 32.4541 71.9661 31.0062C72.2536 29.5584 72.9642 28.2284 74.0079 27.1847C75.0517 26.1409 76.3816 25.4303 77.8295 25.1428C79.2773 24.8554 80.7779 25.0039 82.1412 25.5697C83.5046 26.1355 84.6694 27.0931 85.4882 28.3212C86.3071 29.5494 86.7431 30.9928 86.7411 32.4689C86.7385 34.4437 85.9528 36.3368 84.5565 37.7332C83.1601 39.1296 81.2669 39.9152 79.2922 39.9179ZM79.2922 27.0097C78.212 27.0077 77.1556 27.3262 76.2565 27.9249C75.3574 28.5236 74.6561 29.3755 74.2414 30.3728C73.8267 31.3702 73.7171 32.4682 73.9266 33.5278C74.1362 34.5875 74.6553 35.5612 75.4184 36.3256C76.1815 37.0901 77.1542 37.6111 78.2135 37.8225C79.2727 38.034 80.3709 37.9265 81.369 37.5136C82.3671 37.1007 83.2204 36.4009 83.8207 35.503C84.421 34.605 84.7414 33.5491 84.7414 32.4689C84.7388 31.0236 84.1641 29.6381 83.1431 28.6151C82.122 27.5922 80.7375 27.015 79.2922 27.0097Z" fill="#61A1F4"/>
<path class='anim-hover' d="M47.3264 35.5886H36.9979C36.7327 35.5886 36.4784 35.4832 36.2909 35.2957C36.1034 35.1082 35.998 34.8539 35.998 34.5887C35.998 34.3235 36.1034 34.0692 36.2909 33.8817C36.4784 33.6942 36.7327 33.5889 36.9979 33.5889H47.3264C47.5916 33.5889 47.8459 33.6942 48.0334 33.8817C48.221 34.0692 48.3263 34.3235 48.3263 34.5887C48.3263 34.8539 48.221 35.1082 48.0334 35.2957C47.8459 35.4832 47.5916 35.5886 47.3264 35.5886Z" fill="#F29021"/>
<path class='anim-hover' d="M33.5886 35.5886H32.5887C32.3235 35.5886 32.0692 35.4832 31.8817 35.2957C31.6942 35.1082 31.5889 34.8539 31.5889 34.5887C31.5889 34.3235 31.6942 34.0692 31.8817 33.8817C32.0692 33.6942 32.3235 33.5889 32.5887 33.5889H33.5886C33.8538 33.5889 34.1081 33.6942 34.2956 33.8817C34.4831 34.0692 34.5884 34.3235 34.5884 34.5887C34.5884 34.8539 34.4831 35.1082 34.2956 35.2957C34.1081 35.4832 33.8538 35.5886 33.5886 35.5886Z" fill="#F29021"/>
<path class='anim-hover' d="M36.3284 41.8073H25.9999C25.7347 41.8073 25.4804 41.702 25.2929 41.5145C25.1053 41.327 25 41.0727 25 40.8075C25 40.5423 25.1053 40.288 25.2929 40.1005C25.4804 39.913 25.7347 39.8076 25.9999 39.8076H36.3284C36.5936 39.8076 36.8479 39.913 37.0354 40.1005C37.2229 40.288 37.3283 40.5423 37.3283 40.8075C37.3283 41.0727 37.2229 41.327 37.0354 41.5145C36.8479 41.702 36.5936 41.8073 36.3284 41.8073Z" fill="#F29021"/>
<path class='anim-hover' d="M40.738 41.8073H39.7381C39.473 41.8073 39.2186 41.702 39.0311 41.5145C38.8436 41.327 38.7383 41.0727 38.7383 40.8075C38.7383 40.5423 38.8436 40.288 39.0311 40.1005C39.2186 39.913 39.473 39.8076 39.7381 39.8076H40.738C41.0032 39.8076 41.2575 39.913 41.445 40.1005C41.6325 40.288 41.7379 40.5423 41.7379 40.8075C41.7379 41.0727 41.6325 41.327 41.445 41.5145C41.2575 41.702 41.0032 41.8073 40.738 41.8073Z" fill="#F29021"/>
<path class='anim-hover' d="M43.9973 59.2253H33.6288C33.3636 59.2253 33.1093 59.12 32.9218 58.9324C32.7342 58.7449 32.6289 58.4906 32.6289 58.2254C32.6289 57.9603 32.7342 57.7059 32.9218 57.5184C33.1093 57.3309 33.3636 57.2256 33.6288 57.2256H43.9973C44.2625 57.2256 44.5168 57.3309 44.7043 57.5184C44.8918 57.7059 44.9971 57.9603 44.9971 58.2254C44.9971 58.4906 44.8918 58.7449 44.7043 58.9324C44.5168 59.12 44.2625 59.2253 43.9973 59.2253Z" fill="#F29021"/>
<path class='anim-hover' d="M48.3669 59.2253H47.367C47.1019 59.2253 46.8475 59.12 46.66 58.9324C46.4725 58.7449 46.3672 58.4906 46.3672 58.2254C46.3672 57.9603 46.4725 57.7059 46.66 57.5184C46.8475 57.3309 47.1019 57.2256 47.367 57.2256H48.3669C48.6321 57.2256 48.8864 57.3309 49.0739 57.5184C49.2614 57.7059 49.3668 57.9603 49.3668 58.2254C49.3668 58.4906 49.2614 58.7449 49.0739 58.9324C48.8864 59.12 48.6321 59.2253 48.3669 59.2253Z" fill="#F29021"/>
<path class='anim-hover' d="M40.9983 66.0041H30.6297C30.3646 66.0041 30.1102 65.8988 29.9227 65.7113C29.7352 65.5238 29.6299 65.2694 29.6299 65.0043C29.6299 64.7391 29.7352 64.4848 29.9227 64.2972C30.1102 64.1097 30.3646 64.0044 30.6297 64.0044H40.9983C41.2634 64.0044 41.5178 64.1097 41.7053 64.2972C41.8928 64.4848 41.9981 64.7391 41.9981 65.0043C41.9981 65.2694 41.8928 65.5238 41.7053 65.7113C41.5178 65.8988 41.2634 66.0041 40.9983 66.0041Z" fill="#F29021"/>
<path class='anim-hover' d="M27.2194 66.0041H26.2196C25.9544 66.0041 25.7001 65.8988 25.5126 65.7113C25.3251 65.5238 25.2197 65.2694 25.2197 65.0043C25.2197 64.7391 25.3251 64.4848 25.5126 64.2972C25.7001 64.1097 25.9544 64.0044 26.2196 64.0044H27.2194C27.4846 64.0044 27.7389 64.1097 27.9264 64.2972C28.114 64.4848 28.2193 64.7391 28.2193 65.0043C28.2193 65.2694 28.114 65.5238 27.9264 65.7113C27.7389 65.8988 27.4846 66.0041 27.2194 66.0041Z" fill="#F29021"/>
<path fill-rule="evenodd" clip-rule="evenodd" d="M58.6643 54.8921L67.913 62.476L66.5055 64.1924L57.2568 56.6085L58.6643 54.8921Z" fill="#61A1F4"/>
<circle cx="74.9165" cy="82.8838" r="1.03079" fill="#61A1F4"/>
<path fill-rule="evenodd" clip-rule="evenodd" d="M68.303 93.6911C69.1363 94.5244 70.265 94.9948 71.4434 95.0001H71.6034C72.78 94.979 73.9003 94.4927 74.7192 93.6476C75.5381 92.8025 75.9888 91.6674 75.9728 90.4907L75.9634 86.1983C75.9622 85.6303 75.5014 85.1706 74.9335 85.1706C74.3638 85.1706 73.9023 85.6331 73.9036 86.2028L73.9131 90.5207C73.9212 91.1636 73.6762 91.784 73.231 92.2479C72.7858 92.7118 72.1761 92.982 71.5334 93.0004C71.202 93.0178 70.8704 92.9686 70.5584 92.8556C70.2464 92.7426 69.9602 92.5681 69.7168 92.3425C69.4735 92.1168 69.2779 91.8446 69.1417 91.542C69.0054 91.2394 68.9313 90.9125 68.9238 90.5807V75.9128C68.9279 75.4793 68.841 75.0497 68.6688 74.6519C68.4966 74.2541 68.2428 73.8968 67.9239 73.6031L58.4953 65.2243C57.3718 64.2305 56.6568 62.8553 56.4887 61.3648C56.3207 59.8743 56.7114 58.3745 57.5854 57.1554L64.6644 47.1569C64.7676 47.0131 64.8308 46.8446 64.8476 46.6684C64.8644 46.4923 64.8342 46.3148 64.76 46.1542C64.6857 45.9936 64.5702 45.8555 64.4252 45.7541C64.2802 45.6527 64.1108 45.5916 63.9345 45.5771L54.6658 44.7872H54.4458H54.4358C54.1023 44.7849 53.7718 44.8501 53.4642 44.979C53.1566 45.1079 52.8783 45.2977 52.6461 45.5371L45.997 52.2461C45.8357 52.4239 45.64 52.5669 45.4217 52.6666C45.2034 52.7663 44.9671 52.8205 44.7272 52.8261C44.4917 52.8277 44.2582 52.7826 44.0402 52.6934C43.8222 52.6041 43.6241 52.4725 43.4574 52.3061C43.1252 51.971 42.9389 51.5182 42.9389 51.0463C42.9389 50.5744 43.1252 50.1217 43.4574 49.7865L52.3561 41.0177C52.4864 40.886 52.6424 40.7825 52.8144 40.7137C52.9865 40.6449 53.1708 40.6123 53.356 40.6178H67.7739C68.3989 40.6166 69.0117 40.7897 69.5437 41.1177L74.323 43.9873C74.6866 44.2047 75.0023 44.4937 75.251 44.8367C75.4996 45.1797 75.676 45.5696 75.7695 45.9828C75.863 46.3961 75.8716 46.8239 75.7948 47.2406C75.7181 47.6572 75.5575 48.0539 75.3229 48.4067L65.8442 62.4947C65.7143 62.6915 65.6581 62.9278 65.6855 63.162C65.713 63.3962 65.8223 63.6131 65.9942 63.7745L73.4831 70.7735C73.5838 70.8709 73.6639 70.9873 73.7189 71.1161C73.7738 71.2449 73.8024 71.3834 73.8031 71.5234L73.8504 79.6967C73.8537 80.2632 74.3138 80.7206 74.8803 80.7206C75.4514 80.7206 75.9135 80.2559 75.9102 79.6848L75.8628 71.4934C75.855 71.0809 75.7622 70.6743 75.5902 70.2993C75.4181 69.9242 75.1705 69.5887 74.8629 69.3137L67.9939 62.8446L76.9926 49.4565C77.3832 48.8785 77.6515 48.2268 77.7811 47.5413C77.9107 46.8558 77.8988 46.1511 77.7462 45.4704C77.5935 44.7897 77.3034 44.1474 76.8936 43.5828C76.4837 43.0183 75.9628 42.5435 75.3629 42.1876L70.5835 39.318C69.7392 38.807 68.7709 38.5373 67.7839 38.5381H53.366C52.9244 38.5393 52.4875 38.6283 52.0807 38.8C51.6739 38.9716 51.3053 39.2225 50.9963 39.5379L42.0676 48.2967C41.5339 48.8236 41.169 49.4973 41.0194 50.2322C40.8697 50.9671 40.9421 51.7298 41.2273 52.4235C41.5124 53.1171 41.9975 53.7102 42.6207 54.1273C43.244 54.5444 43.9773 54.7667 44.7272 54.7658C45.2262 54.769 45.7207 54.6714 46.1812 54.479C46.6416 54.2866 47.0585 54.0032 47.4068 53.6459L54.0559 46.9369C54.1115 46.884 54.1776 46.8433 54.25 46.8174C54.3223 46.7916 54.3992 46.7812 54.4758 46.7869L61.9948 47.4368L55.9956 56.0056C54.8472 57.6215 54.3346 59.604 54.556 61.574C54.7773 63.544 55.717 65.3634 57.1954 66.6841L66.6241 75.0629C66.7396 75.1662 66.8321 75.2925 66.8959 75.4337C66.9596 75.5749 66.993 75.7279 66.994 75.8828V90.5507C66.9993 91.7291 67.4698 92.8578 68.303 93.6911Z" fill="#61A1F4"/>
</svg>
