<svg width="48" height="48" viewBox="0 0 48 48" fill="none" xmlns="http://www.w3.org/2000/svg">
<path d="M40 26C38.8954 26 38 25.1046 38 24C38 22.8954 38.8954 22 40 22C41.1046 22 42 22.8954 42 24C42 25.1046 41.1046 26 40 26Z" fill="#DCEDFF"/>
<path d="M7.88 22H32.12C33.1583 22 34 22.8417 34 23.88V24.12C34 25.1583 33.1583 26 32.12 26H7.88C6.84171 26 6 25.1583 6 24.12V23.88C6 22.8417 6.84171 22 7.88 22Z" fill="#61A1F4"/>
<path d="M7.88 32H40.12C41.1583 32 42 32.8417 42 33.88V34.12C42 35.1583 41.1583 36 40.12 36H7.88C6.84171 36 6 35.1583 6 34.12V33.88C6 32.8417 6.84171 32 7.88 32Z" fill="#61A1F4"/>
<path d="M7.88 12H40.12C41.1583 12 42 12.8417 42 13.88V14.12C42 15.1583 41.1583 16 40.12 16H7.88C6.84171 16 6 15.1583 6 14.12V13.88C6 12.8417 6.84171 12 7.88 12Z" fill="#61A1F4"/>
</svg>
