<svg width="79" height="79" viewBox="0 0 79 79" fill="none" xmlns="http://www.w3.org/2000/svg">
<path d="M75.5 27.5H3.5L2.5 64.5L4.5 70.5L12.5 75.5L66.5 76.5L73.5 71.5L75.5 64.5V27.5Z" fill="#E6F2FF"/>
<mask id="path-2-inside-1_203_465" fill="white">
<path fill-rule="evenodd" clip-rule="evenodd" d="M20.2129 0.160864C19.4525 0.426563 18.7988 1.00487 18.4542 1.71648C18.1822 2.27859 18.1299 2.67297 18.1299 4.16518V5.94391L15.6977 6.03957C12.318 6.17273 10.5717 6.57822 8.20319 7.77989C4.31615 9.75196 1.53417 13.2863 0.335133 17.7755L0 19.0303V42.4834V65.9365L0.35118 67.316C0.731213 68.8085 1.75389 71.1115 2.55084 72.27C3.24857 73.284 4.92392 75.0293 5.9787 75.8409C7.94968 77.3576 10.701 78.49 13.2132 78.8186C14.1155 78.9367 22.2567 78.9737 40.2715 78.9418L66.0391 78.8959L67.2336 78.5562C69.9815 77.7745 72.0469 76.6603 73.8459 74.9891C76.5323 72.4932 78.0878 69.6818 78.6888 66.2353C79.042 64.21 79.0406 20.749 78.6872 18.7229C78.1393 15.5802 76.7272 12.9067 74.3691 10.547C71.129 7.30496 67.6592 6.01165 62.1585 5.99622L60.7468 5.99221L60.6927 3.99946C60.6405 2.07368 60.6231 1.9845 60.1758 1.35157C58.8274 -0.556771 56.0445 -0.393833 54.9735 1.65631C54.577 2.41545 54.5439 2.61341 54.5439 4.23538V5.99221H39.4229H24.3018V4.23538C24.3018 2.61341 24.2687 2.41545 23.8722 1.65631C23.1737 0.319327 21.5996 -0.323937 20.2129 0.160864ZM18.1299 15.4864C18.1299 19.0328 18.214 19.5301 18.9473 20.3162C20.5221 22.0044 23.5347 21.3228 24.1407 19.1412C24.2283 18.8257 24.3004 17.1266 24.3008 15.3657L24.3018 12.1641H39.4229H54.5439L54.5449 15.3657C54.5453 17.1266 54.6174 18.8257 54.705 19.1412C55.311 21.3228 58.3236 22.0044 59.8984 20.3162C60.6325 19.5291 60.7158 19.0345 60.7158 15.4637V12.1187L62.9146 12.2088C64.1466 12.2591 65.5148 12.4069 66.0266 12.5449C68.4787 13.2056 70.6863 15.0443 71.8207 17.371C72.4964 18.7566 72.7451 20.0812 72.7484 22.3091L72.751 24.1992H39.4229H6.09473L6.09735 22.3091C6.10059 20.0812 6.34932 18.7566 7.02498 17.371C8.37061 14.6109 10.9177 12.7751 14.0375 12.3165C14.4636 12.2539 15.559 12.1939 16.4712 12.1834L18.1299 12.1641V15.4864ZM72.751 47.5505C72.751 64.2371 72.7422 64.7647 72.4418 65.9392C71.6763 68.9316 69.3747 71.3806 66.4171 72.3491L65.2676 72.7256H39.4229H13.5781L12.4286 72.3491C11.062 71.9017 9.29006 70.758 8.40455 69.7522C7.48556 68.7082 6.75666 67.3178 6.40286 65.9348C6.10398 64.7659 6.09473 64.2168 6.09473 47.5505V30.3711H39.4229H72.751V47.5505ZM16.9713 39.7624C15.9258 40.2375 15.0456 41.5161 15.0456 42.5606C15.0456 43.605 15.9258 44.8837 16.9713 45.3587C17.5121 45.6044 18.0415 45.6402 21.1822 45.6431C25.1532 45.6468 25.4915 45.5845 26.4297 44.6766C26.7457 44.3706 27.0263 43.8787 27.1734 43.3729C27.3854 42.6436 27.3854 42.4776 27.1734 41.7482C27.0263 41.2424 26.7457 40.7505 26.4297 40.4445C25.4915 39.5367 25.1532 39.4743 21.1822 39.478C18.0415 39.481 17.5121 39.5168 16.9713 39.7624ZM34.9763 39.8753C33.196 40.7624 32.7532 43.0201 34.0663 44.5155C34.9888 45.5663 35.3386 45.6397 39.4229 45.6397C43.4412 45.6397 43.8157 45.566 44.7277 44.5948C46.094 43.1401 45.5433 40.6363 43.666 39.7672C43.1212 39.5149 42.6224 39.481 39.4145 39.478C35.808 39.4746 35.7742 39.4777 34.9763 39.8753ZM53.4639 39.7206C50.8965 40.8327 50.9172 44.331 53.4975 45.4072C53.9609 45.6005 54.7618 45.6459 57.6635 45.6431C60.8042 45.6402 61.3336 45.6044 61.8744 45.3587C62.92 44.8837 63.8001 43.605 63.8001 42.5606C63.8001 41.5161 62.92 40.2375 61.8744 39.7624C61.3316 39.5158 60.8115 39.4817 57.6299 39.484C54.7345 39.4862 53.8951 39.5339 53.4639 39.7206ZM16.7693 58.0824C14.989 58.9694 14.5462 61.2271 15.8592 62.7225C16.7796 63.7708 17.1359 63.8463 21.1822 63.8501C24.0839 63.8529 24.8848 63.8076 25.3482 63.6142C27.4442 62.7401 27.9726 60.1089 26.3599 58.577C25.4895 57.7503 25.0921 57.6817 21.1739 57.6817C17.6068 57.6817 17.5658 57.6854 16.7693 58.0824ZM35.334 57.8863C34.2342 58.3166 33.5454 59.1521 33.3287 60.3187C33.1018 61.5411 33.9327 62.9998 35.1783 63.5658C35.7205 63.812 36.245 63.8467 39.4229 63.8467C43.5312 63.8467 43.9004 63.7671 44.7888 62.6892C46.0687 61.1365 45.52 58.8326 43.666 57.9742C43.1187 57.7209 42.6382 57.6894 39.4229 57.6968C37.0323 57.7023 35.6392 57.7668 35.334 57.8863ZM53.4639 57.9276C50.8965 59.0398 50.9172 62.538 53.4975 63.6142C53.9609 63.8076 54.7618 63.8529 57.6635 63.8501C61.7098 63.8463 62.0661 63.7708 62.9865 62.7225C64.3051 61.2208 63.845 58.9636 62.0364 58.0625C61.288 57.6894 61.1986 57.6818 57.6382 57.6877C54.7411 57.6925 53.8944 57.7412 53.4639 57.9276Z"/>
</mask>
<path fill-rule="evenodd" clip-rule="evenodd" d="M20.2129 0.160864C19.4525 0.426563 18.7988 1.00487 18.4542 1.71648C18.1822 2.27859 18.1299 2.67297 18.1299 4.16518V5.94391L15.6977 6.03957C12.318 6.17273 10.5717 6.57822 8.20319 7.77989C4.31615 9.75196 1.53417 13.2863 0.335133 17.7755L0 19.0303V42.4834V65.9365L0.35118 67.316C0.731213 68.8085 1.75389 71.1115 2.55084 72.27C3.24857 73.284 4.92392 75.0293 5.9787 75.8409C7.94968 77.3576 10.701 78.49 13.2132 78.8186C14.1155 78.9367 22.2567 78.9737 40.2715 78.9418L66.0391 78.8959L67.2336 78.5562C69.9815 77.7745 72.0469 76.6603 73.8459 74.9891C76.5323 72.4932 78.0878 69.6818 78.6888 66.2353C79.042 64.21 79.0406 20.749 78.6872 18.7229C78.1393 15.5802 76.7272 12.9067 74.3691 10.547C71.129 7.30496 67.6592 6.01165 62.1585 5.99622L60.7468 5.99221L60.6927 3.99946C60.6405 2.07368 60.6231 1.9845 60.1758 1.35157C58.8274 -0.556771 56.0445 -0.393833 54.9735 1.65631C54.577 2.41545 54.5439 2.61341 54.5439 4.23538V5.99221H39.4229H24.3018V4.23538C24.3018 2.61341 24.2687 2.41545 23.8722 1.65631C23.1737 0.319327 21.5996 -0.323937 20.2129 0.160864ZM18.1299 15.4864C18.1299 19.0328 18.214 19.5301 18.9473 20.3162C20.5221 22.0044 23.5347 21.3228 24.1407 19.1412C24.2283 18.8257 24.3004 17.1266 24.3008 15.3657L24.3018 12.1641H39.4229H54.5439L54.5449 15.3657C54.5453 17.1266 54.6174 18.8257 54.705 19.1412C55.311 21.3228 58.3236 22.0044 59.8984 20.3162C60.6325 19.5291 60.7158 19.0345 60.7158 15.4637V12.1187L62.9146 12.2088C64.1466 12.2591 65.5148 12.4069 66.0266 12.5449C68.4787 13.2056 70.6863 15.0443 71.8207 17.371C72.4964 18.7566 72.7451 20.0812 72.7484 22.3091L72.751 24.1992H39.4229H6.09473L6.09735 22.3091C6.10059 20.0812 6.34932 18.7566 7.02498 17.371C8.37061 14.6109 10.9177 12.7751 14.0375 12.3165C14.4636 12.2539 15.559 12.1939 16.4712 12.1834L18.1299 12.1641V15.4864ZM72.751 47.5505C72.751 64.2371 72.7422 64.7647 72.4418 65.9392C71.6763 68.9316 69.3747 71.3806 66.4171 72.3491L65.2676 72.7256H39.4229H13.5781L12.4286 72.3491C11.062 71.9017 9.29006 70.758 8.40455 69.7522C7.48556 68.7082 6.75666 67.3178 6.40286 65.9348C6.10398 64.7659 6.09473 64.2168 6.09473 47.5505V30.3711H39.4229H72.751V47.5505ZM16.9713 39.7624C15.9258 40.2375 15.0456 41.5161 15.0456 42.5606C15.0456 43.605 15.9258 44.8837 16.9713 45.3587C17.5121 45.6044 18.0415 45.6402 21.1822 45.6431C25.1532 45.6468 25.4915 45.5845 26.4297 44.6766C26.7457 44.3706 27.0263 43.8787 27.1734 43.3729C27.3854 42.6436 27.3854 42.4776 27.1734 41.7482C27.0263 41.2424 26.7457 40.7505 26.4297 40.4445C25.4915 39.5367 25.1532 39.4743 21.1822 39.478C18.0415 39.481 17.5121 39.5168 16.9713 39.7624ZM34.9763 39.8753C33.196 40.7624 32.7532 43.0201 34.0663 44.5155C34.9888 45.5663 35.3386 45.6397 39.4229 45.6397C43.4412 45.6397 43.8157 45.566 44.7277 44.5948C46.094 43.1401 45.5433 40.6363 43.666 39.7672C43.1212 39.5149 42.6224 39.481 39.4145 39.478C35.808 39.4746 35.7742 39.4777 34.9763 39.8753ZM53.4639 39.7206C50.8965 40.8327 50.9172 44.331 53.4975 45.4072C53.9609 45.6005 54.7618 45.6459 57.6635 45.6431C60.8042 45.6402 61.3336 45.6044 61.8744 45.3587C62.92 44.8837 63.8001 43.605 63.8001 42.5606C63.8001 41.5161 62.92 40.2375 61.8744 39.7624C61.3316 39.5158 60.8115 39.4817 57.6299 39.484C54.7345 39.4862 53.8951 39.5339 53.4639 39.7206ZM16.7693 58.0824C14.989 58.9694 14.5462 61.2271 15.8592 62.7225C16.7796 63.7708 17.1359 63.8463 21.1822 63.8501C24.0839 63.8529 24.8848 63.8076 25.3482 63.6142C27.4442 62.7401 27.9726 60.1089 26.3599 58.577C25.4895 57.7503 25.0921 57.6817 21.1739 57.6817C17.6068 57.6817 17.5658 57.6854 16.7693 58.0824ZM35.334 57.8863C34.2342 58.3166 33.5454 59.1521 33.3287 60.3187C33.1018 61.5411 33.9327 62.9998 35.1783 63.5658C35.7205 63.812 36.245 63.8467 39.4229 63.8467C43.5312 63.8467 43.9004 63.7671 44.7888 62.6892C46.0687 61.1365 45.52 58.8326 43.666 57.9742C43.1187 57.7209 42.6382 57.6894 39.4229 57.6968C37.0323 57.7023 35.6392 57.7668 35.334 57.8863ZM53.4639 57.9276C50.8965 59.0398 50.9172 62.538 53.4975 63.6142C53.9609 63.8076 54.7618 63.8529 57.6635 63.8501C61.7098 63.8463 62.0661 63.7708 62.9865 62.7225C64.3051 61.2208 63.845 58.9636 62.0364 58.0625C61.288 57.6894 61.1986 57.6818 57.6382 57.6877C54.7411 57.6925 53.8944 57.7412 53.4639 57.9276Z" fill="#343F3E" stroke="white" stroke-width="2.4" mask="url(#path-2-inside-1_203_465)"/>
</svg>
