<svg width="48" height="50" viewBox="0 0 48 50" fill="none" xmlns="http://www.w3.org/2000/svg">
<path d="M26.8199 24.7434L35.4199 16.0217C35.7965 15.6389 36.0081 15.1196 36.0081 14.5782C36.0081 14.0368 35.7965 13.5176 35.4199 13.1348C35.0433 12.7519 34.5325 12.5369 33.9999 12.5369C33.4673 12.5369 32.9565 12.7519 32.5799 13.1348L23.9999 21.8768L15.4199 13.1348C15.0433 12.7519 14.5325 12.5369 13.9999 12.5369C13.4673 12.5369 12.9565 12.7519 12.5799 13.1348C12.2033 13.5176 11.9917 14.0368 11.9917 14.5782C11.9917 15.1196 12.2033 15.6389 12.5799 16.0217L21.1799 24.7434L12.5799 33.4652C12.3924 33.6542 12.2436 33.879 12.1421 34.1268C12.0406 34.3745 11.9883 34.6402 11.9883 34.9086C11.9883 35.177 12.0406 35.4427 12.1421 35.6905C12.2436 35.9382 12.3924 36.1631 12.5799 36.3521C12.7658 36.5426 12.987 36.6939 13.2307 36.7971C13.4744 36.9003 13.7359 36.9534 13.9999 36.9534C14.2639 36.9534 14.5253 36.9003 14.769 36.7971C15.0128 36.6939 15.234 36.5426 15.4199 36.3521L23.9999 27.61L32.5799 36.3521C32.7658 36.5426 32.987 36.6939 33.2307 36.7971C33.4744 36.9003 33.7359 36.9534 33.9999 36.9534C34.2639 36.9534 34.5253 36.9003 34.769 36.7971C35.0128 36.6939 35.2339 36.5426 35.4199 36.3521C35.6073 36.1631 35.7561 35.9382 35.8577 35.6905C35.9592 35.4427 36.0115 35.177 36.0115 34.9086C36.0115 34.6402 35.9592 34.3745 35.8577 34.1268C35.7561 33.879 35.6073 33.6542 35.4199 33.4652L26.8199 24.7434Z" fill="#61A1F4"/>
</svg>
