<svg preserveAspectRatio="none" width="1199" height="85" viewBox="0 0 1199 85" fill="none" xmlns="http://www.w3.org/2000/svg">
<path d="M10.4084 1.94731C11.535 1.94731 12.4952 2.01222 13.289 2.14204C14.1083 2.27186 14.8509 2.49905 15.5166 2.8236C16.2079 3.08324 16.9121 3.44025 17.629 3.89462L17.2833 10.4181C16.5152 10.2234 15.7983 10.0611 15.1325 9.93128C14.4924 9.80145 13.8011 9.70409 13.0585 9.63918C12.316 9.57427 11.4326 9.54181 10.4084 9.54181C8.69288 9.54181 7.33582 10.3856 6.33722 12.0733C5.33863 13.761 4.62169 16.5846 4.18641 20.5441C3.77673 24.5036 3.57189 29.8912 3.57189 36.7068C3.57189 43.5223 3.77673 48.9099 4.18641 52.8694C4.62169 56.8289 5.33863 59.6525 6.33722 61.3402C7.33582 63.0279 8.69288 63.8717 10.4084 63.8717C12.0471 63.8717 13.417 63.8068 14.518 63.677C15.6446 63.4822 16.7456 63.1901 17.821 62.8007L18.1667 69.2268C17.0657 70.0057 15.9263 70.5575 14.7484 70.882C13.5962 71.2715 12.1495 71.4662 10.4084 71.4662C7.87352 71.4662 5.83793 70.3627 4.30163 68.1558C2.79094 65.8839 1.68993 62.2165 0.998593 57.1535C0.332864 52.0905 0 45.2749 0 36.7068C0 28.1386 0.332864 21.323 0.998593 16.26C1.68993 11.197 2.79094 7.56205 4.30163 5.3551C5.83793 3.08324 7.87352 1.94731 10.4084 1.94731Z" fill="#61A1F4"/>
<path d="M33.2728 3.11569C33.5801 3.11569 33.8489 3.34288 34.0794 3.79725C34.3098 4.18671 34.4635 4.73845 34.5403 5.45247L43.0667 70.2978H39.5716L32.6967 15.189C32.5943 14.2803 32.4791 13.3715 32.351 12.4628C32.2486 11.4891 32.1462 10.5804 32.0438 9.73654H30.9684C30.866 10.5804 30.7635 11.4891 30.6611 12.4628C30.5587 13.3715 30.4435 14.2803 30.3155 15.189L23.4405 70.2978H19.9455L28.4719 5.45247C28.5487 4.73845 28.7023 4.18671 28.9328 3.79725C29.1632 3.34288 29.4321 3.11569 29.7393 3.11569H33.2728ZM38.189 41.8671V49.2669H24.7464V41.8671H38.189Z" fill="#61A1F4"/>
<path d="M71.8366 3.11569C72.7584 3.11569 73.2192 4.31653 73.2192 6.71821L74.3331 70.2978H70.9532L69.993 10.2234H69.1865L63.2717 59.7824C63.0669 61.7297 62.5804 62.7033 61.8122 62.7033H58.7781C57.9843 62.7033 57.4722 61.7297 57.2418 59.7824L51.327 10.2234H50.5589L49.6371 70.2978H46.2572L47.2942 6.71821C47.3454 4.31653 47.8191 3.11569 48.7153 3.11569H52.556C53.273 3.11569 53.7467 4.08935 53.9771 6.03666L58.9317 47.0275C59.1365 48.5204 59.303 50.0134 59.431 51.5063C59.5846 52.9992 59.751 54.5246 59.9303 56.0825H60.6216C60.8008 54.5246 60.9673 52.9992 61.1209 51.5063C61.2745 50.0134 61.441 48.4555 61.6202 46.8328L66.5748 6.03666C66.7796 4.08935 67.2661 3.11569 68.0342 3.11569H71.8366Z" fill="#61A1F4"/>
<path d="M89.9631 1.84995C91.8834 1.84995 93.5094 2.43414 94.8408 3.60252C96.1979 4.77091 97.2733 6.71821 98.067 9.44445C98.8864 12.1058 99.4753 15.6758 99.8338 20.1546C100.218 24.6334 100.41 30.1508 100.41 36.7068C100.41 43.2627 100.218 48.7801 99.8338 53.2589C99.4753 57.7377 98.8864 61.3402 98.067 64.0664C97.2733 66.7278 96.1979 68.6426 94.8408 69.811C93.5094 70.9794 91.8834 71.5636 89.9631 71.5636C88.0427 71.5636 86.404 70.9794 85.0469 69.811C83.7155 68.6426 82.6401 66.7278 81.8207 64.0664C81.0013 61.3402 80.3996 57.7377 80.0155 53.2589C79.6571 48.7801 79.4779 43.2627 79.4779 36.7068C79.4779 30.1508 79.6571 24.6334 80.0155 20.1546C80.3996 15.6758 81.0013 12.1058 81.8207 9.44445C82.6401 6.71821 83.7155 4.77091 85.0469 3.60252C86.404 2.43414 88.0427 1.84995 89.9631 1.84995ZM89.9631 9.54181C88.2219 9.54181 86.8393 10.3856 85.8151 12.0733C84.8165 13.761 84.0995 16.5846 83.6643 20.5441C83.2546 24.4387 83.0497 29.8263 83.0497 36.7068C83.0497 43.5223 83.2546 48.9099 83.6643 52.8694C84.0995 56.8289 84.8165 59.6525 85.8151 61.3402C86.8393 63.0279 88.2219 63.8717 89.9631 63.8717C91.7042 63.8717 93.0741 63.0279 94.0727 61.3402C95.0969 59.6525 95.8138 56.8289 96.2235 52.8694C96.6588 48.9099 96.8764 43.5223 96.8764 36.7068C96.8764 29.8263 96.6588 24.4387 96.2235 20.5441C95.8138 16.5846 95.0969 13.761 94.0727 12.0733C93.0741 10.3856 91.7042 9.54181 89.9631 9.54181Z" fill="#61A1F4"/>
<path d="M123.576 3.11569V10.126H115.434C113.693 10.126 112.746 12.3979 112.592 16.9416C112.387 22.6537 112.208 27.5869 112.054 31.7411C111.901 35.8954 111.721 39.5304 111.517 42.646C111.337 45.6968 111.12 48.4231 110.864 50.8247C110.608 53.1615 110.262 55.4334 109.827 57.6403C109.34 60.3016 108.777 62.606 108.137 64.5533C107.497 66.4357 106.754 67.8961 105.909 68.9347C105.09 69.9084 104.168 70.3952 103.144 70.3952L102.836 63.7743C103.656 63.1252 104.373 62.184 104.987 60.9507C105.627 59.7175 106.178 57.835 106.639 55.3035C106.946 53.6159 107.202 51.9282 107.407 50.2405C107.637 48.5529 107.829 46.7029 107.983 44.6907C108.162 42.6136 108.316 40.2444 108.444 37.583C108.598 34.8568 108.738 31.7087 108.866 28.1386C108.994 24.5036 109.135 20.252 109.289 15.3837C109.596 7.20504 111.35 3.11569 114.551 3.11569H123.576ZM124.114 3.11569V70.2978H120.734V3.11569H124.114Z" fill="#61A1F4"/>
<path d="M134.191 3.11569V70.2978H130.811V3.11569H134.191Z" fill="#61A1F4"/>
<path d="M158.684 3.11569C158.172 6.81558 157.686 10.2558 157.225 13.4364C156.764 16.617 156.29 19.4731 155.804 22.0046C155.343 24.5361 154.831 26.743 154.267 28.6254C153.73 30.4429 153.115 31.9034 152.424 33.0069C151.732 34.1103 150.926 34.7919 150.004 35.0515V35.441C151.003 35.7006 151.873 36.3822 152.616 37.4857C153.358 38.5892 154.011 40.147 154.575 42.1592C155.163 44.1065 155.701 46.4758 156.188 49.2669C156.7 51.9931 157.199 55.1413 157.686 58.7113C158.198 62.2165 158.761 66.0787 159.375 70.2978H155.804C155.087 65.2348 154.447 60.756 153.883 56.8614C153.32 52.9668 152.718 49.6888 152.078 47.0275C151.464 44.3013 150.747 42.2566 149.927 40.8935C149.108 39.4654 148.084 38.7514 146.855 38.7514V31.8385C148.007 31.8385 148.98 31.1245 149.774 29.6964C150.593 28.2035 151.31 26.1588 151.924 23.5624C152.539 20.966 153.102 17.9477 153.614 14.5074C154.126 11.0023 154.664 7.20504 155.227 3.11569H158.684ZM144.205 3.11569V24.1466C144.205 26.0939 144.166 27.9763 144.089 29.7938C144.013 31.6113 143.897 33.3963 143.744 35.1489C143.872 36.9664 143.974 38.7839 144.051 40.6014C144.153 42.4189 144.205 44.1714 144.205 45.8591V70.2978H140.863V3.11569H144.205ZM148.276 31.8385V38.7514H143.168V31.8385H148.276Z" fill="#61A1F4"/>
<path d="M181.714 3.11569L174.57 53.7457C174.135 56.7316 173.661 59.4903 173.149 62.0218C172.637 64.5533 172.022 66.6304 171.305 68.2531C170.588 69.8759 169.692 70.7846 168.617 70.9794C168.181 71.0443 167.669 71.0118 167.08 70.882C166.517 70.8171 165.941 70.6548 165.352 70.3952C164.789 70.1356 164.289 69.8759 163.854 69.6163L164.238 63.2875C165.518 63.5471 166.517 63.677 167.234 63.677C167.977 63.677 168.553 63.3849 168.962 62.8007C169.398 62.1516 169.769 61.113 170.076 59.685C170.383 58.257 170.742 56.2772 171.152 53.7457L172.035 48.0011L172.419 44.9828L178.257 3.11569H181.714ZM164.853 3.11569L170.191 41.9645C170.345 43.0031 170.639 43.5223 171.075 43.5223H172.957L173.456 50.7274H170.153C169.436 50.7274 168.86 50.3704 168.425 49.6564C168.015 48.8774 167.708 47.709 167.503 46.1512L161.358 3.11569H164.853Z" fill="#61A1F4"/>
<path d="M194.137 2.33677C196.314 2.33677 198.042 2.85606 199.323 3.89462C200.603 4.86827 201.525 6.62085 202.088 9.15235C202.677 11.6838 202.971 15.2539 202.971 19.8625C202.971 24.6659 202.613 28.3333 201.896 30.8648C201.204 33.3963 200.065 34.8568 198.478 35.2463V35.6357C200.449 36.0901 201.819 37.8427 202.587 40.8935C203.381 43.9442 203.778 48.1634 203.778 53.551C203.778 58.1596 203.496 61.7297 202.933 64.2612C202.369 66.7927 201.461 68.5777 200.206 69.6163C198.977 70.5899 197.351 71.0767 195.328 71.0767C193.817 71.0767 192.512 71.0443 191.411 70.9794C190.335 70.9794 189.337 70.9145 188.415 70.7846C187.493 70.6548 186.533 70.4926 185.534 70.2978L186.072 63.4822C186.635 63.5471 187.698 63.6121 189.26 63.677C190.847 63.7419 192.691 63.7743 194.79 63.7743C196.199 63.7743 197.3 63.4822 198.093 62.8981C198.913 62.249 199.489 61.0806 199.822 59.3929C200.18 57.7052 200.359 55.2711 200.359 52.0905C200.359 48.5853 200.18 45.8916 199.822 44.0092C199.463 42.1268 198.862 40.7961 198.017 40.0172C197.172 39.2383 196.019 38.8163 194.56 38.7514H186.034V32.2279H194.522C195.802 32.163 196.813 31.8385 197.556 31.2543C198.324 30.6052 198.874 29.4693 199.207 27.8465C199.54 26.1588 199.707 23.8221 199.707 20.8362C199.707 17.7854 199.527 15.4486 199.169 13.8259C198.81 12.2031 198.209 11.0997 197.364 10.5155C196.544 9.93127 195.418 9.63918 193.984 9.63918C192.729 9.63918 191.603 9.63918 190.604 9.63918C189.605 9.63918 188.722 9.67163 187.954 9.73654C187.211 9.73654 186.584 9.80145 186.072 9.93128L185.534 3.11569C186.43 2.85606 187.275 2.69378 188.069 2.62887C188.888 2.49905 189.772 2.43414 190.719 2.43414C191.692 2.36923 192.832 2.33677 194.137 2.33677ZM188.837 3.11569V70.2978H185.534V3.11569H188.837Z" fill="#61A1F4"/>
<path d="M219.721 3.11569C220.029 3.11569 220.297 3.34288 220.528 3.79725C220.758 4.18671 220.912 4.73845 220.989 5.45247L229.515 70.2978H226.02L219.145 15.189C219.043 14.2803 218.928 13.3715 218.8 12.4628C218.697 11.4891 218.595 10.5804 218.492 9.73654H217.417C217.314 10.5804 217.212 11.4891 217.11 12.4628C217.007 13.3715 216.892 14.2803 216.764 15.189L209.889 70.2978H206.394L214.92 5.45247C214.997 4.73845 215.151 4.18671 215.381 3.79725C215.612 3.34288 215.881 3.11569 216.188 3.11569H219.721ZM224.637 41.8671V49.2669H211.195V41.8671H224.637Z" fill="#61A1F4"/>
<path d="M236.623 3.11569V70.2978H233.243V3.11569H236.623ZM249.259 30.6701V38.0699H236.316V30.6701H249.259ZM252.217 3.11569V70.2978H248.837V3.11569H252.217Z" fill="#61A1F4"/>
<path d="M262.278 3.11569V70.2978H258.898V3.11569H262.278ZM274.914 30.6701V38.0699H261.971V30.6701H274.914ZM277.872 3.11569V70.2978H274.492V3.11569H277.872Z" fill="#61A1F4"/>
<path d="M292.388 2.2394C293.797 2.2394 295 2.27186 295.999 2.33677C296.997 2.33677 297.906 2.40168 298.726 2.5315C299.571 2.66133 300.467 2.85606 301.414 3.11569L300.877 10.0286C300.339 9.89882 299.327 9.80145 297.842 9.73654C296.357 9.67163 294.552 9.63918 292.427 9.63918C291.198 9.63918 290.212 10.0286 289.47 10.8076C288.753 11.5216 288.228 12.8198 287.895 14.7022C287.562 16.5197 287.383 19.0836 287.357 22.394C287.357 25.2501 287.511 27.6842 287.818 29.6964C288.125 31.6438 288.637 33.1367 289.354 34.1753C290.071 35.1489 291.044 35.6357 292.273 35.6357H300.915L301.03 42.7434C300.697 42.7434 300.275 42.7759 299.763 42.8408C299.251 42.8408 298.636 42.8732 297.919 42.9381C297.202 42.9381 296.37 42.9706 295.423 43.0355C294.501 43.0355 293.451 43.0355 292.273 43.0355C291.403 43.0355 290.673 43.5872 290.084 44.6907C289.521 45.7293 289.085 47.5468 288.778 50.1432L286.474 70.2978H282.863L285.322 49.7537C285.552 47.8064 285.859 46.1837 286.243 44.8854C286.627 43.5872 287.05 42.5811 287.511 41.8671C287.997 41.0882 288.471 40.5689 288.932 40.3093L288.893 39.8224C287.716 39.3681 286.755 38.3944 286.013 36.9015C285.296 35.3436 284.771 33.299 284.438 30.7675C284.131 28.236 283.977 25.2826 283.977 21.9072C283.977 17.1039 284.259 13.2742 284.822 10.4181C285.411 7.56205 286.32 5.48492 287.549 4.18672C288.804 2.88851 290.417 2.2394 292.388 2.2394ZM301.414 3.11569V70.2978H298.034V3.11569H301.414Z" fill="#61A1F4"/>
<path d="M341.701 3.11569C342.623 3.11569 343.084 4.31653 343.084 6.71821L344.198 70.2978H340.818L339.858 10.2234H339.051L333.136 59.7824C332.931 61.7297 332.445 62.7033 331.677 62.7033H328.643C327.849 62.7033 327.337 61.7297 327.106 59.7824L321.192 10.2234H320.423L319.502 70.2978H316.122L317.159 6.71821C317.21 4.31653 317.684 3.11569 318.58 3.11569H322.421C323.138 3.11569 323.611 4.08935 323.842 6.03666L328.796 47.0275C329.001 48.5204 329.168 50.0134 329.296 51.5063C329.449 52.9992 329.616 54.5246 329.795 56.0825H330.486C330.665 54.5246 330.832 52.9992 330.986 51.5063C331.139 50.0134 331.306 48.4555 331.485 46.8328L336.439 6.03666C336.644 4.08935 337.131 3.11569 337.899 3.11569H341.701Z" fill="#61A1F4"/>
<path d="M359.828 1.84995C361.748 1.84995 363.374 2.43414 364.705 3.60252C366.063 4.77091 367.138 6.71821 367.932 9.44445C368.751 12.1058 369.34 15.6758 369.698 20.1546C370.082 24.6334 370.275 30.1508 370.275 36.7068C370.275 43.2627 370.082 48.7801 369.698 53.2589C369.34 57.7377 368.751 61.3402 367.932 64.0664C367.138 66.7278 366.063 68.6426 364.705 69.811C363.374 70.9794 361.748 71.5636 359.828 71.5636C357.907 71.5636 356.269 70.9794 354.912 69.811C353.58 68.6426 352.505 66.7278 351.685 64.0664C350.866 61.3402 350.264 57.7377 349.88 53.2589C349.522 48.7801 349.342 43.2627 349.342 36.7068C349.342 30.1508 349.522 24.6334 349.88 20.1546C350.264 15.6758 350.866 12.1058 351.685 9.44445C352.505 6.71821 353.58 4.77091 354.912 3.60252C356.269 2.43414 357.907 1.84995 359.828 1.84995ZM359.828 9.54181C358.087 9.54181 356.704 10.3856 355.68 12.0733C354.681 13.761 353.964 16.5846 353.529 20.5441C353.119 24.4387 352.914 29.8263 352.914 36.7068C352.914 43.5223 353.119 48.9099 353.529 52.8694C353.964 56.8289 354.681 59.6525 355.68 61.3402C356.704 63.0279 358.087 63.8717 359.828 63.8717C361.569 63.8717 362.939 63.0279 363.937 61.3402C364.961 59.6525 365.678 56.8289 366.088 52.8694C366.523 48.9099 366.741 43.5223 366.741 36.7068C366.741 29.8263 366.523 24.4387 366.088 20.5441C365.678 16.5846 364.961 13.761 363.937 12.0733C362.939 10.3856 361.569 9.54181 359.828 9.54181Z" fill="#61A1F4"/>
<path d="M405.346 3.11569C404.86 6.68576 404.386 10.0286 403.925 13.1443C403.49 16.26 403.042 19.1161 402.581 21.7125C402.12 24.244 401.608 26.4834 401.045 28.4307C400.482 30.3131 399.841 31.8385 399.125 33.0069C398.433 34.1103 397.614 34.7919 396.666 35.0515V35.441C397.665 35.7006 398.536 36.3822 399.278 37.4857C400.046 38.5892 400.712 40.147 401.275 42.1592C401.864 44.1065 402.402 46.4758 402.888 49.2669C403.401 51.9931 403.9 55.1413 404.386 58.7113C404.898 62.2165 405.449 66.0787 406.038 70.2978H402.466C401.723 65.2348 401.058 60.756 400.469 56.8614C399.88 52.9668 399.278 49.6888 398.664 47.0275C398.075 44.3013 397.383 42.2566 396.59 40.8935C395.821 39.4654 394.874 38.7514 393.747 38.7514L393.786 31.8385C394.836 31.8385 395.732 31.1245 396.474 29.6964C397.243 28.2035 397.921 26.1588 398.51 23.5624C399.099 20.966 399.662 17.9477 400.2 14.5074C400.738 11.0023 401.301 7.20504 401.89 3.11569H405.346ZM377.693 3.11569C378.282 7.20504 378.833 11.0023 379.345 14.5074C379.882 17.9477 380.446 20.966 381.035 23.5624C381.624 26.1588 382.302 28.2035 383.07 29.6964C383.838 31.1245 384.734 31.8385 385.759 31.8385L385.797 38.7514C384.671 38.7514 383.71 39.4654 382.917 40.8935C382.148 42.2566 381.457 44.3013 380.843 47.0275C380.254 49.6888 379.665 52.9668 379.076 56.8614C378.487 60.756 377.821 65.2348 377.079 70.2978H373.545C374.134 66.0787 374.672 62.2165 375.158 58.7113C375.67 55.1413 376.17 51.9931 376.656 49.2669C377.143 46.4758 377.68 44.1065 378.269 42.1592C378.858 40.147 379.524 38.5892 380.266 37.4857C381.009 36.3822 381.88 35.7006 382.878 35.441V35.0515C381.931 34.7919 381.099 34.1103 380.382 33.0069C379.69 31.8385 379.063 30.3131 378.5 28.4307C377.962 26.4834 377.463 24.244 377.002 21.7125C376.541 19.1161 376.08 16.26 375.619 13.1443C375.184 10.0286 374.723 6.68576 374.236 3.11569H377.693ZM389.062 31.8385V38.7514H384.645V31.8385H389.062ZM391.481 3.11569V24.1466C391.481 26.0939 391.443 27.9439 391.366 29.6964C391.315 31.449 391.187 33.2665 390.982 35.1489C391.136 36.9664 391.251 38.7839 391.328 40.6014C391.43 42.4189 391.481 44.1714 391.481 45.8591V70.2978H388.255V45.8591C388.255 44.1714 388.306 42.4189 388.409 40.6014C388.511 38.7839 388.626 36.9664 388.754 35.1489C388.575 33.2665 388.447 31.449 388.37 29.6964C388.294 27.9439 388.255 26.0939 388.255 24.1466V3.11569H391.481ZM394.938 31.8385V38.7514H390.752V31.8385H394.938Z" fill="#61A1F4"/>
<path d="M415.455 3.01833C416.71 3.01833 417.978 3.01833 419.258 3.01833C420.564 3.01833 421.844 3.08324 423.099 3.21306C424.379 3.27797 425.608 3.40779 426.786 3.60252L426.632 10.3207H415.993C415.199 10.3207 414.623 10.84 414.265 11.8786C413.906 12.8522 413.727 14.475 413.727 16.7469V56.6667C413.727 58.9385 413.906 60.5937 414.265 61.6323C414.623 62.6709 415.199 63.1902 415.993 63.1902H426.632L426.786 69.811C425.608 70.0057 424.379 70.1355 423.099 70.2005C421.844 70.2654 420.564 70.2978 419.258 70.2978C417.978 70.3627 416.71 70.3952 415.455 70.3952C413.894 70.3952 412.652 69.3566 411.73 67.2795C410.808 65.1375 410.347 62.2814 410.347 58.7113V14.7022C410.347 11.0672 410.808 8.21115 411.73 6.13402C412.652 4.05689 413.894 3.01833 415.455 3.01833ZM411 31.3517H425.134V38.2646H411V31.3517Z" fill="#61A1F4"/>
<path d="M456.906 3.11569L456.598 10.2234H444.001V70.2978H440.621V3.11569C442.004 2.92096 443.374 2.79115 444.731 2.72624C446.113 2.59641 447.483 2.5315 448.84 2.5315C450.197 2.5315 451.542 2.59641 452.873 2.72624C454.23 2.79115 455.574 2.92096 456.906 3.11569ZM449.608 32.0332C451.81 32.0332 453.539 32.6823 454.793 33.9805C456.074 35.2138 456.983 37.2585 457.52 40.1145C458.058 42.9706 458.327 46.8652 458.327 51.7984C458.327 56.1474 458.135 59.6201 457.751 62.2165C457.367 64.748 456.791 66.6628 456.022 67.961C455.254 69.2593 454.281 70.1031 453.103 70.4925C451.951 70.9469 450.594 71.1741 449.032 71.1741C448.085 71.1741 447.163 71.1417 446.267 71.0767C445.371 71.0118 444.462 70.9145 443.54 70.7846C442.644 70.6548 441.696 70.4926 440.698 70.2978L441.236 63.4822C441.799 63.5471 442.81 63.6121 444.27 63.677C445.755 63.7419 447.534 63.7743 449.608 63.7743C451.017 63.7743 452.105 63.4498 452.873 62.8007C453.641 62.1516 454.166 60.9507 454.448 59.1982C454.755 57.3807 454.909 54.7843 454.909 51.4089C454.909 48.2283 454.768 45.7293 454.486 43.9118C454.23 42.0943 453.718 40.7961 452.95 40.0172C452.182 39.1734 451.068 38.7514 449.608 38.7514H441.197V32.0332H449.608Z" fill="#61A1F4"/>
<path d="M481.434 3.11569L474.29 53.7457C473.855 56.7316 473.381 59.4903 472.869 62.0218C472.357 64.5533 471.742 66.6304 471.026 68.2531C470.309 69.8759 469.412 70.7846 468.337 70.9794C467.902 71.0443 467.39 71.0118 466.801 70.882C466.237 70.8171 465.661 70.6548 465.072 70.3952C464.509 70.1356 464.01 69.8759 463.575 69.6163L463.959 63.2875C465.239 63.5471 466.237 63.677 466.954 63.677C467.697 63.677 468.273 63.3849 468.683 62.8007C469.118 62.1516 469.489 61.113 469.797 59.685C470.104 58.257 470.462 56.2772 470.872 53.7457L471.755 48.0011L472.139 44.9828L477.977 3.11569H481.434ZM464.573 3.11569L469.912 41.9645C470.065 43.0031 470.36 43.5223 470.795 43.5223H472.677L473.176 50.7274H469.873C469.156 50.7274 468.58 50.3704 468.145 49.6564C467.735 48.8774 467.428 47.709 467.223 46.1512L461.078 3.11569H464.573Z" fill="#61A1F4"/>
<path d="M494.741 3.11569V70.2978H491.361V3.11569H494.741ZM503.306 3.11569V10.7102H482.835V3.11569H503.306Z" fill="#61A1F4"/>
<path d="M527.428 3.11569V70.2978H524.163V21.323C524.163 20.0248 524.176 18.7266 524.202 17.4284C524.227 16.1302 524.279 14.8645 524.355 13.6312H524.163C523.984 14.8645 523.767 16.1302 523.51 17.4284C523.254 18.6617 523.011 19.8301 522.781 20.9336L511.028 70.2978H507.571V3.11569H510.836V51.6037C510.836 52.9668 510.81 54.3299 510.759 55.693C510.734 56.9912 510.695 58.2894 510.644 59.5876H510.798C511.002 58.3543 511.233 57.121 511.489 55.8877C511.771 54.6544 512.039 53.4536 512.296 52.2852L523.933 3.11569H527.428Z" fill="#61A1F4"/>
<path d="M571.676 3.11569V70.2978H568.373V3.11569H571.676ZM545.981 3.11569V70.2978H542.678V3.11569H545.981ZM569.333 63.2875V70.2978H545.674L545.636 63.2875H569.333ZM558.809 3.11569V70.2978H555.545V3.11569H558.809Z" fill="#61A1F4"/>
<path d="M596.169 3.11569C595.657 6.81558 595.17 10.2558 594.709 13.4364C594.248 16.617 593.775 19.4731 593.288 22.0046C592.827 24.5361 592.315 26.743 591.752 28.6254C591.214 30.4429 590.6 31.9034 589.908 33.0069C589.217 34.1103 588.41 34.7919 587.489 35.0515V35.441C588.487 35.7006 589.358 36.3822 590.1 37.4857C590.843 38.5892 591.496 40.147 592.059 42.1592C592.648 44.1065 593.186 46.4758 593.672 49.2669C594.184 51.9931 594.684 55.1413 595.17 58.7113C595.682 62.2165 596.245 66.0787 596.86 70.2978H593.288C592.571 65.2348 591.931 60.756 591.368 56.8614C590.804 52.9668 590.203 49.6888 589.563 47.0275C588.948 44.3013 588.231 42.2566 587.412 40.8935C586.592 39.4654 585.568 38.7514 584.339 38.7514V31.8385C585.491 31.8385 586.464 31.1245 587.258 29.6964C588.078 28.2035 588.794 26.1588 589.409 23.5624C590.023 20.966 590.587 17.9477 591.099 14.5074C591.611 11.0023 592.149 7.20504 592.712 3.11569H596.169ZM581.689 3.11569V24.1466C581.689 26.0939 581.651 27.9763 581.574 29.7938C581.497 31.6113 581.382 33.3963 581.228 35.1489C581.356 36.9664 581.459 38.7839 581.535 40.6014C581.638 42.4189 581.689 44.1714 581.689 45.8591V70.2978H578.348V3.11569H581.689ZM585.76 31.8385V38.7514H580.652V31.8385H585.76Z" fill="#61A1F4"/>
<path d="M604.757 3.11569V70.2978H601.377V3.11569H604.757Z" fill="#61A1F4"/>
<path d="M630.21 3.11569V70.2978H626.83V10.126H621.376C620.429 10.126 619.738 10.6453 619.302 11.6838C618.893 12.7224 618.662 14.475 618.611 16.9416C618.509 21.3555 618.368 25.5747 618.189 29.5991C618.035 33.5586 617.83 37.3559 617.574 40.9908C617.318 44.5609 616.985 48.0336 616.576 51.4089C616.191 54.7194 615.718 57.9324 615.154 61.0481C614.617 64.1638 613.964 67.247 613.196 70.2978H610.046C611.352 64.9103 612.364 59.2306 613.08 53.2589C613.797 47.2222 614.322 41.0557 614.655 34.7595C615.014 28.3982 615.257 22.037 615.385 15.6758C615.436 11.7163 615.935 8.63307 616.883 6.42612C617.83 4.21917 619.123 3.11569 620.762 3.11569H630.21ZM611.621 69.6163L611.275 85H608.932V69.6163H611.621ZM633.475 63.2875V70.2978H608.932V63.2875H633.475ZM633.475 69.6163V85H631.132L630.825 69.6163H633.475Z" fill="#61A1F4"/>
<path d="M655.842 3.11569V10.126H647.699C645.958 10.126 645.011 12.3979 644.857 16.9416C644.652 22.6537 644.473 27.5869 644.32 31.7411C644.166 35.8954 643.987 39.5304 643.782 42.646C643.603 45.6968 643.385 48.4231 643.129 50.8247C642.873 53.1615 642.527 55.4334 642.092 57.6403C641.605 60.3016 641.042 62.606 640.402 64.5533C639.762 66.4357 639.019 67.8961 638.174 68.9347C637.355 69.9084 636.433 70.3952 635.409 70.3952L635.102 63.7743C635.921 63.1252 636.638 62.184 637.253 60.9507C637.893 59.7175 638.443 57.835 638.904 55.3035C639.211 53.6159 639.467 51.9282 639.672 50.2405C639.903 48.5529 640.095 46.7029 640.248 44.6907C640.427 42.6136 640.581 40.2444 640.709 37.583C640.863 34.8568 641.004 31.7087 641.132 28.1386C641.26 24.5036 641.401 20.252 641.554 15.3837C641.861 7.20504 643.615 3.11569 646.816 3.11569H655.842ZM656.379 3.11569V70.2978H653V3.11569H656.379Z" fill="#61A1F4"/>
<path d="M682.933 3.11569V70.2978H679.668V21.323C679.668 20.0248 679.681 18.7266 679.707 17.4284C679.732 16.1302 679.784 14.8645 679.86 13.6312H679.668C679.489 14.8645 679.272 16.1302 679.016 17.4284C678.759 18.6617 678.516 19.8301 678.286 20.9336L666.533 70.2978H663.076V3.11569H666.341V51.6037C666.341 52.9668 666.315 54.3299 666.264 55.693C666.239 56.9912 666.2 58.2894 666.149 59.5876H666.303C666.507 58.3543 666.738 57.121 666.994 55.8877C667.276 54.6544 667.544 53.4536 667.8 52.2852L679.438 3.11569H682.933Z" fill="#61A1F4"/>
<path d="M698.235 2.33677C700.411 2.33677 702.14 2.85606 703.42 3.89462C704.7 4.86827 705.622 6.62085 706.185 9.15235C706.774 11.6838 707.069 15.2539 707.069 19.8625C707.069 24.6659 706.71 28.3333 705.993 30.8648C705.302 33.3963 704.162 34.8568 702.575 35.2463V35.6357C704.546 36.0901 705.916 37.8427 706.684 40.8935C707.478 43.9442 707.875 48.1634 707.875 53.551C707.875 58.1596 707.593 61.7297 707.03 64.2612C706.467 66.7927 705.558 68.5777 704.303 69.6163C703.074 70.5899 701.448 71.0767 699.425 71.0767C697.915 71.0767 696.609 71.0443 695.508 70.9794C694.432 70.9794 693.434 70.9145 692.512 70.7846C691.59 70.6548 690.63 70.4926 689.632 70.2978L690.169 63.4822C690.733 63.5471 691.795 63.6121 693.357 63.677C694.945 63.7419 696.788 63.7743 698.888 63.7743C700.296 63.7743 701.397 63.4822 702.191 62.8981C703.01 62.249 703.586 61.0806 703.919 59.3929C704.278 57.7052 704.457 55.2711 704.457 52.0905C704.457 48.5853 704.278 45.8916 703.919 44.0092C703.561 42.1268 702.959 40.7961 702.114 40.0172C701.269 39.2383 700.117 38.8163 698.657 38.7514H690.131V32.2279H698.619C699.899 32.163 700.911 31.8385 701.653 31.2543C702.421 30.6052 702.972 29.4693 703.305 27.8465C703.638 26.1588 703.804 23.8221 703.804 20.8362C703.804 17.7854 703.625 15.4486 703.266 13.8259C702.908 12.2031 702.306 11.0997 701.461 10.5155C700.642 9.93127 699.515 9.63918 698.081 9.63918C696.827 9.63918 695.7 9.63918 694.701 9.63918C693.703 9.63918 692.819 9.67163 692.051 9.73654C691.309 9.73654 690.681 9.80145 690.169 9.93128L689.632 3.11569C690.528 2.85606 691.373 2.69378 692.166 2.62887C692.986 2.49905 693.869 2.43414 694.817 2.43414C695.79 2.36923 696.929 2.33677 698.235 2.33677ZM692.935 3.11569V70.2978H689.632V3.11569H692.935Z" fill="#61A1F4"/>
<path d="M733.305 3.11569V70.2978H730.041V21.323C730.041 20.0248 730.053 18.7266 730.079 17.4284C730.105 16.1302 730.156 14.8645 730.233 13.6312H730.041C729.861 14.8645 729.644 16.1302 729.388 17.4284C729.132 18.6617 728.888 19.8301 728.658 20.9336L716.905 70.2978H713.449V3.11569H716.713V51.6037C716.713 52.9668 716.688 54.3299 716.636 55.693C716.611 56.9912 716.572 58.2894 716.521 59.5876H716.675C716.88 58.3543 717.11 57.121 717.366 55.8877C717.648 54.6544 717.917 53.4536 718.173 52.2852L729.81 3.11569H733.305Z" fill="#61A1F4"/>
<path d="M765.045 3.11569C765.967 3.11569 766.428 4.31653 766.428 6.71821L767.542 70.2978H764.162L763.202 10.2234H762.395L756.481 59.7824C756.276 61.7297 755.789 62.7033 755.021 62.7033H751.987C751.193 62.7033 750.681 61.7297 750.451 59.7824L744.536 10.2234H743.768L742.846 70.2978H739.466L740.503 6.71821C740.554 4.31653 741.028 3.11569 741.924 3.11569H745.765C746.482 3.11569 746.956 4.08935 747.186 6.03666L752.141 47.0275C752.345 48.5204 752.512 50.0134 752.64 51.5063C752.793 52.9992 752.96 54.5246 753.139 56.0825H753.83C754.01 54.5246 754.176 52.9992 754.33 51.5063C754.483 50.0134 754.65 48.4555 754.829 46.8328L759.784 6.03666C759.988 4.08935 760.475 3.11569 761.243 3.11569H765.045Z" fill="#61A1F4"/>
<path d="M801.018 3.11569V70.2978H797.638V10.126H792.185C791.237 10.126 790.546 10.6453 790.11 11.6838C789.701 12.7224 789.47 14.475 789.419 16.9416C789.317 21.3555 789.176 25.5747 788.997 29.5991C788.843 33.5586 788.638 37.3559 788.382 40.9908C788.126 44.5609 787.793 48.0336 787.384 51.4089C786.999 54.7194 786.526 57.9324 785.962 61.0481C785.425 64.1638 784.772 67.247 784.004 70.2978H780.854C782.16 64.9103 783.172 59.2306 783.888 53.2589C784.605 47.2222 785.13 41.0557 785.463 34.7595C785.822 28.3982 786.065 22.037 786.193 15.6758C786.244 11.7163 786.743 8.63307 787.691 6.42612C788.638 4.21917 789.931 3.11569 791.57 3.11569H801.018ZM782.429 69.6163L782.083 85H779.74V69.6163H782.429ZM804.283 63.2875V70.2978H779.74V63.2875H804.283ZM804.283 69.6163V85H801.94L801.633 69.6163H804.283Z" fill="#61A1F4"/>
<path d="M826.65 3.11569V10.126H818.507C816.766 10.126 815.819 12.3979 815.665 16.9416C815.46 22.6537 815.281 27.5869 815.128 31.7411C814.974 35.8954 814.795 39.5304 814.59 42.646C814.411 45.6968 814.193 48.4231 813.937 50.8247C813.681 53.1615 813.335 55.4334 812.9 57.6403C812.413 60.3016 811.85 62.606 811.21 64.5533C810.57 66.4357 809.827 67.8961 808.982 68.9347C808.163 69.9084 807.241 70.3952 806.217 70.3952L805.91 63.7743C806.729 63.1252 807.446 62.184 808.061 60.9507C808.701 59.7175 809.251 57.835 809.712 55.3035C810.019 53.6159 810.275 51.9282 810.48 50.2405C810.711 48.5529 810.903 46.7029 811.056 44.6907C811.235 42.6136 811.389 40.2444 811.517 37.583C811.671 34.8568 811.812 31.7087 811.94 28.1386C812.068 24.5036 812.208 20.252 812.362 15.3837C812.669 7.20504 814.423 3.11569 817.624 3.11569H826.65ZM827.187 3.11569V70.2978H823.808V3.11569H827.187Z" fill="#61A1F4"/>
<path d="M841.72 2.2394C843.128 2.2394 844.331 2.27186 845.33 2.33677C846.328 2.33677 847.237 2.40168 848.057 2.5315C848.902 2.66133 849.798 2.85606 850.745 3.11569L850.208 10.0286C849.67 9.89882 848.659 9.80145 847.173 9.73654C845.688 9.67163 843.883 9.63918 841.758 9.63918C840.529 9.63918 839.543 10.0286 838.801 10.8076C838.084 11.5216 837.559 12.8198 837.226 14.7022C836.893 16.5197 836.714 19.0836 836.688 22.394C836.688 25.2501 836.842 27.6842 837.149 29.6964C837.456 31.6438 837.968 33.1367 838.685 34.1753C839.402 35.1489 840.375 35.6357 841.604 35.6357H850.246L850.361 42.7434C850.028 42.7434 849.606 42.7759 849.094 42.8408C848.582 42.8408 847.967 42.8732 847.25 42.9381C846.533 42.9381 845.701 42.9706 844.754 43.0355C843.832 43.0355 842.782 43.0355 841.604 43.0355C840.734 43.0355 840.004 43.5872 839.415 44.6907C838.852 45.7293 838.417 47.5468 838.109 50.1432L835.805 70.2978H832.194L834.653 49.7537C834.883 47.8064 835.19 46.1837 835.574 44.8854C835.958 43.5872 836.381 42.5811 836.842 41.8671C837.328 41.0882 837.802 40.5689 838.263 40.3093L838.224 39.8224C837.047 39.3681 836.086 38.3944 835.344 36.9015C834.627 35.3436 834.102 33.299 833.769 30.7675C833.462 28.236 833.308 25.2826 833.308 21.9072C833.308 17.1039 833.59 13.2742 834.153 10.4181C834.742 7.56205 835.651 5.48492 836.88 4.18672C838.135 2.88851 839.748 2.2394 841.72 2.2394ZM850.745 3.11569V70.2978H847.365V3.11569H850.745Z" fill="#61A1F4"/>
<path d="M874.594 2.33677C876.77 2.33677 878.499 2.85606 879.779 3.89462C881.059 4.86827 881.981 6.62085 882.544 9.15235C883.133 11.6838 883.428 15.2539 883.428 19.8625C883.428 24.6659 883.069 28.3333 882.352 30.8648C881.661 33.3963 880.521 34.8568 878.934 35.2463V35.6357C880.905 36.0901 882.275 37.8427 883.044 40.8935C883.837 43.9442 884.234 48.1634 884.234 53.551C884.234 58.1596 883.953 61.7297 883.389 64.2612C882.826 66.7927 881.917 68.5777 880.662 69.6163C879.433 70.5899 877.807 71.0767 875.784 71.0767C874.274 71.0767 872.968 71.0443 871.867 70.9794C870.792 70.9794 869.793 70.9145 868.871 70.7846C867.949 70.6548 866.989 70.4926 865.991 70.2978L866.528 63.4822C867.092 63.5471 868.154 63.6121 869.716 63.677C871.304 63.7419 873.147 63.7743 875.247 63.7743C876.655 63.7743 877.756 63.4822 878.55 62.8981C879.369 62.249 879.945 61.0806 880.278 59.3929C880.637 57.7052 880.816 55.2711 880.816 52.0905C880.816 48.5853 880.637 45.8916 880.278 44.0092C879.92 42.1268 879.318 40.7961 878.473 40.0172C877.628 39.2383 876.476 38.8163 875.016 38.7514H866.49V32.2279H874.978C876.258 32.163 877.27 31.8385 878.012 31.2543C878.78 30.6052 879.331 29.4693 879.664 27.8465C879.997 26.1588 880.163 23.8221 880.163 20.8362C880.163 17.7854 879.984 15.4486 879.625 13.8259C879.267 12.2031 878.665 11.0997 877.82 10.5155C877.001 9.93127 875.874 9.63918 874.44 9.63918C873.186 9.63918 872.059 9.63918 871.06 9.63918C870.062 9.63918 869.178 9.67163 868.41 9.73654C867.668 9.73654 867.04 9.80145 866.528 9.93128L865.991 3.11569C866.887 2.85606 867.732 2.69378 868.526 2.62887C869.345 2.49905 870.228 2.43414 871.176 2.43414C872.149 2.36923 873.288 2.33677 874.594 2.33677ZM869.294 3.11569V70.2978H865.991V3.11569H869.294Z" fill="#61A1F4"/>
<path d="M900.178 3.11569C900.485 3.11569 900.754 3.34288 900.984 3.79725C901.215 4.18671 901.368 4.73845 901.445 5.45247L909.972 70.2978H906.477L899.602 15.189C899.499 14.2803 899.384 13.3715 899.256 12.4628C899.154 11.4891 899.051 10.5804 898.949 9.73654H897.873C897.771 10.5804 897.668 11.4891 897.566 12.4628C897.464 13.3715 897.348 14.2803 897.22 15.189L890.345 70.2978H886.85L895.377 5.45247C895.454 4.73845 895.607 4.18671 895.838 3.79725C896.068 3.34288 896.337 3.11569 896.644 3.11569H900.178ZM905.094 41.8671V49.2669H891.651V41.8671H905.094Z" fill="#61A1F4"/>
<path d="M942.697 3.11569V70.2978H939.394V3.11569H942.697ZM917.003 3.11569V70.2978H913.7V3.11569H917.003ZM940.355 63.2875V70.2978H916.696L916.657 63.2875H940.355ZM929.831 3.11569V70.2978H926.566V3.11569H929.831Z" fill="#61A1F4"/>
<path d="M958.856 1.84995C960.776 1.84995 962.402 2.43414 963.734 3.60252C965.091 4.77091 966.166 6.71821 966.96 9.44445C967.779 12.1058 968.368 15.6758 968.727 20.1546C969.111 24.6334 969.303 30.1508 969.303 36.7068C969.303 43.2627 969.111 48.7801 968.727 53.2589C968.368 57.7377 967.779 61.3402 966.96 64.0664C966.166 66.7278 965.091 68.6426 963.734 69.811C962.402 70.9794 960.776 71.5636 958.856 71.5636C956.935 71.5636 955.297 70.9794 953.94 69.811C952.608 68.6426 951.533 66.7278 950.713 64.0664C949.894 61.3402 949.292 57.7377 948.908 53.2589C948.55 48.7801 948.371 43.2627 948.371 36.7068C948.371 30.1508 948.55 24.6334 948.908 20.1546C949.292 15.6758 949.894 12.1058 950.713 9.44445C951.533 6.71821 952.608 4.77091 953.94 3.60252C955.297 2.43414 956.935 1.84995 958.856 1.84995ZM958.856 9.54181C957.115 9.54181 955.732 10.3856 954.708 12.0733C953.709 13.761 952.992 16.5846 952.557 20.5441C952.147 24.4387 951.943 29.8263 951.943 36.7068C951.943 43.5223 952.147 48.9099 952.557 52.8694C952.992 56.8289 953.709 59.6525 954.708 61.3402C955.732 63.0279 957.115 63.8717 958.856 63.8717C960.597 63.8717 961.967 63.0279 962.965 61.3402C963.99 59.6525 964.707 56.8289 965.116 52.8694C965.552 48.9099 965.769 43.5223 965.769 36.7068C965.769 29.8263 965.552 24.4387 965.116 20.5441C964.707 16.5846 963.99 13.761 962.965 12.0733C961.967 10.3856 960.597 9.54181 958.856 9.54181Z" fill="#61A1F4"/>
<path d="M979.787 3.01833C981.63 3.01833 983.487 3.05078 985.356 3.11569C987.251 3.18061 989.056 3.37534 990.771 3.69989L990.618 10.3207H980.901C980.004 10.3207 979.339 10.8725 978.903 11.9759C978.494 13.0145 978.289 14.7671 978.289 17.2337V70.2978H974.947V15.6758C974.947 11.911 975.395 8.86026 976.292 6.52348C977.213 4.18671 978.378 3.01833 979.787 3.01833Z" fill="#61A1F4"/>
<path d="M1003.83 1.84995C1005.75 1.84995 1007.37 2.43414 1008.7 3.60252C1010.06 4.77091 1011.14 6.71821 1011.93 9.44445C1012.75 12.1058 1013.34 15.6758 1013.7 20.1546C1014.08 24.6334 1014.27 30.1508 1014.27 36.7068C1014.27 43.2627 1014.08 48.7801 1013.7 53.2589C1013.34 57.7377 1012.75 61.3402 1011.93 64.0664C1011.14 66.7278 1010.06 68.6426 1008.7 69.811C1007.37 70.9794 1005.75 71.5636 1003.83 71.5636C1001.91 71.5636 1000.27 70.9794 998.911 69.811C997.579 68.6426 996.504 66.7278 995.685 64.0664C994.865 61.3402 994.264 57.7377 993.88 53.2589C993.521 48.7801 993.342 43.2627 993.342 36.7068C993.342 30.1508 993.521 24.6334 993.88 20.1546C994.264 15.6758 994.865 12.1058 995.685 9.44445C996.504 6.71821 997.579 4.77091 998.911 3.60252C1000.27 2.43414 1001.91 1.84995 1003.83 1.84995ZM1003.83 9.54181C1002.09 9.54181 1000.7 10.3856 999.679 12.0733C998.68 13.761 997.964 16.5846 997.528 20.5441C997.119 24.4387 996.914 29.8263 996.914 36.7068C996.914 43.5223 997.119 48.9099 997.528 52.8694C997.964 56.8289 998.68 59.6525 999.679 61.3402C1000.7 63.0279 1002.09 63.8717 1003.83 63.8717C1005.57 63.8717 1006.94 63.0279 1007.94 61.3402C1008.96 59.6525 1009.68 56.8289 1010.09 52.8694C1010.52 48.9099 1010.74 43.5223 1010.74 36.7068C1010.74 29.8263 1010.52 24.4387 1010.09 20.5441C1009.68 16.5846 1008.96 13.761 1007.94 12.0733C1006.94 10.3856 1005.57 9.54181 1003.83 9.54181Z" fill="#61A1F4"/>
<path d="M1034.54 2.33677C1036.69 2.33677 1038.39 2.85606 1039.65 3.89462C1040.93 4.86827 1041.85 6.62085 1042.41 9.15235C1042.98 11.6838 1043.26 15.2539 1043.26 19.8625C1043.26 24.6659 1042.91 28.3333 1042.22 30.8648C1041.53 33.3963 1040.39 34.8568 1038.8 35.2463V35.6357C1040.77 36.0901 1042.13 37.8427 1042.87 40.8935C1043.64 43.9442 1044.03 48.1634 1044.03 53.551C1044.03 58.1596 1043.74 61.7297 1043.18 64.2612C1042.62 66.7927 1041.72 68.5777 1040.49 69.6163C1039.29 70.5899 1037.69 71.0767 1035.69 71.0767C1034.49 71.0767 1033.36 71.0118 1032.31 70.882C1031.26 70.7522 1030.26 70.525 1029.32 70.2005C1028.39 69.8759 1027.5 69.454 1026.63 68.9347L1026.9 62.7033C1027.89 62.963 1029.1 63.2551 1030.51 63.5796C1031.94 63.8392 1033.49 63.9691 1035.15 63.9691C1036.51 63.9691 1037.57 63.677 1038.34 63.0928C1039.13 62.4437 1039.7 61.2753 1040.03 59.5876C1040.39 57.835 1040.57 55.336 1040.57 52.0905C1040.57 48.6502 1040.39 45.9889 1040.03 44.1065C1039.67 42.1592 1039.07 40.7961 1038.23 40.0172C1037.41 39.2383 1036.29 38.8488 1034.88 38.8488H1030.43V32.1306H1034.88C1036.14 32.1306 1037.12 31.806 1037.84 31.1569C1038.56 30.5078 1039.07 29.3719 1039.38 27.7491C1039.71 26.1264 1039.88 23.8221 1039.88 20.8362C1039.88 17.7205 1039.7 15.3513 1039.34 13.7285C1039.01 12.0409 1038.43 10.9049 1037.61 10.3207C1036.82 9.67163 1035.73 9.34708 1034.35 9.34708C1032.89 9.34708 1031.58 9.4769 1030.43 9.73654C1029.3 9.99618 1028.33 10.2234 1027.51 10.4181L1027.24 3.89462C1028.42 3.37533 1029.57 2.98587 1030.7 2.72624C1031.82 2.46659 1033.1 2.33677 1034.54 2.33677Z" fill="#61A1F4"/>
<path d="M1068.44 3.11569V70.2978H1065.06V10.126H1059.61C1058.66 10.126 1057.97 10.6453 1057.54 11.6838C1057.13 12.7224 1056.9 14.475 1056.85 16.9416C1056.74 21.3555 1056.6 25.5747 1056.42 29.5991C1056.27 33.5586 1056.06 37.3559 1055.81 40.9908C1055.55 44.5609 1055.22 48.0336 1054.81 51.4089C1054.43 54.7194 1053.95 57.9324 1053.39 61.0481C1052.85 64.1638 1052.2 67.247 1051.43 70.2978H1048.28C1049.59 64.9103 1050.6 59.2306 1051.32 53.2589C1052.03 47.2222 1052.56 41.0557 1052.89 34.7595C1053.25 28.3982 1053.49 22.037 1053.62 15.6758C1053.67 11.7163 1054.17 8.63307 1055.12 6.42612C1056.06 4.21917 1057.36 3.11569 1059 3.11569H1068.44ZM1049.86 69.6163L1049.51 85H1047.17V69.6163H1049.86ZM1071.71 63.2875V70.2978H1047.17V63.2875H1071.71ZM1071.71 69.6163V85H1069.37L1069.06 69.6163H1071.71Z" fill="#61A1F4"/>
<path d="M1085.63 1.84995C1087.55 1.84995 1089.18 2.43414 1090.51 3.60252C1091.87 4.77091 1092.94 6.71821 1093.73 9.44445C1094.55 12.1058 1095.14 15.6758 1095.5 20.1546C1095.89 24.6334 1096.08 30.1508 1096.08 36.7068C1096.08 43.2627 1095.89 48.7801 1095.5 53.2589C1095.14 57.7377 1094.55 61.3402 1093.73 64.0664C1092.94 66.7278 1091.87 68.6426 1090.51 69.811C1089.18 70.9794 1087.55 71.5636 1085.63 71.5636C1083.71 71.5636 1082.07 70.9794 1080.71 69.811C1079.38 68.6426 1078.31 66.7278 1077.49 64.0664C1076.67 61.3402 1076.07 57.7377 1075.68 53.2589C1075.32 48.7801 1075.15 43.2627 1075.15 36.7068C1075.15 30.1508 1075.32 24.6334 1075.68 20.1546C1076.07 15.6758 1076.67 12.1058 1077.49 9.44445C1078.31 6.71821 1079.38 4.77091 1080.71 3.60252C1082.07 2.43414 1083.71 1.84995 1085.63 1.84995ZM1085.63 9.54181C1083.89 9.54181 1082.51 10.3856 1081.48 12.0733C1080.48 13.761 1079.77 16.5846 1079.33 20.5441C1078.92 24.4387 1078.72 29.8263 1078.72 36.7068C1078.72 43.5223 1078.92 48.9099 1079.33 52.8694C1079.77 56.8289 1080.48 59.6525 1081.48 61.3402C1082.51 63.0279 1083.89 63.8717 1085.63 63.8717C1087.37 63.8717 1088.74 63.0279 1089.74 61.3402C1090.76 59.6525 1091.48 56.8289 1091.89 52.8694C1092.33 48.9099 1092.54 43.5223 1092.54 36.7068C1092.54 29.8263 1092.33 24.4387 1091.89 20.5441C1091.48 16.5846 1090.76 13.761 1089.74 12.0733C1088.74 10.3856 1087.37 9.54181 1085.63 9.54181Z" fill="#61A1F4"/>
<path d="M1110.94 2.2394C1113.06 2.2394 1114.74 2.85605 1115.97 4.08935C1117.2 5.32265 1118.08 7.46468 1118.62 10.5155C1119.16 13.5013 1119.43 17.753 1119.43 23.2703C1119.43 28.7877 1119.16 33.0718 1118.62 36.1226C1118.11 39.1733 1117.25 41.3154 1116.05 42.5487C1114.87 43.7171 1113.28 44.3013 1111.29 44.3013C1110.21 44.3013 1109.17 44.2363 1108.17 44.1065C1107.2 43.9767 1106.31 43.8144 1105.49 43.6197C1104.67 43.3601 1103.96 43.1004 1103.37 42.8408C1102.81 42.5811 1102.41 42.354 1102.18 42.1592L1102.3 36.9015C1103.66 36.9015 1105.06 36.9015 1106.52 36.9015C1107.98 36.9015 1109.43 36.9015 1110.86 36.9015C1112.14 36.8366 1113.15 36.4471 1113.9 35.7331C1114.67 34.9542 1115.2 33.5911 1115.51 31.6438C1115.84 29.6315 1116.01 26.8404 1116.01 23.2703C1116.01 19.6354 1115.84 16.8442 1115.51 14.8969C1115.2 12.9496 1114.67 11.5865 1113.9 10.8076C1113.15 10.0286 1112.14 9.63918 1110.86 9.63918C1108.76 9.63918 1106.95 9.67163 1105.41 9.73654C1103.9 9.80145 1102.87 9.89882 1102.34 10.0286L1101.8 3.11569C1102.77 2.85606 1103.68 2.66133 1104.53 2.5315C1105.37 2.40168 1106.29 2.33677 1107.29 2.33677C1108.29 2.27186 1109.51 2.2394 1110.94 2.2394ZM1105.18 3.11569V70.2978H1101.8V3.11569H1105.18Z" fill="#61A1F4"/>
<path d="M1133.94 1.84995C1135.86 1.84995 1137.49 2.43414 1138.82 3.60252C1140.17 4.77091 1141.25 6.71821 1142.04 9.44445C1142.86 12.1058 1143.45 15.6758 1143.81 20.1546C1144.19 24.6334 1144.39 30.1508 1144.39 36.7068C1144.39 43.2627 1144.19 48.7801 1143.81 53.2589C1143.45 57.7377 1142.86 61.3402 1142.04 64.0664C1141.25 66.7278 1140.17 68.6426 1138.82 69.811C1137.49 70.9794 1135.86 71.5636 1133.94 71.5636C1132.02 71.5636 1130.38 70.9794 1129.02 69.811C1127.69 68.6426 1126.62 66.7278 1125.8 64.0664C1124.98 61.3402 1124.38 57.7377 1123.99 53.2589C1123.63 48.7801 1123.45 43.2627 1123.45 36.7068C1123.45 30.1508 1123.63 24.6334 1123.99 20.1546C1124.38 15.6758 1124.98 12.1058 1125.8 9.44445C1126.62 6.71821 1127.69 4.77091 1129.02 3.60252C1130.38 2.43414 1132.02 1.84995 1133.94 1.84995ZM1133.94 9.54181C1132.2 9.54181 1130.82 10.3856 1129.79 12.0733C1128.79 13.761 1128.08 16.5846 1127.64 20.5441C1127.23 24.4387 1127.03 29.8263 1127.03 36.7068C1127.03 43.5223 1127.23 48.9099 1127.64 52.8694C1128.08 56.8289 1128.79 59.6525 1129.79 61.3402C1130.82 63.0279 1132.2 63.8717 1133.94 63.8717C1135.68 63.8717 1137.05 63.0279 1138.05 61.3402C1139.07 59.6525 1139.79 56.8289 1140.2 52.8694C1140.64 48.9099 1140.85 43.5223 1140.85 36.7068C1140.85 29.8263 1140.64 24.4387 1140.2 20.5441C1139.79 16.5846 1139.07 13.761 1138.05 12.0733C1137.05 10.3856 1135.68 9.54181 1133.94 9.54181Z" fill="#61A1F4"/>
<path d="M1158.71 2.33677C1160.89 2.33677 1162.62 2.85606 1163.9 3.89462C1165.18 4.86827 1166.1 6.62085 1166.66 9.15235C1167.25 11.6838 1167.54 15.2539 1167.54 19.8625C1167.54 24.6659 1167.19 28.3333 1166.47 30.8648C1165.78 33.3963 1164.64 34.8568 1163.05 35.2463V35.6357C1165.02 36.0901 1166.39 37.8427 1167.16 40.8935C1167.95 43.9442 1168.35 48.1634 1168.35 53.551C1168.35 58.1596 1168.07 61.7297 1167.51 64.2612C1166.94 66.7927 1166.03 68.5777 1164.78 69.6163C1163.55 70.5899 1161.92 71.0767 1159.9 71.0767C1158.39 71.0767 1157.09 71.0443 1155.98 70.9794C1154.91 70.9794 1153.91 70.9145 1152.99 70.7846C1152.07 70.6548 1151.11 70.4926 1150.11 70.2978L1150.65 63.4822C1151.21 63.5471 1152.27 63.6121 1153.83 63.677C1155.42 63.7419 1157.26 63.7743 1159.36 63.7743C1160.77 63.7743 1161.87 63.4822 1162.67 62.8981C1163.49 62.249 1164.06 61.0806 1164.4 59.3929C1164.75 57.7052 1164.93 55.2711 1164.93 52.0905C1164.93 48.5853 1164.75 45.8916 1164.4 44.0092C1164.04 42.1268 1163.44 40.7961 1162.59 40.0172C1161.75 39.2383 1160.59 38.8163 1159.13 38.7514H1150.61V32.2279H1159.1C1160.38 32.163 1161.39 31.8385 1162.13 31.2543C1162.9 30.6052 1163.45 29.4693 1163.78 27.8465C1164.11 26.1588 1164.28 23.8221 1164.28 20.8362C1164.28 17.7854 1164.1 15.4486 1163.74 13.8259C1163.38 12.2031 1162.78 11.0997 1161.94 10.5155C1161.12 9.93127 1159.99 9.63918 1158.56 9.63918C1157.3 9.63918 1156.18 9.63918 1155.18 9.63918C1154.18 9.63918 1153.3 9.67163 1152.53 9.73654C1151.79 9.73654 1151.16 9.80145 1150.65 9.93128L1150.11 3.11569C1151 2.85606 1151.85 2.69378 1152.64 2.62887C1153.46 2.49905 1154.35 2.43414 1155.29 2.43414C1156.27 2.36923 1157.41 2.33677 1158.71 2.33677ZM1153.41 3.11569V70.2978H1150.11V3.11569H1153.41Z" fill="#61A1F4"/>
<path d="M1175.19 0C1175.65 0 1175.96 0.227187 1176.11 0.681561C1176.29 1.07102 1176.38 1.81749 1176.38 2.92096V8.66552C1176.38 10.4181 1176.32 12.1058 1176.19 13.7285C1176.09 15.3513 1175.94 16.9091 1175.73 18.4021C1175.55 19.895 1175.32 21.323 1175.04 22.6861L1173.5 21.6151C1173.63 19.7327 1173.72 18.0126 1173.77 16.4548C1173.85 14.8969 1173.89 12.9821 1173.89 10.7102C1173.27 10.7102 1172.96 9.86636 1172.96 8.1787V2.92096C1172.99 1.81749 1173.11 1.07102 1173.31 0.681561C1173.52 0.227187 1173.82 0 1174.23 0H1175.19Z" fill="#61A1F4"/>
<path d="M1189.97 2.2394C1191.38 2.2394 1192.59 2.27186 1193.58 2.33677C1194.58 2.33677 1195.49 2.40168 1196.31 2.5315C1197.16 2.66133 1198.05 2.85606 1199 3.11569L1198.46 10.0286C1197.92 9.89882 1196.91 9.80145 1195.43 9.73654C1193.94 9.67163 1192.14 9.63918 1190.01 9.63918C1188.78 9.63918 1187.8 10.0286 1187.06 10.8076C1186.34 11.5216 1185.81 12.8198 1185.48 14.7022C1185.15 16.5197 1184.97 19.0836 1184.94 22.394C1184.94 25.2501 1185.1 27.6842 1185.4 29.6964C1185.71 31.6438 1186.22 33.1367 1186.94 34.1753C1187.66 35.1489 1188.63 35.6357 1189.86 35.6357H1198.5L1198.62 42.7434C1198.28 42.7434 1197.86 42.7759 1197.35 42.8408C1196.84 42.8408 1196.22 42.8732 1195.5 42.9381C1194.79 42.9381 1193.96 42.9706 1193.01 43.0355C1192.09 43.0355 1191.04 43.0355 1189.86 43.0355C1188.99 43.0355 1188.26 43.5872 1187.67 44.6907C1187.11 45.7293 1186.67 47.5468 1186.36 50.1432L1184.06 70.2978H1180.45L1182.91 49.7537C1183.14 47.8064 1183.45 46.1837 1183.83 44.8854C1184.21 43.5872 1184.64 42.5811 1185.1 41.8671C1185.58 41.0882 1186.06 40.5689 1186.52 40.3093L1186.48 39.8224C1185.3 39.3681 1184.34 38.3944 1183.6 36.9015C1182.88 35.3436 1182.36 33.299 1182.02 30.7675C1181.72 28.236 1181.56 25.2826 1181.56 21.9072C1181.56 17.1039 1181.84 13.2742 1182.41 10.4181C1183 7.56205 1183.91 5.48492 1185.14 4.18672C1186.39 2.88851 1188 2.2394 1189.97 2.2394ZM1199 3.11569V70.2978H1195.62V3.11569H1199Z" fill="#61A1F4"/>
</svg>
