<svg preserveAspectRatio="none" width="328" height="98" viewBox="0 0 328 98" fill="none" xmlns="http://www.w3.org/2000/svg">
<path d="M4.44791 0.0573763C4.92936 0.0573763 5.33968 0.0956272 5.67888 0.172129C6.02903 0.248633 6.34634 0.382513 6.63084 0.57377C6.92627 0.726776 7.22717 0.937158 7.53355 1.20492L7.38583 5.04918C7.05757 4.93443 6.7512 4.8388 6.46671 4.7623C6.19316 4.68579 5.89772 4.62841 5.58041 4.59016C5.26309 4.55191 4.88559 4.53279 4.44791 4.53279C3.7148 4.53279 3.13488 5.03005 2.70814 6.02459C2.2814 7.01912 1.97503 8.68306 1.78901 11.0164C1.61394 13.3497 1.52641 16.5246 1.52641 20.541C1.52641 24.5574 1.61394 27.7322 1.78901 30.0656C1.97503 32.3989 2.2814 34.0628 2.70814 35.0574C3.13488 36.0519 3.7148 36.5492 4.44791 36.5492C5.1482 36.5492 5.73359 36.5109 6.2041 36.4344C6.68554 36.3197 7.15605 36.1475 7.61561 35.918L7.76333 39.7049C7.29282 40.1639 6.80591 40.4891 6.30258 40.6803C5.81019 40.9098 5.19197 41.0246 4.44791 41.0246C3.36466 41.0246 2.49477 40.3743 1.83825 39.0738C1.19267 37.735 0.72217 35.5738 0.426737 32.5902C0.142246 29.6066 0 25.5902 0 20.541C0 15.4918 0.142246 11.4754 0.426737 8.4918C0.72217 5.5082 1.19267 3.36612 1.83825 2.06557C2.49477 0.726775 3.36466 0.0573763 4.44791 0.0573763Z" fill="#61A1F4"/>
<path d="M14.2188 0.745899C14.3501 0.745899 14.4649 0.879779 14.5634 1.14754C14.6619 1.37705 14.7276 1.70218 14.7604 2.12295L18.4041 40.3361H16.9105L13.9726 7.86065C13.9288 7.32513 13.8795 6.78962 13.8248 6.2541C13.7811 5.68033 13.7373 5.14481 13.6935 4.64754H13.234C13.1902 5.14481 13.1464 5.68033 13.1027 6.2541C13.0589 6.78962 13.0097 7.32513 12.955 7.86065L10.017 40.3361H8.52345L12.1671 2.12295C12.2 1.70218 12.2656 1.37705 12.3641 1.14754C12.4626 0.879779 12.5775 0.745899 12.7088 0.745899H14.2188ZM16.3196 23.582V27.9426H10.5751V23.582H16.3196Z" fill="#61A1F4"/>
<path d="M30.6985 0.745899C31.0924 0.745899 31.2894 1.45355 31.2894 2.86885L31.7654 40.3361H30.321L29.9107 4.93442H29.566L27.0384 34.1393C26.9509 35.2869 26.743 35.8607 26.4147 35.8607H25.1181C24.7789 35.8607 24.5601 35.2869 24.4616 34.1393L21.934 4.93442H21.6057L21.2118 40.3361H19.7675L20.2106 2.86885C20.2325 1.45355 20.4349 0.745899 20.8179 0.745899H22.4592C22.7656 0.745899 22.968 1.31967 23.0665 2.46721L25.1838 26.6229C25.2713 27.5027 25.3424 28.3825 25.3971 29.2623C25.4628 30.1421 25.5339 31.041 25.6105 31.959H25.9059C25.9825 31.041 26.0536 30.1421 26.1193 29.2623C26.185 28.3825 26.2561 27.4645 26.3327 26.5082L28.4499 2.46721C28.5375 1.31967 28.7454 0.745899 29.0736 0.745899H30.6985Z" fill="#61A1F4"/>
<path d="M38.4447 0C39.2653 0 39.9601 0.344261 40.5291 1.03278C41.109 1.72131 41.5686 2.86885 41.9078 4.47541C42.2579 6.04371 42.5096 8.14754 42.6628 10.7869C42.8269 13.4262 42.909 16.6776 42.909 20.541C42.909 24.4044 42.8269 27.6557 42.6628 30.2951C42.5096 32.9344 42.2579 35.0574 41.9078 36.6639C41.5686 38.2322 41.109 39.3607 40.5291 40.0492C39.9601 40.7377 39.2653 41.082 38.4447 41.082C37.624 41.082 36.9237 40.7377 36.3438 40.0492C35.7748 39.3607 35.3153 38.2322 34.9651 36.6639C34.615 35.0574 34.3578 32.9344 34.1937 30.2951C34.0405 27.6557 33.9639 24.4044 33.9639 20.541C33.9639 16.6776 34.0405 13.4262 34.1937 10.7869C34.3578 8.14754 34.615 6.04371 34.9651 4.47541C35.3153 2.86885 35.7748 1.72131 36.3438 1.03278C36.9237 0.344261 37.624 0 38.4447 0ZM38.4447 4.53279C37.7006 4.53279 37.1097 5.03005 36.6721 6.02459C36.2453 7.01912 35.9389 8.68306 35.7529 11.0164C35.5779 13.3115 35.4903 16.4863 35.4903 20.541C35.4903 24.5574 35.5779 27.7322 35.7529 30.0656C35.9389 32.3989 36.2453 34.0628 36.6721 35.0574C37.1097 36.0519 37.7006 36.5492 38.4447 36.5492C39.1887 36.5492 39.7741 36.0519 40.2008 35.0574C40.6385 34.0628 40.9449 32.3989 41.12 30.0656C41.306 27.7322 41.399 24.5574 41.399 20.541C41.399 16.4863 41.306 13.3115 41.12 11.0164C40.9449 8.68306 40.6385 7.01912 40.2008 6.02459C39.7741 5.03005 39.1887 4.53279 38.4447 4.53279Z" fill="#61A1F4"/>
<path d="M52.8089 0.745899V4.87705H49.3294C48.5853 4.87705 48.1805 6.21585 48.1148 8.89344C48.0273 12.2596 47.9507 15.1667 47.8851 17.6148C47.8194 20.0628 47.7428 22.2049 47.6553 24.041C47.5787 25.8388 47.4857 27.4454 47.3763 28.8607C47.2668 30.2377 47.1191 31.5765 46.9331 32.877C46.7252 34.4454 46.4845 35.8033 46.2109 36.9508C45.9374 38.0601 45.6201 38.9208 45.259 39.5328C44.9088 40.1066 44.5149 40.3934 44.0772 40.3934L43.9459 36.4918C44.2961 36.1093 44.6025 35.5546 44.8651 34.8279C45.1386 34.1011 45.3739 32.9918 45.5708 31.5C45.7021 30.5055 45.8116 29.5109 45.8991 28.5164C45.9976 27.5219 46.0796 26.4317 46.1453 25.2459C46.2219 24.0219 46.2875 22.6257 46.3422 21.0574C46.4079 19.4508 46.4681 17.5956 46.5228 15.4918C46.5775 13.3497 46.6377 10.8443 46.7033 7.97541C46.8346 3.15574 47.5842 0.745899 48.9519 0.745899H52.8089ZM53.0387 0.745899V40.3361H51.5944V0.745899H53.0387Z" fill="#61A1F4"/>
<path d="M57.3449 0.745899V40.3361H55.9006V0.745899H57.3449Z" fill="#61A1F4"/>
<path d="M67.8118 0.745899C67.593 2.92623 67.3851 4.95355 67.1881 6.82787C66.9912 8.70218 66.7887 10.3852 66.5808 11.877C66.3839 13.3688 66.165 14.6694 65.9243 15.7787C65.6945 16.8497 65.4319 17.7104 65.1365 18.3607C64.841 19.0109 64.4964 19.4126 64.1025 19.5656V19.7951C64.5292 19.9481 64.9012 20.3497 65.2186 21C65.5359 21.6503 65.8149 22.5683 66.0556 23.7541C66.3073 24.9016 66.5371 26.2978 66.745 27.9426C66.9638 29.5492 67.1772 31.4044 67.3851 33.5082C67.6039 35.5738 67.8446 37.8497 68.1072 40.3361H66.5808C66.2745 37.3525 66.0009 34.7131 65.7602 32.418C65.5195 30.1229 65.2623 28.1913 64.9888 26.6229C64.7262 25.0164 64.4198 23.8115 64.0696 23.0082C63.7195 22.1667 63.2818 21.7459 62.7566 21.7459V17.6721C63.249 17.6721 63.6648 17.2514 64.004 16.4098C64.3541 15.5301 64.6605 14.3251 64.9231 12.7951C65.1857 11.265 65.4265 9.48634 65.6453 7.45902C65.8641 5.39344 66.0939 3.15574 66.3346 0.745899H67.8118ZM61.6241 0.745899V13.1393C61.6241 14.2869 61.6077 15.3962 61.5749 16.4672C61.542 17.5382 61.4928 18.5902 61.4272 19.6229C61.4819 20.694 61.5256 21.765 61.5585 22.8361C61.6022 23.9071 61.6241 24.9399 61.6241 25.9344V40.3361H60.1962V0.745899H61.6241ZM63.3639 17.6721V21.7459H61.181V17.6721H63.3639Z" fill="#61A1F4"/>
<path d="M77.6532 0.745899L74.6004 30.582C74.4143 32.3415 74.2119 33.9672 73.9931 35.459C73.7742 36.9508 73.5116 38.1749 73.2053 39.1311C72.8989 40.0874 72.5159 40.623 72.0564 40.7377C71.8703 40.776 71.6515 40.7568 71.3998 40.6803C71.1591 40.6421 70.9129 40.5465 70.6612 40.3934C70.4205 40.2404 70.2072 40.0874 70.0211 39.9344L70.1853 36.2049C70.7324 36.3579 71.1591 36.4344 71.4655 36.4344C71.7828 36.4344 72.029 36.2623 72.2041 35.918C72.3901 35.5355 72.5487 34.9235 72.68 34.082C72.8113 33.2404 72.9645 32.0738 73.1396 30.582L73.5171 27.1967L73.6812 25.418L76.176 0.745899H77.6532ZM70.4479 0.745899L72.7293 23.6393C72.7949 24.2514 72.9208 24.5574 73.1068 24.5574H73.911L74.1244 28.8033H72.7129C72.4065 28.8033 72.1603 28.5929 71.9743 28.1721C71.7992 27.7131 71.6679 27.0246 71.5804 26.1066L68.9543 0.745899H70.4479Z" fill="#61A1F4"/>
<path d="M82.9624 0.286885C83.8924 0.286885 84.631 0.592895 85.1781 1.20492C85.7252 1.77869 86.1191 2.81147 86.3599 4.30328C86.6115 5.79508 86.7374 7.89891 86.7374 10.6148C86.7374 13.4454 86.5842 15.6066 86.2778 17.0984C85.9824 18.5902 85.4954 19.4508 84.817 19.6803V19.9098C85.6596 20.1776 86.245 21.2104 86.5732 23.0082C86.9124 24.806 87.082 27.2924 87.082 30.4672C87.082 33.1831 86.9617 35.2869 86.7209 36.7787C86.4802 38.2705 86.0918 39.3224 85.5556 39.9344C85.0304 40.5082 84.3356 40.7951 83.4712 40.7951C82.8256 40.7951 82.2676 40.776 81.7971 40.7377C81.3375 40.7377 80.9108 40.6995 80.5168 40.6229C80.1229 40.5464 79.7126 40.4508 79.2859 40.3361L79.5156 36.3197C79.7564 36.3579 80.2105 36.3962 80.8779 36.4344C81.5563 36.4727 82.3442 36.4918 83.2414 36.4918C83.8432 36.4918 84.3137 36.3197 84.6529 35.9754C85.0031 35.5929 85.2492 34.9044 85.3915 33.9098C85.5447 32.9153 85.6213 31.4809 85.6213 29.6066C85.6213 27.541 85.5447 25.9536 85.3915 24.8443C85.2383 23.735 84.9812 22.9508 84.6201 22.4918C84.259 22.0328 83.7666 21.7842 83.1429 21.7459H79.4992V17.9016H83.1265C83.6736 17.8634 84.1058 17.6721 84.4231 17.3279C84.7514 16.9454 84.9866 16.276 85.1289 15.3197C85.2711 14.3251 85.3422 12.9481 85.3422 11.1885C85.3422 9.39071 85.2657 8.01366 85.1125 7.05738C84.9593 6.10109 84.7021 5.45082 84.3411 5.10656C83.9909 4.76229 83.5095 4.59016 82.8967 4.59016C82.3606 4.59016 81.8791 4.59016 81.4524 4.59016C81.0256 4.59016 80.6481 4.60929 80.3199 4.64754C80.0026 4.64754 79.7345 4.68579 79.5156 4.7623L79.2859 0.745899C79.6688 0.592895 80.0299 0.497267 80.3691 0.459014C80.7193 0.382512 81.0968 0.344261 81.5016 0.344261C81.9174 0.30601 82.4043 0.286885 82.9624 0.286885ZM80.6974 0.745899V40.3361H79.2859V0.745899H80.6974Z" fill="#61A1F4"/>
<path d="M93.8953 0.745899C94.0266 0.745899 94.1415 0.879779 94.24 1.14754C94.3385 1.37705 94.4041 1.70218 94.437 2.12295L98.0806 40.3361H96.5871L93.6491 7.86065C93.6054 7.32513 93.5561 6.78962 93.5014 6.2541C93.4576 5.68033 93.4139 5.14481 93.3701 4.64754H92.9105C92.8668 5.14481 92.823 5.68033 92.7792 6.2541C92.7355 6.78962 92.6862 7.32513 92.6315 7.86065L89.6936 40.3361H88.2L91.8437 2.12295C91.8765 1.70218 91.9422 1.37705 92.0407 1.14754C92.1391 0.879779 92.254 0.745899 92.3853 0.745899H93.8953ZM95.9962 23.582V27.9426H90.2517V23.582H95.9962Z" fill="#61A1F4"/>
<path d="M101.118 0.745899V40.3361H99.6738V0.745899H101.118ZM106.518 16.9836V21.3443H100.987V16.9836H106.518ZM107.782 0.745899V40.3361H106.338V0.745899H107.782Z" fill="#61A1F4"/>
<path d="M112.082 0.745899V40.3361H110.637V0.745899H112.082ZM117.481 16.9836V21.3443H111.95V16.9836H117.481ZM118.745 0.745899V40.3361H117.301V0.745899H118.745Z" fill="#61A1F4"/>
<path d="M124.949 0.229505C125.551 0.229505 126.065 0.248632 126.492 0.286885C126.918 0.286885 127.307 0.325136 127.657 0.401638C128.018 0.478142 128.401 0.592895 128.806 0.745899L128.576 4.81967C128.346 4.74317 127.914 4.68579 127.279 4.64754C126.645 4.60929 125.873 4.59016 124.965 4.59016C124.44 4.59016 124.019 4.81967 123.701 5.27869C123.395 5.69945 123.171 6.46448 123.028 7.57377C122.886 8.64481 122.81 10.1557 122.799 12.1066C122.799 13.7896 122.864 15.224 122.996 16.4098C123.127 17.5574 123.346 18.4372 123.652 19.0492C123.959 19.6229 124.374 19.9098 124.9 19.9098H128.592L128.642 24.0984C128.499 24.0984 128.319 24.1175 128.1 24.1557C127.881 24.1557 127.619 24.1749 127.312 24.2131C127.006 24.2131 126.65 24.2322 126.245 24.2705C125.851 24.2705 125.403 24.2705 124.9 24.2705C124.528 24.2705 124.216 24.5956 123.964 25.2459C123.723 25.8579 123.537 26.929 123.406 28.459L122.421 40.3361H120.878L121.929 28.2295C122.027 27.082 122.159 26.1257 122.323 25.3607C122.487 24.5956 122.667 24.0027 122.864 23.582C123.072 23.1229 123.275 22.8169 123.472 22.6639L123.455 22.377C122.952 22.1093 122.542 21.5355 122.224 20.6557C121.918 19.7377 121.694 18.5328 121.551 17.041C121.42 15.5492 121.354 13.8087 121.354 11.8197C121.354 8.98907 121.475 6.73224 121.715 5.04918C121.967 3.36612 122.356 2.14208 122.881 1.37705C123.417 0.61202 124.106 0.229505 124.949 0.229505ZM128.806 0.745899V40.3361H127.361V0.745899H128.806Z" fill="#61A1F4"/>
<path d="M146.022 0.745899C146.416 0.745899 146.613 1.45355 146.613 2.86885L147.089 40.3361H145.644L145.234 4.93442H144.889L142.362 34.1393C142.274 35.2869 142.066 35.8607 141.738 35.8607H140.442C140.102 35.8607 139.884 35.2869 139.785 34.1393L137.257 4.93442H136.929L136.535 40.3361H135.091L135.534 2.86885C135.556 1.45355 135.758 0.745899 136.141 0.745899H137.783C138.089 0.745899 138.291 1.31967 138.39 2.46721L140.507 26.6229C140.595 27.5027 140.666 28.3825 140.721 29.2623C140.786 30.1421 140.857 31.041 140.934 31.959H141.229C141.306 31.041 141.377 30.1421 141.443 29.2623C141.508 28.3825 141.58 27.4645 141.656 26.5082L143.773 2.46721C143.861 1.31967 144.069 0.745899 144.397 0.745899H146.022Z" fill="#61A1F4"/>
<path d="M153.768 0C154.589 0 155.284 0.344261 155.853 1.03278C156.433 1.72131 156.892 2.86885 157.231 4.47541C157.581 6.04371 157.833 8.14754 157.986 10.7869C158.15 13.4262 158.232 16.6776 158.232 20.541C158.232 24.4044 158.15 27.6557 157.986 30.2951C157.833 32.9344 157.581 35.0574 157.231 36.6639C156.892 38.2322 156.433 39.3607 155.853 40.0492C155.284 40.7377 154.589 41.082 153.768 41.082C152.947 41.082 152.247 40.7377 151.667 40.0492C151.098 39.3607 150.639 38.2322 150.289 36.6639C149.938 35.0574 149.681 32.9344 149.517 30.2951C149.364 27.6557 149.287 24.4044 149.287 20.541C149.287 16.6776 149.364 13.4262 149.517 10.7869C149.681 8.14754 149.938 6.04371 150.289 4.47541C150.639 2.86885 151.098 1.72131 151.667 1.03278C152.247 0.344261 152.947 0 153.768 0ZM153.768 4.53279C153.024 4.53279 152.433 5.03005 151.996 6.02459C151.569 7.01912 151.262 8.68306 151.076 11.0164C150.901 13.3115 150.814 16.4863 150.814 20.541C150.814 24.5574 150.901 27.7322 151.076 30.0656C151.262 32.3989 151.569 34.0628 151.996 35.0574C152.433 36.0519 153.024 36.5492 153.768 36.5492C154.512 36.5492 155.098 36.0519 155.524 35.0574C155.962 34.0628 156.268 32.3989 156.443 30.0656C156.629 27.7322 156.722 24.5574 156.722 20.541C156.722 16.4863 156.629 13.3115 156.443 11.0164C156.268 8.68306 155.962 7.01912 155.524 6.02459C155.098 5.03005 154.512 4.53279 153.768 4.53279Z" fill="#61A1F4"/>
<path d="M173.22 0.745899C173.012 2.84972 172.81 4.81967 172.613 6.65574C172.427 8.4918 172.235 10.1749 172.038 11.7049C171.841 13.1967 171.623 14.5164 171.382 15.6639C171.141 16.7732 170.868 17.6721 170.561 18.3607C170.266 19.0109 169.916 19.4126 169.511 19.5656V19.7951C169.937 19.9481 170.309 20.3497 170.627 21C170.955 21.6503 171.24 22.5683 171.48 23.7541C171.732 24.9016 171.962 26.2978 172.17 27.9426C172.388 29.5492 172.602 31.4044 172.81 33.5082C173.029 35.5738 173.264 37.8497 173.515 40.3361H171.989C171.672 37.3525 171.387 34.7131 171.136 32.418C170.884 30.1229 170.627 28.1913 170.364 26.6229C170.113 25.0164 169.817 23.8115 169.478 23.0082C169.15 22.1667 168.745 21.7459 168.263 21.7459L168.28 17.6721C168.728 17.6721 169.111 17.2514 169.429 16.4098C169.757 15.5301 170.047 14.3251 170.299 12.7951C170.55 11.265 170.791 9.48634 171.021 7.45902C171.251 5.39344 171.491 3.15574 171.743 0.745899H173.22ZM161.403 0.745899C161.654 3.15574 161.89 5.39344 162.108 7.45902C162.338 9.48634 162.579 11.265 162.831 12.7951C163.082 14.3251 163.372 15.5301 163.701 16.4098C164.029 17.2514 164.412 17.6721 164.849 17.6721L164.866 21.7459C164.384 21.7459 163.974 22.1667 163.635 23.0082C163.307 23.8115 163.011 25.0164 162.749 26.6229C162.497 28.1913 162.245 30.1229 161.994 32.418C161.742 34.7131 161.457 37.3525 161.14 40.3361H159.63C159.882 37.8497 160.112 35.5738 160.319 33.5082C160.538 31.4044 160.752 29.5492 160.96 27.9426C161.167 26.2978 161.397 24.9016 161.649 23.7541C161.901 22.5683 162.185 21.6503 162.502 21C162.82 20.3497 163.192 19.9481 163.618 19.7951V19.5656C163.214 19.4126 162.858 19.0109 162.552 18.3607C162.256 17.6721 161.988 16.7732 161.747 15.6639C161.518 14.5164 161.304 13.1967 161.107 11.7049C160.91 10.1749 160.713 8.4918 160.516 6.65574C160.33 4.81967 160.133 2.84972 159.926 0.745899H161.403ZM166.261 17.6721V21.7459H164.373V17.6721H166.261ZM167.295 0.745899V13.1393C167.295 14.2869 167.279 15.377 167.246 16.4098C167.224 17.4426 167.169 18.5137 167.082 19.6229C167.147 20.694 167.197 21.765 167.229 22.8361C167.273 23.9071 167.295 24.9399 167.295 25.9344V40.3361H165.916V25.9344C165.916 24.9399 165.938 23.9071 165.982 22.8361C166.026 21.765 166.075 20.694 166.13 19.6229C166.053 18.5137 165.998 17.4426 165.966 16.4098C165.933 15.377 165.916 14.2869 165.916 13.1393V0.745899H167.295ZM168.772 17.6721V21.7459H166.983V17.6721H168.772Z" fill="#61A1F4"/>
<path d="M177.54 0.688523C178.076 0.688523 178.618 0.688523 179.165 0.688523C179.723 0.688523 180.27 0.726775 180.806 0.803279C181.353 0.841529 181.878 0.918031 182.382 1.03278L182.316 4.9918H177.77C177.431 4.9918 177.184 5.29781 177.031 5.90983C176.878 6.4836 176.801 7.43989 176.801 8.77869V32.3033C176.801 33.6421 176.878 34.6175 177.031 35.2295C177.184 35.8415 177.431 36.1475 177.77 36.1475H182.316L182.382 40.0492C181.878 40.1639 181.353 40.2404 180.806 40.2787C180.27 40.3169 179.723 40.3361 179.165 40.3361C178.618 40.3743 178.076 40.3934 177.54 40.3934C176.873 40.3934 176.342 39.7814 175.948 38.5574C175.554 37.2951 175.357 35.612 175.357 33.5082V7.57377C175.357 5.43169 175.554 3.74863 175.948 2.52459C176.342 1.30054 176.873 0.688523 177.54 0.688523ZM175.636 17.3852H181.676V21.459H175.636V17.3852Z" fill="#61A1F4"/>
<path d="M195.253 0.745899L195.122 4.93442H189.739V40.3361H188.294V0.745899C188.885 0.631146 189.47 0.554644 190.05 0.516394C190.641 0.439889 191.227 0.401638 191.807 0.401638C192.386 0.401638 192.961 0.439889 193.53 0.516394C194.11 0.554644 194.684 0.631146 195.253 0.745899ZM192.135 17.7869C193.076 17.7869 193.814 18.1694 194.351 18.9344C194.898 19.6612 195.286 20.8661 195.516 22.5492C195.746 24.2322 195.861 26.5273 195.861 29.4344C195.861 31.9973 195.779 34.0437 195.614 35.5738C195.45 37.0656 195.204 38.194 194.876 38.959C194.548 39.724 194.132 40.2213 193.628 40.4508C193.136 40.7186 192.556 40.8525 191.889 40.8525C191.484 40.8525 191.09 40.8333 190.707 40.7951C190.324 40.7568 189.935 40.6995 189.542 40.6229C189.159 40.5464 188.754 40.4508 188.327 40.3361L188.557 36.3197C188.798 36.3579 189.23 36.3962 189.853 36.4344C190.488 36.4727 191.249 36.4918 192.135 36.4918C192.737 36.4918 193.202 36.3005 193.53 35.918C193.858 35.5355 194.083 34.8279 194.203 33.7951C194.334 32.724 194.4 31.194 194.4 29.2049C194.4 27.3306 194.34 25.8579 194.219 24.7869C194.11 23.7158 193.891 22.9508 193.563 22.4918C193.234 21.9945 192.759 21.7459 192.135 21.7459H188.54V17.7869H192.135Z" fill="#61A1F4"/>
<path d="M205.735 0.745899L202.682 30.582C202.496 32.3415 202.294 33.9672 202.075 35.459C201.856 36.9508 201.594 38.1749 201.287 39.1311C200.981 40.0874 200.598 40.623 200.138 40.7377C199.952 40.776 199.733 40.7568 199.482 40.6803C199.241 40.6421 198.995 40.5465 198.743 40.3934C198.502 40.2404 198.289 40.0874 198.103 39.9344L198.267 36.2049C198.814 36.3579 199.241 36.4344 199.547 36.4344C199.865 36.4344 200.111 36.2623 200.286 35.918C200.472 35.5355 200.631 34.9235 200.762 34.082C200.893 33.2404 201.047 32.0738 201.222 30.582L201.599 27.1967L201.763 25.418L204.258 0.745899H205.735ZM198.53 0.745899L200.811 23.6393C200.877 24.2514 201.003 24.5574 201.189 24.5574H201.993L202.206 28.8033H200.795C200.488 28.8033 200.242 28.5929 200.056 28.1721C199.881 27.7131 199.75 27.0246 199.662 26.1066L197.036 0.745899H198.53Z" fill="#61A1F4"/>
<path d="M211.422 0.745899V40.3361H209.978V0.745899H211.422ZM215.082 0.745899V5.22131H206.334V0.745899H215.082Z" fill="#61A1F4"/>
<path d="M225.39 0.745899V40.3361H223.995V11.4754C223.995 10.7104 224.001 9.94535 224.011 9.18033C224.022 8.4153 224.044 7.6694 224.077 6.94262H223.995C223.918 7.6694 223.825 8.4153 223.716 9.18033C223.607 9.9071 223.503 10.5956 223.404 11.2459L218.382 40.3361H216.905V0.745899H218.3V29.3197C218.3 30.1229 218.289 30.9262 218.267 31.7295C218.256 32.4945 218.24 33.2596 218.218 34.0246H218.283C218.371 33.2978 218.469 32.571 218.579 31.8443C218.699 31.1175 218.814 30.4098 218.923 29.7213L223.897 0.745899H225.39Z" fill="#61A1F4"/>
<path d="M244.299 0.745899V40.3361H242.887V0.745899H244.299ZM233.319 0.745899V40.3361H231.907V0.745899H233.319ZM243.298 36.2049V40.3361H233.187L233.171 36.2049H243.298ZM238.801 0.745899V40.3361H237.405V0.745899H238.801Z" fill="#61A1F4"/>
<path d="M254.766 0.745899C254.547 2.92623 254.339 4.95355 254.142 6.82787C253.945 8.70218 253.743 10.3852 253.535 11.877C253.338 13.3688 253.119 14.6694 252.878 15.7787C252.648 16.8497 252.386 17.7104 252.09 18.3607C251.795 19.0109 251.45 19.4126 251.056 19.5656V19.7951C251.483 19.9481 251.855 20.3497 252.172 21C252.49 21.6503 252.769 22.5683 253.009 23.7541C253.261 24.9016 253.491 26.2978 253.699 27.9426C253.918 29.5492 254.131 31.4044 254.339 33.5082C254.558 35.5738 254.798 37.8497 255.061 40.3361H253.535C253.228 37.3525 252.955 34.7131 252.714 32.418C252.473 30.1229 252.216 28.1913 251.943 26.6229C251.68 25.0164 251.374 23.8115 251.023 23.0082C250.673 22.1667 250.236 21.7459 249.71 21.7459V17.6721C250.203 17.6721 250.619 17.2514 250.958 16.4098C251.308 15.5301 251.614 14.3251 251.877 12.7951C252.14 11.265 252.38 9.48634 252.599 7.45902C252.818 5.39344 253.048 3.15574 253.288 0.745899H254.766ZM248.578 0.745899V13.1393C248.578 14.2869 248.562 15.3962 248.529 16.4672C248.496 17.5382 248.447 18.5902 248.381 19.6229C248.436 20.694 248.479 21.765 248.512 22.8361C248.556 23.9071 248.578 24.9399 248.578 25.9344V40.3361H247.15V0.745899H248.578ZM250.318 17.6721V21.7459H248.135V17.6721H250.318Z" fill="#61A1F4"/>
<path d="M258.436 0.745899V40.3361H256.991V0.745899H258.436Z" fill="#61A1F4"/>
<path d="M269.313 0.745899V40.3361H267.869V4.87705H265.538C265.133 4.87705 264.838 5.18306 264.652 5.79508C264.477 6.4071 264.378 7.43989 264.356 8.89344C264.312 11.4945 264.252 13.9809 264.176 16.3525C264.11 18.6858 264.022 20.9235 263.913 23.0656C263.804 25.1694 263.661 27.2158 263.486 29.2049C263.322 31.1557 263.12 33.0492 262.879 34.8852C262.649 36.7213 262.37 38.5382 262.042 40.3361H260.696C261.254 37.1612 261.686 33.8142 261.993 30.2951C262.299 26.7377 262.523 23.1038 262.666 19.3934C262.819 15.6448 262.923 11.8962 262.978 8.14754C262.999 5.81421 263.213 3.99727 263.618 2.69672C264.022 1.39617 264.575 0.745899 265.275 0.745899H269.313ZM261.369 39.9344L261.221 49H260.22V39.9344H261.369ZM270.708 36.2049V40.3361H260.22V36.2049H270.708ZM270.708 39.9344V49H269.707L269.575 39.9344H270.708Z" fill="#61A1F4"/>
<path d="M280.266 0.745899V4.87705H276.787C276.043 4.87705 275.638 6.21585 275.572 8.89344C275.485 12.2596 275.408 15.1667 275.342 17.6148C275.277 20.0628 275.2 22.2049 275.113 24.041C275.036 25.8388 274.943 27.4454 274.834 28.8607C274.724 30.2377 274.576 31.5765 274.39 32.877C274.182 34.4454 273.942 35.8033 273.668 36.9508C273.395 38.0601 273.077 38.9208 272.716 39.5328C272.366 40.1066 271.972 40.3934 271.535 40.3934L271.403 36.4918C271.753 36.1093 272.06 35.5546 272.322 34.8279C272.596 34.1011 272.831 32.9918 273.028 31.5C273.159 30.5055 273.269 29.5109 273.356 28.5164C273.455 27.5219 273.537 26.4317 273.603 25.2459C273.679 24.0219 273.745 22.6257 273.8 21.0574C273.865 19.4508 273.925 17.5956 273.98 15.4918C274.035 13.3497 274.095 10.8443 274.161 7.97541C274.292 3.15574 275.041 0.745899 276.409 0.745899H280.266ZM280.496 0.745899V40.3361H279.052V0.745899H280.496Z" fill="#61A1F4"/>
<path d="M291.843 0.745899V40.3361H290.448V11.4754C290.448 10.7104 290.454 9.94535 290.465 9.18033C290.476 8.4153 290.498 7.6694 290.53 6.94262H290.448C290.372 7.6694 290.279 8.4153 290.169 9.18033C290.06 9.9071 289.956 10.5956 289.857 11.2459L284.835 40.3361H283.358V0.745899H284.753V29.3197C284.753 30.1229 284.742 30.9262 284.72 31.7295C284.709 32.4945 284.693 33.2596 284.671 34.0246H284.737C284.824 33.2978 284.923 32.571 285.032 31.8443C285.152 31.1175 285.267 30.4098 285.377 29.7213L290.35 0.745899H291.843Z" fill="#61A1F4"/>
<path d="M298.382 0.286885C299.312 0.286885 300.051 0.592895 300.598 1.20492C301.145 1.77869 301.539 2.81147 301.78 4.30328C302.032 5.79508 302.157 7.89891 302.157 10.6148C302.157 13.4454 302.004 15.6066 301.698 17.0984C301.402 18.5902 300.915 19.4508 300.237 19.6803V19.9098C301.08 20.1776 301.665 21.2104 301.993 23.0082C302.332 24.806 302.502 27.2924 302.502 30.4672C302.502 33.1831 302.382 35.2869 302.141 36.7787C301.9 38.2705 301.512 39.3224 300.976 39.9344C300.45 40.5082 299.756 40.7951 298.891 40.7951C298.246 40.7951 297.688 40.776 297.217 40.7377C296.758 40.7377 296.331 40.6995 295.937 40.6229C295.543 40.5464 295.133 40.4508 294.706 40.3361L294.936 36.3197C295.176 36.3579 295.631 36.3962 296.298 36.4344C296.976 36.4727 297.764 36.4918 298.661 36.4918C299.263 36.4918 299.734 36.3197 300.073 35.9754C300.423 35.5929 300.669 34.9044 300.812 33.9098C300.965 32.9153 301.041 31.4809 301.041 29.6066C301.041 27.541 300.965 25.9536 300.812 24.8443C300.658 23.735 300.401 22.9508 300.04 22.4918C299.679 22.0328 299.187 21.7842 298.563 21.7459H294.919V17.9016H298.547C299.094 17.8634 299.526 17.6721 299.843 17.3279C300.171 16.9454 300.407 16.276 300.549 15.3197C300.691 14.3251 300.762 12.9481 300.762 11.1885C300.762 9.39071 300.686 8.01366 300.533 7.05738C300.379 6.10109 300.122 5.45082 299.761 5.10656C299.411 4.76229 298.93 4.59016 298.317 4.59016C297.781 4.59016 297.299 4.59016 296.872 4.59016C296.446 4.59016 296.068 4.60929 295.74 4.64754C295.423 4.64754 295.155 4.68579 294.936 4.7623L294.706 0.745899C295.089 0.592895 295.45 0.497267 295.789 0.459014C296.139 0.382512 296.517 0.344261 296.922 0.344261C297.337 0.30601 297.824 0.286885 298.382 0.286885ZM296.117 0.745899V40.3361H294.706V0.745899H296.117Z" fill="#61A1F4"/>
<path d="M313.369 0.745899V40.3361H311.974V11.4754C311.974 10.7104 311.98 9.94535 311.991 9.18033C312.002 8.4153 312.024 7.6694 312.056 6.94262H311.974C311.898 7.6694 311.805 8.4153 311.695 9.18033C311.586 9.9071 311.482 10.5956 311.383 11.2459L306.361 40.3361H304.884V0.745899H306.279V29.3197C306.279 30.1229 306.268 30.9262 306.246 31.7295C306.235 32.4945 306.219 33.2596 306.197 34.0246H306.263C306.35 33.2978 306.449 32.571 306.558 31.8443C306.678 31.1175 306.793 30.4098 306.903 29.7213L311.876 0.745899H313.369Z" fill="#61A1F4"/>
<path d="M326.933 0.745899C327.327 0.745899 327.524 1.45355 327.524 2.86885L328 40.3361H326.556L326.145 4.93442H325.801L323.273 34.1393C323.186 35.2869 322.978 35.8607 322.649 35.8607H321.353C321.014 35.8607 320.795 35.2869 320.696 34.1393L318.169 4.93442H317.84L317.446 40.3361H316.002L316.445 2.86885C316.467 1.45355 316.67 0.745899 317.053 0.745899H318.694C319 0.745899 319.203 1.31967 319.301 2.46721L321.418 26.6229C321.506 27.5027 321.577 28.3825 321.632 29.2623C321.697 30.1421 321.769 31.041 321.845 31.959H322.141C322.217 31.041 322.288 30.1421 322.354 29.2623C322.42 28.3825 322.491 27.4645 322.567 26.5082L324.685 2.46721C324.772 1.31967 324.98 0.745899 325.308 0.745899H326.933Z" fill="#61A1F4"/>
<path d="M16.6463 50.7961V89.5246H14.0021V54.8373H9.7354C8.99423 54.8373 8.45333 55.1367 8.1128 55.7354C7.79229 56.3341 7.61202 57.3444 7.57196 58.7663C7.49183 61.3108 7.38167 63.743 7.24145 66.063C7.12126 68.3456 6.96097 70.5346 6.76066 72.63C6.56034 74.688 6.29997 76.69 5.97947 78.6357C5.67899 80.5441 5.30837 82.3963 4.86768 84.1924C4.44702 85.9885 3.93622 87.7659 3.33527 89.5246H0.871434C1.89304 86.4189 2.68424 83.1447 3.24512 79.7022C3.806 76.2222 4.21667 72.6674 4.47708 69.0378C4.75752 65.3708 4.94783 61.7037 5.04799 58.0367C5.08805 55.7541 5.47865 53.9767 6.21982 52.7045C6.96099 51.4322 7.97259 50.7961 9.25461 50.7961H16.6463ZM2.10331 89.1317L1.83293 98H0V89.1317H2.10331ZM19.2003 85.4834V89.5246H0V85.4834H19.2003ZM19.2003 89.1317V98H17.3674L17.127 89.1317H19.2003Z" fill="#61A1F4"/>
<path d="M36.6986 50.7961V54.8373H30.3286C28.9664 54.8373 28.2253 56.147 28.1051 58.7663C27.9448 62.0592 27.8046 64.903 27.6844 67.2978C27.5642 69.6926 27.424 71.7881 27.2637 73.5842C27.1235 75.3429 26.9532 76.9145 26.7529 78.299C26.5526 79.646 26.2822 80.9557 25.9417 82.228C25.5611 83.7621 25.1204 85.0905 24.6196 86.2131C24.1188 87.2982 23.5379 88.1401 22.8769 88.7388C22.2358 89.3001 21.5147 89.5808 20.7134 89.5808L20.4731 85.764C21.1141 85.3898 21.6749 84.8473 22.1557 84.1363C22.6565 83.4254 23.0871 82.3402 23.4477 80.8809C23.6881 79.908 23.8884 78.9351 24.0487 77.9622C24.229 76.9893 24.3792 75.9229 24.4994 74.7629C24.6396 73.5655 24.7598 72.1997 24.86 70.6655C24.9802 69.0939 25.0903 67.2791 25.1905 65.2211C25.2907 63.1256 25.4008 60.6747 25.521 57.8683C25.7614 53.1535 27.1336 50.7961 29.6375 50.7961H36.6986ZM37.1193 50.7961V89.5246H34.4751V50.7961H37.1193Z" fill="#61A1F4"/>
<path d="M48.4882 50.291C49.59 50.291 50.5314 50.3097 51.3126 50.3471C52.0939 50.3471 52.805 50.3845 53.446 50.4593C54.107 50.5342 54.8082 50.6464 55.5494 50.7961L55.1286 54.7812C54.708 54.7064 53.9168 54.6502 52.7549 54.6128C51.5931 54.5754 50.1809 54.5567 48.5183 54.5567C47.5567 54.5567 46.7855 54.7812 46.2046 55.2302C45.6437 55.6418 45.2331 56.3902 44.9726 57.4754C44.7122 58.5231 44.572 60.0011 44.552 61.9095C44.552 63.5559 44.6722 64.9591 44.9126 66.1191C45.153 67.2417 45.5536 68.1023 46.1145 68.701C46.6753 69.2623 47.4366 69.543 48.3981 69.543H55.1587L55.2489 73.6403C54.9885 73.6403 54.6579 73.659 54.2573 73.6964C53.8566 73.6964 53.3759 73.7152 52.815 73.7526C52.2541 73.7526 51.6031 73.7713 50.862 73.8087C50.1408 73.8087 49.3195 73.8087 48.3981 73.8087C47.717 73.8087 47.1461 74.1268 46.6854 74.7629C46.2447 75.3616 45.9042 76.4093 45.6638 77.9061L43.8609 89.5246H41.0364L42.9595 77.6816C43.1398 76.559 43.3802 75.6235 43.6806 74.8751C43.9811 74.1268 44.3116 73.5468 44.6722 73.1352C45.0528 72.6861 45.4234 72.3868 45.784 72.2371L45.7539 71.9565C44.8325 71.6945 44.0812 71.1333 43.5003 70.2726C42.9394 69.3746 42.5288 68.1959 42.2684 66.7365C42.028 65.2772 41.9078 63.5746 41.9078 61.6289C41.9078 58.8599 42.1282 56.6522 42.5689 55.0057C43.0296 53.3593 43.7408 52.1619 44.7023 51.4135C45.6838 50.6651 46.9458 50.291 48.4882 50.291ZM55.5494 50.7961V89.5246H52.9051V50.7961H55.5494Z" fill="#61A1F4"/>
<path d="M74.2069 50.3471C75.9095 50.3471 77.2616 50.6464 78.2632 51.2451C79.2648 51.8064 79.9859 52.8167 80.4266 54.2761C80.8874 55.7354 81.1177 57.7934 81.1177 60.4502C81.1177 63.2192 80.8373 65.3333 80.2764 66.7927C79.7355 68.252 78.8441 69.0939 77.6022 69.3184V69.543C79.1446 69.8049 80.2163 70.8152 80.8172 72.5739C81.4382 74.3326 81.7487 76.7648 81.7487 79.8706C81.7487 82.5273 81.5284 84.5853 81.0877 86.0447C80.647 87.504 79.9359 88.533 78.9543 89.1317C77.9928 89.693 76.7207 89.9737 75.1383 89.9737C73.9564 89.9737 72.9348 89.9549 72.0735 89.9175C71.2322 89.9175 70.451 89.8801 69.7298 89.8053C69.0087 89.7304 68.2575 89.6369 67.4762 89.5246L67.8969 85.5956C68.3376 85.6331 69.1689 85.6705 70.3908 85.7079C71.6328 85.7453 73.075 85.764 74.7176 85.764C75.8193 85.764 76.6807 85.5956 77.3017 85.2589C77.9427 84.8847 78.3934 84.2112 78.6538 83.2383C78.9343 82.2654 79.0745 80.8622 79.0745 79.0286C79.0745 77.008 78.9343 75.4551 78.6538 74.37C78.3734 73.2848 77.9027 72.5178 77.2417 72.0687C76.5806 71.6197 75.6792 71.3765 74.5374 71.3391H67.8669V67.5785H74.5073C75.5088 67.541 76.3001 67.354 76.881 67.0172C77.482 66.643 77.9127 65.9882 78.1731 65.0527C78.4335 64.0798 78.5637 62.7327 78.5637 61.0115C78.5637 59.2528 78.4235 57.9057 78.143 56.9702C77.8626 56.0347 77.3919 55.3986 76.7308 55.0619C76.0898 54.7251 75.2084 54.5567 74.0866 54.5567C73.1051 54.5567 72.2237 54.5567 71.4425 54.5567C70.6613 54.5567 69.9702 54.5754 69.3692 54.6128C68.7883 54.6128 68.2975 54.6502 67.8969 54.7251L67.4762 50.7961C68.1773 50.6464 68.8384 50.5529 69.4594 50.5155C70.1004 50.4406 70.7914 50.4032 71.5326 50.4032C72.2938 50.3658 73.1853 50.3471 74.2069 50.3471ZM70.0603 50.7961V89.5246H67.4762V50.7961H70.0603Z" fill="#61A1F4"/>
<path d="M94.2219 50.7961C94.4623 50.7961 94.6726 50.9271 94.8529 51.189C95.0332 51.4135 95.1533 51.7316 95.2134 52.1432L101.884 89.5246H99.1496L93.7711 57.756C93.691 57.2322 93.6009 56.7083 93.5008 56.1844C93.4206 55.6231 93.3405 55.0993 93.2604 54.6128H92.4191C92.339 55.0993 92.2588 55.6231 92.1786 56.1844C92.0985 56.7083 92.0084 57.2322 91.9083 57.756L86.5298 89.5246H83.7955L90.466 52.1432C90.5261 51.7316 90.6462 51.4135 90.8265 51.189C91.0068 50.9271 91.2171 50.7961 91.4575 50.7961H94.2219ZM98.068 73.1352V77.4009H87.5514V73.1352H98.068Z" fill="#61A1F4"/>
<path d="M127.486 50.7961V89.5246H124.902V50.7961H127.486ZM107.385 50.7961V89.5246H104.801V50.7961H107.385ZM125.653 85.4834V89.5246H107.144L107.114 85.4834H125.653ZM117.421 50.7961V89.5246H114.867V50.7961H117.421Z" fill="#61A1F4"/>
<path d="M140.128 50.0664C141.63 50.0664 142.902 50.4032 143.944 51.0767C145.005 51.7503 145.847 52.8729 146.468 54.4444C147.109 55.9786 147.569 58.0367 147.85 60.6186C148.15 63.2005 148.301 66.3811 148.301 70.1604C148.301 73.9397 148.15 77.1203 147.85 79.7022C147.569 82.2841 147.109 84.3608 146.468 85.9324C145.847 87.4666 145.005 88.5704 143.944 89.244C142.902 89.9175 141.63 90.2543 140.128 90.2543C138.625 90.2543 137.343 89.9175 136.282 89.244C135.24 88.5704 134.399 87.4666 133.758 85.9324C133.117 84.3608 132.646 82.2841 132.345 79.7022C132.065 77.1203 131.925 73.9397 131.925 70.1604C131.925 66.3811 132.065 63.2005 132.345 60.6186C132.646 58.0367 133.117 55.9786 133.758 54.4444C134.399 52.8729 135.24 51.7503 136.282 51.0767C137.343 50.4032 138.625 50.0664 140.128 50.0664ZM140.128 54.5006C138.766 54.5006 137.684 54.987 136.883 55.9599C136.101 56.9328 135.54 58.5605 135.2 60.8431C134.879 63.0882 134.719 66.194 134.719 70.1604C134.719 74.0893 134.879 77.1951 135.2 79.4777C135.54 81.7602 136.101 83.3879 136.883 84.3608C137.684 85.3337 138.766 85.8202 140.128 85.8202C141.49 85.8202 142.561 85.3337 143.343 84.3608C144.144 83.3879 144.705 81.7602 145.025 79.4777C145.366 77.1951 145.536 74.0893 145.536 70.1604C145.536 66.194 145.366 63.0882 145.025 60.8431C144.705 58.5605 144.144 56.9328 143.343 55.9599C142.561 54.987 141.49 54.5006 140.128 54.5006Z" fill="#61A1F4"/>
<path d="M156.502 50.74C157.945 50.74 159.397 50.7587 160.859 50.7961C162.342 50.8335 163.754 50.9458 165.096 51.1329L164.976 54.9496H157.374C156.673 54.9496 156.152 55.2677 155.811 55.9038C155.491 56.5025 155.331 57.5128 155.331 58.9347V89.5246H152.717V58.0367C152.717 55.8664 153.067 54.1077 153.768 52.7606C154.489 51.4135 155.401 50.74 156.502 50.74Z" fill="#61A1F4"/>
<path d="M175.31 50.0664C176.812 50.0664 178.084 50.4032 179.126 51.0767C180.188 51.7503 181.029 52.8729 181.65 54.4444C182.291 55.9786 182.752 58.0367 183.032 60.6186C183.333 63.2005 183.483 66.3811 183.483 70.1604C183.483 73.9397 183.333 77.1203 183.032 79.7022C182.752 82.2841 182.291 84.3608 181.65 85.9324C181.029 87.4666 180.188 88.5704 179.126 89.244C178.084 89.9175 176.812 90.2543 175.31 90.2543C173.808 90.2543 172.526 89.9175 171.464 89.244C170.422 88.5704 169.581 87.4666 168.94 85.9324C168.299 84.3608 167.828 82.2841 167.528 79.7022C167.247 77.1203 167.107 73.9397 167.107 70.1604C167.107 66.3811 167.247 63.2005 167.528 60.6186C167.828 58.0367 168.299 55.9786 168.94 54.4444C169.581 52.8729 170.422 51.7503 171.464 51.0767C172.526 50.4032 173.808 50.0664 175.31 50.0664ZM175.31 54.5006C173.948 54.5006 172.866 54.987 172.065 55.9599C171.284 56.9328 170.723 58.5605 170.382 60.8431C170.062 63.0882 169.901 66.194 169.901 70.1604C169.901 74.0893 170.062 77.1951 170.382 79.4777C170.723 81.7602 171.284 83.3879 172.065 84.3608C172.866 85.3337 173.948 85.8202 175.31 85.8202C176.672 85.8202 177.744 85.3337 178.525 84.3608C179.326 83.3879 179.887 81.7602 180.208 79.4777C180.548 77.1951 180.718 74.0893 180.718 70.1604C180.718 66.194 180.548 63.0882 180.208 60.8431C179.887 58.5605 179.326 56.9328 178.525 55.9599C177.744 54.987 176.672 54.5006 175.31 54.5006Z" fill="#61A1F4"/>
<path d="M199.337 50.3471C201.019 50.3471 202.351 50.6464 203.333 51.2451C204.334 51.8064 205.056 52.8167 205.496 54.2761C205.937 55.7354 206.157 57.7934 206.157 60.4502C206.157 63.2192 205.887 65.3333 205.346 66.7927C204.805 68.252 203.914 69.0939 202.672 69.3184V69.543C204.214 69.8049 205.276 70.8152 205.857 72.5739C206.458 74.3326 206.758 76.7648 206.758 79.8706C206.758 82.5273 206.538 84.5853 206.097 86.0447C205.657 87.504 204.955 88.533 203.994 89.1317C203.052 89.693 201.801 89.9737 200.238 89.9737C199.297 89.9737 198.415 89.9362 197.594 89.8614C196.773 89.7866 195.991 89.6556 195.25 89.4685C194.529 89.2814 193.828 89.0382 193.147 88.7388L193.357 85.1466C194.138 85.2963 195.08 85.4647 196.182 85.6518C197.303 85.8015 198.515 85.8763 199.817 85.8763C200.879 85.8763 201.71 85.7079 202.311 85.3711C202.932 84.9969 203.373 84.3234 203.633 83.3505C203.914 82.3402 204.054 80.8996 204.054 79.0286C204.054 77.0454 203.914 75.5113 203.633 74.4261C203.353 73.3036 202.882 72.5178 202.221 72.0687C201.58 71.6197 200.709 71.3952 199.607 71.3952H196.122V67.5223H199.607C200.589 67.5223 201.36 67.3352 201.921 66.9611C202.482 66.5869 202.882 65.932 203.123 64.9966C203.383 64.0611 203.513 62.7327 203.513 61.0115C203.513 59.2154 203.373 57.8496 203.093 56.9141C202.832 55.9412 202.381 55.2864 201.74 54.9496C201.119 54.5754 200.268 54.3883 199.186 54.3883C198.045 54.3883 197.023 54.4632 196.122 54.6128C195.24 54.7625 194.479 54.8935 193.838 55.0057L193.628 51.2451C194.549 50.9458 195.45 50.7213 196.332 50.5716C197.213 50.4219 198.215 50.3471 199.337 50.3471Z" fill="#61A1F4"/>
<path d="M225.862 50.7961V89.5246H223.218V54.8373H218.952C218.211 54.8373 217.67 55.1367 217.329 55.7354C217.009 56.3341 216.828 57.3444 216.788 58.7663C216.708 61.3108 216.598 63.743 216.458 66.063C216.338 68.3456 216.177 70.5346 215.977 72.63C215.777 74.688 215.516 76.69 215.196 78.6357C214.895 80.5441 214.525 82.3963 214.084 84.1924C213.663 85.9885 213.152 87.7659 212.551 89.5246H210.088C211.109 86.4189 211.9 83.1447 212.461 79.7022C213.022 76.2222 213.433 72.6674 213.693 69.0378C213.974 65.3708 214.164 61.7037 214.264 58.0367C214.304 55.7541 214.695 53.9767 215.436 52.7045C216.177 51.4322 217.189 50.7961 218.471 50.7961H225.862ZM211.32 89.1317L211.049 98H209.216V89.1317H211.32ZM228.416 85.4834V89.5246H209.216V85.4834H228.416ZM228.416 89.1317V98H226.584L226.343 89.1317H228.416Z" fill="#61A1F4"/>
<path d="M239.307 50.0664C240.81 50.0664 242.082 50.4032 243.123 51.0767C244.185 51.7503 245.026 52.8729 245.647 54.4444C246.288 55.9786 246.749 58.0367 247.029 60.6186C247.33 63.2005 247.48 66.3811 247.48 70.1604C247.48 73.9397 247.33 77.1203 247.029 79.7022C246.749 82.2841 246.288 84.3608 245.647 85.9324C245.026 87.4666 244.185 88.5704 243.123 89.244C242.082 89.9175 240.81 90.2543 239.307 90.2543C237.805 90.2543 236.523 89.9175 235.461 89.244C234.42 88.5704 233.578 87.4666 232.937 85.9324C232.296 84.3608 231.825 82.2841 231.525 79.7022C231.245 77.1203 231.104 73.9397 231.104 70.1604C231.104 66.3811 231.245 63.2005 231.525 60.6186C231.825 58.0367 232.296 55.9786 232.937 54.4444C233.578 52.8729 234.42 51.7503 235.461 51.0767C236.523 50.4032 237.805 50.0664 239.307 50.0664ZM239.307 54.5006C237.945 54.5006 236.863 54.987 236.062 55.9599C235.281 56.9328 234.72 58.5605 234.38 60.8431C234.059 63.0882 233.899 66.194 233.899 70.1604C233.899 74.0893 234.059 77.1951 234.38 79.4777C234.72 81.7602 235.281 83.3879 236.062 84.3608C236.863 85.3337 237.945 85.8202 239.307 85.8202C240.669 85.8202 241.741 85.3337 242.522 84.3608C243.324 83.3879 243.885 81.7602 244.205 79.4777C244.546 77.1951 244.716 74.0893 244.716 70.1604C244.716 66.194 244.546 63.0882 244.205 60.8431C243.885 58.5605 243.324 56.9328 242.522 55.9599C241.741 54.987 240.669 54.5006 239.307 54.5006Z" fill="#61A1F4"/>
<path d="M259.108 50.291C260.77 50.291 262.082 50.6464 263.044 51.3574C264.005 52.0683 264.696 53.3032 265.117 55.0619C265.538 56.7831 265.748 59.2341 265.748 62.4147C265.748 65.5953 265.538 68.0649 265.117 69.8236C264.716 71.5823 264.045 72.8171 263.104 73.5281C262.182 74.2016 260.94 74.5384 259.378 74.5384C258.537 74.5384 257.725 74.501 256.944 74.4261C256.183 74.3513 255.482 74.2577 254.841 74.1455C254.2 73.9958 253.649 73.8461 253.188 73.6964C252.748 73.5468 252.437 73.4158 252.257 73.3036L252.347 70.2726C253.409 70.2726 254.51 70.2726 255.652 70.2726C256.794 70.2726 257.926 70.2726 259.047 70.2726C260.049 70.2352 260.84 70.0107 261.421 69.5991C262.022 69.1501 262.443 68.3643 262.683 67.2417C262.944 66.0817 263.074 64.4727 263.074 62.4147C263.074 60.3192 262.944 58.7102 262.683 57.5876C262.443 56.4651 262.022 55.6793 261.421 55.2302C260.84 54.7812 260.049 54.5567 259.047 54.5567C257.405 54.5567 255.983 54.5754 254.781 54.6128C253.599 54.6502 252.798 54.7064 252.377 54.7812L251.956 50.7961C252.717 50.6464 253.429 50.5342 254.09 50.4593C254.751 50.3845 255.472 50.3471 256.253 50.3471C257.034 50.3097 257.986 50.291 259.108 50.291ZM254.6 50.7961V89.5246H251.956V50.7961H254.6Z" fill="#61A1F4"/>
<path d="M277.101 50.0664C278.604 50.0664 279.876 50.4032 280.917 51.0767C281.979 51.7503 282.82 52.8729 283.441 54.4444C284.082 55.9786 284.543 58.0367 284.823 60.6186C285.124 63.2005 285.274 66.3811 285.274 70.1604C285.274 73.9397 285.124 77.1203 284.823 79.7022C284.543 82.2841 284.082 84.3608 283.441 85.9324C282.82 87.4666 281.979 88.5704 280.917 89.244C279.876 89.9175 278.604 90.2543 277.101 90.2543C275.599 90.2543 274.317 89.9175 273.255 89.244C272.213 88.5704 271.372 87.4666 270.731 85.9324C270.09 84.3608 269.619 82.2841 269.319 79.7022C269.039 77.1203 268.898 73.9397 268.898 70.1604C268.898 66.3811 269.039 63.2005 269.319 60.6186C269.619 58.0367 270.09 55.9786 270.731 54.4444C271.372 52.8729 272.213 51.7503 273.255 51.0767C274.317 50.4032 275.599 50.0664 277.101 50.0664ZM277.101 54.5006C275.739 54.5006 274.657 54.987 273.856 55.9599C273.075 56.9328 272.514 58.5605 272.173 60.8431C271.853 63.0882 271.693 66.194 271.693 70.1604C271.693 74.0893 271.853 77.1951 272.173 79.4777C272.514 81.7602 273.075 83.3879 273.856 84.3608C274.657 85.3337 275.739 85.8202 277.101 85.8202C278.463 85.8202 279.535 85.3337 280.316 84.3608C281.118 83.3879 281.678 81.7602 281.999 79.4777C282.339 77.1951 282.51 74.0893 282.51 70.1604C282.51 66.194 282.339 63.0882 281.999 60.8431C281.678 58.5605 281.118 56.9328 280.316 55.9599C279.535 54.987 278.463 54.5006 277.101 54.5006Z" fill="#61A1F4"/>
<path d="M296.481 50.3471C298.184 50.3471 299.536 50.6464 300.537 51.2451C301.539 51.8064 302.26 52.8167 302.701 54.2761C303.161 55.7354 303.392 57.7934 303.392 60.4502C303.392 63.2192 303.111 65.3333 302.55 66.7927C302.01 68.252 301.118 69.0939 299.876 69.3184V69.543C301.419 69.8049 302.49 70.8152 303.091 72.5739C303.712 74.3326 304.023 76.7648 304.023 79.8706C304.023 82.5273 303.802 84.5853 303.362 86.0447C302.921 87.504 302.21 88.533 301.228 89.1317C300.267 89.693 298.995 89.9737 297.412 89.9737C296.23 89.9737 295.209 89.9549 294.347 89.9175C293.506 89.9175 292.725 89.8801 292.004 89.8053C291.283 89.7304 290.531 89.6369 289.75 89.5246L290.171 85.5956C290.612 85.6331 291.443 85.6705 292.665 85.7079C293.907 85.7453 295.349 85.764 296.992 85.764C298.093 85.764 298.955 85.5956 299.576 85.2589C300.217 84.8847 300.667 84.2112 300.928 83.2383C301.208 82.2654 301.348 80.8622 301.348 79.0286C301.348 77.008 301.208 75.4551 300.928 74.37C300.647 73.2848 300.177 72.5178 299.516 72.0687C298.855 71.6197 297.953 71.3765 296.811 71.3391H290.141V67.5785H296.781C297.783 67.541 298.574 67.354 299.155 67.0172C299.756 66.643 300.187 65.9882 300.447 65.0527C300.707 64.0798 300.838 62.7327 300.838 61.0115C300.838 59.2528 300.697 57.9057 300.417 56.9702C300.137 56.0347 299.666 55.3986 299.005 55.0619C298.364 54.7251 297.482 54.5567 296.361 54.5567C295.379 54.5567 294.498 54.5567 293.716 54.5567C292.935 54.5567 292.244 54.5754 291.643 54.6128C291.062 54.6128 290.572 54.6502 290.171 54.7251L289.75 50.7961C290.451 50.6464 291.112 50.5529 291.733 50.5155C292.374 50.4406 293.065 50.4032 293.807 50.4032C294.568 50.3658 295.459 50.3471 296.481 50.3471ZM292.334 50.7961V89.5246H289.75V50.7961H292.334Z" fill="#61A1F4"/>
<path d="M309.375 49C309.735 49 309.975 49.131 310.096 49.3929C310.236 49.6174 310.306 50.0477 310.306 50.6839V53.9954C310.306 55.0057 310.256 55.9786 310.156 56.9141C310.076 57.8496 309.956 58.7476 309.795 59.6082C309.655 60.4689 309.475 61.2921 309.254 62.0779L308.053 61.4605C308.153 60.3753 308.223 59.3837 308.263 58.4857C308.323 57.5876 308.353 56.4838 308.353 55.1741C307.872 55.1741 307.632 54.6877 307.632 53.7148V50.6839C307.652 50.0477 307.742 49.6174 307.902 49.3929C308.063 49.131 308.303 49 308.623 49H309.375Z" fill="#61A1F4"/>
<path d="M320.939 50.291C322.041 50.291 322.982 50.3097 323.763 50.3471C324.544 50.3471 325.256 50.3845 325.897 50.4593C326.558 50.5342 327.259 50.6464 328 50.7961L327.579 54.7812C327.159 54.7064 326.367 54.6502 325.206 54.6128C324.044 54.5754 322.632 54.5567 320.969 54.5567C320.007 54.5567 319.236 54.7812 318.655 55.2302C318.094 55.6418 317.684 56.3902 317.423 57.4754C317.163 58.5231 317.023 60.0011 317.003 61.9095C317.003 63.5559 317.123 64.9591 317.363 66.1191C317.604 67.2417 318.004 68.1023 318.565 68.701C319.126 69.2623 319.887 69.543 320.849 69.543H327.609L327.7 73.6403C327.439 73.6403 327.109 73.659 326.708 73.6964C326.307 73.6964 325.827 73.7152 325.266 73.7526C324.705 73.7526 324.054 73.7713 323.313 73.8087C322.591 73.8087 321.77 73.8087 320.849 73.8087C320.168 73.8087 319.597 74.1268 319.136 74.7629C318.695 75.3616 318.355 76.4093 318.114 77.9061L316.312 89.5246H313.487L315.41 77.6816C315.59 76.559 315.831 75.6235 316.131 74.8751C316.432 74.1268 316.762 73.5468 317.123 73.1352C317.503 72.6861 317.874 72.3868 318.235 72.2371L318.205 71.9565C317.283 71.6945 316.532 71.1333 315.951 70.2726C315.39 69.3746 314.979 68.1959 314.719 66.7365C314.479 65.2772 314.359 63.5746 314.359 61.6289C314.359 58.8599 314.579 56.6522 315.02 55.0057C315.48 53.3593 316.191 52.1619 317.153 51.4135C318.134 50.6651 319.396 50.291 320.939 50.291ZM328 50.7961V89.5246H325.356V50.7961H328Z" fill="#61A1F4"/>
</svg>
