<svg preserveAspectRatio="none" width="1200" height="98" viewBox="0 0 1200 98" fill="none" xmlns="http://www.w3.org/2000/svg">
<path d="M5.20328 16.4133C6.41301 16.4133 7.36767 17.0212 8.06727 18.237C8.76688 19.4528 9.26971 21.5645 9.57579 24.572C9.88186 27.5155 10.0349 31.7068 10.0349 37.1459C10.0349 42.585 9.88186 46.8084 9.57579 49.8159C9.28429 52.8234 8.79603 54.935 8.111 56.1508C7.44055 57.3026 6.5369 57.8785 5.40005 57.8785C4.78789 57.8785 4.19761 57.8146 3.62918 57.6866C3.07533 57.5586 2.5652 57.3986 2.0988 57.2067C1.6324 56.9507 1.23159 56.6947 0.896364 56.4388C0.575713 56.1828 0.349801 55.9589 0.218625 55.7669L0.284213 50.5837C1.05669 50.5837 1.85832 50.5837 2.68909 50.5837C3.51987 50.5837 4.34336 50.5837 5.15956 50.5837C5.88831 50.5197 6.46402 50.1358 6.8867 49.4319C7.32395 48.6641 7.63002 47.3203 7.80492 45.4006C7.9944 43.4169 8.08914 40.6654 8.08914 37.1459C8.08914 33.5625 7.9944 30.811 7.80492 28.8913C7.63002 26.9716 7.32395 25.6278 6.8867 24.8599C6.46402 24.0921 5.88831 23.7081 5.15956 23.7081C3.96441 23.7081 2.92958 23.7401 2.05508 23.8041C1.19515 23.8681 0.612151 23.9641 0.306075 24.0921L0 17.2772C0.553851 17.0212 1.07126 16.8293 1.55224 16.7013C2.03322 16.5733 2.55792 16.5093 3.12634 16.5093C3.69477 16.4453 4.38708 16.4133 5.20328 16.4133ZM1.9239 17.2772V83.5064H0V17.2772H1.9239Z" fill="#61A1F4"/>
<path d="M15.672 17.1812C16.3862 17.1812 17.1077 17.1812 17.8364 17.1812C18.5797 17.1812 19.3085 17.2452 20.0227 17.3732C20.7514 17.4372 21.451 17.5651 22.1215 17.7571L22.034 24.38H15.9781C15.5263 24.38 15.1983 24.8919 14.9943 25.9158C14.7902 26.8756 14.6882 28.4753 14.6882 30.715V70.0686C14.6882 72.3082 14.7902 73.9399 14.9943 74.9638C15.1983 75.9876 15.5263 76.4995 15.9781 76.4995H22.034L22.1215 83.0264C21.451 83.2184 20.7514 83.3464 20.0227 83.4104C19.3085 83.4744 18.5797 83.5064 17.8364 83.5064C17.1077 83.5704 16.3862 83.6023 15.672 83.6023C14.7829 83.6023 14.0761 82.5785 13.5514 80.5308C13.0267 78.4192 12.7643 75.6037 12.7643 72.0842V28.6993C12.7643 25.1159 13.0267 22.3004 13.5514 20.2527C14.0761 18.205 14.7829 17.1812 15.672 17.1812ZM13.136 45.1126H21.1814V51.9275H13.136V45.1126Z" fill="#61A1F4"/>
<path d="M35.2733 17.2772C34.9818 20.9246 34.7049 24.316 34.4425 27.4515C34.1802 30.587 33.9106 33.4025 33.6336 35.8981C33.3713 38.3937 33.0798 40.5694 32.7591 42.4251C32.453 44.2168 32.1032 45.6565 31.7097 46.7444C31.3162 47.8322 30.8571 48.5041 30.3324 48.76V49.144C30.9008 49.3999 31.3964 50.0718 31.819 51.1596C32.2417 52.2475 32.6134 53.7832 32.934 55.7669C33.2692 57.6866 33.5753 60.0222 33.8523 62.7737C34.1438 65.4613 34.428 68.5648 34.7049 72.0842C34.9964 75.5397 35.317 79.347 35.6668 83.5064H33.6336C33.2255 78.5152 32.8611 74.0999 32.5405 70.2605C32.2198 66.4212 31.8773 63.1897 31.513 60.5661C31.1632 57.8785 30.7551 55.8629 30.2887 54.5191C29.8223 53.1113 29.2393 52.4074 28.5397 52.4074V45.5926C29.1955 45.5926 29.7494 44.8887 30.2012 43.4809C30.6676 42.0091 31.0757 39.9935 31.4255 37.4339C31.7753 34.8743 32.096 31.8988 32.3875 28.5073C32.679 25.0519 32.985 21.3085 33.3057 17.2772H35.2733ZM27.0311 17.2772V38.0098C27.0311 39.9295 27.0093 41.7852 26.9656 43.5769C26.9218 45.3686 26.8562 47.1283 26.7688 48.856C26.8417 50.6477 26.9 52.4394 26.9437 54.2311C27.002 56.0229 27.0311 57.7506 27.0311 59.4143V83.5064H25.1291V17.2772H27.0311ZM29.3486 45.5926V52.4074H26.4409V45.5926H29.3486Z" fill="#61A1F4"/>
<path d="M48.3604 17.2772V24.1881H43.7256C42.7345 24.1881 42.1952 26.4277 42.1077 30.907C41.9911 36.538 41.8891 41.4012 41.8017 45.4966C41.7142 49.5919 41.6122 53.1753 41.4956 56.2468C41.3936 59.2543 41.2697 61.9419 41.1239 64.3095C40.9782 66.6131 40.7814 68.8528 40.5336 71.0284C40.2567 73.652 39.9361 75.9236 39.5717 77.8433C39.2073 79.699 38.7846 81.1387 38.3037 82.1626C37.8373 83.1224 37.3126 83.6023 36.7296 83.6023L36.5547 77.0754C37.0211 76.4355 37.4292 75.5077 37.779 74.2919C38.1433 73.0761 38.4567 71.2204 38.7191 68.7248C38.894 67.061 39.0397 65.3973 39.1563 63.7336C39.2875 62.0699 39.3968 60.2462 39.4842 58.2625C39.5863 56.2148 39.6737 53.8792 39.7466 51.2556C39.834 48.5681 39.9142 45.4646 39.9871 41.9451C40.06 38.3617 40.1401 34.1704 40.2276 29.3712C40.4025 21.3085 41.4009 17.2772 43.2227 17.2772H48.3604ZM48.6665 17.2772V83.5064H46.7426V17.2772H48.6665Z" fill="#61A1F4"/>
<path d="M58.3815 17.2772C58.5564 17.2772 58.7094 17.5011 58.8406 17.9491C58.9718 18.333 59.0592 18.8769 59.103 19.5808L63.9564 83.5064H61.967L58.0536 29.1792C57.9953 28.2834 57.9297 27.3875 57.8568 26.4917C57.7985 25.5318 57.7402 24.636 57.6819 23.8041H57.0697C57.0114 24.636 56.9532 25.5318 56.8949 26.4917C56.8366 27.3875 56.771 28.2834 56.6981 29.1792L52.7847 83.5064H50.7952L55.6487 19.5808C55.6924 18.8769 55.7799 18.333 55.911 17.9491C56.0422 17.5011 56.1953 17.2772 56.3702 17.2772H58.3815ZM61.1799 55.4789V62.7737H53.528V55.4789H61.1799Z" fill="#61A1F4"/>
<path d="M80.333 17.2772C80.8577 17.2772 81.1201 18.461 81.1201 20.8286L81.7541 83.5064H79.8302L79.2836 24.284H78.8245L75.4577 73.1401C75.3411 75.0597 75.0641 76.0196 74.6269 76.0196H72.8998C72.4479 76.0196 72.1564 75.0597 72.0253 73.1401L68.6584 24.284H68.2212L67.6965 83.5064H65.7726L66.3629 20.8286C66.392 18.461 66.6617 17.2772 67.1718 17.2772H69.358C69.7661 17.2772 70.0358 18.237 70.1669 20.1567L72.9872 60.5661C73.1038 62.0379 73.1985 63.5096 73.2714 64.9814C73.3589 66.4531 73.4536 67.9569 73.5556 69.4926H73.9492C74.0512 67.9569 74.1459 66.4531 74.2334 64.9814C74.3208 63.5096 74.4156 61.9739 74.5176 60.3741L77.3379 20.1567C77.4545 18.237 77.7314 17.2772 78.1686 17.2772H80.333Z" fill="#61A1F4"/>
<path d="M91.1539 17.2772C91.3288 17.2772 91.4819 17.5011 91.6131 17.9491C91.7442 18.333 91.8317 18.8769 91.8754 19.5808L96.7289 83.5064H94.7394L90.826 29.1792C90.7677 28.2834 90.7021 27.3875 90.6292 26.4917C90.571 25.5318 90.5126 24.636 90.4543 23.8041H89.8422C89.7839 24.636 89.7256 25.5318 89.6673 26.4917C89.609 27.3875 89.5434 28.2834 89.4705 29.1792L85.5571 83.5064H83.5676L88.4211 19.5808C88.4649 18.8769 88.5523 18.333 88.6835 17.9491C88.8147 17.5011 88.9677 17.2772 89.1426 17.2772H91.1539ZM93.9524 55.4789V62.7737H86.3005V55.4789H93.9524Z" fill="#61A1F4"/>
<path d="M114.41 17.2772V83.5064H112.486V24.1881H109.381C108.842 24.1881 108.449 24.7 108.201 25.7238C107.968 26.7476 107.836 28.4753 107.807 30.907C107.749 35.2582 107.669 39.4176 107.567 43.3849C107.479 47.2883 107.363 51.0317 107.217 54.6151C107.071 58.1345 106.882 61.5579 106.649 64.8854C106.43 68.1489 106.16 71.3163 105.84 74.3878C105.534 77.4593 105.162 80.4988 104.725 83.5064H102.932C103.675 78.1952 104.251 72.5961 104.659 66.7091C105.067 60.7581 105.366 54.6791 105.555 48.4721C105.759 42.2011 105.898 35.9301 105.971 29.6592C106 25.7558 106.284 22.7163 106.823 20.5406C107.363 18.365 108.099 17.2772 109.032 17.2772H114.41ZM103.828 82.8345L103.631 98H102.298V82.8345H103.828ZM116.268 76.5955V83.5064H102.298V76.5955H116.268ZM116.268 82.8345V98H114.934L114.76 82.8345H116.268Z" fill="#61A1F4"/>
<path d="M120.801 17.2772V83.5064H118.878V17.2772H120.801Z" fill="#61A1F4"/>
<path d="M130.109 16.1254C130.75 16.1254 131.304 16.1894 131.77 16.3173C132.237 16.4453 132.667 16.6693 133.06 16.9892C133.454 17.2452 133.854 17.5971 134.263 18.0451L134.066 24.572C133.629 24.316 133.22 24.1561 132.842 24.0921C132.463 23.9641 132.054 23.8681 131.617 23.8041C131.195 23.7401 130.684 23.7081 130.087 23.7081C129.067 23.7081 128.258 24.54 127.66 26.2037C127.077 27.8674 126.654 30.651 126.392 34.5544C126.144 38.3937 126.02 43.6729 126.02 50.3918C126.02 57.1107 126.144 62.4218 126.392 66.3252C126.654 70.1645 127.077 72.9161 127.66 74.5798C128.258 76.2435 129.067 77.0754 130.087 77.0754C131.005 77.0754 131.77 77.0114 132.382 76.8834C132.995 76.6915 133.599 76.4035 134.197 76.0196L134.416 82.4505C133.789 83.2184 133.155 83.7623 132.514 84.0823C131.887 84.4662 131.085 84.6582 130.109 84.6582C128.622 84.6582 127.434 83.5704 126.545 81.3947C125.656 79.1551 125.015 75.5397 124.621 70.5485C124.228 65.5573 124.031 58.8384 124.031 50.3918C124.031 41.9451 124.228 35.2262 124.621 30.2351C125.015 25.2439 125.656 21.6605 126.545 19.4848C127.434 17.2452 128.622 16.1254 130.109 16.1254ZM124.643 45.0166L132.492 45.1126V51.6396L124.643 51.7355V45.0166Z" fill="#61A1F4"/>
<path d="M142.617 17.2772V83.5064H140.693V17.2772H142.617ZM147.493 17.2772V24.764H135.84V17.2772H147.493Z" fill="#61A1F4"/>
<path d="M161.224 17.2772V83.5064H159.365V35.2262C159.365 33.9465 159.373 32.6667 159.387 31.3869C159.402 30.1071 159.431 28.8593 159.475 27.6435H159.365C159.263 28.8593 159.139 30.1071 158.994 31.3869C158.848 32.6027 158.709 33.7545 158.578 34.8423L151.888 83.5064H149.921V17.2772H151.779V65.0774C151.779 66.4212 151.764 67.7649 151.735 69.1087C151.721 70.3885 151.699 71.6683 151.67 72.9481H151.757C151.874 71.7323 152.005 70.5165 152.151 69.3007C152.311 68.0849 152.464 66.9011 152.61 65.7493L159.234 17.2772H161.224Z" fill="#61A1F4"/>
<path d="M166.37 17.2772V42.713C166.356 45.9125 166.516 48.2481 166.851 49.7199C167.186 51.1277 167.733 51.8315 168.491 51.8315C169.045 51.8315 169.562 51.6716 170.043 51.3516C170.524 50.9677 171.02 50.3598 171.53 49.5279C172.054 48.6321 172.637 47.4802 173.279 46.0725L173.41 52.1195C172.769 53.8472 172.113 55.255 171.442 56.3428C170.786 57.4306 170.145 58.2305 169.518 58.7424C168.906 59.1903 168.338 59.4143 167.813 59.4143C166.662 59.4143 165.809 58.1985 165.255 55.7669C164.716 53.2713 164.446 49.4959 164.446 44.4407V17.2772H166.37ZM174.896 17.2772V83.5064H172.994V17.2772H174.896Z" fill="#61A1F4"/>
<path d="M180.624 17.2772V83.5064H178.701V17.2772H180.624ZM187.817 44.4407V51.7355H180.45V44.4407H187.817ZM189.501 17.2772V83.5064H187.577V17.2772H189.501Z" fill="#61A1F4"/>
<path d="M198.704 16.0294C199.797 16.0294 200.723 16.6053 201.481 17.7571C202.253 18.9089 202.865 20.8286 203.317 23.5162C203.784 26.1397 204.119 29.6592 204.323 34.0744C204.541 38.4897 204.651 43.9288 204.651 50.3918C204.651 56.8547 204.541 62.2938 204.323 66.7091C204.119 71.1244 203.784 74.6758 203.317 77.3634C202.865 79.9869 202.253 81.8746 201.481 83.0264C200.723 84.1783 199.797 84.7542 198.704 84.7542C197.611 84.7542 196.678 84.1783 195.906 83.0264C195.148 81.8746 194.536 79.9869 194.069 77.3634C193.603 74.6758 193.26 71.1244 193.042 66.7091C192.838 62.2938 192.736 56.8547 192.736 50.3918C192.736 43.9288 192.838 38.4897 193.042 34.0744C193.26 29.6592 193.603 26.1397 194.069 23.5162C194.536 20.8286 195.148 18.9089 195.906 17.7571C196.678 16.6053 197.611 16.0294 198.704 16.0294ZM198.704 23.6121C197.713 23.6121 196.926 24.444 196.343 26.1077C195.775 27.7715 195.366 30.555 195.119 34.4584C194.885 38.2977 194.769 43.6089 194.769 50.3918C194.769 57.1107 194.885 62.4218 195.119 66.3252C195.366 70.2285 195.775 73.0121 196.343 74.6758C196.926 76.3395 197.713 77.1714 198.704 77.1714C199.695 77.1714 200.475 76.3395 201.043 74.6758C201.626 73.0121 202.035 70.2285 202.268 66.3252C202.515 62.4218 202.639 57.1107 202.639 50.3918C202.639 43.6089 202.515 38.2977 202.268 34.4584C202.035 30.555 201.626 27.7715 201.043 26.1077C200.475 24.444 199.695 23.6121 198.704 23.6121Z" fill="#61A1F4"/>
<path d="M209.831 17.2772V83.5064H207.908V17.2772H209.831ZM211.121 0C211.457 0 211.624 0.767876 211.624 2.30363V7.58277C211.624 9.11852 211.457 9.88639 211.121 9.88639H210.487C210.138 9.88639 209.963 9.11852 209.963 7.58277V2.30363C209.963 0.767876 210.138 0 210.487 0H211.121ZM207.252 0C207.587 0 207.755 0.767876 207.755 2.30363V7.58277C207.755 9.11852 207.587 9.88639 207.252 9.88639H206.618C206.268 9.88639 206.093 9.11852 206.093 7.58277V2.30363C206.093 0.767876 206.268 0 206.618 0H207.252Z" fill="#61A1F4"/>
<path d="M229.188 17.2772V83.5064H227.264V24.1881H224.16C223.62 24.1881 223.227 24.7 222.979 25.7238C222.746 26.7476 222.615 28.4753 222.586 30.907C222.527 35.2582 222.447 39.4176 222.345 43.3849C222.258 47.2883 222.141 51.0317 221.995 54.6151C221.849 58.1345 221.66 61.5579 221.427 64.8854C221.208 68.1489 220.939 71.3163 220.618 74.3878C220.312 77.4593 219.94 80.4988 219.503 83.5064H217.71C218.453 78.1952 219.029 72.5961 219.437 66.7091C219.845 60.7581 220.144 54.6791 220.334 48.4721C220.538 42.2011 220.676 35.9301 220.749 29.6592C220.778 25.7558 221.062 22.7163 221.602 20.5406C222.141 18.365 222.877 17.2772 223.81 17.2772H229.188ZM218.607 82.8345L218.41 98H217.076V82.8345H218.607ZM231.046 76.5955V83.5064H217.076V76.5955H231.046ZM231.046 82.8345V98H229.713L229.538 82.8345H231.046Z" fill="#61A1F4"/>
<path d="M238.97 16.0294C240.064 16.0294 240.989 16.6053 241.747 17.7571C242.519 18.9089 243.132 20.8286 243.583 23.5162C244.05 26.1397 244.385 29.6592 244.589 34.0744C244.808 38.4897 244.917 43.9288 244.917 50.3918C244.917 56.8547 244.808 62.2938 244.589 66.7091C244.385 71.1244 244.05 74.6758 243.583 77.3634C243.132 79.9869 242.519 81.8746 241.747 83.0264C240.989 84.1783 240.064 84.7542 238.97 84.7542C237.877 84.7542 236.945 84.1783 236.172 83.0264C235.414 81.8746 234.802 79.9869 234.336 77.3634C233.869 74.6758 233.527 71.1244 233.308 66.7091C233.104 62.2938 233.002 56.8547 233.002 50.3918C233.002 43.9288 233.104 38.4897 233.308 34.0744C233.527 29.6592 233.869 26.1397 234.336 23.5162C234.802 20.8286 235.414 18.9089 236.172 17.7571C236.945 16.6053 237.877 16.0294 238.97 16.0294ZM238.97 23.6121C237.979 23.6121 237.192 24.444 236.609 26.1077C236.041 27.7715 235.633 30.555 235.385 34.4584C235.152 38.2977 235.035 43.6089 235.035 50.3918C235.035 57.1107 235.152 62.4218 235.385 66.3252C235.633 70.2285 236.041 73.0121 236.609 74.6758C237.192 76.3395 237.979 77.1714 238.97 77.1714C239.962 77.1714 240.741 76.3395 241.31 74.6758C241.893 73.0121 242.301 70.2285 242.534 66.3252C242.782 62.4218 242.906 57.1107 242.906 50.3918C242.906 43.6089 242.782 38.2977 242.534 34.4584C242.301 30.555 241.893 27.7715 241.31 26.1077C240.741 24.444 239.962 23.6121 238.97 23.6121Z" fill="#61A1F4"/>
<path d="M257.444 17.2772L257.269 24.284H250.098V83.5064H248.174V17.2772C248.961 17.0852 249.741 16.9572 250.513 16.8932C251.3 16.7653 252.08 16.7013 252.852 16.7013C253.625 16.7013 254.39 16.7653 255.148 16.8932C255.921 16.9572 256.686 17.0852 257.444 17.2772ZM253.29 45.7845C254.543 45.7845 255.527 46.4244 256.241 47.7042C256.97 48.92 257.487 50.9357 257.793 53.7512C258.099 56.5668 258.253 60.4061 258.253 65.2693C258.253 69.5566 258.143 72.9801 257.925 75.5397C257.706 78.0353 257.378 79.9229 256.941 81.2027C256.504 82.4825 255.95 83.3144 255.279 83.6983C254.623 84.1463 253.851 84.3702 252.962 84.3702C252.423 84.3702 251.898 84.3382 251.388 84.2742C250.878 84.2102 250.36 84.1143 249.835 83.9863C249.325 83.8583 248.786 83.6983 248.218 83.5064L248.524 76.7875C248.844 76.8514 249.42 76.9154 250.251 76.9794C251.096 77.0434 252.109 77.0754 253.29 77.0754C254.091 77.0754 254.711 76.7555 255.148 76.1156C255.585 75.4757 255.884 74.2919 256.044 72.5641C256.219 70.7724 256.307 68.2129 256.307 64.8854C256.307 61.7499 256.227 59.2863 256.066 57.4946C255.921 55.7029 255.629 54.4231 255.192 53.6552C254.755 52.8234 254.121 52.4074 253.29 52.4074H248.502V45.7845H253.29Z" fill="#61A1F4"/>
<path d="M267.164 17.2772C267.339 17.2772 267.492 17.5011 267.624 17.9491C267.755 18.333 267.842 18.8769 267.886 19.5808L272.739 83.5064H270.75L266.836 29.1792C266.778 28.2834 266.713 27.3875 266.64 26.4917C266.581 25.5318 266.523 24.636 266.465 23.8041H265.853C265.794 24.636 265.736 25.5318 265.678 26.4917C265.619 27.3875 265.554 28.2834 265.481 29.1792L261.568 83.5064H259.578L264.432 19.5808C264.475 18.8769 264.563 18.333 264.694 17.9491C264.825 17.5011 264.978 17.2772 265.153 17.2772H267.164ZM269.963 55.4789V62.7737H262.311V55.4789H269.963Z" fill="#61A1F4"/>
<path d="M279.759 16.5093C280.998 16.5093 281.981 17.0212 282.71 18.0451C283.439 19.0049 283.964 20.7326 284.284 23.2282C284.62 25.7238 284.787 29.2432 284.787 33.7865C284.787 38.5217 284.583 42.1371 284.175 44.6327C283.781 47.1283 283.133 48.5681 282.229 48.952V49.3359C283.352 49.7839 284.131 51.5116 284.569 54.5191C285.02 57.5266 285.246 61.6859 285.246 66.9971C285.246 71.5403 285.086 75.0597 284.765 77.5553C284.445 80.0509 283.927 81.8106 283.213 82.8345C282.513 83.7943 281.588 84.2742 280.436 84.2742C279.577 84.2742 278.833 84.2422 278.207 84.1782C277.594 84.1782 277.026 84.1143 276.501 83.9863C275.977 83.8583 275.43 83.6983 274.862 83.5064L275.168 76.7875C275.488 76.8514 276.093 76.9154 276.982 76.9794C277.886 77.0434 278.935 77.0754 280.13 77.0754C280.932 77.0754 281.559 76.7875 282.011 76.2116C282.477 75.5717 282.805 74.4198 282.994 72.7561C283.198 71.0924 283.3 68.6928 283.3 65.5573C283.3 62.1019 283.198 59.4463 282.994 57.5906C282.79 55.7349 282.448 54.4231 281.967 53.6552C281.486 52.8874 280.83 52.4714 279.999 52.4074H275.146V45.9765H279.977C280.706 45.9125 281.282 45.5926 281.705 45.0166C282.142 44.3768 282.455 43.2569 282.645 41.6572C282.834 39.9935 282.929 37.6898 282.929 34.7463C282.929 31.7388 282.827 29.4352 282.623 27.8355C282.419 26.2357 282.076 25.1479 281.595 24.572C281.129 23.9961 280.488 23.7081 279.671 23.7081C278.957 23.7081 278.316 23.7081 277.747 23.7081C277.179 23.7081 276.676 23.7401 276.239 23.8041C275.816 23.8041 275.459 23.8681 275.168 23.9961L274.862 17.2772C275.372 17.0212 275.853 16.8612 276.304 16.7973C276.771 16.6693 277.274 16.6053 277.813 16.6053C278.367 16.5413 279.015 16.5093 279.759 16.5093ZM276.742 17.2772V83.5064H274.862V17.2772H276.742Z" fill="#61A1F4"/>
<path d="M298.563 17.2772C298.272 20.9246 297.995 24.316 297.732 27.4515C297.47 30.587 297.2 33.4025 296.923 35.8981C296.661 38.3937 296.37 40.5694 296.049 42.4251C295.743 44.2168 295.393 45.6565 295 46.7444C294.606 47.8322 294.147 48.5041 293.622 48.76V49.144C294.191 49.3999 294.686 50.0718 295.109 51.1596C295.531 52.2475 295.903 53.7832 296.224 55.7669C296.559 57.6866 296.865 60.0222 297.142 62.7737C297.434 65.4613 297.718 68.5648 297.995 72.0842C298.286 75.5397 298.607 79.347 298.957 83.5064H296.923C296.515 78.5152 296.151 74.0999 295.83 70.2605C295.51 66.4212 295.167 63.1897 294.803 60.5661C294.453 57.8785 294.045 55.8629 293.578 54.5191C293.112 53.1113 292.529 52.4074 291.829 52.4074V45.5926C292.485 45.5926 293.039 44.8887 293.491 43.4809C293.957 42.0091 294.366 39.9935 294.715 37.4339C295.065 34.8743 295.386 31.8988 295.677 28.5073C295.969 25.0519 296.275 21.3085 296.595 17.2772H298.563ZM290.321 17.2772V38.0098C290.321 39.9295 290.299 41.7852 290.255 43.5769C290.212 45.3686 290.146 47.1283 290.059 48.856C290.131 50.6477 290.19 52.4394 290.233 54.2311C290.292 56.0229 290.321 57.7506 290.321 59.4143V83.5064H288.419V17.2772H290.321ZM292.638 45.5926V52.4074H289.731V45.5926H292.638Z" fill="#61A1F4"/>
<path d="M312.831 17.2772V83.5064H310.972V35.2262C310.972 33.9465 310.98 32.6667 310.994 31.3869C311.009 30.1071 311.038 28.8593 311.082 27.6435H310.972C310.87 28.8593 310.747 30.1071 310.601 31.3869C310.455 32.6027 310.317 33.7545 310.185 34.8423L303.495 83.5064H301.528V17.2772H303.386V65.0774C303.386 66.4212 303.372 67.7649 303.342 69.1087C303.328 70.3885 303.306 71.6683 303.277 72.9481H303.364C303.481 71.7323 303.612 70.5165 303.758 69.3007C303.918 68.0849 304.071 66.9011 304.217 65.7493L310.841 17.2772H312.831Z" fill="#61A1F4"/>
<path d="M324.223 17.1812C325.272 17.1812 326.329 17.2132 327.393 17.2772C328.471 17.3412 329.499 17.5331 330.475 17.8531L330.388 24.38H324.857C324.346 24.38 323.967 24.9239 323.72 26.0118C323.487 27.0356 323.37 28.7633 323.37 31.1949V83.5064H321.468V29.6592C321.468 25.9478 321.723 22.9403 322.233 20.6366C322.758 18.333 323.421 17.1812 324.223 17.1812Z" fill="#61A1F4"/>
<path d="M341.156 17.2772V24.1881H336.521C335.53 24.1881 334.991 26.4277 334.903 30.907C334.787 36.538 334.685 41.4012 334.597 45.4966C334.51 49.5919 334.408 53.1753 334.291 56.2468C334.189 59.2543 334.065 61.9419 333.92 64.3095C333.774 66.6131 333.577 68.8528 333.329 71.0284C333.052 73.652 332.732 75.9236 332.367 77.8433C332.003 79.699 331.58 81.1387 331.099 82.1626C330.633 83.1224 330.108 83.6023 329.525 83.6023L329.35 77.0754C329.817 76.4355 330.225 75.5077 330.575 74.2919C330.939 73.0761 331.252 71.2204 331.515 68.7248C331.69 67.061 331.835 65.3973 331.952 63.7336C332.083 62.0699 332.192 60.2462 332.28 58.2625C332.382 56.2148 332.469 53.8792 332.542 51.2556C332.63 48.5681 332.71 45.4646 332.783 41.9451C332.856 38.3617 332.936 34.1704 333.023 29.3712C333.198 21.3085 334.197 17.2772 336.018 17.2772H341.156ZM341.462 17.2772V83.5064H339.538V17.2772H341.462Z" fill="#61A1F4"/>
<path d="M347.198 17.2772V83.5064H345.274V17.2772H347.198Z" fill="#61A1F4"/>
<path d="M350.996 83.5064V17.2772H352.92V83.5064H350.996ZM352.745 83.5064V76.5955H363.501V83.5064H352.745ZM359.719 83.5064V17.2772H361.643V83.5064H359.719ZM362.168 98L361.971 82.8345H363.501V98H362.168Z" fill="#61A1F4"/>
<path d="M377.415 17.2772V83.5064H375.557V35.2262C375.557 33.9465 375.564 32.6667 375.578 31.3869C375.593 30.1071 375.622 28.8593 375.666 27.6435H375.557C375.455 28.8593 375.331 30.1071 375.185 31.3869C375.039 32.6027 374.901 33.7545 374.77 34.8423L368.08 83.5064H366.112V17.2772H367.97V65.0774C367.97 66.4212 367.956 67.7649 367.927 69.1087C367.912 70.3885 367.89 71.6683 367.861 72.9481H367.948C368.065 71.7323 368.196 70.5165 368.342 69.3007C368.502 68.0849 368.655 66.9011 368.801 65.7493L375.425 17.2772H377.415Z" fill="#61A1F4"/>
<path d="M386.584 16.1254C387.226 16.1254 387.772 16.1894 388.224 16.3173C388.69 16.4453 389.113 16.6693 389.492 16.9892C389.885 17.2452 390.286 17.5971 390.694 18.0451L390.498 24.476C390.06 24.284 389.652 24.1241 389.273 23.9961C388.909 23.8681 388.515 23.7721 388.093 23.7081C387.67 23.6441 387.167 23.6121 386.584 23.6121C385.608 23.6121 384.835 24.444 384.267 26.1077C383.698 27.7715 383.29 30.555 383.042 34.4584C382.809 38.3617 382.693 43.6729 382.693 50.3918C382.693 57.1107 382.809 62.4218 383.042 66.3252C383.29 70.2285 383.698 73.0121 384.267 74.6758C384.835 76.3395 385.608 77.1714 386.584 77.1714C387.517 77.1714 388.297 77.1074 388.923 76.9794C389.565 76.7875 390.192 76.4995 390.804 76.1156L391 82.4505C390.374 83.2184 389.725 83.7623 389.055 84.0823C388.399 84.4662 387.575 84.6582 386.584 84.6582C385.141 84.6582 383.983 83.5704 383.108 81.3947C382.248 79.1551 381.621 75.5397 381.228 70.5485C380.849 65.5573 380.659 58.8384 380.659 50.3918C380.659 41.9451 380.849 35.2262 381.228 30.2351C381.621 25.2439 382.248 21.6605 383.108 19.4848C383.983 17.2452 385.141 16.1254 386.584 16.1254Z" fill="#61A1F4"/>
<path d="M396.473 17.1812C397.187 17.1812 397.909 17.1812 398.637 17.1812C399.381 17.1812 400.109 17.2452 400.824 17.3732C401.552 17.4372 402.252 17.5651 402.922 17.7571L402.835 24.38H396.779C396.327 24.38 395.999 24.8919 395.795 25.9158C395.591 26.8756 395.489 28.4753 395.489 30.715V70.0686C395.489 72.3082 395.591 73.9399 395.795 74.9638C395.999 75.9876 396.327 76.4995 396.779 76.4995H402.835L402.922 83.0264C402.252 83.2184 401.552 83.3464 400.824 83.4104C400.109 83.4744 399.381 83.5064 398.637 83.5064C397.909 83.5704 397.187 83.6023 396.473 83.6023C395.584 83.6023 394.877 82.5785 394.352 80.5308C393.828 78.4192 393.565 75.6037 393.565 72.0842V28.6993C393.565 25.1159 393.828 22.3004 394.352 20.2527C394.877 18.205 395.584 17.1812 396.473 17.1812ZM393.937 45.1126H401.982V51.9275H393.937V45.1126Z" fill="#61A1F4"/>
<path d="M416.621 17.2772V83.5064H414.697V24.1881H411.592C411.053 24.1881 410.66 24.7 410.412 25.7238C410.179 26.7476 410.047 28.4753 410.018 30.907C409.96 35.2582 409.88 39.4176 409.778 43.3849C409.69 47.2883 409.574 51.0317 409.428 54.6151C409.282 58.1345 409.093 61.5579 408.86 64.8854C408.641 68.1489 408.371 71.3163 408.051 74.3878C407.745 77.4593 407.373 80.4988 406.936 83.5064H405.143C405.886 78.1952 406.462 72.5961 406.87 66.7091C407.278 60.7581 407.577 54.6791 407.766 48.4721C407.97 42.2011 408.109 35.9301 408.182 29.6592C408.211 25.7558 408.495 22.7163 409.034 20.5406C409.574 18.365 410.31 17.2772 411.243 17.2772H416.621ZM406.039 82.8345L405.843 98H404.509V82.8345H406.039ZM418.479 76.5955V83.5064H404.509V76.5955H418.479ZM418.479 82.8345V98H417.145L416.971 82.8345H418.479Z" fill="#61A1F4"/>
<path d="M440.211 17.2772C440.736 17.2772 440.998 18.461 440.998 20.8286L441.632 83.5064H439.708L439.161 24.284H438.702L435.335 73.1401C435.219 75.0597 434.942 76.0196 434.505 76.0196H432.778C432.326 76.0196 432.034 75.0597 431.903 73.1401L428.536 24.284H428.099L427.574 83.5064H425.65L426.241 20.8286C426.27 18.461 426.539 17.2772 427.05 17.2772H429.236C429.644 17.2772 429.914 18.237 430.045 20.1567L432.865 60.5661C432.982 62.0379 433.076 63.5096 433.149 64.9814C433.237 66.4531 433.331 67.9569 433.433 69.4926H433.827C433.929 67.9569 434.024 66.4531 434.111 64.9814C434.199 63.5096 434.293 61.9739 434.395 60.3741L437.216 20.1567C437.332 18.237 437.609 17.2772 438.046 17.2772H440.211Z" fill="#61A1F4"/>
<path d="M451.032 17.2772C451.207 17.2772 451.36 17.5011 451.491 17.9491C451.622 18.333 451.709 18.8769 451.753 19.5808L456.607 83.5064H454.617L450.704 29.1792C450.645 28.2834 450.58 27.3875 450.507 26.4917C450.449 25.5318 450.39 24.636 450.332 23.8041H449.72C449.662 24.636 449.603 25.5318 449.545 26.4917C449.487 27.3875 449.421 28.2834 449.348 29.1792L445.435 83.5064H443.445L448.299 19.5808C448.343 18.8769 448.43 18.333 448.561 17.9491C448.692 17.5011 448.845 17.2772 449.02 17.2772H451.032ZM453.83 55.4789V62.7737H446.178V55.4789H453.83Z" fill="#61A1F4"/>
<path d="M468.873 17.2772C468.582 20.9246 468.305 24.316 468.042 27.4515C467.78 30.587 467.51 33.4025 467.233 35.8981C466.971 38.3937 466.68 40.5694 466.359 42.4251C466.053 44.2168 465.703 45.6565 465.31 46.7444C464.916 47.8322 464.457 48.5041 463.932 48.76V49.144C464.501 49.3999 464.996 50.0718 465.419 51.1596C465.841 52.2475 466.213 53.7832 466.534 55.7669C466.869 57.6866 467.175 60.0222 467.452 62.7737C467.744 65.4613 468.028 68.5648 468.305 72.0842C468.596 75.5397 468.917 79.347 469.267 83.5064H467.233C466.825 78.5152 466.461 74.0999 466.14 70.2605C465.82 66.4212 465.477 63.1897 465.113 60.5661C464.763 57.8785 464.355 55.8629 463.888 54.5191C463.422 53.1113 462.839 52.4074 462.139 52.4074V45.5926C462.795 45.5926 463.349 44.8887 463.801 43.4809C464.267 42.0091 464.675 39.9935 465.025 37.4339C465.375 34.8743 465.696 31.8988 465.987 28.5073C466.279 25.0519 466.585 21.3085 466.905 17.2772H468.873ZM460.631 17.2772V38.0098C460.631 39.9295 460.609 41.7852 460.565 43.5769C460.522 45.3686 460.456 47.1283 460.369 48.856C460.441 50.6477 460.5 52.4394 460.543 54.2311C460.602 56.0229 460.631 57.7506 460.631 59.4143V83.5064H458.729V17.2772H460.631ZM462.948 45.5926V52.4074H460.041V45.5926H462.948Z" fill="#61A1F4"/>
<path d="M477.002 16.1254C477.643 16.1254 478.19 16.1894 478.642 16.3173C479.108 16.4453 479.531 16.6693 479.91 16.9892C480.303 17.2452 480.704 17.5971 481.112 18.0451L480.915 24.476C480.478 24.284 480.07 24.1241 479.691 23.9961C479.327 23.8681 478.933 23.7721 478.511 23.7081C478.088 23.6441 477.585 23.6121 477.002 23.6121C476.026 23.6121 475.253 24.444 474.685 26.1077C474.116 27.7715 473.708 30.555 473.46 34.4584C473.227 38.3617 473.11 43.6729 473.11 50.3918C473.11 57.1107 473.227 62.4218 473.46 66.3252C473.708 70.2285 474.116 73.0121 474.685 74.6758C475.253 76.3395 476.026 77.1714 477.002 77.1714C477.935 77.1714 478.715 77.1074 479.341 76.9794C479.983 76.7875 480.609 76.4995 481.221 76.1156L481.418 82.4505C480.792 83.2184 480.143 83.7623 479.472 84.0823C478.817 84.4662 477.993 84.6582 477.002 84.6582C475.559 84.6582 474.4 83.5704 473.526 81.3947C472.666 79.1551 472.039 75.5397 471.646 70.5485C471.267 65.5573 471.077 58.8384 471.077 50.3918C471.077 41.9451 471.267 35.2262 471.646 30.2351C472.039 25.2439 472.666 21.6605 473.526 19.4848C474.4 17.2452 475.559 16.1254 477.002 16.1254Z" fill="#61A1F4"/>
<path d="M485.011 72.1802C485.273 72.1802 485.455 72.4042 485.557 72.8521C485.659 73.3 485.71 74.0999 485.71 75.2517V80.4349C485.71 81.5867 485.659 82.3865 485.557 82.8345C485.455 83.2824 485.273 83.5064 485.011 83.5064H484.398C484.151 83.5064 483.968 83.2824 483.852 82.8345C483.75 82.3865 483.699 81.5867 483.699 80.4349V75.2517C483.699 74.0999 483.75 73.3 483.852 72.8521C483.968 72.4042 484.151 72.1802 484.398 72.1802H485.011Z" fill="#61A1F4"/>
<path d="M495.902 17.2772V83.5064H493.978V17.2772H495.902ZM503.095 44.4407V51.7355H495.727V44.4407H503.095ZM504.778 17.2772V83.5064H502.854V17.2772H504.778Z" fill="#61A1F4"/>
<path d="M511.358 17.1812C512.072 17.1812 512.794 17.1812 513.522 17.1812C514.266 17.1812 514.994 17.2452 515.709 17.3732C516.437 17.4372 517.137 17.5651 517.807 17.7571L517.72 24.38H511.664C511.212 24.38 510.884 24.8919 510.68 25.9158C510.476 26.8756 510.374 28.4753 510.374 30.715V70.0686C510.374 72.3082 510.476 73.9399 510.68 74.9638C510.884 75.9876 511.212 76.4995 511.664 76.4995H517.72L517.807 83.0264C517.137 83.2184 516.437 83.3464 515.709 83.4104C514.994 83.4744 514.266 83.5064 513.522 83.5064C512.794 83.5704 512.072 83.6023 511.358 83.6023C510.469 83.6023 509.762 82.5785 509.237 80.5308C508.713 78.4192 508.45 75.6037 508.45 72.0842V28.6993C508.45 25.1159 508.713 22.3004 509.237 20.2527C509.762 18.205 510.469 17.1812 511.358 17.1812ZM508.822 45.1126H516.867V51.9275H508.822V45.1126Z" fill="#61A1F4"/>
<path d="M531.192 16.1254C531.834 16.1254 532.387 16.1894 532.854 16.3173C533.32 16.4453 533.75 16.6693 534.144 16.9892C534.537 17.2452 534.938 17.5971 535.346 18.0451L535.149 24.572C534.712 24.316 534.304 24.1561 533.925 24.0921C533.546 23.9641 533.138 23.8681 532.701 23.8041C532.278 23.7401 531.768 23.7081 531.17 23.7081C530.15 23.7081 529.341 24.54 528.744 26.2037C528.161 27.8674 527.738 30.651 527.476 34.5544C527.228 38.3937 527.104 43.6729 527.104 50.3918C527.104 57.1107 527.228 62.4218 527.476 66.3252C527.738 70.1645 528.161 72.9161 528.744 74.5798C529.341 76.2435 530.15 77.0754 531.17 77.0754C532.089 77.0754 532.854 77.0114 533.466 76.8834C534.078 76.6915 534.683 76.4035 535.281 76.0196L535.499 82.4505C534.872 83.2184 534.238 83.7623 533.597 84.0823C532.97 84.4662 532.169 84.6582 531.192 84.6582C529.706 84.6582 528.518 83.5704 527.629 81.3947C526.74 79.1551 526.098 75.5397 525.705 70.5485C525.311 65.5573 525.114 58.8384 525.114 50.3918C525.114 41.9451 525.311 35.2262 525.705 30.2351C526.098 25.2439 526.74 21.6605 527.629 19.4848C528.518 17.2452 529.706 16.1254 531.192 16.1254ZM525.727 45.0166L533.575 45.1126V51.6396L525.727 51.7355V45.0166Z" fill="#61A1F4"/>
<path d="M553.291 17.2772V24.1881H548.656C547.665 24.1881 547.126 26.4277 547.038 30.907C546.922 36.538 546.82 41.4012 546.732 45.4966C546.645 49.5919 546.543 53.1753 546.426 56.2468C546.324 59.2543 546.2 61.9419 546.055 64.3095C545.909 66.6131 545.712 68.8528 545.464 71.0284C545.187 73.652 544.867 75.9236 544.502 77.8433C544.138 79.699 543.715 81.1387 543.234 82.1626C542.768 83.1224 542.243 83.6023 541.66 83.6023L541.485 77.0754C541.952 76.4355 542.36 75.5077 542.71 74.2919C543.074 73.0761 543.387 71.2204 543.65 68.7248C543.824 67.061 543.97 65.3973 544.087 63.7336C544.218 62.0699 544.327 60.2462 544.415 58.2625C544.517 56.2148 544.604 53.8792 544.677 51.2556C544.765 48.5681 544.845 45.4646 544.918 41.9451C544.99 38.3617 545.071 34.1704 545.158 29.3712C545.333 21.3085 546.331 17.2772 548.153 17.2772H553.291ZM553.597 17.2772V83.5064H551.673V17.2772H553.597Z" fill="#61A1F4"/>
<path d="M559.333 17.2772V83.5064H557.409V17.2772H559.333Z" fill="#61A1F4"/>
<path d="M573.275 17.2772C572.984 20.9246 572.707 24.316 572.444 27.4515C572.182 30.587 571.912 33.4025 571.635 35.8981C571.373 38.3937 571.082 40.5694 570.761 42.4251C570.455 44.2168 570.105 45.6565 569.712 46.7444C569.318 47.8322 568.859 48.5041 568.334 48.76V49.144C568.903 49.3999 569.398 50.0718 569.821 51.1596C570.244 52.2475 570.615 53.7832 570.936 55.7669C571.271 57.6866 571.577 60.0222 571.854 62.7737C572.146 65.4613 572.43 68.5648 572.707 72.0842C572.998 75.5397 573.319 79.347 573.669 83.5064H571.635C571.227 78.5152 570.863 74.0999 570.542 70.2605C570.222 66.4212 569.879 63.1897 569.515 60.5661C569.165 57.8785 568.757 55.8629 568.291 54.5191C567.824 53.1113 567.241 52.4074 566.542 52.4074V45.5926C567.197 45.5926 567.751 44.8887 568.203 43.4809C568.669 42.0091 569.078 39.9935 569.427 37.4339C569.777 34.8743 570.098 31.8988 570.389 28.5073C570.681 25.0519 570.987 21.3085 571.308 17.2772H573.275ZM565.033 17.2772V38.0098C565.033 39.9295 565.011 41.7852 564.967 43.5769C564.924 45.3686 564.858 47.1283 564.771 48.856C564.844 50.6477 564.902 52.4394 564.946 54.2311C565.004 56.0229 565.033 57.7506 565.033 59.4143V83.5064H563.131V17.2772H565.033ZM567.35 45.5926V52.4074H564.443V45.5926H567.35Z" fill="#61A1F4"/>
<path d="M582.143 17.2772C582.318 17.2772 582.471 17.5011 582.602 17.9491C582.733 18.333 582.821 18.8769 582.864 19.5808L587.718 83.5064H585.728L581.815 29.1792C581.757 28.2834 581.691 27.3875 581.618 26.4917C581.56 25.5318 581.502 24.636 581.443 23.8041H580.831C580.773 24.636 580.714 25.5318 580.656 26.4917C580.598 27.3875 580.532 28.2834 580.459 29.1792L576.546 83.5064H574.557L579.41 19.5808C579.454 18.8769 579.541 18.333 579.672 17.9491C579.804 17.5011 579.957 17.2772 580.131 17.2772H582.143ZM584.941 55.4789V62.7737H577.289V55.4789H584.941Z" fill="#61A1F4"/>
<path d="M595.043 16.4133C596.253 16.4133 597.208 17.0212 597.907 18.237C598.607 19.4528 599.11 21.5645 599.416 24.572C599.722 27.5155 599.875 31.7068 599.875 37.1459C599.875 42.585 599.722 46.8084 599.416 49.8159C599.124 52.8234 598.636 54.935 597.951 56.1508C597.281 57.3026 596.377 57.8785 595.24 57.8785C594.628 57.8785 594.038 57.8146 593.469 57.6866C592.915 57.5586 592.405 57.3986 591.939 57.2067C591.472 56.9507 591.072 56.6947 590.736 56.4388C590.416 56.1828 590.19 55.9589 590.059 55.7669L590.124 50.5837C590.897 50.5837 591.698 50.5837 592.529 50.5837C593.36 50.5837 594.183 50.5837 595 50.5837C595.728 50.5197 596.304 50.1358 596.727 49.4319C597.164 48.6641 597.47 47.3203 597.645 45.4006C597.834 43.4169 597.929 40.6654 597.929 37.1459C597.929 33.5625 597.834 30.811 597.645 28.8913C597.47 26.9716 597.164 25.6278 596.727 24.8599C596.304 24.0921 595.728 23.7081 595 23.7081C593.804 23.7081 592.77 23.7401 591.895 23.8041C591.035 23.8681 590.452 23.9641 590.146 24.0921L589.84 17.2772C590.394 17.0212 590.911 16.8293 591.392 16.7013C591.873 16.5733 592.398 16.5093 592.966 16.5093C593.535 16.4453 594.227 16.4133 595.043 16.4133ZM591.764 17.2772V83.5064H589.84V17.2772H591.764Z" fill="#61A1F4"/>
<path d="M608.092 16.1254C608.733 16.1254 609.28 16.1894 609.732 16.3173C610.198 16.4453 610.621 16.6693 611 16.9892C611.393 17.2452 611.794 17.5971 612.202 18.0451L612.005 24.476C611.568 24.284 611.16 24.1241 610.781 23.9961C610.417 23.8681 610.023 23.7721 609.6 23.7081C609.178 23.6441 608.675 23.6121 608.092 23.6121C607.115 23.6121 606.343 24.444 605.774 26.1077C605.206 27.7715 604.798 30.555 604.55 34.4584C604.317 38.3617 604.2 43.6729 604.2 50.3918C604.2 57.1107 604.317 62.4218 604.55 66.3252C604.798 70.2285 605.206 73.0121 605.774 74.6758C606.343 76.3395 607.115 77.1714 608.092 77.1714C609.025 77.1714 609.804 77.1074 610.431 76.9794C611.072 76.7875 611.699 76.4995 612.311 76.1156L612.508 82.4505C611.881 83.2184 611.233 83.7623 610.562 84.0823C609.906 84.4662 609.083 84.6582 608.092 84.6582C606.649 84.6582 605.49 83.5704 604.616 81.3947C603.756 79.1551 603.129 75.5397 602.735 70.5485C602.357 65.5573 602.167 58.8384 602.167 50.3918C602.167 41.9451 602.357 35.2262 602.735 30.2351C603.129 25.2439 603.756 21.6605 604.616 19.4848C605.49 17.2452 606.649 16.1254 608.092 16.1254Z" fill="#61A1F4"/>
<path d="M620.32 43.9608C621.559 43.9608 622.535 44.6327 623.249 45.9765C623.978 47.2563 624.496 49.3679 624.802 52.3115C625.108 55.255 625.261 59.2543 625.261 64.3095C625.261 69.5566 625.1 73.62 624.78 76.4995C624.474 79.379 623.978 81.3947 623.293 82.5465C622.623 83.6983 621.726 84.2742 620.604 84.2742C619.773 84.2742 619.059 84.2422 618.461 84.1782C617.864 84.1782 617.317 84.1143 616.822 83.9863C616.326 83.8583 615.802 83.6983 615.248 83.5064L615.532 76.5955C615.867 76.6595 616.45 76.7235 617.281 76.7875C618.126 76.8514 619.139 76.8834 620.32 76.8834C621.121 76.8834 621.734 76.5635 622.156 75.9236C622.594 75.2197 622.9 73.9399 623.074 72.0842C623.249 70.2285 623.337 67.605 623.337 64.2135C623.337 61.014 623.257 58.4545 623.096 56.5348C622.936 54.6151 622.637 53.2393 622.2 52.4074C621.777 51.5116 621.151 51.0637 620.32 51.0637H615.51V43.9608H620.32ZM617.128 17.2772V83.5064H615.204V17.2772H617.128Z" fill="#61A1F4"/>
<path d="M638.329 17.2772C638.038 20.9246 637.761 24.316 637.498 27.4515C637.236 30.587 636.966 33.4025 636.689 35.8981C636.427 38.3937 636.135 40.5694 635.815 42.4251C635.509 44.2168 635.159 45.6565 634.765 46.7444C634.372 47.8322 633.913 48.5041 633.388 48.76V49.144C633.957 49.3999 634.452 50.0718 634.875 51.1596C635.297 52.2475 635.669 53.7832 635.99 55.7669C636.325 57.6866 636.631 60.0222 636.908 62.7737C637.199 65.4613 637.484 68.5648 637.761 72.0842C638.052 75.5397 638.373 79.347 638.723 83.5064H636.689C636.281 78.5152 635.917 74.0999 635.596 70.2605C635.276 66.4212 634.933 63.1897 634.569 60.5661C634.219 57.8785 633.811 55.8629 633.344 54.5191C632.878 53.1113 632.295 52.4074 631.595 52.4074V45.5926C632.251 45.5926 632.805 44.8887 633.257 43.4809C633.723 42.0091 634.131 39.9935 634.481 37.4339C634.831 34.8743 635.152 31.8988 635.443 28.5073C635.735 25.0519 636.041 21.3085 636.361 17.2772H638.329ZM630.087 17.2772V38.0098C630.087 39.9295 630.065 41.7852 630.021 43.5769C629.978 45.3686 629.912 47.1283 629.825 48.856C629.897 50.6477 629.956 52.4394 629.999 54.2311C630.058 56.0229 630.087 57.7506 630.087 59.4143V83.5064H628.185V17.2772H630.087ZM632.404 45.5926V52.4074H629.497V45.5926H632.404Z" fill="#61A1F4"/>
<path d="M652.597 17.2772V83.5064H650.738V35.2262C650.738 33.9465 650.746 32.6667 650.76 31.3869C650.775 30.1071 650.804 28.8593 650.848 27.6435H650.738C650.636 28.8593 650.513 30.1071 650.367 31.3869C650.221 32.6027 650.083 33.7545 649.951 34.8423L643.261 83.5064H641.294V17.2772H643.152V65.0774C643.152 66.4212 643.138 67.7649 643.108 69.1087C643.094 70.3885 643.072 71.6683 643.043 72.9481H643.13C643.247 71.7323 643.378 70.5165 643.524 69.3007C643.684 68.0849 643.837 66.9011 643.983 65.7493L650.607 17.2772H652.597Z" fill="#61A1F4"/>
<path d="M670.664 17.2772C671.189 17.2772 671.451 18.461 671.451 20.8286L672.085 83.5064H670.161L669.615 24.284H669.156L665.789 73.1401C665.672 75.0597 665.395 76.0196 664.958 76.0196H663.231C662.779 76.0196 662.487 75.0597 662.356 73.1401L658.99 24.284H658.552L658.028 83.5064H656.104L656.694 20.8286C656.723 18.461 656.993 17.2772 657.503 17.2772H659.689C660.097 17.2772 660.367 18.237 660.498 20.1567L663.318 60.5661C663.435 62.0379 663.53 63.5096 663.602 64.9814C663.69 66.4531 663.785 67.9569 663.887 69.4926H664.28C664.382 67.9569 664.477 66.4531 664.564 64.9814C664.652 63.5096 664.747 61.9739 664.849 60.3741L667.669 20.1567C667.786 18.237 668.062 17.2772 668.5 17.2772H670.664Z" fill="#61A1F4"/>
<path d="M683.861 16.5093C685.085 16.5093 686.054 17.0212 686.768 18.0451C687.497 19.0049 688.022 20.7326 688.342 23.2282C688.663 25.7238 688.823 29.2432 688.823 33.7865C688.823 38.5217 688.627 42.1371 688.233 44.6327C687.839 47.1283 687.191 48.5681 686.287 48.952V49.3359C687.41 49.7839 688.182 51.5116 688.605 54.5191C689.042 57.5266 689.261 61.6859 689.261 66.9971C689.261 71.5403 689.1 75.0597 688.78 77.5553C688.459 80.0509 687.949 81.8106 687.249 82.8345C686.564 83.7943 685.653 84.2742 684.516 84.2742C683.831 84.2742 683.19 84.2103 682.592 84.0823C681.995 83.9543 681.427 83.7303 680.887 83.4104C680.362 83.0904 679.852 82.6745 679.357 82.1626L679.51 76.0196C680.078 76.2755 680.763 76.5635 681.565 76.8834C682.381 77.1394 683.263 77.2674 684.21 77.2674C684.983 77.2674 685.588 76.9794 686.025 76.4035C686.477 75.7636 686.797 74.6118 686.987 72.9481C687.191 71.2204 687.293 68.7568 687.293 65.5573C687.293 62.1658 687.191 59.5423 686.987 57.6866C686.783 55.7669 686.44 54.4231 685.959 53.6552C685.493 52.8874 684.859 52.5034 684.057 52.5034H681.521V45.8805H684.057C684.771 45.8805 685.333 45.5606 685.741 44.9207C686.149 44.2808 686.44 43.1609 686.615 41.5612C686.805 39.9615 686.899 37.6898 686.899 34.7463C686.899 31.6748 686.797 29.3392 686.593 27.7395C686.404 26.0757 686.076 24.9559 685.609 24.38C685.158 23.7401 684.538 23.4202 683.751 23.4202C682.92 23.4202 682.177 23.5482 681.521 23.8041C680.88 24.0601 680.326 24.284 679.86 24.476L679.707 18.0451C680.377 17.5331 681.033 17.1492 681.674 16.8932C682.316 16.6373 683.044 16.5093 683.861 16.5093Z" fill="#61A1F4"/>
<path d="M698.373 17.2772C698.548 17.2772 698.701 17.5011 698.832 17.9491C698.963 18.333 699.051 18.8769 699.094 19.5808L703.948 83.5064H701.958L698.045 29.1792C697.987 28.2834 697.921 27.3875 697.848 26.4917C697.79 25.5318 697.732 24.636 697.673 23.8041H697.061C697.003 24.636 696.945 25.5318 696.886 26.4917C696.828 27.3875 696.762 28.2834 696.69 29.1792L692.776 83.5064H690.787L695.64 19.5808C695.684 18.8769 695.771 18.333 695.902 17.9491C696.034 17.5011 696.187 17.2772 696.362 17.2772H698.373ZM701.171 55.4789V62.7737H693.519V55.4789H701.171Z" fill="#61A1F4"/>
<path d="M711.341 16.1254C711.982 16.1254 712.529 16.1894 712.981 16.3173C713.447 16.4453 713.87 16.6693 714.249 16.9892C714.642 17.2452 715.043 17.5971 715.451 18.0451L715.254 24.476C714.817 24.284 714.409 24.1241 714.03 23.9961C713.666 23.8681 713.272 23.7721 712.85 23.7081C712.427 23.6441 711.924 23.6121 711.341 23.6121C710.365 23.6121 709.592 24.444 709.024 26.1077C708.455 27.7715 708.047 30.555 707.799 34.4584C707.566 38.3617 707.449 43.6729 707.449 50.3918C707.449 57.1107 707.566 62.4218 707.799 66.3252C708.047 70.2285 708.455 73.0121 709.024 74.6758C709.592 76.3395 710.365 77.1714 711.341 77.1714C712.274 77.1714 713.054 77.1074 713.68 76.9794C714.322 76.7875 714.948 76.4995 715.56 76.1156L715.757 82.4505C715.13 83.2184 714.482 83.7623 713.811 84.0823C713.156 84.4662 712.332 84.6582 711.341 84.6582C709.898 84.6582 708.739 83.5704 707.865 81.3947C707.005 79.1551 706.378 75.5397 705.985 70.5485C705.606 65.5573 705.416 58.8384 705.416 50.3918C705.416 41.9451 705.606 35.2262 705.985 30.2351C706.378 25.2439 707.005 21.6605 707.865 19.4848C708.739 17.2452 709.898 16.1254 711.341 16.1254Z" fill="#61A1F4"/>
<path d="M723.618 16.0294C724.711 16.0294 725.637 16.6053 726.395 17.7571C727.167 18.9089 727.779 20.8286 728.231 23.5162C728.698 26.1397 729.033 29.6592 729.237 34.0744C729.456 38.4897 729.565 43.9288 729.565 50.3918C729.565 56.8547 729.456 62.2938 729.237 66.7091C729.033 71.1244 728.698 74.6758 728.231 77.3634C727.779 79.9869 727.167 81.8746 726.395 83.0264C725.637 84.1783 724.711 84.7542 723.618 84.7542C722.525 84.7542 721.592 84.1783 720.82 83.0264C720.062 81.8746 719.45 79.9869 718.984 77.3634C718.517 74.6758 718.175 71.1244 717.956 66.7091C717.752 62.2938 717.65 56.8547 717.65 50.3918C717.65 43.9288 717.752 38.4897 717.956 34.0744C718.175 29.6592 718.517 26.1397 718.984 23.5162C719.45 20.8286 720.062 18.9089 720.82 17.7571C721.592 16.6053 722.525 16.0294 723.618 16.0294ZM723.618 23.6121C722.627 23.6121 721.84 24.444 721.257 26.1077C720.689 27.7715 720.281 30.555 720.033 34.4584C719.8 38.2977 719.683 43.6089 719.683 50.3918C719.683 57.1107 719.8 62.4218 720.033 66.3252C720.281 70.2285 720.689 73.0121 721.257 74.6758C721.84 76.3395 722.627 77.1714 723.618 77.1714C724.609 77.1714 725.389 76.3395 725.958 74.6758C726.541 73.0121 726.949 70.2285 727.182 66.3252C727.43 62.4218 727.554 57.1107 727.554 50.3918C727.554 43.6089 727.43 38.2977 727.182 34.4584C726.949 30.555 726.541 27.7715 725.958 26.1077C725.389 24.444 724.609 23.6121 723.618 23.6121Z" fill="#61A1F4"/>
<path d="M742.091 17.2772L741.917 24.284H734.746V83.5064H732.822V17.2772C733.609 17.0852 734.389 16.9572 735.161 16.8932C735.948 16.7653 736.728 16.7013 737.5 16.7013C738.273 16.7013 739.038 16.7653 739.796 16.8932C740.568 16.9572 741.334 17.0852 742.091 17.2772ZM737.938 45.7845C739.191 45.7845 740.175 46.4244 740.889 47.7042C741.618 48.92 742.135 50.9357 742.441 53.7512C742.747 56.5668 742.9 60.4061 742.9 65.2693C742.9 69.5566 742.791 72.9801 742.573 75.5397C742.354 78.0353 742.026 79.9229 741.589 81.2027C741.151 82.4825 740.598 83.3144 739.927 83.6983C739.271 84.1463 738.499 84.3702 737.61 84.3702C737.07 84.3702 736.546 84.3382 736.036 84.2742C735.525 84.2102 735.008 84.1143 734.483 83.9863C733.973 83.8583 733.434 83.6983 732.866 83.5064L733.172 76.7875C733.492 76.8514 734.068 76.9154 734.899 76.9794C735.744 77.0434 736.757 77.0754 737.938 77.0754C738.739 77.0754 739.359 76.7555 739.796 76.1156C740.233 75.4757 740.532 74.2919 740.692 72.5641C740.867 70.7724 740.955 68.2129 740.955 64.8854C740.955 61.7499 740.875 59.2863 740.714 57.4946C740.568 55.7029 740.277 54.4231 739.84 53.6552C739.402 52.8234 738.768 52.4074 737.938 52.4074H733.15V45.7845H737.938Z" fill="#61A1F4"/>
<path d="M751.309 16.0294C752.403 16.0294 753.328 16.6053 754.086 17.7571C754.858 18.9089 755.471 20.8286 755.922 23.5162C756.389 26.1397 756.724 29.6592 756.928 34.0744C757.147 38.4897 757.256 43.9288 757.256 50.3918C757.256 56.8547 757.147 62.2938 756.928 66.7091C756.724 71.1244 756.389 74.6758 755.922 77.3634C755.471 79.9869 754.858 81.8746 754.086 83.0264C753.328 84.1783 752.403 84.7542 751.309 84.7542C750.216 84.7542 749.284 84.1783 748.511 83.0264C747.753 81.8746 747.141 79.9869 746.675 77.3634C746.208 74.6758 745.866 71.1244 745.647 66.7091C745.443 62.2938 745.341 56.8547 745.341 50.3918C745.341 43.9288 745.443 38.4897 745.647 34.0744C745.866 29.6592 746.208 26.1397 746.675 23.5162C747.141 20.8286 747.753 18.9089 748.511 17.7571C749.284 16.6053 750.216 16.0294 751.309 16.0294ZM751.309 23.6121C750.318 23.6121 749.531 24.444 748.948 26.1077C748.38 27.7715 747.972 30.555 747.724 34.4584C747.491 38.2977 747.374 43.6089 747.374 50.3918C747.374 57.1107 747.491 62.4218 747.724 66.3252C747.972 70.2285 748.38 73.0121 748.948 74.6758C749.531 76.3395 750.318 77.1714 751.309 77.1714C752.301 77.1714 753.08 76.3395 753.649 74.6758C754.232 73.0121 754.64 70.2285 754.873 66.3252C755.121 62.4218 755.245 57.1107 755.245 50.3918C755.245 43.6089 755.121 38.2977 754.873 34.4584C754.64 30.555 754.232 27.7715 753.649 26.1077C753.08 24.444 752.301 23.6121 751.309 23.6121Z" fill="#61A1F4"/>
<path d="M774.767 17.2772C775.292 17.2772 775.554 18.461 775.554 20.8286L776.188 83.5064H774.264L773.718 24.284H773.259L769.892 73.1401C769.775 75.0597 769.498 76.0196 769.061 76.0196H767.334C766.882 76.0196 766.591 75.0597 766.46 73.1401L763.093 24.284H762.655L762.131 83.5064H760.207L760.797 20.8286C760.826 18.461 761.096 17.2772 761.606 17.2772H763.792C764.2 17.2772 764.47 18.237 764.601 20.1567L767.421 60.5661C767.538 62.0379 767.633 63.5096 767.706 64.9814C767.793 66.4531 767.888 67.9569 767.99 69.4926H768.383C768.485 67.9569 768.58 66.4531 768.668 64.9814C768.755 63.5096 768.85 61.9739 768.952 60.3741L771.772 20.1567C771.889 18.237 772.166 17.2772 772.603 17.2772H774.767Z" fill="#61A1F4"/>
<path d="M780.582 72.1802C780.844 72.1802 781.026 72.4042 781.128 72.8521C781.23 73.3 781.281 74.0999 781.281 75.2517V80.4349C781.281 81.5867 781.23 82.3865 781.128 82.8345C781.026 83.2824 780.844 83.5064 780.582 83.5064H779.969C779.722 83.5064 779.54 83.2824 779.423 82.8345C779.321 82.3865 779.27 81.5867 779.27 80.4349V75.2517C779.27 74.0999 779.321 73.3 779.423 72.8521C779.54 72.4042 779.722 72.1802 779.969 72.1802H780.582Z" fill="#61A1F4"/>
<path d="M791.473 17.2772V83.5064H789.549V17.2772H791.473ZM798.666 44.4407V51.7355H791.298V44.4407H798.666ZM800.349 17.2772V83.5064H798.425V17.2772H800.349Z" fill="#61A1F4"/>
<path d="M806.929 17.1812C807.643 17.1812 808.365 17.1812 809.094 17.1812C809.837 17.1812 810.566 17.2452 811.28 17.3732C812.008 17.4372 812.708 17.5651 813.379 17.7571L813.291 24.38H807.235C806.783 24.38 806.455 24.8919 806.251 25.9158C806.047 26.8756 805.945 28.4753 805.945 30.715V70.0686C805.945 72.3082 806.047 73.9399 806.251 74.9638C806.455 75.9876 806.783 76.4995 807.235 76.4995H813.291L813.379 83.0264C812.708 83.2184 812.008 83.3464 811.28 83.4104C810.566 83.4744 809.837 83.5064 809.094 83.5064C808.365 83.5704 807.643 83.6023 806.929 83.6023C806.04 83.6023 805.333 82.5785 804.808 80.5308C804.284 78.4192 804.021 75.6037 804.021 72.0842V28.6993C804.021 25.1159 804.284 22.3004 804.808 20.2527C805.333 18.205 806.04 17.1812 806.929 17.1812ZM804.393 45.1126H812.438V51.9275H804.393V45.1126Z" fill="#61A1F4"/>
<path d="M826.763 16.1254C827.405 16.1254 827.959 16.1894 828.425 16.3173C828.891 16.4453 829.321 16.6693 829.715 16.9892C830.108 17.2452 830.509 17.5971 830.917 18.0451L830.721 24.572C830.283 24.316 829.875 24.1561 829.496 24.0921C829.117 23.9641 828.709 23.8681 828.272 23.8041C827.849 23.7401 827.339 23.7081 826.742 23.7081C825.721 23.7081 824.912 24.54 824.315 26.2037C823.732 27.8674 823.309 30.651 823.047 34.5544C822.799 38.3937 822.675 43.6729 822.675 50.3918C822.675 57.1107 822.799 62.4218 823.047 66.3252C823.309 70.1645 823.732 72.9161 824.315 74.5798C824.912 76.2435 825.721 77.0754 826.742 77.0754C827.66 77.0754 828.425 77.0114 829.037 76.8834C829.649 76.6915 830.254 76.4035 830.852 76.0196L831.07 82.4505C830.444 83.2184 829.81 83.7623 829.168 84.0823C828.542 84.4662 827.74 84.6582 826.763 84.6582C825.277 84.6582 824.089 83.5704 823.2 81.3947C822.311 79.1551 821.669 75.5397 821.276 70.5485C820.882 65.5573 820.686 58.8384 820.686 50.3918C820.686 41.9451 820.882 35.2262 821.276 30.2351C821.669 25.2439 822.311 21.6605 823.2 19.4848C824.089 17.2452 825.277 16.1254 826.763 16.1254ZM821.298 45.0166L829.146 45.1126V51.6396L821.298 51.7355V45.0166Z" fill="#61A1F4"/>
<path d="M842.15 16.5093C843.375 16.5093 844.344 17.0212 845.058 18.0451C845.787 19.0049 846.312 20.7326 846.632 23.2282C846.953 25.7238 847.113 29.2432 847.113 33.7865C847.113 38.5217 846.916 42.1371 846.523 44.6327C846.129 47.1283 845.481 48.5681 844.577 48.952V49.3359C845.699 49.7839 846.472 51.5116 846.894 54.5191C847.332 57.5266 847.55 61.6859 847.55 66.9971C847.55 71.5403 847.39 75.0597 847.069 77.5553C846.749 80.0509 846.239 81.8106 845.539 82.8345C844.854 83.7943 843.943 84.2742 842.806 84.2742C842.121 84.2742 841.48 84.2103 840.882 84.0823C840.285 83.9543 839.716 83.7303 839.177 83.4104C838.652 83.0904 838.142 82.6745 837.647 82.1626L837.8 76.0196C838.368 76.2755 839.053 76.5635 839.855 76.8834C840.671 77.1394 841.553 77.2674 842.5 77.2674C843.273 77.2674 843.877 76.9794 844.315 76.4035C844.767 75.7636 845.087 74.6118 845.277 72.9481C845.481 71.2204 845.583 68.7568 845.583 65.5573C845.583 62.1658 845.481 59.5423 845.277 57.6866C845.073 55.7669 844.73 54.4231 844.249 53.6552C843.783 52.8874 843.149 52.5034 842.347 52.5034H839.811V45.8805H842.347C843.061 45.8805 843.622 45.5606 844.03 44.9207C844.439 44.2808 844.73 43.1609 844.905 41.5612C845.094 39.9615 845.189 37.6898 845.189 34.7463C845.189 31.6748 845.087 29.3392 844.883 27.7395C844.694 26.0757 844.366 24.9559 843.899 24.38C843.448 23.7401 842.828 23.4202 842.041 23.4202C841.21 23.4202 840.467 23.5482 839.811 23.8041C839.17 24.0601 838.616 24.284 838.149 24.476L837.996 18.0451C838.667 17.5331 839.323 17.1492 839.964 16.8932C840.605 16.6373 841.334 16.5093 842.15 16.5093Z" fill="#61A1F4"/>
<path d="M856.663 17.2772C856.838 17.2772 856.991 17.5011 857.122 17.9491C857.253 18.333 857.341 18.8769 857.384 19.5808L862.238 83.5064H860.248L856.335 29.1792C856.276 28.2834 856.211 27.3875 856.138 26.4917C856.08 25.5318 856.021 24.636 855.963 23.8041H855.351C855.293 24.636 855.234 25.5318 855.176 26.4917C855.118 27.3875 855.052 28.2834 854.979 29.1792L851.066 83.5064H849.076L853.93 19.5808C853.974 18.8769 854.061 18.333 854.192 17.9491C854.323 17.5011 854.477 17.2772 854.651 17.2772H856.663ZM859.461 55.4789V62.7737H851.809V55.4789H859.461Z" fill="#61A1F4"/>
<path d="M878.614 17.2772C879.139 17.2772 879.401 18.461 879.401 20.8286L880.035 83.5064H878.111L877.565 24.284H877.106L873.739 73.1401C873.622 75.0597 873.345 76.0196 872.908 76.0196H871.181C870.729 76.0196 870.438 75.0597 870.307 73.1401L866.94 24.284H866.503L865.978 83.5064H864.054L864.644 20.8286C864.673 18.461 864.943 17.2772 865.453 17.2772H867.639C868.047 17.2772 868.317 18.237 868.448 20.1567L871.268 60.5661C871.385 62.0379 871.48 63.5096 871.553 64.9814C871.64 66.4531 871.735 67.9569 871.837 69.4926H872.23C872.332 67.9569 872.427 66.4531 872.515 64.9814C872.602 63.5096 872.697 61.9739 872.799 60.3741L875.619 20.1567C875.736 18.237 876.013 17.2772 876.45 17.2772H878.614Z" fill="#61A1F4"/>
<path d="M885.456 17.2772V83.5064H883.532V17.2772H885.456Z" fill="#61A1F4"/>
<path d="M891.178 17.2772V83.5064H889.254V17.2772H891.178ZM898.371 44.4407V51.7355H891.003V44.4407H898.371ZM900.054 17.2772V83.5064H898.13V17.2772H900.054Z" fill="#61A1F4"/>
<path d="M909.258 16.0294C910.351 16.0294 911.276 16.6053 912.034 17.7571C912.807 18.9089 913.419 20.8286 913.871 23.5162C914.337 26.1397 914.672 29.6592 914.876 34.0744C915.095 38.4897 915.204 43.9288 915.204 50.3918C915.204 56.8547 915.095 62.2938 914.876 66.7091C914.672 71.1244 914.337 74.6758 913.871 77.3634C913.419 79.9869 912.807 81.8746 912.034 83.0264C911.276 84.1783 910.351 84.7542 909.258 84.7542C908.165 84.7542 907.232 84.1783 906.459 83.0264C905.701 81.8746 905.089 79.9869 904.623 77.3634C904.156 74.6758 903.814 71.1244 903.595 66.7091C903.391 62.2938 903.289 56.8547 903.289 50.3918C903.289 43.9288 903.391 38.4897 903.595 34.0744C903.814 29.6592 904.156 26.1397 904.623 23.5162C905.089 20.8286 905.701 18.9089 906.459 17.7571C907.232 16.6053 908.165 16.0294 909.258 16.0294ZM909.258 23.6121C908.267 23.6121 907.48 24.444 906.897 26.1077C906.328 27.7715 905.92 30.555 905.672 34.4584C905.439 38.2977 905.322 43.6089 905.322 50.3918C905.322 57.1107 905.439 62.4218 905.672 66.3252C905.92 70.2285 906.328 73.0121 906.897 74.6758C907.48 76.3395 908.267 77.1714 909.258 77.1714C910.249 77.1714 911.029 76.3395 911.597 74.6758C912.18 73.0121 912.588 70.2285 912.821 66.3252C913.069 62.4218 913.193 57.1107 913.193 50.3918C913.193 43.6089 913.069 38.2977 912.821 34.4584C912.588 30.555 912.18 27.7715 911.597 26.1077C911.029 24.444 910.249 23.6121 909.258 23.6121Z" fill="#61A1F4"/>
<path d="M929.48 16.0294C930.588 16.0294 931.52 16.6053 932.278 17.7571C933.036 18.9089 933.648 20.8286 934.115 23.5162C934.581 26.1397 934.916 29.6592 935.12 34.0744C935.339 38.4897 935.448 43.9288 935.448 50.3918C935.448 56.8547 935.339 62.2938 935.12 66.7091C934.916 71.1244 934.581 74.6758 934.115 77.3634C933.648 79.9869 933.036 81.8746 932.278 83.0264C931.52 84.1783 930.588 84.7542 929.48 84.7542C928.43 84.7542 927.541 84.1783 926.813 83.0264C926.099 81.8746 925.523 79.9869 925.085 77.3634C924.648 74.6758 924.328 71.1244 924.124 66.7091C923.919 62.2938 923.818 56.8547 923.818 50.3918C923.818 43.9288 923.919 38.4897 924.124 34.0744C924.328 29.6592 924.648 26.1397 925.085 23.5162C925.523 20.8286 926.099 18.9089 926.813 17.7571C927.541 16.6053 928.43 16.0294 929.48 16.0294ZM920.407 17.2772V83.5064H918.483V17.2772H920.407ZM924.736 45.6885V52.5034H920.232V45.6885H924.736ZM929.48 23.6121C928.532 23.6121 927.782 24.444 927.228 26.1077C926.689 27.7715 926.303 30.555 926.069 34.4584C925.836 38.2977 925.719 43.6089 925.719 50.3918C925.719 57.1107 925.836 62.4218 926.069 66.3252C926.303 70.2285 926.689 73.0121 927.228 74.6758C927.782 76.3395 928.532 77.1714 929.48 77.1714C930.471 77.1714 931.251 76.3395 931.819 74.6758C932.402 73.0121 932.818 70.2285 933.065 66.3252C933.313 62.4218 933.437 57.1107 933.437 50.3918C933.437 43.6089 933.313 38.2977 933.065 34.4584C932.818 30.555 932.402 27.7715 931.819 26.1077C931.251 24.444 930.471 23.6121 929.48 23.6121Z" fill="#61A1F4"/>
<path d="M945.514 17.2772V83.5064H943.59V17.2772H945.514ZM952.729 17.2772V24.1881H945.339V17.2772H952.729ZM954.412 17.2772V83.5064H952.488V17.2772H954.412Z" fill="#61A1F4"/>
<path d="M963.615 16.0294C964.708 16.0294 965.634 16.6053 966.392 17.7571C967.164 18.9089 967.776 20.8286 968.228 23.5162C968.694 26.1397 969.03 29.6592 969.234 34.0744C969.452 38.4897 969.562 43.9288 969.562 50.3918C969.562 56.8547 969.452 62.2938 969.234 66.7091C969.03 71.1244 968.694 74.6758 968.228 77.3634C967.776 79.9869 967.164 81.8746 966.392 83.0264C965.634 84.1783 964.708 84.7542 963.615 84.7542C962.522 84.7542 961.589 84.1783 960.817 83.0264C960.059 81.8746 959.447 79.9869 958.98 77.3634C958.514 74.6758 958.171 71.1244 957.953 66.7091C957.749 62.2938 957.647 56.8547 957.647 50.3918C957.647 43.9288 957.749 38.4897 957.953 34.0744C958.171 29.6592 958.514 26.1397 958.98 23.5162C959.447 20.8286 960.059 18.9089 960.817 17.7571C961.589 16.6053 962.522 16.0294 963.615 16.0294ZM963.615 23.6121C962.624 23.6121 961.837 24.444 961.254 26.1077C960.686 27.7715 960.277 30.555 960.03 34.4584C959.796 38.2977 959.68 43.6089 959.68 50.3918C959.68 57.1107 959.796 62.4218 960.03 66.3252C960.277 70.2285 960.686 73.0121 961.254 74.6758C961.837 76.3395 962.624 77.1714 963.615 77.1714C964.606 77.1714 965.386 76.3395 965.954 74.6758C966.537 73.0121 966.946 70.2285 967.179 66.3252C967.427 62.4218 967.55 57.1107 967.55 50.3918C967.55 43.6089 967.427 38.2977 967.179 34.4584C966.946 30.555 966.537 27.7715 965.954 26.1077C965.386 24.444 964.606 23.6121 963.615 23.6121Z" fill="#61A1F4"/>
<path d="M977.716 16.5093C978.955 16.5093 979.938 17.0212 980.667 18.0451C981.396 19.0049 981.921 20.7326 982.241 23.2282C982.577 25.7238 982.744 29.2432 982.744 33.7865C982.744 38.5217 982.54 42.1371 982.132 44.6327C981.738 47.1283 981.09 48.5681 980.186 48.952V49.3359C981.309 49.7839 982.088 51.5116 982.526 54.5191C982.977 57.5266 983.203 61.6859 983.203 66.9971C983.203 71.5403 983.043 75.0597 982.722 77.5553C982.402 80.0509 981.884 81.8106 981.17 82.8345C980.471 83.7943 979.545 84.2742 978.393 84.2742C977.534 84.2742 976.79 84.2422 976.164 84.1782C975.551 84.1782 974.983 84.1143 974.458 83.9863C973.934 83.8583 973.387 83.6983 972.819 83.5064L973.125 76.7875C973.445 76.8514 974.05 76.9154 974.939 76.9794C975.843 77.0434 976.892 77.0754 978.087 77.0754C978.889 77.0754 979.516 76.7875 979.968 76.2116C980.434 75.5717 980.762 74.4198 980.951 72.7561C981.155 71.0924 981.258 68.6928 981.258 65.5573C981.258 62.1019 981.155 59.4463 980.951 57.5906C980.747 55.7349 980.405 54.4231 979.924 53.6552C979.443 52.8874 978.787 52.4714 977.956 52.4074H973.103V45.9765H977.934C978.663 45.9125 979.239 45.5926 979.662 45.0166C980.099 44.3768 980.412 43.2569 980.602 41.6572C980.791 39.9935 980.886 37.6898 980.886 34.7463C980.886 31.7388 980.784 29.4352 980.58 27.8355C980.376 26.2357 980.033 25.1479 979.552 24.572C979.086 23.9961 978.445 23.7081 977.628 23.7081C976.914 23.7081 976.273 23.7081 975.704 23.7081C975.136 23.7081 974.633 23.7401 974.196 23.8041C973.773 23.8041 973.416 23.8681 973.125 23.9961L972.819 17.2772C973.329 17.0212 973.81 16.8612 974.261 16.7973C974.728 16.6693 975.231 16.6053 975.77 16.6053C976.324 16.5413 976.972 16.5093 977.716 16.5093ZM974.699 17.2772V83.5064H972.819V17.2772H974.699Z" fill="#61A1F4"/>
<path d="M988.3 17.2772V83.5064H986.376V17.2772H988.3ZM995.493 44.4407V51.7355H988.125V44.4407H995.493ZM997.176 17.2772V83.5064H995.252V17.2772H997.176Z" fill="#61A1F4"/>
<path d="M1006.38 16.0294C1007.47 16.0294 1008.4 16.6053 1009.16 17.7571C1009.93 18.9089 1010.54 20.8286 1010.99 23.5162C1011.46 26.1397 1011.79 29.6592 1012 34.0744C1012.22 38.4897 1012.33 43.9288 1012.33 50.3918C1012.33 56.8547 1012.22 62.2938 1012 66.7091C1011.79 71.1244 1011.46 74.6758 1010.99 77.3634C1010.54 79.9869 1009.93 81.8746 1009.16 83.0264C1008.4 84.1783 1007.47 84.7542 1006.38 84.7542C1005.29 84.7542 1004.35 84.1783 1003.58 83.0264C1002.82 81.8746 1002.21 79.9869 1001.74 77.3634C1001.28 74.6758 1000.94 71.1244 1000.72 66.7091C1000.51 62.2938 1000.41 56.8547 1000.41 50.3918C1000.41 43.9288 1000.51 38.4897 1000.72 34.0744C1000.94 29.6592 1001.28 26.1397 1001.74 23.5162C1002.21 20.8286 1002.82 18.9089 1003.58 17.7571C1004.35 16.6053 1005.29 16.0294 1006.38 16.0294ZM1006.38 23.6121C1005.39 23.6121 1004.6 24.444 1004.02 26.1077C1003.45 27.7715 1003.04 30.555 1002.79 34.4584C1002.56 38.2977 1002.44 43.6089 1002.44 50.3918C1002.44 57.1107 1002.56 62.4218 1002.79 66.3252C1003.04 70.2285 1003.45 73.0121 1004.02 74.6758C1004.6 76.3395 1005.39 77.1714 1006.38 77.1714C1007.37 77.1714 1008.15 76.3395 1008.72 74.6758C1009.3 73.0121 1009.71 70.2285 1009.94 66.3252C1010.19 62.4218 1010.31 57.1107 1010.31 50.3918C1010.31 43.6089 1010.19 38.2977 1009.94 34.4584C1009.71 30.555 1009.3 27.7715 1008.72 26.1077C1008.15 24.444 1007.37 23.6121 1006.38 23.6121Z" fill="#61A1F4"/>
<path d="M1015.58 83.5064V17.2772H1017.51V83.5064H1015.58ZM1017.33 83.5064V76.5955H1028.09V83.5064H1017.33ZM1024.31 83.5064V17.2772H1026.23V83.5064H1024.31ZM1026.75 98L1026.56 82.8345H1028.09V98H1026.75Z" fill="#61A1F4"/>
<path d="M1032.62 17.2772V83.5064H1030.7V17.2772H1032.62Z" fill="#61A1F4"/>
<path d="M1038.34 17.2772V83.5064H1036.42V17.2772H1038.34ZM1045.54 44.4407V51.7355H1038.17V44.4407H1045.54ZM1047.22 17.2772V83.5064H1045.3V17.2772H1047.22Z" fill="#61A1F4"/>
<path d="M1052.95 17.2772V83.5064H1051.02V17.2772H1052.95ZM1060.14 44.4407V51.7355H1052.77V44.4407H1060.14ZM1061.82 17.2772V83.5064H1059.9V17.2772H1061.82Z" fill="#61A1F4"/>
<path d="M1071.03 16.0294C1072.12 16.0294 1073.05 16.6053 1073.8 17.7571C1074.58 18.9089 1075.19 20.8286 1075.64 23.5162C1076.11 26.1397 1076.44 29.6592 1076.65 34.0744C1076.86 38.4897 1076.97 43.9288 1076.97 50.3918C1076.97 56.8547 1076.86 62.2938 1076.65 66.7091C1076.44 71.1244 1076.11 74.6758 1075.64 77.3634C1075.19 79.9869 1074.58 81.8746 1073.8 83.0264C1073.05 84.1783 1072.12 84.7542 1071.03 84.7542C1069.93 84.7542 1069 84.1783 1068.23 83.0264C1067.47 81.8746 1066.86 79.9869 1066.39 77.3634C1065.93 74.6758 1065.58 71.1244 1065.37 66.7091C1065.16 62.2938 1065.06 56.8547 1065.06 50.3918C1065.06 43.9288 1065.16 38.4897 1065.37 34.0744C1065.58 29.6592 1065.93 26.1397 1066.39 23.5162C1066.86 20.8286 1067.47 18.9089 1068.23 17.7571C1069 16.6053 1069.93 16.0294 1071.03 16.0294ZM1071.03 23.6121C1070.04 23.6121 1069.25 24.444 1068.67 26.1077C1068.1 27.7715 1067.69 30.555 1067.44 34.4584C1067.21 38.2977 1067.09 43.6089 1067.09 50.3918C1067.09 57.1107 1067.21 62.4218 1067.44 66.3252C1067.69 70.2285 1068.1 73.0121 1068.67 74.6758C1069.25 76.3395 1070.04 77.1714 1071.03 77.1714C1072.02 77.1714 1072.8 76.3395 1073.37 74.6758C1073.95 73.0121 1074.36 70.2285 1074.59 66.3252C1074.84 62.4218 1074.96 57.1107 1074.96 50.3918C1074.96 43.6089 1074.84 38.2977 1074.59 34.4584C1074.36 30.555 1073.95 27.7715 1073.37 26.1077C1072.8 24.444 1072.02 23.6121 1071.03 23.6121Z" fill="#61A1F4"/>
<path d="M1082.94 17.1812C1083.99 17.1812 1085.05 17.2132 1086.11 17.2772C1087.19 17.3412 1088.22 17.5331 1089.19 17.8531L1089.11 24.38H1083.58C1083.07 24.38 1082.69 24.9239 1082.44 26.0118C1082.21 27.0356 1082.09 28.7633 1082.09 31.1949V83.5064H1080.19V29.6592C1080.19 25.9478 1080.44 22.9403 1080.95 20.6366C1081.48 18.333 1082.14 17.1812 1082.94 17.1812Z" fill="#61A1F4"/>
<path d="M1096.63 16.0294C1097.72 16.0294 1098.65 16.6053 1099.4 17.7571C1100.18 18.9089 1100.79 20.8286 1101.24 23.5162C1101.71 26.1397 1102.04 29.6592 1102.25 34.0744C1102.46 38.4897 1102.57 43.9288 1102.57 50.3918C1102.57 56.8547 1102.46 62.2938 1102.25 66.7091C1102.04 71.1244 1101.71 74.6758 1101.24 77.3634C1100.79 79.9869 1100.18 81.8746 1099.4 83.0264C1098.65 84.1783 1097.72 84.7542 1096.63 84.7542C1095.53 84.7542 1094.6 84.1783 1093.83 83.0264C1093.07 81.8746 1092.46 79.9869 1091.99 77.3634C1091.53 74.6758 1091.18 71.1244 1090.96 66.7091C1090.76 62.2938 1090.66 56.8547 1090.66 50.3918C1090.66 43.9288 1090.76 38.4897 1090.96 34.0744C1091.18 29.6592 1091.53 26.1397 1091.99 23.5162C1092.46 20.8286 1093.07 18.9089 1093.83 17.7571C1094.6 16.6053 1095.53 16.0294 1096.63 16.0294ZM1096.63 23.6121C1095.64 23.6121 1094.85 24.444 1094.27 26.1077C1093.7 27.7715 1093.29 30.555 1093.04 34.4584C1092.81 38.2977 1092.69 43.6089 1092.69 50.3918C1092.69 57.1107 1092.81 62.4218 1093.04 66.3252C1093.29 70.2285 1093.7 73.0121 1094.27 74.6758C1094.85 76.3395 1095.64 77.1714 1096.63 77.1714C1097.62 77.1714 1098.4 76.3395 1098.97 74.6758C1099.55 73.0121 1099.96 70.2285 1100.19 66.3252C1100.44 62.4218 1100.56 57.1107 1100.56 50.3918C1100.56 43.6089 1100.44 38.2977 1100.19 34.4584C1099.96 30.555 1099.55 27.7715 1098.97 26.1077C1098.4 24.444 1097.62 23.6121 1096.63 23.6121Z" fill="#61A1F4"/>
<path d="M1115.9 16.4133C1117.11 16.4133 1118.07 17.0212 1118.77 18.237C1119.46 19.4528 1119.97 21.5645 1120.27 24.572C1120.58 27.5155 1120.73 31.7068 1120.73 37.1459C1120.73 42.585 1120.58 46.8084 1120.27 49.8159C1119.98 52.8234 1119.49 54.935 1118.81 56.1508C1118.14 57.3026 1117.23 57.8785 1116.1 57.8785C1115.49 57.8785 1114.9 57.8146 1114.33 57.6866C1113.77 57.5586 1113.26 57.3986 1112.8 57.2067C1112.33 56.9507 1111.93 56.6947 1111.59 56.4388C1111.27 56.1828 1111.05 55.9589 1110.92 55.7669L1110.98 50.5837C1111.75 50.5837 1112.56 50.5837 1113.39 50.5837C1114.22 50.5837 1115.04 50.5837 1115.86 50.5837C1116.59 50.5197 1117.16 50.1358 1117.58 49.4319C1118.02 48.6641 1118.33 47.3203 1118.5 45.4006C1118.69 43.4169 1118.79 40.6654 1118.79 37.1459C1118.79 33.5625 1118.69 30.811 1118.5 28.8913C1118.33 26.9716 1118.02 25.6278 1117.58 24.8599C1117.16 24.0921 1116.59 23.7081 1115.86 23.7081C1114.66 23.7081 1113.63 23.7401 1112.75 23.8041C1111.89 23.8681 1111.31 23.9641 1111 24.0921L1110.7 17.2772C1111.25 17.0212 1111.77 16.8293 1112.25 16.7013C1112.73 16.5733 1113.26 16.5093 1113.82 16.5093C1114.39 16.4453 1115.08 16.4133 1115.9 16.4133ZM1112.62 17.2772V83.5064H1110.7V17.2772H1112.62Z" fill="#61A1F4"/>
<path d="M1129.5 17.2772C1129.67 17.2772 1129.82 17.5011 1129.96 17.9491C1130.09 18.333 1130.17 18.8769 1130.22 19.5808L1135.07 83.5064H1133.08L1129.17 29.1792C1129.11 28.2834 1129.04 27.3875 1128.97 26.4917C1128.91 25.5318 1128.85 24.636 1128.8 23.8041H1128.18C1128.13 24.636 1128.07 25.5318 1128.01 26.4917C1127.95 27.3875 1127.89 28.2834 1127.81 29.1792L1123.9 83.5064H1121.91L1126.76 19.5808C1126.81 18.8769 1126.89 18.333 1127.03 17.9491C1127.16 17.5011 1127.31 17.2772 1127.48 17.2772H1129.5ZM1132.29 55.4789V62.7737H1124.64V55.4789H1132.29Z" fill="#61A1F4"/>
<path d="M1137.19 83.5064V17.2772H1139.12V83.5064H1137.19ZM1138.94 83.5064V76.5955H1149.7V83.5064H1138.94ZM1145.92 83.5064V17.2772H1147.84V83.5064H1145.92ZM1148.36 98L1148.17 82.8345H1149.7V98H1148.36Z" fill="#61A1F4"/>
<path d="M1154.23 17.2772V83.5064H1152.31V17.2772H1154.23Z" fill="#61A1F4"/>
<path d="M1163.43 16.0294C1164.52 16.0294 1165.45 16.6053 1166.21 17.7571C1166.98 18.9089 1167.59 20.8286 1168.04 23.5162C1168.51 26.1397 1168.85 29.6592 1169.05 34.0744C1169.27 38.4897 1169.38 43.9288 1169.38 50.3918C1169.38 56.8547 1169.27 62.2938 1169.05 66.7091C1168.85 71.1244 1168.51 74.6758 1168.04 77.3634C1167.59 79.9869 1166.98 81.8746 1166.21 83.0264C1165.45 84.1783 1164.52 84.7542 1163.43 84.7542C1162.34 84.7542 1161.41 84.1783 1160.63 83.0264C1159.87 81.8746 1159.26 79.9869 1158.8 77.3634C1158.33 74.6758 1157.99 71.1244 1157.77 66.7091C1157.56 62.2938 1157.46 56.8547 1157.46 50.3918C1157.46 43.9288 1157.56 38.4897 1157.77 34.0744C1157.99 29.6592 1158.33 26.1397 1158.8 23.5162C1159.26 20.8286 1159.87 18.9089 1160.63 17.7571C1161.41 16.6053 1162.34 16.0294 1163.43 16.0294ZM1163.43 23.6121C1162.44 23.6121 1161.65 24.444 1161.07 26.1077C1160.5 27.7715 1160.09 30.555 1159.85 34.4584C1159.61 38.2977 1159.5 43.6089 1159.5 50.3918C1159.5 57.1107 1159.61 62.4218 1159.85 66.3252C1160.09 70.2285 1160.5 73.0121 1161.07 74.6758C1161.65 76.3395 1162.44 77.1714 1163.43 77.1714C1164.42 77.1714 1165.2 76.3395 1165.77 74.6758C1166.35 73.0121 1166.76 70.2285 1166.99 66.3252C1167.24 62.4218 1167.37 57.1107 1167.37 50.3918C1167.37 43.6089 1167.24 38.2977 1166.99 34.4584C1166.76 30.555 1166.35 27.7715 1165.77 26.1077C1165.2 24.444 1164.42 23.6121 1163.43 23.6121Z" fill="#61A1F4"/>
<path d="M1174.56 17.2772V83.5064H1172.63V17.2772H1174.56ZM1181.75 44.4407V51.7355H1174.38V44.4407H1181.75ZM1183.43 17.2772V83.5064H1181.51V17.2772H1183.43Z" fill="#61A1F4"/>
<path d="M1197.38 17.2772L1193.32 67.189C1193.07 70.1325 1192.8 72.8521 1192.51 75.3477C1192.22 77.8433 1191.87 79.8909 1191.46 81.4907C1191.05 83.0904 1190.54 83.9863 1189.93 84.1782C1189.68 84.2422 1189.39 84.2103 1189.05 84.0823C1188.73 84.0183 1188.4 83.8583 1188.07 83.6023C1187.75 83.3464 1187.46 83.0904 1187.22 82.8345L1187.43 76.5955C1188.16 76.8514 1188.73 76.9794 1189.14 76.9794C1189.56 76.9794 1189.89 76.6915 1190.12 76.1156C1190.37 75.4757 1190.58 74.4518 1190.76 73.0441C1190.93 71.6363 1191.14 69.6846 1191.37 67.189L1191.87 61.5259L1192.09 58.5504L1195.41 17.2772H1197.38ZM1187.78 17.2772L1190.82 55.5749C1190.91 56.5988 1191.08 57.1107 1191.33 57.1107H1192.4L1192.68 64.2135H1190.8C1190.39 64.2135 1190.07 63.8616 1189.82 63.1577C1189.58 62.3898 1189.41 61.238 1189.29 59.7022L1185.79 17.2772H1187.78Z" fill="#61A1F4"/>
<path d="M1199.3 72.1802C1199.56 72.1802 1199.74 72.4042 1199.85 72.8521C1199.95 73.3 1200 74.0999 1200 75.2517V80.4349C1200 81.5867 1199.95 82.3865 1199.85 82.8345C1199.74 83.2824 1199.56 83.5064 1199.3 83.5064H1198.69C1198.44 83.5064 1198.26 83.2824 1198.14 82.8345C1198.04 82.3865 1197.99 81.5867 1197.99 80.4349V75.2517C1197.99 74.0999 1198.04 73.3 1198.14 72.8521C1198.26 72.4042 1198.44 72.1802 1198.69 72.1802H1199.3Z" fill="#61A1F4"/>
</svg>
