<svg preserveAspectRatio="none" width="328" height="76" viewBox="0 0 328 76" fill="none" xmlns="http://www.w3.org/2000/svg">
<path d="M2.37614 6.53183C2.92858 6.53183 3.36454 6.77375 3.68402 7.25759C4.0035 7.74143 4.23312 8.58178 4.3729 9.77865C4.51267 10.95 4.58256 12.618 4.58256 14.7826C4.58256 16.9471 4.51267 18.6278 4.3729 19.8247C4.23978 21.0215 4.01681 21.8619 3.70398 22.3457C3.39781 22.8041 2.98515 23.0333 2.46599 23.0333C2.18645 23.0333 1.91689 23.0078 1.65731 22.9569C1.40439 22.906 1.17143 22.8423 0.958443 22.7659C0.745456 22.6641 0.56242 22.5622 0.409335 22.4603C0.262906 22.3585 0.159741 22.2693 0.0998378 22.1929L0.129789 20.1303C0.48255 20.1303 0.848622 20.1303 1.22801 20.1303C1.60739 20.1303 1.98345 20.1303 2.35617 20.1303C2.68897 20.1048 2.95187 19.952 3.14489 19.6719C3.34457 19.3663 3.48434 18.8315 3.56421 18.0676C3.65074 17.2782 3.694 16.1832 3.694 14.7826C3.694 13.3565 3.65074 12.2615 3.56421 11.4976C3.48434 10.7336 3.34457 10.1988 3.14489 9.89324C2.95187 9.58766 2.68897 9.43487 2.35617 9.43487C1.81039 9.43487 1.33783 9.4476 0.938476 9.47307C0.54578 9.49853 0.279546 9.53673 0.139773 9.58766L0 6.87561C0.252923 6.77375 0.489205 6.69736 0.708849 6.64643C0.928492 6.5955 1.1681 6.57003 1.42768 6.57003C1.68726 6.54456 2.00341 6.53183 2.37614 6.53183ZM0.878573 6.87561V33.2321H0V6.87561H0.878573Z" fill="#61A1F4"/>
<path d="M7.15681 6.83741C7.48295 6.83741 7.81242 6.83741 8.14521 6.83741C8.48466 6.83741 8.81745 6.86288 9.14359 6.91381C9.47638 6.93928 9.79586 6.99021 10.102 7.0666L10.0621 9.70225H7.29659C7.09026 9.70225 6.9405 9.90597 6.84732 10.3134C6.75413 10.6954 6.70754 11.332 6.70754 12.2233V27.8844C6.70754 28.7757 6.75413 29.4251 6.84732 29.8325C6.9405 30.24 7.09026 30.4437 7.29659 30.4437H10.0621L10.102 33.0411C9.79586 33.1175 9.47638 33.1685 9.14359 33.1939C8.81745 33.2194 8.48466 33.2321 8.14521 33.2321C7.81242 33.2576 7.48295 33.2703 7.15681 33.2703C6.75081 33.2703 6.428 32.8629 6.18839 32.048C5.94878 31.2076 5.82897 30.0872 5.82897 28.6866V11.4212C5.82897 9.9951 5.94878 8.87463 6.18839 8.05975C6.428 7.24486 6.75081 6.83741 7.15681 6.83741ZM5.99869 17.953H9.67273V20.665H5.99869V17.953Z" fill="#61A1F4"/>
<path d="M16.108 6.87561C15.9749 8.32713 15.8484 9.67679 15.7286 10.9246C15.6088 12.1724 15.4857 13.2928 15.3592 14.286C15.2394 15.2791 15.1063 16.145 14.9598 16.8834C14.8201 17.5965 14.6603 18.1694 14.4806 18.6024C14.3009 19.0353 14.0913 19.3026 13.8516 19.4045V19.5573C14.1112 19.6592 14.3375 19.9265 14.5305 20.3595C14.7236 20.7924 14.8933 21.4035 15.0397 22.1929C15.1928 22.9569 15.3326 23.8864 15.459 24.9814C15.5922 26.0509 15.7219 27.286 15.8484 28.6866C15.9815 30.0617 16.1279 31.5769 16.2877 33.2321H15.3592C15.1728 31.2458 15.0064 29.4887 14.86 27.9608C14.7136 26.4329 14.5572 25.1469 14.3908 24.1028C14.231 23.0333 14.0447 22.2311 13.8317 21.6964C13.6187 21.1361 13.3525 20.856 13.033 20.856V18.144C13.3325 18.144 13.5854 17.8639 13.7917 17.3036C14.0047 16.7179 14.1911 15.9158 14.3508 14.8972C14.5106 13.8786 14.657 12.6944 14.7901 11.3448C14.9232 9.96964 15.063 8.47992 15.2094 6.87561H16.108ZM12.3441 6.87561V15.1263C12.3441 15.8903 12.3341 16.6288 12.3141 17.3418C12.2942 18.0548 12.2642 18.7551 12.2243 19.4427C12.2576 20.1557 12.2842 20.8688 12.3042 21.5818C12.3308 22.2948 12.3441 22.9824 12.3441 23.6445V33.2321H11.4755V6.87561H12.3441ZM13.4024 18.144V20.856H12.0745V18.144H13.4024Z" fill="#61A1F4"/>
<path d="M22.0844 6.87561V9.62586H19.9678C19.5152 9.62586 19.2689 10.5171 19.229 12.2997C19.1758 14.5406 19.1292 16.476 19.0892 18.1058C19.0493 19.7356 19.0027 21.1616 18.9495 22.3839C18.9029 23.5808 18.8463 24.6503 18.7797 25.5926C18.7132 26.5093 18.6233 27.4006 18.5102 28.2664C18.3837 29.3105 18.2373 30.2145 18.0709 30.9785C17.9045 31.7169 17.7115 32.2899 17.4918 32.6974C17.2788 33.0793 17.0392 33.2703 16.773 33.2703L16.6931 30.6729C16.9061 30.4182 17.0925 30.049 17.2522 29.5651C17.4186 29.0813 17.5617 28.3428 17.6815 27.3497C17.7614 26.6876 17.8279 26.0255 17.8812 25.3634C17.9411 24.7013 17.991 23.9755 18.0309 23.1861C18.0775 22.3712 18.1175 21.4417 18.1508 20.3976C18.1907 19.3281 18.2273 18.093 18.2606 16.6925C18.2939 15.2664 18.3305 13.5984 18.3704 11.6885C18.4503 8.47992 18.9062 6.87561 19.7382 6.87561H22.0844ZM22.2241 6.87561V33.2321H21.3456V6.87561H22.2241Z" fill="#61A1F4"/>
<path d="M26.6606 6.87561C26.7405 6.87561 26.8104 6.96474 26.8703 7.143C26.9302 7.29579 26.9701 7.51224 26.9901 7.79236L29.2065 33.2321H28.2979L26.5108 11.6121C26.4842 11.2556 26.4543 10.8991 26.421 10.5426C26.3944 10.1606 26.3677 9.80411 26.3411 9.47307H26.0616C26.035 9.80411 26.0083 10.1606 25.9817 10.5426C25.9551 10.8991 25.9251 11.2556 25.8919 11.6121L24.1048 33.2321H23.1962L25.4126 7.79236C25.4326 7.51224 25.4725 7.29579 25.5324 7.143C25.5923 6.96474 25.6622 6.87561 25.7421 6.87561H26.6606ZM27.9385 22.0784V24.9814H24.4442V22.0784H27.9385Z" fill="#61A1F4"/>
<path d="M36.685 6.87561C36.9246 6.87561 37.0444 7.34672 37.0444 8.28893L37.334 33.2321H36.4554L36.2058 9.66405H35.9961L34.4586 29.1068C34.4054 29.8707 34.2789 30.2527 34.0793 30.2527H33.2905C33.0842 30.2527 32.9511 29.8707 32.8912 29.1068L31.3537 9.66405H31.154L30.9144 33.2321H30.0358L30.3054 8.28893C30.3187 7.34672 30.4418 6.87561 30.6748 6.87561H31.6732C31.8595 6.87561 31.9827 7.25759 32.0426 8.02155L33.3305 24.1028C33.3837 24.6885 33.427 25.2742 33.4603 25.8599C33.5002 26.4456 33.5435 27.0441 33.5901 27.6552H33.7698C33.8164 27.0441 33.8596 26.4456 33.8996 25.8599C33.9395 25.2742 33.9828 24.6631 34.0293 24.0264L35.3172 8.02155C35.3705 7.25759 35.497 6.87561 35.6966 6.87561H36.685Z" fill="#61A1F4"/>
<path d="M41.6265 6.87561C41.7064 6.87561 41.7763 6.96474 41.8362 7.143C41.8961 7.29579 41.936 7.51224 41.956 7.79236L44.1724 33.2321H43.2639L41.4768 11.6121C41.4502 11.2556 41.4202 10.8991 41.3869 10.5426C41.3603 10.1606 41.3337 9.80411 41.3071 9.47307H41.0275C41.0009 9.80411 40.9743 10.1606 40.9476 10.5426C40.921 10.8991 40.8911 11.2556 40.8578 11.6121L39.0707 33.2321H38.1622L40.3786 7.79236C40.3985 7.51224 40.4385 7.29579 40.4984 7.143C40.5583 6.96474 40.6282 6.87561 40.708 6.87561H41.6265ZM42.9045 22.0784V24.9814H39.4101V22.0784H42.9045Z" fill="#61A1F4"/>
<path d="M52.2466 6.87561V33.2321H51.368V9.62586H49.9503C49.704 9.62586 49.5243 9.82958 49.4112 10.237C49.3047 10.6445 49.2448 11.332 49.2314 12.2997C49.2048 14.0313 49.1682 15.6866 49.1216 17.2654C49.0817 18.8188 49.0284 20.3085 48.9619 21.7346C48.8953 23.1352 48.8088 24.4976 48.7023 25.8217C48.6025 27.1205 48.4793 28.381 48.3329 29.6033C48.1931 30.8257 48.0234 32.0353 47.8237 33.2321H47.0051C47.3445 31.1185 47.6074 28.8903 47.7938 26.5475C47.9801 24.1792 48.1166 21.76 48.2031 19.2899C48.2963 16.7943 48.3595 14.2987 48.3928 11.8031C48.4061 10.2498 48.5359 9.04016 48.7822 8.17434C49.0284 7.30852 49.3646 6.87561 49.7905 6.87561H52.2466ZM47.4144 32.9647L47.3245 39H46.7155V32.9647H47.4144ZM53.0952 30.4819V33.2321H46.7155V30.4819H53.0952ZM53.0952 32.9647V39H52.4862L52.4063 32.9647H53.0952Z" fill="#61A1F4"/>
<path d="M55.1654 6.87561V33.2321H54.2868V6.87561H55.1654Z" fill="#61A1F4"/>
<path d="M59.4157 6.41724C59.7085 6.41724 59.9615 6.4427 60.1745 6.49363C60.3874 6.54457 60.5838 6.63369 60.7635 6.76102C60.9432 6.86288 61.1262 7.00294 61.3126 7.1812L61.2228 9.77865C61.0231 9.67679 60.8367 9.61312 60.6637 9.58766C60.4906 9.53673 60.3042 9.49853 60.1046 9.47307C59.9115 9.4476 59.6786 9.43487 59.4057 9.43487C58.9398 9.43487 58.5704 9.76592 58.2975 10.428C58.0313 11.0901 57.8383 12.1978 57.7184 13.7512C57.6053 15.2791 57.5487 17.38 57.5487 20.0539C57.5487 22.7277 57.6053 24.8413 57.7184 26.3947C57.8383 27.9226 58.0313 29.0176 58.2975 29.6797C58.5704 30.3418 58.9398 30.6729 59.4057 30.6729C59.825 30.6729 60.1745 30.6474 60.454 30.5965C60.7335 30.5201 61.0098 30.4055 61.2827 30.2527L61.3825 32.8119C61.0963 33.1175 60.8068 33.334 60.5139 33.4613C60.2277 33.6141 59.8616 33.6905 59.4157 33.6905C58.7368 33.6905 58.1943 33.2576 57.7883 32.3918C57.3823 31.5005 57.0895 30.0617 56.9098 28.0754C56.73 26.0891 56.6402 23.4153 56.6402 20.0539C56.6402 16.6925 56.73 14.0186 56.9098 12.0323C57.0895 10.046 57.3823 8.61998 57.7883 7.75416C58.1943 6.86288 58.7368 6.41724 59.4157 6.41724ZM56.9197 17.9148L60.5039 17.953V20.5504L56.9197 20.5886V17.9148Z" fill="#61A1F4"/>
<path d="M65.1279 6.87561V33.2321H64.2493V6.87561H65.1279ZM67.3543 6.87561V9.85504H62.0329V6.87561H67.3543Z" fill="#61A1F4"/>
<path d="M73.6246 6.87561V33.2321H72.776V14.0186C72.776 13.5093 72.7793 13 72.786 12.4907C72.7927 11.9814 72.806 11.4848 72.8259 11.001H72.776C72.7294 11.4848 72.6729 11.9814 72.6063 12.4907C72.5397 12.9745 72.4765 13.4329 72.4166 13.8658L69.3616 33.2321H68.463V6.87561H69.3116V25.8981C69.3116 26.4329 69.305 26.9677 69.2917 27.5024C69.285 28.0118 69.275 28.5211 69.2617 29.0304H69.3017C69.3549 28.5465 69.4148 28.0627 69.4814 27.5788C69.5546 27.095 69.6245 26.6239 69.691 26.1655L72.7161 6.87561H73.6246Z" fill="#61A1F4"/>
<path d="M75.9749 6.87561V16.998C75.9682 18.2713 76.0414 19.2008 76.1945 19.7865C76.3476 20.3467 76.5972 20.6268 76.9433 20.6268C77.1962 20.6268 77.4325 20.5632 77.6522 20.4358C77.8718 20.2831 78.0981 20.0411 78.3311 19.7101C78.5707 19.3536 78.8369 18.8952 79.1298 18.335L79.1897 20.7414C78.8968 21.429 78.5973 21.9892 78.2911 22.4221C77.9916 22.855 77.6988 23.1734 77.4125 23.3771C77.133 23.5553 76.8734 23.6445 76.6338 23.6445C76.108 23.6445 75.7186 23.1606 75.4657 22.1929C75.2194 21.1998 75.0963 19.6974 75.0963 17.6856V6.87561H75.9749ZM79.8686 6.87561V33.2321H79V6.87561H79.8686Z" fill="#61A1F4"/>
<path d="M82.4843 6.87561V33.2321H81.6057V6.87561H82.4843ZM85.769 17.6856V20.5886H82.4044V17.6856H85.769ZM86.5377 6.87561V33.2321H85.6592V6.87561H86.5377Z" fill="#61A1F4"/>
<path d="M90.7406 6.37904C91.2398 6.37904 91.6624 6.60823 92.0085 7.0666C92.3613 7.52498 92.6408 8.28893 92.8472 9.35847C93.0602 10.4025 93.2132 11.8031 93.3064 13.5602C93.4063 15.3173 93.4562 17.4819 93.4562 20.0539C93.4562 22.6259 93.4063 24.7904 93.3064 26.5475C93.2132 28.3046 93.0602 29.7179 92.8472 30.7875C92.6408 31.8315 92.3613 32.5828 92.0085 33.0411C91.6624 33.4995 91.2398 33.7287 90.7406 33.7287C90.2414 33.7287 89.8154 33.4995 89.4627 33.0411C89.1166 32.5828 88.837 31.8315 88.624 30.7875C88.411 29.7179 88.2546 28.3046 88.1548 26.5475C88.0616 24.7904 88.015 22.6259 88.015 20.0539C88.015 17.4819 88.0616 15.3173 88.1548 13.5602C88.2546 11.8031 88.411 10.4025 88.624 9.35847C88.837 8.28893 89.1166 7.52498 89.4627 7.0666C89.8154 6.60823 90.2414 6.37904 90.7406 6.37904ZM90.7406 9.39667C90.288 9.39667 89.9286 9.72772 89.6623 10.3898C89.4028 11.0519 89.2164 12.1596 89.1033 13.713C88.9968 15.2409 88.9435 17.3546 88.9435 20.0539C88.9435 22.7277 88.9968 24.8413 89.1033 26.3947C89.2164 27.9481 89.4028 29.0558 89.6623 29.7179C89.9286 30.38 90.288 30.7111 90.7406 30.7111C91.1932 30.7111 91.5493 30.38 91.8089 29.7179C92.0751 29.0558 92.2615 27.9481 92.3679 26.3947C92.4811 24.8413 92.5377 22.7277 92.5377 20.0539C92.5377 17.3546 92.4811 15.2409 92.3679 13.713C92.2615 12.1596 92.0751 11.0519 91.8089 10.3898C91.5493 9.72772 91.1932 9.39667 90.7406 9.39667Z" fill="#61A1F4"/>
<path d="M95.822 6.87561V33.2321H94.9435V6.87561H95.822ZM96.4111 0C96.5642 0 96.6407 0.305583 96.6407 0.91675V3.01763C96.6407 3.6288 96.5642 3.93438 96.4111 3.93438H96.1215C95.9618 3.93438 95.8819 3.6288 95.8819 3.01763V0.91675C95.8819 0.305583 95.9618 0 96.1215 0H96.4111ZM94.6439 0C94.797 0 94.8736 0.305583 94.8736 0.91675V3.01763C94.8736 3.6288 94.797 3.93438 94.6439 3.93438H94.3544C94.1947 3.93438 94.1148 3.6288 94.1148 3.01763V0.91675C94.1148 0.305583 94.1947 0 94.3544 0H94.6439Z" fill="#61A1F4"/>
<path d="M104.661 6.87561V33.2321H103.783V9.62586H102.365C102.119 9.62586 101.939 9.82958 101.826 10.237C101.72 10.6445 101.66 11.332 101.646 12.2997C101.62 14.0313 101.583 15.6866 101.537 17.2654C101.497 18.8188 101.443 20.3085 101.377 21.7346C101.31 23.1352 101.224 24.4976 101.117 25.8217C101.017 27.1205 100.894 28.381 100.748 29.6033C100.608 30.8257 100.438 32.0353 100.239 33.2321H99.4199C99.7594 31.1185 100.022 28.8903 100.209 26.5475C100.395 24.1792 100.531 21.76 100.618 19.2899C100.711 16.7943 100.774 14.2987 100.808 11.8031C100.821 10.2498 100.951 9.04016 101.197 8.17434C101.443 7.30852 101.779 6.87561 102.205 6.87561H104.661ZM99.8293 32.9647L99.7394 39H99.1304V32.9647H99.8293ZM105.51 30.4819V33.2321H99.1304V30.4819H105.51ZM105.51 32.9647V39H104.901L104.821 32.9647H105.51Z" fill="#61A1F4"/>
<path d="M109.129 6.37904C109.628 6.37904 110.051 6.60823 110.397 7.0666C110.749 7.52498 111.029 8.28893 111.235 9.35847C111.448 10.4025 111.601 11.8031 111.695 13.5602C111.794 15.3173 111.844 17.4819 111.844 20.0539C111.844 22.6259 111.794 24.7904 111.695 26.5475C111.601 28.3046 111.448 29.7179 111.235 30.7875C111.029 31.8315 110.749 32.5828 110.397 33.0411C110.051 33.4995 109.628 33.7287 109.129 33.7287C108.63 33.7287 108.204 33.4995 107.851 33.0411C107.505 32.5828 107.225 31.8315 107.012 30.7875C106.799 29.7179 106.643 28.3046 106.543 26.5475C106.45 24.7904 106.403 22.6259 106.403 20.0539C106.403 17.4819 106.45 15.3173 106.543 13.5602C106.643 11.8031 106.799 10.4025 107.012 9.35847C107.225 8.28893 107.505 7.52498 107.851 7.0666C108.204 6.60823 108.63 6.37904 109.129 6.37904ZM109.129 9.39667C108.676 9.39667 108.317 9.72772 108.05 10.3898C107.791 11.0519 107.605 12.1596 107.491 13.713C107.385 15.2409 107.332 17.3546 107.332 20.0539C107.332 22.7277 107.385 24.8413 107.491 26.3947C107.605 27.9481 107.791 29.0558 108.05 29.7179C108.317 30.38 108.676 30.7111 109.129 30.7111C109.581 30.7111 109.937 30.38 110.197 29.7179C110.463 29.0558 110.65 27.9481 110.756 26.3947C110.869 24.8413 110.926 22.7277 110.926 20.0539C110.926 17.3546 110.869 15.2409 110.756 13.713C110.65 12.1596 110.463 11.0519 110.197 10.3898C109.937 9.72772 109.581 9.39667 109.129 9.39667Z" fill="#61A1F4"/>
<path d="M117.565 6.87561L117.485 9.66405H114.21V33.2321H113.332V6.87561C113.691 6.79922 114.047 6.74829 114.4 6.72282C114.759 6.67189 115.115 6.64643 115.468 6.64643C115.821 6.64643 116.17 6.67189 116.516 6.72282C116.869 6.74829 117.219 6.79922 117.565 6.87561ZM115.668 18.2204C116.24 18.2204 116.689 18.475 117.016 18.9843C117.348 19.4682 117.585 20.2703 117.724 21.3908C117.864 22.5113 117.934 24.0392 117.934 25.9745C117.934 27.6807 117.884 29.0431 117.784 30.0617C117.684 31.0548 117.535 31.8061 117.335 32.3154C117.135 32.8247 116.882 33.1557 116.576 33.3085C116.277 33.4868 115.924 33.5759 115.518 33.5759C115.272 33.5759 115.032 33.5632 114.799 33.5377C114.566 33.5122 114.33 33.474 114.09 33.4231C113.857 33.3722 113.611 33.3085 113.352 33.2321L113.491 30.5583C113.638 30.5837 113.901 30.6092 114.28 30.6347C114.666 30.6601 115.129 30.6729 115.668 30.6729C116.034 30.6729 116.317 30.5455 116.516 30.2909C116.716 30.0362 116.853 29.5651 116.926 28.8776C117.006 28.1645 117.046 27.1459 117.046 25.8217C117.046 24.5739 117.009 23.5935 116.936 22.8805C116.869 22.1675 116.736 21.6582 116.536 21.3526C116.337 21.0215 116.047 20.856 115.668 20.856H113.481V18.2204H115.668Z" fill="#61A1F4"/>
<path d="M122.004 6.87561C122.084 6.87561 122.154 6.96474 122.213 7.143C122.273 7.29579 122.313 7.51224 122.333 7.79236L124.55 33.2321H123.641L121.854 11.6121C121.827 11.2556 121.797 10.8991 121.764 10.5426C121.738 10.1606 121.711 9.80411 121.684 9.47307H121.405C121.378 9.80411 121.352 10.1606 121.325 10.5426C121.298 10.8991 121.268 11.2556 121.235 11.6121L119.448 33.2321H118.539L120.756 7.79236C120.776 7.51224 120.816 7.29579 120.876 7.143C120.936 6.96474 121.005 6.87561 121.085 6.87561H122.004ZM123.282 22.0784V24.9814H119.787V22.0784H123.282Z" fill="#61A1F4"/>
<path d="M127.755 6.57003C128.321 6.57003 128.77 6.77375 129.103 7.1812C129.436 7.56317 129.675 8.25073 129.822 9.24388C129.975 10.237 130.051 11.6376 130.051 13.4456C130.051 15.3301 129.958 16.7689 129.772 17.762C129.592 18.7551 129.296 19.3281 128.883 19.4809V19.6337C129.396 19.8119 129.752 20.4995 129.952 21.6964C130.158 22.8932 130.261 24.5485 130.261 26.6621C130.261 28.4701 130.188 29.8707 130.041 30.8639C129.895 31.857 129.659 32.5573 129.333 32.9647C129.013 33.3467 128.59 33.5377 128.065 33.5377C127.672 33.5377 127.333 33.525 127.046 33.4995C126.767 33.4995 126.507 33.474 126.268 33.4231C126.028 33.3722 125.778 33.3085 125.519 33.2321L125.659 30.5583C125.805 30.5837 126.081 30.6092 126.487 30.6347C126.9 30.6601 127.379 30.6729 127.925 30.6729C128.291 30.6729 128.577 30.5583 128.783 30.3291C128.996 30.0744 129.146 29.6161 129.233 28.954C129.326 28.2919 129.373 27.3369 129.373 26.0891C129.373 24.714 129.326 23.6572 129.233 22.9187C129.14 22.1802 128.983 21.6582 128.764 21.3526C128.544 21.047 128.244 20.8815 127.865 20.856H125.649V18.2968H127.855C128.188 18.2713 128.451 18.144 128.644 17.9148C128.843 17.6601 128.986 17.2145 129.073 16.5779C129.16 15.9158 129.203 14.999 129.203 13.8276C129.203 12.6308 129.156 11.714 129.063 11.0774C128.97 10.4407 128.813 10.0078 128.594 9.77865C128.381 9.54946 128.088 9.43487 127.715 9.43487C127.389 9.43487 127.096 9.43487 126.837 9.43487C126.577 9.43487 126.347 9.4476 126.148 9.47307C125.955 9.47307 125.792 9.49853 125.659 9.54946L125.519 6.87561C125.752 6.77375 125.971 6.71009 126.178 6.68462C126.391 6.63369 126.62 6.60823 126.867 6.60823C127.12 6.58276 127.416 6.57003 127.755 6.57003ZM126.377 6.87561V33.2321H125.519V6.87561H126.377Z" fill="#61A1F4"/>
<path d="M136.342 6.87561C136.209 8.32713 136.083 9.67679 135.963 10.9246C135.843 12.1724 135.72 13.2928 135.594 14.286C135.474 15.2791 135.341 16.145 135.194 16.8834C135.054 17.5965 134.895 18.1694 134.715 18.6024C134.535 19.0353 134.326 19.3026 134.086 19.4045V19.5573C134.346 19.6592 134.572 19.9265 134.765 20.3595C134.958 20.7924 135.128 21.4035 135.274 22.1929C135.427 22.9569 135.567 23.8864 135.693 24.9814C135.827 26.0509 135.956 27.286 136.083 28.6866C136.216 30.0617 136.362 31.5769 136.522 33.2321H135.594C135.407 31.2458 135.241 29.4887 135.094 27.9608C134.948 26.4329 134.792 25.1469 134.625 24.1028C134.465 23.0333 134.279 22.2311 134.066 21.6964C133.853 21.1361 133.587 20.856 133.267 20.856V18.144C133.567 18.144 133.82 17.8639 134.026 17.3036C134.239 16.7179 134.425 15.9158 134.585 14.8972C134.745 13.8786 134.891 12.6944 135.025 11.3448C135.158 9.96964 135.297 8.47992 135.444 6.87561H136.342ZM132.578 6.87561V15.1263C132.578 15.8903 132.569 16.6288 132.549 17.3418C132.529 18.0548 132.499 18.7551 132.459 19.4427C132.492 20.1557 132.519 20.8688 132.539 21.5818C132.565 22.2948 132.578 22.9824 132.578 23.6445V33.2321H131.71V6.87561H132.578ZM133.637 18.144V20.856H132.309V18.144H133.637Z" fill="#61A1F4"/>
<path d="M142.858 6.87561V33.2321H142.009V14.0186C142.009 13.5093 142.013 13 142.019 12.4907C142.026 11.9814 142.039 11.4848 142.059 11.001H142.009C141.963 11.4848 141.906 11.9814 141.84 12.4907C141.773 12.9745 141.71 13.4329 141.65 13.8658L138.595 33.2321H137.696V6.87561H138.545V25.8981C138.545 26.4329 138.538 26.9677 138.525 27.5024C138.518 28.0118 138.508 28.5211 138.495 29.0304H138.535C138.588 28.5465 138.648 28.0627 138.715 27.5788C138.788 27.095 138.858 26.6239 138.924 26.1655L141.949 6.87561H142.858Z" fill="#61A1F4"/>
<path d="M148.06 6.83741C148.539 6.83741 149.022 6.85015 149.508 6.87561C150 6.90108 150.469 6.97747 150.915 7.1048L150.876 9.70225H148.35C148.117 9.70225 147.944 9.91871 147.83 10.3516C147.724 10.7591 147.671 11.4466 147.671 12.4143V33.2321H146.802V11.8031C146.802 10.3262 146.919 9.12929 147.152 8.21254C147.391 7.29579 147.694 6.83741 148.06 6.83741Z" fill="#61A1F4"/>
<path d="M155.793 6.87561V9.62586H153.676C153.224 9.62586 152.978 10.5171 152.938 12.2997C152.884 14.5406 152.838 16.476 152.798 18.1058C152.758 19.7356 152.711 21.1616 152.658 22.3839C152.611 23.5808 152.555 24.6503 152.488 25.5926C152.422 26.5093 152.332 27.4006 152.219 28.2664C152.092 29.3105 151.946 30.2145 151.779 30.9785C151.613 31.7169 151.42 32.2899 151.2 32.6974C150.987 33.0793 150.748 33.2703 150.482 33.2703L150.402 30.6729C150.615 30.4182 150.801 30.049 150.961 29.5651C151.127 29.0813 151.27 28.3428 151.39 27.3497C151.47 26.6876 151.537 26.0255 151.59 25.3634C151.65 24.7013 151.7 23.9755 151.74 23.1861C151.786 22.3712 151.826 21.4417 151.859 20.3976C151.899 19.3281 151.936 18.093 151.969 16.6925C152.002 15.2664 152.039 13.5984 152.079 11.6885C152.159 8.47992 152.615 6.87561 153.447 6.87561H155.793ZM155.933 6.87561V33.2321H155.054V6.87561H155.933Z" fill="#61A1F4"/>
<path d="M158.552 6.87561V33.2321H157.674V6.87561H158.552Z" fill="#61A1F4"/>
<path d="M160.287 33.2321V6.87561H161.165V33.2321H160.287ZM161.085 33.2321V30.4819H165.997V33.2321H161.085ZM164.27 33.2321V6.87561H165.149V33.2321H164.27ZM165.388 39L165.298 32.9647H165.997V39H165.388Z" fill="#61A1F4"/>
<path d="M172.351 6.87561V33.2321H171.502V14.0186C171.502 13.5093 171.506 13 171.512 12.4907C171.519 11.9814 171.532 11.4848 171.552 11.001H171.502C171.456 11.4848 171.399 11.9814 171.333 12.4907C171.266 12.9745 171.203 13.4329 171.143 13.8658L168.088 33.2321H167.189V6.87561H168.038V25.8981C168.038 26.4329 168.031 26.9677 168.018 27.5024C168.011 28.0118 168.001 28.5211 167.988 29.0304H168.028C168.081 28.5465 168.141 28.0627 168.208 27.5788C168.281 27.095 168.351 26.6239 168.417 26.1655L171.442 6.87561H172.351Z" fill="#61A1F4"/>
<path d="M176.538 6.41724C176.831 6.41724 177.081 6.4427 177.287 6.49363C177.5 6.54457 177.693 6.63369 177.866 6.76102C178.046 6.86288 178.229 7.00294 178.415 7.1812L178.325 9.74045C178.126 9.66406 177.939 9.60039 177.766 9.54946C177.6 9.49853 177.42 9.46033 177.227 9.43487C177.034 9.4094 176.805 9.39667 176.538 9.39667C176.092 9.39667 175.74 9.72772 175.48 10.3898C175.22 11.0519 175.034 12.1596 174.921 13.713C174.814 15.2664 174.761 17.38 174.761 20.0539C174.761 22.7277 174.814 24.8413 174.921 26.3947C175.034 27.9481 175.22 29.0558 175.48 29.7179C175.74 30.38 176.092 30.7111 176.538 30.7111C176.964 30.7111 177.32 30.6856 177.607 30.6347C177.899 30.5583 178.186 30.4437 178.465 30.2909L178.555 32.8119C178.269 33.1175 177.973 33.334 177.666 33.4613C177.367 33.6141 176.991 33.6905 176.538 33.6905C175.879 33.6905 175.35 33.2576 174.951 32.3918C174.558 31.5005 174.272 30.0617 174.092 28.0754C173.919 26.0891 173.833 23.4153 173.833 20.0539C173.833 16.6925 173.919 14.0186 174.092 12.0323C174.272 10.046 174.558 8.61998 174.951 7.75416C175.35 6.86288 175.879 6.41724 176.538 6.41724Z" fill="#61A1F4"/>
<path d="M181.054 6.83741C181.38 6.83741 181.71 6.83741 182.042 6.83741C182.382 6.83741 182.715 6.86288 183.041 6.91381C183.374 6.93928 183.693 6.99021 183.999 7.0666L183.959 9.70225H181.194C180.988 9.70225 180.838 9.90597 180.745 10.3134C180.651 10.6954 180.605 11.332 180.605 12.2233V27.8844C180.605 28.7757 180.651 29.4251 180.745 29.8325C180.838 30.24 180.988 30.4437 181.194 30.4437H183.959L183.999 33.0411C183.693 33.1175 183.374 33.1685 183.041 33.1939C182.715 33.2194 182.382 33.2321 182.042 33.2321C181.71 33.2576 181.38 33.2703 181.054 33.2703C180.648 33.2703 180.325 32.8629 180.086 32.048C179.846 31.2076 179.726 30.0872 179.726 28.6866V11.4212C179.726 9.9951 179.846 8.87463 180.086 8.05975C180.325 7.24486 180.648 6.83741 181.054 6.83741ZM179.896 17.953H183.57V20.665H179.896V17.953Z" fill="#61A1F4"/>
<path d="M190.255 6.87561V33.2321H189.376V9.62586H187.959C187.712 9.62586 187.533 9.82958 187.419 10.237C187.313 10.6445 187.253 11.332 187.24 12.2997C187.213 14.0313 187.176 15.6866 187.13 17.2654C187.09 18.8188 187.037 20.3085 186.97 21.7346C186.904 23.1352 186.817 24.4976 186.711 25.8217C186.611 27.1205 186.488 28.381 186.341 29.6033C186.201 30.8257 186.032 32.0353 185.832 33.2321H185.013C185.353 31.1185 185.616 28.8903 185.802 26.5475C185.988 24.1792 186.125 21.76 186.211 19.2899C186.305 16.7943 186.368 14.2987 186.401 11.8031C186.414 10.2498 186.544 9.04016 186.79 8.17434C187.037 7.30852 187.373 6.87561 187.799 6.87561H190.255ZM185.423 32.9647L185.333 39H184.724V32.9647H185.423ZM191.103 30.4819V33.2321H184.724V30.4819H191.103ZM191.103 32.9647V39H190.494L190.415 32.9647H191.103Z" fill="#61A1F4"/>
<path d="M192.704 28.7248C192.824 28.7248 192.907 28.8139 192.954 28.9922C193.001 29.1704 193.024 29.4887 193.024 29.9471V32.0098C193.024 32.4682 193.001 32.7865 192.954 32.9647C192.907 33.143 192.824 33.2321 192.704 33.2321H192.425C192.312 33.2321 192.229 33.143 192.175 32.9647C192.129 32.7865 192.105 32.4682 192.105 32.0098V29.9471C192.105 29.4887 192.129 29.1704 192.175 28.9922C192.229 28.8139 192.312 28.7248 192.425 28.7248H192.704Z" fill="#61A1F4"/>
<path d="M197.678 6.87561V33.2321H196.8V6.87561H197.678ZM200.963 17.6856V20.5886H197.598V17.6856H200.963ZM201.731 6.87561V33.2321H200.853V6.87561H201.731Z" fill="#61A1F4"/>
<path d="M204.736 6.83741C205.062 6.83741 205.392 6.83741 205.725 6.83741C206.064 6.83741 206.397 6.86288 206.723 6.91381C207.056 6.93928 207.375 6.99021 207.682 7.0666L207.642 9.70225H204.876C204.67 9.70225 204.52 9.90597 204.427 10.3134C204.334 10.6954 204.287 11.332 204.287 12.2233V27.8844C204.287 28.7757 204.334 29.4251 204.427 29.8325C204.52 30.24 204.67 30.4437 204.876 30.4437H207.642L207.682 33.0411C207.375 33.1175 207.056 33.1685 206.723 33.1939C206.397 33.2194 206.064 33.2321 205.725 33.2321C205.392 33.2576 205.062 33.2703 204.736 33.2703C204.33 33.2703 204.007 32.8629 203.768 32.048C203.528 31.2076 203.408 30.0872 203.408 28.6866V11.4212C203.408 9.9951 203.528 8.87463 203.768 8.05975C204.007 7.24486 204.33 6.83741 204.736 6.83741ZM203.578 17.953H207.252V20.665H203.578V17.953Z" fill="#61A1F4"/>
<path d="M213.794 6.41724C214.087 6.41724 214.34 6.4427 214.553 6.49363C214.766 6.54457 214.962 6.63369 215.142 6.76102C215.321 6.86288 215.504 7.00294 215.691 7.1812L215.601 9.77865C215.401 9.67679 215.215 9.61312 215.042 9.58766C214.869 9.53673 214.682 9.49853 214.483 9.47307C214.29 9.4476 214.057 9.43487 213.784 9.43487C213.318 9.43487 212.949 9.76592 212.676 10.428C212.409 11.0901 212.216 12.1978 212.097 13.7512C211.983 15.2791 211.927 17.38 211.927 20.0539C211.927 22.7277 211.983 24.8413 212.097 26.3947C212.216 27.9226 212.409 29.0176 212.676 29.6797C212.949 30.3418 213.318 30.6729 213.784 30.6729C214.203 30.6729 214.553 30.6474 214.832 30.5965C215.112 30.5201 215.388 30.4055 215.661 30.2527L215.761 32.8119C215.474 33.1175 215.185 33.334 214.892 33.4613C214.606 33.6141 214.24 33.6905 213.794 33.6905C213.115 33.6905 212.573 33.2576 212.167 32.3918C211.76 31.5005 211.468 30.0617 211.288 28.0754C211.108 26.0891 211.018 23.4153 211.018 20.0539C211.018 16.6925 211.108 14.0186 211.288 12.0323C211.468 10.046 211.76 8.61998 212.167 7.75416C212.573 6.86288 213.115 6.41724 213.794 6.41724ZM211.298 17.9148L214.882 17.953V20.5504L211.298 20.5886V17.9148Z" fill="#61A1F4"/>
<path d="M223.886 6.87561V9.62586H221.769C221.316 9.62586 221.07 10.5171 221.03 12.2997C220.977 14.5406 220.93 16.476 220.89 18.1058C220.85 19.7356 220.804 21.1616 220.751 22.3839C220.704 23.5808 220.647 24.6503 220.581 25.5926C220.514 26.5093 220.424 27.4006 220.311 28.2664C220.185 29.3105 220.038 30.2145 219.872 30.9785C219.706 31.7169 219.513 32.2899 219.293 32.6974C219.08 33.0793 218.84 33.2703 218.574 33.2703L218.494 30.6729C218.707 30.4182 218.894 30.049 219.053 29.5651C219.22 29.0813 219.363 28.3428 219.483 27.3497C219.563 26.6876 219.629 26.0255 219.682 25.3634C219.742 24.7013 219.792 23.9755 219.832 23.1861C219.879 22.3712 219.919 21.4417 219.952 20.3976C219.992 19.3281 220.028 18.093 220.062 16.6925C220.095 15.2664 220.132 13.5984 220.172 11.6885C220.251 8.47992 220.707 6.87561 221.539 6.87561H223.886ZM224.025 6.87561V33.2321H223.147V6.87561H224.025Z" fill="#61A1F4"/>
<path d="M226.645 6.87561V33.2321H225.766V6.87561H226.645Z" fill="#61A1F4"/>
<path d="M233.012 6.87561C232.878 8.32713 232.752 9.67679 232.632 10.9246C232.512 12.1724 232.389 13.2928 232.263 14.286C232.143 15.2791 232.01 16.145 231.863 16.8834C231.724 17.5965 231.564 18.1694 231.384 18.6024C231.204 19.0353 230.995 19.3026 230.755 19.4045V19.5573C231.015 19.6592 231.241 19.9265 231.434 20.3595C231.627 20.7924 231.797 21.4035 231.943 22.1929C232.096 22.9569 232.236 23.8864 232.363 24.9814C232.496 26.0509 232.626 27.286 232.752 28.6866C232.885 30.0617 233.032 31.5769 233.191 33.2321H232.263C232.076 31.2458 231.91 29.4887 231.764 27.9608C231.617 26.4329 231.461 25.1469 231.294 24.1028C231.135 23.0333 230.948 22.2311 230.735 21.6964C230.522 21.1361 230.256 20.856 229.937 20.856V18.144C230.236 18.144 230.489 17.8639 230.695 17.3036C230.908 16.7179 231.095 15.9158 231.254 14.8972C231.414 13.8786 231.561 12.6944 231.694 11.3448C231.827 9.96964 231.967 8.47992 232.113 6.87561H233.012ZM229.248 6.87561V15.1263C229.248 15.8903 229.238 16.6288 229.218 17.3418C229.198 18.0548 229.168 18.7551 229.128 19.4427C229.161 20.1557 229.188 20.8688 229.208 21.5818C229.234 22.2948 229.248 22.9824 229.248 23.6445V33.2321H228.379V6.87561H229.248ZM230.306 18.144V20.856H228.978V18.144H230.306Z" fill="#61A1F4"/>
<path d="M237.061 6.87561C237.141 6.87561 237.211 6.96474 237.271 7.143C237.331 7.29579 237.371 7.51224 237.391 7.79236L239.607 33.2321H238.698L236.911 11.6121C236.885 11.2556 236.855 10.8991 236.821 10.5426C236.795 10.1606 236.768 9.80411 236.742 9.47307H236.462C236.435 9.80411 236.409 10.1606 236.382 10.5426C236.356 10.8991 236.326 11.2556 236.292 11.6121L234.505 33.2321H233.597L235.813 7.79236C235.833 7.51224 235.873 7.29579 235.933 7.143C235.993 6.96474 236.063 6.87561 236.143 6.87561H237.061ZM238.339 22.0784V24.9814H234.845V22.0784H238.339Z" fill="#61A1F4"/>
<path d="M242.952 6.53183C243.505 6.53183 243.941 6.77375 244.26 7.25759C244.58 7.74143 244.809 8.58178 244.949 9.77865C245.089 10.95 245.159 12.618 245.159 14.7826C245.159 16.9471 245.089 18.6278 244.949 19.8247C244.816 21.0215 244.593 21.8619 244.28 22.3457C243.974 22.8041 243.561 23.0333 243.042 23.0333C242.763 23.0333 242.493 23.0078 242.233 22.9569C241.98 22.906 241.747 22.8423 241.535 22.7659C241.322 22.6641 241.138 22.5622 240.985 22.4603C240.839 22.3585 240.736 22.2693 240.676 22.1929L240.706 20.1303C241.059 20.1303 241.425 20.1303 241.804 20.1303C242.183 20.1303 242.56 20.1303 242.932 20.1303C243.265 20.1048 243.528 19.952 243.721 19.6719C243.921 19.3663 244.06 18.8315 244.14 18.0676C244.227 17.2782 244.27 16.1832 244.27 14.7826C244.27 13.3565 244.227 12.2615 244.14 11.4976C244.06 10.7336 243.921 10.1988 243.721 9.89324C243.528 9.58766 243.265 9.43487 242.932 9.43487C242.386 9.43487 241.914 9.4476 241.515 9.47307C241.122 9.49853 240.856 9.53673 240.716 9.58766L240.576 6.87561C240.829 6.77375 241.065 6.69736 241.285 6.64643C241.505 6.5955 241.744 6.57003 242.004 6.57003C242.263 6.54456 242.579 6.53183 242.952 6.53183ZM241.455 6.87561V33.2321H240.576V6.87561H241.455Z" fill="#61A1F4"/>
<path d="M248.911 6.41724C249.204 6.41724 249.453 6.4427 249.66 6.49363C249.873 6.54457 250.066 6.63369 250.239 6.76102C250.419 6.86288 250.602 7.00294 250.788 7.1812L250.698 9.74045C250.498 9.66406 250.312 9.60039 250.139 9.54946C249.973 9.49853 249.793 9.46033 249.6 9.43487C249.407 9.4094 249.177 9.39667 248.911 9.39667C248.465 9.39667 248.112 9.72772 247.853 10.3898C247.593 11.0519 247.407 12.1596 247.294 13.713C247.187 15.2664 247.134 17.38 247.134 20.0539C247.134 22.7277 247.187 24.8413 247.294 26.3947C247.407 27.9481 247.593 29.0558 247.853 29.7179C248.112 30.38 248.465 30.7111 248.911 30.7111C249.337 30.7111 249.693 30.6856 249.979 30.6347C250.272 30.5583 250.558 30.4437 250.838 30.2909L250.928 32.8119C250.641 33.1175 250.345 33.334 250.039 33.4613C249.74 33.6141 249.364 33.6905 248.911 33.6905C248.252 33.6905 247.723 33.2576 247.324 32.3918C246.931 31.5005 246.645 30.0617 246.465 28.0754C246.292 26.0891 246.205 23.4153 246.205 20.0539C246.205 16.6925 246.292 14.0186 246.465 12.0323C246.645 10.046 246.931 8.61998 247.324 7.75416C247.723 6.86288 248.252 6.41724 248.911 6.41724Z" fill="#61A1F4"/>
<path d="M254.495 17.4946C255.061 17.4946 255.507 17.762 255.833 18.2968C256.166 18.8061 256.402 19.6464 256.542 20.8178C256.681 21.9892 256.751 23.5808 256.751 25.5926C256.751 27.6807 256.678 29.2977 256.532 30.4437C256.392 31.5896 256.166 32.3918 255.853 32.8501C255.547 33.3085 255.137 33.5377 254.625 33.5377C254.245 33.5377 253.919 33.525 253.646 33.4995C253.374 33.4995 253.124 33.474 252.898 33.4231C252.671 33.3722 252.432 33.3085 252.179 33.2321L252.309 30.4819C252.462 30.5073 252.728 30.5328 253.107 30.5583C253.493 30.5837 253.956 30.5965 254.495 30.5965C254.861 30.5965 255.141 30.4691 255.334 30.2145C255.533 29.9344 255.673 29.4251 255.753 28.6866C255.833 27.9481 255.873 26.904 255.873 25.5544C255.873 24.2811 255.836 23.2625 255.763 22.4985C255.69 21.7346 255.553 21.1871 255.354 20.856C255.161 20.4995 254.874 20.3213 254.495 20.3213H252.299V17.4946H254.495ZM253.037 6.87561V33.2321H252.159V6.87561H253.037Z" fill="#61A1F4"/>
<path d="M262.719 6.87561C262.586 8.32713 262.46 9.67679 262.34 10.9246C262.22 12.1724 262.097 13.2928 261.97 14.286C261.851 15.2791 261.717 16.145 261.571 16.8834C261.431 17.5965 261.272 18.1694 261.092 18.6024C260.912 19.0353 260.702 19.3026 260.463 19.4045V19.5573C260.722 19.6592 260.949 19.9265 261.142 20.3595C261.335 20.7924 261.504 21.4035 261.651 22.1929C261.804 22.9569 261.944 23.8864 262.07 24.9814C262.203 26.0509 262.333 27.286 262.46 28.6866C262.593 30.0617 262.739 31.5769 262.899 33.2321H261.97C261.784 31.2458 261.618 29.4887 261.471 27.9608C261.325 26.4329 261.168 25.1469 261.002 24.1028C260.842 23.0333 260.656 22.2311 260.443 21.6964C260.23 21.1361 259.964 20.856 259.644 20.856V18.144C259.944 18.144 260.197 17.8639 260.403 17.3036C260.616 16.7179 260.802 15.9158 260.962 14.8972C261.122 13.8786 261.268 12.6944 261.401 11.3448C261.534 9.96964 261.674 8.47992 261.821 6.87561H262.719ZM258.955 6.87561V15.1263C258.955 15.8903 258.945 16.6288 258.925 17.3418C258.905 18.0548 258.875 18.7551 258.835 19.4427C258.869 20.1557 258.895 20.8688 258.915 21.5818C258.942 22.2948 258.955 22.9824 258.955 23.6445V33.2321H258.087V6.87561H258.955ZM260.014 18.144V20.856H258.686V18.144H260.014Z" fill="#61A1F4"/>
<path d="M269.235 6.87561V33.2321H268.386V14.0186C268.386 13.5093 268.389 13 268.396 12.4907C268.403 11.9814 268.416 11.4848 268.436 11.001H268.386C268.339 11.4848 268.283 11.9814 268.216 12.4907C268.15 12.9745 268.087 13.4329 268.027 13.8658L264.972 33.2321H264.073V6.87561H264.922V25.8981C264.922 26.4329 264.915 26.9677 264.902 27.5024C264.895 28.0118 264.885 28.5211 264.872 29.0304H264.912C264.965 28.5465 265.025 28.0627 265.091 27.5788C265.165 27.095 265.234 26.6239 265.301 26.1655L268.326 6.87561H269.235Z" fill="#61A1F4"/>
<path d="M277.485 6.87561C277.725 6.87561 277.845 7.34672 277.845 8.28893L278.134 33.2321H277.256L277.006 9.66405H276.796L275.259 29.1068C275.206 29.8707 275.079 30.2527 274.88 30.2527H274.091C273.885 30.2527 273.751 29.8707 273.691 29.1068L272.154 9.66405H271.954L271.715 33.2321H270.836L271.106 8.28893C271.119 7.34672 271.242 6.87561 271.475 6.87561H272.473C272.66 6.87561 272.783 7.25759 272.843 8.02155L274.131 24.1028C274.184 24.6885 274.227 25.2742 274.261 25.8599C274.301 26.4456 274.344 27.0441 274.39 27.6552H274.57C274.617 27.0441 274.66 26.4456 274.7 25.8599C274.74 25.2742 274.783 24.6631 274.83 24.0264L276.118 8.02155C276.171 7.25759 276.297 6.87561 276.497 6.87561H277.485Z" fill="#61A1F4"/>
<path d="M283.512 6.57003C284.071 6.57003 284.513 6.77375 284.839 7.1812C285.172 7.56317 285.412 8.25073 285.558 9.24388C285.705 10.237 285.778 11.6376 285.778 13.4456C285.778 15.3301 285.688 16.7689 285.508 17.762C285.329 18.7551 285.033 19.3281 284.62 19.4809V19.6337C285.132 19.8119 285.485 20.4995 285.678 21.6964C285.878 22.8932 285.978 24.5485 285.978 26.6621C285.978 28.4701 285.904 29.8707 285.758 30.8639C285.612 31.857 285.379 32.5573 285.059 32.9647C284.746 33.3467 284.33 33.5377 283.811 33.5377C283.498 33.5377 283.205 33.5122 282.933 33.4613C282.66 33.4104 282.4 33.3213 282.154 33.1939C281.914 33.0666 281.681 32.9011 281.455 32.6974L281.525 30.2527C281.784 30.3546 282.097 30.4691 282.463 30.5965C282.836 30.6983 283.239 30.7493 283.671 30.7493C284.024 30.7493 284.3 30.6347 284.5 30.4055C284.706 30.1508 284.853 29.6925 284.939 29.0304C285.033 28.3428 285.079 27.3624 285.079 26.0891C285.079 24.7395 285.033 23.6954 284.939 22.9569C284.846 22.1929 284.69 21.6582 284.47 21.3526C284.257 21.047 283.968 20.8942 283.602 20.8942H282.443V18.2586H283.602C283.928 18.2586 284.184 18.1312 284.37 17.8766C284.557 17.6219 284.69 17.1763 284.77 16.5397C284.856 15.903 284.899 14.999 284.899 13.8276C284.899 12.6053 284.853 11.6758 284.76 11.0392C284.673 10.3771 284.523 9.93144 284.31 9.70225C284.104 9.4476 283.821 9.32027 283.462 9.32027C283.082 9.32027 282.743 9.3712 282.443 9.47307C282.151 9.57493 281.898 9.66406 281.685 9.74045L281.615 7.1812C281.921 6.97747 282.22 6.82468 282.513 6.72282C282.806 6.62096 283.139 6.57003 283.512 6.57003Z" fill="#61A1F4"/>
<path d="M290.139 6.87561C290.219 6.87561 290.289 6.96474 290.349 7.143C290.408 7.29579 290.448 7.51224 290.468 7.79236L292.685 33.2321H291.776L289.989 11.6121C289.963 11.2556 289.933 10.8991 289.899 10.5426C289.873 10.1606 289.846 9.80411 289.819 9.47307H289.54C289.513 9.80411 289.487 10.1606 289.46 10.5426C289.433 10.8991 289.403 11.2556 289.37 11.6121L287.583 33.2321H286.675L288.891 7.79236C288.911 7.51224 288.951 7.29579 289.011 7.143C289.071 6.96474 289.141 6.87561 289.22 6.87561H290.139ZM291.417 22.0784V24.9814H287.923V22.0784H291.417Z" fill="#61A1F4"/>
<path d="M296.061 6.41724C296.354 6.41724 296.603 6.4427 296.81 6.49363C297.023 6.54457 297.216 6.63369 297.389 6.76102C297.568 6.86288 297.752 7.00294 297.938 7.1812L297.848 9.74045C297.648 9.66406 297.462 9.60039 297.289 9.54946C297.123 9.49853 296.943 9.46033 296.75 9.43487C296.557 9.4094 296.327 9.39667 296.061 9.39667C295.615 9.39667 295.262 9.72772 295.003 10.3898C294.743 11.0519 294.557 12.1596 294.444 13.713C294.337 15.2664 294.284 17.38 294.284 20.0539C294.284 22.7277 294.337 24.8413 294.444 26.3947C294.557 27.9481 294.743 29.0558 295.003 29.7179C295.262 30.38 295.615 30.7111 296.061 30.7111C296.487 30.7111 296.843 30.6856 297.129 30.6347C297.422 30.5583 297.708 30.4437 297.988 30.2909L298.078 32.8119C297.791 33.1175 297.495 33.334 297.189 33.4613C296.89 33.6141 296.514 33.6905 296.061 33.6905C295.402 33.6905 294.873 33.2576 294.474 32.3918C294.081 31.5005 293.795 30.0617 293.615 28.0754C293.442 26.0891 293.355 23.4153 293.355 20.0539C293.355 16.6925 293.442 14.0186 293.615 12.0323C293.795 10.046 294.081 8.61998 294.474 7.75416C294.873 6.86288 295.402 6.41724 296.061 6.41724Z" fill="#61A1F4"/>
<path d="M301.668 6.37904C302.167 6.37904 302.589 6.60823 302.935 7.0666C303.288 7.52498 303.568 8.28893 303.774 9.35847C303.987 10.4025 304.14 11.8031 304.233 13.5602C304.333 15.3173 304.383 17.4819 304.383 20.0539C304.383 22.6259 304.333 24.7904 304.233 26.5475C304.14 28.3046 303.987 29.7179 303.774 30.7875C303.568 31.8315 303.288 32.5828 302.935 33.0411C302.589 33.4995 302.167 33.7287 301.668 33.7287C301.168 33.7287 300.742 33.4995 300.39 33.0411C300.044 32.5828 299.764 31.8315 299.551 30.7875C299.338 29.7179 299.182 28.3046 299.082 26.5475C298.989 24.7904 298.942 22.6259 298.942 20.0539C298.942 17.4819 298.989 15.3173 299.082 13.5602C299.182 11.8031 299.338 10.4025 299.551 9.35847C299.764 8.28893 300.044 7.52498 300.39 7.0666C300.742 6.60823 301.168 6.37904 301.668 6.37904ZM301.668 9.39667C301.215 9.39667 300.856 9.72772 300.589 10.3898C300.33 11.0519 300.143 12.1596 300.03 13.713C299.924 15.2409 299.87 17.3546 299.87 20.0539C299.87 22.7277 299.924 24.8413 300.03 26.3947C300.143 27.9481 300.33 29.0558 300.589 29.7179C300.856 30.38 301.215 30.7111 301.668 30.7111C302.12 30.7111 302.476 30.38 302.736 29.7179C303.002 29.0558 303.188 27.9481 303.295 26.3947C303.408 24.8413 303.465 22.7277 303.465 20.0539C303.465 17.3546 303.408 15.2409 303.295 13.713C303.188 12.1596 303.002 11.0519 302.736 10.3898C302.476 9.72772 302.12 9.39667 301.668 9.39667Z" fill="#61A1F4"/>
<path d="M310.104 6.87561L310.024 9.66405H306.749V33.2321H305.87V6.87561C306.23 6.79922 306.586 6.74829 306.939 6.72282C307.298 6.67189 307.654 6.64643 308.007 6.64643C308.36 6.64643 308.709 6.67189 309.055 6.72282C309.408 6.74829 309.757 6.79922 310.104 6.87561ZM308.207 18.2204C308.779 18.2204 309.228 18.475 309.554 18.9843C309.887 19.4682 310.124 20.2703 310.263 21.3908C310.403 22.5113 310.473 24.0392 310.473 25.9745C310.473 27.6807 310.423 29.0431 310.323 30.0617C310.223 31.0548 310.074 31.8061 309.874 32.3154C309.674 32.8247 309.421 33.1557 309.115 33.3085C308.816 33.4868 308.463 33.5759 308.057 33.5759C307.811 33.5759 307.571 33.5632 307.338 33.5377C307.105 33.5122 306.869 33.474 306.629 33.4231C306.396 33.3722 306.15 33.3085 305.89 33.2321L306.03 30.5583C306.177 30.5837 306.439 30.6092 306.819 30.6347C307.205 30.6601 307.667 30.6729 308.207 30.6729C308.573 30.6729 308.856 30.5455 309.055 30.2909C309.255 30.0362 309.391 29.5651 309.465 28.8776C309.544 28.1645 309.584 27.1459 309.584 25.8217C309.584 24.5739 309.548 23.5935 309.475 22.8805C309.408 22.1675 309.275 21.6582 309.075 21.3526C308.876 21.0215 308.586 20.856 308.207 20.856H306.02V18.2204H308.207Z" fill="#61A1F4"/>
<path d="M314.313 6.37904C314.812 6.37904 315.235 6.60823 315.581 7.0666C315.934 7.52498 316.213 8.28893 316.42 9.35847C316.633 10.4025 316.786 11.8031 316.879 13.5602C316.979 15.3173 317.029 17.4819 317.029 20.0539C317.029 22.6259 316.979 24.7904 316.879 26.5475C316.786 28.3046 316.633 29.7179 316.42 30.7875C316.213 31.8315 315.934 32.5828 315.581 33.0411C315.235 33.4995 314.812 33.7287 314.313 33.7287C313.814 33.7287 313.388 33.4995 313.035 33.0411C312.689 32.5828 312.409 31.8315 312.196 30.7875C311.983 29.7179 311.827 28.3046 311.727 26.5475C311.634 24.7904 311.587 22.6259 311.587 20.0539C311.587 17.4819 311.634 15.3173 311.727 13.5602C311.827 11.8031 311.983 10.4025 312.196 9.35847C312.409 8.28893 312.689 7.52498 313.035 7.0666C313.388 6.60823 313.814 6.37904 314.313 6.37904ZM314.313 9.39667C313.86 9.39667 313.501 9.72772 313.235 10.3898C312.975 11.0519 312.789 12.1596 312.676 13.713C312.569 15.2409 312.516 17.3546 312.516 20.0539C312.516 22.7277 312.569 24.8413 312.676 26.3947C312.789 27.9481 312.975 29.0558 313.235 29.7179C313.501 30.38 313.86 30.7111 314.313 30.7111C314.766 30.7111 315.122 30.38 315.381 29.7179C315.648 29.0558 315.834 27.9481 315.94 26.3947C316.054 24.8413 316.11 22.7277 316.11 20.0539C316.11 17.3546 316.054 15.2409 315.94 13.713C315.834 12.1596 315.648 11.0519 315.381 10.3898C315.122 9.72772 314.766 9.39667 314.313 9.39667Z" fill="#61A1F4"/>
<path d="M325.025 6.87561C325.265 6.87561 325.385 7.34672 325.385 8.28893L325.674 33.2321H324.796L324.546 9.66405H324.336L322.799 29.1068C322.746 29.8707 322.619 30.2527 322.42 30.2527H321.631C321.424 30.2527 321.291 29.8707 321.231 29.1068L319.694 9.66405H319.494L319.255 33.2321H318.376L318.646 8.28893C318.659 7.34672 318.782 6.87561 319.015 6.87561H320.013C320.2 6.87561 320.323 7.25759 320.383 8.02155L321.671 24.1028C321.724 24.6885 321.767 25.2742 321.801 25.8599C321.84 26.4456 321.884 27.0441 321.93 27.6552H322.11C322.157 27.0441 322.2 26.4456 322.24 25.8599C322.28 25.2742 322.323 24.6631 322.37 24.0264L323.658 8.02155C323.711 7.25759 323.837 6.87561 324.037 6.87561H325.025Z" fill="#61A1F4"/>
<path d="M327.68 28.7248C327.8 28.7248 327.884 28.8139 327.93 28.9922C327.977 29.1704 328 29.4887 328 29.9471V32.0098C328 32.4682 327.977 32.7865 327.93 32.9647C327.884 33.143 327.8 33.2321 327.68 33.2321H327.401C327.288 33.2321 327.205 33.143 327.151 32.9647C327.105 32.7865 327.081 32.4682 327.081 32.0098V29.9471C327.081 29.4887 327.105 29.1704 327.151 28.9922C327.205 28.8139 327.288 28.7248 327.401 28.7248H327.68Z" fill="#61A1F4"/>
<path d="M1.53743 40.548V69.6347H0V40.548H1.53743ZM7.28533 52.4778V55.6815H1.39766V52.4778H7.28533ZM8.63058 40.548V69.6347H7.09315V40.548H8.63058Z" fill="#61A1F4"/>
<path d="M13.8887 40.5059C14.4595 40.5059 15.036 40.5059 15.6184 40.5059C16.2124 40.5059 16.7947 40.534 17.3654 40.5902C17.9478 40.6183 18.5069 40.6745 19.0426 40.7588L18.9728 43.6674H14.1333C13.7723 43.6674 13.5102 43.8923 13.3472 44.3419C13.1841 44.7635 13.1026 45.466 13.1026 46.4496V63.733C13.1026 64.7166 13.1841 65.4333 13.3472 65.8829C13.5102 66.3326 13.7723 66.5574 14.1333 66.5574H18.9728L19.0426 69.4239C18.5069 69.5082 17.9478 69.5644 17.3654 69.5925C16.7947 69.6206 16.2124 69.6347 15.6184 69.6347C15.036 69.6628 14.4595 69.6768 13.8887 69.6768C13.1783 69.6768 12.6134 69.2272 12.1941 68.3279C11.7748 67.4005 11.5651 66.1639 11.5651 64.6183V45.5644C11.5651 43.9906 11.7748 42.7541 12.1941 41.8548C12.6134 40.9555 13.1783 40.5059 13.8887 40.5059ZM11.8621 52.7728H18.2914V55.7658H11.8621V52.7728Z" fill="#61A1F4"/>
<path d="M29.7387 40.0422C30.2512 40.0422 30.6938 40.0703 31.0665 40.1265C31.4392 40.1827 31.7828 40.281 32.0973 40.4215C32.4118 40.534 32.7321 40.6885 33.0582 40.8852L32.9009 43.7518C32.5515 43.6393 32.2254 43.5691 31.9226 43.541C31.6198 43.4848 31.2936 43.4426 30.9442 43.4145C30.6064 43.3864 30.1988 43.3724 29.7213 43.3724C28.906 43.3724 28.2595 43.7377 27.782 44.4684C27.3161 45.1991 26.9783 46.4215 26.7687 48.1358C26.5707 49.822 26.4717 52.1405 26.4717 55.0913C26.4717 58.0422 26.5707 60.3747 26.7687 62.089C26.9783 63.7752 27.3161 64.9836 27.782 65.7143C28.2595 66.445 28.906 66.8103 29.7213 66.8103C30.455 66.8103 31.0665 66.7822 31.5557 66.726C32.0449 66.6417 32.5282 66.5152 33.0058 66.3466L33.1805 69.171C32.6797 69.5082 32.173 69.7471 31.6605 69.8876C31.1597 70.0562 30.5191 70.1405 29.7387 70.1405C28.5507 70.1405 27.6015 69.6628 26.891 68.7073C26.1805 67.7237 25.668 66.1358 25.3536 63.9438C25.0391 61.7518 24.8818 58.8009 24.8818 55.0913C24.8818 51.3817 25.0391 48.4309 25.3536 46.2389C25.668 44.0468 26.1805 42.4731 26.891 41.5176C27.6015 40.534 28.5507 40.0422 29.7387 40.0422ZM25.371 52.7307L31.643 52.7728V55.6393L25.371 55.6815V52.7307Z" fill="#61A1F4"/>
<path d="M42.0348 40.2108C43.0131 40.2108 43.7877 40.4356 44.3584 40.8852C44.9407 41.3068 45.36 42.0656 45.6163 43.1616C45.8725 44.2576 46.0006 45.8033 46.0006 47.7986C46.0006 49.8782 45.8434 51.466 45.5289 52.5621C45.2145 53.6581 44.6962 54.2904 43.974 54.459V54.6276C44.8709 54.8244 45.4882 55.5831 45.8259 56.904C46.1754 58.2248 46.3501 60.0515 46.3501 62.3841C46.3501 64.3794 46.2219 65.9251 45.9657 67.0211C45.7095 68.1171 45.3018 68.8899 44.7427 69.3396C44.1953 69.7611 43.4674 69.9719 42.5589 69.9719C42.0115 69.9719 41.499 69.9438 41.0215 69.8876C40.5439 69.8314 40.0897 69.733 39.6587 69.5925C39.2394 69.452 38.8318 69.2693 38.4358 69.0445L38.5581 66.3466C39.0123 66.459 39.5597 66.5855 40.2003 66.726C40.8526 66.8384 41.5572 66.8946 42.3143 66.8946C42.9316 66.8946 43.415 66.7681 43.7644 66.5152C44.1254 66.2342 44.3817 65.7283 44.5331 64.9977C44.6962 64.2389 44.7777 63.1569 44.7777 61.7518C44.7777 60.2623 44.6962 59.1101 44.5331 58.2951C44.37 57.452 44.0963 56.8618 43.712 56.5246C43.3393 56.1874 42.8326 56.0187 42.192 56.0187H40.1654V53.1101H42.192C42.7627 53.1101 43.2111 52.9696 43.5373 52.6885C43.8634 52.4075 44.0963 51.9157 44.2361 51.2131C44.3875 50.5105 44.4632 49.5129 44.4632 48.2201C44.4632 46.8712 44.3817 45.8454 44.2186 45.1429C44.0672 44.4122 43.8051 43.9204 43.4324 43.6674C43.0714 43.3864 42.5764 43.2459 41.9474 43.2459C41.2835 43.2459 40.6895 43.3021 40.1654 43.4145C39.6529 43.5269 39.2103 43.6253 38.8376 43.7096L38.7153 40.8852C39.2511 40.6604 39.7752 40.4918 40.2877 40.3794C40.8002 40.267 41.3825 40.2108 42.0348 40.2108Z" fill="#61A1F4"/>
<path d="M53.632 40.548C53.7717 40.548 53.894 40.6464 53.9989 40.8431C54.1037 41.0117 54.1736 41.2506 54.2085 41.5597L58.087 69.6347H56.4972L53.3699 45.7752C53.3233 45.3817 53.2709 44.9883 53.2127 44.5948C53.1661 44.1733 53.1195 43.7799 53.0729 43.4145H52.5837C52.5371 43.7799 52.4906 44.1733 52.444 44.5948C52.3974 44.9883 52.345 45.3817 52.2867 45.7752L49.1594 69.6347H47.5696L51.4481 41.5597C51.4831 41.2506 51.5529 41.0117 51.6578 40.8431C51.7626 40.6464 51.8849 40.548 52.0247 40.548H53.632ZM55.8682 57.3255V60.5293H49.7535V57.3255H55.8682Z" fill="#61A1F4"/>
<path d="M71.1739 40.548C71.5932 40.548 71.8028 41.0679 71.8028 42.1077L72.3095 69.6347H70.7721L70.3353 43.6253H69.9684L67.2779 65.082C67.1847 65.9251 66.9634 66.3466 66.614 66.3466H65.2338C64.8728 66.3466 64.6398 65.9251 64.535 65.082L61.8445 43.6253H61.4951L61.0758 69.6347H59.5383L60.01 42.1077C60.0333 41.0679 60.2488 40.548 60.6565 40.548H62.4036C62.7297 40.548 62.9451 40.9696 63.05 41.8126L65.3037 59.5597C65.3969 60.2061 65.4726 60.8525 65.5308 61.4988C65.6007 62.1452 65.6764 62.8056 65.7579 63.4801H66.0724C66.154 62.8056 66.2297 62.1452 66.2995 61.4988C66.3694 60.8525 66.4451 60.178 66.5267 59.4754L68.7804 41.8126C68.8736 40.9696 69.0949 40.548 69.4443 40.548H71.1739Z" fill="#61A1F4"/>
<path d="M76.6414 40.548V69.6347H75.104V40.548H76.6414Z" fill="#61A1F4"/>
<path d="M81.2139 40.548V69.6347H79.6764V40.548H81.2139ZM86.9618 52.4778V55.6815H81.0741V52.4778H86.9618ZM88.307 40.548V69.6347H86.7696V40.548H88.307Z" fill="#61A1F4"/>
<path d="M95.6617 40C96.5352 40 97.2748 40.2529 97.8805 40.7588C98.4978 41.2646 98.987 42.1077 99.348 43.2881C99.7207 44.4403 99.9886 45.9859 100.152 47.9251C100.326 49.8642 100.414 52.2529 100.414 55.0913C100.414 57.9297 100.326 60.3185 100.152 62.2576C99.9886 64.1967 99.7207 65.7564 99.348 66.9368C98.987 68.089 98.4978 68.918 97.8805 69.4239C97.2748 69.9297 96.5352 70.1827 95.6617 70.1827C94.7882 70.1827 94.0427 69.9297 93.4254 69.4239C92.8198 68.918 92.3306 68.089 91.9579 66.9368C91.5852 65.7564 91.3115 64.1967 91.1368 62.2576C90.9737 60.3185 90.8922 57.9297 90.8922 55.0913C90.8922 52.2529 90.9737 49.8642 91.1368 47.9251C91.3115 45.9859 91.5852 44.4403 91.9579 43.2881C92.3306 42.1077 92.8198 41.2646 93.4254 40.7588C94.0427 40.2529 94.7882 40 95.6617 40ZM95.6617 43.3302C94.8697 43.3302 94.2407 43.6955 93.7748 44.4262C93.3206 45.1569 92.9945 46.3794 92.7965 48.0937C92.6101 49.7799 92.5169 52.1124 92.5169 55.0913C92.5169 58.0422 92.6101 60.3747 92.7965 62.089C92.9945 63.8033 93.3206 65.0258 93.7748 65.7564C94.2407 66.4871 94.8697 66.8525 95.6617 66.8525C96.4537 66.8525 97.0768 66.4871 97.5311 65.7564C97.997 65.0258 98.3231 63.8033 98.5094 62.089C98.7074 60.3747 98.8064 58.0422 98.8064 55.0913C98.8064 52.1124 98.7074 49.7799 98.5094 48.0937C98.3231 46.3794 97.997 45.1569 97.5311 44.4262C97.0768 43.6955 96.4537 43.3302 95.6617 43.3302Z" fill="#61A1F4"/>
<path d="M111.822 40C112.707 40 113.452 40.2529 114.058 40.7588C114.664 41.2646 115.153 42.1077 115.525 43.2881C115.898 44.4403 116.166 45.9859 116.329 47.9251C116.504 49.8642 116.591 52.2529 116.591 55.0913C116.591 57.9297 116.504 60.3185 116.329 62.2576C116.166 64.1967 115.898 65.7564 115.525 66.9368C115.153 68.089 114.664 68.918 114.058 69.4239C113.452 69.9297 112.707 70.1827 111.822 70.1827C110.983 70.1827 110.273 69.9297 109.69 69.4239C109.119 68.918 108.659 68.089 108.31 66.9368C107.961 65.7564 107.704 64.1967 107.541 62.2576C107.378 60.3185 107.297 57.9297 107.297 55.0913C107.297 52.2529 107.378 49.8642 107.541 47.9251C107.704 45.9859 107.961 44.4403 108.31 43.2881C108.659 42.1077 109.119 41.2646 109.69 40.7588C110.273 40.2529 110.983 40 111.822 40ZM104.571 40.548V69.6347H103.034V40.548H104.571ZM108.03 53.0258V56.0187H104.431V53.0258H108.03ZM111.822 43.3302C111.065 43.3302 110.465 43.6955 110.022 44.4262C109.591 45.1569 109.283 46.3794 109.096 48.0937C108.91 49.7799 108.817 52.1124 108.817 55.0913C108.817 58.0422 108.91 60.3747 109.096 62.089C109.283 63.8033 109.591 65.0258 110.022 65.7564C110.465 66.4871 111.065 66.8525 111.822 66.8525C112.614 66.8525 113.237 66.4871 113.691 65.7564C114.157 65.0258 114.489 63.8033 114.687 62.089C114.885 60.3747 114.984 58.0422 114.984 55.0913C114.984 52.1124 114.885 49.7799 114.687 48.0937C114.489 46.3794 114.157 45.1569 113.691 44.4262C113.237 43.6955 112.614 43.3302 111.822 43.3302Z" fill="#61A1F4"/>
<path d="M124.635 40.548V69.6347H123.098V40.548H124.635ZM130.4 40.548V43.5831H124.495V40.548H130.4ZM131.746 40.548V69.6347H130.208V40.548H131.746Z" fill="#61A1F4"/>
<path d="M139.1 40C139.973 40 140.713 40.2529 141.319 40.7588C141.936 41.2646 142.425 42.1077 142.786 43.2881C143.159 44.4403 143.427 45.9859 143.59 47.9251C143.765 49.8642 143.852 52.2529 143.852 55.0913C143.852 57.9297 143.765 60.3185 143.59 62.2576C143.427 64.1967 143.159 65.7564 142.786 66.9368C142.425 68.089 141.936 68.918 141.319 69.4239C140.713 69.9297 139.973 70.1827 139.1 70.1827C138.226 70.1827 137.481 69.9297 136.864 69.4239C136.258 68.918 135.769 68.089 135.396 66.9368C135.023 65.7564 134.75 64.1967 134.575 62.2576C134.412 60.3185 134.33 57.9297 134.33 55.0913C134.33 52.2529 134.412 49.8642 134.575 47.9251C134.75 45.9859 135.023 44.4403 135.396 43.2881C135.769 42.1077 136.258 41.2646 136.864 40.7588C137.481 40.2529 138.226 40 139.1 40ZM139.1 43.3302C138.308 43.3302 137.679 43.6955 137.213 44.4262C136.759 45.1569 136.433 46.3794 136.235 48.0937C136.048 49.7799 135.955 52.1124 135.955 55.0913C135.955 58.0422 136.048 60.3747 136.235 62.089C136.433 63.8033 136.759 65.0258 137.213 65.7564C137.679 66.4871 138.308 66.8525 139.1 66.8525C139.892 66.8525 140.515 66.4871 140.969 65.7564C141.435 65.0258 141.761 63.8033 141.948 62.089C142.146 60.3747 142.245 58.0422 142.245 55.0913C142.245 52.1124 142.146 49.7799 141.948 48.0937C141.761 46.3794 141.435 45.1569 140.969 44.4262C140.515 43.6955 139.892 43.3302 139.1 43.3302Z" fill="#61A1F4"/>
<path d="M150.368 40.2108C151.358 40.2108 152.144 40.4356 152.727 40.8852C153.309 41.3068 153.728 42.0656 153.984 43.1616C154.252 44.2576 154.386 45.8033 154.386 47.7986C154.386 49.8782 154.223 51.466 153.897 52.5621C153.583 53.6581 153.064 54.2904 152.342 54.459V54.6276C153.239 54.8244 153.862 55.5831 154.212 56.904C154.573 58.2248 154.753 60.0515 154.753 62.3841C154.753 64.3794 154.625 65.9251 154.369 67.0211C154.113 68.1171 153.699 68.8899 153.128 69.3396C152.569 69.7611 151.83 69.9719 150.91 69.9719C150.222 69.9719 149.628 69.9578 149.128 69.9297C148.638 69.9297 148.184 69.9016 147.765 69.8454C147.346 69.7892 146.909 69.719 146.455 69.6347L146.699 66.6838C146.955 66.7119 147.439 66.74 148.149 66.7681C148.871 66.7963 149.71 66.8103 150.665 66.8103C151.306 66.8103 151.806 66.6838 152.167 66.4309C152.54 66.1499 152.802 65.644 152.954 64.9133C153.117 64.1827 153.198 63.1288 153.198 61.7518C153.198 60.2342 153.117 59.0679 152.954 58.2529C152.791 57.4379 152.517 56.8618 152.133 56.5246C151.748 56.1874 151.224 56.0047 150.56 55.9766H146.682V53.1522H150.543C151.125 53.1241 151.585 52.9836 151.923 52.7307C152.272 52.4496 152.523 51.9578 152.674 51.2553C152.826 50.5246 152.901 49.5129 152.901 48.2201C152.901 46.8993 152.82 45.8876 152.657 45.185C152.494 44.4824 152.22 44.0047 151.836 43.7518C151.463 43.4988 150.95 43.3724 150.298 43.3724C149.727 43.3724 149.215 43.3724 148.761 43.3724C148.306 43.3724 147.905 43.3864 147.555 43.4145C147.217 43.4145 146.932 43.4426 146.699 43.4988L146.455 40.548C146.862 40.4356 147.247 40.3653 147.608 40.3372C147.98 40.281 148.382 40.2529 148.813 40.2529C149.256 40.2248 149.774 40.2108 150.368 40.2108ZM147.957 40.548V69.6347H146.455V40.548H147.957Z" fill="#61A1F4"/>
<path d="M158.826 40.548V69.6347H157.288V40.548H158.826ZM164.574 52.4778V55.6815H158.686V52.4778H164.574ZM165.919 40.548V69.6347H164.382V40.548H165.919Z" fill="#61A1F4"/>
<path d="M173.274 40C174.147 40 174.887 40.2529 175.493 40.7588C176.11 41.2646 176.599 42.1077 176.96 43.2881C177.333 44.4403 177.601 45.9859 177.764 47.9251C177.938 49.8642 178.026 52.2529 178.026 55.0913C178.026 57.9297 177.938 60.3185 177.764 62.2576C177.601 64.1967 177.333 65.7564 176.96 66.9368C176.599 68.089 176.11 68.918 175.493 69.4239C174.887 69.9297 174.147 70.1827 173.274 70.1827C172.4 70.1827 171.655 69.9297 171.037 69.4239C170.432 68.918 169.943 68.089 169.57 66.9368C169.197 65.7564 168.923 64.1967 168.749 62.2576C168.586 60.3185 168.504 57.9297 168.504 55.0913C168.504 52.2529 168.586 49.8642 168.749 47.9251C168.923 45.9859 169.197 44.4403 169.57 43.2881C169.943 42.1077 170.432 41.2646 171.037 40.7588C171.655 40.2529 172.4 40 173.274 40ZM173.274 43.3302C172.482 43.3302 171.853 43.6955 171.387 44.4262C170.933 45.1569 170.607 46.3794 170.409 48.0937C170.222 49.7799 170.129 52.1124 170.129 55.0913C170.129 58.0422 170.222 60.3747 170.409 62.089C170.607 63.8033 170.933 65.0258 171.387 65.7564C171.853 66.4871 172.482 66.8525 173.274 66.8525C174.066 66.8525 174.689 66.4871 175.143 65.7564C175.609 65.0258 175.935 63.8033 176.121 62.089C176.319 60.3747 176.418 58.0422 176.418 55.0913C176.418 52.1124 176.319 49.7799 176.121 48.0937C175.935 46.3794 175.609 45.1569 175.143 44.4262C174.689 43.6955 174.066 43.3302 173.274 43.3302Z" fill="#61A1F4"/>
<path d="M180.628 69.6347V40.548H182.166V69.6347H180.628ZM182.026 69.6347V66.5995H190.622V69.6347H182.026ZM187.599 69.6347V40.548H189.137V69.6347H187.599ZM189.556 76L189.399 69.3396H190.622V76H189.556Z" fill="#61A1F4"/>
<path d="M194.245 40.548V69.6347H192.708V40.548H194.245Z" fill="#61A1F4"/>
<path d="M198.818 40.548V69.6347H197.28V40.548H198.818ZM204.566 52.4778V55.6815H198.678V52.4778H204.566ZM205.911 40.548V69.6347H204.373V40.548H205.911Z" fill="#61A1F4"/>
<path d="M210.488 40.548V69.6347H208.95V40.548H210.488ZM216.236 52.4778V55.6815H210.348V52.4778H216.236ZM217.581 40.548V69.6347H216.043V40.548H217.581Z" fill="#61A1F4"/>
<path d="M224.935 40C225.809 40 226.549 40.2529 227.154 40.7588C227.772 41.2646 228.261 42.1077 228.622 43.2881C228.995 44.4403 229.262 45.9859 229.425 47.9251C229.6 49.8642 229.688 52.2529 229.688 55.0913C229.688 57.9297 229.6 60.3185 229.425 62.2576C229.262 64.1967 228.995 65.7564 228.622 66.9368C228.261 68.089 227.772 68.918 227.154 69.4239C226.549 69.9297 225.809 70.1827 224.935 70.1827C224.062 70.1827 223.316 69.9297 222.699 69.4239C222.094 68.918 221.604 68.089 221.232 66.9368C220.859 65.7564 220.585 64.1967 220.411 62.2576C220.247 60.3185 220.166 57.9297 220.166 55.0913C220.166 52.2529 220.247 49.8642 220.411 47.9251C220.585 45.9859 220.859 44.4403 221.232 43.2881C221.604 42.1077 222.094 41.2646 222.699 40.7588C223.316 40.2529 224.062 40 224.935 40ZM224.935 43.3302C224.143 43.3302 223.514 43.6955 223.049 44.4262C222.594 45.1569 222.268 46.3794 222.07 48.0937C221.884 49.7799 221.791 52.1124 221.791 55.0913C221.791 58.0422 221.884 60.3747 222.07 62.089C222.268 63.8033 222.594 65.0258 223.049 65.7564C223.514 66.4871 224.143 66.8525 224.935 66.8525C225.727 66.8525 226.351 66.4871 226.805 65.7564C227.271 65.0258 227.597 63.8033 227.783 62.089C227.981 60.3747 228.08 58.0422 228.08 55.0913C228.08 52.1124 227.981 49.7799 227.783 48.0937C227.597 46.3794 227.271 45.1569 226.805 44.4262C226.351 43.6955 225.727 43.3302 224.935 43.3302Z" fill="#61A1F4"/>
<path d="M234.457 40.5059C235.295 40.5059 236.14 40.5199 236.99 40.548C237.852 40.5761 238.673 40.6604 239.453 40.8009L239.383 43.6674H234.963C234.555 43.6674 234.253 43.9063 234.055 44.3841C233.868 44.8337 233.775 45.5925 233.775 46.6604V69.6347H232.255V45.9859C232.255 44.356 232.459 43.0351 232.867 42.0234C233.286 41.0117 233.816 40.5059 234.457 40.5059Z" fill="#61A1F4"/>
<path d="M245.392 40C246.266 40 247.005 40.2529 247.611 40.7588C248.228 41.2646 248.717 42.1077 249.078 43.2881C249.451 44.4403 249.719 45.9859 249.882 47.9251C250.057 49.8642 250.144 52.2529 250.144 55.0913C250.144 57.9297 250.057 60.3185 249.882 62.2576C249.719 64.1967 249.451 65.7564 249.078 66.9368C248.717 68.089 248.228 68.918 247.611 69.4239C247.005 69.9297 246.266 70.1827 245.392 70.1827C244.518 70.1827 243.773 69.9297 243.156 69.4239C242.55 68.918 242.061 68.089 241.688 66.9368C241.315 65.7564 241.042 64.1967 240.867 62.2576C240.704 60.3185 240.622 57.9297 240.622 55.0913C240.622 52.2529 240.704 49.8642 240.867 47.9251C241.042 45.9859 241.315 44.4403 241.688 43.2881C242.061 42.1077 242.55 41.2646 243.156 40.7588C243.773 40.2529 244.518 40 245.392 40ZM245.392 43.3302C244.6 43.3302 243.971 43.6955 243.505 44.4262C243.051 45.1569 242.725 46.3794 242.527 48.0937C242.34 49.7799 242.247 52.1124 242.247 55.0913C242.247 58.0422 242.34 60.3747 242.527 62.089C242.725 63.8033 243.051 65.0258 243.505 65.7564C243.971 66.4871 244.6 66.8525 245.392 66.8525C246.184 66.8525 246.807 66.4871 247.261 65.7564C247.727 65.0258 248.053 63.8033 248.24 62.089C248.438 60.3747 248.537 58.0422 248.537 55.0913C248.537 52.1124 248.438 49.7799 248.24 48.0937C248.053 46.3794 247.727 45.1569 247.261 44.4262C246.807 43.6955 246.184 43.3302 245.392 43.3302Z" fill="#61A1F4"/>
<path d="M260.795 40.1686C261.761 40.1686 262.524 40.4356 263.083 40.9696C263.642 41.5035 264.044 42.4309 264.289 43.7518C264.533 45.0445 264.656 46.8852 264.656 49.274C264.656 51.6628 264.533 53.5176 264.289 54.8384C264.056 56.1592 263.666 57.0866 263.118 57.6206C262.583 58.1265 261.86 58.3794 260.952 58.3794C260.463 58.3794 259.991 58.3513 259.537 58.2951C259.094 58.2389 258.687 58.1686 258.314 58.0843C257.941 57.9719 257.621 57.8595 257.353 57.7471C257.097 57.6347 256.916 57.5363 256.811 57.452L256.864 55.1756C257.481 55.1756 258.122 55.1756 258.786 55.1756C259.449 55.1756 260.108 55.1756 260.76 55.1756C261.342 55.1475 261.802 54.9789 262.14 54.6698C262.489 54.3326 262.734 53.7424 262.874 52.8993C263.025 52.0281 263.101 50.8197 263.101 49.274C263.101 47.7002 263.025 46.4918 262.874 45.6487C262.734 44.8056 262.489 44.2155 262.14 43.8782C261.802 43.541 261.342 43.3724 260.76 43.3724C259.805 43.3724 258.978 43.3864 258.279 43.4145C257.592 43.4426 257.126 43.4848 256.881 43.541L256.637 40.548C257.079 40.4356 257.493 40.3513 257.877 40.2951C258.261 40.2389 258.681 40.2108 259.135 40.2108C259.589 40.1827 260.142 40.1686 260.795 40.1686ZM258.174 40.548V69.6347H256.637V40.548H258.174Z" fill="#61A1F4"/>
<path d="M271.659 40.548C271.799 40.548 271.921 40.6464 272.026 40.8431C272.131 41.0117 272.2 41.2506 272.235 41.5597L276.114 69.6347H274.524L271.397 45.7752C271.35 45.3817 271.298 44.9883 271.24 44.5948C271.193 44.1733 271.146 43.7799 271.1 43.4145H270.611C270.564 43.7799 270.517 44.1733 270.471 44.5948C270.424 44.9883 270.372 45.3817 270.314 45.7752L267.186 69.6347H265.596L269.475 41.5597C269.51 41.2506 269.58 41.0117 269.685 40.8431C269.789 40.6464 269.912 40.548 270.052 40.548H271.659ZM273.895 57.3255V60.5293H267.78V57.3255H273.895Z" fill="#61A1F4"/>
<path d="M277.81 69.6347V40.548H279.347V69.6347H277.81ZM279.207 69.6347V66.5995H287.803V69.6347H279.207ZM284.781 69.6347V40.548H286.318V69.6347H284.781ZM286.737 76L286.58 69.3396H287.803V76H286.737Z" fill="#61A1F4"/>
<path d="M291.427 40.548V69.6347H289.889V40.548H291.427Z" fill="#61A1F4"/>
<path d="M298.777 40C299.65 40 300.39 40.2529 300.996 40.7588C301.613 41.2646 302.102 42.1077 302.463 43.2881C302.836 44.4403 303.104 45.9859 303.267 47.9251C303.442 49.8642 303.529 52.2529 303.529 55.0913C303.529 57.9297 303.442 60.3185 303.267 62.2576C303.104 64.1967 302.836 65.7564 302.463 66.9368C302.102 68.089 301.613 68.918 300.996 69.4239C300.39 69.9297 299.65 70.1827 298.777 70.1827C297.903 70.1827 297.158 69.9297 296.541 69.4239C295.935 68.918 295.446 68.089 295.073 66.9368C294.7 65.7564 294.427 64.1967 294.252 62.2576C294.089 60.3185 294.007 57.9297 294.007 55.0913C294.007 52.2529 294.089 49.8642 294.252 47.9251C294.427 45.9859 294.7 44.4403 295.073 43.2881C295.446 42.1077 295.935 41.2646 296.541 40.7588C297.158 40.2529 297.903 40 298.777 40ZM298.777 43.3302C297.985 43.3302 297.356 43.6955 296.89 44.4262C296.436 45.1569 296.11 46.3794 295.912 48.0937C295.725 49.7799 295.632 52.1124 295.632 55.0913C295.632 58.0422 295.725 60.3747 295.912 62.089C296.11 63.8033 296.436 65.0258 296.89 65.7564C297.356 66.4871 297.985 66.8525 298.777 66.8525C299.569 66.8525 300.192 66.4871 300.646 65.7564C301.112 65.0258 301.438 63.8033 301.625 62.089C301.823 60.3747 301.922 58.0422 301.922 55.0913C301.922 52.1124 301.823 49.7799 301.625 48.0937C301.438 46.3794 301.112 45.1569 300.646 44.4262C300.192 43.6955 299.569 43.3302 298.777 43.3302Z" fill="#61A1F4"/>
<path d="M307.669 40.548V69.6347H306.132V40.548H307.669ZM313.417 52.4778V55.6815H307.529V52.4778H313.417ZM314.762 40.548V69.6347H313.225V40.548H314.762Z" fill="#61A1F4"/>
<path d="M325.908 40.548L322.658 62.4684C322.46 63.7611 322.245 64.9555 322.012 66.0515C321.779 67.1475 321.5 68.0468 321.173 68.7494C320.847 69.452 320.44 69.8454 319.95 69.9297C319.752 69.9578 319.52 69.9438 319.252 69.8876C318.995 69.8595 318.733 69.7892 318.465 69.6768C318.209 69.5644 317.982 69.452 317.784 69.3396L317.959 66.5995C318.541 66.7119 318.995 66.7681 319.321 66.7681C319.659 66.7681 319.921 66.6417 320.108 66.3888C320.306 66.1077 320.475 65.6581 320.614 65.0398C320.754 64.4215 320.917 63.5644 321.104 62.4684L321.505 59.9813L321.68 58.6745L324.336 40.548H325.908ZM318.238 40.548L320.667 57.3677C320.737 57.8173 320.871 58.0422 321.069 58.0422H321.925L322.152 61.1616H320.649C320.323 61.1616 320.061 61.007 319.863 60.6979C319.677 60.3607 319.537 59.8548 319.444 59.1803L316.648 40.548H318.238Z" fill="#61A1F4"/>
<path d="M327.441 64.6604C327.651 64.6604 327.796 64.7588 327.878 64.9555C327.959 65.1522 328 65.5035 328 66.0094V68.2857C328 68.7916 327.959 69.1429 327.878 69.3396C327.796 69.5363 327.651 69.6347 327.441 69.6347H326.952C326.754 69.6347 326.608 69.5363 326.515 69.3396C326.433 69.1429 326.393 68.7916 326.393 68.2857V66.0094C326.393 65.5035 326.433 65.1522 326.515 64.9555C326.608 64.7588 326.754 64.6604 326.952 64.6604H327.441Z" fill="#61A1F4"/>
</svg>
