<svg width="80" height="80" viewBox="0 0 80 80" fill="none" xmlns="http://www.w3.org/2000/svg">
<path d="M25 71V77H54L53 69L51 67V64V61L47.5 58.5H45L38.5 60.5L34.5 58.5L31.5 59.5L27.5 62V67L26 69L25 71Z" fill="#E6F2FF"/>
<path d="M13.5 18.5L10 18V15.5L8.5 14.5L4.5 12L4 8L4.5 4.5L9.5 1.5L14 4.5L17.5 7.5H21.5L30.5 11L32 17.5L31 19L20.5 16L13.5 18.5Z" fill="#E6F2FF"/>
<path d="M59.5 14.5L52.5 10L53 8.5L56.5 7.5H62.5L67 11L69.5 16.5L68 17.5L64 16.5L59.5 14.5Z" fill="#E6F2FF"/>
<mask id="path-2-inside-1_207_14" fill="white">
<path fill-rule="evenodd" clip-rule="evenodd" d="M8.51271 0.110226C5.42095 0.796052 3.01231 2.92669 2.00271 5.86917C1.4958 7.34619 1.49392 9.76135 1.99849 11.2312C2.82142 13.6285 4.61365 15.5583 6.86873 16.4747L7.73165 16.8255L7.81397 21.5628C7.90786 26.9544 8.03673 27.7104 9.2869 30.2033L9.94627 31.5182L8.83904 32.1754C4.19937 34.9287 1.03153 39.6244 0.231726 44.9344C0.0397408 46.2089 0.000843883 49.1317 6.28204e-05 62.3017C-0.000874455 77.8642 0.00459298 78.1472 0.313581 78.7534C0.516033 79.1507 0.847829 79.4827 1.24476 79.6853C1.85759 79.9981 2.08488 80 39.8333 80C77.5818 80 77.8091 79.9981 78.4219 79.6853C78.8188 79.4827 79.1506 79.1507 79.3531 78.7534C79.6621 78.1472 79.6675 77.8642 79.6666 62.3017C79.6658 49.1317 79.6269 46.2089 79.4349 44.9344C78.6351 39.6244 75.4673 34.9287 70.8276 32.1754L69.7204 31.5182L70.3798 30.2033C70.7425 29.4801 71.2057 28.3059 71.409 27.5942C71.7657 26.3458 71.7787 26.1125 71.7747 20.9849L71.7707 15.6696L71.3433 14.2928C69.9247 9.72305 66.7531 6.55202 62.2197 5.17083C60.9984 4.79876 60.5895 4.75171 58.5788 4.75171C56.5682 4.75171 56.1593 4.79876 54.938 5.17083C50.4046 6.55202 47.233 9.72305 45.8144 14.2928L45.387 15.6696L45.3829 20.9849C45.379 26.1125 45.392 26.3458 45.7486 27.5942C45.952 28.3059 46.4185 29.4866 46.7853 30.218L47.4521 31.5477L46.9622 31.8C45.131 32.743 42.4313 35.0339 41.3174 36.59L40.6925 37.4628L39.828 37.4703C39.0223 37.4774 38.9439 37.4445 38.6756 36.9902C37.8766 35.6367 34.5652 32.7583 32.7044 31.8L32.2145 31.5477L32.8814 30.218C33.2482 29.4866 33.7146 28.3059 33.918 27.5942C34.2747 26.3458 34.2876 26.1125 34.2837 20.9849L34.2797 15.6696L33.8523 14.2928C32.4323 9.71867 29.2317 6.52185 24.7287 5.18006C23.6093 4.8466 23.0036 4.76609 21.4784 4.74827C20.4474 4.73623 19.2423 4.78063 18.8004 4.84676L17.997 4.96729L17.5993 4.28803C16.6084 2.59605 14.8795 1.15702 13.024 0.480106C11.8366 0.0467556 9.61854 -0.135058 8.51271 0.110226ZM11.4565 4.89866C12.1876 5.14801 13.5896 6.35645 13.5896 6.73727C13.5896 6.84092 13.1853 7.26239 12.6914 7.67386C11.5311 8.6403 10.3551 10.0209 9.61854 11.2812C9.03634 12.2775 9.03056 12.282 8.54786 12.1137C8.28105 12.0207 7.7707 11.6523 7.41391 11.2951C4.5057 8.3847 7.5506 3.56672 11.4565 4.89866ZM23.809 9.79762C26.338 10.6826 28.2489 12.5611 29.1514 15.0493L29.5136 16.0481L28.955 16.153C26.9906 16.5217 24.3714 15.4118 23.1942 13.7118C22.6926 12.9876 21.8097 12.4648 21.0878 12.4648C20.366 12.4648 19.4831 12.9876 18.9815 13.7118C17.8056 15.4098 15.185 16.5217 13.226 16.1539L12.6727 16.0501L12.9757 15.1689C13.9844 12.235 16.5481 10.0432 19.6819 9.43571C20.5305 9.27125 22.898 9.47886 23.809 9.79762ZM61.4186 9.84858C63.4939 10.6059 65.2793 12.167 66.2164 14.0437C66.9056 15.4241 66.8994 15.437 65.6475 15.1951C62.3123 14.5507 58.3725 12.5423 56.323 10.4419L55.737 9.84139L56.2597 9.67662C57.6948 9.22435 59.9106 9.2983 61.4186 9.84858ZM54.5726 15.0971C56.4422 16.6035 59.3576 18.1843 61.7812 19.0057C63.2301 19.4967 66.0371 20.125 66.7823 20.125H67.2043L67.1326 23.0562C67.0717 25.5491 67.0106 26.1258 66.7244 26.9129C65.7751 29.5248 63.8235 31.4666 61.2641 32.3461C59.8876 32.8193 57.3754 32.8526 56.0794 32.415C53.3987 31.5097 51.3242 29.4774 50.4264 26.877C50.0789 25.8705 50.0654 25.6482 50.069 20.9849C50.0726 16.341 50.0876 16.0993 50.4253 15.2006C50.6192 14.6847 50.9991 13.8971 51.2695 13.4505L51.7611 12.6383L52.843 13.6068C53.4382 14.1394 54.2165 14.8101 54.5726 15.0971ZM21.8942 18.9228C23.7419 20.2376 26.3833 21.008 28.5645 20.8685L29.7145 20.7951L29.6403 23.3913C29.5794 25.5244 29.5066 26.1526 29.2317 26.9129C28.2892 29.5196 26.3336 31.4661 23.7731 32.3461C22.3966 32.8193 19.8844 32.8526 18.5884 32.415C15.9431 31.5216 13.9652 29.6181 12.9948 27.0316C12.6503 26.1132 12.5945 25.6757 12.5322 23.3996L12.4615 20.8115L13.5085 20.8782C15.7015 21.018 18.102 20.3573 19.9943 19.0932C20.5528 18.7202 21.045 18.4129 21.0883 18.4102C21.1316 18.4076 21.4941 18.6382 21.8942 18.9228ZM14.07 35.4538C14.7584 35.9445 16.4104 36.6551 17.7622 37.0423C19.5035 37.5408 22.6721 37.5408 24.4134 37.0423C25.7808 36.6507 27.4188 35.9433 28.1274 35.4385L28.5995 35.1021L29.4724 35.4566C30.7143 35.9609 32.4626 37.1433 33.4958 38.1771L34.3817 39.0637L33.7879 39.4954C32.6872 40.2959 31.4302 41.8201 30.7768 43.1464C29.7881 45.1536 29.6458 46.1417 29.7131 50.5315C29.7687 54.1622 29.7845 54.3215 30.1992 55.456C30.4351 56.1008 30.6671 56.7448 30.7147 56.887C30.7743 57.0641 30.6866 57.18 30.4357 57.2552C30.2347 57.3154 29.5577 57.6807 28.9314 58.0667L27.7928 58.7688L27.2198 58.4966C26.3172 58.0679 25.1522 57.805 24.134 57.8001C20.4583 57.7822 16.7953 55.4821 15.1728 52.173C14.4866 50.7734 14.0654 49.1577 14.0609 47.9067C14.0558 46.4508 13.0173 45.2944 11.7151 45.2944C10.919 45.2944 10.0405 45.8464 9.66525 46.5826C9.36829 47.1648 9.34033 47.4049 9.42359 48.6519C9.91472 56.013 15.8941 61.9647 23.2748 62.4394C25.0908 62.5562 25.7959 62.8648 26.2408 63.7375C26.6392 64.5188 26.6392 65.1529 26.2408 65.9342C25.6181 67.1556 24.3984 67.4117 21.4002 66.9509C19.2839 66.6254 17.8024 66.1775 15.9964 65.317C13.7568 64.2499 12.1742 63.1351 10.4512 61.4108C7.28972 58.2469 5.39361 54.358 4.83078 49.8832C4.05003 43.6753 6.96574 38.1582 12.3829 35.5934C12.9177 35.3403 13.4148 35.133 13.4875 35.133C13.5601 35.1329 13.8222 35.2773 14.07 35.4538ZM51.561 35.4538C52.2494 35.9445 53.9014 36.6551 55.2532 37.0423C57.0025 37.5432 60.1624 37.541 61.921 37.0376C63.1262 36.6927 64.9651 35.8911 65.7837 35.3536C66.1811 35.0927 66.2239 35.0989 67.2174 35.5643C71.721 37.6734 74.628 41.9344 74.9329 46.8737C75.1733 50.7685 73.9245 55.1134 71.5409 58.6753C70.4807 60.2597 68.0653 62.6769 66.4821 63.7379C63.9377 65.4433 61.2598 66.4906 58.2664 66.9509C55.2682 67.4117 54.0485 67.1556 53.4259 65.9342C53.0275 65.1529 53.0275 64.5188 53.4259 63.7375C53.8708 62.8648 54.5759 62.5562 56.3919 62.4394C63.7695 61.965 69.7488 56.013 70.2426 48.6519C70.3263 47.4044 70.2984 47.1651 70.0014 46.5826C69.778 46.1442 69.4595 45.8186 69.0491 45.6091C67.3608 44.7472 65.6129 45.9135 65.6058 47.9067C65.6012 49.1577 65.1801 50.7734 64.4938 52.173C63.5797 54.0376 61.8479 55.7706 59.9848 56.6855C58.5212 57.4042 56.9678 57.7931 55.5327 57.8001C54.5145 57.805 53.3495 58.0679 52.4469 58.4966L51.8739 58.7688L50.7353 58.0667C50.109 57.6807 49.432 57.3154 49.2309 57.2552C48.9801 57.18 48.8924 57.0641 48.9519 56.887C48.9996 56.7448 49.2316 56.1008 49.4674 55.456C49.8822 54.3215 49.898 54.1622 49.9536 50.5315C50.0209 46.1417 49.8786 45.1536 48.8899 43.1464C48.2343 41.8157 46.9788 40.2955 45.8686 39.4881L45.2648 39.0491L46.1454 38.1888C47.2056 37.153 48.5875 36.1937 49.8869 35.5917C51.0492 35.0531 51.0039 35.0569 51.561 35.4538ZM42.2331 42.7709C43.4065 43.3489 44.2365 44.2057 44.8111 45.432C45.2192 46.3032 45.2227 46.3417 45.2227 49.9876V53.6647L44.7134 54.6998C44.1209 55.9046 43.2739 56.7313 42.0391 57.3108C41.3063 57.6546 40.9415 57.7228 39.8333 57.7228C38.7252 57.7228 38.3604 57.6546 37.6276 57.3108C36.3928 56.7313 35.5458 55.9046 34.9533 54.6998L34.444 53.6647V49.9876C34.444 46.3537 34.4488 46.3004 34.8503 45.4436C36.2075 42.548 39.42 41.3849 42.2331 42.7709ZM35.4867 61.4757C38.2821 62.8042 41.3755 62.8085 44.1546 61.4877C45.2548 60.9648 45.3036 60.9563 46.1248 61.1475C47.05 61.3628 48.3052 61.9235 48.5664 62.2386C48.6848 62.3813 48.6793 62.8093 48.5473 63.7156C48.1965 66.125 48.8459 68.091 50.5617 69.8139L51.5493 70.8054V73.0578V75.3101H39.8333H28.1174V73.0578V70.8054L29.1031 69.8139C30.9042 68.002 31.5602 65.85 31.0643 63.3791C30.9277 62.6979 30.9305 62.4432 31.077 62.2665C31.3486 61.9389 32.5799 61.3693 33.5003 61.1456C33.9333 61.0403 34.2981 60.9482 34.3106 60.9408C34.3232 60.9335 34.8525 61.1743 35.4867 61.4757ZM6.31668 63.8979C8.48428 66.263 10.949 68.0929 13.7882 69.4445C16.6212 70.7933 18.6595 71.3719 21.8611 71.7363L23.431 71.9148V73.6124V75.3101H14.0583H4.6855L4.6905 68.6269L4.69534 61.9437L5.04042 62.4127C5.23006 62.6707 5.80445 63.339 6.31668 63.8979ZM74.9812 68.666V75.3101H65.6084H56.2357V73.6118V71.9136L57.9149 71.7272C63.6882 71.0868 68.7439 68.6283 72.79 64.4939C73.4053 63.8652 74.1268 63.0516 74.3933 62.6863C74.6598 62.3209 74.9012 62.0219 74.9296 62.0219C74.9579 62.0219 74.9812 65.0117 74.9812 68.666Z"/>
</mask>
<path fill-rule="evenodd" clip-rule="evenodd" d="M8.51271 0.110226C5.42095 0.796052 3.01231 2.92669 2.00271 5.86917C1.4958 7.34619 1.49392 9.76135 1.99849 11.2312C2.82142 13.6285 4.61365 15.5583 6.86873 16.4747L7.73165 16.8255L7.81397 21.5628C7.90786 26.9544 8.03673 27.7104 9.2869 30.2033L9.94627 31.5182L8.83904 32.1754C4.19937 34.9287 1.03153 39.6244 0.231726 44.9344C0.0397408 46.2089 0.000843883 49.1317 6.28204e-05 62.3017C-0.000874455 77.8642 0.00459298 78.1472 0.313581 78.7534C0.516033 79.1507 0.847829 79.4827 1.24476 79.6853C1.85759 79.9981 2.08488 80 39.8333 80C77.5818 80 77.8091 79.9981 78.4219 79.6853C78.8188 79.4827 79.1506 79.1507 79.3531 78.7534C79.6621 78.1472 79.6675 77.8642 79.6666 62.3017C79.6658 49.1317 79.6269 46.2089 79.4349 44.9344C78.6351 39.6244 75.4673 34.9287 70.8276 32.1754L69.7204 31.5182L70.3798 30.2033C70.7425 29.4801 71.2057 28.3059 71.409 27.5942C71.7657 26.3458 71.7787 26.1125 71.7747 20.9849L71.7707 15.6696L71.3433 14.2928C69.9247 9.72305 66.7531 6.55202 62.2197 5.17083C60.9984 4.79876 60.5895 4.75171 58.5788 4.75171C56.5682 4.75171 56.1593 4.79876 54.938 5.17083C50.4046 6.55202 47.233 9.72305 45.8144 14.2928L45.387 15.6696L45.3829 20.9849C45.379 26.1125 45.392 26.3458 45.7486 27.5942C45.952 28.3059 46.4185 29.4866 46.7853 30.218L47.4521 31.5477L46.9622 31.8C45.131 32.743 42.4313 35.0339 41.3174 36.59L40.6925 37.4628L39.828 37.4703C39.0223 37.4774 38.9439 37.4445 38.6756 36.9902C37.8766 35.6367 34.5652 32.7583 32.7044 31.8L32.2145 31.5477L32.8814 30.218C33.2482 29.4866 33.7146 28.3059 33.918 27.5942C34.2747 26.3458 34.2876 26.1125 34.2837 20.9849L34.2797 15.6696L33.8523 14.2928C32.4323 9.71867 29.2317 6.52185 24.7287 5.18006C23.6093 4.8466 23.0036 4.76609 21.4784 4.74827C20.4474 4.73623 19.2423 4.78063 18.8004 4.84676L17.997 4.96729L17.5993 4.28803C16.6084 2.59605 14.8795 1.15702 13.024 0.480106C11.8366 0.0467556 9.61854 -0.135058 8.51271 0.110226ZM11.4565 4.89866C12.1876 5.14801 13.5896 6.35645 13.5896 6.73727C13.5896 6.84092 13.1853 7.26239 12.6914 7.67386C11.5311 8.6403 10.3551 10.0209 9.61854 11.2812C9.03634 12.2775 9.03056 12.282 8.54786 12.1137C8.28105 12.0207 7.7707 11.6523 7.41391 11.2951C4.5057 8.3847 7.5506 3.56672 11.4565 4.89866ZM23.809 9.79762C26.338 10.6826 28.2489 12.5611 29.1514 15.0493L29.5136 16.0481L28.955 16.153C26.9906 16.5217 24.3714 15.4118 23.1942 13.7118C22.6926 12.9876 21.8097 12.4648 21.0878 12.4648C20.366 12.4648 19.4831 12.9876 18.9815 13.7118C17.8056 15.4098 15.185 16.5217 13.226 16.1539L12.6727 16.0501L12.9757 15.1689C13.9844 12.235 16.5481 10.0432 19.6819 9.43571C20.5305 9.27125 22.898 9.47886 23.809 9.79762ZM61.4186 9.84858C63.4939 10.6059 65.2793 12.167 66.2164 14.0437C66.9056 15.4241 66.8994 15.437 65.6475 15.1951C62.3123 14.5507 58.3725 12.5423 56.323 10.4419L55.737 9.84139L56.2597 9.67662C57.6948 9.22435 59.9106 9.2983 61.4186 9.84858ZM54.5726 15.0971C56.4422 16.6035 59.3576 18.1843 61.7812 19.0057C63.2301 19.4967 66.0371 20.125 66.7823 20.125H67.2043L67.1326 23.0562C67.0717 25.5491 67.0106 26.1258 66.7244 26.9129C65.7751 29.5248 63.8235 31.4666 61.2641 32.3461C59.8876 32.8193 57.3754 32.8526 56.0794 32.415C53.3987 31.5097 51.3242 29.4774 50.4264 26.877C50.0789 25.8705 50.0654 25.6482 50.069 20.9849C50.0726 16.341 50.0876 16.0993 50.4253 15.2006C50.6192 14.6847 50.9991 13.8971 51.2695 13.4505L51.7611 12.6383L52.843 13.6068C53.4382 14.1394 54.2165 14.8101 54.5726 15.0971ZM21.8942 18.9228C23.7419 20.2376 26.3833 21.008 28.5645 20.8685L29.7145 20.7951L29.6403 23.3913C29.5794 25.5244 29.5066 26.1526 29.2317 26.9129C28.2892 29.5196 26.3336 31.4661 23.7731 32.3461C22.3966 32.8193 19.8844 32.8526 18.5884 32.415C15.9431 31.5216 13.9652 29.6181 12.9948 27.0316C12.6503 26.1132 12.5945 25.6757 12.5322 23.3996L12.4615 20.8115L13.5085 20.8782C15.7015 21.018 18.102 20.3573 19.9943 19.0932C20.5528 18.7202 21.045 18.4129 21.0883 18.4102C21.1316 18.4076 21.4941 18.6382 21.8942 18.9228ZM14.07 35.4538C14.7584 35.9445 16.4104 36.6551 17.7622 37.0423C19.5035 37.5408 22.6721 37.5408 24.4134 37.0423C25.7808 36.6507 27.4188 35.9433 28.1274 35.4385L28.5995 35.1021L29.4724 35.4566C30.7143 35.9609 32.4626 37.1433 33.4958 38.1771L34.3817 39.0637L33.7879 39.4954C32.6872 40.2959 31.4302 41.8201 30.7768 43.1464C29.7881 45.1536 29.6458 46.1417 29.7131 50.5315C29.7687 54.1622 29.7845 54.3215 30.1992 55.456C30.4351 56.1008 30.6671 56.7448 30.7147 56.887C30.7743 57.0641 30.6866 57.18 30.4357 57.2552C30.2347 57.3154 29.5577 57.6807 28.9314 58.0667L27.7928 58.7688L27.2198 58.4966C26.3172 58.0679 25.1522 57.805 24.134 57.8001C20.4583 57.7822 16.7953 55.4821 15.1728 52.173C14.4866 50.7734 14.0654 49.1577 14.0609 47.9067C14.0558 46.4508 13.0173 45.2944 11.7151 45.2944C10.919 45.2944 10.0405 45.8464 9.66525 46.5826C9.36829 47.1648 9.34033 47.4049 9.42359 48.6519C9.91472 56.013 15.8941 61.9647 23.2748 62.4394C25.0908 62.5562 25.7959 62.8648 26.2408 63.7375C26.6392 64.5188 26.6392 65.1529 26.2408 65.9342C25.6181 67.1556 24.3984 67.4117 21.4002 66.9509C19.2839 66.6254 17.8024 66.1775 15.9964 65.317C13.7568 64.2499 12.1742 63.1351 10.4512 61.4108C7.28972 58.2469 5.39361 54.358 4.83078 49.8832C4.05003 43.6753 6.96574 38.1582 12.3829 35.5934C12.9177 35.3403 13.4148 35.133 13.4875 35.133C13.5601 35.1329 13.8222 35.2773 14.07 35.4538ZM51.561 35.4538C52.2494 35.9445 53.9014 36.6551 55.2532 37.0423C57.0025 37.5432 60.1624 37.541 61.921 37.0376C63.1262 36.6927 64.9651 35.8911 65.7837 35.3536C66.1811 35.0927 66.2239 35.0989 67.2174 35.5643C71.721 37.6734 74.628 41.9344 74.9329 46.8737C75.1733 50.7685 73.9245 55.1134 71.5409 58.6753C70.4807 60.2597 68.0653 62.6769 66.4821 63.7379C63.9377 65.4433 61.2598 66.4906 58.2664 66.9509C55.2682 67.4117 54.0485 67.1556 53.4259 65.9342C53.0275 65.1529 53.0275 64.5188 53.4259 63.7375C53.8708 62.8648 54.5759 62.5562 56.3919 62.4394C63.7695 61.965 69.7488 56.013 70.2426 48.6519C70.3263 47.4044 70.2984 47.1651 70.0014 46.5826C69.778 46.1442 69.4595 45.8186 69.0491 45.6091C67.3608 44.7472 65.6129 45.9135 65.6058 47.9067C65.6012 49.1577 65.1801 50.7734 64.4938 52.173C63.5797 54.0376 61.8479 55.7706 59.9848 56.6855C58.5212 57.4042 56.9678 57.7931 55.5327 57.8001C54.5145 57.805 53.3495 58.0679 52.4469 58.4966L51.8739 58.7688L50.7353 58.0667C50.109 57.6807 49.432 57.3154 49.2309 57.2552C48.9801 57.18 48.8924 57.0641 48.9519 56.887C48.9996 56.7448 49.2316 56.1008 49.4674 55.456C49.8822 54.3215 49.898 54.1622 49.9536 50.5315C50.0209 46.1417 49.8786 45.1536 48.8899 43.1464C48.2343 41.8157 46.9788 40.2955 45.8686 39.4881L45.2648 39.0491L46.1454 38.1888C47.2056 37.153 48.5875 36.1937 49.8869 35.5917C51.0492 35.0531 51.0039 35.0569 51.561 35.4538ZM42.2331 42.7709C43.4065 43.3489 44.2365 44.2057 44.8111 45.432C45.2192 46.3032 45.2227 46.3417 45.2227 49.9876V53.6647L44.7134 54.6998C44.1209 55.9046 43.2739 56.7313 42.0391 57.3108C41.3063 57.6546 40.9415 57.7228 39.8333 57.7228C38.7252 57.7228 38.3604 57.6546 37.6276 57.3108C36.3928 56.7313 35.5458 55.9046 34.9533 54.6998L34.444 53.6647V49.9876C34.444 46.3537 34.4488 46.3004 34.8503 45.4436C36.2075 42.548 39.42 41.3849 42.2331 42.7709ZM35.4867 61.4757C38.2821 62.8042 41.3755 62.8085 44.1546 61.4877C45.2548 60.9648 45.3036 60.9563 46.1248 61.1475C47.05 61.3628 48.3052 61.9235 48.5664 62.2386C48.6848 62.3813 48.6793 62.8093 48.5473 63.7156C48.1965 66.125 48.8459 68.091 50.5617 69.8139L51.5493 70.8054V73.0578V75.3101H39.8333H28.1174V73.0578V70.8054L29.1031 69.8139C30.9042 68.002 31.5602 65.85 31.0643 63.3791C30.9277 62.6979 30.9305 62.4432 31.077 62.2665C31.3486 61.9389 32.5799 61.3693 33.5003 61.1456C33.9333 61.0403 34.2981 60.9482 34.3106 60.9408C34.3232 60.9335 34.8525 61.1743 35.4867 61.4757ZM6.31668 63.8979C8.48428 66.263 10.949 68.0929 13.7882 69.4445C16.6212 70.7933 18.6595 71.3719 21.8611 71.7363L23.431 71.9148V73.6124V75.3101H14.0583H4.6855L4.6905 68.6269L4.69534 61.9437L5.04042 62.4127C5.23006 62.6707 5.80445 63.339 6.31668 63.8979ZM74.9812 68.666V75.3101H65.6084H56.2357V73.6118V71.9136L57.9149 71.7272C63.6882 71.0868 68.7439 68.6283 72.79 64.4939C73.4053 63.8652 74.1268 63.0516 74.3933 62.6863C74.6598 62.3209 74.9012 62.0219 74.9296 62.0219C74.9579 62.0219 74.9812 65.0117 74.9812 68.666Z" fill="#343F3E" stroke="white" stroke-width="2" mask="url(#path-2-inside-1_207_14)"/>
</svg>
