<svg width="59" height="59" viewBox="0 0 59 59" fill="none" xmlns="http://www.w3.org/2000/svg">
<path d="M12 30L5 30.5L4 50H38L37.5 33V31.5L36.5 30.5L12 30Z" fill="#E6F2FF"/>
<path d="M18 11.5L13.5 11V7L14.5 4.5L15.5 1.5L18 1H21H24.5L28 3.5L28.5 10.5V12L24 8.5L18 11.5Z" fill="#E6F2FF"/>
<path fill-rule="evenodd" clip-rule="evenodd" d="M17.9586 0.177592C15.7777 0.650922 13.6929 2.27684 12.6852 4.29052C11.9571 5.74591 11.8047 6.6113 11.8021 9.30768L11.8 11.5585L11.4446 12.0124C10.9631 12.6274 10.7722 13.2903 10.8524 14.0683C10.9333 14.8518 11.1685 15.3305 11.7495 15.895C12.1853 16.3184 13.0663 16.7077 13.5884 16.7077C13.8096 16.7077 13.8729 16.7994 13.9395 17.2166C14.0534 17.929 14.7485 19.3728 15.2836 20.0081L15.7333 20.5422V22.5432V24.5443L14.8478 24.6315C12.2565 24.887 9.74188 26.4302 8.35833 28.6144L7.80521 29.4875L6.65176 29.4906C5.11026 29.4949 4.62326 29.6559 3.8677 30.4117C3.0224 31.2571 2.95 31.5717 2.95 34.4005V44.8504V48.2174C2.95 51.5015 2.9913 51.9515 3.37861 52.8836C3.46072 53.0813 3.35181 53.0988 2.03575 53.0988C0.678869 53.0988 0.587542 53.1146 0.30176 53.4006C0.00245833 53.6998 0 53.7213 0 56.0494C0 58.3774 0.00245833 58.3989 0.30176 58.6982L0.603398 59H29.5H58.3966L58.6982 58.6982C58.9975 58.3989 59 58.3774 59 56.0494C59 53.7213 58.9975 53.6998 58.6982 53.4006L58.3966 53.0988H54.7741H51.1515L51.5726 52.2906C51.8042 51.8462 51.9938 51.4036 51.9938 51.3071C51.9938 51.1742 52.1765 51.1317 52.7477 51.1317C53.8772 51.1317 54.4257 50.9206 55.1323 50.2138C55.909 49.4369 56.05 48.9751 56.05 47.2084C56.05 45.913 56.0327 45.8166 55.7482 45.5322C55.4577 45.2415 55.3855 45.2304 53.7816 45.2304H52.1167V44.5487C52.1167 43.9887 52.0627 43.8129 51.8149 43.5652L51.5133 43.2633H46.2167H40.9201L40.6184 43.5652L40.3167 43.8669L40.3181 47.2842C40.3197 50.9838 40.3886 51.5255 40.9872 52.5472L41.3103 53.0988H39.5712C37.9627 53.0988 37.8388 53.0825 37.9214 52.8836C38.3447 51.8649 38.35 51.7268 38.35 41.8135C38.35 34.5013 38.3124 31.9152 38.2005 31.5366C38.001 30.8613 36.9828 29.8428 36.3076 29.6433C36.0293 29.561 35.2826 29.4923 34.6482 29.4906L33.4948 29.4875L32.9417 28.6144C31.5581 26.4302 29.0435 24.887 26.4522 24.6315L25.5667 24.5443V22.5737V20.6032L26.0533 19.9723C26.6224 19.2344 27.1093 18.2207 27.3193 17.3361C27.4398 16.8288 27.518 16.7077 27.725 16.7077C29.0908 16.7077 30.4833 15.2032 30.4833 13.7276C30.4833 13.143 30.1682 12.2906 29.8131 11.9147C29.5278 11.6126 29.52 11.5452 29.4741 8.96234C29.4299 6.48123 29.4072 6.26375 29.1035 5.41729C28.6357 4.1136 28.083 3.24796 27.0765 2.24217C26.0433 1.20994 24.6748 0.461098 23.2927 0.171814C22.1852 -0.0599327 19.0378 -0.0564905 17.9586 0.177592ZM5.21843 31.7627C4.91913 32.0619 4.91667 32.0834 4.91667 34.4115V47.0076V49.1646H20.65H36.3833V40.6145V32.0644L36.0816 31.7627L35.7799 31.4608H20.65H5.52006L5.21843 31.7627ZM26.8648 5.21259C26.1237 3.70469 24.7246 2.58124 23.0417 2.14283C22.0908 1.8951 19.1352 1.89879 18.2054 2.14898C16.1278 2.70775 14.4981 4.36096 13.9501 6.46574C13.8275 6.93624 13.7667 7.77299 13.7667 8.98815V10.8065H15.5263C16.4942 10.8065 17.6143 10.7465 18.0154 10.6733C19.4502 10.4112 21.0924 9.60508 22.511 8.46639C23.6564 7.5469 23.7121 7.563 25.5003 9.33117C26.4976 10.3174 27.0819 10.8065 27.2628 10.8065C27.5285 10.8065 27.5333 10.7764 27.5333 9.102C27.5333 7.02734 27.4131 6.32829 26.8648 5.21259ZM24.583 18.6455C25.3839 17.5857 25.482 17.1642 25.5353 14.5562L25.583 12.2203L24.5607 11.209L23.5385 10.1977L22.7396 10.7563C20.975 11.9902 19.1713 12.6172 17.0426 12.7367L15.7092 12.8117L15.7623 14.8519C15.8217 17.1335 15.9452 17.6241 16.717 18.6455C17.7044 19.9523 18.9813 20.5804 20.65 20.5804C22.3187 20.5804 23.5956 19.9523 24.583 18.6455ZM13.5768 14.7406C13.7323 14.7406 13.7667 14.5623 13.7667 13.7571C13.7667 12.9519 13.7323 12.7736 13.5768 12.7736C13.2457 12.7736 12.7833 13.3468 12.7833 13.7571C12.7833 14.1674 13.2457 14.7406 13.5768 14.7406ZM28.5167 13.7571C28.5167 13.5176 28.4052 13.2656 28.2149 13.0754C27.6639 12.5241 27.5333 12.6546 27.5333 13.7571C27.5333 14.5623 27.5678 14.7406 27.7232 14.7406C28.0543 14.7406 28.5167 14.1674 28.5167 13.7571ZM20.65 22.5259C19.507 22.5259 19.0974 22.475 18.5104 22.2601C18.1112 22.1139 17.7654 21.9943 17.7422 21.9943C17.7191 21.9943 17.7009 22.6443 17.702 23.4388C17.7045 25.214 17.8989 25.6702 18.8644 26.1671C19.3947 26.44 19.6315 26.4817 20.65 26.4817C21.6685 26.4817 21.9053 26.44 22.4356 26.1671C23.4011 25.6702 23.5955 25.214 23.598 23.4388C23.5991 22.6443 23.5809 21.9943 23.5578 21.9943C23.5346 21.9943 23.1888 22.1139 22.7896 22.2601C22.2026 22.475 21.793 22.5259 20.65 22.5259ZM20.65 28.5065C19.0174 28.5065 17.677 27.9995 16.7651 27.0369C16.3161 26.5631 16.2673 26.5435 15.5544 26.5533C13.6773 26.5793 11.6116 27.5722 10.4646 28.9995L10.0676 29.4938H20.5828C26.9013 29.4938 31.0979 29.4486 31.0979 29.3807C31.0979 29.3184 30.7712 28.9408 30.3717 28.5412C29.1544 27.3236 27.3363 26.5494 25.6842 26.545C25.0473 26.5433 24.9721 26.5755 24.5349 27.0369C23.623 27.9995 22.2826 28.5065 20.65 28.5065ZM49.2751 52.2236C50.0604 51.4383 50.15 50.9967 50.15 47.9133V45.2304H46.2087H42.2672L42.3061 48.1503C42.349 51.3895 42.3642 51.4585 43.2161 52.286C43.866 52.9173 44.5359 53.0988 46.2167 53.0988C47.9387 53.0988 48.5851 52.9138 49.2751 52.2236ZM53.7816 48.8628C54.0294 48.615 54.0833 48.4392 54.0833 47.8792V47.1975H53.1H52.1167V48.181V49.1646H52.7982C53.3581 49.1646 53.5339 49.1106 53.7816 48.8628ZM35.4756 52.7838C35.9485 52.4307 36.2439 52.0004 36.3358 51.5312L36.4141 51.1317H20.65H4.88594L4.96424 51.5312C5.05605 52.0004 5.35155 52.4307 5.82441 52.7838C6.1628 53.0364 6.21086 53.0373 20.65 53.0373C35.0891 53.0373 35.1372 53.0364 35.4756 52.7838ZM57.0333 57.0329V56.0494V55.0658H29.5H1.96667V56.0494V57.0329H29.5H57.0333Z" fill="#343F3E"/>
<path fill-rule="evenodd" clip-rule="evenodd" d="M43.5684 35.6968C43.2691 35.9961 43.2667 36.0176 43.2667 38.3456C43.2667 40.6737 43.2691 40.6952 43.5684 40.9944C43.7586 41.1847 44.0106 41.2963 44.25 41.2963C44.4894 41.2963 44.7414 41.1847 44.9316 40.9944C45.2309 40.6952 45.2333 40.6737 45.2333 38.3456C45.2333 36.0176 45.2309 35.9961 44.9316 35.6968C44.7414 35.5065 44.4894 35.395 44.25 35.395C44.0106 35.395 43.7586 35.5065 43.5684 35.6968ZM47.5018 35.6968C47.2025 35.9961 47.2 36.0176 47.2 38.3456C47.2 40.6737 47.2025 40.6952 47.5018 40.9944C47.6919 41.1847 47.9439 41.2963 48.1833 41.2963C48.4228 41.2963 48.6748 41.1847 48.8649 40.9944C49.1642 40.6952 49.1667 40.6737 49.1667 38.3456C49.1667 36.0176 49.1642 35.9961 48.8649 35.6968C48.6748 35.5065 48.4228 35.395 48.1833 35.395C47.9439 35.395 47.6919 35.5065 47.5018 35.6968ZM19.6667 37.5228C19.0634 37.713 18.0345 38.7786 17.8495 39.4049C17.509 40.5576 17.749 41.4766 18.6177 42.3455C19.8757 43.6038 21.6117 43.577 22.7763 42.2813C23.8364 41.102 23.8767 39.6153 22.8803 38.4509C22.0882 37.5252 20.8204 37.1591 19.6667 37.5228ZM21.3316 39.631C21.9414 40.2408 21.5093 41.2963 20.65 41.2963C20.1447 41.2963 19.6667 40.8181 19.6667 40.3127C19.6667 39.8073 20.1447 39.3292 20.65 39.3292C20.8894 39.3292 21.1414 39.4407 21.3316 39.631Z" fill="#343F3E"/>
</svg>
