<svg width="64" height="64" viewBox="0 0 64 64" fill="none" xmlns="http://www.w3.org/2000/svg">
<path d="M22 14.5L26 12.5L32.5 13L31 61.5L29 62.5L25 61L22 57L16.5 54.5L14 51V46L11 41V36L14 30.5V26L16.5 21L21 19L22 14.5Z" fill="#E6F2FF"/>
<mask id="path-2-inside-1_199_741" fill="white">
<path fill-rule="evenodd" clip-rule="evenodd" d="M31.0947 0.231684C30.8043 0.385131 30.5291 0.671122 30.3684 0.986275C30.1282 1.45775 30.1125 1.6704 30.1482 3.9791C30.1903 6.70109 30.2136 6.78958 31.0477 7.41287C31.5194 7.76532 32.4806 7.76532 32.9523 7.41287C33.7864 6.78958 33.8097 6.70109 33.8518 3.9791C33.8875 1.66952 33.872 1.45788 33.6312 0.985774C33.1624 0.0658472 32.04 -0.267705 31.0947 0.231684ZM15.4906 2.70435C14.8677 3.02976 14.439 3.91515 14.5572 4.63232C14.6356 5.1078 14.8364 5.36162 16.3508 6.89897C17.2888 7.85106 18.2203 8.71629 18.4209 8.82155C18.9032 9.07487 19.8487 8.981 20.3395 8.63118C20.8472 8.26934 21.1599 7.46694 21.051 6.80497C20.9778 6.36065 20.7451 6.06915 19.2614 4.56298C18.3235 3.61088 17.4041 2.75203 17.2184 2.65428C16.7543 2.41035 16.0124 2.43187 15.4906 2.70435ZM46.6941 2.71273C46.4878 2.84202 45.5797 3.70062 44.6762 4.62093C43.2532 6.07041 43.0221 6.36253 42.9492 6.80497C42.8401 7.46682 43.1526 8.26934 43.6605 8.63118C44.1513 8.981 45.0968 9.07487 45.5791 8.82155C45.7797 8.71629 46.7112 7.85106 47.6492 6.89897C49.1636 5.36162 49.3644 5.1078 49.4428 4.63232C49.561 3.91515 49.1323 3.02976 48.5094 2.70435C47.9479 2.4111 47.1699 2.41473 46.6941 2.71273ZM1.17364 5.78254C0.368903 6.1405 -0.0845512 7.05479 0.111287 7.92428C0.245847 8.52104 0.409671 8.68963 2.14258 10.0135C2.95056 10.6307 3.641 11.1834 3.67702 11.2416C3.71303 11.3 3.09988 11.5484 2.3144 11.7939C1.12112 12.1667 0.823482 12.3115 0.504589 12.675C-0.272261 13.5607 -0.143578 14.6568 0.831736 15.461C1.15738 15.7295 2.67844 16.8971 4.21201 18.0557C6.76228 19.9825 7.05153 20.1672 7.60215 20.2201C8.77981 20.3334 9.61493 19.5968 9.61493 18.445C9.61493 18.1227 9.5319 17.6984 9.43048 17.502C9.32906 17.3058 8.52707 16.6 7.64843 15.9338C6.76978 15.2675 6.03795 14.6847 6.02219 14.6386C6.00644 14.5924 6.59733 14.3653 7.33528 14.1336C8.07324 13.9018 8.82483 13.6073 9.00554 13.4789C9.41059 13.191 9.73999 12.5222 9.73999 11.9871C9.73999 11.1642 9.34831 10.7679 6.0926 8.29675C4.36933 6.98883 2.81088 5.85087 2.62929 5.76789C2.1961 5.57002 1.63872 5.57565 1.17364 5.78254ZM61.3707 5.76789C61.1891 5.85087 59.6307 6.98883 57.9074 8.29675C54.6517 10.7679 54.26 11.1642 54.26 11.9871C54.26 12.524 54.5897 13.1911 54.9993 13.483C55.1827 13.6137 55.9354 13.9083 56.6721 14.1377C57.4089 14.367 58.0117 14.5847 58.0117 14.6211C58.0117 14.6576 57.2756 15.2464 56.376 15.9295C55.4764 16.6126 54.6604 17.3262 54.5626 17.5153C54.465 17.7044 54.3851 18.1227 54.3851 18.445C54.3851 19.6 55.2198 20.3334 56.4047 20.2195C56.9645 20.1657 57.238 19.991 59.7949 18.0556C61.3247 16.8976 62.8426 15.7304 63.1683 15.4615C64.1441 14.6561 64.2723 13.5606 63.4945 12.6741C63.1756 12.3106 62.8749 12.1633 61.6873 11.789C60.9037 11.542 60.2627 11.32 60.2627 11.2956C60.2627 11.2711 60.924 10.7464 61.7321 10.1293C63.4988 8.78075 63.7545 8.51954 63.888 7.92716C64.2206 6.45139 62.7104 5.15599 61.3707 5.76789ZM26.8064 10.2354C24.8504 10.5086 23.3163 11.294 21.7947 12.8011C20.8502 13.7363 20.5606 14.1213 20.098 15.0554C19.7913 15.6749 19.4679 16.5252 19.3793 16.9448L19.2183 17.7078L18.2446 18.1062C15.1697 19.3644 12.9691 21.9646 12.305 25.1244C12.0717 26.2346 12.0653 28.055 12.2911 29.1339L12.461 29.9455L11.9777 30.4949C10.9071 31.7121 10.0516 33.28 9.5294 34.9813C9.21888 35.9934 9.19099 36.2592 9.18437 38.2726C9.17811 40.1985 9.212 40.5838 9.46499 41.4642C9.82353 42.711 10.553 44.2354 11.262 45.219L11.8034 45.97L11.7642 47.7222C11.7315 49.1733 11.769 49.6465 11.9822 50.4757C12.9328 54.173 15.8133 57.0262 19.5201 57.942C20.5782 58.2035 20.6019 58.2176 20.8225 58.7227C21.5547 60.3988 23.1598 62.1499 24.7065 62.9601C26.1886 63.7363 27.2228 63.9871 28.9361 63.9858C29.9782 63.985 30.6757 63.9179 31.2184 63.7664C31.9617 63.5588 32.0383 63.5588 32.7816 63.7664C33.9924 64.1045 36.2938 64.0706 37.5025 63.6969C39.0911 63.2055 40.0798 62.6094 41.2607 61.4307C42.0974 60.5956 42.4507 60.1264 42.885 59.2741L43.44 58.1848L44.3792 57.979C47.1678 57.3674 49.7178 55.4024 51.1115 52.7912C52.018 51.0925 52.1799 50.3842 52.2025 48.02L52.2222 45.9397L52.7508 45.2039C53.4494 44.2312 54.1793 42.7012 54.535 41.4642C54.7849 40.595 54.8228 40.1823 54.8228 38.3352C54.8228 36.4901 54.7847 36.0762 54.5368 35.2193C54.0252 33.4516 53.0348 31.6111 51.9431 30.3995L51.5377 29.9495L51.7224 29.0733C52.0096 27.7107 51.8863 25.4681 51.4539 24.1921C50.5743 21.5964 48.988 19.7276 46.6316 18.5115C46.1157 18.2451 45.4899 17.9621 45.2408 17.8825C44.8141 17.746 44.7786 17.6928 44.6239 16.9597C44.4145 15.9672 43.5503 14.2374 42.8559 13.4203C41.6327 11.9812 40.0372 10.9455 38.3183 10.4747C36.4706 9.96852 33.8328 10.1707 32.3635 10.9311C32.0413 11.098 31.9591 11.0981 31.6401 10.933C30.5412 10.3643 28.2502 10.0336 26.8064 10.2354ZM29.5431 14.1492C29.8083 14.2262 30.048 14.349 30.0759 14.422C30.1038 14.4951 30.112 17.637 30.0941 21.4039L30.0616 28.2532L29.2488 27.6791C28.8017 27.3633 27.9576 26.8719 27.3729 26.5872C26.4764 26.1506 26.1886 26.0695 25.5353 26.0695C24.8209 26.0695 24.7259 26.1032 24.3135 26.5032C23.7028 27.0957 23.5354 27.7486 23.8101 28.4684C24.0463 29.0874 24.5263 29.4911 25.4149 29.8185C26.8932 30.3631 28.74 31.9573 29.6727 33.4939L30.1242 34.2377V47.192V60.1465L29.8428 60.2219C28.9326 60.466 27.324 60.1475 26.2645 59.5133C25.1157 58.8255 24.3699 57.7692 23.9352 56.2136C23.7888 55.6894 23.5901 55.3172 23.314 55.0492C22.9463 54.6926 22.7849 54.6392 21.6076 54.4845C20.1392 54.2915 19.53 54.109 18.6695 53.6044C17.2909 52.7957 16.1846 51.397 15.7244 49.8806C15.5145 49.1888 15.4737 48.7793 15.512 47.746C15.5681 46.2263 15.8531 45.5181 16.8657 44.3816C17.472 43.7011 19.2845 42.1526 19.4749 42.1526C19.5248 42.1526 19.6673 42.3252 19.7919 42.5362C20.1683 43.1739 21.5312 44.5574 21.9602 44.7374C22.5372 44.9793 23.1181 44.945 23.619 44.6395C24.166 44.3057 24.3336 44.0883 24.4999 43.496C24.6987 42.7889 24.4895 42.2509 23.6724 41.3676C22.3256 39.9117 21.8074 38.1382 22.1078 36.0133C22.2581 34.9505 22.2526 34.8624 22.0043 34.36C21.623 33.5892 21.2046 33.3288 20.3476 33.3288C19.557 33.3288 19.0908 33.5835 18.719 34.2188C18.4495 34.6794 18.1933 36.7371 18.2896 37.6685L18.363 38.3786L17.2864 39.0955C16.6942 39.4899 15.655 40.3453 14.9772 40.9965L13.7448 42.1804L13.4951 41.5972C12.9748 40.3826 12.8375 39.5467 12.8977 37.9597C12.9432 36.7572 13.0173 36.2896 13.2697 35.614C13.7435 34.3456 14.3264 33.4588 15.3894 32.3888C16.6752 31.0945 16.7501 30.8218 16.2432 29.2819C15.4082 26.7462 15.9404 24.5299 17.8086 22.7615C18.7362 21.8834 19.8114 21.3984 21.2263 21.2197C22.2112 21.0953 22.5085 21.1075 23.5813 21.3172C24.2568 21.4492 25.1602 21.5586 25.589 21.5605C26.3214 21.5635 26.3962 21.5361 26.8254 21.1064C27.1975 20.7339 27.2934 20.5338 27.3418 20.0288C27.4158 19.2579 27.1303 18.5977 26.5781 18.263C26.1739 18.0181 24.1437 17.496 23.5953 17.496C23.4261 17.496 23.2513 17.4596 23.2068 17.415C23.1624 17.3705 23.3016 17.0043 23.5162 16.6013C24.6431 14.4853 27.167 13.4585 29.5431 14.1492ZM36.8914 13.9933C39.1021 14.4098 40.9269 16.3765 41.0831 18.5108C41.1794 19.8269 41.2487 20.0987 41.5919 20.507C41.9702 20.9568 42.1985 21.0585 43.3902 21.3072C46.0568 21.8636 48.1323 24.2882 48.1323 26.847C48.1323 27.4544 48.1064 27.5247 47.9134 27.4438C45.4297 26.4018 42.2272 26.0644 41.2733 26.7442C40.4846 27.3063 40.2102 28.5546 40.7232 29.2477C41.2305 29.9336 41.7055 30.1371 42.8046 30.1393C46.0612 30.1463 48.9466 31.8983 50.3246 34.7055C50.9229 35.9242 51.1336 36.8638 51.1336 38.3122C51.1336 40.4274 50.5049 42.1217 49.1308 43.7101C48.1987 44.7876 48.0518 45.2479 48.3157 46.267C48.5888 47.3218 48.5637 48.9528 48.2592 49.9397C47.9397 50.9749 47.2283 52.0693 46.3783 52.8334C45.244 53.8532 44.0021 54.3501 42.2152 54.4993C41.3093 54.5748 41.1659 54.6239 40.7491 55.0009C40.4011 55.3154 40.2328 55.612 40.0681 56.2013C39.6299 57.7696 38.8875 58.8237 37.7355 59.5133C36.676 60.1475 35.0674 60.466 34.1572 60.2219L33.8758 60.1465V51.9142V43.682L34.4187 42.9486C35.6029 41.3488 37.1945 40.2754 38.3826 40.2753C39.1308 40.2752 39.9906 39.8337 40.303 39.2892C40.8153 38.3961 40.4602 37.1412 39.5763 36.7214C38.4784 36.2 35.9993 36.7046 34.4207 37.771L33.8758 38.1389V26.2499V14.3608L34.2197 14.2283C35.1003 13.8892 35.9445 13.8149 36.8914 13.9933ZM42.6298 42.418C42.0459 42.6503 41.6323 43.1801 41.3756 44.0243C41.2385 44.4749 40.9593 45.0634 40.7548 45.3321C40.268 45.9723 39.2825 46.7055 38.5367 46.9824C37.3254 47.432 36.8772 47.9631 36.8772 48.949C36.8772 49.9347 37.7341 50.788 38.7243 50.7884C39.2384 50.7886 40.3973 50.3217 41.412 49.7054C43.4748 48.4524 45.1309 45.9509 45.1309 44.0883C45.1309 42.8569 43.7853 41.9582 42.6298 42.418Z"/>
</mask>
<path fill-rule="evenodd" clip-rule="evenodd" d="M31.0947 0.231684C30.8043 0.385131 30.5291 0.671122 30.3684 0.986275C30.1282 1.45775 30.1125 1.6704 30.1482 3.9791C30.1903 6.70109 30.2136 6.78958 31.0477 7.41287C31.5194 7.76532 32.4806 7.76532 32.9523 7.41287C33.7864 6.78958 33.8097 6.70109 33.8518 3.9791C33.8875 1.66952 33.872 1.45788 33.6312 0.985774C33.1624 0.0658472 32.04 -0.267705 31.0947 0.231684ZM15.4906 2.70435C14.8677 3.02976 14.439 3.91515 14.5572 4.63232C14.6356 5.1078 14.8364 5.36162 16.3508 6.89897C17.2888 7.85106 18.2203 8.71629 18.4209 8.82155C18.9032 9.07487 19.8487 8.981 20.3395 8.63118C20.8472 8.26934 21.1599 7.46694 21.051 6.80497C20.9778 6.36065 20.7451 6.06915 19.2614 4.56298C18.3235 3.61088 17.4041 2.75203 17.2184 2.65428C16.7543 2.41035 16.0124 2.43187 15.4906 2.70435ZM46.6941 2.71273C46.4878 2.84202 45.5797 3.70062 44.6762 4.62093C43.2532 6.07041 43.0221 6.36253 42.9492 6.80497C42.8401 7.46682 43.1526 8.26934 43.6605 8.63118C44.1513 8.981 45.0968 9.07487 45.5791 8.82155C45.7797 8.71629 46.7112 7.85106 47.6492 6.89897C49.1636 5.36162 49.3644 5.1078 49.4428 4.63232C49.561 3.91515 49.1323 3.02976 48.5094 2.70435C47.9479 2.4111 47.1699 2.41473 46.6941 2.71273ZM1.17364 5.78254C0.368903 6.1405 -0.0845512 7.05479 0.111287 7.92428C0.245847 8.52104 0.409671 8.68963 2.14258 10.0135C2.95056 10.6307 3.641 11.1834 3.67702 11.2416C3.71303 11.3 3.09988 11.5484 2.3144 11.7939C1.12112 12.1667 0.823482 12.3115 0.504589 12.675C-0.272261 13.5607 -0.143578 14.6568 0.831736 15.461C1.15738 15.7295 2.67844 16.8971 4.21201 18.0557C6.76228 19.9825 7.05153 20.1672 7.60215 20.2201C8.77981 20.3334 9.61493 19.5968 9.61493 18.445C9.61493 18.1227 9.5319 17.6984 9.43048 17.502C9.32906 17.3058 8.52707 16.6 7.64843 15.9338C6.76978 15.2675 6.03795 14.6847 6.02219 14.6386C6.00644 14.5924 6.59733 14.3653 7.33528 14.1336C8.07324 13.9018 8.82483 13.6073 9.00554 13.4789C9.41059 13.191 9.73999 12.5222 9.73999 11.9871C9.73999 11.1642 9.34831 10.7679 6.0926 8.29675C4.36933 6.98883 2.81088 5.85087 2.62929 5.76789C2.1961 5.57002 1.63872 5.57565 1.17364 5.78254ZM61.3707 5.76789C61.1891 5.85087 59.6307 6.98883 57.9074 8.29675C54.6517 10.7679 54.26 11.1642 54.26 11.9871C54.26 12.524 54.5897 13.1911 54.9993 13.483C55.1827 13.6137 55.9354 13.9083 56.6721 14.1377C57.4089 14.367 58.0117 14.5847 58.0117 14.6211C58.0117 14.6576 57.2756 15.2464 56.376 15.9295C55.4764 16.6126 54.6604 17.3262 54.5626 17.5153C54.465 17.7044 54.3851 18.1227 54.3851 18.445C54.3851 19.6 55.2198 20.3334 56.4047 20.2195C56.9645 20.1657 57.238 19.991 59.7949 18.0556C61.3247 16.8976 62.8426 15.7304 63.1683 15.4615C64.1441 14.6561 64.2723 13.5606 63.4945 12.6741C63.1756 12.3106 62.8749 12.1633 61.6873 11.789C60.9037 11.542 60.2627 11.32 60.2627 11.2956C60.2627 11.2711 60.924 10.7464 61.7321 10.1293C63.4988 8.78075 63.7545 8.51954 63.888 7.92716C64.2206 6.45139 62.7104 5.15599 61.3707 5.76789ZM26.8064 10.2354C24.8504 10.5086 23.3163 11.294 21.7947 12.8011C20.8502 13.7363 20.5606 14.1213 20.098 15.0554C19.7913 15.6749 19.4679 16.5252 19.3793 16.9448L19.2183 17.7078L18.2446 18.1062C15.1697 19.3644 12.9691 21.9646 12.305 25.1244C12.0717 26.2346 12.0653 28.055 12.2911 29.1339L12.461 29.9455L11.9777 30.4949C10.9071 31.7121 10.0516 33.28 9.5294 34.9813C9.21888 35.9934 9.19099 36.2592 9.18437 38.2726C9.17811 40.1985 9.212 40.5838 9.46499 41.4642C9.82353 42.711 10.553 44.2354 11.262 45.219L11.8034 45.97L11.7642 47.7222C11.7315 49.1733 11.769 49.6465 11.9822 50.4757C12.9328 54.173 15.8133 57.0262 19.5201 57.942C20.5782 58.2035 20.6019 58.2176 20.8225 58.7227C21.5547 60.3988 23.1598 62.1499 24.7065 62.9601C26.1886 63.7363 27.2228 63.9871 28.9361 63.9858C29.9782 63.985 30.6757 63.9179 31.2184 63.7664C31.9617 63.5588 32.0383 63.5588 32.7816 63.7664C33.9924 64.1045 36.2938 64.0706 37.5025 63.6969C39.0911 63.2055 40.0798 62.6094 41.2607 61.4307C42.0974 60.5956 42.4507 60.1264 42.885 59.2741L43.44 58.1848L44.3792 57.979C47.1678 57.3674 49.7178 55.4024 51.1115 52.7912C52.018 51.0925 52.1799 50.3842 52.2025 48.02L52.2222 45.9397L52.7508 45.2039C53.4494 44.2312 54.1793 42.7012 54.535 41.4642C54.7849 40.595 54.8228 40.1823 54.8228 38.3352C54.8228 36.4901 54.7847 36.0762 54.5368 35.2193C54.0252 33.4516 53.0348 31.6111 51.9431 30.3995L51.5377 29.9495L51.7224 29.0733C52.0096 27.7107 51.8863 25.4681 51.4539 24.1921C50.5743 21.5964 48.988 19.7276 46.6316 18.5115C46.1157 18.2451 45.4899 17.9621 45.2408 17.8825C44.8141 17.746 44.7786 17.6928 44.6239 16.9597C44.4145 15.9672 43.5503 14.2374 42.8559 13.4203C41.6327 11.9812 40.0372 10.9455 38.3183 10.4747C36.4706 9.96852 33.8328 10.1707 32.3635 10.9311C32.0413 11.098 31.9591 11.0981 31.6401 10.933C30.5412 10.3643 28.2502 10.0336 26.8064 10.2354ZM29.5431 14.1492C29.8083 14.2262 30.048 14.349 30.0759 14.422C30.1038 14.4951 30.112 17.637 30.0941 21.4039L30.0616 28.2532L29.2488 27.6791C28.8017 27.3633 27.9576 26.8719 27.3729 26.5872C26.4764 26.1506 26.1886 26.0695 25.5353 26.0695C24.8209 26.0695 24.7259 26.1032 24.3135 26.5032C23.7028 27.0957 23.5354 27.7486 23.8101 28.4684C24.0463 29.0874 24.5263 29.4911 25.4149 29.8185C26.8932 30.3631 28.74 31.9573 29.6727 33.4939L30.1242 34.2377V47.192V60.1465L29.8428 60.2219C28.9326 60.466 27.324 60.1475 26.2645 59.5133C25.1157 58.8255 24.3699 57.7692 23.9352 56.2136C23.7888 55.6894 23.5901 55.3172 23.314 55.0492C22.9463 54.6926 22.7849 54.6392 21.6076 54.4845C20.1392 54.2915 19.53 54.109 18.6695 53.6044C17.2909 52.7957 16.1846 51.397 15.7244 49.8806C15.5145 49.1888 15.4737 48.7793 15.512 47.746C15.5681 46.2263 15.8531 45.5181 16.8657 44.3816C17.472 43.7011 19.2845 42.1526 19.4749 42.1526C19.5248 42.1526 19.6673 42.3252 19.7919 42.5362C20.1683 43.1739 21.5312 44.5574 21.9602 44.7374C22.5372 44.9793 23.1181 44.945 23.619 44.6395C24.166 44.3057 24.3336 44.0883 24.4999 43.496C24.6987 42.7889 24.4895 42.2509 23.6724 41.3676C22.3256 39.9117 21.8074 38.1382 22.1078 36.0133C22.2581 34.9505 22.2526 34.8624 22.0043 34.36C21.623 33.5892 21.2046 33.3288 20.3476 33.3288C19.557 33.3288 19.0908 33.5835 18.719 34.2188C18.4495 34.6794 18.1933 36.7371 18.2896 37.6685L18.363 38.3786L17.2864 39.0955C16.6942 39.4899 15.655 40.3453 14.9772 40.9965L13.7448 42.1804L13.4951 41.5972C12.9748 40.3826 12.8375 39.5467 12.8977 37.9597C12.9432 36.7572 13.0173 36.2896 13.2697 35.614C13.7435 34.3456 14.3264 33.4588 15.3894 32.3888C16.6752 31.0945 16.7501 30.8218 16.2432 29.2819C15.4082 26.7462 15.9404 24.5299 17.8086 22.7615C18.7362 21.8834 19.8114 21.3984 21.2263 21.2197C22.2112 21.0953 22.5085 21.1075 23.5813 21.3172C24.2568 21.4492 25.1602 21.5586 25.589 21.5605C26.3214 21.5635 26.3962 21.5361 26.8254 21.1064C27.1975 20.7339 27.2934 20.5338 27.3418 20.0288C27.4158 19.2579 27.1303 18.5977 26.5781 18.263C26.1739 18.0181 24.1437 17.496 23.5953 17.496C23.4261 17.496 23.2513 17.4596 23.2068 17.415C23.1624 17.3705 23.3016 17.0043 23.5162 16.6013C24.6431 14.4853 27.167 13.4585 29.5431 14.1492ZM36.8914 13.9933C39.1021 14.4098 40.9269 16.3765 41.0831 18.5108C41.1794 19.8269 41.2487 20.0987 41.5919 20.507C41.9702 20.9568 42.1985 21.0585 43.3902 21.3072C46.0568 21.8636 48.1323 24.2882 48.1323 26.847C48.1323 27.4544 48.1064 27.5247 47.9134 27.4438C45.4297 26.4018 42.2272 26.0644 41.2733 26.7442C40.4846 27.3063 40.2102 28.5546 40.7232 29.2477C41.2305 29.9336 41.7055 30.1371 42.8046 30.1393C46.0612 30.1463 48.9466 31.8983 50.3246 34.7055C50.9229 35.9242 51.1336 36.8638 51.1336 38.3122C51.1336 40.4274 50.5049 42.1217 49.1308 43.7101C48.1987 44.7876 48.0518 45.2479 48.3157 46.267C48.5888 47.3218 48.5637 48.9528 48.2592 49.9397C47.9397 50.9749 47.2283 52.0693 46.3783 52.8334C45.244 53.8532 44.0021 54.3501 42.2152 54.4993C41.3093 54.5748 41.1659 54.6239 40.7491 55.0009C40.4011 55.3154 40.2328 55.612 40.0681 56.2013C39.6299 57.7696 38.8875 58.8237 37.7355 59.5133C36.676 60.1475 35.0674 60.466 34.1572 60.2219L33.8758 60.1465V51.9142V43.682L34.4187 42.9486C35.6029 41.3488 37.1945 40.2754 38.3826 40.2753C39.1308 40.2752 39.9906 39.8337 40.303 39.2892C40.8153 38.3961 40.4602 37.1412 39.5763 36.7214C38.4784 36.2 35.9993 36.7046 34.4207 37.771L33.8758 38.1389V26.2499V14.3608L34.2197 14.2283C35.1003 13.8892 35.9445 13.8149 36.8914 13.9933ZM42.6298 42.418C42.0459 42.6503 41.6323 43.1801 41.3756 44.0243C41.2385 44.4749 40.9593 45.0634 40.7548 45.3321C40.268 45.9723 39.2825 46.7055 38.5367 46.9824C37.3254 47.432 36.8772 47.9631 36.8772 48.949C36.8772 49.9347 37.7341 50.788 38.7243 50.7884C39.2384 50.7886 40.3973 50.3217 41.412 49.7054C43.4748 48.4524 45.1309 45.9509 45.1309 44.0883C45.1309 42.8569 43.7853 41.9582 42.6298 42.418Z" fill="#343F3E" stroke="#FAFCFF" stroke-width="2" mask="url(#path-2-inside-1_199_741)"/>
</svg>
