<svg width="43" height="63" viewBox="0 0 43 63" fill="none" xmlns="http://www.w3.org/2000/svg">
<path d="M7 30.5V38L9 39.5L10.5 35L12.5 28.5L23.5 30.5L31 29.5L33 38L35 39.5L36.5 33.5V28.5L35 25.5L33 23.5L29 20L23.5 19H19.5L15 20L10 22.5L7 27.5V30.5Z" fill="#E6F2FF"/>
<mask id="path-2-inside-1_207_13" fill="white">
<path fill-rule="evenodd" clip-rule="evenodd" d="M20.807 0.219874C20.6001 0.38968 20.1342 1.57888 19.3062 4.05041C18.6456 6.02181 18.1053 7.78149 18.1053 7.96072C18.1053 8.14009 18.2616 8.44214 18.4525 8.63206C18.7824 8.96027 18.8836 8.97744 20.493 8.97744H22.1863L21.2774 11.6815C20.7775 13.1688 20.3684 14.5328 20.3684 14.7127C20.3684 15.1751 20.9737 15.7303 21.4779 15.7303C22.2659 15.7303 22.4278 15.4326 23.6938 11.6535C24.3544 9.68212 24.8947 7.92245 24.8947 7.74322C24.8947 7.56385 24.7384 7.2618 24.5475 7.07188C24.2176 6.74366 24.1164 6.7265 22.507 6.7265H20.8137L21.7226 4.02242C22.2225 2.53511 22.6316 1.17118 22.6316 0.991244C22.6316 0.187095 21.4537 -0.310925 20.807 0.219874ZM0.347254 4.82094C0.1563 5.01086 0 5.29729 0 5.45767C0 5.61791 0.540187 7.63081 1.20061 9.93071C2.45821 14.3112 2.59273 14.6048 3.34184 14.6048C3.52897 14.6048 4.44385 14.2249 5.375 13.7607C6.30615 13.2964 7.11792 12.9166 7.17888 12.9166C7.23984 12.9166 7.72274 14.214 8.25218 15.7998C9.26806 18.8432 9.42506 19.1067 10.2221 19.1067C10.71 19.1067 11.3158 18.5435 11.3158 18.0899C11.3158 17.9107 10.7755 16.151 10.1149 14.1796C8.87313 10.4732 8.67879 10.1029 7.97395 10.1029C7.78682 10.1029 6.86288 10.4873 5.92056 10.9571C4.97824 11.4269 4.16167 11.7593 4.10608 11.6957C4.05035 11.6321 3.58215 10.0924 3.06545 8.27402C2.06329 4.74722 1.9234 4.47556 1.10951 4.47556C0.857313 4.47556 0.55801 4.61118 0.347254 4.82094ZM38.2297 7.60929C34.2376 11.5798 34.2522 11.5168 37.0093 12.8917L38.6447 13.7074L36.5435 15.368C35.388 16.2813 34.331 17.155 34.1949 17.3094C33.8386 17.7138 33.8823 18.3513 34.2946 18.7613C34.9696 19.4328 35.201 19.3183 38.5618 16.6491C40.4169 15.1758 41.7097 14.0489 41.7896 13.8354C42.0734 13.0778 41.7906 12.7741 39.9064 11.8133L38.1566 10.921L40.5783 8.49813C42.7105 6.3648 43 6.02083 43 5.62072C43 5.00917 42.4608 4.47556 41.843 4.47556C41.4285 4.47556 41.0518 4.80223 38.2297 7.60929ZM19.2368 18.0693C13.2209 18.8285 8.72674 21.6528 6.50403 26.0705C5.39296 28.2785 5.32493 28.703 5.42139 32.8233C5.46765 34.7928 5.58731 36.784 5.69368 37.3486L5.88364 38.3567L5.44233 38.7858C4.86112 39.3511 4.66154 39.9988 4.57059 41.6161C4.3546 45.4567 5.89779 48.7449 8.13322 49.2071C8.53041 49.2892 8.56421 49.3478 8.66153 50.1212C8.99747 52.7937 10.1286 55.1279 12.1069 57.2314L12.7175 57.8807L12.5337 58.6674C12.3581 59.4186 11.9984 60.1098 11.2384 61.1568C10.7865 61.7794 10.8008 62.0874 11.3049 62.5888C12.2567 63.5354 13.1826 62.8102 14.5206 60.0704C14.5329 60.0454 14.9665 60.4462 15.4844 60.9612C17.0434 62.5118 18.479 62.9979 21.5 62.9979C24.529 62.9979 26.0158 62.493 27.5401 60.9469C28.0422 60.4376 28.464 60.0423 28.4773 60.0684C28.4908 60.0946 28.6926 60.4954 28.926 60.9591C29.4878 62.0754 30.3788 63 30.893 63C31.3261 63 32.1086 62.3233 32.1086 61.9487C32.1086 61.6435 31.7593 60.9861 31.4703 60.7477C31.1365 60.4721 30.5833 59.3324 30.4099 58.5628L30.2612 57.9032L30.8825 57.2427C32.8719 55.1272 34.0018 52.7992 34.3385 50.1212C34.4358 49.3478 34.4696 49.2892 34.8668 49.2071C37.1022 48.7449 38.6454 45.4567 38.4294 41.6161C38.3385 39.9988 38.1389 39.3511 37.5577 38.7858L37.1164 38.3567L37.3063 37.3486C37.4127 36.784 37.5324 34.7928 37.5786 32.8233C37.6711 28.872 37.597 28.3281 36.7127 26.4657C34.7506 22.3334 30.8747 19.4743 25.7779 18.3995C24.4288 18.1148 20.4615 17.9147 19.2368 18.0693ZM24.3108 20.4522C28.6697 21.0903 32.3155 23.3355 34.2335 26.5629C35.2147 28.2141 35.3618 28.8876 35.3617 31.7285C35.3616 34.2245 35.1838 36.8072 34.957 37.6066C34.8381 38.0261 34.8359 38.0241 34.6115 37.2879C34.4873 36.8805 34.1222 35.3295 33.8001 33.8412C32.909 29.7236 32.5236 28.7958 31.5347 28.3884C31.1484 28.2293 30.7941 28.2472 29.0154 28.5156C26.0072 28.9697 21.8423 29.1781 19.9198 28.9706C18.515 28.8191 17.8706 28.6778 14.7201 27.8305C13.2113 27.4246 12.1615 27.4501 11.6174 27.9053C10.6773 28.6922 10.2593 29.7819 9.12123 34.4142C8.69717 36.1402 8.29391 37.6527 8.22502 37.7753C7.97523 38.2191 7.7574 36.2071 7.68144 32.753C7.60944 29.4745 7.62076 29.2616 7.9144 28.3918C9.04471 25.0437 12.3167 22.1516 16.3372 20.9472C18.6529 20.2534 21.6724 20.066 24.3108 20.4522ZM15.451 30.3663C18.5889 31.2492 20.4556 31.4324 24.2582 31.2312C26.9348 31.0895 27.906 30.9845 30.2912 30.5784C30.6515 30.5171 30.6782 30.5579 30.9589 31.5987C31.1196 32.1949 31.4466 33.6213 31.6855 34.7684C32.4284 38.3349 33.0244 39.8409 33.9351 40.4512C34.4461 40.7938 35.3224 40.8782 35.7889 40.6299C36.0224 40.5055 36.0678 40.5521 36.153 41.0035C36.2066 41.2872 36.2122 42.0954 36.1657 42.7995C35.9899 45.4622 34.8396 47.6507 34.0888 46.751C33.9888 46.6312 33.6803 46.54 33.3745 46.54C32.5999 46.54 32.25 47.0217 32.25 48.0881C32.25 49.9365 31.6353 52.3113 30.8034 53.6765C30.2709 54.5504 27.5911 57.6613 26.0348 59.2121C24.6789 60.5634 24.3222 60.6787 21.5 60.6787C18.6778 60.6787 18.3211 60.5634 16.9652 59.2121C15.3991 57.6515 12.7279 54.5483 12.1882 53.6628C11.3272 52.2499 10.75 49.9873 10.75 48.0259C10.75 47.0258 10.3824 46.54 9.62549 46.54C9.31968 46.54 9.01119 46.6312 8.91118 46.751C8.16038 47.6507 7.01013 45.4622 6.83431 42.7995C6.78778 42.0954 6.79343 41.2872 6.84704 41.0035C6.93219 40.5521 6.9776 40.5055 7.21113 40.6299C7.6407 40.8585 8.52121 40.7929 9.01104 40.4959C9.94304 39.9307 10.4667 38.5641 11.7301 33.3997C12.4146 30.6017 12.73 29.7986 13.1444 29.7986C13.3033 29.7986 14.3412 30.0541 15.451 30.3663Z"/>
</mask>
<path fill-rule="evenodd" clip-rule="evenodd" d="M20.807 0.219874C20.6001 0.38968 20.1342 1.57888 19.3062 4.05041C18.6456 6.02181 18.1053 7.78149 18.1053 7.96072C18.1053 8.14009 18.2616 8.44214 18.4525 8.63206C18.7824 8.96027 18.8836 8.97744 20.493 8.97744H22.1863L21.2774 11.6815C20.7775 13.1688 20.3684 14.5328 20.3684 14.7127C20.3684 15.1751 20.9737 15.7303 21.4779 15.7303C22.2659 15.7303 22.4278 15.4326 23.6938 11.6535C24.3544 9.68212 24.8947 7.92245 24.8947 7.74322C24.8947 7.56385 24.7384 7.2618 24.5475 7.07188C24.2176 6.74366 24.1164 6.7265 22.507 6.7265H20.8137L21.7226 4.02242C22.2225 2.53511 22.6316 1.17118 22.6316 0.991244C22.6316 0.187095 21.4537 -0.310925 20.807 0.219874ZM0.347254 4.82094C0.1563 5.01086 0 5.29729 0 5.45767C0 5.61791 0.540187 7.63081 1.20061 9.93071C2.45821 14.3112 2.59273 14.6048 3.34184 14.6048C3.52897 14.6048 4.44385 14.2249 5.375 13.7607C6.30615 13.2964 7.11792 12.9166 7.17888 12.9166C7.23984 12.9166 7.72274 14.214 8.25218 15.7998C9.26806 18.8432 9.42506 19.1067 10.2221 19.1067C10.71 19.1067 11.3158 18.5435 11.3158 18.0899C11.3158 17.9107 10.7755 16.151 10.1149 14.1796C8.87313 10.4732 8.67879 10.1029 7.97395 10.1029C7.78682 10.1029 6.86288 10.4873 5.92056 10.9571C4.97824 11.4269 4.16167 11.7593 4.10608 11.6957C4.05035 11.6321 3.58215 10.0924 3.06545 8.27402C2.06329 4.74722 1.9234 4.47556 1.10951 4.47556C0.857313 4.47556 0.55801 4.61118 0.347254 4.82094ZM38.2297 7.60929C34.2376 11.5798 34.2522 11.5168 37.0093 12.8917L38.6447 13.7074L36.5435 15.368C35.388 16.2813 34.331 17.155 34.1949 17.3094C33.8386 17.7138 33.8823 18.3513 34.2946 18.7613C34.9696 19.4328 35.201 19.3183 38.5618 16.6491C40.4169 15.1758 41.7097 14.0489 41.7896 13.8354C42.0734 13.0778 41.7906 12.7741 39.9064 11.8133L38.1566 10.921L40.5783 8.49813C42.7105 6.3648 43 6.02083 43 5.62072C43 5.00917 42.4608 4.47556 41.843 4.47556C41.4285 4.47556 41.0518 4.80223 38.2297 7.60929ZM19.2368 18.0693C13.2209 18.8285 8.72674 21.6528 6.50403 26.0705C5.39296 28.2785 5.32493 28.703 5.42139 32.8233C5.46765 34.7928 5.58731 36.784 5.69368 37.3486L5.88364 38.3567L5.44233 38.7858C4.86112 39.3511 4.66154 39.9988 4.57059 41.6161C4.3546 45.4567 5.89779 48.7449 8.13322 49.2071C8.53041 49.2892 8.56421 49.3478 8.66153 50.1212C8.99747 52.7937 10.1286 55.1279 12.1069 57.2314L12.7175 57.8807L12.5337 58.6674C12.3581 59.4186 11.9984 60.1098 11.2384 61.1568C10.7865 61.7794 10.8008 62.0874 11.3049 62.5888C12.2567 63.5354 13.1826 62.8102 14.5206 60.0704C14.5329 60.0454 14.9665 60.4462 15.4844 60.9612C17.0434 62.5118 18.479 62.9979 21.5 62.9979C24.529 62.9979 26.0158 62.493 27.5401 60.9469C28.0422 60.4376 28.464 60.0423 28.4773 60.0684C28.4908 60.0946 28.6926 60.4954 28.926 60.9591C29.4878 62.0754 30.3788 63 30.893 63C31.3261 63 32.1086 62.3233 32.1086 61.9487C32.1086 61.6435 31.7593 60.9861 31.4703 60.7477C31.1365 60.4721 30.5833 59.3324 30.4099 58.5628L30.2612 57.9032L30.8825 57.2427C32.8719 55.1272 34.0018 52.7992 34.3385 50.1212C34.4358 49.3478 34.4696 49.2892 34.8668 49.2071C37.1022 48.7449 38.6454 45.4567 38.4294 41.6161C38.3385 39.9988 38.1389 39.3511 37.5577 38.7858L37.1164 38.3567L37.3063 37.3486C37.4127 36.784 37.5324 34.7928 37.5786 32.8233C37.6711 28.872 37.597 28.3281 36.7127 26.4657C34.7506 22.3334 30.8747 19.4743 25.7779 18.3995C24.4288 18.1148 20.4615 17.9147 19.2368 18.0693ZM24.3108 20.4522C28.6697 21.0903 32.3155 23.3355 34.2335 26.5629C35.2147 28.2141 35.3618 28.8876 35.3617 31.7285C35.3616 34.2245 35.1838 36.8072 34.957 37.6066C34.8381 38.0261 34.8359 38.0241 34.6115 37.2879C34.4873 36.8805 34.1222 35.3295 33.8001 33.8412C32.909 29.7236 32.5236 28.7958 31.5347 28.3884C31.1484 28.2293 30.7941 28.2472 29.0154 28.5156C26.0072 28.9697 21.8423 29.1781 19.9198 28.9706C18.515 28.8191 17.8706 28.6778 14.7201 27.8305C13.2113 27.4246 12.1615 27.4501 11.6174 27.9053C10.6773 28.6922 10.2593 29.7819 9.12123 34.4142C8.69717 36.1402 8.29391 37.6527 8.22502 37.7753C7.97523 38.2191 7.7574 36.2071 7.68144 32.753C7.60944 29.4745 7.62076 29.2616 7.9144 28.3918C9.04471 25.0437 12.3167 22.1516 16.3372 20.9472C18.6529 20.2534 21.6724 20.066 24.3108 20.4522ZM15.451 30.3663C18.5889 31.2492 20.4556 31.4324 24.2582 31.2312C26.9348 31.0895 27.906 30.9845 30.2912 30.5784C30.6515 30.5171 30.6782 30.5579 30.9589 31.5987C31.1196 32.1949 31.4466 33.6213 31.6855 34.7684C32.4284 38.3349 33.0244 39.8409 33.9351 40.4512C34.4461 40.7938 35.3224 40.8782 35.7889 40.6299C36.0224 40.5055 36.0678 40.5521 36.153 41.0035C36.2066 41.2872 36.2122 42.0954 36.1657 42.7995C35.9899 45.4622 34.8396 47.6507 34.0888 46.751C33.9888 46.6312 33.6803 46.54 33.3745 46.54C32.5999 46.54 32.25 47.0217 32.25 48.0881C32.25 49.9365 31.6353 52.3113 30.8034 53.6765C30.2709 54.5504 27.5911 57.6613 26.0348 59.2121C24.6789 60.5634 24.3222 60.6787 21.5 60.6787C18.6778 60.6787 18.3211 60.5634 16.9652 59.2121C15.3991 57.6515 12.7279 54.5483 12.1882 53.6628C11.3272 52.2499 10.75 49.9873 10.75 48.0259C10.75 47.0258 10.3824 46.54 9.62549 46.54C9.31968 46.54 9.01119 46.6312 8.91118 46.751C8.16038 47.6507 7.01013 45.4622 6.83431 42.7995C6.78778 42.0954 6.79343 41.2872 6.84704 41.0035C6.93219 40.5521 6.9776 40.5055 7.21113 40.6299C7.6407 40.8585 8.52121 40.7929 9.01104 40.4959C9.94304 39.9307 10.4667 38.5641 11.7301 33.3997C12.4146 30.6017 12.73 29.7986 13.1444 29.7986C13.3033 29.7986 14.3412 30.0541 15.451 30.3663Z" fill="#343F3E" stroke="#FAFCFF" stroke-width="0.6" mask="url(#path-2-inside-1_207_13)"/>
</svg>
