<svg width="59" height="59" viewBox="0 0 59 59" fill="none" xmlns="http://www.w3.org/2000/svg">
<path opacity="0.45" d="M23.5 17L25 25L30 29L34.5 35H40.5L48 34L53.5 29L56.5 22V14L53.5 7.5L48 3L41.5 1.5L34.5 3L30 5.5L25 10.5L23.5 17Z" fill="#CEE6FF"/>
<mask id="path-2-inside-1_192_79" fill="white">
<path fill-rule="evenodd" clip-rule="evenodd" d="M17.636 0.177722C17.4153 0.292217 17.117 0.56214 16.9731 0.77764C16.7162 1.16217 16.7114 1.23032 16.7118 4.46732C16.7122 7.55465 16.7268 7.78918 16.9414 8.14097C17.3014 8.73178 17.8164 8.99651 18.5064 8.94566C19.1531 8.89816 19.5736 8.64645 19.9009 8.1111C20.093 7.79679 20.1124 7.4631 20.1124 4.45867C20.1124 1.29904 20.1018 1.13808 19.8747 0.833793C19.292 0.0533106 18.3873 -0.211885 17.636 0.177722ZM38.0398 0.148204C30.1097 1.29708 23.7178 7.64747 22.4231 15.6634C22.1748 17.2004 22.1968 19.7813 22.4718 21.3689C22.5924 22.0655 22.6807 22.6458 22.668 22.6585C22.6553 22.6711 22.0751 22.5828 21.3786 22.4622C19.6472 22.1623 17.1689 22.1613 15.4234 22.4598C10.4863 23.3039 5.93094 26.2643 3.0908 30.4743C-0.58738 35.9267 -1.00865 42.7973 1.96638 48.8128C2.86852 50.6369 3.93194 52.1113 5.41571 53.5952C8.73476 56.9146 12.9527 58.7652 17.6913 58.9809C21.8567 59.1705 25.8684 57.9448 29.2074 55.4623C33.1461 52.5341 35.7907 48.2022 36.6019 43.3501C36.8453 41.8942 36.7821 38.4703 36.4879 37.1788C36.3883 36.7411 36.3225 36.3675 36.3417 36.3482C36.361 36.3289 36.7897 36.3896 37.2947 36.4829C41.0272 37.1727 45.7096 36.4581 49.2973 34.6512C51.6008 33.4911 54.2267 31.1867 55.663 29.0649C58.9828 24.161 59.7918 17.9789 57.8712 12.1914C55.4455 4.88206 48.9751 0.273769 40.8067 0.0378601C39.7401 0.00707434 38.7387 0.046969 38.0398 0.148204ZM42.4238 3.56116C47.5145 4.1854 51.9893 7.44293 54.1806 12.1197C55.7482 15.4652 55.9842 19.6261 54.8055 23.1379C54.1501 25.0903 53.038 26.9123 51.5372 28.4922C49.192 30.9609 46.1606 32.589 42.8915 33.1358C41.9695 33.2899 41.3089 33.3205 39.9572 33.2714C38.1172 33.2045 37.0822 33.01 35.5582 32.4446C34.7625 32.1495 34.7393 32.1291 34.2448 31.2901C32.6733 28.6241 29.9944 26.0012 27.3537 24.5431C26.9307 24.3096 26.8329 24.1747 26.5671 23.4579C25.99 21.9021 25.8033 20.8977 25.7391 19.0072C25.6926 17.6406 25.7233 16.9622 25.869 16.1246C26.9926 9.66803 32.0401 4.59772 38.328 3.60912C39.4927 3.42602 41.1626 3.40653 42.4238 3.56116ZM6.04715 4.9969C5.79351 5.08741 5.47162 5.29334 5.33201 5.45465C5.0695 5.75755 4.81932 6.46908 4.89149 6.7073C4.9142 6.78178 4.96654 6.99601 5.00805 7.18338C5.0597 7.4171 5.70508 8.15446 7.06399 9.53278C9.5434 12.0475 9.74896 12.2043 10.5652 12.2043C11.124 12.2043 11.233 12.1609 11.6491 11.772C11.9482 11.4926 12.1466 11.1846 12.2103 10.9015C12.406 10.0301 12.2391 9.77722 9.92512 7.4382C8.74341 6.24367 7.64678 5.19926 7.48826 5.11728C7.00001 4.86453 6.52859 4.82522 6.04715 4.9969ZM34.9152 11.659C34.2395 12.1104 34.1056 12.5295 34.144 14.07C34.183 15.6325 34.3019 15.8918 35.1819 16.3335C35.819 16.6534 36.3751 16.5953 36.8992 16.1541C37.4791 15.6662 37.5786 15.3409 37.5786 13.9339C37.5786 12.5182 37.4802 12.2025 36.8822 11.6992C36.3995 11.293 35.4909 11.2744 34.9152 11.659ZM44.496 11.5839C43.8502 11.9884 43.7495 12.2691 43.7087 13.7778C43.6786 14.888 43.7087 15.2518 43.8539 15.5328C44.1175 16.0425 44.4782 16.3415 44.9982 16.4816C45.6135 16.6473 46.3458 16.3689 46.7749 15.8063C47.0797 15.4066 47.09 15.3455 47.09 13.9378C47.09 12.3188 46.9971 12.0444 46.3055 11.6228C45.8532 11.3468 44.9067 11.3265 44.496 11.5839ZM0.796778 16.9581C-0.263073 17.6663 -0.239669 19.0542 0.845891 19.8648C1.15014 20.0919 1.31108 20.1026 4.47034 20.1026C7.70523 20.1026 7.78547 20.0969 8.19659 19.8413C9.18173 19.2286 9.25748 17.8911 8.35477 17.047L8.04649 16.7588L4.62102 16.7252C1.20709 16.6918 1.19418 16.6925 0.796778 16.9581ZM35.2128 21.7758C34.3171 21.9661 33.8254 22.6823 33.9194 23.6601C33.9716 24.2034 34.0284 24.2946 34.7181 24.9411C35.6464 25.8112 36.4954 26.3187 37.7399 26.7478C40.7125 27.7726 44.1788 27.1036 46.4207 25.0725C47.1469 24.4146 47.3782 24.0215 47.3782 23.4445C47.3782 22.3441 46.23 21.4494 45.2382 21.7769C45.0205 21.8486 44.6219 22.0922 44.3522 22.3181C43.139 23.3342 42.0645 23.7491 40.6445 23.7496C39.3839 23.75 38.3853 23.4289 37.4568 22.7244C37.0606 22.4239 36.6426 22.1081 36.5279 22.0227C36.2333 21.8035 35.6224 21.6889 35.2128 21.7758ZM20.8676 25.971C27.5121 27.0498 32.1321 31.7799 33.1343 38.5298C33.6611 42.0787 32.9003 45.6613 30.9859 48.6469C28.78 52.087 25.3527 54.4147 21.2076 55.2881C19.8476 55.5748 16.9162 55.5744 15.5585 55.2877C12.6109 54.6649 10.1114 53.3458 8.02239 51.3106C3.21139 46.6239 2.12687 39.6611 5.25361 33.5353C6.62059 30.8573 8.61797 28.8639 11.3116 27.4896C12.6656 26.7989 14.3131 26.2407 15.7314 25.9923C16.9406 25.7805 19.6258 25.7693 20.8676 25.971ZM13.0627 33.6612C12.529 33.8158 12.0156 34.4598 11.9205 35.0937C11.7982 35.9096 11.9175 37.4628 12.1344 37.8768C12.2391 38.0768 12.5108 38.3554 12.738 38.4958C13.2974 38.8416 14.2664 38.7789 14.7057 38.3684C15.2458 37.8637 15.3279 37.5651 15.3274 36.1065C15.327 34.5029 15.1731 34.1244 14.3743 33.7617C13.8415 33.5197 13.6117 33.5022 13.0627 33.6612ZM22.6487 33.6588C22.1867 33.8056 21.976 33.9804 21.6838 34.4598C21.4736 34.8046 21.439 35.04 21.4388 36.1296C21.4386 37.584 21.5915 38.0333 22.2335 38.4622C23.0537 39.0102 24.2408 38.6911 24.7 37.7992C24.8708 37.4673 24.9007 37.1651 24.8729 36.0511C24.8442 34.903 24.8042 34.6574 24.6015 34.3863C24.0946 33.7082 23.3575 33.4337 22.6487 33.6588ZM51.2541 38.9543C50.8569 39.0782 50.4144 39.4722 50.1918 39.9C49.8317 40.5923 50.1202 41.5656 50.8251 42.0365C51.2096 42.2934 51.2776 42.2983 54.5261 42.2983C57.7746 42.2983 57.8426 42.2934 58.2271 42.0365C59.2799 41.3332 59.2532 39.9431 58.1712 39.1346C57.8701 38.9095 57.6852 38.8956 54.7197 38.8738C52.9962 38.8611 51.4368 38.8973 51.2541 38.9543ZM12.5651 44.1719C11.9005 44.5128 11.6076 45.0456 11.6731 45.7947C11.7313 46.4603 11.956 46.7877 12.8593 47.5226C14.3643 48.7471 16.3718 49.4476 18.3727 49.4462C20.2542 49.4449 21.7774 48.9959 23.2828 47.9992C24.8619 46.9536 25.3957 46.0919 25.0635 45.1254C24.8679 44.5563 24.6161 44.3023 24.0231 44.0759C23.3327 43.8122 22.8831 43.9267 22.1291 44.5581C21.7808 44.8498 21.1068 45.2779 20.6312 45.5093C19.7881 45.9198 19.7334 45.9303 18.4407 45.9282C16.8648 45.9258 16.2008 45.7131 15.0937 44.8558C13.771 43.8313 13.4163 43.7354 12.5651 44.1719ZM47.7817 46.9056C47.6549 46.9584 47.3999 47.1616 47.215 47.357C46.7575 47.8406 46.6606 48.7883 47.0109 49.3536C47.1409 49.5635 48.198 50.6768 49.3598 51.8275C51.0755 53.5268 51.5595 53.9432 51.9364 54.0447C52.8234 54.2836 53.6771 53.8445 54.0073 52.9798C54.1671 52.5613 54.1763 52.3962 54.0634 51.972C53.949 51.5415 53.6296 51.1621 51.9504 49.4625C49.5211 47.0035 49.2508 46.7926 48.5426 46.8023C48.2509 46.8064 47.9085 46.8528 47.7817 46.9056ZM39.768 50.283C39.5584 50.4257 39.2784 50.6888 39.1457 50.8679C38.9144 51.18 38.9045 51.3263 38.9045 54.4423C38.9045 57.4838 38.9192 57.7162 39.135 58.0826C39.8156 59.238 41.317 59.3099 42.0438 58.2218C42.3006 57.8372 42.3055 57.7691 42.305 54.5321C42.3047 51.4447 42.29 51.2102 42.0755 50.8584C41.5788 50.0436 40.5109 49.7772 39.768 50.283Z"/>
</mask>
<path fill-rule="evenodd" clip-rule="evenodd" d="M17.636 0.177722C17.4153 0.292217 17.117 0.56214 16.9731 0.77764C16.7162 1.16217 16.7114 1.23032 16.7118 4.46732C16.7122 7.55465 16.7268 7.78918 16.9414 8.14097C17.3014 8.73178 17.8164 8.99651 18.5064 8.94566C19.1531 8.89816 19.5736 8.64645 19.9009 8.1111C20.093 7.79679 20.1124 7.4631 20.1124 4.45867C20.1124 1.29904 20.1018 1.13808 19.8747 0.833793C19.292 0.0533106 18.3873 -0.211885 17.636 0.177722ZM38.0398 0.148204C30.1097 1.29708 23.7178 7.64747 22.4231 15.6634C22.1748 17.2004 22.1968 19.7813 22.4718 21.3689C22.5924 22.0655 22.6807 22.6458 22.668 22.6585C22.6553 22.6711 22.0751 22.5828 21.3786 22.4622C19.6472 22.1623 17.1689 22.1613 15.4234 22.4598C10.4863 23.3039 5.93094 26.2643 3.0908 30.4743C-0.58738 35.9267 -1.00865 42.7973 1.96638 48.8128C2.86852 50.6369 3.93194 52.1113 5.41571 53.5952C8.73476 56.9146 12.9527 58.7652 17.6913 58.9809C21.8567 59.1705 25.8684 57.9448 29.2074 55.4623C33.1461 52.5341 35.7907 48.2022 36.6019 43.3501C36.8453 41.8942 36.7821 38.4703 36.4879 37.1788C36.3883 36.7411 36.3225 36.3675 36.3417 36.3482C36.361 36.3289 36.7897 36.3896 37.2947 36.4829C41.0272 37.1727 45.7096 36.4581 49.2973 34.6512C51.6008 33.4911 54.2267 31.1867 55.663 29.0649C58.9828 24.161 59.7918 17.9789 57.8712 12.1914C55.4455 4.88206 48.9751 0.273769 40.8067 0.0378601C39.7401 0.00707434 38.7387 0.046969 38.0398 0.148204ZM42.4238 3.56116C47.5145 4.1854 51.9893 7.44293 54.1806 12.1197C55.7482 15.4652 55.9842 19.6261 54.8055 23.1379C54.1501 25.0903 53.038 26.9123 51.5372 28.4922C49.192 30.9609 46.1606 32.589 42.8915 33.1358C41.9695 33.2899 41.3089 33.3205 39.9572 33.2714C38.1172 33.2045 37.0822 33.01 35.5582 32.4446C34.7625 32.1495 34.7393 32.1291 34.2448 31.2901C32.6733 28.6241 29.9944 26.0012 27.3537 24.5431C26.9307 24.3096 26.8329 24.1747 26.5671 23.4579C25.99 21.9021 25.8033 20.8977 25.7391 19.0072C25.6926 17.6406 25.7233 16.9622 25.869 16.1246C26.9926 9.66803 32.0401 4.59772 38.328 3.60912C39.4927 3.42602 41.1626 3.40653 42.4238 3.56116ZM6.04715 4.9969C5.79351 5.08741 5.47162 5.29334 5.33201 5.45465C5.0695 5.75755 4.81932 6.46908 4.89149 6.7073C4.9142 6.78178 4.96654 6.99601 5.00805 7.18338C5.0597 7.4171 5.70508 8.15446 7.06399 9.53278C9.5434 12.0475 9.74896 12.2043 10.5652 12.2043C11.124 12.2043 11.233 12.1609 11.6491 11.772C11.9482 11.4926 12.1466 11.1846 12.2103 10.9015C12.406 10.0301 12.2391 9.77722 9.92512 7.4382C8.74341 6.24367 7.64678 5.19926 7.48826 5.11728C7.00001 4.86453 6.52859 4.82522 6.04715 4.9969ZM34.9152 11.659C34.2395 12.1104 34.1056 12.5295 34.144 14.07C34.183 15.6325 34.3019 15.8918 35.1819 16.3335C35.819 16.6534 36.3751 16.5953 36.8992 16.1541C37.4791 15.6662 37.5786 15.3409 37.5786 13.9339C37.5786 12.5182 37.4802 12.2025 36.8822 11.6992C36.3995 11.293 35.4909 11.2744 34.9152 11.659ZM44.496 11.5839C43.8502 11.9884 43.7495 12.2691 43.7087 13.7778C43.6786 14.888 43.7087 15.2518 43.8539 15.5328C44.1175 16.0425 44.4782 16.3415 44.9982 16.4816C45.6135 16.6473 46.3458 16.3689 46.7749 15.8063C47.0797 15.4066 47.09 15.3455 47.09 13.9378C47.09 12.3188 46.9971 12.0444 46.3055 11.6228C45.8532 11.3468 44.9067 11.3265 44.496 11.5839ZM0.796778 16.9581C-0.263073 17.6663 -0.239669 19.0542 0.845891 19.8648C1.15014 20.0919 1.31108 20.1026 4.47034 20.1026C7.70523 20.1026 7.78547 20.0969 8.19659 19.8413C9.18173 19.2286 9.25748 17.8911 8.35477 17.047L8.04649 16.7588L4.62102 16.7252C1.20709 16.6918 1.19418 16.6925 0.796778 16.9581ZM35.2128 21.7758C34.3171 21.9661 33.8254 22.6823 33.9194 23.6601C33.9716 24.2034 34.0284 24.2946 34.7181 24.9411C35.6464 25.8112 36.4954 26.3187 37.7399 26.7478C40.7125 27.7726 44.1788 27.1036 46.4207 25.0725C47.1469 24.4146 47.3782 24.0215 47.3782 23.4445C47.3782 22.3441 46.23 21.4494 45.2382 21.7769C45.0205 21.8486 44.6219 22.0922 44.3522 22.3181C43.139 23.3342 42.0645 23.7491 40.6445 23.7496C39.3839 23.75 38.3853 23.4289 37.4568 22.7244C37.0606 22.4239 36.6426 22.1081 36.5279 22.0227C36.2333 21.8035 35.6224 21.6889 35.2128 21.7758ZM20.8676 25.971C27.5121 27.0498 32.1321 31.7799 33.1343 38.5298C33.6611 42.0787 32.9003 45.6613 30.9859 48.6469C28.78 52.087 25.3527 54.4147 21.2076 55.2881C19.8476 55.5748 16.9162 55.5744 15.5585 55.2877C12.6109 54.6649 10.1114 53.3458 8.02239 51.3106C3.21139 46.6239 2.12687 39.6611 5.25361 33.5353C6.62059 30.8573 8.61797 28.8639 11.3116 27.4896C12.6656 26.7989 14.3131 26.2407 15.7314 25.9923C16.9406 25.7805 19.6258 25.7693 20.8676 25.971ZM13.0627 33.6612C12.529 33.8158 12.0156 34.4598 11.9205 35.0937C11.7982 35.9096 11.9175 37.4628 12.1344 37.8768C12.2391 38.0768 12.5108 38.3554 12.738 38.4958C13.2974 38.8416 14.2664 38.7789 14.7057 38.3684C15.2458 37.8637 15.3279 37.5651 15.3274 36.1065C15.327 34.5029 15.1731 34.1244 14.3743 33.7617C13.8415 33.5197 13.6117 33.5022 13.0627 33.6612ZM22.6487 33.6588C22.1867 33.8056 21.976 33.9804 21.6838 34.4598C21.4736 34.8046 21.439 35.04 21.4388 36.1296C21.4386 37.584 21.5915 38.0333 22.2335 38.4622C23.0537 39.0102 24.2408 38.6911 24.7 37.7992C24.8708 37.4673 24.9007 37.1651 24.8729 36.0511C24.8442 34.903 24.8042 34.6574 24.6015 34.3863C24.0946 33.7082 23.3575 33.4337 22.6487 33.6588ZM51.2541 38.9543C50.8569 39.0782 50.4144 39.4722 50.1918 39.9C49.8317 40.5923 50.1202 41.5656 50.8251 42.0365C51.2096 42.2934 51.2776 42.2983 54.5261 42.2983C57.7746 42.2983 57.8426 42.2934 58.2271 42.0365C59.2799 41.3332 59.2532 39.9431 58.1712 39.1346C57.8701 38.9095 57.6852 38.8956 54.7197 38.8738C52.9962 38.8611 51.4368 38.8973 51.2541 38.9543ZM12.5651 44.1719C11.9005 44.5128 11.6076 45.0456 11.6731 45.7947C11.7313 46.4603 11.956 46.7877 12.8593 47.5226C14.3643 48.7471 16.3718 49.4476 18.3727 49.4462C20.2542 49.4449 21.7774 48.9959 23.2828 47.9992C24.8619 46.9536 25.3957 46.0919 25.0635 45.1254C24.8679 44.5563 24.6161 44.3023 24.0231 44.0759C23.3327 43.8122 22.8831 43.9267 22.1291 44.5581C21.7808 44.8498 21.1068 45.2779 20.6312 45.5093C19.7881 45.9198 19.7334 45.9303 18.4407 45.9282C16.8648 45.9258 16.2008 45.7131 15.0937 44.8558C13.771 43.8313 13.4163 43.7354 12.5651 44.1719ZM47.7817 46.9056C47.6549 46.9584 47.3999 47.1616 47.215 47.357C46.7575 47.8406 46.6606 48.7883 47.0109 49.3536C47.1409 49.5635 48.198 50.6768 49.3598 51.8275C51.0755 53.5268 51.5595 53.9432 51.9364 54.0447C52.8234 54.2836 53.6771 53.8445 54.0073 52.9798C54.1671 52.5613 54.1763 52.3962 54.0634 51.972C53.949 51.5415 53.6296 51.1621 51.9504 49.4625C49.5211 47.0035 49.2508 46.7926 48.5426 46.8023C48.2509 46.8064 47.9085 46.8528 47.7817 46.9056ZM39.768 50.283C39.5584 50.4257 39.2784 50.6888 39.1457 50.8679C38.9144 51.18 38.9045 51.3263 38.9045 54.4423C38.9045 57.4838 38.9192 57.7162 39.135 58.0826C39.8156 59.238 41.317 59.3099 42.0438 58.2218C42.3006 57.8372 42.3055 57.7691 42.305 54.5321C42.3047 51.4447 42.29 51.2102 42.0755 50.8584C41.5788 50.0436 40.5109 49.7772 39.768 50.283Z" fill="#343F3E" stroke="white" stroke-width="1.4" mask="url(#path-2-inside-1_192_79)"/>
</svg>
