<svg width="86" height="87" viewBox="0 0 86 87" fill="none" xmlns="http://www.w3.org/2000/svg">
<circle cx="42.797" cy="43.4513" r="40.797" fill="#61A1F4" stroke="white" stroke-width="4"/>
<path fill-rule="evenodd" clip-rule="evenodd" d="M54.9045 26.8204C53.3704 27.1681 52.2026 28.448 51.9645 30.0424C51.8587 30.7509 52.0245 31.7061 52.3513 32.2704L52.4655 32.4675L48.7639 36.1534L45.0624 39.8392L44.7645 39.6351C44.2847 39.3064 43.3205 38.8805 42.6511 38.7015C42.1009 38.5545 41.9102 38.5353 40.9818 38.534C40.1993 38.5329 39.8226 38.5601 39.4955 38.6412C39.2546 38.701 39.0524 38.7423 39.0464 38.7329C39.0404 38.7235 38.6243 37.7504 38.122 36.5705L37.2085 34.4252L37.3641 34.3288C37.4497 34.2758 37.7062 34.0456 37.9341 33.8171C38.652 33.0976 39.0125 32.2185 39.0125 31.1876C39.0125 28.2324 35.7954 26.424 33.2435 27.9447C32.7767 28.2228 32.2353 28.7725 31.9434 29.2644C31.2378 30.4535 31.2375 31.9435 31.9425 33.1019C32.588 34.1624 33.5867 34.8019 34.8412 34.9579C35.1265 34.9933 35.3772 35.0421 35.3984 35.0661C35.5165 35.2005 37.3046 39.5232 37.258 39.5618C37.2272 39.5873 37.0356 39.7328 36.832 39.885C36.2796 40.2984 35.464 41.1959 35.1126 41.7771C34.4465 42.8789 34.1658 43.9151 34.1596 45.2951C34.153 46.7621 34.4804 47.8864 35.2502 49.0411L35.4782 49.3831L34.1534 50.7035L32.8286 52.0239L32.6014 51.9103C32.0542 51.6369 31.6913 51.5599 30.9449 51.559C30.0265 51.5578 29.5104 51.7052 28.8181 52.1662C27.9967 52.7134 27.3714 53.63 27.1933 54.5481C27.0862 55.1004 27.1487 56.0735 27.3231 56.5699C27.7372 57.748 28.7695 58.6719 30.0307 58.9931C32.003 59.4955 34.0061 58.3169 34.6035 56.3027C34.7403 55.8413 34.7562 54.9285 34.6361 54.4365C34.5894 54.2451 34.4744 53.9261 34.3805 53.7275L34.2098 53.3665L35.5265 52.0564L36.8432 50.7463L37.245 51.0068C39.2815 52.3272 41.8607 52.4605 44.0681 51.3594C44.6377 51.0752 45.4804 50.4536 45.8965 50.0106L46.2056 49.6816L48.3301 50.6809C50.2251 51.5723 50.4509 51.6942 50.42 51.8089C50.401 51.8797 50.3671 52.153 50.3446 52.4161C50.1906 54.2183 51.4115 55.9201 53.1824 56.3719C53.7822 56.5249 54.7731 56.4707 55.4005 56.2506C58.0703 55.314 58.8148 51.8895 56.7693 49.9545C55.3511 48.6129 53.2438 48.5139 51.7583 49.7189L51.387 50.02L50.1389 49.4335C49.4524 49.1109 48.5133 48.6686 48.052 48.4505L47.2132 48.0541L47.3661 47.6794C47.8771 46.4272 47.9135 44.5722 47.4548 43.1671C47.2961 42.6808 46.9116 41.8989 46.6327 41.4952L46.4286 41.1997L50.1326 37.5106L53.8367 33.8215L54.0262 33.9191C54.7334 34.2833 55.792 34.4125 56.5708 34.2296C57.527 34.0051 58.3263 33.4618 58.8688 32.6676C59.3666 31.9388 59.4993 31.4872 59.4993 30.5234C59.4993 29.8613 59.4755 29.6637 59.3525 29.3094C58.9646 28.1915 58.0743 27.3272 56.8805 26.91C56.3958 26.7405 55.4466 26.6975 54.9045 26.8204Z" fill="white"/>
</svg>
