<svg width="100" height="100" viewBox="0 0 100 100" fill="none" xmlns="http://www.w3.org/2000/svg">
<path fill-rule="evenodd" clip-rule="evenodd" d="M28.1149 18.3036C27.6882 18.6621 27.5297 19.1737 27.7035 19.6304C27.7686 19.8015 28.3107 20.4712 28.9079 21.1186L29.9941 22.2958L29.2322 22.4335C28.0943 22.639 27.5561 23.2902 27.8613 24.0921C28.0111 24.4856 31.5037 28.8955 31.9324 29.2323C32.7144 29.8467 33.8535 29.2747 33.8535 28.2676C33.8535 27.8338 33.709 27.5947 32.6189 26.2264L31.3843 24.6764L32.0244 24.574C33.3394 24.3636 33.9294 23.8166 33.7654 22.9597C33.6947 22.5903 30.1068 18.5881 29.5047 18.207C29.0222 17.9017 28.5543 17.9342 28.1149 18.3036ZM50.2085 18.2432C50.0296 18.3836 49.0927 19.6459 48.1264 21.0483C46.6087 23.251 46.3695 23.6641 46.3695 24.0827C46.3695 24.4569 46.4543 24.6483 46.742 24.9236C47.0732 25.2405 47.2256 25.2864 48.1188 25.3381C48.6711 25.3701 49.1206 25.4312 49.1174 25.4738C49.1143 25.5166 48.7597 26.1418 48.3296 26.8634C47.7702 27.8013 47.4598 28.1996 47.24 28.2614C47.0711 28.3089 46.2077 28.4108 45.3216 28.4879C40.5661 28.9018 34.9373 30.5737 30.6619 32.8423L29.5355 33.4399L28.9723 32.6257C28.2528 31.5856 27.3916 30.9314 26.301 30.5966C22.2125 29.3413 18.627 33.5448 20.5356 37.3555C21.0292 38.3412 21.649 38.9577 22.9389 39.7462C23.6661 40.191 23.8407 40.3554 23.797 40.5545C23.767 40.6921 23.5989 41.4234 23.4236 42.1798C22.2157 47.395 22.2111 53.1939 23.4108 58.558C23.5798 59.3144 23.7489 60.0467 23.7865 60.1854C23.8427 60.3934 23.6557 60.5652 22.7197 61.1663C21.0749 62.2226 20.366 63.1899 20.0731 64.7779C19.6884 66.8639 20.8532 69.0537 22.8394 69.978C23.8245 70.4366 25.4894 70.5062 26.4872 70.1305C27.6551 69.691 28.2513 69.167 29.3514 67.6139L29.5427 67.3438L31.1692 68.1614C33.0163 69.0902 34.9676 69.9028 36.7948 70.5039L38.0464 70.9157L36.7268 71.1925C33.1985 71.9329 30.4878 73.8125 28.6978 76.7598C27.7673 78.292 27.0775 80.4153 27.2661 81.1663C27.3145 81.3589 27.5278 81.6149 27.7553 81.7534C28.1522 81.9952 28.505 81.9992 49.4735 81.9996C72.4657 82.0001 71.2996 82.0326 71.6482 81.3819C71.9577 80.8044 71.6369 79.4457 70.7759 77.6868C69.6347 75.3556 67.8095 73.493 65.5202 72.3235C64.2624 71.681 63.524 71.4285 62.0445 71.1351L60.9507 70.9183L62.2023 70.5051C64.0322 69.9013 65.9599 69.0985 67.8177 68.1667L69.4555 67.3452L69.6464 67.6147C70.745 69.1662 71.3423 69.691 72.5099 70.1305C73.5077 70.5062 75.1726 70.4366 76.1577 69.978C78.1547 69.0487 79.329 66.8173 78.9185 64.7326C78.6089 63.1608 77.9068 62.2127 76.278 61.1667C75.2423 60.5015 75.1508 60.411 75.2247 60.1233C75.5695 58.7796 75.9202 57.047 75.9855 56.364C76.0566 55.6215 76.0361 55.5131 75.7663 55.1998C75.5648 54.9657 75.3056 54.8324 74.9624 54.7864C74.2082 54.6854 73.715 55.138 73.5382 56.0932C73.4655 56.4861 73.1691 57.7839 72.8795 58.977C72.3978 60.9621 72.3685 61.1743 72.5345 61.4775C72.635 61.661 73.4133 62.2663 74.2803 62.835C75.6533 63.7358 75.887 63.9402 76.189 64.5058C76.6179 65.309 76.6221 65.7697 76.2082 66.5994C75.7865 67.4448 75.102 67.8724 74.1704 67.8724C73.073 67.8724 72.6497 67.5615 71.6202 65.9997C70.7508 64.6811 70.4206 64.3717 69.8831 64.3717C69.7426 64.3717 68.8582 64.7915 67.9177 65.3047C64.8398 66.9839 61.2153 68.3628 58.0281 69.0673C56.3214 69.4445 56.3712 69.4562 56.1332 68.6225C55.9003 67.8067 55.9523 67.6987 56.9441 66.9399C60.093 64.5306 61.7643 61.043 61.7643 56.881C61.7643 55.6022 61.7815 55.5169 62.1975 54.7344C62.7861 53.6271 63.4676 51.5289 63.6489 50.2659C63.8799 48.6574 63.7417 46.0804 63.3429 44.5553C62.8999 42.8616 61.765 40.592 60.7019 39.274C54.0574 31.0358 41.2258 32.4598 36.6465 41.9438C35.7141 43.8745 35.3438 45.3662 35.2631 47.5154C35.2245 48.5401 35.2587 49.6423 35.3482 50.2659C35.5295 51.5289 36.211 53.6271 36.7997 54.7344C37.2156 55.5169 37.2328 55.6022 37.2328 56.881C37.2328 61.043 38.9041 64.5306 42.053 66.9399C43.0857 67.7299 43.121 67.8193 42.7878 68.7963L42.5854 69.3896L42.0682 69.3055C41.1233 69.1519 38.3149 68.3931 37.0096 67.9387C35.0278 67.2489 32.9582 66.3297 31.0795 65.3047C30.1389 64.7915 29.2312 64.3717 29.0625 64.3717C28.586 64.3717 28.178 64.7755 27.2964 66.1196C26.3543 67.5559 25.9056 67.8727 24.8157 67.8717C23.7859 67.8707 22.9512 67.2609 22.6091 66.2597C22.3869 65.6094 22.4324 65.2095 22.8081 64.5058C23.1101 63.9402 23.3438 63.7358 24.7168 62.835C25.5884 62.2633 26.362 61.6613 26.4635 61.4759C26.6308 61.1704 26.6025 60.9705 26.1181 59.0379C25.4883 56.5246 25.2665 55.1124 25.076 52.4006C24.8361 48.9845 25.2261 45.0807 26.1648 41.5026C26.4323 40.4833 26.5757 39.6922 26.5305 39.4866C26.4317 39.0375 26.1563 38.8032 24.552 37.804C23.1208 36.9126 22.6734 36.4272 22.5247 35.6047C22.3518 34.6482 23.0279 33.4104 23.9285 33.0344C24.5173 32.7888 25.3097 32.8273 25.9406 33.1323C26.4047 33.3567 26.6374 33.6222 27.4034 34.8007C27.9043 35.5714 28.4105 36.2389 28.5283 36.2842C28.9977 36.4641 29.528 36.3452 30.3272 35.881C42.0135 29.0928 56.8396 29.0644 68.5435 35.8078C69.4709 36.3422 69.9853 36.4695 70.4688 36.2842C70.5866 36.2389 71.0929 35.5714 71.5937 34.8007C72.3597 33.6222 72.5924 33.3567 73.0565 33.1323C73.6874 32.8273 74.4798 32.7888 75.0686 33.0344C75.9692 33.4104 76.6453 34.6482 76.4724 35.6047C76.3251 36.4195 75.8814 36.9016 74.4493 37.8032C72.1968 39.2213 72.2163 39.1808 72.7755 41.274C72.9873 42.0666 73.2705 43.2978 73.4051 44.0102C73.618 45.1377 73.6989 45.35 74.0295 45.6493C74.5644 46.1334 75.1748 46.119 75.6841 45.6103C76.0512 45.2436 76.0642 45.1946 75.9943 44.4454C75.954 44.0152 75.7712 43.0201 75.588 42.234C75.4048 41.4478 75.2305 40.6921 75.2009 40.5545C75.1577 40.3542 75.3492 40.1801 76.1629 39.6794C77.3238 38.965 78.0073 38.2846 78.4593 37.3938C80.3873 33.5932 76.7829 29.342 72.6962 30.5966C71.6021 30.9324 70.7428 31.5869 70.0212 32.6339L69.4545 33.4564L68.4567 32.9125C65.4854 31.2927 60.9293 29.691 57.3063 28.9926C55.831 28.7083 53.512 28.4184 51.7202 28.2944C51.0489 28.2479 50.4998 28.1862 50.4998 28.1572C50.4998 28.1282 50.9786 27.2884 51.5637 26.291C52.7734 24.2288 52.8705 23.8181 52.2913 23.2143C51.979 22.8886 51.8851 22.8636 50.9771 22.8636C50.4393 22.8636 49.9992 22.8371 49.9992 22.8047C49.9992 22.7723 50.4779 22.0409 51.0631 21.1794C51.7099 20.2269 52.1269 19.4879 52.1269 19.2941C52.1269 18.2567 50.9865 17.6318 50.2085 18.2432ZM69.4924 18.207C68.8903 18.5881 65.3024 22.5903 65.2317 22.9597C65.0678 23.8166 65.6578 24.3636 66.9727 24.574L67.6128 24.6764L66.3782 26.2264C65.2882 27.5947 65.1436 27.8338 65.1436 28.2676C65.1436 29.2747 66.2827 29.8467 67.0647 29.2323C67.4934 28.8955 70.986 24.4856 71.1358 24.0921C71.4411 23.2902 70.9029 22.639 69.7649 22.4335L69.0031 22.2958L70.0892 21.1186C70.6865 20.4712 71.2285 19.8015 71.2936 19.6304C71.4675 19.1737 71.3089 18.6621 70.8822 18.3036C70.4428 17.9342 69.9749 17.9017 69.4924 18.207ZM52.4853 36.7359C55.9217 37.7208 58.5962 39.906 60.0666 42.93C60.9107 44.666 61.1462 45.6396 61.2286 47.7324C61.2968 49.4653 61.2904 49.5305 61.0625 49.4379C60.9322 49.3849 60.1139 49.293 59.244 49.2337C55.0057 48.9447 51.1777 47.4425 47.8518 44.7631C47.3248 44.3385 46.7288 43.9582 46.5275 43.9179C46.053 43.8232 44.163 44.451 42.817 45.1505C41.0888 46.0486 39.132 47.6874 38.0043 49.1812L37.7212 49.5563L37.7768 47.7434C37.8374 45.768 38.0299 44.8744 38.7313 43.3128C40.3127 39.792 43.6786 37.1959 47.5786 36.489C48.637 36.2971 51.4481 36.4386 52.4853 36.7359ZM46.7789 47.1027C49.9862 49.6104 54.2289 51.2904 58.3635 51.6898L59.2808 51.7785L59.23 55.3558C59.1726 59.4057 59.125 59.6924 58.2031 61.5586C56.9622 64.0702 54.7948 65.8632 52.0572 66.6426C50.6455 67.0446 48.3516 67.0446 46.9399 66.6426C44.2023 65.8632 42.0349 64.0702 40.794 61.5586C39.8555 59.6589 39.8223 59.4465 39.7682 54.9948L39.7204 51.0566L40.4209 50.2107C41.3197 49.1257 42.7524 47.9907 44.0403 47.3437C44.849 46.9374 45.6694 46.5788 45.9654 46.5019C45.9842 46.4972 46.3503 46.7675 46.7789 47.1027ZM74.6276 49.3074C73.5668 49.9017 73.9976 51.6192 75.2074 51.6192C75.888 51.6192 76.465 51.0514 76.465 50.3817C76.465 49.4538 75.4382 48.8534 74.6276 49.3074ZM46.5686 69.1405C48.0438 69.5398 50.8831 69.5392 52.4188 69.1392C53.0267 68.9808 53.5401 68.8702 53.5596 68.8932C53.5792 68.9162 53.6903 69.2264 53.8068 69.5824C53.9232 69.9385 54.1868 70.4619 54.3925 70.7455L54.7666 71.2614L54.4793 71.5013C53.9494 71.944 52.198 72.7257 51.2887 72.9255C49.4352 73.3327 47.5547 73.0956 45.8063 72.2345C45.2556 71.9632 44.6783 71.6353 44.5233 71.5057L44.2416 71.2703L44.6654 70.6275C44.8984 70.2739 45.1592 69.7345 45.245 69.4287C45.3307 69.1228 45.4407 68.8726 45.4897 68.8726C45.5386 68.8726 46.0241 68.9931 46.5686 69.1405ZM42.887 73.3714C43.8371 74.1362 45.3511 74.8942 46.6825 75.2717C48.1301 75.6823 50.8734 75.6816 52.309 75.2705C53.6232 74.8942 55.2036 74.1011 56.1379 73.349C56.8587 72.7688 56.9139 72.7469 57.3574 72.8646C57.6127 72.9322 58.8689 73.1569 60.149 73.3635C61.5186 73.5847 62.8507 73.878 63.3861 74.0762C65.6186 74.9028 67.7692 76.9425 68.742 79.1558L68.893 79.4996H49.5023H30.1115L30.305 79.0372C31.1529 77.0098 33.4173 74.8885 35.5936 74.0827C36.123 73.8867 37.5614 73.575 39.1295 73.3165C40.5834 73.0767 41.8028 72.8509 41.8392 72.8144C41.9743 72.6795 42.1306 72.7626 42.887 73.3714Z" fill="#61A1F4"/>
</svg>
