<svg width="100" height="100" viewBox="0 0 100 100" fill="none" xmlns="http://www.w3.org/2000/svg">
<path fill-rule="evenodd" clip-rule="evenodd" d="M49.4897 18.126C47.3828 18.2914 45.5533 18.6692 43.2973 19.4053C34.9602 22.1249 28.5157 28.6057 25.8146 36.9862C25.0401 39.3894 24.7156 41.4506 24.5627 44.9381C24.3672 49.3996 24.3193 49.5813 21.7361 55.6503C20.0186 59.6856 19.7978 60.4899 20.1317 61.4955C20.3499 62.1526 21.076 63.0222 21.6547 63.3197C21.878 63.4344 22.9513 63.7771 24.0403 64.0814C25.129 64.3856 26.0651 64.6815 26.1203 64.7387C26.1756 64.796 26.5796 67.1335 27.0181 69.9331C27.4566 72.7327 27.9075 75.3665 28.0202 75.7861C28.4439 77.3645 29.7521 78.7408 31.3713 79.312C32.0515 79.552 32.7588 79.5814 37.793 79.5785L43.4502 79.5753L44.6734 79.164C48.3119 77.9407 50.8658 74.5877 50.8658 71.0338C50.8658 70.2144 50.81 70.0158 50.4904 69.6984C49.5953 68.8087 48.1136 69.5464 48.1136 70.8816C48.1136 73.0201 46.5704 75.3117 44.4713 76.2901L43.6031 76.6947H37.8577H32.1121L31.5642 76.2794C31.2255 76.0228 30.9298 75.6165 30.7899 75.2158C30.6653 74.8592 30.2033 72.2427 29.7632 69.4013C28.681 62.4163 28.7329 62.5041 25.1024 61.4976C24.0092 61.1945 23.0198 60.8546 22.9036 60.7423C22.7247 60.5691 22.9429 59.95 24.3321 56.6885C26.8563 50.7631 27.3193 49.1095 27.3196 46.0198C27.3199 41.6452 28.081 38.0945 29.7683 34.5961C32.575 28.7762 37.8725 24.0958 43.9127 22.0994C46.8692 21.1221 48.1694 20.9302 51.7832 20.9372C54.5856 20.9427 55.2994 20.9931 56.6221 21.2788C70.7269 24.3257 79.2008 38.2229 75.2386 51.8103C74.4957 54.3583 73.7467 55.9056 71.5052 59.5238C70.7281 60.778 70.0355 62.5822 69.7351 64.1346C69.4674 65.5182 69.4154 80.8521 69.6768 81.3374C69.7634 81.4983 70.0429 81.737 70.2977 81.868C70.8674 82.1608 71.7087 81.9453 72.0052 81.4308C72.1469 81.1848 72.2174 79.0186 72.2828 72.8961C72.3582 65.8443 72.4065 64.5711 72.6261 63.8383C73.0169 62.5342 73.454 61.6343 74.4631 60.0567C75.5756 58.3175 76.8326 55.837 77.3887 54.2835C78.7714 50.4208 79.295 46.0081 78.8395 42.0574C78.0838 35.5004 74.8708 29.3156 69.978 24.9991C65.4143 20.973 59.889 18.6212 53.8196 18.1215C51.8417 17.9586 51.6205 17.9589 49.4897 18.126ZM48.2665 26.1076C45.4588 26.8371 42.8369 29.1216 41.746 31.7891L41.4035 32.6263L40.1453 32.8204C38.2627 33.1107 36.8447 33.8451 35.4085 35.274C34.0829 36.5927 33.4086 37.8142 33.0299 39.5836C32.0504 44.1593 35.355 48.8796 40.0482 49.6088C40.8253 49.7296 41.2332 49.8612 41.2332 49.9909C41.2332 50.4427 42.179 52.0015 42.8551 52.6638C44.2509 54.0315 45.5876 54.4347 48.7232 54.4347C50.7918 54.4347 51.4095 54.5613 52.205 55.1483C53.2147 55.8932 53.3768 56.4633 53.4637 59.5764L53.5415 62.3628L53.9705 62.7293C54.5534 63.227 55.3408 63.2207 55.8507 62.7139L56.2346 62.3324L56.1877 59.2572L56.1408 56.1821L55.6688 55.1945C55.0523 53.9041 54.0173 52.8619 52.7817 52.2874C51.5864 51.7315 50.445 51.5548 48.0229 51.5508C46.386 51.5481 46.0967 51.5072 45.5001 51.1942C43.5716 50.1824 43.2595 47.4348 44.9136 46.0278C45.5316 45.5022 46.3885 45.1661 47.111 45.1661C47.3653 45.1661 47.6983 44.9944 47.9725 44.7219C48.5734 44.1248 48.5734 43.4723 47.9725 42.8752C47.4165 42.3227 46.5837 42.2837 45.1735 42.7441C43.4435 43.309 42.0211 44.6482 41.4242 46.2745L41.1567 47.0032L40.5451 46.908C39.5638 46.7553 38.0913 46.0024 37.3676 45.2832C36.9993 44.9172 36.4972 44.2112 36.2516 43.7144C35.8444 42.8902 35.8053 42.6708 35.8053 41.2155C35.8053 39.7758 35.847 39.5354 36.2333 38.7541C36.7218 37.7654 37.8138 36.622 38.7104 36.1604C39.3857 35.8128 40.8594 35.4246 40.9944 35.5587C41.0416 35.6057 41.0803 35.9366 41.0803 36.2941C41.0803 37.1259 41.5491 37.6963 42.3347 37.8206C42.8239 37.8979 42.9641 37.8472 43.3667 37.4472C43.8068 37.0098 43.8325 36.9186 43.8325 35.7891C43.8325 33.5989 44.5046 31.9005 45.8836 30.6058C47.4694 29.1169 49.133 28.5059 51.2161 28.6472C53.4348 28.7979 55.5342 30.1408 56.666 32.1339C57.4074 33.4394 57.5025 33.4911 59.2268 33.5239C60.5564 33.5492 60.8447 33.6068 61.7523 34.0297C63.0062 34.6138 63.9716 35.5454 64.5625 36.7413C64.97 37.5662 65.0087 37.7835 65.0076 39.2402C65.0064 40.7113 64.9679 40.9201 64.5127 41.9202C64.0818 42.8667 64.0402 43.0656 64.1864 43.4822C64.356 43.9657 64.9917 44.4109 65.4981 44.401C65.9194 44.3927 66.4502 44.0508 66.7525 43.593L67.0251 43.1798L67.402 43.7551C68.037 44.7245 68.2203 45.3393 68.2078 46.4576C68.1874 48.2592 67.2448 49.6823 65.5542 50.4642C63.3805 51.4695 60.6321 50.4693 59.6056 48.2992C59.0828 47.1938 59.1212 47.0025 60.0516 46.0777C61.2569 44.8797 61.6189 44.0502 61.6919 42.32C61.7504 40.9292 61.7469 40.9136 61.2893 40.4587C60.7153 39.8882 60.0739 39.8545 59.4784 40.3635C59.0983 40.6885 59.0434 40.8567 58.9629 41.9459C58.888 42.9591 58.8022 43.2566 58.4544 43.7097C57.3772 45.1132 55.7038 45.1758 54.2222 43.8681C53.28 43.0366 52.7386 42.9776 52.0772 43.6349C51.5436 44.1652 51.5037 44.6988 51.9449 45.4083C52.6085 46.4752 54.1488 47.3617 55.6426 47.5363C56.4602 47.6317 56.5002 47.6572 56.591 48.1377C56.778 49.1285 57.7185 50.7156 58.6316 51.581C61.6249 54.4185 66.1433 54.3426 68.9603 51.4077C71.783 48.4669 71.7139 44.0275 68.8009 41.1556L67.9651 40.3316L67.9179 38.9883C67.8355 36.6372 66.9818 34.7448 65.2416 33.055C63.8707 31.7239 61.5599 30.7398 59.79 30.7335C59.1885 30.7314 59.1224 30.683 58.4139 29.722C58.0046 29.167 57.2913 28.4041 56.8288 28.0265C55.8509 27.2282 53.8939 26.2779 52.7313 26.0369C51.6189 25.8064 49.2833 25.8433 48.2665 26.1076ZM50.0027 33.9204C48.1075 34.316 46.0785 36.1475 46.349 37.2184C46.5085 37.8499 47.1117 38.3285 47.7479 38.3285C48.2076 38.3285 48.4163 38.2187 48.8634 37.7414C49.6742 36.8758 50.2883 36.612 51.3208 36.6863C52.8379 36.7954 53.7708 37.8271 53.7708 39.3961C53.7708 40.6363 54.2067 41.2023 55.1682 41.2106C55.9836 41.2178 56.4091 40.8065 56.5167 39.9069C56.7143 38.2559 56.1368 36.5772 54.9737 35.4214C53.7751 34.2303 51.6266 33.5816 50.0027 33.9204Z" fill="#61A1F4"/>
</svg>
