<svg width="153" height="153" viewBox="0 0 153 153" fill="none" xmlns="http://www.w3.org/2000/svg">
<path fill-rule="evenodd" clip-rule="evenodd" d="M114.631 28.2314C113.866 28.6554 113.676 29.2482 113.669 31.2342C113.662 33.0068 113.684 33.1041 114.212 33.6945C114.997 34.5742 116.119 34.5742 116.904 33.6945C117.428 33.1083 117.454 32.9966 117.454 31.2905C117.454 30.3065 117.352 29.2776 117.227 29.0042C116.812 28.093 115.555 27.719 114.631 28.2314ZM43.5239 31.9603C41.4017 32.3899 39.7426 33.7098 38.8013 35.7172L38.3017 36.7827V45.4091C38.3017 51.8304 38.3654 54.3263 38.5509 55.1731C40.0393 61.9703 44.1383 67.4176 49.9613 70.3367C51.9182 71.3177 54.0988 72.0647 55.8015 72.3371C56.4995 72.4488 57.2626 72.5802 57.4973 72.6289L57.9239 72.7174V87.3C57.9239 95.9285 57.9965 102.074 58.1019 102.351C58.613 103.695 60.1659 104.055 61.1615 103.059L61.7156 102.505V96.4237V90.3422H70.9913H80.2668L80.3345 96.3617C80.3995 102.17 80.4177 102.421 80.852 103.519C82.4391 107.529 85.7627 109.87 89.8691 109.87C92.5501 109.87 94.762 108.956 96.6829 107.055C97.7324 106.016 99.0713 103.635 102.67 96.4091C104.34 93.0562 104.574 92.7176 105.573 92.1987C108.175 90.8482 111.337 92.9978 110.954 95.8563C110.843 96.6831 105.112 108.203 103.935 109.965C102.838 111.607 100.504 113.803 98.7184 114.871C87.6168 121.517 73.5936 114.047 72.9573 101.149C72.8111 98.1859 72.4475 97.5466 70.9085 97.5466C70.3979 97.5466 70.0733 97.6911 69.6636 98.1008C69.1381 98.6266 69.1095 98.738 69.1095 100.267C69.1095 102.68 69.4302 104.61 70.2208 106.952C71.4226 110.512 73.6552 113.865 76.287 116.06C77.5271 117.094 77.5834 117.173 77.1219 117.232C76.2618 117.342 73.185 116.515 71.597 115.747C70.7562 115.341 69.5013 114.62 68.8084 114.145C68.1157 113.671 67.341 113.283 67.0873 113.283C66.4027 113.283 65.6114 113.756 65.3547 114.32C64.8176 115.499 65.1951 116.243 66.9455 117.453C71.6607 120.712 77.8052 121.92 83.2528 120.659C84.0614 120.472 84.4959 120.49 85.907 120.772C89.0196 121.394 93.2932 121.143 96.2136 120.168C100.663 118.681 104.79 115.564 107.21 111.861C107.755 111.027 109.664 107.418 111.453 103.842L114.705 97.3409V95.5004C114.705 93.824 114.651 93.5461 114.1 92.382C112.271 88.5212 107.959 86.9341 104.099 88.7011C103.562 88.947 102.807 89.4257 102.42 89.7649L101.718 90.3814L101.016 89.7649C98.1362 87.2363 93.527 87.432 90.8749 90.1953C90.1006 91.0018 89.3745 92.2525 87.122 96.6592C84.5639 101.663 84.3188 102.072 84.2079 101.517C84.1412 101.184 84.0868 94.5682 84.0868 86.8147V72.7174L84.5133 72.6319C84.748 72.5849 85.4944 72.4509 86.1722 72.3341C93.5992 71.0543 100.37 65.1552 102.63 57.9965C103.631 54.8246 103.66 54.5112 103.752 46.0496C103.849 37.0664 103.786 36.4659 102.564 34.6806C101.325 32.8701 99.4904 31.9091 97.263 31.9036C94.6605 31.8974 92.5865 33.1813 91.4402 35.5083L90.8171 36.7733L90.7149 44.9304C90.6254 52.0784 90.5717 53.1924 90.2822 53.9345C89.4137 56.1599 87.9293 57.7841 85.8031 58.8356C84.454 59.5026 84.2902 59.5367 82.1221 59.6019L79.8529 59.6702L80.544 58.7287C82.4383 56.1481 83.0198 54.0562 82.903 50.2437C82.834 47.9908 82.749 47.3962 82.3409 46.3112C80.5641 41.5887 76.5331 38.5501 71.6689 38.2665C66.5169 37.9662 61.6834 41.0417 59.8323 45.7984C58.8688 48.2742 58.6517 51.6704 59.2876 54.3199C59.5877 55.5704 60.6063 57.6961 61.3998 58.7279L62.0923 59.6285H60.2177C57.773 59.6285 56.2591 59.174 54.6683 57.9623C53.2722 56.8989 52.2145 55.4243 51.6789 53.7945C51.3117 52.6767 51.2884 52.1663 51.2884 45.2554C51.2884 37.0448 51.2156 36.4189 50.0559 34.6642C48.6973 32.6083 45.9466 31.4696 43.5239 31.9603ZM46.1578 36.0981C46.412 36.279 46.796 36.6623 47.0109 36.9501C47.3877 37.4541 47.4057 37.7724 47.5061 45.6596C47.6053 53.4368 47.6309 53.9007 48.019 54.9408C49.2456 58.2291 51.3775 60.7097 54.1386 62.0619C57.0086 63.4671 56.4774 63.4243 71.0243 63.4243C84.0193 63.4243 84.031 63.4239 85.5301 62.9897C89.5089 61.8374 92.5906 58.8925 93.8927 54.9983L94.4048 53.4667L94.5068 45.4091C94.6188 36.5528 94.5769 36.8508 95.8199 36.0769C97.0924 35.2842 98.5359 35.6245 99.5263 36.9503C99.9015 37.4526 99.9195 37.7485 99.9754 44.3326C100.012 48.6324 99.9526 51.899 99.8169 53.0876C99.3704 56.9996 97.802 60.4225 95.1893 63.1869C91.8861 66.6816 88.1202 68.4848 83.2645 68.8966C81.6077 69.0371 81.3434 69.111 80.8947 69.5594L80.3898 70.0643L80.3366 78.3073L80.2835 86.5504H70.9995H61.7156V78.4833C61.7156 69.6751 61.7016 69.5543 60.6344 69.1503C60.3428 69.0397 59.3363 68.9013 58.3979 68.8424C50.4087 68.3415 43.6852 62.215 42.2764 54.1529C41.8546 51.7396 41.8732 38.0524 42.2994 37.1543C42.976 35.7286 44.899 35.2021 46.1578 36.0981ZM107.048 35.8151C106.15 36.3122 105.851 37.4046 106.349 38.3668C106.745 39.1323 107.402 39.3422 109.402 39.3422C111.108 39.3422 111.22 39.3166 111.806 38.7928C112.315 38.3381 112.421 38.1061 112.421 37.4463C112.421 36.7865 112.315 36.5545 111.806 36.0998C111.216 35.5722 111.119 35.5506 109.346 35.557C108.181 35.5614 107.334 35.6564 107.048 35.8151ZM119.31 36.0998C118.801 36.5545 118.695 36.7865 118.695 37.4463C118.695 38.1061 118.801 38.3381 119.31 38.7928C119.896 39.3166 120.008 39.3422 121.714 39.3422C123.714 39.3422 124.371 39.1323 124.767 38.3668C125.275 37.3853 124.923 36.1975 124 35.777C123.727 35.6524 122.698 35.5504 121.714 35.5504C120.008 35.5504 119.896 35.576 119.31 36.0998ZM114.873 40.6584C114.653 40.7513 114.29 41.0593 114.068 41.3428C113.719 41.7855 113.662 42.107 113.662 43.6247C113.662 45.6031 113.874 46.2608 114.638 46.6557C115.619 47.1632 116.807 46.8113 117.227 45.8884C117.352 45.615 117.454 44.5861 117.454 43.6021C117.454 41.9153 117.424 41.7802 116.933 41.2406C116.373 40.6265 115.52 40.3853 114.873 40.6584ZM72.9893 42.2871C75.4109 42.9179 77.3566 44.5524 78.4534 46.8768C79.0049 48.046 79.0641 48.3529 79.1276 50.3813C79.1856 52.2331 79.1308 52.8233 78.7998 53.9132C78.2644 55.6759 77.0226 57.3382 75.5118 58.3146C73.862 59.381 72.6652 59.6882 70.5257 59.5947C68.972 59.5266 68.6139 59.439 67.3603 58.8195C63.9615 57.1395 62.2364 53.5356 62.8237 49.3412C63.1017 47.3562 63.8604 45.7834 65.1727 44.4705C67.2663 42.3761 70.1928 41.5587 72.9893 42.2871ZM98.0086 92.2944C98.4246 92.5242 98.9567 92.9968 99.1913 93.3449L99.6175 93.9778L97.2491 98.7119C94.7089 103.789 94.059 104.718 92.4886 105.513C91.2099 106.16 89.0236 106.267 87.8335 105.741L86.9844 105.365L89.9434 99.5125C91.5709 96.2936 93.0305 93.4632 93.1869 93.2226C93.5069 92.7305 94.449 92.0967 95.2276 91.8498C95.9577 91.6183 97.1208 91.8043 98.0086 92.2944ZM36.5215 106.343C35.7567 106.767 35.5668 107.36 35.5594 109.346C35.5529 111.118 35.5746 111.216 36.1022 111.806C36.5568 112.315 36.7888 112.421 37.4486 112.421C38.1084 112.421 38.3404 112.315 38.795 111.806C39.3189 111.22 39.3445 111.108 39.3445 109.402C39.3445 108.418 39.2425 107.389 39.1179 107.116C38.7029 106.204 37.446 105.83 36.5215 106.343ZM61.1677 107.67C59.5242 108.581 60.2118 111.197 62.0948 111.197C63.0554 111.197 63.9906 110.271 63.9906 109.32C63.9906 107.896 62.4177 106.977 61.1677 107.67ZM28.9381 113.927C28.041 114.424 27.742 115.516 28.2395 116.478C28.6353 117.244 29.2926 117.454 31.2929 117.454C32.999 117.454 33.1107 117.428 33.6969 116.904C34.5766 116.118 34.5766 114.997 33.6969 114.211C33.1065 113.684 33.0093 113.662 31.2366 113.669C30.0712 113.673 29.2242 113.768 28.9381 113.927ZM41.2003 114.211C40.6915 114.666 40.5853 114.898 40.5853 115.558C40.5853 116.218 40.6915 116.45 41.2003 116.904C41.7865 117.428 41.8982 117.454 43.6043 117.454C45.6046 117.454 46.2619 117.244 46.6577 116.478C46.9998 115.817 46.9998 115.299 46.6577 114.637C46.2619 113.872 45.6046 113.662 43.6043 113.662C41.8982 113.662 41.7865 113.687 41.2003 114.211ZM36.7638 118.77C36.5437 118.863 36.181 119.171 35.9581 119.454C35.6098 119.897 35.5527 120.218 35.5527 121.736C35.5527 123.715 35.7643 124.372 36.5282 124.767C37.5097 125.275 38.6974 124.923 39.1179 124C39.2425 123.727 39.3445 122.698 39.3445 121.714C39.3445 120.027 39.3147 119.892 38.8231 119.352C38.2634 118.738 37.4109 118.497 36.7638 118.77Z" fill="#61A1F4"/>
</svg>
