<svg width="100" height="100" viewBox="0 0 100 100" fill="none" xmlns="http://www.w3.org/2000/svg">
<mask id="path-1-outside-1_332_11151" maskUnits="userSpaceOnUse" x="22" y="17" width="56" height="66" fill="black">
<rect fill="white" x="22" y="17" width="56" height="66"/>
<path fill-rule="evenodd" clip-rule="evenodd" d="M39.4564 18.1858C39.1123 18.3755 38.8247 18.8337 38.8206 19.1986C38.8151 19.6975 40.5531 25.7804 40.7689 26.0178C41.2501 26.5467 42.3321 26.1603 42.3321 25.4595C42.3321 25.2942 42.0212 24.0184 41.6412 22.6243C41.2611 21.2301 40.9502 20.0437 40.9502 19.9877C40.9502 19.9317 41.5641 19.886 42.3145 19.886H43.6789L44.2742 22.0998C45.2288 25.6496 45.9287 27.2973 47.3681 29.3843C48.9452 31.6705 49.804 32.3672 51.1813 32.4771C52.2431 32.5619 52.8771 32.3347 54.1723 31.4051C56.5223 29.7183 58.6805 29.0018 61.4279 28.9963C63.5297 28.992 65.2173 29.3872 67.0857 30.3209C68.8349 31.195 70.7853 33.019 71.7846 34.7154C73.1809 37.0856 74.4167 41.1645 74.9406 45.1315C75.1996 47.0929 75.1345 51.3477 74.8192 53.0676C73.4188 60.7054 69.2606 66.8428 63.1918 70.2293C59.3892 72.3513 55.5616 73.2567 51.1262 73.0836C46.4944 72.9029 42.303 71.4225 38.5004 68.6245C36.4208 67.0943 35.8001 66.2633 35.6089 64.7531C35.5549 64.3269 35.4231 63.9588 35.2618 63.7845C34.777 63.2602 33.8863 63.5295 33.7275 64.2484C33.6521 64.5897 33.615 64.6115 33.2464 64.5295C33.0268 64.4806 32.3948 64.4419 31.842 64.4435C31.0229 64.4457 30.7046 64.5075 30.1214 64.7772C29.2116 65.1977 28.4053 65.9988 27.9373 66.9469C27.6146 67.6009 27.5706 67.825 27.5706 68.8148C27.5706 70.7416 27.5619 70.7296 32.631 75.7824L36.9881 80.1253H35.1011H33.2143L29.6315 76.5322C26.7953 73.6876 25.9675 72.7829 25.6582 72.1892C23.8071 68.6361 25.2724 64.1297 28.8269 62.4447C29.9175 61.9277 30.7417 61.7527 32.068 61.7566C33.5336 61.761 34.0089 61.8973 35.9878 62.881C38.0645 63.9132 38.8324 64.1282 40.4452 64.1282C42.474 64.1282 44.4649 63.3935 46.29 61.9718C48.2089 60.4769 49.8295 57.7965 50.6515 54.7587C50.8348 54.0812 50.9232 53.2746 50.9672 51.8803C51.0396 49.5885 50.8715 48.4797 50.1069 46.2041C49.8316 45.385 49.5212 44.3164 49.417 43.8295C49.1341 42.5061 49.1679 40.2173 49.4935 38.6572C49.7169 37.587 49.7395 37.264 49.6276 36.745C49.4201 35.7824 49.1825 35.4312 47.7789 34.0129C46.341 32.5595 45.3266 31.2747 44.4197 29.7581C43.8021 28.7253 43.5661 28.5095 43.0532 28.5095C42.6689 28.5095 42.2065 28.9963 42.2065 29.4008C42.2065 30.1642 44.4486 33.3426 46.3243 35.2381C47.9028 36.8335 47.935 36.9165 47.6006 38.5401C47.4115 39.4582 47.3375 40.2793 47.3386 41.4447C47.3405 43.3358 47.5209 44.3342 48.2982 46.7562C49.0124 48.9817 49.1655 49.9993 49.0827 51.9712C49.0026 53.8792 48.7174 55.0564 47.94 56.6891C46.8166 59.0483 45.414 60.5807 43.5549 61.4796C42.1859 62.1416 41.4311 62.3004 40.0237 62.2223C38.7328 62.1506 38.0901 61.9363 36.5854 61.0755C35.0791 60.2137 34.2312 59.9741 32.4488 59.907C30.5235 59.8344 29.4373 60.0566 27.8455 60.8486C26.2131 61.6606 24.7761 63.0902 23.9598 64.7141C23.1706 66.2839 22.9395 67.3867 23.0128 69.2321C23.0587 70.3849 23.1422 70.8985 23.4131 71.6893C24.0436 73.5308 24.605 74.2469 28.444 78.1063C30.3819 80.0547 32.1203 81.7279 32.3068 81.8244C32.5719 81.9616 33.3368 82 35.8027 82H38.9595L39.3267 81.6347C39.618 81.3449 39.6939 81.159 39.6939 80.7351V80.2008L34.6878 75.1952C30.0907 70.5985 29.6686 70.1411 29.5205 69.5954C29.1798 68.3399 29.694 67.1241 30.797 66.5774C31.5478 66.2052 32.3127 66.1579 32.9949 66.4415C33.2447 66.5452 34.0511 67.2089 34.787 67.9162C35.5231 68.6236 36.5854 69.5508 37.1479 69.9768C46.2076 76.8375 58.7049 76.6596 67.5456 69.5441C72.4802 65.5723 75.9069 59.2087 76.8128 52.334C77.0622 50.4412 77.0625 46.8893 76.8132 44.8867C76.2618 40.4565 74.7233 35.6944 73.0211 33.1494C71.0142 30.149 67.7499 28.0305 64.0428 27.3229C62.7279 27.072 60.1764 27.0648 58.9001 27.3086C56.6218 27.7437 55.1637 28.4161 52.5207 30.2504C51.4661 30.9823 50.7331 30.7313 49.5902 29.2466C47.8384 26.971 47.1361 25.4208 46.0373 21.4033C45.2784 18.6283 45.2259 18.4909 44.8158 18.2052C44.4399 17.9433 39.9258 17.927 39.4564 18.1858ZM59.6063 30.6946C58.4194 30.9144 57.6493 31.1864 56.5283 31.7815C53.3626 33.4626 51.3211 36.4788 50.8529 40.1663C50.6394 41.8479 50.8331 43.3382 51.547 45.5065C52.4177 48.1515 52.5658 49.0055 52.5658 51.3804C52.5658 53.6609 52.3911 54.7518 51.7252 56.6295C50.974 58.7476 49.8762 60.5828 48.3986 62.191C46.52 64.2353 46.1264 66.3728 47.2151 68.616C47.9658 70.1625 49.5988 71.3195 51.2399 71.4675L52.0173 71.5376L51.9801 70.6148L51.9428 69.6921L51.3653 69.6102C49.3959 69.3312 48.0827 67.2039 48.6601 65.228C48.8167 64.6922 49.0747 64.2945 49.8045 63.464C52.0794 60.8755 53.4303 58.2282 54.1711 54.9065C54.3948 53.9037 54.4431 53.2741 54.4487 51.2867L54.4554 48.8809H55.0361C55.3556 48.8809 56.0622 49.0293 56.6065 49.2108C58.0173 49.6812 59.6976 49.683 61.1138 49.2157C62.464 48.7701 63.5326 48.7701 64.8827 49.2157C66.2936 49.6812 67.9783 49.6787 69.3779 49.2089C69.9607 49.0133 70.6328 48.8809 71.0425 48.8809C71.8439 48.8809 71.7979 48.7206 71.599 50.818C70.7507 59.7682 65.0388 66.9464 57.1281 69.0034C55.9297 69.3151 55.6071 69.5553 55.6071 70.1356C55.6071 70.6849 56.0311 71.0598 56.6256 71.0363C57.8198 70.9888 61.5364 69.4891 63.4117 68.2978C67.4751 65.7165 70.6905 61.4466 72.3444 56.4352C74.132 51.019 73.9883 45.2629 71.91 39.0396C71.0342 36.4169 70.4274 35.2265 69.4254 34.1647C68.9285 33.6382 68.3495 33.6077 67.9698 34.0879C67.5941 34.563 67.6442 34.8662 68.2261 35.6366C68.951 36.5962 69.5003 37.7335 70.0984 39.5134C70.8791 41.8366 71.6039 45.2258 71.6039 46.5524V47.0062H70.8567C70.3855 47.0062 69.724 47.131 69.0665 47.3441C67.6935 47.7889 66.6066 47.7987 65.3224 47.3776C63.9754 46.936 62.0174 46.9366 60.6741 47.3791C59.4477 47.7832 58.1694 47.7847 57.0937 47.3834C56.6197 47.2067 55.9031 47.0728 55.1632 47.0229L53.9865 46.9437L53.4431 45.2639C52.7592 43.1499 52.5794 42.1046 52.6791 40.8219C53.1303 35.0189 58.4716 31.201 63.9405 32.7722C64.4587 32.9212 65.0241 33.0357 65.1968 33.0268C65.8665 32.9922 66.1993 32.0063 65.7066 31.5162C65.5724 31.3827 65.0796 31.1557 64.6112 31.0119C62.9515 30.502 61.2342 30.393 59.6063 30.6946ZM66.6585 53.8891C66.0289 54.3818 66.3593 55.5047 67.1338 55.5047C67.6063 55.5047 67.829 55.3788 68.0255 55.0009C68.2593 54.5511 68.0749 53.9718 67.6344 53.7722C67.196 53.5735 67.0375 53.5924 66.6585 53.8891ZM64.3462 56.8381C64.2584 56.8733 64.0984 57.0714 63.9908 57.2785C63.8295 57.5888 63.8219 57.7194 63.9478 58.0219C64.2151 58.6639 64.8074 58.8091 65.3683 58.3701C66.2006 57.7189 65.3459 56.4379 64.3462 56.8381ZM53.7645 62.3785C53.1967 62.9432 53.6003 63.9198 54.4012 63.9198C55.1776 63.9198 55.6067 62.9535 55.0851 62.3801C54.7831 62.0482 54.0974 62.0473 53.7645 62.3785Z"/>
</mask>
<path fill-rule="evenodd" clip-rule="evenodd" d="M39.4564 18.1858C39.1123 18.3755 38.8247 18.8337 38.8206 19.1986C38.8151 19.6975 40.5531 25.7804 40.7689 26.0178C41.2501 26.5467 42.3321 26.1603 42.3321 25.4595C42.3321 25.2942 42.0212 24.0184 41.6412 22.6243C41.2611 21.2301 40.9502 20.0437 40.9502 19.9877C40.9502 19.9317 41.5641 19.886 42.3145 19.886H43.6789L44.2742 22.0998C45.2288 25.6496 45.9287 27.2973 47.3681 29.3843C48.9452 31.6705 49.804 32.3672 51.1813 32.4771C52.2431 32.5619 52.8771 32.3347 54.1723 31.4051C56.5223 29.7183 58.6805 29.0018 61.4279 28.9963C63.5297 28.992 65.2173 29.3872 67.0857 30.3209C68.8349 31.195 70.7853 33.019 71.7846 34.7154C73.1809 37.0856 74.4167 41.1645 74.9406 45.1315C75.1996 47.0929 75.1345 51.3477 74.8192 53.0676C73.4188 60.7054 69.2606 66.8428 63.1918 70.2293C59.3892 72.3513 55.5616 73.2567 51.1262 73.0836C46.4944 72.9029 42.303 71.4225 38.5004 68.6245C36.4208 67.0943 35.8001 66.2633 35.6089 64.7531C35.5549 64.3269 35.4231 63.9588 35.2618 63.7845C34.777 63.2602 33.8863 63.5295 33.7275 64.2484C33.6521 64.5897 33.615 64.6115 33.2464 64.5295C33.0268 64.4806 32.3948 64.4419 31.842 64.4435C31.0229 64.4457 30.7046 64.5075 30.1214 64.7772C29.2116 65.1977 28.4053 65.9988 27.9373 66.9469C27.6146 67.6009 27.5706 67.825 27.5706 68.8148C27.5706 70.7416 27.5619 70.7296 32.631 75.7824L36.9881 80.1253H35.1011H33.2143L29.6315 76.5322C26.7953 73.6876 25.9675 72.7829 25.6582 72.1892C23.8071 68.6361 25.2724 64.1297 28.8269 62.4447C29.9175 61.9277 30.7417 61.7527 32.068 61.7566C33.5336 61.761 34.0089 61.8973 35.9878 62.881C38.0645 63.9132 38.8324 64.1282 40.4452 64.1282C42.474 64.1282 44.4649 63.3935 46.29 61.9718C48.2089 60.4769 49.8295 57.7965 50.6515 54.7587C50.8348 54.0812 50.9232 53.2746 50.9672 51.8803C51.0396 49.5885 50.8715 48.4797 50.1069 46.2041C49.8316 45.385 49.5212 44.3164 49.417 43.8295C49.1341 42.5061 49.1679 40.2173 49.4935 38.6572C49.7169 37.587 49.7395 37.264 49.6276 36.745C49.4201 35.7824 49.1825 35.4312 47.7789 34.0129C46.341 32.5595 45.3266 31.2747 44.4197 29.7581C43.8021 28.7253 43.5661 28.5095 43.0532 28.5095C42.6689 28.5095 42.2065 28.9963 42.2065 29.4008C42.2065 30.1642 44.4486 33.3426 46.3243 35.2381C47.9028 36.8335 47.935 36.9165 47.6006 38.5401C47.4115 39.4582 47.3375 40.2793 47.3386 41.4447C47.3405 43.3358 47.5209 44.3342 48.2982 46.7562C49.0124 48.9817 49.1655 49.9993 49.0827 51.9712C49.0026 53.8792 48.7174 55.0564 47.94 56.6891C46.8166 59.0483 45.414 60.5807 43.5549 61.4796C42.1859 62.1416 41.4311 62.3004 40.0237 62.2223C38.7328 62.1506 38.0901 61.9363 36.5854 61.0755C35.0791 60.2137 34.2312 59.9741 32.4488 59.907C30.5235 59.8344 29.4373 60.0566 27.8455 60.8486C26.2131 61.6606 24.7761 63.0902 23.9598 64.7141C23.1706 66.2839 22.9395 67.3867 23.0128 69.2321C23.0587 70.3849 23.1422 70.8985 23.4131 71.6893C24.0436 73.5308 24.605 74.2469 28.444 78.1063C30.3819 80.0547 32.1203 81.7279 32.3068 81.8244C32.5719 81.9616 33.3368 82 35.8027 82H38.9595L39.3267 81.6347C39.618 81.3449 39.6939 81.159 39.6939 80.7351V80.2008L34.6878 75.1952C30.0907 70.5985 29.6686 70.1411 29.5205 69.5954C29.1798 68.3399 29.694 67.1241 30.797 66.5774C31.5478 66.2052 32.3127 66.1579 32.9949 66.4415C33.2447 66.5452 34.0511 67.2089 34.787 67.9162C35.5231 68.6236 36.5854 69.5508 37.1479 69.9768C46.2076 76.8375 58.7049 76.6596 67.5456 69.5441C72.4802 65.5723 75.9069 59.2087 76.8128 52.334C77.0622 50.4412 77.0625 46.8893 76.8132 44.8867C76.2618 40.4565 74.7233 35.6944 73.0211 33.1494C71.0142 30.149 67.7499 28.0305 64.0428 27.3229C62.7279 27.072 60.1764 27.0648 58.9001 27.3086C56.6218 27.7437 55.1637 28.4161 52.5207 30.2504C51.4661 30.9823 50.7331 30.7313 49.5902 29.2466C47.8384 26.971 47.1361 25.4208 46.0373 21.4033C45.2784 18.6283 45.2259 18.4909 44.8158 18.2052C44.4399 17.9433 39.9258 17.927 39.4564 18.1858ZM59.6063 30.6946C58.4194 30.9144 57.6493 31.1864 56.5283 31.7815C53.3626 33.4626 51.3211 36.4788 50.8529 40.1663C50.6394 41.8479 50.8331 43.3382 51.547 45.5065C52.4177 48.1515 52.5658 49.0055 52.5658 51.3804C52.5658 53.6609 52.3911 54.7518 51.7252 56.6295C50.974 58.7476 49.8762 60.5828 48.3986 62.191C46.52 64.2353 46.1264 66.3728 47.2151 68.616C47.9658 70.1625 49.5988 71.3195 51.2399 71.4675L52.0173 71.5376L51.9801 70.6148L51.9428 69.6921L51.3653 69.6102C49.3959 69.3312 48.0827 67.2039 48.6601 65.228C48.8167 64.6922 49.0747 64.2945 49.8045 63.464C52.0794 60.8755 53.4303 58.2282 54.1711 54.9065C54.3948 53.9037 54.4431 53.2741 54.4487 51.2867L54.4554 48.8809H55.0361C55.3556 48.8809 56.0622 49.0293 56.6065 49.2108C58.0173 49.6812 59.6976 49.683 61.1138 49.2157C62.464 48.7701 63.5326 48.7701 64.8827 49.2157C66.2936 49.6812 67.9783 49.6787 69.3779 49.2089C69.9607 49.0133 70.6328 48.8809 71.0425 48.8809C71.8439 48.8809 71.7979 48.7206 71.599 50.818C70.7507 59.7682 65.0388 66.9464 57.1281 69.0034C55.9297 69.3151 55.6071 69.5553 55.6071 70.1356C55.6071 70.6849 56.0311 71.0598 56.6256 71.0363C57.8198 70.9888 61.5364 69.4891 63.4117 68.2978C67.4751 65.7165 70.6905 61.4466 72.3444 56.4352C74.132 51.019 73.9883 45.2629 71.91 39.0396C71.0342 36.4169 70.4274 35.2265 69.4254 34.1647C68.9285 33.6382 68.3495 33.6077 67.9698 34.0879C67.5941 34.563 67.6442 34.8662 68.2261 35.6366C68.951 36.5962 69.5003 37.7335 70.0984 39.5134C70.8791 41.8366 71.6039 45.2258 71.6039 46.5524V47.0062H70.8567C70.3855 47.0062 69.724 47.131 69.0665 47.3441C67.6935 47.7889 66.6066 47.7987 65.3224 47.3776C63.9754 46.936 62.0174 46.9366 60.6741 47.3791C59.4477 47.7832 58.1694 47.7847 57.0937 47.3834C56.6197 47.2067 55.9031 47.0728 55.1632 47.0229L53.9865 46.9437L53.4431 45.2639C52.7592 43.1499 52.5794 42.1046 52.6791 40.8219C53.1303 35.0189 58.4716 31.201 63.9405 32.7722C64.4587 32.9212 65.0241 33.0357 65.1968 33.0268C65.8665 32.9922 66.1993 32.0063 65.7066 31.5162C65.5724 31.3827 65.0796 31.1557 64.6112 31.0119C62.9515 30.502 61.2342 30.393 59.6063 30.6946ZM66.6585 53.8891C66.0289 54.3818 66.3593 55.5047 67.1338 55.5047C67.6063 55.5047 67.829 55.3788 68.0255 55.0009C68.2593 54.5511 68.0749 53.9718 67.6344 53.7722C67.196 53.5735 67.0375 53.5924 66.6585 53.8891ZM64.3462 56.8381C64.2584 56.8733 64.0984 57.0714 63.9908 57.2785C63.8295 57.5888 63.8219 57.7194 63.9478 58.0219C64.2151 58.6639 64.8074 58.8091 65.3683 58.3701C66.2006 57.7189 65.3459 56.4379 64.3462 56.8381ZM53.7645 62.3785C53.1967 62.9432 53.6003 63.9198 54.4012 63.9198C55.1776 63.9198 55.6067 62.9535 55.0851 62.3801C54.7831 62.0482 54.0974 62.0473 53.7645 62.3785Z" fill="#61A1F4"/>
<path fill-rule="evenodd" clip-rule="evenodd" d="M39.4564 18.1858C39.1123 18.3755 38.8247 18.8337 38.8206 19.1986C38.8151 19.6975 40.5531 25.7804 40.7689 26.0178C41.2501 26.5467 42.3321 26.1603 42.3321 25.4595C42.3321 25.2942 42.0212 24.0184 41.6412 22.6243C41.2611 21.2301 40.9502 20.0437 40.9502 19.9877C40.9502 19.9317 41.5641 19.886 42.3145 19.886H43.6789L44.2742 22.0998C45.2288 25.6496 45.9287 27.2973 47.3681 29.3843C48.9452 31.6705 49.804 32.3672 51.1813 32.4771C52.2431 32.5619 52.8771 32.3347 54.1723 31.4051C56.5223 29.7183 58.6805 29.0018 61.4279 28.9963C63.5297 28.992 65.2173 29.3872 67.0857 30.3209C68.8349 31.195 70.7853 33.019 71.7846 34.7154C73.1809 37.0856 74.4167 41.1645 74.9406 45.1315C75.1996 47.0929 75.1345 51.3477 74.8192 53.0676C73.4188 60.7054 69.2606 66.8428 63.1918 70.2293C59.3892 72.3513 55.5616 73.2567 51.1262 73.0836C46.4944 72.9029 42.303 71.4225 38.5004 68.6245C36.4208 67.0943 35.8001 66.2633 35.6089 64.7531C35.5549 64.3269 35.4231 63.9588 35.2618 63.7845C34.777 63.2602 33.8863 63.5295 33.7275 64.2484C33.6521 64.5897 33.615 64.6115 33.2464 64.5295C33.0268 64.4806 32.3948 64.4419 31.842 64.4435C31.0229 64.4457 30.7046 64.5075 30.1214 64.7772C29.2116 65.1977 28.4053 65.9988 27.9373 66.9469C27.6146 67.6009 27.5706 67.825 27.5706 68.8148C27.5706 70.7416 27.5619 70.7296 32.631 75.7824L36.9881 80.1253H35.1011H33.2143L29.6315 76.5322C26.7953 73.6876 25.9675 72.7829 25.6582 72.1892C23.8071 68.6361 25.2724 64.1297 28.8269 62.4447C29.9175 61.9277 30.7417 61.7527 32.068 61.7566C33.5336 61.761 34.0089 61.8973 35.9878 62.881C38.0645 63.9132 38.8324 64.1282 40.4452 64.1282C42.474 64.1282 44.4649 63.3935 46.29 61.9718C48.2089 60.4769 49.8295 57.7965 50.6515 54.7587C50.8348 54.0812 50.9232 53.2746 50.9672 51.8803C51.0396 49.5885 50.8715 48.4797 50.1069 46.2041C49.8316 45.385 49.5212 44.3164 49.417 43.8295C49.1341 42.5061 49.1679 40.2173 49.4935 38.6572C49.7169 37.587 49.7395 37.264 49.6276 36.745C49.4201 35.7824 49.1825 35.4312 47.7789 34.0129C46.341 32.5595 45.3266 31.2747 44.4197 29.7581C43.8021 28.7253 43.5661 28.5095 43.0532 28.5095C42.6689 28.5095 42.2065 28.9963 42.2065 29.4008C42.2065 30.1642 44.4486 33.3426 46.3243 35.2381C47.9028 36.8335 47.935 36.9165 47.6006 38.5401C47.4115 39.4582 47.3375 40.2793 47.3386 41.4447C47.3405 43.3358 47.5209 44.3342 48.2982 46.7562C49.0124 48.9817 49.1655 49.9993 49.0827 51.9712C49.0026 53.8792 48.7174 55.0564 47.94 56.6891C46.8166 59.0483 45.414 60.5807 43.5549 61.4796C42.1859 62.1416 41.4311 62.3004 40.0237 62.2223C38.7328 62.1506 38.0901 61.9363 36.5854 61.0755C35.0791 60.2137 34.2312 59.9741 32.4488 59.907C30.5235 59.8344 29.4373 60.0566 27.8455 60.8486C26.2131 61.6606 24.7761 63.0902 23.9598 64.7141C23.1706 66.2839 22.9395 67.3867 23.0128 69.2321C23.0587 70.3849 23.1422 70.8985 23.4131 71.6893C24.0436 73.5308 24.605 74.2469 28.444 78.1063C30.3819 80.0547 32.1203 81.7279 32.3068 81.8244C32.5719 81.9616 33.3368 82 35.8027 82H38.9595L39.3267 81.6347C39.618 81.3449 39.6939 81.159 39.6939 80.7351V80.2008L34.6878 75.1952C30.0907 70.5985 29.6686 70.1411 29.5205 69.5954C29.1798 68.3399 29.694 67.1241 30.797 66.5774C31.5478 66.2052 32.3127 66.1579 32.9949 66.4415C33.2447 66.5452 34.0511 67.2089 34.787 67.9162C35.5231 68.6236 36.5854 69.5508 37.1479 69.9768C46.2076 76.8375 58.7049 76.6596 67.5456 69.5441C72.4802 65.5723 75.9069 59.2087 76.8128 52.334C77.0622 50.4412 77.0625 46.8893 76.8132 44.8867C76.2618 40.4565 74.7233 35.6944 73.0211 33.1494C71.0142 30.149 67.7499 28.0305 64.0428 27.3229C62.7279 27.072 60.1764 27.0648 58.9001 27.3086C56.6218 27.7437 55.1637 28.4161 52.5207 30.2504C51.4661 30.9823 50.7331 30.7313 49.5902 29.2466C47.8384 26.971 47.1361 25.4208 46.0373 21.4033C45.2784 18.6283 45.2259 18.4909 44.8158 18.2052C44.4399 17.9433 39.9258 17.927 39.4564 18.1858ZM59.6063 30.6946C58.4194 30.9144 57.6493 31.1864 56.5283 31.7815C53.3626 33.4626 51.3211 36.4788 50.8529 40.1663C50.6394 41.8479 50.8331 43.3382 51.547 45.5065C52.4177 48.1515 52.5658 49.0055 52.5658 51.3804C52.5658 53.6609 52.3911 54.7518 51.7252 56.6295C50.974 58.7476 49.8762 60.5828 48.3986 62.191C46.52 64.2353 46.1264 66.3728 47.2151 68.616C47.9658 70.1625 49.5988 71.3195 51.2399 71.4675L52.0173 71.5376L51.9801 70.6148L51.9428 69.6921L51.3653 69.6102C49.3959 69.3312 48.0827 67.2039 48.6601 65.228C48.8167 64.6922 49.0747 64.2945 49.8045 63.464C52.0794 60.8755 53.4303 58.2282 54.1711 54.9065C54.3948 53.9037 54.4431 53.2741 54.4487 51.2867L54.4554 48.8809H55.0361C55.3556 48.8809 56.0622 49.0293 56.6065 49.2108C58.0173 49.6812 59.6976 49.683 61.1138 49.2157C62.464 48.7701 63.5326 48.7701 64.8827 49.2157C66.2936 49.6812 67.9783 49.6787 69.3779 49.2089C69.9607 49.0133 70.6328 48.8809 71.0425 48.8809C71.8439 48.8809 71.7979 48.7206 71.599 50.818C70.7507 59.7682 65.0388 66.9464 57.1281 69.0034C55.9297 69.3151 55.6071 69.5553 55.6071 70.1356C55.6071 70.6849 56.0311 71.0598 56.6256 71.0363C57.8198 70.9888 61.5364 69.4891 63.4117 68.2978C67.4751 65.7165 70.6905 61.4466 72.3444 56.4352C74.132 51.019 73.9883 45.2629 71.91 39.0396C71.0342 36.4169 70.4274 35.2265 69.4254 34.1647C68.9285 33.6382 68.3495 33.6077 67.9698 34.0879C67.5941 34.563 67.6442 34.8662 68.2261 35.6366C68.951 36.5962 69.5003 37.7335 70.0984 39.5134C70.8791 41.8366 71.6039 45.2258 71.6039 46.5524V47.0062H70.8567C70.3855 47.0062 69.724 47.131 69.0665 47.3441C67.6935 47.7889 66.6066 47.7987 65.3224 47.3776C63.9754 46.936 62.0174 46.9366 60.6741 47.3791C59.4477 47.7832 58.1694 47.7847 57.0937 47.3834C56.6197 47.2067 55.9031 47.0728 55.1632 47.0229L53.9865 46.9437L53.4431 45.2639C52.7592 43.1499 52.5794 42.1046 52.6791 40.8219C53.1303 35.0189 58.4716 31.201 63.9405 32.7722C64.4587 32.9212 65.0241 33.0357 65.1968 33.0268C65.8665 32.9922 66.1993 32.0063 65.7066 31.5162C65.5724 31.3827 65.0796 31.1557 64.6112 31.0119C62.9515 30.502 61.2342 30.393 59.6063 30.6946ZM66.6585 53.8891C66.0289 54.3818 66.3593 55.5047 67.1338 55.5047C67.6063 55.5047 67.829 55.3788 68.0255 55.0009C68.2593 54.5511 68.0749 53.9718 67.6344 53.7722C67.196 53.5735 67.0375 53.5924 66.6585 53.8891ZM64.3462 56.8381C64.2584 56.8733 64.0984 57.0714 63.9908 57.2785C63.8295 57.5888 63.8219 57.7194 63.9478 58.0219C64.2151 58.6639 64.8074 58.8091 65.3683 58.3701C66.2006 57.7189 65.3459 56.4379 64.3462 56.8381ZM53.7645 62.3785C53.1967 62.9432 53.6003 63.9198 54.4012 63.9198C55.1776 63.9198 55.6067 62.9535 55.0851 62.3801C54.7831 62.0482 54.0974 62.0473 53.7645 62.3785Z" stroke="#61A1F4" stroke-width="0.6" mask="url(#path-1-outside-1_332_11151)"/>
</svg>
