<svg width="100" height="100" viewBox="0 0 100 100" fill="none" xmlns="http://www.w3.org/2000/svg">
<mask id="path-1-outside-1_332_10579" maskUnits="userSpaceOnUse" x="14" y="17" width="70" height="66" fill="black">
<rect fill="white" x="14" y="17" width="70" height="66"/>
<path fill-rule="evenodd" clip-rule="evenodd" d="M36.9547 21.2395C30.5183 23.0131 25.152 24.505 25.0297 24.5549C24.9072 24.6049 24.5717 25.1501 24.2841 25.7664C22.7626 29.0263 19.899 31.9458 16.5762 33.6245C15.8178 34.0078 15.1349 34.4381 15.0587 34.581C14.6652 35.3194 16.3086 41.3932 18.2278 46.2937C20.922 53.1725 24.8194 59.7897 29.7889 65.9226C31.5255 68.0659 37.3341 73.9831 38.0987 74.3878C38.6677 74.6891 39.1907 74.6041 39.466 74.1659C39.608 73.9397 39.8502 70.6384 40.4675 60.5146C40.9154 53.1705 41.3133 46.9118 41.352 46.6066L41.4223 46.0516L45.5693 47.4411C47.8502 48.2054 49.9027 48.8308 50.1304 48.8308C50.3582 48.8308 50.6364 48.7257 50.7487 48.5971C50.8611 48.4685 53.0025 42.8052 55.5074 36.0119C61.3114 20.2712 60.7403 21.9376 60.4942 21.4597C60.2587 21.0024 60.5947 21.1132 53.8253 19.2627C51.2553 18.5602 49.0411 17.9921 48.9049 18.0001C48.7687 18.0082 43.3912 19.466 36.9547 21.2395ZM53.7107 21.3216C56.1975 22.0002 58.2492 22.5707 58.2698 22.5894C58.32 22.6346 56.8891 26.5224 56.783 26.6288C56.7375 26.6744 54.965 26.2397 52.8439 25.6627L48.9874 24.6135L39.314 27.2616C33.9937 28.718 29.5483 29.9673 29.4357 30.0378C29.3229 30.1083 29.1039 30.3874 28.9489 30.6578C27.9259 32.4424 25.2024 35.4865 23.3546 36.9103C22.7647 37.3648 22.3551 37.786 22.3041 37.9906C22.1435 38.6324 23.6717 43.0823 25.3389 46.8278C28.1153 53.0655 32.2878 59.4186 36.824 64.315L38.1182 65.712L38.0215 67.72C37.9685 68.8246 37.8811 70.1187 37.8274 70.5961L37.7299 71.4641L35.547 69.2607C27.9241 61.5662 22.2041 52.2613 18.7938 42.0078C18.2115 40.2567 17.0737 36.1195 17.0737 35.7527C17.0737 35.6877 17.5374 35.3836 18.1043 35.0771C21.235 33.3838 23.9898 30.622 25.6704 27.4914C26.013 26.8531 26.3126 26.3067 26.3361 26.2772C26.4115 26.1824 48.918 20.0168 49.0563 20.053C49.1294 20.0722 51.2239 20.643 53.7107 21.3216ZM67.0435 23.4267C66.9299 23.5552 63.6527 30.0598 59.7606 37.8813C55.8686 45.7028 52.6745 52.1135 52.6628 52.1272C52.6511 52.141 51.2363 51.9468 49.519 51.6958C45.8535 51.1601 45.3939 51.1384 45.0795 51.4872C44.9032 51.6828 44.4324 54.4717 43 63.8053C41.9818 70.4412 41.1475 76.0911 41.1461 76.3609C41.1432 76.9613 41.4653 77.2598 44.0662 79.0664C47.1364 81.199 48.4707 81.9941 48.9898 82C49.3519 82.0041 49.8499 81.7517 51.2323 80.8638C54.0765 79.0367 56.1501 77.5119 56.3068 77.1321C56.5732 76.4862 56.089 75.8038 55.3642 75.8038C55.2034 75.8038 54.4851 76.2244 53.7679 76.7386C51.9017 78.0764 49.2196 79.8097 49.0154 79.8097C48.6972 79.8097 43.4308 76.312 43.2217 75.9619C43.1822 75.8956 43.6425 72.6769 43.9287 71.0186C43.9329 70.9939 44.3105 71.2724 44.7675 71.6375C46.6296 73.1245 48.6334 74.4685 48.9884 74.4685C49.3419 74.4685 50.9232 73.4635 51.6827 72.7562C52.3584 72.1269 52.0247 70.9967 51.1632 70.9967C50.9611 70.9967 50.4209 71.2638 49.8999 71.6212L48.9898 72.2456L48.0921 71.628C46.4164 70.4749 44.3353 68.7348 44.3353 68.4867C44.3353 68.1091 46.5983 53.4574 46.6675 53.3881C46.7014 53.3541 48.2102 53.5398 50.0204 53.801C52.6539 54.181 53.3782 54.2455 53.6442 54.1238C53.91 54.0022 55.1129 51.6968 59.6426 42.628C62.7588 36.389 65.3619 31.2668 65.4273 31.2452C65.4928 31.2235 65.9338 31.3159 66.4073 31.4503C67.2623 31.6929 67.2745 31.7033 68.1361 32.906C69.7263 35.1262 71.4165 36.9386 73.2331 38.3714L73.6004 38.661L73.0639 40.2724C72.2557 42.7001 71.3019 45.0336 70.0529 47.6391C69.2743 49.2635 68.9561 50.0652 69.0194 50.243C69.1973 50.743 69.5012 50.9672 70.0012 50.9672C70.5952 50.9672 70.7495 50.8073 71.3822 49.5363C73.4622 45.3573 75.8865 38.835 75.6747 37.9875C75.6251 37.7891 75.2732 37.4096 74.8237 37.0699C72.9772 35.6746 70.6041 33.0893 69.256 31.0045C68.673 30.103 68.4827 29.9203 68.0064 29.8052C67.8236 29.761 67.3603 29.6356 66.9767 29.5266L66.2794 29.3285L67.2778 27.3269C68.2543 25.3691 68.2841 25.3274 68.64 25.4158C69.5182 25.6341 71.6139 26.2377 71.6479 26.2821C71.6685 26.309 71.9401 26.8117 72.2513 27.3992C73.9153 30.5407 76.7316 33.3768 79.8752 35.0771C80.442 35.3836 80.9059 35.6868 80.9059 35.7507C80.9059 35.996 79.9452 39.6218 79.4922 41.086C78.5971 43.9798 76.9213 48.1575 75.5697 50.8642C75.2864 51.4317 75.0546 52.0476 75.0546 52.2328C75.0546 53.0293 76.1904 53.413 76.7437 52.8033C76.8936 52.6381 77.435 51.6015 77.9466 50.4999C79.9057 46.2814 81.4371 42.0237 82.3653 38.2152C83.001 35.607 83.1039 34.9247 82.9154 34.5707C82.8362 34.4222 82.1572 33.9931 81.4065 33.6169C78.0935 31.9569 75.2188 29.0303 73.6959 25.7672C73.3683 25.0655 73.065 24.6003 72.8837 24.5217C72.2757 24.2578 68.1157 23.1931 67.6933 23.1931C67.4381 23.1931 67.1621 23.2923 67.0435 23.4267ZM52.6468 27.6827C54.4753 28.1772 55.9961 28.6009 56.0263 28.6242C56.1141 28.6922 49.4935 46.5608 49.3805 46.5608C49.3244 46.5608 47.2969 45.9019 44.8751 45.0966C40.2889 43.5714 40.1345 43.5417 39.6797 44.0919C39.5333 44.2691 39.3613 46.355 38.9273 53.2192C38.6178 58.1129 38.3604 62.3273 38.3552 62.5843L38.3456 63.0517L37.7457 62.384C36.5785 61.0848 34.0142 57.816 32.8987 56.2052C29.6609 51.5295 26.7582 45.7464 24.922 40.3122L24.3672 38.6705L24.7405 38.3761C26.5631 36.9385 28.2512 35.1289 29.8429 32.9068L30.7101 31.6961L39.8167 29.1912C44.8254 27.8136 49.013 26.7082 49.1227 26.7351C49.2325 26.7618 50.8183 27.1883 52.6468 27.6827ZM65.3468 50.4331C65.1063 50.6745 65.0808 50.8782 65.0808 52.5522V54.4043L64.2496 54.5684C63.7926 54.6587 63.1367 54.8401 62.7924 54.9714L62.1663 55.2103L61.4001 53.8632C60.9786 53.1223 60.5068 52.368 60.3516 52.1868C59.7896 51.5307 58.6976 51.9054 58.6976 52.7543C58.6976 53.0164 59.0086 53.7041 59.5582 54.6573L60.4188 56.1501L59.3542 57.2191L58.2896 58.2881L56.798 57.4325C55.8516 56.8896 55.1561 56.5767 54.8949 56.5762C54.0465 56.5747 53.672 57.6707 54.3275 58.2369C54.5082 58.393 55.2603 58.8643 55.9991 59.2841L57.3421 60.0478L57.1022 60.6818C56.9701 61.0304 56.7886 61.6914 56.6987 62.1504L56.5353 62.9849H54.6908C53.0236 62.9849 52.8208 63.0106 52.5803 63.252C52.1843 63.6496 52.2257 64.3643 52.6648 64.7111C52.979 64.9593 53.196 64.9879 54.7708 64.9879H56.5266L56.8266 66.1562C56.9915 66.7989 57.1564 67.4524 57.193 67.6087C57.2502 67.853 57.0503 68.012 55.7661 68.7437C54.2053 69.6331 53.8193 70.0592 54.0377 70.6521C54.1936 71.0752 54.771 71.4444 55.1287 71.3499C55.2996 71.3048 56.336 70.7411 57.4318 70.0974C59.589 68.8302 59.8383 68.56 59.534 67.8206C59.452 67.6212 59.2214 67.0676 59.0217 66.5902C58.5836 65.5435 58.4388 63.7279 58.6891 62.4208C59.2001 59.751 61.4599 57.3593 64.151 56.6403C65.1035 56.3857 66.9486 56.3885 67.933 56.646C71.7556 57.6459 74.2415 61.6417 73.4009 65.4356C72.734 68.4458 70.4833 70.7096 67.541 71.33C65.8665 71.6829 64.6286 71.5346 62.8311 70.765C61.8021 70.3246 61.6845 70.3013 61.3739 70.4765C60.9012 70.7427 58.711 74.5292 58.7033 75.093C58.6927 75.8831 59.7342 76.3653 60.2761 75.8211C60.4128 75.6839 60.8683 74.9623 61.2882 74.2176C61.7081 73.4729 62.0985 72.8345 62.1557 72.799C62.213 72.7634 62.5205 72.8279 62.8392 72.9422C63.1579 73.0565 63.7776 73.224 64.2164 73.3144L65.0143 73.4788L65.0511 75.3689C65.0874 77.2271 65.0938 77.2635 65.4348 77.5328C66.001 77.9802 66.566 77.8747 66.881 77.263C67.0226 76.988 67.0756 76.4109 67.0756 75.1428C67.0756 73.4199 67.079 73.4002 67.3777 73.4002C67.6269 73.4002 68.8852 73.0726 69.7367 72.7859C69.8807 72.7373 70.1777 73.1374 70.7863 74.2001C71.6659 75.7355 71.9725 76.0708 72.497 76.0708C72.8868 76.0708 73.4588 75.5079 73.4588 75.1242C73.4588 74.964 73.0698 74.1604 72.5944 73.3384C72.119 72.5163 71.73 71.8102 71.73 71.7692C71.73 71.5651 73.7894 69.6577 73.9448 69.7176C74.0426 69.7553 74.7026 70.1223 75.4114 70.5334C77.0263 71.4695 77.3201 71.538 77.772 71.0844C78.1583 70.6965 78.2075 70.2565 77.912 69.8329C77.8012 69.6742 77.0499 69.166 76.2422 68.7035C75.1861 68.0986 74.7929 67.8059 74.8414 67.6605C75.1276 66.8031 75.4535 65.5415 75.4535 65.2912C75.4535 64.9913 75.4731 64.9879 77.189 64.9879C78.4519 64.9879 79.0267 64.9347 79.3005 64.7925C79.9097 64.4762 80.0147 63.9089 79.5692 63.3404C79.3011 62.9981 79.2642 62.9916 77.4197 62.9551L75.543 62.9182L75.376 62.117C75.2841 61.6763 75.1143 61.0529 74.9987 60.7315C74.8832 60.4102 74.7886 60.127 74.7886 60.1023C74.7886 60.0777 75.4995 59.6365 76.3686 59.1219C77.2375 58.6074 77.9855 58.0895 78.0309 57.9709C78.2863 57.3024 77.8196 56.5755 77.1348 56.5755C76.9316 56.5755 76.1214 56.9515 75.2929 57.4302L73.8136 58.2849L72.7718 57.229C72.1987 56.6481 71.73 56.1505 71.73 56.1231C71.73 56.0956 72.1187 55.39 72.5937 54.555C73.0687 53.7201 73.4577 52.9647 73.4581 52.8763C73.4597 52.5022 73.1291 52.0393 72.7704 51.9138C72.1067 51.6815 71.8009 51.9491 70.8496 53.5938C70.3684 54.4258 69.9183 55.1067 69.8495 55.1067C69.7807 55.1067 69.3528 54.9912 68.8986 54.8502C68.4445 54.709 67.8486 54.5561 67.5742 54.5102L67.0756 54.4269V52.6484C67.0756 51.0511 67.0475 50.8338 66.7999 50.5179C66.4545 50.077 65.7428 50.0355 65.3468 50.4331Z"/>
</mask>
<path fill-rule="evenodd" clip-rule="evenodd" d="M36.9547 21.2395C30.5183 23.0131 25.152 24.505 25.0297 24.5549C24.9072 24.6049 24.5717 25.1501 24.2841 25.7664C22.7626 29.0263 19.899 31.9458 16.5762 33.6245C15.8178 34.0078 15.1349 34.4381 15.0587 34.581C14.6652 35.3194 16.3086 41.3932 18.2278 46.2937C20.922 53.1725 24.8194 59.7897 29.7889 65.9226C31.5255 68.0659 37.3341 73.9831 38.0987 74.3878C38.6677 74.6891 39.1907 74.6041 39.466 74.1659C39.608 73.9397 39.8502 70.6384 40.4675 60.5146C40.9154 53.1705 41.3133 46.9118 41.352 46.6066L41.4223 46.0516L45.5693 47.4411C47.8502 48.2054 49.9027 48.8308 50.1304 48.8308C50.3582 48.8308 50.6364 48.7257 50.7487 48.5971C50.8611 48.4685 53.0025 42.8052 55.5074 36.0119C61.3114 20.2712 60.7403 21.9376 60.4942 21.4597C60.2587 21.0024 60.5947 21.1132 53.8253 19.2627C51.2553 18.5602 49.0411 17.9921 48.9049 18.0001C48.7687 18.0082 43.3912 19.466 36.9547 21.2395ZM53.7107 21.3216C56.1975 22.0002 58.2492 22.5707 58.2698 22.5894C58.32 22.6346 56.8891 26.5224 56.783 26.6288C56.7375 26.6744 54.965 26.2397 52.8439 25.6627L48.9874 24.6135L39.314 27.2616C33.9937 28.718 29.5483 29.9673 29.4357 30.0378C29.3229 30.1083 29.1039 30.3874 28.9489 30.6578C27.9259 32.4424 25.2024 35.4865 23.3546 36.9103C22.7647 37.3648 22.3551 37.786 22.3041 37.9906C22.1435 38.6324 23.6717 43.0823 25.3389 46.8278C28.1153 53.0655 32.2878 59.4186 36.824 64.315L38.1182 65.712L38.0215 67.72C37.9685 68.8246 37.8811 70.1187 37.8274 70.5961L37.7299 71.4641L35.547 69.2607C27.9241 61.5662 22.2041 52.2613 18.7938 42.0078C18.2115 40.2567 17.0737 36.1195 17.0737 35.7527C17.0737 35.6877 17.5374 35.3836 18.1043 35.0771C21.235 33.3838 23.9898 30.622 25.6704 27.4914C26.013 26.8531 26.3126 26.3067 26.3361 26.2772C26.4115 26.1824 48.918 20.0168 49.0563 20.053C49.1294 20.0722 51.2239 20.643 53.7107 21.3216ZM67.0435 23.4267C66.9299 23.5552 63.6527 30.0598 59.7606 37.8813C55.8686 45.7028 52.6745 52.1135 52.6628 52.1272C52.6511 52.141 51.2363 51.9468 49.519 51.6958C45.8535 51.1601 45.3939 51.1384 45.0795 51.4872C44.9032 51.6828 44.4324 54.4717 43 63.8053C41.9818 70.4412 41.1475 76.0911 41.1461 76.3609C41.1432 76.9613 41.4653 77.2598 44.0662 79.0664C47.1364 81.199 48.4707 81.9941 48.9898 82C49.3519 82.0041 49.8499 81.7517 51.2323 80.8638C54.0765 79.0367 56.1501 77.5119 56.3068 77.1321C56.5732 76.4862 56.089 75.8038 55.3642 75.8038C55.2034 75.8038 54.4851 76.2244 53.7679 76.7386C51.9017 78.0764 49.2196 79.8097 49.0154 79.8097C48.6972 79.8097 43.4308 76.312 43.2217 75.9619C43.1822 75.8956 43.6425 72.6769 43.9287 71.0186C43.9329 70.9939 44.3105 71.2724 44.7675 71.6375C46.6296 73.1245 48.6334 74.4685 48.9884 74.4685C49.3419 74.4685 50.9232 73.4635 51.6827 72.7562C52.3584 72.1269 52.0247 70.9967 51.1632 70.9967C50.9611 70.9967 50.4209 71.2638 49.8999 71.6212L48.9898 72.2456L48.0921 71.628C46.4164 70.4749 44.3353 68.7348 44.3353 68.4867C44.3353 68.1091 46.5983 53.4574 46.6675 53.3881C46.7014 53.3541 48.2102 53.5398 50.0204 53.801C52.6539 54.181 53.3782 54.2455 53.6442 54.1238C53.91 54.0022 55.1129 51.6968 59.6426 42.628C62.7588 36.389 65.3619 31.2668 65.4273 31.2452C65.4928 31.2235 65.9338 31.3159 66.4073 31.4503C67.2623 31.6929 67.2745 31.7033 68.1361 32.906C69.7263 35.1262 71.4165 36.9386 73.2331 38.3714L73.6004 38.661L73.0639 40.2724C72.2557 42.7001 71.3019 45.0336 70.0529 47.6391C69.2743 49.2635 68.9561 50.0652 69.0194 50.243C69.1973 50.743 69.5012 50.9672 70.0012 50.9672C70.5952 50.9672 70.7495 50.8073 71.3822 49.5363C73.4622 45.3573 75.8865 38.835 75.6747 37.9875C75.6251 37.7891 75.2732 37.4096 74.8237 37.0699C72.9772 35.6746 70.6041 33.0893 69.256 31.0045C68.673 30.103 68.4827 29.9203 68.0064 29.8052C67.8236 29.761 67.3603 29.6356 66.9767 29.5266L66.2794 29.3285L67.2778 27.3269C68.2543 25.3691 68.2841 25.3274 68.64 25.4158C69.5182 25.6341 71.6139 26.2377 71.6479 26.2821C71.6685 26.309 71.9401 26.8117 72.2513 27.3992C73.9153 30.5407 76.7316 33.3768 79.8752 35.0771C80.442 35.3836 80.9059 35.6868 80.9059 35.7507C80.9059 35.996 79.9452 39.6218 79.4922 41.086C78.5971 43.9798 76.9213 48.1575 75.5697 50.8642C75.2864 51.4317 75.0546 52.0476 75.0546 52.2328C75.0546 53.0293 76.1904 53.413 76.7437 52.8033C76.8936 52.6381 77.435 51.6015 77.9466 50.4999C79.9057 46.2814 81.4371 42.0237 82.3653 38.2152C83.001 35.607 83.1039 34.9247 82.9154 34.5707C82.8362 34.4222 82.1572 33.9931 81.4065 33.6169C78.0935 31.9569 75.2188 29.0303 73.6959 25.7672C73.3683 25.0655 73.065 24.6003 72.8837 24.5217C72.2757 24.2578 68.1157 23.1931 67.6933 23.1931C67.4381 23.1931 67.1621 23.2923 67.0435 23.4267ZM52.6468 27.6827C54.4753 28.1772 55.9961 28.6009 56.0263 28.6242C56.1141 28.6922 49.4935 46.5608 49.3805 46.5608C49.3244 46.5608 47.2969 45.9019 44.8751 45.0966C40.2889 43.5714 40.1345 43.5417 39.6797 44.0919C39.5333 44.2691 39.3613 46.355 38.9273 53.2192C38.6178 58.1129 38.3604 62.3273 38.3552 62.5843L38.3456 63.0517L37.7457 62.384C36.5785 61.0848 34.0142 57.816 32.8987 56.2052C29.6609 51.5295 26.7582 45.7464 24.922 40.3122L24.3672 38.6705L24.7405 38.3761C26.5631 36.9385 28.2512 35.1289 29.8429 32.9068L30.7101 31.6961L39.8167 29.1912C44.8254 27.8136 49.013 26.7082 49.1227 26.7351C49.2325 26.7618 50.8183 27.1883 52.6468 27.6827ZM65.3468 50.4331C65.1063 50.6745 65.0808 50.8782 65.0808 52.5522V54.4043L64.2496 54.5684C63.7926 54.6587 63.1367 54.8401 62.7924 54.9714L62.1663 55.2103L61.4001 53.8632C60.9786 53.1223 60.5068 52.368 60.3516 52.1868C59.7896 51.5307 58.6976 51.9054 58.6976 52.7543C58.6976 53.0164 59.0086 53.7041 59.5582 54.6573L60.4188 56.1501L59.3542 57.2191L58.2896 58.2881L56.798 57.4325C55.8516 56.8896 55.1561 56.5767 54.8949 56.5762C54.0465 56.5747 53.672 57.6707 54.3275 58.2369C54.5082 58.393 55.2603 58.8643 55.9991 59.2841L57.3421 60.0478L57.1022 60.6818C56.9701 61.0304 56.7886 61.6914 56.6987 62.1504L56.5353 62.9849H54.6908C53.0236 62.9849 52.8208 63.0106 52.5803 63.252C52.1843 63.6496 52.2257 64.3643 52.6648 64.7111C52.979 64.9593 53.196 64.9879 54.7708 64.9879H56.5266L56.8266 66.1562C56.9915 66.7989 57.1564 67.4524 57.193 67.6087C57.2502 67.853 57.0503 68.012 55.7661 68.7437C54.2053 69.6331 53.8193 70.0592 54.0377 70.6521C54.1936 71.0752 54.771 71.4444 55.1287 71.3499C55.2996 71.3048 56.336 70.7411 57.4318 70.0974C59.589 68.8302 59.8383 68.56 59.534 67.8206C59.452 67.6212 59.2214 67.0676 59.0217 66.5902C58.5836 65.5435 58.4388 63.7279 58.6891 62.4208C59.2001 59.751 61.4599 57.3593 64.151 56.6403C65.1035 56.3857 66.9486 56.3885 67.933 56.646C71.7556 57.6459 74.2415 61.6417 73.4009 65.4356C72.734 68.4458 70.4833 70.7096 67.541 71.33C65.8665 71.6829 64.6286 71.5346 62.8311 70.765C61.8021 70.3246 61.6845 70.3013 61.3739 70.4765C60.9012 70.7427 58.711 74.5292 58.7033 75.093C58.6927 75.8831 59.7342 76.3653 60.2761 75.8211C60.4128 75.6839 60.8683 74.9623 61.2882 74.2176C61.7081 73.4729 62.0985 72.8345 62.1557 72.799C62.213 72.7634 62.5205 72.8279 62.8392 72.9422C63.1579 73.0565 63.7776 73.224 64.2164 73.3144L65.0143 73.4788L65.0511 75.3689C65.0874 77.2271 65.0938 77.2635 65.4348 77.5328C66.001 77.9802 66.566 77.8747 66.881 77.263C67.0226 76.988 67.0756 76.4109 67.0756 75.1428C67.0756 73.4199 67.079 73.4002 67.3777 73.4002C67.6269 73.4002 68.8852 73.0726 69.7367 72.7859C69.8807 72.7373 70.1777 73.1374 70.7863 74.2001C71.6659 75.7355 71.9725 76.0708 72.497 76.0708C72.8868 76.0708 73.4588 75.5079 73.4588 75.1242C73.4588 74.964 73.0698 74.1604 72.5944 73.3384C72.119 72.5163 71.73 71.8102 71.73 71.7692C71.73 71.5651 73.7894 69.6577 73.9448 69.7176C74.0426 69.7553 74.7026 70.1223 75.4114 70.5334C77.0263 71.4695 77.3201 71.538 77.772 71.0844C78.1583 70.6965 78.2075 70.2565 77.912 69.8329C77.8012 69.6742 77.0499 69.166 76.2422 68.7035C75.1861 68.0986 74.7929 67.8059 74.8414 67.6605C75.1276 66.8031 75.4535 65.5415 75.4535 65.2912C75.4535 64.9913 75.4731 64.9879 77.189 64.9879C78.4519 64.9879 79.0267 64.9347 79.3005 64.7925C79.9097 64.4762 80.0147 63.9089 79.5692 63.3404C79.3011 62.9981 79.2642 62.9916 77.4197 62.9551L75.543 62.9182L75.376 62.117C75.2841 61.6763 75.1143 61.0529 74.9987 60.7315C74.8832 60.4102 74.7886 60.127 74.7886 60.1023C74.7886 60.0777 75.4995 59.6365 76.3686 59.1219C77.2375 58.6074 77.9855 58.0895 78.0309 57.9709C78.2863 57.3024 77.8196 56.5755 77.1348 56.5755C76.9316 56.5755 76.1214 56.9515 75.2929 57.4302L73.8136 58.2849L72.7718 57.229C72.1987 56.6481 71.73 56.1505 71.73 56.1231C71.73 56.0956 72.1187 55.39 72.5937 54.555C73.0687 53.7201 73.4577 52.9647 73.4581 52.8763C73.4597 52.5022 73.1291 52.0393 72.7704 51.9138C72.1067 51.6815 71.8009 51.9491 70.8496 53.5938C70.3684 54.4258 69.9183 55.1067 69.8495 55.1067C69.7807 55.1067 69.3528 54.9912 68.8986 54.8502C68.4445 54.709 67.8486 54.5561 67.5742 54.5102L67.0756 54.4269V52.6484C67.0756 51.0511 67.0475 50.8338 66.7999 50.5179C66.4545 50.077 65.7428 50.0355 65.3468 50.4331Z" fill="#61A1F4"/>
<path fill-rule="evenodd" clip-rule="evenodd" d="M36.9547 21.2395C30.5183 23.0131 25.152 24.505 25.0297 24.5549C24.9072 24.6049 24.5717 25.1501 24.2841 25.7664C22.7626 29.0263 19.899 31.9458 16.5762 33.6245C15.8178 34.0078 15.1349 34.4381 15.0587 34.581C14.6652 35.3194 16.3086 41.3932 18.2278 46.2937C20.922 53.1725 24.8194 59.7897 29.7889 65.9226C31.5255 68.0659 37.3341 73.9831 38.0987 74.3878C38.6677 74.6891 39.1907 74.6041 39.466 74.1659C39.608 73.9397 39.8502 70.6384 40.4675 60.5146C40.9154 53.1705 41.3133 46.9118 41.352 46.6066L41.4223 46.0516L45.5693 47.4411C47.8502 48.2054 49.9027 48.8308 50.1304 48.8308C50.3582 48.8308 50.6364 48.7257 50.7487 48.5971C50.8611 48.4685 53.0025 42.8052 55.5074 36.0119C61.3114 20.2712 60.7403 21.9376 60.4942 21.4597C60.2587 21.0024 60.5947 21.1132 53.8253 19.2627C51.2553 18.5602 49.0411 17.9921 48.9049 18.0001C48.7687 18.0082 43.3912 19.466 36.9547 21.2395ZM53.7107 21.3216C56.1975 22.0002 58.2492 22.5707 58.2698 22.5894C58.32 22.6346 56.8891 26.5224 56.783 26.6288C56.7375 26.6744 54.965 26.2397 52.8439 25.6627L48.9874 24.6135L39.314 27.2616C33.9937 28.718 29.5483 29.9673 29.4357 30.0378C29.3229 30.1083 29.1039 30.3874 28.9489 30.6578C27.9259 32.4424 25.2024 35.4865 23.3546 36.9103C22.7647 37.3648 22.3551 37.786 22.3041 37.9906C22.1435 38.6324 23.6717 43.0823 25.3389 46.8278C28.1153 53.0655 32.2878 59.4186 36.824 64.315L38.1182 65.712L38.0215 67.72C37.9685 68.8246 37.8811 70.1187 37.8274 70.5961L37.7299 71.4641L35.547 69.2607C27.9241 61.5662 22.2041 52.2613 18.7938 42.0078C18.2115 40.2567 17.0737 36.1195 17.0737 35.7527C17.0737 35.6877 17.5374 35.3836 18.1043 35.0771C21.235 33.3838 23.9898 30.622 25.6704 27.4914C26.013 26.8531 26.3126 26.3067 26.3361 26.2772C26.4115 26.1824 48.918 20.0168 49.0563 20.053C49.1294 20.0722 51.2239 20.643 53.7107 21.3216ZM67.0435 23.4267C66.9299 23.5552 63.6527 30.0598 59.7606 37.8813C55.8686 45.7028 52.6745 52.1135 52.6628 52.1272C52.6511 52.141 51.2363 51.9468 49.519 51.6958C45.8535 51.1601 45.3939 51.1384 45.0795 51.4872C44.9032 51.6828 44.4324 54.4717 43 63.8053C41.9818 70.4412 41.1475 76.0911 41.1461 76.3609C41.1432 76.9613 41.4653 77.2598 44.0662 79.0664C47.1364 81.199 48.4707 81.9941 48.9898 82C49.3519 82.0041 49.8499 81.7517 51.2323 80.8638C54.0765 79.0367 56.1501 77.5119 56.3068 77.1321C56.5732 76.4862 56.089 75.8038 55.3642 75.8038C55.2034 75.8038 54.4851 76.2244 53.7679 76.7386C51.9017 78.0764 49.2196 79.8097 49.0154 79.8097C48.6972 79.8097 43.4308 76.312 43.2217 75.9619C43.1822 75.8956 43.6425 72.6769 43.9287 71.0186C43.9329 70.9939 44.3105 71.2724 44.7675 71.6375C46.6296 73.1245 48.6334 74.4685 48.9884 74.4685C49.3419 74.4685 50.9232 73.4635 51.6827 72.7562C52.3584 72.1269 52.0247 70.9967 51.1632 70.9967C50.9611 70.9967 50.4209 71.2638 49.8999 71.6212L48.9898 72.2456L48.0921 71.628C46.4164 70.4749 44.3353 68.7348 44.3353 68.4867C44.3353 68.1091 46.5983 53.4574 46.6675 53.3881C46.7014 53.3541 48.2102 53.5398 50.0204 53.801C52.6539 54.181 53.3782 54.2455 53.6442 54.1238C53.91 54.0022 55.1129 51.6968 59.6426 42.628C62.7588 36.389 65.3619 31.2668 65.4273 31.2452C65.4928 31.2235 65.9338 31.3159 66.4073 31.4503C67.2623 31.6929 67.2745 31.7033 68.1361 32.906C69.7263 35.1262 71.4165 36.9386 73.2331 38.3714L73.6004 38.661L73.0639 40.2724C72.2557 42.7001 71.3019 45.0336 70.0529 47.6391C69.2743 49.2635 68.9561 50.0652 69.0194 50.243C69.1973 50.743 69.5012 50.9672 70.0012 50.9672C70.5952 50.9672 70.7495 50.8073 71.3822 49.5363C73.4622 45.3573 75.8865 38.835 75.6747 37.9875C75.6251 37.7891 75.2732 37.4096 74.8237 37.0699C72.9772 35.6746 70.6041 33.0893 69.256 31.0045C68.673 30.103 68.4827 29.9203 68.0064 29.8052C67.8236 29.761 67.3603 29.6356 66.9767 29.5266L66.2794 29.3285L67.2778 27.3269C68.2543 25.3691 68.2841 25.3274 68.64 25.4158C69.5182 25.6341 71.6139 26.2377 71.6479 26.2821C71.6685 26.309 71.9401 26.8117 72.2513 27.3992C73.9153 30.5407 76.7316 33.3768 79.8752 35.0771C80.442 35.3836 80.9059 35.6868 80.9059 35.7507C80.9059 35.996 79.9452 39.6218 79.4922 41.086C78.5971 43.9798 76.9213 48.1575 75.5697 50.8642C75.2864 51.4317 75.0546 52.0476 75.0546 52.2328C75.0546 53.0293 76.1904 53.413 76.7437 52.8033C76.8936 52.6381 77.435 51.6015 77.9466 50.4999C79.9057 46.2814 81.4371 42.0237 82.3653 38.2152C83.001 35.607 83.1039 34.9247 82.9154 34.5707C82.8362 34.4222 82.1572 33.9931 81.4065 33.6169C78.0935 31.9569 75.2188 29.0303 73.6959 25.7672C73.3683 25.0655 73.065 24.6003 72.8837 24.5217C72.2757 24.2578 68.1157 23.1931 67.6933 23.1931C67.4381 23.1931 67.1621 23.2923 67.0435 23.4267ZM52.6468 27.6827C54.4753 28.1772 55.9961 28.6009 56.0263 28.6242C56.1141 28.6922 49.4935 46.5608 49.3805 46.5608C49.3244 46.5608 47.2969 45.9019 44.8751 45.0966C40.2889 43.5714 40.1345 43.5417 39.6797 44.0919C39.5333 44.2691 39.3613 46.355 38.9273 53.2192C38.6178 58.1129 38.3604 62.3273 38.3552 62.5843L38.3456 63.0517L37.7457 62.384C36.5785 61.0848 34.0142 57.816 32.8987 56.2052C29.6609 51.5295 26.7582 45.7464 24.922 40.3122L24.3672 38.6705L24.7405 38.3761C26.5631 36.9385 28.2512 35.1289 29.8429 32.9068L30.7101 31.6961L39.8167 29.1912C44.8254 27.8136 49.013 26.7082 49.1227 26.7351C49.2325 26.7618 50.8183 27.1883 52.6468 27.6827ZM65.3468 50.4331C65.1063 50.6745 65.0808 50.8782 65.0808 52.5522V54.4043L64.2496 54.5684C63.7926 54.6587 63.1367 54.8401 62.7924 54.9714L62.1663 55.2103L61.4001 53.8632C60.9786 53.1223 60.5068 52.368 60.3516 52.1868C59.7896 51.5307 58.6976 51.9054 58.6976 52.7543C58.6976 53.0164 59.0086 53.7041 59.5582 54.6573L60.4188 56.1501L59.3542 57.2191L58.2896 58.2881L56.798 57.4325C55.8516 56.8896 55.1561 56.5767 54.8949 56.5762C54.0465 56.5747 53.672 57.6707 54.3275 58.2369C54.5082 58.393 55.2603 58.8643 55.9991 59.2841L57.3421 60.0478L57.1022 60.6818C56.9701 61.0304 56.7886 61.6914 56.6987 62.1504L56.5353 62.9849H54.6908C53.0236 62.9849 52.8208 63.0106 52.5803 63.252C52.1843 63.6496 52.2257 64.3643 52.6648 64.7111C52.979 64.9593 53.196 64.9879 54.7708 64.9879H56.5266L56.8266 66.1562C56.9915 66.7989 57.1564 67.4524 57.193 67.6087C57.2502 67.853 57.0503 68.012 55.7661 68.7437C54.2053 69.6331 53.8193 70.0592 54.0377 70.6521C54.1936 71.0752 54.771 71.4444 55.1287 71.3499C55.2996 71.3048 56.336 70.7411 57.4318 70.0974C59.589 68.8302 59.8383 68.56 59.534 67.8206C59.452 67.6212 59.2214 67.0676 59.0217 66.5902C58.5836 65.5435 58.4388 63.7279 58.6891 62.4208C59.2001 59.751 61.4599 57.3593 64.151 56.6403C65.1035 56.3857 66.9486 56.3885 67.933 56.646C71.7556 57.6459 74.2415 61.6417 73.4009 65.4356C72.734 68.4458 70.4833 70.7096 67.541 71.33C65.8665 71.6829 64.6286 71.5346 62.8311 70.765C61.8021 70.3246 61.6845 70.3013 61.3739 70.4765C60.9012 70.7427 58.711 74.5292 58.7033 75.093C58.6927 75.8831 59.7342 76.3653 60.2761 75.8211C60.4128 75.6839 60.8683 74.9623 61.2882 74.2176C61.7081 73.4729 62.0985 72.8345 62.1557 72.799C62.213 72.7634 62.5205 72.8279 62.8392 72.9422C63.1579 73.0565 63.7776 73.224 64.2164 73.3144L65.0143 73.4788L65.0511 75.3689C65.0874 77.2271 65.0938 77.2635 65.4348 77.5328C66.001 77.9802 66.566 77.8747 66.881 77.263C67.0226 76.988 67.0756 76.4109 67.0756 75.1428C67.0756 73.4199 67.079 73.4002 67.3777 73.4002C67.6269 73.4002 68.8852 73.0726 69.7367 72.7859C69.8807 72.7373 70.1777 73.1374 70.7863 74.2001C71.6659 75.7355 71.9725 76.0708 72.497 76.0708C72.8868 76.0708 73.4588 75.5079 73.4588 75.1242C73.4588 74.964 73.0698 74.1604 72.5944 73.3384C72.119 72.5163 71.73 71.8102 71.73 71.7692C71.73 71.5651 73.7894 69.6577 73.9448 69.7176C74.0426 69.7553 74.7026 70.1223 75.4114 70.5334C77.0263 71.4695 77.3201 71.538 77.772 71.0844C78.1583 70.6965 78.2075 70.2565 77.912 69.8329C77.8012 69.6742 77.0499 69.166 76.2422 68.7035C75.1861 68.0986 74.7929 67.8059 74.8414 67.6605C75.1276 66.8031 75.4535 65.5415 75.4535 65.2912C75.4535 64.9913 75.4731 64.9879 77.189 64.9879C78.4519 64.9879 79.0267 64.9347 79.3005 64.7925C79.9097 64.4762 80.0147 63.9089 79.5692 63.3404C79.3011 62.9981 79.2642 62.9916 77.4197 62.9551L75.543 62.9182L75.376 62.117C75.2841 61.6763 75.1143 61.0529 74.9987 60.7315C74.8832 60.4102 74.7886 60.127 74.7886 60.1023C74.7886 60.0777 75.4995 59.6365 76.3686 59.1219C77.2375 58.6074 77.9855 58.0895 78.0309 57.9709C78.2863 57.3024 77.8196 56.5755 77.1348 56.5755C76.9316 56.5755 76.1214 56.9515 75.2929 57.4302L73.8136 58.2849L72.7718 57.229C72.1987 56.6481 71.73 56.1505 71.73 56.1231C71.73 56.0956 72.1187 55.39 72.5937 54.555C73.0687 53.7201 73.4577 52.9647 73.4581 52.8763C73.4597 52.5022 73.1291 52.0393 72.7704 51.9138C72.1067 51.6815 71.8009 51.9491 70.8496 53.5938C70.3684 54.4258 69.9183 55.1067 69.8495 55.1067C69.7807 55.1067 69.3528 54.9912 68.8986 54.8502C68.4445 54.709 67.8486 54.5561 67.5742 54.5102L67.0756 54.4269V52.6484C67.0756 51.0511 67.0475 50.8338 66.7999 50.5179C66.4545 50.077 65.7428 50.0355 65.3468 50.4331Z" stroke="#61A1F4" stroke-width="0.6" mask="url(#path-1-outside-1_332_10579)"/>
</svg>
