<svg width="30" height="29" viewBox="0 0 30 29" fill="none" xmlns="http://www.w3.org/2000/svg">
<g clip-path="url(#clip0_914_17)">
<path d="M14.1211 0C14.707 0 15.293 0 15.8789 0C15.9545 0.015891 16.0289 0.0414302 16.1051 0.046538C18.4518 0.206583 20.6467 0.855278 22.6494 2.042C26.5354 4.34393 28.9271 7.66345 29.7662 12.0057C29.8711 12.5494 29.9232 13.1022 30 13.651V15.3502C29.976 15.5539 29.952 15.7577 29.9279 15.962C29.5734 19.0318 28.3805 21.7543 26.2529 24.0636C23.4275 27.1305 19.8721 28.7826 15.6287 28.9818C12.6703 29.1209 9.88828 28.454 7.35586 26.9608C3.46348 24.6652 1.07402 21.34 0.233789 16.996C0.12832 16.4523 0.0767578 15.899 0 15.3502C0 14.7838 0 14.2174 0 13.651C0.0240234 13.4472 0.0486328 13.2435 0.0720703 13.0397C0.43125 9.91941 1.66406 7.16686 3.83965 4.83314C6.14883 2.35528 9.01113 0.808172 12.416 0.225312C12.9803 0.128831 13.5521 0.0737798 14.1211 0ZM27.2695 14.5096C27.2871 7.99943 21.8027 2.68331 15.024 2.63961C8.30098 2.59591 2.74805 7.94892 2.73047 14.4915C2.71289 21.0017 8.19727 26.3178 14.976 26.3621C21.699 26.4058 27.252 21.0522 27.2695 14.5102V14.5096Z" fill="#61A1F4"/>
<path d="M16.353 17.5901C16.353 18.9295 16.3758 20.2695 16.3454 21.6083C16.3225 22.6021 15.1565 23.1758 14.2864 22.6469C13.8481 22.3807 13.6401 21.9834 13.6413 21.4812C13.6436 20.6038 13.6413 19.7269 13.6413 18.8495C13.6413 17.1424 13.6389 15.4346 13.6424 13.7275C13.6436 13.0385 14.0028 12.5385 14.604 12.3643C15.4618 12.1157 16.3348 12.6997 16.3495 13.572C16.3717 14.9108 16.3553 16.2508 16.3553 17.5901C16.3547 17.5901 16.3542 17.5901 16.3536 17.5901H16.353Z" fill="#61A1F4"/>
<path d="M15.0088 6.15994C16.0137 6.16562 16.8305 6.96755 16.8147 7.93236C16.7988 8.88753 15.9692 9.67583 14.9906 9.66505C13.9881 9.65427 13.1695 8.8478 13.1848 7.88639C13.2 6.92782 14.0174 6.15427 15.0088 6.15994Z" fill="#61A1F4"/>
</g>
<defs>
<clipPath id="clip0_914_17">
<rect width="30" height="29" fill="white"/>
</clipPath>
</defs>
</svg>
