<svg width="19" height="23" viewBox="0 0 19 23" fill="none" xmlns="http://www.w3.org/2000/svg">
<g clip-path="url(#clip0_910_26)">
<path d="M0 23H19V0L0 0.00835792V23ZM17.2678 21.2724H1.70409L1.70796 4.21583L1.70845 1.73107H17.2674V21.2724H17.2678Z" fill="#61A1F4"/>
<path d="M4.54041 14.1687L4.56315 15.973H14.4413V14.1687H4.54041Z" fill="#61A1F4"/>
<path d="M10.3788 7.04907L8.60266 7.05989V11.6523H10.3788V7.04907Z" fill="#61A1F4"/>
<path d="M9.49003 4.65869H9.4881C8.99893 4.65968 8.60315 5.06282 8.60315 5.55987C8.60315 6.05791 9.00038 6.46105 9.49003 6.46105H9.49197C9.9821 6.46105 10.3789 6.05741 10.3789 5.55987C10.3789 5.06184 9.98065 4.65771 9.49003 4.65869Z" fill="#61A1F4"/>
<path d="M4.54041 17.4724L4.56315 19.2772H14.4413V17.4724H4.54041Z" fill="#61A1F4"/>
</g>
<defs>
<clipPath id="clip0_910_26">
<rect width="19" height="23" fill="white"/>
</clipPath>
</defs>
</svg>
