<svg width="403" height="325" viewBox="0 0 403 325" fill="none" xmlns="http://www.w3.org/2000/svg">
<mask id="path-1-inside-1_177_655" fill="white">
<path d="M402.968 108.613C388.819 84.1068 369.982 62.6272 347.532 45.4007C325.082 28.1743 299.459 15.5384 272.125 8.21439C244.792 0.890444 216.284 -0.978072 188.228 2.7155C160.173 6.40906 133.12 15.5924 108.613 29.7412C84.1069 43.89 62.6272 62.7271 45.4008 85.1771C28.1743 107.627 15.5384 133.25 8.21444 160.584C0.890494 187.917 -0.978034 216.425 2.71555 244.481C6.40911 272.536 15.5925 299.589 29.7412 324.096L30.9022 323.425C16.8415 299.071 7.71524 272.187 4.04465 244.306C0.374054 216.425 2.23096 188.094 9.50933 160.93C16.7877 133.767 29.345 108.303 46.4643 85.9932C63.5836 63.6829 84.9296 44.9629 109.284 30.9022C133.638 16.8414 160.522 7.71519 188.403 4.0446C216.284 0.374013 244.615 2.23091 271.779 9.50929C298.942 16.7877 324.406 29.345 346.716 46.4643C369.026 63.5836 387.746 84.9296 401.807 109.284L402.968 108.613Z"/>
</mask>
<path d="M402.968 108.613C388.819 84.1068 369.982 62.6272 347.532 45.4007C325.082 28.1743 299.459 15.5384 272.125 8.21439C244.792 0.890444 216.284 -0.978072 188.228 2.7155C160.173 6.40906 133.12 15.5924 108.613 29.7412C84.1069 43.89 62.6272 62.7271 45.4008 85.1771C28.1743 107.627 15.5384 133.25 8.21444 160.584C0.890494 187.917 -0.978034 216.425 2.71555 244.481C6.40911 272.536 15.5925 299.589 29.7412 324.096L30.9022 323.425C16.8415 299.071 7.71524 272.187 4.04465 244.306C0.374054 216.425 2.23096 188.094 9.50933 160.93C16.7877 133.767 29.345 108.303 46.4643 85.9932C63.5836 63.6829 84.9296 44.9629 109.284 30.9022C133.638 16.8414 160.522 7.71519 188.403 4.0446C216.284 0.374013 244.615 2.23091 271.779 9.50929C298.942 16.7877 324.406 29.345 346.716 46.4643C369.026 63.5836 387.746 84.9296 401.807 109.284L402.968 108.613Z" stroke="url(#paint0_linear_177_655)" stroke-width="2" mask="url(#path-1-inside-1_177_655)"/>
<defs>
<linearGradient id="paint0_linear_177_655" x1="13.3297" y1="297.257" x2="359.359" y2="48.3033" gradientUnits="userSpaceOnUse">
<stop stop-color="#3D404D"/>
<stop offset="1" stop-color="#61A1F4"/>
</linearGradient>
</defs>
</svg>
