<svg width="202" height="41" viewBox="0 0 202 41" fill="none" xmlns="http://www.w3.org/2000/svg">
<path d="M5.26642 6.45135C7.28045 6.45135 9.30809 6.46502 11.3493 6.49238C13.3906 6.51973 15.323 6.6018 17.1465 6.73857L16.9423 9.85697H6.73611C5.81075 9.85697 5.13033 10.0758 4.69487 10.5135C4.2594 10.9512 4.04167 11.6624 4.04167 12.6471V34.8042H0V11.8675C0 10.2536 0.489899 8.95428 1.4697 7.96952C2.47671 6.9574 3.74229 6.45135 5.26642 6.45135Z" fill="#61A1F4"/>
<path d="M37.4132 6.49238V9.73388H28.6358C26.8395 9.73388 25.8597 10.6503 25.6964 12.483C25.5059 14.7808 25.329 16.7913 25.1657 18.5147C25.0024 20.2106 24.8119 21.7151 24.5942 23.0281C24.4036 24.3138 24.1723 25.4627 23.9001 26.4748C23.6552 27.4596 23.3014 28.417 22.8387 29.347C22.3216 30.5506 21.6956 31.5764 20.9607 32.4244C20.2531 33.2724 19.423 33.9015 18.4704 34.3118C17.545 34.6948 16.4972 34.8726 15.3269 34.8453L15.0003 31.6858C15.8712 31.4396 16.6333 31.0703 17.2865 30.578C17.9669 30.0582 18.5521 29.2786 19.042 28.2392C19.3413 27.5279 19.5999 26.8304 19.8176 26.1465C20.0354 25.4353 20.2259 24.6557 20.3892 23.8077C20.5797 22.9597 20.743 21.975 20.8791 20.8535C21.0424 19.7319 21.1785 18.4463 21.2873 16.9965C21.4234 15.5193 21.5731 13.796 21.7364 11.8265C22.063 8.27042 23.9818 6.49238 27.4927 6.49238H37.4132ZM37.9847 6.49238V34.8042H33.9022V6.49238H37.9847Z" fill="#61A1F4"/>
<path d="M48.9759 6.49238V34.8042H44.8934V6.49238H48.9759Z" fill="#61A1F4"/>
<path d="M55.8173 34.8042V6.49238H59.8997V34.8042H55.8173ZM59.5731 34.8042V31.5627H79.5365V34.8042H59.5731ZM72.0247 34.8042V6.49238H76.1072V34.8042H72.0247ZM76.6788 41L76.2705 34.517H79.5365V41H76.6788Z" fill="#61A1F4"/>
<path d="M105.718 6.49238V34.8042H101.799V14.8628C101.799 14.3157 101.812 13.7687 101.84 13.2216C101.867 12.6471 101.921 12.0864 102.003 11.5393H101.799C101.608 12.0864 101.377 12.6335 101.105 13.1805C100.833 13.7276 100.561 14.2474 100.288 14.7397L88.3267 34.8042H84.2033V6.49238H88.1634V26.1876C88.1634 26.762 88.1361 27.3501 88.0817 27.9519C88.0273 28.5264 87.9728 29.1008 87.9184 29.6753H88.0817C88.2994 29.1282 88.5444 28.5811 88.8166 28.034C89.1159 27.4869 89.4153 26.9672 89.7147 26.4748L101.554 6.49238H105.718Z" fill="#61A1F4"/>
<path d="M122.755 6C123.98 6 125.027 6.02735 125.898 6.08206C126.769 6.13677 127.572 6.23251 128.307 6.36928C129.042 6.4787 129.804 6.64283 130.593 6.86166L130.185 9.93904C129.368 9.85698 128.606 9.80227 127.899 9.77491C127.191 9.7202 126.429 9.67917 125.613 9.65182C124.823 9.62446 123.871 9.61078 122.755 9.61078C121.013 9.61078 119.639 9.95272 118.632 10.6366C117.624 11.3204 116.903 12.4693 116.468 14.0832C116.06 15.6698 115.855 17.8581 115.855 20.6483C115.855 23.4385 116.06 25.6405 116.468 27.2544C116.903 28.841 117.624 29.9762 118.632 30.66C119.639 31.3439 121.013 31.6858 122.755 31.6858C124.524 31.6858 126.007 31.6585 127.205 31.6038C128.43 31.5217 129.613 31.3986 130.757 31.2345L131.165 34.3118C129.967 34.6674 128.729 34.9136 127.45 35.0504C126.198 35.2145 124.633 35.2966 122.755 35.2966C120.033 35.2966 117.842 34.8316 116.182 33.9015C114.549 32.9441 113.365 31.3986 112.63 29.2649C111.895 27.1313 111.528 24.2591 111.528 20.6483C111.528 17.0375 111.895 14.1653 112.63 12.0317C113.365 9.89801 114.549 8.36616 116.182 7.43611C117.842 6.4787 120.033 6 122.755 6Z" fill="#61A1F4"/>
<path d="M141.299 6.45135C142.66 6.45135 144.035 6.45135 145.423 6.45135C146.838 6.45135 148.226 6.4787 149.587 6.53341C150.975 6.56077 152.308 6.61547 153.588 6.69754L153.383 9.85697H142.157C141.367 9.85697 140.782 10.0621 140.401 10.4724C140.02 10.8828 139.83 11.5393 139.83 12.442V28.8546C139.83 29.7573 140.02 30.4275 140.401 30.8652C140.782 31.2755 141.367 31.4807 142.157 31.4807H153.383L153.588 34.5991C152.308 34.6811 150.975 34.7358 149.587 34.7632C148.226 34.7905 146.838 34.8042 145.423 34.8042C144.035 34.8316 142.66 34.8453 141.299 34.8453C139.612 34.8453 138.265 34.3939 137.258 33.4912C136.251 32.5612 135.747 31.3302 135.747 29.7984V11.4982C135.747 9.93904 136.251 8.70809 137.258 7.80539C138.265 6.9027 139.612 6.45135 141.299 6.45135ZM136.441 18.3095H151.791V21.4689H136.441V18.3095Z" fill="#61A1F4"/>
<path d="M179.489 6.49238V34.8042H175.407V9.73388H170.018C169.038 9.73388 168.33 9.95272 167.895 10.3904C167.459 10.8007 167.214 11.4982 167.16 12.483C167.051 14.3978 166.901 16.2032 166.711 17.8992C166.52 19.5678 166.289 21.1544 166.017 22.6589C165.745 24.136 165.391 25.5721 164.955 26.9672C164.52 28.3349 164.003 29.6616 163.404 30.9472C162.832 32.2329 162.138 33.5186 161.322 34.8042H157.607C158.968 32.5064 160.029 30.0993 160.791 27.5826C161.553 25.066 162.125 22.481 162.506 19.8277C162.887 17.1743 163.145 14.5209 163.282 11.8675C163.363 10.1989 163.908 8.88589 164.915 7.92849C165.949 6.97108 167.35 6.49238 169.12 6.49238H179.489ZM159.73 34.517L159.322 41H156.464V34.517H159.73ZM183 31.5627V34.8042H156.464V31.5627H183ZM183 34.517V41H180.142L179.816 34.517H183Z" fill="#61A1F4"/>
<path fill-rule="evenodd" clip-rule="evenodd" d="M195.318 0.00279236C194.413 0.0295902 193.548 0.235781 192.727 0.620308C192.349 0.797236 191.948 1.03953 191.6 1.30052C191.351 1.48747 191.154 1.65832 190.923 1.88791C190.686 2.1223 190.494 2.34256 190.299 2.60208C189.182 4.0877 188.759 5.98264 189.133 7.81336C189.343 8.83675 189.8 9.7965 190.468 10.6137C190.688 10.8835 190.958 11.1621 191.224 11.3951C192.532 12.5381 194.234 13.1078 195.97 12.9831C197.734 12.8565 199.363 12.0199 200.498 10.6583C201.268 9.73345 201.765 8.61858 201.936 7.42825C201.982 7.11018 202 6.84528 202 6.50027C202 6.26841 201.996 6.16553 201.98 5.96411C201.925 5.28002 201.753 4.58419 201.484 3.9535C201.122 3.10747 200.587 2.34926 199.907 1.72152C199.534 1.37646 199.114 1.07191 198.662 0.818786C198.551 0.756483 198.302 0.631222 198.184 0.57791C197.284 0.171622 196.298 -0.0262481 195.318 0.00279236ZM195.852 1.33193C196.3 1.36338 196.714 1.44419 197.128 1.58094C197.784 1.79792 198.385 2.1422 198.919 2.60697C199.03 2.70394 199.299 2.97254 199.397 3.08481C200.065 3.85086 200.488 4.77009 200.629 5.75991C200.668 6.03328 200.68 6.20625 200.68 6.50027C200.68 6.78859 200.668 6.96214 200.631 7.22719C200.492 8.22501 200.066 9.14997 199.39 9.92347C199.296 10.031 199.026 10.3007 198.917 10.3951C198.179 11.0386 197.297 11.4557 196.347 11.6113C196.05 11.6598 195.818 11.6782 195.501 11.6782C195.29 11.6782 195.198 11.6743 195.019 11.6579C193.937 11.5585 192.918 11.121 192.093 10.4016C191.88 10.2167 191.638 9.96352 191.461 9.74303C190.838 8.96452 190.457 8.04697 190.35 7.06221C190.329 6.86467 190.322 6.73395 190.322 6.50285C190.322 6.2358 190.332 6.07472 190.363 5.83016C190.436 5.26256 190.602 4.71442 190.858 4.20096C190.971 3.97622 191.057 3.82657 191.191 3.62613C191.406 3.3042 191.64 3.0258 191.933 2.74613C192.393 2.30578 192.941 1.9506 193.539 1.70446C194.093 1.47656 194.705 1.3455 195.326 1.32225C195.425 1.31852 195.744 1.32438 195.852 1.33193ZM192.65 6.35049V9.75334H193.529H194.408V8.46706V7.18079L194.701 7.18085C195.058 7.18091 195.123 7.18617 195.277 7.22709C195.52 7.29173 195.7 7.42779 195.873 7.67829C195.984 7.83788 195.998 7.8655 196.625 9.14113L196.927 9.75334H197.859C198.371 9.75334 198.791 9.75166 198.791 9.74962C198.791 9.74757 198.675 9.51268 198.533 9.22763C197.688 7.52638 197.704 7.55719 197.591 7.37548C197.482 7.20016 197.382 7.07059 197.262 6.95106C197.131 6.81986 197.025 6.742 196.88 6.67023C196.806 6.63333 196.658 6.57782 196.634 6.57766C196.612 6.57752 196.63 6.56825 196.694 6.54789C196.928 6.47231 197.143 6.35942 197.332 6.21163C197.385 6.17063 197.529 6.02778 197.574 5.97239C197.69 5.82862 197.789 5.63225 197.845 5.43595C197.956 5.04769 197.948 4.51784 197.826 4.14081C197.715 3.79876 197.533 3.56006 197.232 3.36154C196.911 3.15018 196.455 3.01914 195.875 2.97146C195.641 2.95221 195.618 2.95193 194.126 2.94977L192.65 2.94764V6.35049ZM195.257 4.22669C195.544 4.24007 195.748 4.29348 195.891 4.39265C195.991 4.46129 196.077 4.58443 196.122 4.72181C196.157 4.83119 196.172 4.93584 196.172 5.08511C196.172 5.28265 196.149 5.40907 196.087 5.55283C196.044 5.65168 195.955 5.75215 195.852 5.81822C195.778 5.86592 195.654 5.91283 195.541 5.93557C195.377 5.96852 195.266 5.97421 194.778 5.97433L194.408 5.97442V5.098V4.22158L194.78 4.22169C194.985 4.22176 195.2 4.224 195.257 4.22669Z" fill="#61A1F4"/>
</svg>
