<svg width="183" height="35" viewBox="0 0 183 35" fill="none" xmlns="http://www.w3.org/2000/svg">
<path d="M5.26642 0.451348C7.28045 0.451348 9.30809 0.465024 11.3493 0.492378C13.3906 0.519734 15.323 0.601798 17.1465 0.73857L16.9423 3.85697H6.73611C5.81075 3.85697 5.13033 4.07581 4.69487 4.51348C4.2594 4.95115 4.04167 5.66237 4.04167 6.64713V28.8042H0V5.86753C0 4.25361 0.489899 2.95428 1.4697 1.96952C2.47671 0.957404 3.74229 0.451348 5.26642 0.451348Z" fill="#679EE5"/>
<path d="M37.4132 0.492378V3.73388H28.6358C26.8395 3.73388 25.8597 4.65025 25.6964 6.483C25.5059 8.78077 25.329 10.7913 25.1657 12.5147C25.0024 14.2106 24.8119 15.7151 24.5942 17.0281C24.4036 18.3138 24.1723 19.4627 23.9001 20.4748C23.6552 21.4596 23.3014 22.417 22.8387 23.347C22.3216 24.5506 21.6956 25.5764 20.9607 26.4244C20.2531 27.2724 19.423 27.9015 18.4704 28.3118C17.545 28.6948 16.4972 28.8726 15.3269 28.8453L15.0003 25.6858C15.8712 25.4396 16.6333 25.0703 17.2865 24.578C17.9669 24.0582 18.5521 23.2786 19.042 22.2392C19.3413 21.5279 19.5999 20.8304 19.8176 20.1465C20.0354 19.4353 20.2259 18.6557 20.3892 17.8077C20.5797 16.9597 20.743 15.975 20.8791 14.8535C21.0424 13.7319 21.1785 12.4463 21.2873 10.9965C21.4234 9.51934 21.5731 7.79601 21.7364 5.8265C22.063 2.27042 23.9818 0.492378 27.4927 0.492378H37.4132ZM37.9847 0.492378V28.8042H33.9022V0.492378H37.9847Z" fill="#679EE5"/>
<path d="M48.9759 0.492378V28.8042H44.8934V0.492378H48.9759Z" fill="#679EE5"/>
<path d="M55.8173 28.8042V0.492378H59.8997V28.8042H55.8173ZM59.5731 28.8042V25.5627H79.5365V28.8042H59.5731ZM72.0247 28.8042V0.492378H76.1072V28.8042H72.0247ZM76.6788 35L76.2705 28.517H79.5365V35H76.6788Z" fill="#679EE5"/>
<path d="M105.718 0.492378V28.8042H101.799V8.86284C101.799 8.31575 101.812 7.76866 101.84 7.22157C101.867 6.64713 101.921 6.08636 102.003 5.53927H101.799C101.608 6.08636 101.377 6.63345 101.105 7.18054C100.833 7.72763 100.561 8.24736 100.288 8.73974L88.3267 28.8042H84.2033V0.492378H88.1634V20.1876C88.1634 20.762 88.1361 21.3501 88.0817 21.9519C88.0273 22.5264 87.9728 23.1008 87.9184 23.6753H88.0817C88.2994 23.1282 88.5444 22.5811 88.8166 22.034C89.1159 21.4869 89.4153 20.9672 89.7147 20.4748L101.554 0.492378H105.718Z" fill="#679EE5"/>
<path d="M122.755 0C123.98 0 125.027 0.0273541 125.898 0.0820622C126.769 0.136772 127.572 0.232512 128.307 0.369285C129.042 0.478702 129.804 0.64283 130.593 0.861664L130.185 3.93904C129.368 3.85698 128.606 3.80227 127.899 3.77491C127.191 3.7202 126.429 3.67917 125.613 3.65182C124.823 3.62446 123.871 3.61078 122.755 3.61078C121.013 3.61078 119.639 3.95272 118.632 4.63658C117.624 5.32044 116.903 6.46932 116.468 8.08324C116.06 9.66979 115.855 11.8581 115.855 14.6483C115.855 17.4385 116.06 19.6405 116.468 21.2544C116.903 22.841 117.624 23.9762 118.632 24.66C119.639 25.3439 121.013 25.6858 122.755 25.6858C124.524 25.6858 126.007 25.6585 127.205 25.6038C128.43 25.5217 129.613 25.3986 130.757 25.2345L131.165 28.3118C129.967 28.6674 128.729 28.9136 127.45 29.0504C126.198 29.2145 124.633 29.2966 122.755 29.2966C120.033 29.2966 117.842 28.8316 116.182 27.9015C114.549 26.9441 113.365 25.3986 112.63 23.2649C111.895 21.1313 111.528 18.2591 111.528 14.6483C111.528 11.0375 111.895 8.1653 112.63 6.03165C113.365 3.89801 114.549 2.36616 116.182 1.43611C117.842 0.478702 120.033 0 122.755 0Z" fill="#679EE5"/>
<path d="M141.299 0.451348C142.66 0.451348 144.035 0.451348 145.423 0.451348C146.838 0.451348 148.226 0.478702 149.587 0.533412C150.975 0.560766 152.308 0.615474 153.588 0.697536L153.383 3.85697H142.157C141.367 3.85697 140.782 4.06213 140.401 4.47245C140.02 4.88277 139.83 5.53927 139.83 6.44197V22.8546C139.83 23.7573 140.02 24.4275 140.401 24.8652C140.782 25.2755 141.367 25.4807 142.157 25.4807H153.383L153.588 28.5991C152.308 28.6811 150.975 28.7358 149.587 28.7632C148.226 28.7905 146.838 28.8042 145.423 28.8042C144.035 28.8316 142.66 28.8453 141.299 28.8453C139.612 28.8453 138.265 28.3939 137.258 27.4912C136.251 26.5612 135.747 25.3302 135.747 23.7984V5.49824C135.747 3.93904 136.251 2.70809 137.258 1.80539C138.265 0.902696 139.612 0.451348 141.299 0.451348ZM136.441 12.3095H151.791V15.4689H136.441V12.3095Z" fill="#679EE5"/>
<path d="M179.489 0.492378V28.8042H175.407V3.73388H170.018C169.038 3.73388 168.33 3.95272 167.895 4.39039C167.459 4.8007 167.214 5.49824 167.16 6.483C167.051 8.39781 166.901 10.2032 166.711 11.8992C166.52 13.5678 166.289 15.1544 166.017 16.6589C165.745 18.136 165.391 19.5721 164.955 20.9672C164.52 22.3349 164.003 23.6616 163.404 24.9472C162.832 26.2329 162.138 27.5186 161.322 28.8042H157.607C158.968 26.5064 160.029 24.0993 160.791 21.5826C161.553 19.066 162.125 16.481 162.506 13.8277C162.887 11.1743 163.145 8.52091 163.282 5.86753C163.363 4.19891 163.908 2.88589 164.915 1.92849C165.949 0.971082 167.35 0.492378 169.12 0.492378H179.489ZM159.73 28.517L159.322 35H156.464V28.517H159.73ZM183 25.5627V28.8042H156.464V25.5627H183ZM183 28.517V35H180.142L179.816 28.517H183Z" fill="#679EE5"/>
</svg>
