<svg width="295" height="37" viewBox="0 0 295 37" fill="none" xmlns="http://www.w3.org/2000/svg">
<path d="M5.63454 0.481657C7.78936 0.481657 9.95873 0.496252 12.1427 0.525443C14.3266 0.554635 16.394 0.64221 18.345 0.788167L18.1266 4.11598H7.20697C6.21693 4.11598 5.48895 4.34951 5.02304 4.81657C4.55714 5.28363 4.32418 6.0426 4.32418 7.09349V30.7385H0V6.26154C0 4.53925 0.524143 3.15266 1.57243 2.10177C2.64984 1.0217 4.00387 0.481657 5.63454 0.481657Z" fill="#61A1F4"/>
<path d="M31.6714 9.37041V12.5669H23.7219C22.8484 12.5669 22.2077 12.7566 21.8001 13.1361C21.4215 13.5156 21.174 14.187 21.0575 15.1503C20.9119 16.4055 20.7372 17.7045 20.5334 19.0473C20.3587 20.3609 20.1548 21.6308 19.9219 22.8568C19.7181 24.0536 19.4414 25.1337 19.092 26.097C18.7426 27.2063 18.233 28.1258 17.5632 28.8556C16.9226 29.5854 16.1364 30.1254 15.2046 30.4757C14.2728 30.7968 13.2099 30.9574 12.0161 30.9574L11.5793 27.7609C12.3364 27.5566 12.9479 27.3377 13.4138 27.1041C13.9088 26.8706 14.2873 26.5787 14.5494 26.2284C14.8406 25.8489 15.0881 25.3965 15.292 24.871C15.554 24.2288 15.7724 23.4698 15.9471 22.5941C16.151 21.7183 16.3111 20.8134 16.4276 19.8793C16.5732 18.916 16.6897 17.9673 16.777 17.0331C16.8935 16.0698 16.9954 15.1941 17.0828 14.4059C17.2866 12.7712 17.8253 11.5306 18.6989 10.684C19.5725 9.80828 20.8974 9.37041 22.6736 9.37041H31.6714ZM32.2393 9.37041V30.7385H28.0024V9.37041H32.2393Z" fill="#61A1F4"/>
<path d="M43.3493 9.37041V30.7385H39.1125V9.37041H43.3493ZM42.2137 0.218935C43.029 0.218935 43.4367 0.642209 43.4367 1.48876V3.98462C43.4367 4.83116 43.029 5.25444 42.2137 5.25444H40.2482C39.4037 5.25444 38.9815 4.83116 38.9815 3.98462V1.48876C38.9815 0.642209 39.4037 0.218935 40.2482 0.218935H42.2137Z" fill="#61A1F4"/>
<path d="M54.2628 9.37041V30.7385H50.1571V9.37041H54.2628ZM71.4286 27.4982V30.7385H53.9571L53.9134 27.4982H71.4286ZM68.5021 9.37041L68.4584 30.7385H64.3089V9.37041H68.5021ZM71.4286 30.5195V37H68.6768L68.24 30.5195H71.4286Z" fill="#61A1F4"/>
<path d="M95.4347 9.37041V30.7385H91.6347V17.1207C91.6347 16.6245 91.6493 16.1428 91.6784 15.6757C91.7075 15.2087 91.7512 14.6978 91.8094 14.1432H91.6784C91.5037 14.5811 91.2707 15.0481 90.9795 15.5444C90.7174 16.0114 90.4554 16.4201 90.1933 16.7704L79.8415 30.7385H76.3035V9.37041H80.1035V23.032C80.1035 23.499 80.089 23.9661 80.0599 24.4331C80.0599 24.9002 80.0307 25.411 79.9725 25.9657H80.0599C80.2928 25.4986 80.5403 25.0462 80.8024 24.6083C81.0645 24.1412 81.3265 23.7471 81.5886 23.426L91.9404 9.37041H95.4347Z" fill="#61A1F4"/>
<path d="M111.37 8.84497C112.039 8.84497 112.782 8.87416 113.597 8.93254C114.413 8.99093 115.242 9.0931 116.087 9.23905C116.931 9.38501 117.718 9.60395 118.446 9.89586L117.921 12.6107C116.902 12.5231 115.854 12.4647 114.777 12.4355C113.728 12.3771 112.826 12.3479 112.068 12.3479C110.467 12.3479 109.186 12.5815 108.225 13.0485C107.264 13.4864 106.565 14.26 106.128 15.3692C105.72 16.4785 105.517 18.0256 105.517 20.0107C105.517 21.9957 105.72 23.5574 106.128 24.6959C106.565 25.8343 107.264 26.6225 108.225 27.0604C109.186 27.4982 110.467 27.7172 112.068 27.7172C112.505 27.7172 113.073 27.7026 113.772 27.6734C114.5 27.6442 115.272 27.6004 116.087 27.542C116.902 27.4836 117.674 27.3961 118.402 27.2793L118.795 30.0817C117.747 30.4903 116.567 30.7822 115.257 30.9574C113.947 31.1617 112.636 31.2639 111.326 31.2639C108.851 31.2639 106.856 30.899 105.342 30.1692C103.857 29.4394 102.779 28.2572 102.11 26.6225C101.44 24.9878 101.105 22.7838 101.105 20.0107C101.105 17.2667 101.44 15.0773 102.11 13.4426C102.779 11.8079 103.857 10.6402 105.342 9.93965C106.856 9.20986 108.865 8.84497 111.37 8.84497Z" fill="#61A1F4"/>
<path d="M132.392 8.84497C135.683 8.84497 138.056 9.44339 139.512 10.6402C140.997 11.8079 141.754 13.5448 141.783 15.8509C141.783 17.7775 141.361 19.2663 140.517 20.3172C139.672 21.368 138.289 21.8935 136.367 21.8935H124.006V18.8722H135.275C136.207 18.8722 136.818 18.5657 137.11 17.9527C137.43 17.3396 137.576 16.6391 137.546 15.8509C137.546 14.5373 137.168 13.6032 136.411 13.0485C135.683 12.4939 134.402 12.2166 132.567 12.2166C131.082 12.2166 129.917 12.4355 129.073 12.8734C128.228 13.3112 127.631 14.0702 127.282 15.1503C126.932 16.2304 126.758 17.7483 126.758 19.7041C126.758 21.8935 126.976 23.572 127.413 24.7396C127.85 25.8781 128.534 26.6663 129.466 27.1041C130.427 27.542 131.693 27.7609 133.266 27.7609C134.402 27.7609 135.654 27.7172 137.022 27.6296C138.42 27.5128 139.687 27.3815 140.822 27.2355L141.215 29.9941C140.546 30.286 139.701 30.5341 138.682 30.7385C137.692 30.9136 136.673 31.045 135.625 31.1325C134.576 31.2201 133.615 31.2639 132.742 31.2639C130.267 31.2639 128.257 30.8844 126.714 30.1254C125.2 29.3665 124.093 28.1696 123.395 26.5349C122.725 24.871 122.39 22.6963 122.39 20.0107C122.39 17.2083 122.739 14.9897 123.438 13.355C124.137 11.7203 125.214 10.5673 126.67 9.89586C128.126 9.19527 130.034 8.84497 132.392 8.84497Z" fill="#61A1F4"/>
<path d="M164.457 9.37041V12.5231H156.682C155.11 12.5231 154.251 13.355 154.105 15.0189C153.931 17.1791 153.639 19.1787 153.232 21.0178C152.853 22.8276 152.315 24.5353 151.616 26.1408C150.946 27.7172 150.029 29.2497 148.864 30.7385H145.413C146.549 29.0162 147.437 27.2647 148.078 25.484C148.718 23.6742 149.213 21.8351 149.563 19.9669C149.941 18.0986 150.189 16.2158 150.305 14.3183C150.451 12.6544 150.975 11.4138 151.878 10.5965C152.78 9.77909 154.091 9.37041 155.809 9.37041H164.457ZM147.859 30.5195L147.466 37H144.714V30.5195H147.859ZM167.995 27.4982V30.7385H144.714V27.4982H167.995ZM167.995 30.5195V37H165.2L164.807 30.5195H167.995ZM164.981 9.37041V30.7385H160.963V9.37041H164.981Z" fill="#61A1F4"/>
<path d="M211.779 0.525443C212.944 0.525443 213.526 1.12386 213.526 2.32071L214.793 30.7385H210.469L209.42 4.07219H208.503L202.126 25.7467C201.893 26.7101 201.281 27.1917 200.291 27.1917H196.71C195.72 27.1917 195.079 26.7101 194.788 25.7467L188.411 4.07219H187.581L186.533 30.7385H182.252L183.431 2.32071C183.49 1.12386 184.087 0.525443 185.222 0.525443H189.94C190.871 0.525443 191.468 1.0071 191.73 1.97042L197.059 19.8355C197.263 20.5069 197.438 21.1783 197.583 21.8497C197.758 22.5211 197.933 23.2217 198.107 23.9515H198.85C199.054 23.2217 199.229 22.5211 199.374 21.8497C199.549 21.1783 199.738 20.4777 199.942 19.7479L205.227 1.97042C205.489 1.0071 206.115 0.525443 207.105 0.525443H211.779Z" fill="#61A1F4"/>
<path d="M233.783 0.525443C234.161 0.525443 234.496 0.642208 234.787 0.875739C235.078 1.08008 235.282 1.3574 235.399 1.70769L244.921 30.7385H240.378L232.865 6.43669C232.749 5.99882 232.633 5.56095 232.516 5.12308C232.4 4.68521 232.283 4.27653 232.167 3.89704H230.944C230.827 4.27653 230.711 4.68521 230.594 5.12308C230.478 5.56095 230.347 5.99882 230.201 6.43669L222.688 30.7385H218.189L227.711 1.70769C227.828 1.3574 228.032 1.08008 228.323 0.875739C228.614 0.642208 228.949 0.525443 229.327 0.525443H233.783ZM239.199 17.9089V21.5432H223.824V17.9089H239.199Z" fill="#61A1F4"/>
<path d="M269.771 0.525443C269.159 2.24773 268.591 3.83866 268.067 5.29822C267.572 6.7286 267.063 8.01302 266.539 9.15148C266.014 10.2607 265.447 11.2241 264.835 12.0414C264.224 12.8588 263.525 13.5156 262.739 14.0118C261.952 14.4789 261.021 14.7708 259.943 14.8876V15.0627C261.079 15.1795 262.069 15.486 262.913 15.9822C263.758 16.4493 264.5 17.1207 265.141 17.9965C265.811 18.843 266.422 19.8793 266.975 21.1053C267.529 22.3314 268.082 23.7617 268.635 25.3965C269.218 27.002 269.858 28.7826 270.557 30.7385H265.971C265.155 28.4032 264.427 26.3598 263.787 24.6083C263.175 22.8568 262.52 21.3972 261.821 20.2296C261.152 19.0619 260.365 18.1862 259.463 17.6024C258.56 16.9893 257.424 16.6828 256.056 16.6828V13.3112C257.337 13.3112 258.414 13.0047 259.288 12.3917C260.191 11.7495 260.977 10.8592 261.647 9.72071C262.316 8.58225 262.928 7.23945 263.481 5.69231C264.063 4.14517 264.675 2.42288 265.316 0.525443H269.771ZM253.26 0.525443V9.80828C253.26 10.7132 253.217 11.589 253.129 12.4355C253.042 13.2821 252.896 14.114 252.692 14.9314C252.838 15.7487 252.969 16.5807 253.086 17.4272C253.202 18.2738 253.26 19.0765 253.26 19.8355V30.7385H248.936V0.525443H253.26ZM257.716 13.3112V16.6828H251.994V13.3112H257.716Z" fill="#61A1F4"/>
<path d="M286.002 0C287.313 0 288.434 0.0291915 289.365 0.0875734C290.297 0.145957 291.156 0.248127 291.943 0.394083C292.729 0.510849 293.544 0.685997 294.388 0.919526L293.952 4.20355C293.078 4.11598 292.263 4.05759 291.506 4.0284C290.749 3.97002 289.933 3.92623 289.06 3.89704C288.215 3.86785 287.196 3.85325 286.002 3.85325C284.139 3.85325 282.668 4.21815 281.591 4.94793C280.513 5.67771 279.742 6.90375 279.276 8.62604C278.839 10.3191 278.621 12.6544 278.621 15.632C278.621 18.6095 278.839 20.9594 279.276 22.6817C279.742 24.3748 280.513 25.5862 281.591 26.316C282.668 27.0458 284.139 27.4107 286.002 27.4107C287.895 27.4107 289.482 27.3815 290.763 27.3231C292.074 27.2355 293.34 27.1041 294.563 26.929L295 30.213C293.719 30.5925 292.394 30.8552 291.025 31.0012C289.686 31.1763 288.011 31.2639 286.002 31.2639C283.09 31.2639 280.746 30.7677 278.97 29.7751C277.223 28.7535 275.956 27.1041 275.17 24.8272C274.384 22.5503 273.991 19.4852 273.991 15.632C273.991 11.7787 274.384 8.71361 275.17 6.43669C275.956 4.15976 277.223 2.52505 278.97 1.53254C280.746 0.510848 283.09 0 286.002 0Z" fill="#61A1F4"/>
</svg>
