<svg width="66" height="66" viewBox="0 0 66 66" fill="none" xmlns="http://www.w3.org/2000/svg">
<circle cx="33.0345" cy="33.3514" r="30.3587" fill="#3D404D" stroke="white" stroke-width="4"/>
<path d="M32.8275 24.9707C33.5982 24.9707 33.9978 25.3703 34.0264 26.1695L34.583 39.7419H31.5645L31.0721 27.4968H30.6868L28.3105 36.7021C28.1821 37.3871 27.7539 37.7296 27.0261 37.7296H24.9709C24.2431 37.7296 23.8007 37.3871 23.6437 36.7021L21.2674 27.4968H20.9035L20.4539 39.7419H17.4141L17.9707 26.1695C17.9992 25.3703 18.4059 24.9707 19.1909 24.9707H22.2522C22.9515 24.9707 23.3796 25.3204 23.5366 26.0197L25.4419 33.4481C25.5275 33.7906 25.5989 34.1403 25.656 34.4971C25.7131 34.8396 25.7773 35.1893 25.8487 35.5461H26.127C26.1983 35.1893 26.2625 34.8396 26.3196 34.4971C26.391 34.1403 26.4623 33.7835 26.5337 33.4267L28.4176 26.0197C28.5603 25.3204 28.9884 24.9707 29.702 24.9707H32.8275Z" fill="white"/>
<path d="M41.7982 28.8883C43.0255 28.8883 43.996 29.0025 44.7096 29.2308C45.4374 29.4592 45.9584 29.816 46.2723 30.3012C46.6006 30.7864 46.7647 31.4358 46.7647 32.2493C46.7647 33.0342 46.6077 33.6765 46.2938 34.176C45.9798 34.6612 45.4517 35.018 44.7096 35.2464C43.9817 35.4747 43.0041 35.5889 41.7767 35.5889C40.5494 35.5889 39.5646 35.4747 38.8225 35.2464C38.0946 35.018 37.5666 34.6612 37.2383 34.176C36.9244 33.6907 36.7674 33.0485 36.7674 32.2493C36.7674 31.4501 36.9244 30.8078 37.2383 30.3226C37.5666 29.8231 38.1018 29.4592 38.8439 29.2308C39.586 29.0025 40.5708 28.8883 41.7982 28.8883ZM41.7767 30.8364C40.9918 30.8364 40.4495 30.9434 40.1498 31.1575C39.8501 31.3573 39.7002 31.7212 39.7002 32.2493C39.7002 32.7773 39.8501 33.1484 40.1498 33.3625C40.4495 33.5766 40.9918 33.6836 41.7767 33.6836C42.5617 33.6836 43.0969 33.5766 43.3823 33.3625C43.6678 33.1484 43.8105 32.7773 43.8105 32.2493C43.8105 31.7212 43.6678 31.3573 43.3823 31.1575C43.0969 30.9434 42.5617 30.8364 41.7767 30.8364ZM47.985 29.1666L47.8137 30.5153L44.9879 30.8792L44.2172 29.1666H47.985ZM38.587 34.9466L40.1712 35.2249C39.9714 35.3391 39.8287 35.5175 39.743 35.7601C39.6717 36.0028 39.6931 36.2311 39.8072 36.4452C39.9214 36.6593 40.1712 36.7877 40.5565 36.8305L44.4527 37.2801C45.5659 37.3942 46.3508 37.7082 46.8075 38.222C47.2642 38.7215 47.4926 39.4565 47.4926 40.427C47.4926 41.3404 47.307 42.0397 46.936 42.5249C46.5649 43.0244 45.9726 43.367 45.1591 43.5525C44.3457 43.738 43.261 43.8308 41.9052 43.8308C40.792 43.8308 39.8715 43.7737 39.1436 43.6595C38.43 43.5596 37.8592 43.3884 37.431 43.1458C37.0171 42.9031 36.7246 42.582 36.5533 42.1824C36.3963 41.7971 36.3178 41.3118 36.3178 40.7267C36.3178 40.2843 36.3963 39.9061 36.5533 39.5921C36.7103 39.2638 36.9743 38.9713 37.3454 38.7144C37.7307 38.4575 38.2659 38.222 38.9509 38.0079L40.5137 37.4513L41.6483 37.9009L40.792 38.4575C40.4352 38.7144 40.1426 38.9356 39.9143 39.1211C39.7002 39.2924 39.5432 39.4637 39.4433 39.6349C39.3577 39.8062 39.3149 40.0345 39.3149 40.32C39.3149 40.6482 39.3862 40.898 39.5289 41.0692C39.6717 41.2548 39.9286 41.3761 40.2996 41.4331C40.685 41.5045 41.2059 41.5402 41.8624 41.5402C42.5474 41.5402 43.0826 41.5045 43.468 41.4331C43.8533 41.3761 44.1173 41.2619 44.26 41.0906C44.417 40.9194 44.4955 40.6767 44.4955 40.3628C44.4955 40.0916 44.4384 39.8918 44.3243 39.7634C44.2244 39.6349 44.046 39.5421 43.7891 39.4851C43.5464 39.4137 43.2039 39.3495 42.7615 39.2924L39.4433 38.9285C38.8867 38.8714 38.4514 38.7215 38.1375 38.4789C37.8235 38.2363 37.6023 37.9437 37.4738 37.6012C37.3596 37.2444 37.3311 36.8876 37.3882 36.5308C37.4453 36.174 37.5737 35.8529 37.7735 35.5675C37.9876 35.282 38.2588 35.0751 38.587 34.9466Z" fill="white"/>
</svg>
