<svg width="266" height="358" viewBox="0 0 266 358" fill="none" xmlns="http://www.w3.org/2000/svg">
<path fill-rule="evenodd" clip-rule="evenodd" d="M9.7919 152.018C10.4041 152.63 10.8211 153.41 10.9905 154.258C11.1598 155.107 11.0737 155.986 10.7432 156.786C10.4126 157.585 9.85242 158.268 9.13338 158.748C8.41434 159.228 7.56872 159.484 6.70357 159.483C5.83841 159.483 4.99256 159.226 4.27289 158.745C3.55323 158.263 2.9921 157.58 2.6605 156.78C2.3289 155.981 2.24173 155.101 2.40997 154.253C2.5782 153.404 2.99427 152.625 3.60564 152.014C4.01156 151.608 4.49359 151.286 5.02416 151.067C5.55474 150.847 6.12349 150.734 6.69793 150.735C7.27238 150.735 7.84125 150.849 8.37211 151.069C8.90297 151.289 9.38544 151.611 9.7919 152.018ZM28.4972 170.723C29.1093 171.335 29.5264 172.115 29.6957 172.964C29.8651 173.812 29.779 174.692 29.4484 175.491C29.1179 176.29 28.5577 176.973 27.8387 177.453C27.1196 177.933 26.2741 178.189 25.409 178.189C24.5438 178.188 23.6978 177.931 22.9782 177.45C22.2585 176.969 21.6974 176.285 21.3658 175.486C21.0342 174.686 20.947 173.807 21.1153 172.958C21.2835 172.11 21.6996 171.331 22.3109 170.719C23.1307 169.899 24.2431 169.439 25.4032 169.44C26.5634 169.441 27.6763 169.902 28.4972 170.723ZM47.2026 189.429C47.8147 190.041 48.2318 190.82 48.4011 191.669C48.5705 192.518 48.4845 193.397 48.1539 194.196C47.8234 194.995 47.2631 195.678 46.544 196.158C45.825 196.639 44.9795 196.895 44.1143 196.894C43.2492 196.893 42.4032 196.636 41.6836 196.155C40.9639 195.674 40.4028 194.991 40.0712 194.191C39.7396 193.392 39.6524 192.512 39.8206 191.664C39.9889 190.815 40.4049 190.036 41.0163 189.425C41.8361 188.605 42.9485 188.145 44.1086 188.145C45.2687 188.146 46.3817 188.608 47.2026 189.429ZM65.9079 208.134C66.52 208.746 66.9371 209.526 67.1064 210.374C67.2758 211.223 67.1898 212.103 66.8592 212.902C66.5286 213.701 65.9684 214.383 65.2493 214.864C64.5303 215.344 63.6848 215.6 62.8196 215.599C61.9545 215.599 61.1085 215.342 60.3889 214.861C59.6692 214.379 59.1081 213.696 58.7765 212.896C58.4449 212.097 58.3577 211.217 58.5259 210.369C58.6942 209.52 59.1102 208.741 59.7216 208.13C60.5414 207.31 61.6537 206.85 62.8139 206.851C63.974 206.851 65.087 207.313 65.9079 208.134ZM84.6132 226.839C85.2254 227.451 85.6425 228.231 85.8118 229.08C85.9811 229.928 85.8952 230.808 85.5646 231.607C85.234 232.406 84.6738 233.089 83.9547 233.569C83.2357 234.049 82.3902 234.305 81.525 234.305C80.6598 234.304 79.8139 234.047 79.0942 233.566C78.3746 233.085 77.8134 232.401 77.4818 231.602C77.1502 230.802 77.0631 229.923 77.2313 229.074C77.3995 228.226 77.8156 227.447 78.427 226.835C79.2468 226.015 80.3591 225.555 81.5193 225.556C82.6794 225.557 83.7924 226.018 84.6132 226.839ZM103.319 245.545C103.931 246.157 104.348 246.936 104.517 247.785C104.687 248.634 104.6 249.513 104.27 250.312C103.939 251.111 103.379 251.794 102.66 252.274C101.941 252.755 101.095 253.011 100.23 253.01C99.3651 253.009 98.5192 252.752 97.7995 252.271C97.0798 251.79 96.5187 251.107 96.1871 250.307C95.8555 249.507 95.7684 248.628 95.9366 247.779C96.1048 246.931 96.5209 246.152 97.1323 245.54C97.9521 244.721 99.0644 244.261 100.225 244.261C101.385 244.262 102.498 244.724 103.319 245.545ZM122.024 264.25C122.636 264.862 123.053 265.642 123.223 266.49C123.392 267.339 123.306 268.219 122.975 269.018C122.645 269.817 122.084 270.5 121.365 270.98C120.646 271.46 119.801 271.716 118.936 271.715C118.07 271.715 117.225 271.458 116.505 270.977C115.785 270.495 115.224 269.812 114.892 269.012C114.561 268.213 114.474 267.333 114.642 266.485C114.81 265.636 115.226 264.857 115.838 264.246C116.658 263.426 117.77 262.966 118.93 262.967C120.09 262.967 121.203 263.429 122.024 264.25ZM141.928 285.196C141.759 284.347 141.341 283.567 140.729 282.955C139.908 282.134 138.795 281.673 137.635 281.672C136.475 281.671 135.363 282.131 134.543 282.951C133.932 283.563 133.515 284.342 133.347 285.19C133.179 286.039 133.266 286.918 133.598 287.718C133.929 288.517 134.491 289.201 135.21 289.682C135.93 290.163 136.776 290.42 137.641 290.421C138.506 290.421 139.352 290.165 140.071 289.685C140.79 289.205 141.35 288.522 141.681 287.723C142.011 286.924 142.097 286.044 141.928 285.196ZM161.718 265.406C161.548 264.557 161.131 263.778 160.519 263.166C159.698 262.345 158.585 261.883 157.425 261.882C156.265 261.882 155.152 262.342 154.333 263.162C153.721 263.773 153.305 264.552 153.137 265.4C152.969 266.249 153.056 267.129 153.388 267.928C153.719 268.728 154.28 269.411 155 269.892C155.719 270.373 156.565 270.63 157.431 270.631C158.296 270.632 159.141 270.376 159.86 269.895C160.579 269.415 161.14 268.732 161.47 267.933C161.801 267.134 161.887 266.255 161.718 265.406ZM180.309 243.376C180.921 243.988 181.338 244.767 181.508 245.616C181.677 246.465 181.591 247.344 181.26 248.143C180.93 248.942 180.369 249.625 179.65 250.105C178.931 250.585 178.086 250.842 177.221 250.841C176.355 250.84 175.51 250.583 174.79 250.102C174.07 249.621 173.509 248.938 173.178 248.138C172.846 247.339 172.759 246.459 172.927 245.61C173.095 244.762 173.511 243.983 174.123 243.372C174.943 242.552 176.055 242.092 177.215 242.092C178.375 242.093 179.488 242.555 180.309 243.376ZM201.331 225.793C201.161 224.944 200.744 224.165 200.132 223.552C199.725 223.146 199.243 222.824 198.712 222.603C198.181 222.383 197.612 222.27 197.038 222.269C196.464 222.269 195.895 222.382 195.364 222.601C194.834 222.821 194.352 223.143 193.946 223.549C193.334 224.16 192.918 224.939 192.75 225.787C192.582 226.636 192.669 227.515 193.001 228.315C193.332 229.115 193.893 229.798 194.613 230.279C195.333 230.76 196.179 231.017 197.044 231.018C197.909 231.019 198.754 230.762 199.473 230.282C200.192 229.802 200.753 229.119 201.083 228.32C201.414 227.521 201.5 226.642 201.331 225.793ZM219.888 203.796C220.5 204.408 220.918 205.188 221.087 206.037C221.256 206.885 221.17 207.765 220.84 208.564C220.509 209.363 219.949 210.046 219.23 210.526C218.511 211.006 217.665 211.262 216.8 211.262C215.935 211.261 215.089 211.004 214.369 210.523C213.65 210.042 213.089 209.358 212.757 208.559C212.425 207.759 212.338 206.88 212.506 206.031C212.675 205.183 213.091 204.404 213.702 203.792C214.522 202.972 215.634 202.512 216.794 202.513C217.954 202.514 219.067 202.975 219.888 203.796ZM240.877 186.247C240.707 185.398 240.29 184.619 239.678 184.007C238.857 183.186 237.744 182.724 236.584 182.723C235.424 182.723 234.311 183.183 233.492 184.003C232.88 184.614 232.464 185.393 232.296 186.241C232.128 187.09 232.215 187.97 232.547 188.769C232.878 189.569 233.439 190.252 234.159 190.733C234.879 191.214 235.724 191.471 236.59 191.472C237.455 191.473 238.3 191.217 239.019 190.736C239.738 190.256 240.299 189.573 240.629 188.774C240.96 187.975 241.046 187.096 240.877 186.247ZM259.468 164.217C260.08 164.829 260.497 165.609 260.666 166.457C260.836 167.306 260.749 168.186 260.419 168.985C260.088 169.784 259.528 170.466 258.809 170.947C258.09 171.427 257.244 171.683 256.379 171.682C255.514 171.682 254.668 171.425 253.949 170.943C253.229 170.462 252.668 169.779 252.336 168.979C252.005 168.18 251.917 167.3 252.086 166.452C252.254 165.603 252.67 164.824 253.281 164.213C254.101 163.393 255.213 162.933 256.374 162.934C257.534 162.934 258.647 163.396 259.468 164.217ZM280.456 146.667C280.287 145.819 279.87 145.039 279.258 144.427C278.437 143.606 277.324 143.144 276.164 143.144C275.003 143.143 273.891 143.603 273.071 144.423C272.46 145.034 272.044 145.813 271.876 146.662C271.707 147.51 271.795 148.39 272.126 149.189C272.458 149.989 273.019 150.672 273.739 151.153C274.458 151.635 275.304 151.892 276.169 151.892C277.034 151.893 277.88 151.637 278.599 151.157C279.318 150.676 279.878 149.994 280.209 149.195C280.539 148.395 280.626 147.516 280.456 146.667ZM143.012 246.701C142.843 245.852 142.426 245.072 141.814 244.46C140.993 243.639 139.88 243.178 138.72 243.177C137.559 243.176 136.447 243.637 135.627 244.456C135.016 245.068 134.6 245.847 134.432 246.695C134.263 247.544 134.351 248.423 134.682 249.223C135.014 250.022 135.575 250.706 136.295 251.187C137.014 251.668 137.86 251.925 138.725 251.926C139.59 251.926 140.436 251.67 141.155 251.19C141.874 250.71 142.434 250.027 142.765 249.228C143.095 248.429 143.182 247.549 143.012 246.701ZM161.604 224.67C162.216 225.282 162.633 226.062 162.802 226.911C162.972 227.759 162.885 228.639 162.555 229.438C162.224 230.237 161.664 230.92 160.945 231.4C160.226 231.88 159.381 232.136 158.515 232.136C157.65 232.135 156.804 231.878 156.085 231.397C155.365 230.916 154.804 230.232 154.472 229.433C154.141 228.633 154.053 227.754 154.222 226.905C154.39 226.057 154.806 225.278 155.417 224.666C156.237 223.846 157.349 223.386 158.51 223.387C159.67 223.388 160.783 223.849 161.604 224.67ZM182.625 207.088C182.456 206.239 182.039 205.459 181.427 204.847C181.02 204.441 180.538 204.118 180.007 203.898C179.476 203.678 178.907 203.564 178.333 203.564C177.758 203.564 177.189 203.676 176.659 203.896C176.128 204.115 175.646 204.437 175.24 204.843C174.629 205.455 174.213 206.234 174.045 207.082C173.876 207.931 173.964 208.81 174.295 209.61C174.627 210.409 175.188 211.093 175.908 211.574C176.627 212.055 177.473 212.312 178.338 212.313C179.204 212.313 180.049 212.057 180.768 211.577C181.487 211.097 182.047 210.414 182.378 209.615C182.709 208.816 182.795 207.936 182.625 207.088ZM201.183 185.091C201.795 185.703 202.212 186.483 202.382 187.331C202.551 188.18 202.465 189.06 202.134 189.859C201.804 190.658 201.243 191.341 200.524 191.821C199.805 192.301 198.96 192.557 198.095 192.556C197.23 192.556 196.384 192.299 195.664 191.818C194.944 191.336 194.383 190.653 194.052 189.853C193.72 189.054 193.633 188.174 193.801 187.326C193.969 186.477 194.385 185.698 194.997 185.087C195.817 184.267 196.929 183.807 198.089 183.808C199.249 183.808 200.362 184.27 201.183 185.091ZM222.171 167.542C222.002 166.693 221.585 165.913 220.973 165.301C220.152 164.48 219.039 164.019 217.879 164.018C216.718 164.017 215.606 164.477 214.786 165.297C214.175 165.909 213.759 166.688 213.591 167.536C213.422 168.385 213.51 169.264 213.841 170.064C214.173 170.863 214.734 171.547 215.454 172.028C216.173 172.509 217.019 172.766 217.884 172.767C218.75 172.767 219.595 172.511 220.314 172.031C221.033 171.551 221.593 170.868 221.924 170.069C222.255 169.27 222.341 168.39 222.171 167.542ZM240.762 145.512C241.374 146.124 241.792 146.903 241.961 147.752C242.13 148.601 242.044 149.48 241.714 150.279C241.383 151.078 240.823 151.761 240.104 152.241C239.385 152.722 238.539 152.978 237.674 152.977C236.809 152.976 235.963 152.719 235.243 152.238C234.524 151.757 233.962 151.074 233.631 150.274C233.299 149.474 233.212 148.595 233.38 147.746C233.549 146.898 233.965 146.119 234.576 145.508C235.396 144.688 236.508 144.228 237.668 144.228C238.828 144.229 239.941 144.691 240.762 145.512ZM261.751 127.962C261.582 127.113 261.164 126.334 260.552 125.722C259.731 124.901 258.618 124.439 257.458 124.438C256.298 124.438 255.186 124.898 254.366 125.718C253.755 126.329 253.339 127.108 253.17 127.956C253.002 128.805 253.089 129.684 253.421 130.484C253.752 131.283 254.314 131.967 255.033 132.448C255.753 132.929 256.599 133.186 257.464 133.187C258.329 133.188 259.175 132.932 259.894 132.451C260.613 131.971 261.173 131.288 261.504 130.489C261.834 129.69 261.92 128.811 261.751 127.962ZM124.307 227.995C124.138 227.147 123.72 226.367 123.108 225.755C122.287 224.934 121.174 224.472 120.014 224.472C118.854 224.471 117.742 224.931 116.922 225.751C116.311 226.362 115.894 227.141 115.726 227.99C115.558 228.838 115.645 229.718 115.977 230.517C116.308 231.317 116.87 232 117.589 232.482C118.309 232.963 119.155 233.22 120.02 233.22C120.885 233.221 121.731 232.965 122.45 232.485C123.169 232.004 123.729 231.322 124.06 230.523C124.39 229.724 124.476 228.844 124.307 227.995ZM142.898 205.965C143.51 206.577 143.928 207.357 144.097 208.205C144.266 209.054 144.18 209.934 143.85 210.733C143.519 211.532 142.959 212.214 142.24 212.695C141.521 213.175 140.675 213.431 139.81 213.43C138.945 213.43 138.099 213.173 137.379 212.691C136.66 212.21 136.098 211.527 135.767 210.727C135.435 209.928 135.348 209.048 135.516 208.2C135.685 207.351 136.101 206.572 136.712 205.961C137.532 205.141 138.644 204.681 139.804 204.682C140.964 204.682 142.077 205.144 142.898 205.965ZM163.92 188.382C163.751 187.534 163.333 186.754 162.721 186.142C162.315 185.735 161.832 185.413 161.301 185.193C160.771 184.972 160.202 184.859 159.627 184.859C159.053 184.858 158.484 184.971 157.954 185.19C157.423 185.41 156.941 185.732 156.535 186.138C155.924 186.749 155.508 187.528 155.339 188.377C155.171 189.225 155.258 190.105 155.59 190.904C155.921 191.704 156.483 192.387 157.202 192.868C157.922 193.35 158.768 193.607 159.633 193.607C160.498 193.608 161.344 193.352 162.063 192.872C162.782 192.391 163.342 191.709 163.673 190.91C164.003 190.11 164.089 189.231 163.92 188.382ZM182.478 166.386C183.09 166.998 183.507 167.777 183.676 168.626C183.846 169.475 183.759 170.354 183.429 171.153C183.098 171.952 182.538 172.635 181.819 173.115C181.1 173.596 180.254 173.852 179.389 173.851C178.524 173.85 177.678 173.593 176.959 173.112C176.239 172.631 175.678 171.947 175.346 171.148C175.015 170.348 174.927 169.469 175.096 168.62C175.264 167.772 175.68 166.993 176.291 166.381C177.111 165.562 178.223 165.102 179.384 165.102C180.544 165.103 181.657 165.565 182.478 166.386ZM203.466 148.836C203.297 147.988 202.879 147.208 202.267 146.596C201.446 145.775 200.333 145.313 199.173 145.313C198.013 145.312 196.901 145.772 196.081 146.592C195.47 147.203 195.053 147.982 194.885 148.831C194.717 149.679 194.804 150.559 195.136 151.358C195.467 152.158 196.029 152.841 196.748 153.322C197.468 153.804 198.314 154.061 199.179 154.061C200.044 154.062 200.89 153.806 201.609 153.326C202.328 152.845 202.888 152.163 203.219 151.364C203.549 150.565 203.635 149.685 203.466 148.836ZM222.057 126.806C222.669 127.418 223.086 128.198 223.256 129.047C223.425 129.895 223.339 130.775 223.008 131.574C222.678 132.373 222.117 133.056 221.398 133.536C220.679 134.016 219.834 134.272 218.969 134.272C218.103 134.271 217.258 134.014 216.538 133.533C215.818 133.052 215.257 132.368 214.925 131.569C214.594 130.769 214.507 129.89 214.675 129.041C214.843 128.193 215.259 127.414 215.871 126.802C216.69 125.982 217.803 125.522 218.963 125.523C220.123 125.524 221.236 125.985 222.057 126.806ZM243.046 109.257C242.876 108.408 242.459 107.628 241.847 107.016C241.026 106.195 239.913 105.734 238.753 105.733C237.593 105.732 236.48 106.192 235.661 107.012C235.049 107.623 234.633 108.403 234.465 109.251C234.297 110.1 234.384 110.979 234.716 111.779C235.047 112.578 235.608 113.262 236.328 113.743C237.048 114.224 237.894 114.481 238.759 114.482C239.624 114.482 240.469 114.226 241.188 113.746C241.907 113.266 242.468 112.583 242.798 111.784C243.129 110.985 243.215 110.105 243.046 109.257ZM105.601 209.29C105.432 208.441 105.015 207.662 104.403 207.05C103.582 206.229 102.469 205.767 101.309 205.766C100.149 205.766 99.0364 206.226 98.2166 207.046C97.6053 207.657 97.1892 208.436 97.021 209.285C96.8527 210.133 96.9399 211.013 97.2715 211.812C97.6031 212.612 98.1642 213.295 98.8839 213.776C99.6036 214.257 100.45 214.514 101.315 214.515C102.18 214.516 103.025 214.26 103.744 213.779C104.463 213.299 105.024 212.616 105.354 211.817C105.685 211.018 105.771 210.139 105.601 209.29ZM124.193 187.26C124.805 187.872 125.222 188.651 125.391 189.5C125.561 190.349 125.475 191.228 125.144 192.027C124.814 192.826 124.253 193.509 123.534 193.989C122.815 194.47 121.97 194.726 121.105 194.725C120.24 194.724 119.394 194.467 118.674 193.986C117.954 193.505 117.393 192.822 117.062 192.022C116.73 191.222 116.643 190.343 116.811 189.495C116.979 188.646 117.395 187.867 118.007 187.256C118.826 186.436 119.939 185.976 121.099 185.976C122.259 185.977 123.372 186.439 124.193 187.26ZM145.215 169.677C145.045 168.828 144.628 168.049 144.016 167.437C143.61 167.03 143.127 166.708 142.596 166.487C142.065 166.267 141.496 166.154 140.922 166.153C140.348 166.153 139.779 166.266 139.248 166.485C138.718 166.705 138.236 167.027 137.83 167.432C137.218 168.044 136.802 168.823 136.634 169.671C136.466 170.52 136.553 171.399 136.885 172.199C137.216 172.998 137.777 173.682 138.497 174.163C139.217 174.644 140.063 174.901 140.928 174.902C141.793 174.903 142.638 174.646 143.357 174.166C144.077 173.686 144.637 173.003 144.967 172.204C145.298 171.405 145.384 170.526 145.215 169.677ZM163.772 147.68C164.384 148.292 164.801 149.072 164.971 149.921C165.14 150.769 165.054 151.649 164.724 152.448C164.393 153.247 163.833 153.93 163.114 154.41C162.395 154.89 161.549 155.146 160.684 155.146C159.819 155.145 158.973 154.888 158.253 154.407C157.534 153.926 156.972 153.242 156.641 152.443C156.309 151.643 156.222 150.764 156.39 149.915C156.559 149.067 156.975 148.288 157.586 147.676C158.406 146.856 159.518 146.396 160.678 146.397C161.838 146.398 162.951 146.859 163.772 147.68ZM184.76 130.131C184.591 129.282 184.174 128.503 183.562 127.891C182.741 127.07 181.628 126.608 180.468 126.607C179.308 126.607 178.195 127.067 177.376 127.887C176.764 128.498 176.348 129.277 176.18 130.126C176.012 130.974 176.099 131.853 176.431 132.653C176.762 133.453 177.323 134.136 178.043 134.617C178.763 135.098 179.609 135.355 180.474 135.356C181.339 135.357 182.184 135.101 182.903 134.62C183.622 134.14 184.183 133.457 184.513 132.658C184.844 131.859 184.93 130.98 184.76 130.131ZM203.352 108.101C203.964 108.713 204.381 109.493 204.55 110.341C204.719 111.19 204.634 112.07 204.303 112.869C203.972 113.668 203.412 114.351 202.693 114.831C201.974 115.311 201.129 115.567 200.263 115.566C199.398 115.566 198.552 115.309 197.833 114.828C197.113 114.346 196.552 113.663 196.22 112.863C195.889 112.064 195.801 111.184 195.97 110.336C196.138 109.487 196.554 108.708 197.165 108.097C197.985 107.277 199.097 106.817 200.258 106.818C201.418 106.818 202.531 107.28 203.352 108.101ZM224.34 90.5514C224.171 89.7027 223.754 88.923 223.142 88.3109C222.321 87.49 221.208 87.0284 220.048 87.0277C218.888 87.0269 217.775 87.487 216.955 88.3068C216.344 88.9182 215.928 89.6974 215.76 90.5458C215.591 91.3942 215.679 92.2738 216.01 93.0733C216.342 93.8728 216.903 94.5564 217.623 95.0375C218.342 95.5186 219.188 95.7758 220.053 95.7763C220.919 95.7769 221.764 95.5209 222.483 95.0407C223.202 94.5605 223.762 93.8777 224.093 93.0786C224.424 92.2795 224.51 91.4 224.34 90.5514ZM86.8961 190.585C86.7267 189.736 86.3097 188.956 85.6975 188.344C84.8766 187.523 83.7637 187.062 82.6035 187.061C81.4434 187.06 80.3311 187.52 79.5112 188.34C78.8999 188.952 78.4838 189.731 78.3156 190.579C78.1473 191.428 78.2345 192.307 78.5661 193.107C78.8977 193.906 79.4588 194.59 80.1785 195.071C80.8982 195.552 81.7441 195.809 82.6093 195.81C83.4744 195.81 84.32 195.554 85.039 195.074C85.758 194.594 86.3183 193.911 86.6489 193.112C86.9794 192.313 87.0654 191.433 86.8961 190.585ZM105.488 168.554C106.1 169.166 106.517 169.946 106.686 170.795C106.855 171.643 106.769 172.523 106.439 173.322C106.108 174.121 105.548 174.804 104.829 175.284C104.11 175.764 103.264 176.02 102.399 176.02C101.534 176.019 100.688 175.762 99.9685 175.281C99.2489 174.8 98.6878 174.116 98.3562 173.317C98.0246 172.517 97.9374 171.638 98.1056 170.789C98.2738 169.941 98.6899 169.162 99.3013 168.55C100.121 167.73 101.233 167.27 102.394 167.271C103.554 167.272 104.667 167.733 105.488 168.554ZM126.509 150.972C126.34 150.123 125.923 149.343 125.311 148.731C124.904 148.325 124.422 148.002 123.891 147.782C123.36 147.562 122.791 147.448 122.217 147.448C121.642 147.448 121.073 147.56 120.543 147.78C120.012 147.999 119.53 148.321 119.124 148.727C118.513 149.338 118.097 150.118 117.929 150.966C117.76 151.814 117.848 152.694 118.179 153.494C118.511 154.293 119.072 154.977 119.792 155.458C120.511 155.939 121.357 156.196 122.222 156.197C123.088 156.197 123.933 155.941 124.652 155.461C125.371 154.981 125.931 154.298 126.262 153.499C126.593 152.7 126.679 151.82 126.509 150.972ZM145.067 128.975C145.716 129.571 146.171 130.349 146.371 131.208C146.571 132.066 146.507 132.964 146.188 133.785C145.868 134.606 145.309 135.311 144.582 135.807C143.855 136.304 142.994 136.57 142.113 136.569C141.232 136.569 140.372 136.302 139.644 135.804C138.916 135.306 138.356 134.601 138.035 133.78C137.715 132.958 137.65 132.06 137.849 131.202C138.048 130.344 138.501 129.566 139.15 128.971C139.956 128.23 141.012 127.82 142.108 127.82C143.203 127.821 144.259 128.233 145.067 128.975ZM166.055 111.426C165.886 110.577 165.469 109.797 164.857 109.185C164.036 108.364 162.923 107.903 161.763 107.902C160.602 107.901 159.49 108.361 158.67 109.181C158.059 109.793 157.643 110.572 157.475 111.42C157.306 112.269 157.394 113.148 157.725 113.948C158.057 114.747 158.618 115.431 159.338 115.912C160.057 116.393 160.903 116.65 161.768 116.651C162.633 116.651 163.479 116.395 164.198 115.915C164.917 115.435 165.477 114.752 165.808 113.953C166.138 113.154 166.224 112.274 166.055 111.426ZM184.646 89.3955C185.258 90.0077 185.675 90.7874 185.845 91.636C186.014 92.4847 185.928 93.3642 185.598 94.1633C185.267 94.9624 184.707 95.6451 183.988 96.1253C183.269 96.6055 182.423 96.8616 181.558 96.861C180.693 96.8604 179.847 96.6033 179.127 96.1222C178.408 95.641 177.846 94.9575 177.515 94.158C177.183 93.3584 177.096 92.4789 177.264 91.6305C177.433 90.7821 177.849 90.0028 178.46 89.3915C179.28 88.5717 180.392 88.1115 181.552 88.1123C182.712 88.1131 183.825 88.5747 184.646 89.3955ZM205.635 71.846C205.465 70.9973 205.048 70.2177 204.436 69.6055C203.615 68.7846 202.502 68.323 201.342 68.3223C200.182 68.3215 199.07 68.7816 198.25 69.6015C197.639 70.2128 197.223 70.992 197.054 71.8404C196.886 72.6889 196.973 73.5684 197.305 74.3679C197.636 75.1674 198.198 75.851 198.917 76.3321C199.637 76.8132 200.483 77.0704 201.348 77.0709C202.213 77.0715 203.059 76.8155 203.778 76.3353C204.497 75.8551 205.057 75.1723 205.388 74.3732C205.718 73.5742 205.804 72.6946 205.635 71.846ZM68.1908 171.879C68.0215 171.031 67.6044 170.251 66.9922 169.639C66.1713 168.818 65.0584 168.356 63.8982 168.356C62.7381 168.355 61.6258 168.815 60.806 169.635C60.1946 170.246 59.7785 171.025 59.6103 171.874C59.4421 172.722 59.5292 173.602 59.8608 174.401C60.1924 175.201 60.7536 175.884 61.4732 176.366C62.1929 176.847 63.0388 177.104 63.904 177.104C64.7692 177.105 65.6147 176.849 66.3337 176.369C67.0528 175.889 67.613 175.206 67.9436 174.407C68.2741 173.608 68.3601 172.728 68.1908 171.879ZM86.7823 149.849C87.3944 150.461 87.8115 151.241 87.9808 152.089C88.1502 152.938 88.0642 153.818 87.7336 154.617C87.403 155.416 86.8428 156.099 86.1237 156.579C85.4047 157.059 84.5592 157.315 83.694 157.314C82.8289 157.314 81.9829 157.057 81.2633 156.576C80.5436 156.094 79.9825 155.411 79.6509 154.611C79.3193 153.812 79.2321 152.932 79.4003 152.084C79.5686 151.235 79.9846 150.456 80.596 149.845C81.4158 149.025 82.5281 148.565 83.6883 148.566C84.8484 148.566 85.9614 149.028 86.7823 149.849ZM107.804 132.266C107.635 131.418 107.217 130.638 106.605 130.026C106.199 129.619 105.716 129.297 105.186 129.077C104.655 128.856 104.086 128.743 103.511 128.743C102.937 128.742 102.368 128.855 101.838 129.075C101.307 129.294 100.825 129.616 100.419 130.022C99.8077 130.633 99.3916 131.412 99.2234 132.261C99.0552 133.109 99.1423 133.989 99.4739 134.788C99.8055 135.588 100.367 136.271 101.086 136.752C101.806 137.234 102.652 137.491 103.517 137.491C104.382 137.492 105.228 137.236 105.947 136.756C106.666 136.275 107.226 135.593 107.557 134.794C107.887 133.995 107.973 133.115 107.804 132.266ZM126.362 110.27C126.974 110.882 127.391 111.661 127.56 112.51C127.729 113.359 127.643 114.238 127.313 115.037C126.982 115.836 126.422 116.519 125.703 116.999C124.984 117.48 124.139 117.736 123.273 117.735C122.408 117.734 121.562 117.477 120.843 116.996C120.123 116.515 119.562 115.832 119.23 115.032C118.899 114.232 118.811 113.353 118.98 112.505C119.148 111.656 119.564 110.877 120.175 110.266C120.995 109.446 122.107 108.986 123.268 108.986C124.428 108.987 125.541 109.449 126.362 110.27ZM147.35 92.7204C147.18 91.8717 146.763 91.0921 146.151 90.4799C145.33 89.6591 144.217 89.1974 143.057 89.1967C141.897 89.1959 140.785 89.6561 139.965 90.4759C139.354 91.0872 138.938 91.8664 138.769 92.7148C138.601 93.5633 138.688 94.4428 139.02 95.2423C139.351 96.0419 139.913 96.7254 140.632 97.2065C141.352 97.6877 142.198 97.9448 143.063 97.9454C143.928 97.9459 144.774 97.6899 145.493 97.2097C146.212 96.7295 146.772 96.0467 147.103 95.2476C147.433 94.4486 147.519 93.569 147.35 92.7204ZM165.941 70.6902C166.553 71.3024 166.97 72.0821 167.139 72.9307C167.309 73.7794 167.223 74.6589 166.892 75.458C166.562 76.2571 166.001 76.9399 165.282 77.42C164.563 77.9002 163.718 78.1563 162.853 78.1557C161.988 78.1551 161.142 77.898 160.422 77.4169C159.702 76.9357 159.141 76.2522 158.81 75.4527C158.478 74.6532 158.391 73.7736 158.559 72.9252C158.727 72.0768 159.143 71.2976 159.755 70.6862C160.574 69.8664 161.687 69.4063 162.847 69.407C164.007 69.4078 165.12 69.8694 165.941 70.6902ZM186.93 53.1407C186.76 52.292 186.343 51.5124 185.731 50.9002C184.91 50.0793 183.797 49.6177 182.637 49.617C181.477 49.6162 180.364 50.0764 179.545 50.8962C178.933 51.5075 178.517 52.2867 178.349 53.1351C178.181 53.9836 178.268 54.8631 178.6 55.6626C178.931 56.4622 179.492 57.1457 180.212 57.6268C180.932 58.108 181.778 58.3651 182.643 58.3657C183.508 58.3662 184.353 58.1102 185.072 57.63C185.791 57.1498 186.352 56.467 186.682 55.668C187.013 54.8689 187.099 53.9893 186.93 53.1407ZM49.4854 153.174C49.3161 152.325 48.899 151.546 48.2868 150.934C47.466 150.113 46.353 149.651 45.1929 149.65C44.0327 149.65 42.9204 150.11 42.1006 150.93C41.4892 151.541 41.0731 152.32 40.9049 153.168C40.7367 154.017 40.8238 154.896 41.1554 155.696C41.4871 156.496 42.0482 157.179 42.7678 157.66C43.4875 158.141 44.3335 158.398 45.1986 158.399C46.0638 158.4 46.9093 158.144 47.6283 157.663C48.3474 157.183 48.9075 156.5 49.2381 155.701C49.5687 154.902 49.6547 154.023 49.4854 153.174ZM68.0769 131.144C68.689 131.756 69.1061 132.535 69.2754 133.384C69.4448 134.233 69.3587 135.112 69.0281 135.911C68.6976 136.71 68.1374 137.393 67.4184 137.873C66.6993 138.353 65.8538 138.61 64.9887 138.609C64.1235 138.608 63.2775 138.351 62.5579 137.87C61.8382 137.389 61.2771 136.705 60.9455 135.906C60.6139 135.106 60.5267 134.227 60.6949 133.378C60.8632 132.53 61.2792 131.751 61.8906 131.139C62.7104 130.32 63.8228 129.86 64.9829 129.86C66.143 129.861 67.256 130.323 68.0769 131.144ZM89.0985 113.561C88.9292 112.712 88.5121 111.933 87.8999 111.32C87.4935 110.914 87.011 110.591 86.4801 110.371C85.9493 110.151 85.3804 110.038 84.806 110.037C84.2315 110.037 83.6628 110.15 83.1322 110.369C82.6016 110.589 82.1196 110.91 81.7137 111.316C81.1023 111.928 80.6862 112.707 80.518 113.555C80.3498 114.404 80.4369 115.283 80.7685 116.083C81.1001 116.882 81.6613 117.566 82.3809 118.047C83.1006 118.528 83.9465 118.785 84.8117 118.786C85.6768 118.787 86.5224 118.53 87.2414 118.05C87.9605 117.57 88.5206 116.887 88.8512 116.088C89.1817 115.289 89.2678 114.41 89.0985 113.561ZM107.656 91.5642C108.268 92.1764 108.685 92.956 108.855 93.8047C109.024 94.6533 108.938 95.5328 108.607 96.3319C108.277 97.1309 107.717 97.8138 106.998 98.294C106.279 98.7742 105.433 99.0302 104.568 99.0297C103.703 99.0291 102.857 98.7719 102.137 98.2908C101.418 97.8097 100.856 97.1261 100.525 96.3266C100.193 95.5271 100.106 94.6476 100.274 93.7991C100.443 92.9507 100.859 92.1715 101.47 91.5601C102.29 90.7403 103.402 90.2802 104.562 90.281C105.722 90.2817 106.835 90.7433 107.656 91.5642ZM128.644 74.015C128.475 73.1664 128.058 72.3867 127.446 71.7746C126.625 70.9537 125.512 70.4921 124.352 70.4913C123.192 70.4905 122.079 70.9507 121.26 71.7705C120.648 72.3818 120.232 73.161 120.064 74.0095C119.896 74.8579 119.983 75.7374 120.314 76.537C120.646 77.3365 121.207 78.02 121.927 78.5011C122.647 78.9823 123.492 79.2394 124.358 79.24C125.223 79.2405 126.068 78.9845 126.787 78.5043C127.506 78.0241 128.067 77.3413 128.397 76.5422C128.728 75.7431 128.814 74.8636 128.644 74.015ZM147.236 51.9849C147.848 52.597 148.265 53.3767 148.434 54.2253C148.603 55.074 148.517 55.9534 148.187 56.7525C147.856 57.5516 147.296 58.2345 146.577 58.7147C145.858 59.1948 145.012 59.4509 144.147 59.4503C143.282 59.4498 142.436 59.1926 141.717 58.7115C140.997 58.2304 140.436 57.5468 140.104 56.7473C139.773 55.9478 139.685 55.0682 139.854 54.2198C140.022 53.3714 140.438 52.5922 141.049 51.9808C141.869 51.161 142.981 50.7009 144.142 50.7016C145.302 50.7024 146.415 51.164 147.236 51.9849ZM168.224 34.4353C168.055 33.5867 167.638 32.807 167.026 32.1948C166.205 31.374 165.092 30.9124 163.932 30.9116C162.771 30.9108 161.659 31.371 160.839 32.1908C160.228 32.8021 159.812 33.5813 159.644 34.4298C159.475 35.2782 159.563 36.1577 159.894 36.9573C160.226 37.7568 160.787 38.4403 161.507 38.9214C162.226 39.4026 163.072 39.6597 163.937 39.6603C164.802 39.6609 165.648 39.4048 166.367 38.9246C167.086 38.4444 167.646 37.7616 167.977 36.9625C168.307 36.1634 168.393 35.284 168.224 34.4353ZM30.7801 134.469C30.6108 133.62 30.1937 132.84 29.5815 132.228C29.1751 131.822 28.6926 131.499 28.1618 131.279C27.6309 131.059 27.062 130.945 26.4876 130.945C25.9131 130.945 25.3444 131.057 24.8138 131.277C24.2832 131.496 23.8012 131.818 23.3953 132.224C22.7839 132.836 22.3679 133.615 22.1996 134.463C22.0314 135.312 22.1186 136.191 22.4502 136.991C22.7818 137.79 23.3429 138.474 24.0626 138.955C24.7822 139.436 25.6281 139.693 26.4932 139.694C27.3584 139.694 28.204 139.438 28.923 138.958C29.6421 138.478 30.2022 137.795 30.5328 136.996C30.8634 136.197 30.9495 135.317 30.7801 134.469ZM49.3716 112.438C49.9837 113.05 50.4008 113.83 50.5702 114.679C50.7395 115.527 50.6534 116.407 50.3228 117.206C49.9923 118.005 49.4321 118.688 48.7131 119.168C47.994 119.648 47.1484 119.904 46.2833 119.904C45.4181 119.903 44.5723 119.646 43.8526 119.165C43.1329 118.684 42.5718 118 42.2402 117.201C41.9086 116.401 41.8214 115.522 41.9897 114.673C42.1579 113.825 42.574 113.046 43.1853 112.434C43.5912 112.028 44.0733 111.706 44.6038 111.487C45.1344 111.267 45.7032 111.155 46.2776 111.155C46.8521 111.155 47.4209 111.269 47.9518 111.489C48.4827 111.709 48.9651 112.032 49.3716 112.438ZM70.3932 94.8557C70.2239 94.007 69.8068 93.2274 69.1946 92.6152C68.7882 92.2088 68.3057 91.8862 67.7748 91.666C67.244 91.4458 66.6751 91.3323 66.1007 91.332C65.5262 91.3316 64.9575 91.4444 64.4269 91.6639C63.8963 91.8833 63.4143 92.2052 63.0084 92.6111C62.397 93.2225 61.981 94.0017 61.8127 94.8501C61.6445 95.6985 61.7317 96.5781 62.0633 97.3776C62.3949 98.1771 62.956 98.8607 63.6756 99.3418C64.3953 99.8229 65.2411 100.08 66.1063 100.081C66.9715 100.081 67.8171 99.8251 68.5361 99.345C69.2552 98.8648 69.8153 98.1819 70.1459 97.3828C70.4765 96.5838 70.5626 95.7043 70.3932 94.8557ZM88.9509 72.8589C89.5631 73.4711 89.9801 74.2507 90.1495 75.0994C90.3188 75.948 90.2327 76.8275 89.9022 77.6266C89.5716 78.4257 89.0114 79.1085 88.2924 79.5887C87.5734 80.0689 86.7278 80.3248 85.8626 80.3243C84.9974 80.3237 84.1516 80.0667 83.4319 79.5855C82.7123 79.1044 82.1511 78.4209 81.8195 77.6213C81.4879 76.8218 81.4008 75.9423 81.569 75.0938C81.7372 74.2454 82.1533 73.4662 82.7646 72.8549C83.1706 72.4489 83.6526 72.1271 84.1832 71.9076C84.7137 71.6881 85.2825 71.5753 85.8569 71.5757C86.4314 71.5761 87.0003 71.6896 87.5311 71.9097C88.062 72.1299 88.5445 72.4525 88.9509 72.8589ZM109.939 55.3097C109.77 54.4611 109.353 53.6814 108.741 53.0693C108.334 52.6628 107.852 52.3403 107.321 52.1201C106.79 51.8999 106.221 51.7864 105.647 51.786C105.072 51.7856 104.503 51.8984 103.973 52.1179C103.442 52.3374 102.96 52.6593 102.554 53.0652C101.943 53.6766 101.527 54.4558 101.359 55.3042C101.19 56.1526 101.278 57.0322 101.609 57.8317C101.941 58.6312 102.502 59.3147 103.222 59.7959C103.941 60.277 104.787 60.534 105.652 60.5346C106.517 60.5352 107.363 60.2792 108.082 59.799C108.801 59.3188 109.361 58.636 109.692 57.8369C110.022 57.0378 110.108 56.1584 109.939 55.3097ZM128.53 33.2796C129.142 33.8917 129.559 34.6714 129.729 35.5201C129.898 36.3687 129.812 37.2481 129.482 38.0472C129.151 38.8463 128.591 39.5292 127.872 40.0094C127.153 40.4896 126.307 40.7455 125.442 40.7449C124.577 40.7444 123.731 40.4873 123.011 40.0062C122.292 39.5251 121.73 38.8415 121.399 38.042C121.067 37.2425 120.98 36.3629 121.148 35.5145C121.317 34.6661 121.733 33.8869 122.344 33.2755C122.75 32.8696 123.232 32.5477 123.763 32.3282C124.293 32.1087 124.862 31.996 125.436 31.9964C126.011 31.9967 126.58 32.1102 127.11 32.3304C127.641 32.5506 128.124 32.8731 128.53 33.2796ZM149.519 15.73C149.35 14.8814 148.932 14.1017 148.32 13.4895C147.914 13.0831 147.431 12.7605 146.901 12.5404C146.37 12.3202 145.801 12.2067 145.226 12.2063C144.652 12.2059 144.083 12.3187 143.553 12.5382C143.022 12.7577 142.54 13.0796 142.134 13.4855C141.523 14.0969 141.107 14.8761 140.938 15.7245C140.77 16.5729 140.857 17.4525 141.189 18.252C141.52 19.0515 142.082 19.735 142.801 20.2162C143.521 20.6973 144.367 20.9543 145.232 20.9549C146.097 20.9555 146.943 20.6995 147.662 20.2193C148.381 19.7392 148.941 19.0563 149.272 18.2572C149.602 17.4581 149.688 16.5787 149.519 15.73Z" fill="#DCEDFF"/>
<path d="M266.96 17.843L140.494 144.309C137.469 147.334 137.472 152.241 140.501 155.27L267.132 281.901C270.16 284.929 275.068 284.932 278.092 281.908L404.559 155.442C407.583 152.417 407.58 147.51 404.551 144.481L277.92 17.8501C274.892 14.8215 269.985 14.8183 266.96 17.843Z" stroke="#61A1F4" stroke-width="0.89" stroke-miterlimit="10"/>
</svg>
