<svg width="31" height="29" viewBox="0 0 31 29" fill="none" xmlns="http://www.w3.org/2000/svg">
<g clip-path="url(#clip0_914_11)">
<path d="M31 6.83061C30.7978 7.62532 30.5883 8.41817 30.3945 9.21474C29.6595 12.2432 28.9299 15.2728 28.1967 18.3019C28.0017 19.1071 27.6312 19.4017 26.8253 19.4017C20.9426 19.4017 15.0604 19.4017 9.1777 19.4017C8.3482 19.4017 7.98734 19.1139 7.79359 18.2858C6.58629 13.1276 5.3808 7.96945 4.17531 2.81128C4.07359 2.37493 4.07541 2.37431 3.63463 2.37431C2.91836 2.37431 2.20088 2.34832 1.48582 2.38174C0.764707 2.41516 0.254297 2.15892 0 1.44592V0.950152C0.237949 0.246428 0.725957 -0.0190932 1.44404 0.00133148C2.56295 0.032278 3.68367 0.00875865 4.80379 0.00999651C5.59574 0.0106154 5.97234 0.30894 6.15701 1.09003C6.46883 2.41145 6.77459 3.7341 7.08459 5.05614C7.10941 5.16198 7.14211 5.26658 7.17359 5.37984C7.33949 5.37984 7.48057 5.37984 7.62104 5.37984C14.926 5.37984 22.2304 5.38417 29.5354 5.37241C30.2571 5.37118 30.7669 5.60884 31.0012 6.33547V6.83061H31ZM9.88367 17.038H10.1676C15.3825 17.038 20.5974 17.0362 25.8123 17.0442C26.0539 17.0442 26.1332 16.9631 26.1883 16.7335C26.8792 13.8437 27.5809 10.9564 28.2796 8.06786C28.3026 7.97316 28.3178 7.87661 28.3378 7.7751H7.71852C8.44266 10.8747 9.16074 13.9458 9.88367 17.038V17.038Z" fill="white"/>
<path d="M14.3757 25.0468C14.3854 27.2124 12.6713 28.982 10.5461 28.9999C8.40756 29.0179 6.66745 27.2657 6.65534 25.0821C6.64323 22.8948 8.35428 21.1265 10.497 21.1129C12.6307 21.0993 14.366 22.8589 14.3763 25.0468H14.3757ZM12.0531 25.0412C12.0476 24.1791 11.3507 23.4759 10.5067 23.4797C9.66815 23.4834 8.96762 24.2007 8.96823 25.0561C8.96823 25.9226 9.68995 26.6492 10.5364 26.635C11.3792 26.6207 12.0591 25.9065 12.0537 25.0412H12.0531Z" fill="white"/>
<path d="M20.6871 25.0419C20.698 22.8515 22.432 21.0962 24.5669 21.1129C26.7103 21.1296 28.4183 22.8991 28.4032 25.0864C28.3874 27.2713 26.6467 29.0204 24.5082 28.9993C22.3806 28.9783 20.6762 27.2131 20.6871 25.0419V25.0419ZM23.0048 25.0654C23.009 25.9257 23.7077 26.6369 24.5469 26.6356C25.3831 26.6344 26.0872 25.9177 26.0921 25.0629C26.0969 24.1964 25.3819 23.4717 24.5294 23.4803C23.6866 23.4884 23.0006 24.202 23.0048 25.0654Z" fill="white"/>
</g>
<defs>
<clipPath id="clip0_914_11">
<rect width="31" height="29" fill="white"/>
</clipPath>
</defs>
</svg>
