<svg width="80" height="80" viewBox="0 0 80 80" fill="none" xmlns="http://www.w3.org/2000/svg">
<path d="M4 39L10.5 47L13.5 49.5L25.5 54L27.5 51.5L35.5 47L48.5 45L54 32.5V25L51 15.5L46 9.5L37.5 3H29.5H24.5L13.5 7L5.5 14L2 27L4 39Z" fill="#E6F2FF"/>
<path d="M23.8307 56.1291L23.8277 55.8474L23.5519 55.7901L22.2046 55.5101C14.2587 53.8586 6.87433 48.0429 3.19632 40.5291C1.15589 36.3608 0.357497 32.9397 0.350084 28.3386C0.345594 25.5592 0.520613 24.0434 1.12577 21.5978L0.786947 21.5139L1.12578 21.5978C3.9858 10.0389 14.2051 1.43087 26.2672 0.432836L26.2384 0.0840275L26.2672 0.432835C30.4845 0.0838717 35.0403 0.843792 39.1912 2.59357L39.3271 2.27106L39.1912 2.59358C45.1618 5.11036 50.557 10.2957 53.3697 16.2236C57.0831 24.0506 56.9841 33.1869 53.1015 40.9363L52.4264 42.284L52.1885 42.7587L52.7186 42.7901L54.4681 42.8939C62.9341 43.3963 69.4824 45.2134 74.17 48.3212C76.6504 49.9657 78.2755 51.847 79.0821 53.9534L79.4707 54.9681L79.5273 60.492C79.5437 62.097 79.5416 63.5942 79.5245 64.7593C79.5071 65.9392 79.4743 66.7461 79.4348 66.9964C79.1173 69.0107 78.3397 70.4521 76.6231 72.1531C75.1973 73.5659 73.5754 74.6618 71.2771 75.7542C66.3019 78.1184 60.526 79.3543 53.3369 79.5767C44.2998 79.8562 35.3854 77.9331 29.9394 74.5674C26.9574 72.7244 25.1621 70.7232 24.2503 68.2943C24.1159 67.9364 24.039 67.6566 23.9893 66.8018C23.9387 65.9324 23.9181 64.4994 23.8904 61.8418L23.8307 56.1291ZM43.3609 10.2171L43.6378 9.94012L43.3315 9.69597L42.9409 9.38459C40.1578 7.16544 36.1085 5.34901 32.5124 4.70467C31.8203 4.58063 30.5202 4.47455 29.2893 4.41529C28.0671 4.35646 26.8526 4.3406 26.3464 4.41095L26.3464 4.41096C24.0531 4.72984 23.3039 4.87441 21.9 5.27429L21.9959 5.6109L21.9 5.27429C13.2545 7.73717 6.51741 14.9848 4.73788 23.7412L5.08086 23.8109L4.73787 23.7412C3.70056 28.846 4.45991 34.2672 6.88085 39.0796C7.39729 40.1062 8.72002 42.2066 9.40145 43.0816C9.44107 43.1325 9.51198 43.2047 9.62618 43.2403C9.73787 43.2752 9.84214 43.2598 9.92129 43.2351C10.0626 43.1911 10.2177 43.0865 10.3933 42.9489C10.7616 42.6601 11.3869 42.0868 12.4847 41.0245C14.6878 38.8926 18.8428 34.7426 26.7632 26.8199L43.3609 10.2171ZM47.2245 13.7135L47.2244 13.7134C47.1163 13.5672 47.0055 13.4314 46.9122 13.3293C46.8662 13.279 46.8192 13.231 46.7753 13.1929C46.754 13.1744 46.726 13.1517 46.694 13.1315L46.6925 13.1305C46.6743 13.119 46.593 13.0673 46.4821 13.0673C46.4424 13.0696 46.3808 13.0823 46.3588 13.0897C46.345 13.0952 46.3225 13.1057 46.3135 13.1104C46.2962 13.1199 46.2832 13.1289 46.2777 13.1328C46.2655 13.1414 46.2558 13.1494 46.2512 13.1531C46.2408 13.1618 46.23 13.1714 46.221 13.1796C46.2019 13.1968 46.1765 13.2207 46.1461 13.2495C46.0847 13.3079 45.996 13.3936 45.8822 13.5047C45.6541 13.727 45.3213 14.0543 44.8954 14.4749C44.0436 15.3162 42.8178 16.5326 41.3091 18.0333C38.2917 21.0348 34.142 25.1748 29.5884 29.7286C21.6874 37.6297 17.5486 41.775 15.4224 43.9731C14.3629 45.0684 13.791 45.6925 13.503 46.0602C13.3657 46.2354 13.2613 46.3905 13.2174 46.5318C13.1928 46.611 13.1776 46.7152 13.2125 46.8267C13.2481 46.9407 13.3202 47.0116 13.3711 47.0512L13.5862 46.7751L13.3711 47.0512C16.2209 49.2716 19.9536 50.9895 23.4958 51.7109L25.0421 52.0259L25.2547 52.0692L25.388 51.8981L25.7168 51.4762C27.8145 48.7851 31.4668 46.5859 36.5351 45.0257C38.9873 44.2708 42.5538 43.5209 44.7901 43.2887L44.754 42.9406L44.7902 43.2887C45.2468 43.2413 45.7028 43.1818 46.0708 43.124C46.2546 43.0952 46.4189 43.0663 46.5516 43.0392C46.6748 43.014 46.7969 42.9852 46.879 42.952C46.9985 42.9038 47.1122 42.8022 47.1957 42.7209C47.2923 42.6267 47.4006 42.5065 47.5132 42.371C47.739 42.0994 47.9964 41.7492 48.2337 41.3839L48.2338 41.3839C53.7494 32.8896 53.3481 21.9961 47.2245 13.7135ZM73.6346 60.0994L73.3931 59.8461L73.6346 60.0993C74.2999 59.4648 74.7672 58.9222 75.0659 58.3715C75.3702 57.8107 75.4905 57.259 75.4921 56.6232C75.4939 55.9662 75.3776 55.3864 75.0964 54.814C74.8181 54.2476 74.387 53.7065 73.7861 53.1128C72.6674 52.0078 71.8385 51.4368 70.0687 50.5379C66.8414 48.8987 63.1954 47.8755 58.2385 47.2033L58.1915 47.5501L58.2385 47.2033C57.3671 47.0852 55.2582 46.9776 53.2086 46.9163C51.163 46.8552 49.1214 46.8384 48.3917 46.9099C47.0101 47.0453 45.9984 47.1503 45.2907 47.2327C44.5965 47.3136 44.1663 47.3757 43.9726 47.4289L43.9725 47.4289C43.9021 47.4482 43.7516 47.5106 43.6938 47.6879C43.6436 47.842 43.704 47.9715 43.7309 48.0219C43.7901 48.1328 43.9011 48.2462 44.0208 48.3564C44.2791 48.5942 44.7487 48.9664 45.5156 49.5406C47.0558 50.6938 49.8449 52.6982 54.6761 56.1481L65.869 64.1409L66.0191 64.248L66.1923 64.1849L67.0565 63.8699C69.7396 62.8919 72.1414 61.5233 73.6346 60.0994ZM28.2583 55.0294L28.5756 55.1772L28.2582 55.0294C27.8904 55.8197 27.774 56.5779 27.9579 57.3516C28.1392 58.1151 28.6037 58.8541 29.3199 59.63C31.2867 61.7606 34.7725 63.482 38.9988 64.6314C43.2362 65.7839 48.2633 66.3738 53.3592 66.2074C54.6929 66.1639 56.2791 66.0587 57.5525 65.9433C58.1889 65.8857 58.7509 65.8251 59.1661 65.7679C59.3728 65.7394 59.5488 65.711 59.6813 65.6832C59.7468 65.6695 59.8092 65.6543 59.8622 65.6372C59.8886 65.6287 59.9193 65.6176 59.9499 65.6031C59.9739 65.5917 60.0289 65.5641 60.0785 65.5118L59.8248 65.2707L60.0786 65.5117C60.1798 65.4052 60.1806 65.2792 60.1707 65.216C60.1615 65.1573 60.1394 65.1154 60.1307 65.0997C60.1115 65.065 60.0903 65.0412 60.0849 65.035C60.0693 65.0174 60.0541 65.0035 60.0475 64.9976C60.0312 64.9829 60.0115 64.9667 59.9924 64.9513C59.9524 64.9191 59.8947 64.8746 59.8221 64.8195C59.6761 64.7087 59.4603 64.5483 59.1833 64.3443C58.6289 63.9361 57.8243 63.3499 56.8299 62.6295C54.8409 61.1886 52.0906 59.2091 49.0588 57.039C46.0272 54.869 43.252 52.8847 41.2227 51.4359C40.2081 50.7114 39.3799 50.1208 38.7994 49.7077C38.5091 49.5012 38.2806 49.3389 38.1216 49.2263C37.9741 49.122 37.8665 49.0461 37.8393 49.0299L37.8391 49.0298C37.7384 48.9697 37.6313 48.97 37.5978 48.9701H37.5973C37.5443 48.9703 37.4885 48.9764 37.4362 48.9843C37.33 49.0004 37.2 49.0299 37.0583 49.0677C36.7728 49.1439 36.4101 49.2621 36.0363 49.4036C32.0102 50.9277 29.2712 52.8537 28.2583 55.0294ZM29.4005 64.8431L29.4005 64.8431C29.0589 64.6167 28.681 64.3729 28.5631 64.3041C28.489 64.2609 28.3824 64.2274 28.2605 64.2542C28.1433 64.2799 28.0654 64.35 28.0202 64.4059C27.9393 64.5059 27.9046 64.632 27.8862 64.718C27.8449 64.9102 27.8329 65.1708 27.8392 65.4416C27.852 65.9869 27.9424 66.6844 28.113 67.1852L28.4443 67.0723L28.113 67.1852C28.4908 68.294 29.5665 69.438 31.0342 70.4796C32.5148 71.5302 34.4434 72.5112 36.605 73.2762C45.5007 76.424 58.6129 76.3816 67.2044 73.1725C70.3747 71.9885 72.4555 70.7502 74.0179 69.0802C74.5777 68.4818 74.972 67.9388 75.2229 67.3502C75.4752 66.7583 75.5727 66.1434 75.5727 65.415V64.4993V63.8385L75.0261 64.2098L74.0714 64.8582C72.0579 66.2255 67.9274 67.9239 64.5164 68.7733L64.601 69.1129L64.5164 68.7733C62.6755 69.2318 59.8596 69.713 57.5287 69.9664C56.3882 70.0903 54.0926 70.1534 51.7808 70.1531C49.469 70.1528 47.1765 70.0892 46.0421 69.965C39.0495 69.1994 33.2725 67.4102 29.4005 64.8431Z" fill="#343F3E" stroke="white" stroke-width="0.7"/>
</svg>
